<svg width="160" height="160" viewBox="0 0 160 160" fill="none" xmlns="http://www.w3.org/2000/svg">
<path fill-rule="evenodd" clip-rule="evenodd" d="M0 80C0 35.8172 35.8172 0 80 0C124.183 0 160 35.8172 160 80C160 124.183 124.183 160 80 160C35.8172 160 0 124.183 0 80Z" fill="black"/>
<path fill-rule="evenodd" clip-rule="evenodd" d="M65 124H58.3634L56.3408 119.262H45.3431L43.5102 124H37L46.9232 100H54.0655L65 124ZM50.5892 105.723L46.9865 115.077H54.5711L50.5892 105.723Z" fill="white"/>
<path fill-rule="evenodd" clip-rule="evenodd" d="M88.5357 100H94V124H87.7643V109.046L80.95 116.554H79.9857L73.2357 109.046V124H67V100H72.4643L80.5 108.923L88.5357 100Z" fill="white"/>
<path fill-rule="evenodd" clip-rule="evenodd" d="M109.639 100C118.423 100 123 105.477 123 112.062C123 118.954 118.608 124 108.959 124H99V100H109.639ZM105 119.631H108.897C114.959 119.631 116.753 115.569 116.753 112C116.753 107.877 114.526 104.369 108.835 104.369H105V119.631Z" fill="white"/>
<path fill-rule="evenodd" clip-rule="evenodd" d="M93.3544 44.1985H66.519L50 28.0623L110 28V87L93.3544 70.49V44.1985Z" fill="#2B9969"/>
<path fill-rule="evenodd" clip-rule="evenodd" d="M64.704 70.6099L64.566 44L46 62.6687V89H72.8482L91 70.6099H64.704Z" fill="#2B9969"/>
</svg>
