<svg width="265" height="400" viewBox="0 0 265 400" fill="none" xmlns="http://www.w3.org/2000/svg">
<g opacity="0.2">
<path d="M134.367 400C190.658 400 236.29 394.249 236.29 387.155C236.29 380.061 190.658 374.31 134.367 374.31C78.0761 374.31 32.4434 380.061 32.4434 387.155C32.4434 394.249 78.0761 400 134.367 400Z" fill="#1E3A59"/>
</g>
<path d="M43.2259 177.63C42.8465 178.009 42.4672 178.401 42.0878 178.8C26.9399 194.681 13.1293 223.967 4.16663 250.02C-2.90587 218.515 6.62268 190.791 25.7376 165.24L43.2259 177.63Z" fill="#AFB5BC"/>
<path d="M74.4097 186.797L61.4262 187.858C56.1826 188.287 52.1593 192.691 52.2055 197.952L52.778 263.248C52.8256 268.681 57.1876 273.091 62.6202 273.197L82.6609 273.589" fill="white"/>
<g opacity="0.6">
<path d="M6.2948 244.027C5.56182 246.04 4.84811 248.04 4.16663 250.02C-2.90587 218.515 6.62268 190.791 25.7376 165.24L29.3253 167.78C11.9785 190.997 2.54001 216.014 6.2948 244.027Z" fill="white"/>
</g>
<path d="M75.9796 300.55C56.0104 303.501 57.3717 289.026 57.3717 289.026L55.8594 270.393L59.7023 273.166L73.3905 273.588" fill="white"/>
<path d="M82.6624 275.418C82.6504 275.418 82.6385 275.418 82.6259 275.418L62.5854 275.026C56.1179 274.899 51.0069 269.733 50.9492 263.264L50.3774 197.968C50.3227 191.78 55.111 186.539 61.2785 186.035L74.262 184.973C75.2592 184.895 76.1522 185.64 76.2343 186.648C76.3163 187.655 75.5671 188.538 74.5596 188.62L61.5762 189.681C57.3107 190.03 53.9985 193.656 54.0362 197.936L54.6086 263.232C54.648 267.706 58.183 271.28 62.6572 271.368L82.6977 271.76C83.7074 271.779 84.5108 272.614 84.4908 273.625C84.4716 274.623 83.6562 275.418 82.6624 275.418Z" fill="#1E3A59"/>
<path d="M27.8731 155.902L23.2364 151.621C21.6884 150.192 21.5209 147.804 22.8546 146.173L26.3715 141.871C27.7105 140.233 30.0963 139.927 31.805 141.175L36.7956 144.818" fill="#D35400"/>
<g opacity="0.6">
<path d="M36.7969 144.82L36.5912 145.077L34.6237 143.637C32.9135 142.39 30.5281 142.698 29.1908 144.338L25.6739 148.639C24.3365 150.266 24.5037 152.658 26.0531 154.085L27.937 155.828L27.8727 155.905L23.237 151.623C21.6875 150.189 21.5203 147.804 22.8577 146.17L26.3746 141.869C27.712 140.23 30.0973 139.927 31.8075 141.175L36.7969 144.82Z" fill="white"/>
</g>
<path d="M50.4582 171.419L49.6417 172.609L47.3657 175.939C46.1312 177.746 43.6622 178.177 41.8877 176.897L37.7407 173.908C37.7407 173.901 37.7342 173.901 37.7278 173.895L25.7368 165.241C23.9622 163.961 23.5958 161.467 24.933 159.731L35.6125 145.843C36.9306 144.126 39.3931 143.818 41.0905 145.155C42.4985 146.261 43.8552 147.354 43.9002 147.45L53.3709 154.407C53.3709 154.407 58.3345 160.972 59.3117 160.579C60.2825 160.181 50.4582 171.419 50.4582 171.419Z" fill="#AFB5BC"/>
<g opacity="0.6">
<path d="M53.371 154.407C53.371 154.407 54.0396 155.294 54.9397 156.4L47.9766 151.282C47.9317 151.179 46.5686 150.093 45.1604 148.987C43.463 147.65 41.0006 147.958 39.6824 149.668L29.003 163.556C28.18 164.623 28 165.98 28.405 167.163L25.7368 165.241C23.9622 163.961 23.5958 161.467 24.933 159.731L35.6125 145.843C36.9306 144.126 39.3931 143.818 41.0905 145.155C42.4985 146.261 43.8552 147.354 43.9002 147.45L53.371 154.407Z" fill="white"/>
</g>
<path d="M44.1505 179.465C42.9628 179.465 41.8087 179.094 40.8235 178.383L24.6694 166.726C23.4059 165.815 22.5854 164.463 22.3602 162.921C22.135 161.379 22.5341 159.849 23.484 158.613L34.1673 144.725C35.1041 143.507 36.4606 142.731 37.9863 142.54C39.5099 142.35 41.0174 142.768 42.2262 143.719C45.3439 146.172 45.3668 146.224 45.584 146.723C45.9876 147.649 45.564 148.727 44.638 149.131C43.8911 149.457 43.0466 149.244 42.5358 148.665C42.3938 148.539 41.8619 148.088 39.9638 146.595C39.5292 146.252 38.9877 146.103 38.4396 146.171C37.8918 146.239 37.4042 146.518 37.0672 146.956L26.3845 160.844C26.0429 161.287 25.8999 161.837 25.9808 162.392C26.0618 162.946 26.3566 163.431 26.8104 163.759L42.9651 175.416C43.4173 175.743 43.9703 175.868 44.5189 175.773C45.0685 175.677 45.5446 175.371 45.8593 174.91L48.9519 170.387C48.993 170.327 49.0374 170.27 49.0854 170.216C52.0189 166.861 55.1919 163.13 56.7627 161.156C55.6417 160.142 54.1057 158.407 51.9157 155.51C51.3061 154.705 51.4652 153.557 52.2715 152.948C53.0771 152.339 54.2244 152.498 54.8338 153.303C56.4912 155.495 58.6807 158.067 59.5691 158.752C60.0806 158.811 60.5549 159.078 60.8674 159.516C61.754 160.762 60.9609 161.757 59.5218 163.562C58.7811 164.491 57.7343 165.754 56.4103 167.315C54.3896 169.699 52.3193 172.074 51.9117 172.542L48.8801 176.975C48.0037 178.257 46.6786 179.11 45.1489 179.378C44.8153 179.436 44.4818 179.465 44.1505 179.465Z" fill="#1E3A59"/>
<path d="M242.224 200.725C242.224 200.725 243.188 241.984 211.844 248.735C211.844 248.735 204.553 250.201 198.484 248.182C198.445 248.169 198.413 248.156 198.381 248.143C198.252 248.098 198.117 248.053 197.989 248.002C197.969 247.995 197.963 247.989 197.963 247.989C197.448 247.802 196.953 247.584 196.465 247.339C196.465 247.339 196.593 248.162 196.67 249.448C196.838 252.213 196.767 257.119 194.645 260.629C194.645 260.629 194.112 280.451 192.183 296.313C190.254 312.175 188.749 360.608 188.749 360.608C201.023 360.949 208.61 372.561 204.2 383.729C203.351 385.889 201.242 387.291 198.927 387.291H150.102C145.775 387.291 142.283 383.761 142.335 379.434L142.483 366.504L142.727 345.177L135.616 311.943L135.333 310.619L130.029 345.177V379.524C130.029 383.812 126.55 387.291 122.262 387.291H74.4069C71.2693 387.291 68.3889 385.555 66.9229 382.777C62.6987 374.785 65.6756 367.237 71.7065 363.129C74.2976 361.354 77.4544 360.222 80.8428 359.965C80.8428 359.965 80.1999 329.264 77.1458 309.011C74.0918 288.759 73.0181 267.599 73.0181 267.599C42.7993 261.806 46.5477 213.417 84.379 186.368L167.905 183.121C173.936 182.89 179.928 184.317 185.149 187.339C190.871 190.65 198.149 196.051 204.29 204.371L206.861 198.906C206.861 198.906 198.664 182.671 204.772 173.188C210.88 163.704 220.254 162.367 223.899 164.829C227.545 167.292 227.757 174.686 223.899 178.441L230.76 177.579C230.76 177.579 235.023 172.86 239.639 174.139C239.639 174.139 239.639 174.139 239.645 174.146C240.501 174.377 241.369 174.827 242.224 175.547C242.744 175.985 243.227 176.48 243.664 177.013C247.785 182.099 247.939 191.326 242.224 200.725Z" fill="white"/>
<path d="M172.828 277.356C172.709 277.356 172.59 277.354 172.47 277.35L105.679 275.274C101.104 275.132 97.3149 271.593 96.8639 267.043L96.5099 263.489C96.393 262.316 97.2494 261.271 98.4222 261.154C99.5991 261.04 100.641 261.894 100.758 263.066L101.112 266.622C101.352 269.046 103.372 270.932 105.811 271.007L172.601 273.084C174.603 273.144 176.454 272.408 177.865 271.011C179.274 269.615 180.028 267.754 179.987 265.771L179.305 232.131C179.267 230.209 178.481 228.42 177.09 227.092C175.7 225.765 173.886 225.057 171.954 225.111L105.822 226.839L98.1594 236.929L99.0603 245.99C99.1772 247.163 98.3208 248.208 97.1473 248.325C95.966 248.442 94.9288 247.584 94.8125 246.412L93.8289 236.517C93.7753 235.981 93.927 235.444 94.2531 235.015L103.042 223.442C103.434 222.926 104.039 222.616 104.686 222.599L171.842 220.844C174.906 220.755 177.819 221.886 180.039 224.005C182.257 226.124 183.513 228.979 183.574 232.046L184.256 265.684C184.32 268.848 183.117 271.817 180.869 274.044C178.704 276.188 175.86 277.356 172.828 277.356Z" fill="#1E3A59"/>
<path d="M147.882 274.835C146.872 274.835 146.053 274.016 146.053 273.005V257.575C146.053 256.564 146.872 255.745 147.882 255.745C148.893 255.745 149.712 256.564 149.712 257.575V273.005C149.712 274.016 148.893 274.835 147.882 274.835Z" fill="#1E3A59"/>
<path d="M99.2581 265.111H88.0758C87.0655 265.111 86.2461 264.292 86.2461 263.282C86.2461 262.271 87.0655 261.452 88.0758 261.452H99.2581C99.8607 261.452 100.423 261.214 100.843 260.781C101.262 260.348 101.482 259.777 101.462 259.175L101.094 247.857C99.266 247.922 96.2156 248.063 93.395 248.209C92.3698 248.263 91.5253 247.485 91.4735 246.476C91.4211 245.467 92.197 244.607 93.2057 244.555C102.416 244.079 102.931 244.16 103.15 244.195C104.017 244.333 104.664 245.066 104.692 245.943L105.119 259.056C105.171 260.658 104.586 262.174 103.472 263.325C102.357 264.477 100.861 265.111 99.2581 265.111Z" fill="#1E3A59"/>
<path d="M168.122 249.099C172.472 249.099 175.998 244.825 175.998 239.554C175.998 234.282 172.472 230.009 168.122 230.009C163.772 230.009 160.246 234.282 160.246 239.554C160.246 244.825 163.772 249.099 168.122 249.099Z" fill="#07C7FF"/>
<path d="M168.122 250.927C162.77 250.927 158.416 245.825 158.416 239.553C158.416 233.281 162.77 228.179 168.122 228.179C173.474 228.179 177.828 233.281 177.828 239.553C177.828 245.825 173.474 250.927 168.122 250.927ZM168.122 231.838C164.788 231.838 162.075 235.299 162.075 239.553C162.075 243.807 164.788 247.268 168.122 247.268C171.456 247.268 174.168 243.807 174.168 239.553C174.168 235.299 171.456 231.838 168.122 231.838Z" fill="#1E3A59"/>
<path d="M168.512 231.041C166.265 233.317 165.51 236.989 166.297 240.128C167.064 243.485 169.971 246.54 173.663 246.33C167.472 247.405 163.292 240.356 164.03 234.802C164.227 232.801 164.916 230.784 166.191 229.06C167.533 227.365 169.978 229.446 168.512 231.041Z" fill="#1E3A59"/>
<path d="M198.921 389.119H150.1C147.515 389.119 145.091 388.107 143.273 386.269C141.456 384.431 140.472 381.995 140.502 379.411L140.891 345.36L135.626 320.747L131.855 345.316V379.521C131.855 384.814 127.549 389.119 122.256 389.119H74.4016C70.5753 389.119 67.088 387.017 65.3006 383.632C62.4519 378.237 62.3756 372.566 65.0844 367.663C67.7917 362.764 73.0104 359.297 78.9681 358.344C78.7822 351.694 77.9315 326.513 75.3332 309.283C72.7486 292.145 71.5678 274.164 71.2684 269.093C61.1233 266.655 54.2727 259.435 51.9036 248.624C49.8025 239.034 51.5176 227.559 56.7329 216.311C62.3714 204.149 71.562 193.281 83.3115 184.88C83.6023 184.672 83.9472 184.553 84.3042 184.54L167.83 181.293C174.28 181.041 180.584 182.585 186.062 185.755C190.943 188.58 197.801 193.423 203.9 200.892L204.833 198.911C203.192 195.348 197.379 181.281 203.229 172.196C206.625 166.925 211.553 163.292 216.749 162.228C219.955 161.572 222.932 161.967 224.921 163.314C226.925 164.669 228.226 167.16 228.49 170.147C228.673 172.213 228.337 174.297 227.576 176.134L229.884 175.845C232.617 173.151 238.333 169.874 243.399 174.146C249.971 179.687 250.218 190.768 244.054 201.226C244.051 203.541 243.819 212.765 240.522 222.772C235.496 238.022 225.711 247.618 212.226 250.522C211.863 250.596 204.833 251.969 198.536 250.112C198.644 253.063 198.409 257.588 196.456 261.141C196.361 264.233 195.746 282.113 193.993 296.533C192.303 310.427 190.924 350.074 190.633 358.909C196.312 359.563 201.217 362.496 204.276 367.132C207.633 372.218 208.225 378.512 205.899 384.4C204.785 387.223 201.98 389.119 198.921 389.119ZM135.33 308.789C136.19 308.789 136.937 309.389 137.118 310.235L144.512 344.794C144.54 344.927 144.554 345.062 144.552 345.198L144.16 379.453C144.142 381.052 144.751 382.559 145.876 383.697C147 384.834 148.5 385.461 150.1 385.461H198.921C200.492 385.461 201.928 384.495 202.496 383.057C204.377 378.294 203.913 373.224 201.223 369.148C198.505 365.029 193.939 362.583 188.696 362.436C188.211 362.423 187.75 362.216 187.416 361.862C187.083 361.508 186.904 361.037 186.919 360.551C186.981 358.57 188.444 311.852 190.361 296.091C192.256 280.502 192.807 260.775 192.813 260.578C192.822 260.261 192.912 259.953 193.075 259.681C195.793 255.182 194.668 247.7 194.656 247.624C194.55 246.946 194.833 246.264 195.389 245.861C195.945 245.458 196.68 245.399 197.292 245.71C202.96 248.592 211.397 246.957 211.481 246.94C223.746 244.298 232.346 235.811 237.016 221.718C240.575 210.98 240.393 200.869 240.391 200.769C240.384 200.42 240.476 200.075 240.657 199.776C246.769 189.727 245.477 180.683 241.041 176.943C237.007 173.543 232.306 178.594 232.108 178.811C231.814 179.132 231.413 179.342 230.981 179.396L224.123 180.253C223.339 180.347 222.588 179.938 222.247 179.23C221.907 178.521 222.057 177.674 222.621 177.126C224.219 175.573 225.071 173.022 224.845 170.47C224.681 168.611 223.943 167.069 222.871 166.344C221.975 165.738 220.089 165.28 217.483 165.813C213.245 166.68 209.171 169.729 206.306 174.178C200.829 182.682 208.414 197.928 208.491 198.081C208.744 198.583 208.753 199.175 208.513 199.684L205.941 205.149C205.667 205.732 205.107 206.128 204.465 206.191C203.82 206.249 203.196 205.975 202.814 205.456C196.663 197.121 189.313 191.864 184.23 188.922C179.352 186.099 173.723 184.727 167.972 184.949L84.9971 188.174C60.864 205.663 51.8701 231.374 55.4781 247.841C57.6213 257.624 63.9725 264.003 73.3611 265.802C74.189 265.961 74.8013 266.665 74.8441 267.506C74.8544 267.717 75.9462 288.812 78.9516 308.738C81.9878 328.874 82.6623 359.618 82.6686 359.926C82.6891 360.897 81.9462 361.715 80.9775 361.789C75.5272 362.201 70.6642 365.13 68.2871 369.433C66.1946 373.22 66.283 377.656 68.5357 381.923C69.688 384.105 71.9356 385.46 74.4016 385.46H122.256C125.531 385.46 128.195 382.796 128.195 379.521V345.176C128.195 345.084 128.203 344.991 128.217 344.899L133.521 310.34C133.655 309.467 134.393 308.815 135.276 308.789C135.294 308.789 135.312 308.789 135.33 308.789Z" fill="#1E3A59"/>
<path d="M188.617 362.432C184.359 361.858 179.947 362.668 176 364.369C174.622 364.943 173.323 365.698 172.035 366.501C173.13 365.461 174.277 364.437 175.552 363.572C179.446 360.857 184.108 359.061 188.887 358.783L188.617 362.432Z" fill="#1E3A59"/>
<path d="M166.23 352.54C158.046 352.54 149.541 350.819 143.244 347.671C142.34 347.219 141.974 346.12 142.426 345.216C142.878 344.312 143.977 343.947 144.88 344.398C158.156 351.036 180.121 350.075 186.849 342.563C187.523 341.81 188.68 341.747 189.433 342.421C190.185 343.095 190.249 344.252 189.575 345.004C184.936 350.185 175.803 352.54 166.23 352.54Z" fill="#1E3A59"/>
<path d="M109.181 348.648C99.3734 348.648 88.6273 347.119 79.5786 344.131C78.619 343.814 78.0984 342.779 78.4149 341.82C78.7325 340.859 79.7685 340.34 80.7258 340.656C96.5327 345.876 117.607 346.502 128.705 342.084C129.642 341.711 130.708 342.168 131.081 343.107C131.455 344.046 130.997 345.11 130.058 345.484C124.728 347.606 117.273 348.648 109.181 348.648Z" fill="#1E3A59"/>
<path d="M80.8359 358.136C87.0847 358.89 93.2163 360.526 98.7346 363.546C92.9942 361.743 86.794 361.327 80.8425 361.795L80.8359 358.136Z" fill="#1E3A59"/>
<path d="M107.736 301.456C122.975 309.896 140.266 308.989 156.545 304.447C161.995 303.009 167.386 301.239 172.885 299.527C168.032 302.619 162.837 305.168 157.41 307.191C141.44 313.374 120.914 313.814 107.736 301.456Z" fill="#1E3A59"/>
<path d="M74.3302 269.341C73.5525 269.341 72.7554 269.303 71.9337 269.223C70.9285 269.126 70.1924 268.231 70.2899 267.226C70.3886 266.22 71.2826 265.483 72.2883 265.582C84.4188 266.757 90.9308 256.997 91.2016 256.58C91.753 255.735 92.8842 255.493 93.7303 256.042C94.577 256.59 94.821 257.718 94.2748 258.566C93.9755 259.031 87.1739 269.341 74.3302 269.341Z" fill="#1E3A59"/>
<path d="M120.147 275.418C120.128 275.418 120.109 275.418 120.089 275.417L117.936 275.35C113.336 275.207 109.682 271.49 109.617 266.888L109.199 237.164C109.185 236.153 109.993 235.323 111.003 235.309C111.011 235.309 111.02 235.309 111.029 235.309C112.027 235.309 112.844 236.111 112.858 237.112L113.276 266.837C113.313 269.478 115.41 271.611 118.05 271.693L120.203 271.76C121.213 271.792 122.006 272.636 121.975 273.646C121.944 274.636 121.131 275.418 120.147 275.418Z" fill="#1E3A59"/>
<path d="M196.46 249.171C195.603 249.171 194.837 248.566 194.666 247.694C194.394 246.322 193.105 242.305 190.826 241.849C185.215 240.726 182.266 241.757 182.237 241.768C181.294 242.111 180.243 241.632 179.891 240.693C179.54 239.754 180 238.711 180.935 238.348C181.32 238.199 184.892 236.931 191.543 238.261C196.619 239.276 198.105 246.206 198.258 246.993C198.451 247.985 197.802 248.945 196.811 249.138C196.693 249.16 196.575 249.171 196.46 249.171Z" fill="#1E3A59"/>
<path d="M194.641 262.458H182.119C181.108 262.458 180.289 261.639 180.289 260.628C180.289 259.618 181.108 258.799 182.119 258.799H194.641C195.652 258.799 196.471 259.618 196.471 260.628C196.471 261.639 195.652 262.458 194.641 262.458Z" fill="#1E3A59"/>
<path d="M182.119 202.014C186.954 210.546 189.832 220.085 191.988 229.616C192.707 232.822 193.254 236.059 193.782 239.304C193.951 240.302 193.278 241.248 192.28 241.416C191.282 241.585 190.336 240.912 190.168 239.914C189.748 233.416 189.051 226.927 187.765 220.537C186.458 214.216 184.825 207.905 182.119 202.014Z" fill="#1E3A59"/>
<path d="M205.996 205.025L197.43 222.266L202.58 203.716C203.403 201.188 207.073 202.59 205.996 205.025Z" fill="#371A45"/>
<path d="M202.617 212.338C205.712 218.013 210.428 222.856 216.14 225.879C221.601 228.793 228.452 230.149 234.214 227.657L235.658 231.019C221.544 236.455 206.274 226.152 199.852 213.816C199.852 213.816 202.617 212.338 202.617 212.338Z" fill="#1E3A59"/>
<path d="M224.933 179.946L217.627 182.752L222.859 176.931C225.104 174.781 227.743 178.618 224.933 179.946Z" fill="#371A45"/>
<path d="M232.212 178.688C229.51 181.91 229.027 186.596 230.365 190.531C230.736 191.645 231.315 192.87 231.87 193.902C232.299 194.61 232.766 195.302 233.22 196.012C232.389 195.142 231.426 194.151 230.721 193.15C227.384 188.891 226.375 182.88 228.592 177.85C228.858 177.179 229.257 176.506 229.682 175.901C230.278 175.01 231.482 174.771 232.373 175.366C233.584 176.132 233.477 178.045 232.212 178.688Z" fill="#371A45"/>
<path d="M55.2194 99.085L46.7754 103.541C41.8295 106.151 38.993 111.53 39.6322 117.085L42.5876 142.768C43.3146 149.087 48.3349 154.051 54.6608 154.707L66.1848 155.903" fill="white"/>
<path d="M197.529 76.2617L206.726 78.8252C212.113 80.3267 216.026 84.9809 216.58 90.5458L219.14 116.271C219.77 122.6 215.917 128.516 209.874 130.499L198.866 134.112" fill="white"/>
<g opacity="0.25">
<path d="M67.7883 155.902L56.262 154.709C49.9424 154.052 44.9181 149.085 44.1912 142.768L42.5137 128.189C43.2406 134.507 48.2649 139.473 54.5845 140.131L64.9555 141.206L67.7883 155.902Z" fill="#1E3A59"/>
</g>
<g opacity="0.25">
<path d="M217.683 101.669L219.136 116.271C219.766 122.599 215.916 128.518 209.873 130.501L198.862 134.112L198.52 119.142L208.42 115.899C214.463 113.915 218.313 107.997 217.683 101.669Z" fill="#371A45"/>
</g>
<path d="M129.886 192.401C173.097 192.401 208.126 157.372 208.126 114.161C208.126 70.9501 173.097 35.9209 129.886 35.9209C86.6757 35.9209 51.6465 70.9501 51.6465 114.161C51.6465 157.372 86.6757 192.401 129.886 192.401Z" fill="white"/>
<g opacity="0.25">
<path d="M138.833 191.887C121.026 193.936 103.935 189.835 89.668 181.273C97.9811 183.136 106.738 183.656 115.672 182.626C158.596 177.688 189.394 138.884 184.455 95.9548C181.56 70.8331 167.069 49.8617 146.938 37.7822C178.554 44.8318 203.706 71.2167 207.616 105.216C212.554 148.145 181.762 186.948 138.833 191.887Z" fill="#1E3A59"/>
</g>
<path d="M207.909 107.767C211.841 141.933 180.232 173.638 137.301 178.578C98.1609 183.082 63.1261 163.784 54.2774 134.439C53.4159 131.604 52.8023 128.671 52.4554 125.655C48.5239 91.4896 80.1335 59.7935 123.064 54.8535C155.322 51.1416 184.788 63.5971 199.114 84.5096L199.115 84.5181C203.855 91.4384 206.933 99.2835 207.909 107.767Z" fill="#0056A8"/>
<g opacity="0.7">
<path d="M207.909 107.767C211.841 141.933 180.232 173.637 137.301 178.577C98.1609 183.081 63.1261 163.784 54.2773 134.438C54.7637 133.64 55.0499 133.202 55.0499 133.202C98.0638 188.236 204.544 150.523 199.115 84.5176C203.855 91.4377 206.933 99.2829 207.909 107.767Z" fill="#111A28"/>
</g>
<path d="M129.828 194.236C89.7341 194.236 55.0339 164.083 50.3425 123.314C47.8975 102.067 53.873 81.1399 67.1684 64.387C80.4631 47.6341 99.4869 37.0618 120.734 34.6168C141.979 32.1722 162.909 38.1473 179.661 51.4423C196.414 64.7376 206.987 83.7609 209.432 105.008C214.478 148.869 182.901 188.659 139.04 193.706C135.948 194.062 132.869 194.236 129.828 194.236ZM130.037 37.7403C127.09 37.7403 124.125 37.9096 121.152 38.2518C100.876 40.585 82.7221 50.6744 70.0339 66.6616C57.3465 82.649 51.6441 102.62 53.9778 122.896C58.7935 164.752 96.763 194.886 138.622 190.071C180.478 185.255 210.613 147.283 205.796 105.427C203.464 85.1504 193.374 66.9964 177.387 54.3088C163.743 43.4812 147.197 37.7403 130.037 37.7403Z" fill="#1E3A59"/>
<path d="M52.0159 123.368C51.2519 123.368 50.5927 122.795 50.5033 122.017C46.2401 84.9685 78.3192 50.7367 122.013 45.7086C143.133 43.2797 163.799 47.9509 180.206 58.8656C196.695 69.8335 206.915 85.7846 208.986 103.781C209.082 104.617 208.482 105.373 207.646 105.47C206.81 105.568 206.053 104.966 205.957 104.129C203.99 87.0399 194.246 71.8667 178.517 61.4044C162.709 50.8884 142.766 46.3888 122.362 48.7379C80.3382 53.5735 49.4616 86.2901 53.5321 121.669C53.6284 122.505 53.0286 123.261 52.1921 123.358C52.1328 123.365 52.0741 123.368 52.0159 123.368Z" fill="#1E3A59"/>
<path d="M67.7921 158.275C67.71 158.275 67.6273 158.271 67.5446 158.262L53.1272 156.767C47.2578 156.158 42.3721 151.894 40.97 146.156C38.1642 134.673 36.9617 124.359 37.2942 114.624C37.4641 109.65 40.3218 105.109 44.751 102.772L55.7159 96.9849C56.8779 96.3726 58.3108 96.8176 58.9226 97.9762C59.5343 99.1356 59.0907 100.571 57.9317 101.183L46.9667 106.97C44.0389 108.515 42.1504 111.51 42.0381 114.786C41.7205 124.081 42.8797 133.974 45.5818 145.029C46.5084 148.823 49.7378 151.643 53.6172 152.045L68.0346 153.541C69.338 153.676 70.2856 154.843 70.1499 156.147C70.0232 157.367 68.9928 158.275 67.7921 158.275Z" fill="#1E3A59"/>
<path d="M198.867 136.486C197.869 136.486 196.94 135.852 196.612 134.852C196.203 133.607 196.882 132.266 198.127 131.857L209.135 128.244C214.16 126.596 217.303 121.768 216.779 116.506L214.219 90.7807C213.759 86.1551 210.568 82.3598 206.09 81.1114L196.893 78.5479C195.63 78.1961 194.892 76.8873 195.244 75.6246C195.596 74.3618 196.904 73.6231 198.168 73.9757L207.365 76.5392C213.743 78.317 218.288 83.7225 218.943 90.3109L221.503 116.036C222.249 123.531 217.772 130.406 210.615 132.755L199.607 136.368C199.362 136.448 199.112 136.486 198.867 136.486Z" fill="#1E3A59"/>
<g opacity="0.5">
<path d="M89.0408 152.525C78.1287 125.686 83.6458 101.138 103.642 78.6099C104.999 77.0813 103.164 74.8346 101.396 75.8594C61.1664 99.1716 58.6752 137.038 86.2434 154.792C87.7947 155.792 89.7358 154.234 89.0408 152.525Z" fill="white"/>
</g>
<g opacity="0.5">
<path d="M174.236 106.776C174.909 110.775 175.437 116.696 174.531 123.484C174.065 126.973 176.419 130.217 179.878 130.872C182.97 131.457 186.059 129.798 187.258 126.887C190.28 119.544 191.576 111.124 189.1 103.169C187.702 98.676 182.541 96.5702 178.342 98.6939C175.356 100.204 173.681 103.476 174.236 106.776Z" fill="white"/>
</g>
<g opacity="0.5">
<path d="M160.549 76.6975C159.304 78.861 159.607 81.5821 161.297 83.4188L165.745 88.253C167.652 90.3253 170.785 90.6999 173.127 89.1357L173.505 88.883C176.4 86.9493 176.926 82.8865 174.584 80.311C173.172 78.7582 171.37 76.9767 169.15 75.1428C166.421 72.8882 162.314 73.6291 160.549 76.6975Z" fill="white"/>
</g>
<path d="M217.628 180.595C242.315 180.595 262.327 160.583 262.327 135.897C262.327 111.21 242.315 91.1982 217.628 91.1982C192.942 91.1982 172.93 111.21 172.93 135.897C172.93 160.583 192.942 180.595 217.628 180.595Z" fill="#6ADDFF"/>
<g opacity="0.6">
<path d="M176.659 139.137C176.659 151.706 181.854 163.067 190.206 171.194C179.694 163.022 172.93 150.247 172.93 135.896C172.93 111.207 192.938 91.1982 217.628 91.1982C229.728 91.1982 240.703 96.0075 248.753 103.813C241.185 97.93 231.682 94.4323 221.357 94.4323C196.674 94.4322 176.659 114.447 176.659 139.137Z" fill="white"/>
</g>
<path d="M217.629 182.425C191.974 182.425 171.102 161.553 171.102 135.897C171.102 110.241 191.974 89.3691 217.629 89.3691C243.285 89.3691 264.158 110.241 264.158 135.897C264.158 161.553 243.285 182.425 217.629 182.425ZM217.629 93.0278C193.992 93.0278 174.761 112.259 174.761 135.897C174.761 159.535 193.992 178.766 217.629 178.766C241.268 178.766 260.498 159.535 260.498 135.897C260.498 112.259 241.268 93.0278 217.629 93.0278Z" fill="#1E3A59"/>
<path d="M217.629 171.312C237.188 171.312 253.045 155.456 253.045 135.896C253.045 116.337 237.188 100.48 217.629 100.48C198.069 100.48 182.213 116.337 182.213 135.896C182.213 155.456 198.069 171.312 217.629 171.312Z" fill="#6ADDFF"/>
<g opacity="0.6">
<path d="M256.18 137.986C256.18 157.544 240.325 173.4 220.76 173.4C212.813 173.4 205.477 170.783 199.568 166.366C204.853 169.51 211.032 171.31 217.629 171.31C237.187 171.31 253.043 155.455 253.043 135.896C253.043 124.291 247.462 113.984 238.833 107.529C249.217 113.695 256.18 125.03 256.18 137.986Z" fill="white"/>
</g>
<path d="M217.628 173.241C197.036 173.241 180.283 156.489 180.283 135.897C180.283 115.305 197.036 98.5518 217.628 98.5518C238.22 98.5518 254.973 115.305 254.973 135.897C254.973 156.489 238.22 173.241 217.628 173.241ZM217.628 102.41C199.163 102.41 184.141 117.432 184.141 135.897C184.141 154.362 199.163 169.384 217.628 169.384C236.093 169.384 251.115 154.362 251.115 135.897C251.115 117.432 236.093 102.41 217.628 102.41Z" fill="#1E3A59"/>
<g opacity="0.25">
<path d="M188.482 140.603C188.482 150.787 192.783 159.968 199.663 166.424C189.221 160.264 182.213 148.897 182.213 135.896C182.213 116.338 198.068 100.482 217.627 100.482C227.001 100.482 235.526 104.121 241.859 110.075C236.594 106.97 230.454 105.189 223.895 105.189C204.337 105.189 188.482 121.044 188.482 140.603Z" fill="#1E3A59"/>
</g>
<path d="M253.045 169.223C253.045 173.188 249.446 176.402 245.008 176.402C240.569 176.402 236.971 173.188 236.971 169.223C236.971 165.258 240.569 163.749 245.008 163.749C249.446 163.749 253.045 165.258 253.045 169.223Z" fill="white"/>
<path d="M245.007 177.481C239.29 177.481 235.141 174.008 235.141 169.222C235.141 164.649 238.829 161.919 245.007 161.919C251.186 161.919 254.874 164.649 254.874 169.222C254.874 174.008 250.725 177.481 245.007 177.481ZM245.007 165.578C242.175 165.578 238.8 166.21 238.8 169.222C238.8 172.383 242.018 173.823 245.007 173.823C247.997 173.823 251.215 172.383 251.215 169.222C251.215 166.21 247.84 165.578 245.007 165.578Z" fill="#1E3A59"/>
<path d="M242.222 200.726L233.015 201.613L204.287 204.371L206.859 198.906C206.859 198.906 198.662 182.671 204.77 173.188C210.878 163.704 220.252 162.367 223.897 164.829C227.543 167.292 227.755 174.686 223.897 178.441L230.758 177.579C230.758 177.579 235.02 172.86 239.637 174.139C239.637 174.139 239.637 174.139 239.643 174.146C240.498 174.377 241.366 174.827 242.222 175.547C242.742 175.985 243.225 176.48 243.662 177.013C247.783 182.099 247.937 191.326 242.222 200.726Z" fill="white"/>
<path d="M211.839 250.565C210.996 250.565 210.237 249.978 210.052 249.12C209.839 248.132 210.468 247.159 211.455 246.947C223.746 244.299 232.346 235.812 237.017 221.72C240.575 210.981 240.394 200.871 240.391 200.77C240.384 200.421 240.476 200.076 240.658 199.777C246.769 189.728 245.477 180.685 241.041 176.944C237.007 173.544 232.306 178.595 232.108 178.812C231.815 179.133 231.413 179.343 230.981 179.397L224.123 180.254C223.339 180.348 222.588 179.94 222.247 179.231C221.907 178.522 222.058 177.675 222.621 177.127C224.219 175.574 225.071 173.023 224.846 170.471C224.681 168.612 223.943 167.07 222.871 166.345C221.975 165.739 220.089 165.281 217.483 165.814C213.245 166.681 209.172 169.73 206.306 174.179C200.842 182.663 208.414 197.93 208.491 198.083C208.744 198.585 208.752 199.177 208.513 199.685L205.942 205.15C205.667 205.733 205.106 206.129 204.465 206.192C203.821 206.251 203.196 205.976 202.814 205.457C191.097 189.577 174.992 184.634 174.831 184.586C173.862 184.297 173.312 183.278 173.6 182.31C173.889 181.342 174.905 180.79 175.876 181.079C176.548 181.28 191.72 185.939 203.902 200.891L204.833 198.912C203.193 195.349 197.379 181.282 203.23 172.197C206.625 166.926 211.553 163.293 216.75 162.229C219.954 161.573 222.932 161.968 224.921 163.315C226.925 164.67 228.226 167.161 228.49 170.148C228.673 172.214 228.338 174.298 227.577 176.135L229.884 175.846C232.618 173.153 238.334 169.875 243.4 174.147C249.972 179.688 250.218 190.769 244.054 201.227C244.052 203.542 243.82 212.766 240.522 222.773C235.497 238.023 225.712 247.619 212.226 250.523C212.096 250.551 211.967 250.565 211.839 250.565Z" fill="#1E3A59"/>
<path d="M205.996 205.025L197.43 222.266L202.58 203.716C203.403 201.188 207.073 202.59 205.996 205.025Z" fill="#1E3A59"/>
<path d="M224.933 179.946L217.627 182.752L222.859 176.931C225.104 174.781 227.743 178.618 224.933 179.946Z" fill="#1E3A59"/>
<path d="M232.212 178.688C229.51 181.91 229.027 186.596 230.365 190.531C230.736 191.645 231.315 192.87 231.87 193.902C232.299 194.61 232.766 195.302 233.22 196.012C232.389 195.142 231.426 194.151 230.721 193.15C227.384 188.891 226.375 182.88 228.592 177.85C228.858 177.179 229.257 176.506 229.682 175.901C230.278 175.01 231.482 174.771 232.373 175.366C233.584 176.132 233.477 178.045 232.212 178.688Z" fill="#1E3A59"/>
<path d="M4.16882 251.85C4.13519 251.85 4.10156 251.849 4.06735 251.847C3.2503 251.802 2.56263 251.22 2.38303 250.421C-4.24352 220.917 2.91727 192.696 24.2737 164.147C24.8787 163.337 26.0253 163.173 26.8344 163.778C27.6435 164.383 27.8089 165.529 27.2033 166.339C8.1304 191.836 0.736437 216.993 4.70994 243.031C15.4486 213.746 29.155 189.113 41.9343 176.34C42.6481 175.626 43.8073 175.625 44.5211 176.34C45.2355 177.055 45.2355 178.213 44.5205 178.928C31.1966 192.246 16.7582 219.045 5.89809 250.616C5.64329 251.357 4.94594 251.85 4.16882 251.85Z" fill="#1E3A59"/>
<path d="M4.16992 250.02C6.64081 222.06 15.3017 193.647 33.8234 171.974C35.419 170.178 38.134 172.447 36.617 174.338C17.4433 194.917 7.84344 222.456 4.16992 250.02Z" fill="#1E3A59"/>
<g opacity="0.25">
<path d="M42.0911 178.8C26.9432 194.681 13.1326 223.968 4.16992 250.02C7.7833 217.93 18.1541 192.405 35.1924 173.188L42.0911 178.8Z" fill="#1E3A59"/>
</g>
<path d="M27.8766 157.732C27.433 157.732 26.9878 157.571 26.6359 157.246L21.9993 152.966C19.7448 150.884 19.5002 147.391 21.4427 145.015L24.9596 140.713C26.9124 138.324 30.3944 137.877 32.8877 139.697L37.8784 143.341C38.6943 143.937 38.8729 145.081 38.277 145.897C37.6817 146.713 36.5374 146.892 35.7209 146.296L30.7302 142.652C29.8065 141.977 28.5156 142.144 27.7921 143.029L24.2753 147.331C23.5551 148.212 23.6458 149.506 24.4816 150.277L29.1182 154.558C29.8606 155.243 29.9068 156.401 29.2209 157.143C28.8606 157.534 28.3692 157.732 27.8766 157.732Z" fill="#1E3A59"/>
<path d="M70.9605 302.777C65.9515 302.777 62.0624 301.488 59.3575 298.923C55.4199 295.188 55.481 290.085 55.5391 289.039L54.0373 270.541C53.9558 269.534 54.7056 268.652 55.7125 268.57C56.7177 268.486 57.6027 269.238 57.6842 270.245L59.1969 288.878C59.2054 288.985 59.2048 289.091 59.1951 289.198C59.1923 289.231 58.8764 293.452 61.9057 296.296C64.6443 298.867 69.2912 299.689 75.7136 298.741C76.7138 298.592 77.6436 299.283 77.7907 300.283C77.9385 301.283 77.248 302.212 76.2484 302.36C74.3674 302.638 72.6033 302.777 70.9605 302.777Z" fill="#1E3A59"/>
<path d="M187.249 59.3851C171.368 50.1008 153.397 46.211 135.189 46.7575C107.542 47.5741 79.3422 58.5942 57.0511 76.4233C52.5762 76.674 49.0271 68.9265 57.0639 63.9951C58.0284 -11.8731 154.67 -11.661 172.93 30.7738C184.285 33.2363 192.855 40.7846 193.318 48.4292C193.563 52.2676 191.762 56.1253 187.249 59.3851Z" fill="#F4D03F"/>
<g opacity="0.6">
<path d="M192.965 46.224C189.371 41.7876 183.25 38.1357 175.985 36.5604C157.725 -5.87436 61.0831 -6.08653 60.1187 69.7817C57.0133 71.6848 55.6374 74.0123 55.3801 76.1405C51.8503 74.7131 50.0694 68.2901 57.0647 63.9951C58.0291 -11.8731 154.671 -11.661 172.931 30.7738C183.192 32.9985 191.178 39.3766 192.965 46.224Z" fill="white"/>
</g>
<path d="M187.251 59.3859C171.37 50.1016 153.4 46.2119 135.191 46.7583C147.388 33.5071 182.21 31.096 193.321 48.43C193.565 52.2684 191.765 56.1261 187.251 59.3859Z" fill="#E67E22"/>
<path d="M155.917 11.8145C155.917 11.8145 166.192 20.4864 143.046 25.3085C119.899 30.1307 109.13 36.5856 103.986 42.279L127.454 37.7821C127.454 37.7821 152.181 24.2138 172.929 30.0655" fill="#E67E22"/>
<path d="M56.8402 78.5638C54.0235 78.5638 51.4514 76.5388 50.5101 73.5337C49.5562 70.4859 50.2803 66.1754 54.9518 62.8376C55.7808 30.472 74.4506 7.57007 105.076 1.46385C119.027 -1.318 133.806 -0.108943 146.692 4.86891C159.753 9.91379 169.564 18.4336 174.447 28.9345C185.122 31.5755 193.58 38.6383 195.196 46.3738C196.356 51.9239 193.978 57.1592 188.5 61.1154C187.815 61.6109 186.902 61.6546 186.173 61.2278C149.871 40.0079 97.3236 46.9398 58.3859 78.09C58.0398 78.3669 57.6161 78.5293 57.1737 78.5544C57.0625 78.5606 56.9514 78.5638 56.8402 78.5638ZM120.127 4.24967C115.434 4.24967 110.663 4.70263 105.911 5.65034C77.0522 11.4039 59.59 33.2262 59.1984 64.0247C59.1893 64.7573 58.805 65.4341 58.18 65.817C55.2317 67.6253 53.8871 70.0331 54.5839 72.2582C54.8976 73.2589 55.6063 74.011 56.3822 74.2299C75.1101 59.4377 97.9182 49.3997 120.7 45.9376C144.975 42.2483 167.888 46.0117 187.072 56.8216C190.387 54.0363 191.749 50.7479 191.018 47.2469C189.703 40.9542 181.907 34.9035 172.479 32.8597C171.805 32.7136 171.243 32.2508 170.971 31.6173C163.796 14.9419 142.916 4.24967 120.127 4.24967Z" fill="#1E3A59"/>
<path d="M115.009 51.2496C114.413 51.2496 113.822 51.0024 113.4 50.5192C112.625 49.6312 112.715 48.2831 113.604 47.5076C127.375 35.4809 139.267 25.0947 173.154 28.6505C174.327 28.7737 175.177 29.8236 175.054 30.996C174.931 32.1686 173.878 33.0193 172.709 32.8961C140.671 29.5337 129.967 38.8849 116.411 50.7229C116.007 51.0762 115.506 51.2496 115.009 51.2496Z" fill="#1E3A59"/>
<path d="M193.325 50.2658C192.722 50.2658 192.132 49.9681 191.782 49.423C187.701 43.0522 179.74 39.0441 169.366 38.1375C156.421 37.0058 142.919 41.0596 136.533 47.9961C135.849 48.7393 134.69 48.7874 133.948 48.1027C133.204 47.4182 133.157 46.2611 133.841 45.5175C140.944 37.8027 155.68 33.2721 169.685 34.4923C181.214 35.4998 190.156 40.1014 194.864 47.4489C195.409 48.2996 195.161 49.4311 194.31 49.9762C194.004 50.1722 193.662 50.2658 193.325 50.2658Z" fill="#1E3A59"/>
<path d="M57.0633 65.8272C56.5125 65.8272 55.9686 65.5794 55.6082 65.1079C54.9947 64.305 55.1486 63.1569 55.9514 62.5434C57.0353 61.7159 83.0159 42.2045 128.494 36.5478C129.496 36.4212 130.41 37.1348 130.535 38.1374C130.66 39.14 129.948 40.0541 128.945 40.1785C84.4425 45.7141 58.43 65.2545 58.1729 65.4512C57.8411 65.7046 57.4511 65.8272 57.0633 65.8272Z" fill="#1E3A59"/>
<path d="M136.16 36.2574C135.405 36.2574 134.699 35.7867 134.434 35.0343C129.899 22.1382 120.417 14.4804 106.248 12.2739C95.459 10.5936 85.864 12.8518 85.7677 12.8743C84.7881 13.1121 83.7977 12.5071 83.5612 11.5247C83.3246 10.5429 83.9272 9.55534 84.909 9.31783C85.3242 9.21717 95.2104 6.87836 106.698 8.64079C122.142 11.0116 132.927 19.7187 137.886 33.8205C138.221 34.7738 137.72 35.8181 136.767 36.1533C136.566 36.2237 136.361 36.2574 136.16 36.2574Z" fill="#1E3A59"/>
<g opacity="0.25">
<path d="M50.9693 157.306L45.1185 167.51C45.1185 167.51 47.9153 170.346 49.6449 172.609L47.3689 175.939C46.1344 177.746 43.6655 178.177 41.8909 176.897L37.7439 173.907C37.7439 173.901 37.7375 173.901 37.7311 173.895C36.2715 172.332 35.1914 171.149 35.1914 171.149L47.0796 151.726L50.9695 154.863L50.9693 157.306Z" fill="#1E3A59"/>
</g>
<g opacity="0.25">
<path d="M65.9204 272.095C65.9204 272.095 64.9581 289.24 67.4341 292.616C69.9101 295.991 75.8753 299.725 75.7566 298.736C75.6379 297.747 72.109 273.588 72.109 273.588" fill="#1E3A59"/>
</g>
<g opacity="0.25">
<path d="M78.3447 245.99C78.3447 245.99 57.3716 258.611 53.9961 240.975C53.9961 240.975 55.7484 274.069 76.553 267.51C77.1861 267.31 84.7506 266.309 91.0462 258.058" fill="#1E3A59"/>
</g>
<g opacity="0.25">
<path d="M82.6628 207.631C82.6628 207.631 71.2773 215.972 72.523 227.29L82.9308 217.46" fill="#1E3A59"/>
</g>
<g opacity="0.25">
<path d="M115.59 198.565C115.59 198.565 164.417 214.551 184.192 186.797L169.338 183.101C146.552 194.08 122.984 195.69 98.4584 185.821L92.7363 186.797L103.666 196.873L110.578 197.62" fill="#1E3A59"/>
</g>
<g opacity="0.25">
<path d="M225.343 168.687C225.343 168.687 208.252 175.652 213.288 185.725C218.324 195.798 225.241 194.2 228.802 187.444C232.362 180.688 228.802 177.825 228.802 177.825L225.718 177.581" fill="#1E3A59"/>
</g>
<g opacity="0.25">
<path d="M242.221 200.726C242.221 200.726 243.185 241.984 211.842 248.735C211.842 248.735 204.55 250.201 198.481 248.182C198.443 248.169 198.41 248.156 198.378 248.143C198.172 248.066 198.037 248.021 197.986 248.002C197.967 247.996 197.96 247.989 197.96 247.989L193.145 238.223L190.303 223.981C214.735 249.056 225.344 206.943 225.344 206.943C228.693 205.323 231.188 203.516 233.014 201.613C242.883 191.351 233.22 178.441 233.22 178.441L239.636 174.14C239.636 174.14 239.636 174.14 239.643 174.146C239.784 174.243 241.501 175.464 243.661 177.014C247.782 182.099 247.937 191.326 242.221 200.726Z" fill="#1E3A59"/>
</g>
<g opacity="0.25">
<path d="M204.198 383.729C203.349 385.889 201.241 387.291 198.926 387.291H150.1C145.773 387.291 142.282 383.761 142.333 379.434L142.481 366.504C154.402 385.42 202.038 378.636 178.892 361.753C178.892 361.753 175.998 325.407 177.123 308.368C178.249 291.33 174.391 283.615 174.391 283.615C174.391 283.615 124.401 283.454 109.935 282.65C95.4685 281.847 100.13 268.37 100.13 268.37L111.034 267.509C148.184 273 181.598 251.789 181.598 251.789C186.041 252.631 190.934 251.982 196.463 249.249L196.669 249.448C196.836 252.213 196.766 257.119 194.644 260.629C194.644 260.629 194.11 280.451 192.181 296.313C190.253 312.175 188.748 360.608 188.748 360.608C201.022 360.949 208.609 372.56 204.198 383.729Z" fill="#1E3A59"/>
</g>
<path d="M170.433 266.84C168.799 268.473 166.658 269.296 164.505 269.296C162.73 269.296 160.949 268.73 159.457 267.599C159.457 267.599 159.457 267.592 159.451 267.592C159.303 267.483 159.155 267.361 159.014 267.239L128.789 240.981C128.789 240.974 128.789 240.974 128.789 240.974L120.302 233.606L53.0811 175.207L47.2303 170.127C44.6072 167.851 44.4078 163.852 46.7867 161.325L48.7542 159.229C50.9788 156.87 54.6565 156.657 57.1383 158.747L63.2785 163.91L128.75 218.985L133.026 222.586L138.369 227.209L169.989 254.573C170.246 254.798 170.491 255.036 170.716 255.286C173.686 258.546 173.628 263.645 170.433 266.84Z" fill="#D35400"/>
<g opacity="0.25">
<path d="M63.2783 163.91C59.9157 165.254 54.65 168.398 53.0812 175.207L47.2303 170.127C44.6072 167.851 44.4078 163.852 46.7867 161.325L48.7542 159.229C50.9788 156.87 54.6565 156.657 57.1383 158.747L63.2783 163.91Z" fill="#371A45"/>
</g>
<path d="M164.503 271.11C162.119 271.11 159.73 270.286 157.812 268.62L46.0278 171.505C44.3817 170.075 43.4147 168.088 43.3053 165.911C43.1958 163.733 43.9581 161.659 45.4526 160.071L47.4225 157.978C50.3076 154.912 55.0925 154.634 58.3145 157.344L134.204 221.187C134.21 221.193 134.216 221.199 134.223 221.204L171.189 253.19C173.327 255.04 174.61 257.72 174.712 260.544C174.814 263.368 173.726 266.134 171.728 268.132C169.75 270.109 167.129 271.11 164.503 271.11ZM53.2052 159.14C52.0631 159.14 50.9261 159.594 50.0869 160.486L48.1169 162.578C47.3118 163.434 46.9008 164.552 46.9595 165.726C47.0188 166.901 47.54 167.972 48.4271 168.743L160.211 265.857C162.797 268.103 166.72 267.965 169.141 265.544C170.442 264.243 171.122 262.514 171.056 260.675C170.99 258.837 170.187 257.161 168.795 255.957L131.84 223.98L55.9592 160.144C55.1591 159.471 54.1802 159.14 53.2052 159.14Z" fill="#1E3A59"/>
<path d="M159.462 269.429C158.903 269.429 158.352 269.174 157.993 268.692C154.11 263.477 155.491 258.015 158.582 254.916C162.26 251.23 167.705 250.783 171.82 253.831C172.633 254.432 172.803 255.578 172.202 256.39C171.601 257.201 170.456 257.374 169.643 256.772C166.583 254.505 163.106 255.562 161.172 257.5C159.249 259.429 158.174 262.808 160.928 266.507C161.531 267.318 161.363 268.463 160.552 269.067C160.225 269.311 159.842 269.429 159.462 269.429Z" fill="#1E3A59"/>
<g opacity="0.25">
<path d="M170.431 266.84C168.798 268.473 166.657 269.296 164.503 269.296C162.728 269.296 160.947 268.73 159.456 267.598C159.456 267.598 159.456 267.592 159.449 267.592C153.026 258.944 163.365 249.879 170.714 255.286C173.684 258.546 173.626 263.644 170.431 266.84Z" fill="#1E3A59"/>
</g>
<path d="M133.026 222.585L128.634 218.406C128.634 218.406 118.244 222.052 121.459 232.448C121.459 232.448 118.456 237.052 106.452 237.592C106.452 237.592 101.9 249.859 92.7384 257.575C86.2574 255.71 80.8631 251.254 77.0054 245.944C73.1991 240.716 70.8716 234.66 70.4473 229.446L82.6633 218.837C82.6633 218.837 80.5223 207.264 84.0585 202.332L91.2403 208.337C91.2403 208.337 99.6823 190.271 118.244 199.76C118.907 200.101 119.543 200.448 120.154 200.796H120.16C136.62 210.234 133.026 222.585 133.026 222.585Z" fill="white"/>
<path d="M92.7378 259.405C92.5685 259.405 92.3986 259.381 92.2321 259.334C78.8393 255.483 69.5506 240.9 68.6252 229.596C68.5779 229.015 68.8094 228.447 69.249 228.065L80.6924 218.127C80.2088 214.932 79.2259 205.933 82.5717 201.269C82.8682 200.855 83.3231 200.584 83.8278 200.52C84.3335 200.455 84.8405 200.605 85.2315 200.932L90.7319 205.529C92.4538 202.829 96.1395 198.179 102.046 196.154C107.273 194.361 113.002 195.029 119.075 198.135C138.838 208.244 134.957 222.497 134.782 223.099C134.604 223.712 134.118 224.188 133.502 224.354C132.887 224.522 132.227 224.354 131.763 223.913L128.245 220.563C125.971 221.676 121.057 224.964 123.204 231.906C123.365 232.425 123.286 232.989 122.989 233.445C122.641 233.979 119.335 238.549 107.719 239.351C106.336 242.641 101.802 252.335 93.9164 258.975C93.5822 259.256 93.1637 259.405 92.7378 259.405ZM72.3655 230.205C73.5589 239.883 81.2671 251.829 92.3073 255.526C100.485 248.197 104.696 237.068 104.739 236.953C104.995 236.265 105.639 235.796 106.372 235.763C114.602 235.395 118.197 233.029 119.422 231.949C117.273 223.049 124.013 218.091 128.031 216.683C128.677 216.456 129.4 216.611 129.898 217.084L131.516 218.626C131.239 214.451 128.891 207.266 117.409 201.392C112.266 198.762 107.506 198.16 103.263 199.605C96.3435 201.96 92.927 209.044 92.8934 209.115C92.6511 209.627 92.1847 210 91.6315 210.121C91.075 210.243 90.498 210.102 90.0641 209.74L84.6514 205.216C83.2727 209.286 83.9894 215.932 84.4633 218.506C84.5808 219.142 84.3527 219.794 83.864 220.219L72.3655 230.205Z" fill="#1E3A59"/>
<path d="M83.9114 217.497L91.0508 226.633L81.4199 220.177L83.9114 217.497Z" fill="#1E3A59"/>
<g opacity="0.25">
<path d="M89.6712 186.113C89.6712 186.113 95.9447 197.024 78.3477 197.161L90.7581 207.631L101.902 197.619L95.6307 190.868" fill="#371A45"/>
</g>
<g opacity="0.25">
<path d="M133.026 222.586L128.635 218.406C128.635 218.406 118.245 222.052 121.459 232.448C121.459 232.448 118.457 237.052 106.453 237.592C106.453 237.592 101.901 249.86 92.7388 257.575C86.2579 255.71 80.8635 251.255 77.0059 245.944C77.4623 245.938 77.9124 245.95 78.3497 245.989C86.4637 246.677 100.345 234.699 101.901 230.622C103.463 226.553 107.739 220.123 115.596 215.513C123.446 210.909 120.154 200.796 120.154 200.796H120.161C136.62 210.235 133.026 222.586 133.026 222.586Z" fill="#1E3A59"/>
</g>
<g opacity="0.25">
<path d="M138.368 227.208C135.333 229.387 129.9 234.03 128.788 240.973L120.301 233.605C120.616 233.123 120.815 232.872 120.815 232.872C120.815 232.872 119.497 223.041 128.749 218.984L133.025 222.585L138.368 227.208Z" fill="#371A45"/>
</g>
<g opacity="0.25">
<path d="M169.245 300.947C169.245 300.947 140.987 316.276 152.437 347.229C152.437 347.229 143.742 364.127 144.063 363.547C144.385 362.966 141.851 341.097 141.851 341.097L135.598 309.68L152.421 307.029" fill="#1E3A59"/>
</g>
<g opacity="0.25">
<path d="M135.614 311.943L135.331 310.619L130.026 345.177V379.524C130.026 383.812 126.548 387.29 122.259 387.29H74.4046C71.2669 387.29 68.3865 385.555 66.9206 382.777C62.6964 374.785 65.6732 367.237 71.7041 363.128C77.6193 383.806 108.597 378.636 108.597 378.636C127.454 363.231 109.452 302.312 109.452 302.312C118.665 310.67 135.601 309.68 135.601 309.68C135.601 309.68 135.607 310.484 135.614 311.943Z" fill="#1E3A59"/>
</g>
<path d="M231.576 119.087H205.266C204.476 119.087 203.998 119.96 204.424 120.626L214.233 135.956C214.449 136.294 214.443 136.727 214.217 137.058L204.503 151.33C204.051 151.993 204.527 152.892 205.33 152.892H231.513C232.316 152.892 232.792 151.993 232.34 151.33L222.625 137.058C222.4 136.727 222.394 136.294 222.61 135.956L232.419 120.626C232.845 119.96 232.367 119.087 231.576 119.087Z" stroke="white" stroke-width="6"/>
</svg>
