<svg width="141" height="185" viewBox="0 0 141 185" fill="none" xmlns="http://www.w3.org/2000/svg">
<g opacity="0.2">
<path d="M74.3428 184.219C111.045 184.219 140.799 178.849 140.799 172.225C140.799 165.6 111.045 160.23 74.3428 160.23C37.6401 160.23 7.88672 165.6 7.88672 172.225C7.88672 178.849 37.6401 184.219 74.3428 184.219Z" fill="#1E3A59"/>
</g>
<path d="M111.624 142.437H31.748L33.1154 76.6476C33.1154 71.0991 37.3752 66.6011 42.6298 66.6011H103.477C108.731 66.6011 112.991 71.0991 112.991 76.6476L111.624 142.437Z" fill="white"/>
<g opacity="0.2">
<path d="M111.624 142.437H31.748L33.1154 76.6476C33.1154 71.0991 37.3752 66.6011 42.6298 66.6011H103.477C108.731 66.6011 112.991 71.0991 112.991 76.6476L111.624 142.437Z" fill="#1E3A59"/>
</g>
<path d="M111.617 143.743H31.741C31.3899 143.743 31.0539 143.602 30.8083 143.351C30.5628 143.1 30.4285 142.761 30.4358 142.41L31.8033 76.6205C31.8029 70.3879 36.6567 65.2954 42.6229 65.2954H103.47C109.436 65.2954 114.29 70.388 114.29 76.6477L112.922 142.465C112.907 143.175 112.327 143.743 111.617 143.743ZM33.0739 141.132H110.338L111.679 76.6205C111.679 71.8278 107.996 67.9065 103.47 67.9065H42.6228C38.0965 67.9065 34.4139 71.8278 34.4139 76.6477L33.0739 141.132Z" fill="#1E3A59"/>
<path d="M134.317 110.805C134.291 111.262 134.239 111.723 134.161 112.179C133.485 116.155 130.864 119.983 127.133 122.03C121.291 125.238 113.771 123.783 109.401 118.466V133.564C119.365 135.83 126.752 141.633 129.242 148.232V148.236C129.376 148.582 129.493 148.931 129.594 149.283C129.627 149.394 129.66 149.505 129.689 149.616C129.754 149.858 129.813 150.103 129.865 150.347C129.888 150.461 129.911 150.579 129.934 150.696C129.957 150.817 129.976 150.938 129.996 151.059C129.999 151.062 129.999 151.069 129.999 151.075C130.022 151.219 130.042 151.362 130.058 151.506C130.071 151.601 130.081 151.699 130.091 151.796C130.097 151.855 130.104 151.911 130.11 151.966C130.117 152.025 130.12 152.084 130.123 152.139C130.13 152.224 130.136 152.309 130.139 152.394C130.156 152.658 130.162 152.923 130.162 153.187C130.162 153.321 130.159 153.455 130.152 153.592C130.146 153.716 130.139 153.84 130.133 153.964C130.123 154.107 130.113 154.251 130.097 154.391C130.087 154.506 130.074 154.616 130.058 154.727C130.051 154.799 130.042 154.868 130.028 154.94C130.019 155.008 130.009 155.073 129.999 155.139C129.989 155.207 129.98 155.279 129.963 155.348C129.944 155.459 129.924 155.566 129.901 155.674C129.872 155.818 129.839 155.958 129.807 156.102C129.771 156.242 129.735 156.386 129.696 156.526C129.656 156.67 129.614 156.81 129.572 156.954C129.438 157.378 129.281 157.802 129.102 158.223C129.02 158.409 128.935 158.595 128.847 158.781C128.736 159.016 128.615 159.248 128.488 159.48C128.335 159.757 128.175 160.031 128.002 160.306C127.878 160.501 127.75 160.694 127.613 160.887C127.277 161.376 126.902 161.859 126.49 162.339C126.376 162.47 126.259 162.603 126.138 162.737C125.896 163.002 125.645 163.263 125.381 163.524C125.12 163.782 124.845 164.039 124.558 164.294C124.271 164.549 123.971 164.803 123.661 165.055C123.194 165.427 122.701 165.795 122.182 166.161C122.052 166.252 121.918 166.341 121.784 166.432C121.65 166.523 121.513 166.611 121.376 166.7C121.242 166.788 121.102 166.876 120.961 166.964C119.737 167.734 118.386 168.469 116.895 169.161C116.728 169.239 116.562 169.314 116.392 169.389C116.216 169.467 116.039 169.546 115.86 169.624C115.684 169.702 115.501 169.781 115.318 169.856C115.077 169.96 114.829 170.061 114.58 170.159C114.133 170.335 113.68 170.512 113.213 170.681C113.086 170.73 112.955 170.776 112.828 170.825C112.756 170.848 112.684 170.874 112.612 170.9C112.338 170.995 112.061 171.093 111.78 171.187C111.617 171.243 111.454 171.295 111.287 171.351C110.605 171.576 109.9 171.791 109.176 172C108.81 172.108 108.435 172.212 108.056 172.313C107.488 172.467 106.907 172.617 106.313 172.764C106.134 172.806 105.954 172.852 105.771 172.894C104.913 173.097 104.032 173.293 103.121 173.475C102.442 173.612 101.75 173.746 101.042 173.874C100.686 173.939 100.324 174.001 99.9584 174.063C99.6711 174.109 99.3807 174.158 99.087 174.203C97.9185 174.389 96.7108 174.559 95.4673 174.716C86.5601 177.235 78.2894 177.891 71.8237 173.27C71.7454 173.335 71.6638 173.4 71.5822 173.466C71.3373 173.658 71.0893 173.841 70.8347 174.017C70.4985 174.249 70.1493 174.461 69.7936 174.66C69.6141 174.758 69.4345 174.853 69.2517 174.944C69.0233 175.055 68.7915 175.163 68.5565 175.264C68.439 175.316 68.3215 175.365 68.2007 175.411C67.8222 175.561 67.4338 175.698 67.0356 175.816C66.9572 175.838 66.8789 175.861 66.7973 175.884C66.6504 175.927 66.5003 175.969 66.3502 176.005C66.1576 176.054 65.965 176.1 65.7692 176.142C65.6158 176.175 65.4591 176.207 65.2992 176.233C65.198 176.253 65.0935 176.273 64.9891 176.289C64.6562 176.344 64.3168 176.39 63.9741 176.429C63.8468 176.446 63.7195 176.455 63.589 176.469C63.5074 176.475 63.4225 176.485 63.3377 176.488C63.2365 176.498 63.1353 176.504 63.0309 176.511C62.8481 176.524 62.6621 176.534 62.476 176.54C59.5941 176.655 56.7544 175.94 54.1596 174.683C50.6804 172.999 46.6429 171.994 42.1943 171.468C37.5203 170.913 32.9803 169.448 29.0114 166.918C28.561 166.631 28.1268 166.341 27.7059 166.044C27.5786 165.956 27.4545 165.864 27.3305 165.773C27.1771 165.665 27.027 165.554 26.8802 165.44C26.7365 165.332 26.5929 165.221 26.4526 165.11C26.3938 165.065 26.335 165.019 26.2763 164.97C26.0936 164.826 25.9108 164.676 25.7346 164.529C25.5354 164.363 25.3396 164.196 25.1503 164.027C25.0067 163.903 24.8663 163.775 24.7293 163.645C24.589 163.517 24.4551 163.39 24.3213 163.256C24.3082 163.25 24.2952 163.237 24.2821 163.22C24.2071 163.152 24.1319 163.08 24.0601 163.005C23.8839 162.835 23.7142 162.662 23.5477 162.486C22.9929 161.905 22.4838 161.314 22.0202 160.714C21.906 160.57 21.7951 160.426 21.6906 160.283C21.658 160.24 21.6254 160.198 21.5992 160.156C21.4883 160.009 21.3806 159.859 21.2793 159.708C21.2565 159.679 21.2369 159.65 21.2206 159.62C21.1129 159.47 21.0117 159.317 20.9171 159.163C20.8811 159.118 20.8517 159.072 20.8256 159.023C20.7212 158.863 20.6232 158.703 20.5286 158.54C20.4111 158.347 20.3034 158.155 20.1957 157.962C20.1239 157.835 20.0553 157.708 19.9868 157.577C19.8954 157.401 19.8041 157.225 19.7192 157.048C19.5364 156.676 19.3732 156.301 19.2231 155.929C19.0696 155.557 18.9326 155.181 18.8118 154.803C18.6878 154.427 18.5801 154.055 18.4854 153.68C18.0514 151.976 17.9077 150.279 18.0383 148.644C18.0383 148.598 18.0448 148.552 18.0481 148.503C18.0644 148.324 18.0807 148.144 18.1035 147.965C18.1296 147.762 18.159 147.563 18.1917 147.364C18.2243 147.168 18.2602 146.969 18.2994 146.774C18.3418 146.578 18.3875 146.385 18.4331 146.189C18.4821 145.997 18.5344 145.804 18.5931 145.615C18.6486 145.426 18.7073 145.236 18.7726 145.05V145.047C21.0149 138.483 27.9539 133.725 37.8565 134.769V119.008C33.1598 121.753 28.9428 123.045 26.0543 123.698C26.051 123.701 26.0478 123.701 26.0445 123.701C22.6468 124.471 19.6701 125.108 16.0015 124.168C15.1464 123.949 14.3565 123.672 13.6385 123.358C11.9739 122.644 10.6879 121.759 9.79688 121.051C11.4092 119.079 13.1587 116.733 14.8885 113.994C16.0439 112.17 17.1896 110.169 18.2829 107.995C20.3914 103.804 21.8406 99.8878 22.8556 96.5064C29.2756 82.6741 40.4088 75.1639 55.1028 72.4385L95.3759 69.896C99.707 71.5802 105.497 74.3447 111.552 78.9075C116.624 82.7328 120.433 86.7278 123.187 90.1027C124.157 91.2842 125.159 92.4363 126.184 93.5689C129.464 97.2082 131.305 100.674 132.356 103.099C133.606 105.985 134.467 108.038 134.317 110.805Z" fill="white"/>
<g opacity="0.2">
<path d="M109.514 121.325L108.98 115.807C108.789 113.835 107.132 112.331 105.151 112.331H100.342V109.924C100.342 106.004 97.1646 102.826 93.2446 102.826H53.7856C49.8656 102.826 46.6877 106.004 46.6877 109.924V112.331H42.3603C40.3795 112.331 38.7225 113.835 38.5317 115.807L37.9978 121.325C37.8839 122.502 38.8085 123.52 39.9902 123.52H46.6877V129.777C46.6877 133.697 49.8656 136.876 53.7856 136.876H93.2446C97.1646 136.876 100.342 133.697 100.342 129.777V123.52H107.521C108.703 123.52 109.627 122.502 109.514 121.325Z" fill="#371A45"/>
</g>
<path d="M39.3328 95.376L39.8424 119.396C39.8616 120.299 39.145 121.046 38.2417 121.066C37.2595 121.094 36.4633 120.217 36.5821 119.243L39.3328 95.376Z" fill="#371A45"/>
<path d="M105.172 93.2095C108.675 101.261 110.67 109.968 111.394 118.743C111.47 119.642 110.802 120.434 109.902 120.509C109.003 120.585 108.212 119.917 108.136 119.018C108.485 110.338 107.643 101.594 105.172 93.2095Z" fill="#371A45"/>
<g opacity="0.2">
<path d="M37.5538 109.471V119.099C35.713 120.304 31.5549 122.758 25.7516 123.79C25.7484 123.793 25.7451 123.793 25.7418 123.793C23.8977 124.123 21.8839 124.305 19.7264 124.26C17.383 124.211 15.2419 123.897 13.3357 123.45C11.6711 122.735 10.3852 121.851 9.49414 121.143C11.1065 119.171 12.8559 116.825 14.5858 114.086C16.1622 114.39 17.8823 114.592 19.7264 114.631C28.6696 114.82 35.1288 111.057 37.5538 109.471Z" fill="#1E3A59"/>
<path d="M95.1661 165.176C86.2595 167.696 77.99 168.352 71.5236 163.733C68.9649 165.862 65.7997 166.861 62.1745 167.003C59.2931 167.117 56.4536 166.403 53.8585 165.146C50.3817 163.461 46.3438 162.457 41.8924 161.93C37.2187 161.377 32.6813 159.909 28.7113 157.382C23.1532 153.843 19.8614 149.489 18.4713 145.138C16.138 151.971 18.895 160.761 28.7113 167.011C32.6813 169.539 37.2188 171.006 41.8924 171.559C46.3438 172.087 50.3817 173.091 53.8585 174.775C56.4536 176.032 59.2931 176.746 62.1745 176.633C65.7997 176.49 68.9649 175.491 71.5236 173.362C77.99 177.982 86.2595 177.326 95.1661 174.806C124.65 171.125 132.876 158.728 128.943 148.323C126.007 155.762 115.789 162.602 95.1661 165.176Z" fill="#1E3A59"/>
<path d="M133.859 112.271C133.184 116.247 130.563 120.075 126.832 122.122C120.99 125.33 113.47 123.874 109.1 118.558V110.372C110.072 111.361 115.846 117.033 124.254 116.031C128.213 115.558 131.333 113.773 133.575 111.955C133.67 112.059 133.765 112.167 133.859 112.271Z" fill="#1E3A59"/>
</g>
<path d="M83.0137 178.087C78.5395 178.088 74.8181 177.056 71.5766 174.974C69.0451 176.797 65.9057 177.793 62.2283 177.937C59.2613 178.058 56.2552 177.386 53.2917 175.95C50.1176 174.413 46.3394 173.401 41.7412 172.856C36.6234 172.25 32.0044 170.654 28.0124 168.113C18.5951 162.117 14.3785 152.893 17.2701 144.612C19.8368 137.263 27.2018 132.985 36.253 133.448V121.31C32.9796 123.009 29.5516 124.27 26.0345 125.066C22.7856 125.801 19.4264 126.562 15.3805 125.524C12.9752 124.908 10.7238 123.778 8.68845 122.166C8.41412 121.949 8.23851 121.63 8.20091 121.283C8.16331 120.934 8.2672 120.586 8.48904 120.315C11.7256 116.364 14.5281 112.052 16.8187 107.5C18.6337 103.894 20.1434 100.1 21.306 96.2243C21.3238 96.1644 21.3459 96.1063 21.3723 96.0495C27.6543 82.5135 38.8218 74.1683 54.565 71.2458C54.6167 71.2363 54.6687 71.2299 54.7211 71.2268L94.9957 68.6838C95.1843 68.6702 95.3743 68.7011 95.5511 68.7698C101.445 71.0606 106.992 74.1517 112.04 77.9574C116.431 81.2678 120.422 85.1069 123.902 89.3672C124.76 90.4181 125.726 91.5366 126.854 92.7867C129.559 95.786 131.713 99.1121 133.256 102.672C134.506 105.557 135.493 107.836 135.322 110.968C135.049 115.968 131.964 120.796 127.464 123.266C121.957 126.29 115.225 125.551 110.408 121.678V132.63C122.945 135.831 131.615 144.654 131.156 153.897C130.975 157.527 129.279 162.851 122.221 167.603C116.02 171.779 107.006 174.634 95.4282 176.089C90.7078 177.418 86.6165 178.087 83.0137 178.087ZM71.5261 172.057C71.7913 172.057 72.0572 172.137 72.2848 172.3C77.5715 176.077 84.5193 176.461 94.813 173.55C94.8765 173.532 94.9413 173.519 95.0067 173.511C115.522 170.949 128.06 163.569 128.548 153.768C128.956 145.545 120.657 137.623 108.813 134.93C108.219 134.795 107.797 134.267 107.797 133.657V118.558C107.797 118.007 108.143 117.515 108.663 117.329C109.181 117.143 109.761 117.304 110.111 117.729C114.078 122.554 120.847 123.92 126.207 120.978C129.878 118.962 132.493 114.882 132.715 110.825C132.846 108.425 132.132 106.647 130.86 103.71C129.43 100.411 127.43 97.324 124.915 94.5354C123.758 93.2534 122.765 92.1028 121.88 91.0186C118.532 86.9202 114.692 83.227 110.468 80.042C105.688 76.4386 100.442 73.5008 94.8718 71.3076L54.9646 73.8275C39.9665 76.631 29.7638 84.2337 23.7798 97.0649C22.5773 101.054 21.0204 104.96 19.1515 108.674C16.9809 112.987 14.3675 117.093 11.3725 120.895C12.8268 121.869 14.388 122.574 16.0293 122.995C19.4646 123.876 22.2421 123.247 25.4583 122.52C29.4249 121.622 33.2743 120.092 36.8996 117.972C37.3033 117.735 37.8026 117.734 38.2083 117.966C38.6139 118.199 38.8641 118.631 38.8641 119.099V134.86C38.8641 135.231 38.7071 135.583 38.432 135.831C38.157 136.078 37.7888 136.196 37.4218 136.159C28.9629 135.265 22.0227 138.924 19.7352 145.473C17.2578 152.567 21.0573 160.589 29.4148 165.91C33.073 168.239 37.3235 169.704 42.0482 170.263C46.9399 170.842 50.9901 171.934 54.43 173.6C57.003 174.846 59.5916 175.426 62.1258 175.328C65.6541 175.19 68.4558 174.218 70.691 172.359C70.932 172.158 71.2286 172.057 71.5261 172.057Z" fill="#1E3A59"/>
<path d="M109.1 139.914C106.743 140.996 104.246 141.502 101.733 142.001C99.298 142.513 96.8946 143.137 94.5305 143.888C89.7728 145.38 85.2144 147.355 80.6934 149.479C80.2526 149.735 79.6943 149.716 79.3139 149.402C75.593 146.756 68.5149 143.354 64.7757 147.266C61.5293 151.294 64.4195 158.503 66.4505 162.691C68.1708 166.145 70.2817 169.436 72.5773 172.595C73.0018 173.178 72.8732 173.994 72.29 174.418C71.7073 174.842 70.8918 174.712 70.4685 174.13C68.1109 170.884 65.926 167.486 64.113 163.847C61.9088 159.213 59.8042 153.881 61.1571 148.644C63.0739 142.142 70.1364 141.97 75.381 144.242C77.3274 145.04 79.1304 146.088 80.8168 147.27L79.4375 147.193C81.6203 145.805 83.9205 144.591 86.2996 143.544C92.0082 140.985 103.148 137.667 109.1 139.914Z" fill="#1E3A59"/>
<path d="M36.5098 143.043C39.0871 141.714 42.2205 142.566 44.4163 144.29L43.8129 143.944L62.5062 148.742C64.1552 149.215 63.5511 151.649 61.857 151.271L43.1636 146.473C42.9261 146.418 42.7152 146.294 42.5601 146.127C41.2615 144.076 39.005 142.688 36.5098 143.043Z" fill="#1E3A59"/>
<path d="M81.0266 148.482C80.0377 152.635 80.4909 157.063 81.9835 161.09C80.9372 159.172 80.1061 157.106 79.5982 154.928C79.0875 152.753 78.9095 150.468 79.0901 148.19C79.1286 147.646 79.6039 147.237 80.1476 147.28C80.7412 147.323 81.1653 147.905 81.0266 148.482Z" fill="#1E3A59"/>
<path d="M37.5501 172.072C36.9361 172.072 36.3887 171.637 36.2692 171.011C34.4094 161.275 36.4259 152.581 42.4343 144.433C42.8622 143.853 43.6797 143.73 44.2598 144.157C44.8402 144.585 44.9638 145.402 44.5357 145.982C38.9833 153.512 37.1183 161.539 38.834 170.522C38.9693 171.23 38.5048 171.913 37.7966 172.049C37.7138 172.064 37.6314 172.072 37.5501 172.072Z" fill="#1E3A59"/>
<path d="M107.883 173.673C107.873 173.673 107.863 173.673 107.853 173.672C107.132 173.656 106.561 173.058 106.577 172.337C106.894 158.513 103.684 148.724 96.7653 142.41C96.2328 141.924 96.195 141.098 96.681 140.566C97.1672 140.033 97.9928 139.995 98.5254 140.481C106.035 147.334 109.522 157.774 109.188 172.397C109.172 173.108 108.59 173.673 107.883 173.673Z" fill="#1E3A59"/>
<g opacity="0.2">
<path d="M37.5605 139.91C88.8357 139.295 102.753 139.758 102.776 140.482C102.788 140.848 99.2431 141.069 93.3185 142.848C88.2098 144.381 84.0319 146.261 80.9028 147.882C76.3011 143.377 70.309 142.517 66.1448 144.731C64.4842 145.613 63.1287 147.287 62.1775 150.006C57.7479 149.725 50.7874 148.624 43.6804 144.398C41.2593 142.959 39.2319 141.401 37.5605 139.91Z" fill="#1E3A59"/>
</g>
<path d="M113.034 94.5746C117.66 95.5299 122.941 98.359 125.38 102.536C125.664 102.901 125.278 103.379 124.88 103.114C121.068 100.235 116.668 98.3375 112.148 97.0312C110.44 96.411 111.271 94.0444 113.034 94.5746Z" fill="#1E3A59"/>
<g opacity="0.2">
<path d="M106.242 75.315C97.5904 84.1403 85.4227 89.634 71.9483 89.634C59.8708 89.634 48.84 85.2159 40.4551 77.9427C44.9164 75.4774 49.941 73.7737 55.4671 72.7486L95.7423 70.2075C99.4204 71.6838 102.954 73.3478 106.242 75.315Z" fill="#1E3A59"/>
</g>
<path d="M117.889 124.928C117.653 124.928 117.415 124.864 117.2 124.73C116.588 124.349 116.4 123.544 116.781 122.932C120.959 116.218 122.416 107.467 120.493 100.638C120.298 99.9435 120.702 99.2228 121.396 99.0273C122.09 98.8317 122.811 99.236 123.006 99.9299C125.152 107.549 123.616 116.891 118.998 124.312C118.751 124.709 118.325 124.928 117.889 124.928Z" fill="#1E3A59"/>
<path d="M33.7177 115.323C33.3901 115.323 33.0622 115.2 32.8084 114.954C28.4816 110.753 23.5171 109.316 17.6306 110.561C16.9262 110.711 16.2323 110.26 16.0832 109.554C15.934 108.849 16.3849 108.156 17.0904 108.006C23.7982 106.589 29.6982 108.295 34.6273 113.08C35.1446 113.583 35.1568 114.409 34.6545 114.926C34.3986 115.19 34.0584 115.323 33.7177 115.323Z" fill="#1E3A59"/>
<path d="M17.6558 143.826C25.4372 143.826 31.7452 138.2 31.7452 131.261C31.7452 124.321 25.4372 118.695 17.6558 118.695C9.87445 118.695 3.56641 124.321 3.56641 131.261C3.56641 138.2 9.87445 143.826 17.6558 143.826Z" fill="#C0BECC"/>
<g opacity="0.2">
<path d="M17.6558 140.672C25.4372 140.672 31.7452 135.046 31.7452 128.106C31.7452 121.166 25.4372 115.54 17.6558 115.54C9.87445 115.54 3.56641 121.166 3.56641 128.106C3.56641 135.046 9.87445 140.672 17.6558 140.672Z" fill="black"/>
</g>
<path d="M17.6451 145.132C9.15621 145.132 2.25 138.909 2.25 131.261C2.25 123.612 9.15621 117.389 17.6451 117.389C26.1339 117.389 33.0399 123.612 33.0399 131.261C33.0399 138.909 26.1339 145.132 17.6451 145.132ZM17.6451 120C10.5959 120 4.86106 125.052 4.86106 131.261C4.86106 137.47 10.5958 142.521 17.6451 142.521C24.6941 142.521 30.4289 137.47 30.4289 131.261C30.4289 125.052 24.6941 120 17.6451 120Z" fill="#1E3A59"/>
<path d="M5.99745 139.634C5.63726 139.634 5.27853 139.485 5.0207 139.195C4.542 138.656 4.59095 137.83 5.13015 137.352C13.3572 130.049 22.7337 130.065 30.2116 137.396C30.7265 137.9 30.7349 138.727 30.23 139.242C29.7255 139.757 28.8983 139.765 28.3839 139.26C21.8993 132.904 14.0555 132.92 6.86376 139.305C6.61498 139.525 6.30562 139.634 5.99745 139.634Z" fill="#1E3A59"/>
<path d="M17.6519 145.132C17.641 145.132 17.6303 145.132 17.6195 145.132C16.8987 145.114 16.3286 144.516 16.3461 143.795L16.6057 133.135C16.6234 132.414 17.2321 131.849 17.9427 131.861C18.6634 131.879 19.2336 132.477 19.216 133.198L18.9565 143.858C18.9391 144.569 18.3581 145.132 17.6519 145.132Z" fill="#1E3A59"/>
<path d="M7.33336 118.284C14.8481 111.371 27.4069 114.623 31.7457 122.938L33.5473 127.624C34.1079 129.082 33.2735 130.756 31.7437 131.072C31.6613 131.089 31.5773 131.103 31.4917 131.114C29.9141 131.322 28.4209 130.351 27.8216 128.877C26.975 126.794 25.9519 125.026 24.5363 123.958C23.9819 123.539 23.2032 123.605 22.7133 124.097C20.8487 125.971 20.8919 128.694 22.1709 131.968C22.5419 133.823 22.0224 135.199 21.1318 135.967C19.853 137.068 17.8578 136.595 17.114 135.08C15.6358 132.068 16.7836 128.647 14.4645 126.745C14.3956 126.688 14.3252 126.635 14.2537 126.586C13.1752 125.848 11.7132 126.008 10.7339 126.873C10.2486 127.302 9.71304 127.824 9.1698 128.446C7.48765 130.372 7.32193 131.436 6.24311 131.74C4.84129 132.136 1.98249 131.135 2.11374 129.406C2.31044 126.815 3.1253 124.555 4.36058 122.221C5.13449 120.758 6.1157 119.405 7.33336 118.284Z" fill="white"/>
<g opacity="0.2">
<path d="M22.0036 131.542C21.8374 131.77 21.6474 131.971 21.4365 132.141C20.0663 133.243 17.9285 132.769 17.1316 131.254C15.5477 128.243 16.7775 124.821 14.2926 122.919C14.2188 122.862 14.1435 122.81 14.0669 122.761C12.9113 122.022 11.3449 122.182 10.2955 123.047C9.77548 123.476 9.20167 123.998 8.61964 124.62C6.81732 126.546 6.63976 127.61 5.48387 127.915C4.65947 128.132 3.36564 127.928 2.38855 127.414C2.25382 128.06 2.15599 128.721 2.10398 129.405C1.97273 131.134 4.83152 132.136 6.23335 131.74C7.31217 131.435 7.47788 130.371 9.16003 128.445C9.70327 127.823 10.2388 127.302 10.7242 126.873C11.7035 126.007 13.1654 125.848 14.2439 126.586C14.3155 126.635 14.3858 126.687 14.4547 126.744C16.7738 128.646 15.6261 132.068 17.1043 135.079C17.848 136.595 19.8433 137.068 21.122 135.966C22.0126 135.199 22.5321 133.822 22.1611 131.968C22.1053 131.824 22.0548 131.683 22.0036 131.542Z" fill="black"/>
<path d="M33.3326 127.086C33.1674 127.155 32.9931 127.21 32.8079 127.246C32.7195 127.263 32.6295 127.277 32.5377 127.288C30.8473 127.496 29.2474 126.525 28.6054 125.051C27.6983 122.968 26.6021 121.2 25.0854 120.132C24.4914 119.713 23.657 119.779 23.132 120.271C21.6997 121.614 21.3225 123.396 21.7264 125.503C21.9609 124.993 22.2813 124.522 22.7047 124.097C23.1946 123.604 23.9734 123.539 24.5277 123.957C25.9433 125.026 26.9664 126.794 27.813 128.876C28.4122 130.35 29.9055 131.321 31.4831 131.113C31.5687 131.102 31.6528 131.088 31.7352 131.071C33.2649 130.755 34.0993 129.081 33.5387 127.623L33.3326 127.086Z" fill="black"/>
</g>
<path d="M19.4998 137.876C19.2382 137.876 18.974 137.849 18.7102 137.795C17.4936 137.546 16.4828 136.766 15.9371 135.655C15.2121 134.178 15.0379 132.665 14.8844 131.331C14.6834 129.585 14.5155 128.479 13.6314 127.754C13.5921 127.721 13.5515 127.691 13.5105 127.663C12.9547 127.282 12.148 127.361 11.5935 127.851C11.081 128.304 10.5946 128.793 10.1481 129.304C9.53802 130.003 9.13703 130.589 8.81472 131.059C8.21842 131.93 7.70332 132.683 6.59296 132.996C5.21891 133.385 3.25756 132.921 2.03126 131.918C1.16753 131.212 0.732697 130.284 0.80699 129.307C1.00146 126.746 1.73987 124.372 3.20164 121.61C4.09358 119.925 5.18459 118.482 6.44437 117.323C10.0771 113.982 15.1336 112.584 20.3175 113.491C25.8069 114.451 30.5098 117.756 32.8982 122.334C32.9212 122.378 32.9416 122.423 32.9592 122.469L34.7608 127.155C35.1767 128.236 35.0963 129.44 34.5403 130.458C34.005 131.438 33.0802 132.127 32.0031 132.35C31.891 132.373 31.7772 132.392 31.6616 132.408C29.5252 132.69 27.4488 131.438 26.6071 129.368C25.7359 127.225 24.7996 125.796 23.7448 124.999C23.7152 124.977 23.6663 124.985 23.6335 125.018C22.2897 126.368 22.2074 128.486 23.3821 131.493C23.4098 131.564 23.4311 131.637 23.4461 131.712C23.8775 133.87 23.3428 135.781 21.9788 136.956C21.2813 137.557 20.4072 137.876 19.4998 137.876ZM12.7029 124.807C13.5031 124.807 14.2986 125.038 14.9864 125.509C15.0888 125.579 15.189 125.654 15.2871 125.734C17.0334 127.167 17.2697 129.22 17.4783 131.032C17.6141 132.212 17.7545 133.432 18.281 134.504C18.4676 134.884 18.8145 135.151 19.2331 135.237C19.4561 135.282 19.8887 135.31 20.2744 134.977C20.8862 134.451 21.1139 133.489 20.9056 132.328C19.386 128.367 19.681 125.287 21.7828 123.176C22.7317 122.222 24.2512 122.111 25.3176 122.915C26.7794 124.019 27.9577 125.757 29.0261 128.385C29.4205 129.355 30.3626 129.944 31.3166 129.82C31.3673 129.813 31.4218 129.804 31.4752 129.793C31.9196 129.701 32.1506 129.386 32.2489 129.206C32.4365 128.862 32.4639 128.456 32.3236 128.091L30.5496 123.478C28.552 119.705 24.4663 116.867 19.8679 116.063C15.4906 115.297 11.2422 116.458 8.21223 119.245C7.17157 120.202 6.26208 121.409 5.5094 122.831C4.22379 125.26 3.57645 127.318 3.41053 129.504C3.39966 129.648 3.59853 129.826 3.68459 129.897C4.3212 130.418 5.43908 130.608 5.88324 130.484C6.05968 130.434 6.19927 130.257 6.66028 129.584C7.00216 129.085 7.47048 128.401 8.18173 127.587C8.70172 126.991 9.268 126.422 9.8643 125.895C10.679 125.174 11.6945 124.807 12.7029 124.807Z" fill="#1E3A59"/>
<path d="M112.091 52.9423L111.301 52.9392C110.898 52.9375 110.573 52.6094 110.574 52.2062L110.666 29.059C110.668 28.6558 110.996 28.3302 111.399 28.3318L112.189 28.3349C116.419 28.3518 119.835 31.7946 119.818 36.0248L119.781 45.3135C119.764 49.5436 116.321 52.9592 112.091 52.9423Z" fill="white"/>
<path d="M112.123 53.1709C112.112 53.1709 112.102 53.1709 112.091 53.1709L111.301 53.1678C111.045 53.1668 110.804 53.0662 110.624 52.8843C110.443 52.7025 110.345 52.4613 110.346 52.2051L110.438 29.058C110.44 28.5306 110.87 28.103 111.397 28.103C111.398 28.103 111.399 28.103 111.4 28.103L112.19 28.1063C114.297 28.1147 116.275 28.9431 117.759 30.4388C119.243 31.9346 120.055 33.9186 120.047 36.0256L120.01 45.3142C120.001 47.4213 119.173 49.3989 117.677 50.8828C116.19 52.359 114.218 53.1708 112.123 53.1709ZM111.397 28.5604C111.263 28.5604 111.138 28.6119 111.044 28.7058C110.948 28.8002 110.896 28.9258 110.895 29.0597L110.803 52.207C110.803 52.341 110.854 52.4671 110.949 52.5622C111.043 52.6573 111.169 52.71 111.302 52.7104L112.092 52.7135C112.103 52.7136 112.113 52.7136 112.123 52.7136C114.096 52.7136 115.954 51.9488 117.355 50.5581C118.764 49.1603 119.545 47.2974 119.553 45.3125L119.59 36.0238C119.597 34.039 118.832 32.17 117.434 30.7609C116.036 29.3519 114.173 28.5715 112.189 28.5636L111.399 28.5604C111.398 28.5604 111.397 28.5604 111.397 28.5604Z" fill="#371A45"/>
<g opacity="0.25">
<path d="M119.799 40.9128L119.785 44.5928C119.766 49.2197 115.999 52.9576 111.37 52.9409C110.929 52.9396 110.573 52.5782 110.574 52.1372L110.597 46.0204C110.719 46.2997 110.998 46.4934 111.321 46.4972L111.867 46.4979C115.525 46.5132 118.646 44.1808 119.799 40.9128Z" fill="#1E3A59"/>
</g>
<path d="M112.124 54.2152C112.112 54.2152 112.1 54.2152 112.088 54.2152L111.298 54.2121C110.763 54.21 110.261 53.9996 109.884 53.6198C109.507 53.2399 109.3 52.7359 109.303 52.2008L109.395 29.0538C109.397 28.5189 109.607 28.0167 109.987 27.6399C110.365 27.265 110.866 27.0588 111.398 27.0588C111.4 27.0588 111.403 27.0588 111.406 27.0588L112.196 27.0621C114.582 27.0716 116.821 28.0096 118.501 29.7034C120.182 31.3972 121.102 33.6439 121.092 36.0298L121.055 45.3185C121.046 47.7044 120.108 49.9437 118.414 51.624C116.729 53.296 114.497 54.2152 112.124 54.2152ZM111.851 51.6686L112.098 51.6695C112.106 51.6696 112.115 51.6696 112.124 51.6696C113.82 51.6696 115.416 51.0122 116.621 49.817C117.832 48.6155 118.503 47.0144 118.51 45.3084L118.546 36.0197C118.553 34.3138 117.895 32.7074 116.694 31.4964C115.493 30.2853 113.891 29.6146 112.186 29.6079L111.938 29.6068L111.851 51.6686Z" fill="#1E3A59"/>
<path d="M34.7991 28.0269L35.5891 28.0301C35.9923 28.0317 36.3179 28.3598 36.3162 28.763L36.2241 51.9103C36.2224 52.3135 35.8943 52.6391 35.4911 52.6374L34.7012 52.6343C30.4711 52.6174 27.0555 49.1746 27.0723 44.9444L27.1093 35.6558C27.1262 31.4256 30.569 28.0101 34.7991 28.0269Z" fill="white"/>
<path d="M35.4946 52.8661C35.4932 52.8661 35.4917 52.8661 35.4903 52.8661L34.7005 52.8629C32.5936 52.8546 30.6159 52.0262 29.1321 50.5304C27.6483 49.0347 26.8356 47.0506 26.8438 44.9436L26.8809 35.6549C26.8892 33.5479 27.7176 31.5703 29.2134 30.0864C30.709 28.6024 32.6922 27.8013 34.8002 27.7983L35.5901 27.8015C35.8462 27.8025 36.0866 27.9031 36.267 28.085C36.4473 28.2669 36.5461 28.5079 36.5451 28.764L36.453 51.9111C36.452 52.1672 36.3514 52.4076 36.1695 52.588C35.9887 52.7674 35.7492 52.8661 35.4946 52.8661ZM34.768 28.2555C32.7945 28.2555 30.9374 29.0203 29.5356 30.411C28.1266 31.8089 27.3462 33.6718 27.3383 35.6565L27.3013 44.9453C27.2933 46.9301 28.0588 48.7991 29.4568 50.2082C30.8546 51.6172 32.7175 52.3976 34.7023 52.4055L35.4922 52.4086C35.4931 52.4086 35.4938 52.4086 35.4945 52.4086C35.6276 52.4086 35.7528 52.3571 35.8474 52.2632C35.9425 52.169 35.9952 52.0432 35.9956 51.9093L36.0877 28.7622C36.0889 28.4857 35.8648 28.2598 35.5884 28.2588L34.7985 28.2557C34.7884 28.2555 34.7781 28.2555 34.768 28.2555Z" fill="#371A45"/>
<g opacity="0.25">
<path d="M36.2537 45.4583L36.2275 51.8417C36.2263 52.2827 35.8648 52.6387 35.4238 52.6375C32.9946 52.6267 30.8084 51.5847 29.2838 49.9253C27.907 48.4267 27.0698 46.4225 27.0782 44.225L27.0912 40.9187C28.3934 43.8247 31.3127 45.8571 34.7061 45.8713L35.5458 45.8745C35.8524 45.8749 36.1136 45.7066 36.2537 45.4583Z" fill="#371A45"/>
</g>
<path d="M35.4919 53.9104C35.4891 53.9104 35.4862 53.9104 35.4833 53.9104L34.6938 53.9072C29.7686 53.8876 25.7775 49.8648 25.7969 44.9396L25.834 35.6507C25.8435 33.2649 26.7815 31.0254 28.4753 29.3451C30.1603 27.6734 32.3928 26.7542 34.765 26.7542C34.7773 26.7542 34.7895 26.7542 34.8017 26.7542L35.5915 26.7573C36.1266 26.7594 36.6288 26.9698 37.0055 27.3497C37.3823 27.7295 37.5886 28.2332 37.5866 28.7681L37.4945 51.9154C37.4924 52.4502 37.2819 52.9525 36.9022 53.3293C36.5243 53.7042 36.0239 53.9104 35.4919 53.9104ZM35.4934 51.3646H35.4937C35.4937 51.3646 35.4935 51.3646 35.4934 51.3646ZM34.7655 29.2999C33.0693 29.2999 31.4733 29.9572 30.2683 31.1524C29.0572 32.3539 28.3865 33.9551 28.3799 35.661L28.3428 44.9497C28.336 46.6556 28.9939 48.262 30.1954 49.473C31.3969 50.6842 32.998 51.3548 34.7039 51.3615L34.9511 51.3624L35.0388 29.3009L34.7917 29.3C34.783 29.2999 34.774 29.2999 34.7655 29.2999Z" fill="#1E3A59"/>
<path d="M73.449 79.6956C95.1045 79.6956 112.66 62.1404 112.66 40.4849C112.66 18.8294 95.1045 1.27417 73.449 1.27417C51.7935 1.27417 34.2383 18.8294 34.2383 40.4849C34.2383 62.1404 51.7935 79.6956 73.449 79.6956Z" fill="white"/>
<path d="M73.5097 79.9266C72.5081 79.9266 71.503 79.8891 70.4937 79.8133C59.9887 79.0243 50.4197 74.1916 43.5495 66.2056C36.6792 58.2194 33.3302 48.0359 34.1193 37.5307C34.9083 27.0257 39.741 17.4567 47.727 10.5865C55.7132 3.71622 65.8957 0.366572 76.4018 1.15626C86.9069 1.9453 96.4759 6.77797 103.346 14.7641C110.216 22.7503 113.565 32.9338 112.776 43.439C111.987 53.944 107.155 63.513 99.1686 70.3832C91.9495 76.5934 82.934 79.9266 73.5097 79.9266ZM73.3867 1.50022C64.071 1.50022 55.1609 4.79462 48.0252 10.9332C40.1317 17.7238 35.3552 27.1817 34.5752 37.5651C33.7954 47.9483 37.1055 58.0138 43.8962 65.9073C50.6867 73.801 60.1447 78.5773 70.5281 79.3573C80.9092 80.1379 90.9767 76.8271 98.8703 70.0365C106.764 63.2459 111.54 53.788 112.32 43.4046C113.1 33.0214 109.79 22.9559 102.999 15.0625C96.2087 7.1688 86.7507 2.39225 76.3674 1.61227C75.3706 1.53743 74.3761 1.50022 73.3867 1.50022Z" fill="#371A45"/>
<g opacity="0.35">
<path d="M112.584 37.9813C112.701 39.768 112.691 41.5842 112.553 43.4224C110.928 65.0163 92.1086 81.2069 70.5145 79.587C48.9207 77.9622 32.7301 59.1424 34.35 37.5483C34.3962 36.9273 34.4573 36.3068 34.533 35.697C35.7394 54.9288 50.9705 70.8098 70.7287 72.2946C91.7018 73.8682 110.055 58.6422 112.584 37.9813Z" fill="#1E3A59"/>
</g>
<path d="M73.5166 80.971C72.4884 80.971 71.4566 80.9324 70.4206 80.8546C59.6375 80.0448 49.8152 75.0841 42.7631 66.8865C35.7109 58.6891 32.2732 48.2358 33.0832 37.4527C34.755 15.1926 54.2275 -1.55609 76.4851 0.114929C98.7451 1.78705 115.495 21.2572 113.823 43.5171C113.013 54.3004 108.052 64.1227 99.8546 71.1749C92.4446 77.5495 83.1903 80.971 73.5166 80.971ZM73.4259 2.54574C53.7853 2.54574 37.1162 17.7444 35.6218 37.6434C34.8627 47.7484 38.0842 57.5443 44.6929 65.2263C51.3017 72.9085 60.5063 77.5572 70.6114 78.3161C80.7166 79.0728 90.5122 75.8538 98.1944 69.2449C105.877 62.6363 110.525 53.4316 111.284 43.3264C112.851 22.4661 97.1547 4.22036 76.2944 2.65344C75.3331 2.58133 74.3747 2.54574 73.4259 2.54574Z" fill="#1E3A59"/>
<path d="M112.35 44.4168C111.891 52.076 108.978 59.0378 104.374 64.6664C100.921 68.8861 87.3541 75.8201 71.1635 74.9957C56.1514 74.2313 42.9794 65.4134 40.056 60.8115C36.1565 54.6732 34.0964 47.4134 34.5554 39.7542C35.7703 19.4857 53.6878 12.127 75.171 13.4146C96.6543 14.7021 113.565 24.1483 112.35 44.4168Z" fill="#0056A8"/>
<g opacity="0.5">
<path d="M104.747 42.0983C105.654 38.3752 104.203 34.8239 101.505 34.1663C98.8073 33.5088 95.8846 35.9939 94.9772 39.717C94.0697 43.4401 95.521 46.9913 98.2189 47.6489C100.917 48.3065 103.839 45.8214 104.747 42.0983Z" fill="white"/>
</g>
<g opacity="0.5">
<path d="M95.4392 55.2651C96.0879 53.6301 95.4764 51.8533 94.0733 51.2966C92.6702 50.7399 91.0069 51.614 90.3582 53.249C89.7095 54.884 90.321 56.6608 91.7241 57.2175C93.1272 57.7742 94.7905 56.9 95.4392 55.2651Z" fill="white"/>
</g>
<g opacity="0.35">
<path d="M105.917 25.0544C110.4 29.8769 112.835 36.2748 112.348 44.4153C111.889 52.0761 108.975 59.0374 104.373 64.6662C100.92 68.8859 87.3517 75.8195 71.1614 74.9967C65.4446 74.7072 59.9967 73.2479 55.2773 71.2962C75.2007 71.8834 91.7318 63.3658 96.013 58.1321C101.858 50.9885 105.554 42.1515 106.135 32.4325C106.292 29.835 106.209 27.3769 105.917 25.0544Z" fill="#111A28"/>
</g>
<path d="M110.064 27.7139C109.752 27.7139 109.439 27.5991 109.194 27.3675L109.076 27.2558L108.984 27.1131C102.992 17.549 90.6488 11.5297 75.1185 10.5986C59.5054 9.66207 46.5333 14.3357 39.5327 23.4182L39.4499 23.5151C38.9671 24.0262 38.1592 24.0515 37.6482 23.5691C37.1574 23.1057 37.1146 22.3467 37.5392 21.8346C45.0676 12.0924 58.816 7.07163 75.2709 8.05734C91.6191 9.03753 104.685 15.4812 111.126 25.7361C111.445 26.2186 111.405 26.8754 110.991 27.3136C110.74 27.5794 110.402 27.7139 110.064 27.7139Z" fill="#1E3A59"/>
<g opacity="0.5">
<path d="M42.567 52.3351C42.567 52.3351 37.4879 31.9639 48.7414 24.6418C59.995 17.3197 75.4965 18.281 75.0744 19.2536C75.0744 19.2536 57.6619 22.38 50.133 35.5463C44.3274 45.6992 42.567 52.3351 42.567 52.3351Z" fill="white"/>
</g>
<path d="M34.9785 84.6518L26.5137 47.8157L120.64 47.999L113.157 84.9378L34.9785 84.6518Z" fill="url(#paint0_linear_785_9566)"/>
<path d="M109.264 140.218H38.8611C37.829 140.218 36.9844 139.373 36.9844 138.341V135.044C36.9844 134.012 37.8289 133.167 38.8611 133.167H109.264C110.296 133.167 111.141 134.012 111.141 135.044V138.341C111.141 139.373 110.296 140.218 109.264 140.218Z" fill="#BFD4E6"/>
<g opacity="0.2">
<path d="M110.843 133.975V134.878C110.843 135.891 110.072 136.72 109.131 136.72H38.399C37.813 136.72 37.2935 136.399 36.9844 135.912V138.375C36.9844 139.389 37.755 140.218 38.6968 140.218H109.428C110.37 140.218 111.141 139.389 111.141 138.375V135.01C111.141 134.627 111.031 134.271 110.843 133.975Z" fill="#1E3A59"/>
</g>
<path d="M116.133 89.6556L112.503 128.411C112.39 129.616 111.872 130.738 111.044 131.559L109.424 133.167H38.692L37.0719 131.559C36.2439 130.738 35.7257 129.616 35.6125 128.411L31.9822 89.6556C31.9137 88.9025 31.9614 88.1365 32.1787 87.4186C32.694 85.7233 33.8912 84.7939 35.5232 84.3549C35.5976 84.3356 35.6691 84.3164 35.7436 84.3004C36.2855 84.1786 36.8396 84.1338 37.3935 84.1338H110.722C111.35 84.1338 111.982 84.1914 112.592 84.3549C114.224 84.794 115.422 85.7234 115.937 87.4187C115.946 87.4443 115.952 87.4732 115.958 87.4989C116.157 88.1942 116.199 88.9313 116.133 89.6556Z" fill="#BFD4E6"/>
<g opacity="0.7">
<path d="M38.0477 131.136L34.4174 92.3797C34.3488 91.6266 34.3965 90.8606 34.6139 90.1428C35.1292 88.4474 36.3263 87.518 37.9584 87.079C38.0329 87.0598 38.1044 87.0405 38.1788 87.0245C38.7208 86.9027 39.2748 86.8579 39.8287 86.8579H113.157C113.786 86.8579 114.417 86.9156 115.028 87.079C115.348 87.1652 115.646 87.2765 115.931 87.4025C115.413 85.718 114.219 84.7925 112.592 84.3549C111.982 84.1915 111.351 84.1338 110.722 84.1338H37.3935C36.8395 84.1338 36.2855 84.1787 35.7436 84.3004C35.6691 84.3164 35.5976 84.3356 35.5232 84.3549C33.8912 84.7939 32.6939 85.7233 32.1787 87.4186C31.9614 88.1365 31.9137 88.9025 31.9822 89.6556L35.6125 128.411C35.7257 129.616 36.2439 130.738 37.0719 131.559L38.6503 133.126C38.3238 132.52 38.1141 131.843 38.0477 131.136Z" fill="white"/>
</g>
<path d="M109.263 141.524H38.86C37.1053 141.524 35.6777 140.096 35.6777 138.342V135.044C35.6777 133.289 37.1053 131.862 38.86 131.862H109.263C111.018 131.862 112.445 133.289 112.445 135.044V138.342C112.445 140.096 111.018 141.524 109.263 141.524ZM38.86 134.473C38.5504 134.473 38.2888 134.735 38.2888 135.044V138.342C38.2888 138.651 38.5504 138.913 38.86 138.913H109.263C109.573 138.913 109.834 138.651 109.834 138.342V135.044C109.834 134.735 109.573 134.473 109.263 134.473H38.86Z" fill="#1E3A59"/>
<path d="M109.425 134.473H38.6929C38.3482 134.473 38.0175 134.337 37.7729 134.094L36.1529 132.485C35.1085 131.447 34.4556 130.045 34.3141 128.535L30.6844 89.7765C30.5929 88.8001 30.6761 87.8797 30.9313 87.0406C31.5477 85.0137 32.9795 83.6864 35.1873 83.0955C35.8566 82.916 36.5785 82.8286 37.3936 82.8286H110.724C111.539 82.8286 112.261 82.916 112.93 83.0955C115.138 83.6864 116.57 85.0137 117.186 87.0403C117.441 87.8797 117.524 88.8 117.433 89.7765L113.803 128.535C113.662 130.045 113.009 131.448 111.965 132.485L110.344 134.094C110.1 134.337 109.769 134.473 109.425 134.473ZM39.2312 131.862H108.886L110.124 130.632C110.736 130.025 111.119 129.194 111.204 128.291L114.833 89.533C114.893 88.8962 114.844 88.3131 114.688 87.8001C114.337 86.6472 113.587 85.974 112.255 85.6174C111.808 85.4977 111.307 85.4395 110.724 85.4395H37.3937C36.81 85.4395 36.3093 85.4977 35.8632 85.6174C34.5304 85.974 33.7801 86.6472 33.4296 87.8001C33.2736 88.3131 33.2247 88.8962 33.2844 89.533L36.9141 128.291C36.9985 129.194 37.3819 130.025 37.9932 130.633L39.2312 131.862Z" fill="#1E3A59"/>
<g opacity="0.2">
<path d="M116.133 89.6552L112.503 128.411C112.39 129.616 111.872 130.738 111.044 131.558L109.424 133.167H38.692L37.0719 131.558C36.2439 130.738 35.7257 129.616 35.6125 128.411L31.9822 89.6552C31.9137 88.9021 31.9614 88.1361 32.1787 87.4183C32.694 85.7229 33.8912 84.7935 35.5232 84.3545C35.5976 84.3353 35.6691 84.3161 35.7436 84.3L37.1106 84.502C35.0139 84.8994 34.5523 87.8863 34.6298 90.1777C34.8502 96.7636 35.4309 103.34 36.372 109.852C36.9379 113.772 37.7122 117.855 40.065 120.905C43.4511 125.299 49.1752 126.459 54.4138 127.338C65.1709 129.142 76.5684 130.869 86.6257 126.392C91.9685 124.011 96.555 120.015 100.695 115.672C108.057 107.958 114.481 98.2827 115.958 87.4985C116.157 88.1939 116.199 88.9309 116.133 89.6552Z" fill="#1E3A59"/>
</g>
<circle cx="73.7638" cy="111.225" r="9.38101" fill="url(#paint1_linear_785_9566)" stroke="white" stroke-width="2"/>
<path d="M76.5644 106.988H70.9638C70.5701 106.988 70.3308 107.422 70.5411 107.755L72.6417 111.081C72.7475 111.248 72.7445 111.462 72.634 111.627L70.58 114.683C70.3568 115.016 70.5948 115.462 70.995 115.462H76.5333C76.9335 115.462 77.1715 115.016 76.9483 114.683L74.8943 111.627C74.7838 111.462 74.7808 111.248 74.8866 111.081L76.9872 107.755C77.1975 107.422 76.9582 106.988 76.5644 106.988Z" stroke="white" stroke-width="1.5"/>
<defs>
<linearGradient id="paint0_linear_785_9566" x1="68.4104" y1="48.6231" x2="68.1256" y2="114.547" gradientUnits="userSpaceOnUse">
<stop stop-color="white" stop-opacity="0"/>
<stop offset="0.932" stop-color="#CDEEFF"/>
</linearGradient>
<linearGradient id="paint1_linear_785_9566" x1="68.1408" y1="103.439" x2="80.2519" y2="119.011" gradientUnits="userSpaceOnUse">
<stop offset="0.394929" stop-color="#6ADDFF"/>
<stop offset="0.878969" stop-color="#06C6FF"/>
</linearGradient>
</defs>
</svg>
