<svg width="94" height="120" viewBox="0 0 94 120" fill="none" xmlns="http://www.w3.org/2000/svg">
<g opacity="0.25">
<path d="M46.8955 120C72.7952 120 93.7911 114.992 93.7911 108.814C93.7911 102.636 72.7952 97.6284 46.8955 97.6284C20.9958 97.6284 0 102.636 0 108.814C0 114.992 20.9958 120 46.8955 120Z" fill="#1E3A59"/>
</g>
<path d="M47.0117 57.2088L48.8672 62.1317L65.4786 106.217C65.4786 106.217 82.1555 104.201 85.8788 96.9271C87.2013 94.3432 87.0165 87.7942 85.9447 80.6325C84.5398 71.2222 81.601 60.7562 78.5407 56.8397C73.7894 50.7622 52.5757 55.4121 47.0117 57.2088Z" fill="white"/>
<g opacity="0.25">
<path d="M48.8672 62.1318L65.4786 106.218C65.4786 106.218 82.1555 104.201 85.8788 96.9272C87.2013 94.3433 87.0165 87.7943 85.9447 80.6326C83.5129 81.6905 79.094 82.6073 77.9539 78.2482C76.247 71.7094 73.1384 62.9211 69.7503 58.8604C66.3644 54.7973 57.8459 56.4802 57.8459 56.4802L48.8672 62.1318Z" fill="#1E3A59"/>
</g>
<path d="M65.4788 106.917C65.1307 106.917 64.8297 106.657 64.7867 106.302C64.7403 105.92 65.0131 105.572 65.3958 105.525C65.5588 105.506 81.7464 103.468 85.2572 96.6085C86.5838 94.0164 86.3614 86.4581 84.6907 77.3529C83.0144 68.2165 80.3842 60.3336 77.9902 57.2705C73.5617 51.6039 52.726 56.0968 47.226 57.8725C46.8589 57.9909 46.4656 57.7895 46.3472 57.4228C46.2287 57.0558 46.4301 56.6624 46.7969 56.544C51.0524 55.1699 73.7827 49.6196 79.0902 56.4107C84.6856 63.5703 89.6717 91.0472 86.5001 97.2445C82.652 104.763 66.2594 106.827 65.5634 106.911C65.5351 106.915 65.5068 106.917 65.4788 106.917Z" fill="#1E3A59"/>
<path d="M75.0992 79.4201C75.1525 80.7362 75.4621 82.7468 75.9121 84.8382C76.7466 88.7155 78.0624 92.8714 79.1157 93.4139C81.8641 94.8247 86.0439 94.3006 88.0335 91.6766C88.9411 90.4792 88.9753 87.4934 88.551 84.4018C88.0312 80.6172 86.8246 76.6737 85.6965 75.6632C84.2203 74.34 77.0049 76.9128 77.0049 76.9128C75.9942 77.5413 75.0585 78.3924 75.0992 79.4201Z" fill="white"/>
<g opacity="0.25">
<path d="M75.9121 84.8382C76.7466 88.7154 78.0624 92.8713 79.1157 93.4138C81.8642 94.8246 86.0439 94.3005 88.0335 91.6765C88.9411 90.4791 88.9754 87.4934 88.551 84.4018C88.3731 86.1406 87.7499 88.7721 85.6006 89.2376C81.0458 90.2234 79.7675 82.96 79.7675 82.96C79.7675 82.96 78.4734 89.7583 75.9121 84.8382Z" fill="#1E3A59"/>
</g>
<path d="M82.4678 94.8659C81.1452 94.8659 79.8548 94.5777 78.7962 94.0337C76.6691 92.9408 74.5384 82.8943 74.4025 79.4472C74.3581 78.321 75.1095 77.2691 76.6356 76.3206L76.6991 76.2812L76.7695 76.2561C78.554 75.6195 84.5053 73.658 86.1631 75.1434C88.3723 77.1232 90.9301 89.0134 88.5903 92.0982C87.1477 94 84.7598 94.8659 82.4678 94.8659ZM77.3101 77.5456C76.5899 78.0021 75.7694 78.6811 75.7974 79.3922C75.8679 81.1764 76.4552 84.4357 77.2257 87.3183C78.3249 91.4303 79.1926 92.6637 79.4344 92.7919C81.775 93.9945 85.6541 93.6591 87.478 91.2545C88.2416 90.2477 88.3298 87.1946 87.7026 83.4764C87.0471 79.5903 85.9401 76.8183 85.2314 76.1831C84.5378 75.561 80.592 76.383 77.3101 77.5456Z" fill="#1E3A59"/>
<path d="M79.2646 79.981C80.0772 82.9475 81.0447 92.947 85.2016 92.5546C85.7995 92.4862 86.4042 92.2044 86.9708 91.844C87.2962 91.6333 87.7319 91.7285 87.9398 92.0557C88.1594 92.3972 88.0357 92.8613 87.6759 93.0489C80.1602 96.8481 80.021 84.5182 79.2646 79.981Z" fill="#1E3A59"/>
<path d="M69.2217 60.2416C72.1757 58.2112 76.9416 55.8052 80.2723 58.3192C80.5775 58.5561 80.633 58.9954 80.3962 59.3006C80.1434 59.6313 79.6456 59.6631 79.3517 59.3691C76.8224 56.9331 71.9251 58.8224 69.2217 60.2416Z" fill="#1E3A59"/>
<path d="M7.8706 107.832C8.26948 109.491 7.74182 111.737 10.2522 112.406C14.6457 113.577 28.4894 108.085 50.8432 112.23C66.6026 115.152 49.8326 91.0012 49.8326 91.0012C49.8326 91.0012 41.0568 83.8047 27.7313 86.4333C22.804 87.4053 19.3348 89.9178 16.6576 91.9987C15.4968 87.5181 10.2502 81.3429 3.53248 87.7157C1.11495 94.2397 5.9205 99.7177 7.8706 107.832Z" fill="white"/>
<path d="M50.8428 112.23C28.4888 108.086 14.6459 113.577 10.2515 112.406C7.74097 111.737 8.27026 109.491 7.87146 107.832C7.52778 106.4 7.09405 105.051 6.62723 103.765C4.44936 97.753 1.54183 93.0885 3.53224 87.7163C10.2497 81.3426 15.4968 87.5178 16.6583 91.9986C19.3343 89.9181 22.8042 87.4057 27.7315 86.4335C29.3231 86.1192 30.8485 85.9465 32.3023 85.884C43.0263 85.4208 49.8319 91.0006 49.8319 91.0006C49.8319 91.0006 66.6026 115.152 50.8428 112.23Z" fill="white"/>
<g opacity="0.25">
<path d="M50.8428 112.23C28.4887 108.085 14.6459 113.577 10.2515 112.406C7.74094 111.737 8.27023 109.491 7.87143 107.832C7.52775 106.4 7.09402 105.051 6.6272 103.765C9.33255 105.217 17.2979 109.892 17.9338 101.381C17.9338 101.381 20.9443 108.043 27.3805 105.884C34.4103 103.526 32.306 92.5977 32.3023 85.884C43.0263 85.4208 49.8319 91.0006 49.8319 91.0006C49.8319 91.0006 66.6026 115.152 50.8428 112.23Z" fill="#1E3A59"/>
</g>
<path d="M11.8534 113.27C11.1637 113.27 10.5701 113.213 10.0723 113.081C7.68697 112.445 7.49532 110.537 7.35541 109.144C7.31386 108.73 7.27464 108.339 7.19175 107.995C6.54281 105.295 5.57983 102.912 4.64845 100.607C2.79038 96.0096 1.18574 92.039 2.8778 87.473C2.91492 87.3728 2.97443 87.2825 3.0519 87.2091C6.36653 84.0647 9.20082 84.0172 10.9951 84.5317C13.9238 85.3711 16.0627 88.2169 17.0238 90.8373C19.7543 88.7725 23.0562 86.6438 27.5961 85.7483C41.089 83.0862 49.9063 90.1589 50.275 90.4613C50.325 90.5022 50.369 90.5499 50.4058 90.6029C50.432 90.6406 53.048 94.4219 55.2324 98.7654C58.2545 104.775 59.0387 108.98 57.5631 111.264C56.4445 112.995 54.1405 113.551 50.7157 112.916C35.882 110.166 24.9988 111.666 17.7967 112.659C15.3499 112.997 13.3695 113.27 11.8534 113.27ZM4.13194 88.1102C2.72071 92.1107 4.21541 95.8096 5.94295 100.084C6.8934 102.436 7.87615 104.868 8.54925 107.668C8.65431 108.106 8.70025 108.562 8.7446 109.004C8.8947 110.499 9.04702 111.363 10.4318 111.732C11.7525 112.084 14.2078 111.745 17.6062 111.276C24.8972 110.271 35.9155 108.752 50.9703 111.543C53.7849 112.065 55.6086 111.716 56.3904 110.506C58.7985 106.779 52.1591 95.5994 49.3186 91.4851C48.4643 90.8296 40.0714 84.7102 27.8662 87.118C23.177 88.043 19.8428 90.4068 17.0858 92.5497C16.9003 92.6939 16.6549 92.7354 16.4324 92.6593C16.21 92.5836 16.0406 92.401 15.9817 92.1737C15.34 89.697 13.3855 86.6692 10.6105 85.8737C8.54621 85.2828 6.36735 86.0346 4.13194 88.1102Z" fill="#1E3A59"/>
<path d="M12.5251 112.219C10.3156 113.3 7.72804 111.281 6.59807 110.002C4.14445 107.226 -0.706715 94.2552 3.14616 88.2146C4.6571 85.8458 8.45449 85.5541 10.7375 89.0968C12.084 91.1862 12.762 94.3313 13.5698 98.0579C14.7631 103.563 15.7056 110.664 12.5251 112.219Z" fill="#AEAEB1"/>
<g opacity="0.25">
<path d="M4.21752 100.226C4.42643 103.507 7.25439 110.07 10.0678 110.499C13.7592 111.062 13.7242 105.124 11.8924 99.4799C10.9981 96.7242 4.04489 97.5156 4.21752 100.226Z" fill="#1E3A59"/>
</g>
<path d="M11.1902 113.222C9.12331 113.222 7.10429 111.629 6.07497 110.464C4.83583 109.062 2.9263 105.091 1.82827 100.495C0.915548 96.6739 0.301258 91.3768 2.55767 87.8392C3.39563 86.5255 4.84208 85.7391 6.42699 85.7354C6.43082 85.7354 6.43464 85.7354 6.43842 85.7354C8.32185 85.7354 10.1022 86.8222 11.3244 88.7188C12.7337 90.9055 13.4326 94.1291 14.2417 97.8618L14.2521 97.91C16.1304 106.575 15.6658 111.46 12.8318 112.846C12.2931 113.11 11.7398 113.222 11.1902 113.222ZM6.43829 87.1314C6.4355 87.1314 6.43299 87.1314 6.43016 87.1314C5.32328 87.134 4.31562 87.6793 3.73466 88.59C0.0960423 94.2947 4.84183 106.961 7.12114 109.54C8.09086 110.638 10.404 112.478 12.2185 111.592C13.6914 110.872 15.0031 107.965 12.8877 98.2059L12.8772 98.1576C12.0968 94.5578 11.423 91.4489 10.1508 89.475C9.19083 87.9852 7.83789 87.1314 6.43829 87.1314Z" fill="#1E3A59"/>
<path d="M31.5764 93.6306C30.189 81.8182 35.3366 69.7496 35.2221 60.2389C35.1325 52.7984 57.7973 49.9934 67.1995 61.9261C75.6938 72.7067 82.0083 94.0771 78.104 103.799C74.8356 111.937 67.5672 113.536 58.552 113.776C42.0317 114.216 37.3422 107.901 35.485 103.951" fill="white"/>
<path d="M78.1039 103.8C74.8362 111.938 67.5674 113.537 58.5526 113.776C42.032 114.215 37.3417 107.902 35.4854 103.95L31.5763 93.6307C31.3613 91.802 31.3024 89.9678 31.3576 88.1373C31.6572 78.143 35.3182 68.2773 35.2226 60.2384C35.1326 52.7987 57.7972 49.9941 67.1998 61.9256C71.7504 67.7002 75.6742 76.5146 77.7364 84.9504C79.5264 92.2597 79.916 99.2858 78.1039 103.8Z" fill="white"/>
<g opacity="0.25">
<path d="M78.1039 103.799C74.8362 111.938 67.5674 113.536 58.5526 113.775C42.032 114.215 37.3417 107.902 35.4854 103.95L31.5763 93.6305C31.3613 91.8018 31.3024 89.9676 31.3576 88.1371C40.1316 89.0781 67.5251 91.3956 77.7364 84.9502C79.5264 92.2594 79.916 99.2856 78.1039 103.799Z" fill="#1E3A59"/>
</g>
<path d="M30.8833 93.7122C30.0748 86.7279 31.4627 79.7701 32.8209 72.9814C33.6425 68.7624 34.5318 64.5942 34.5238 60.3276C34.5157 59.8211 34.5844 59.3056 34.7488 58.8262C36.1654 54.9959 41.6085 53.6782 45.226 53.2714C53.9178 52.3814 63.6673 55.2744 68.7265 62.7972C75.5706 72.1355 83.1372 93.2034 78.6236 104.36C76.7818 108.967 73.0001 112.043 68.2545 113.308C64.8452 114.264 61.324 114.502 57.8169 114.577C56.0707 114.608 54.318 114.57 52.5682 114.414C45.858 113.853 37.3465 111.283 35.485 103.951C36.5396 105.36 37.6176 106.644 38.8683 107.728C41.0294 109.671 43.6939 110.984 46.4932 111.751C51.8067 113.176 57.4373 113.196 62.8923 112.749C67.7851 112.337 73.0177 110.799 75.8611 106.525C78.8321 102.353 78.8657 96.9707 78.325 92.0543C77.0064 81.9708 73.3895 71.9889 67.5937 63.6127C62.8228 56.503 53.5899 53.8282 45.374 54.6597C42.3175 54.9773 36.6171 56.2863 35.951 59.7775C35.9156 67.8064 33.341 75.504 32.4314 83.3933C32.0144 86.7797 31.8858 90.1958 32.2704 93.5534C32.3528 94.4632 31.0191 94.6337 30.8833 93.7122Z" fill="#1E3A59"/>
<path d="M17.9343 100.008C17.9343 100.008 17.2959 94.6219 16.6575 91.9985Z" fill="white"/>
<path d="M17.9344 100.008C17.3648 97.3789 16.8007 94.7206 15.9793 92.1638C15.7098 91.2784 16.9831 90.8462 17.3069 91.7152C17.737 94.4643 17.8072 97.2381 17.9344 100.008Z" fill="#1E3A59"/>
<path d="M27.3063 111.42C27.2282 111.42 27.1489 111.402 27.0742 111.365C26.8152 111.236 26.7093 110.922 26.8375 110.664C26.8546 110.629 28.2703 107.719 28.6366 103.442C28.9733 99.5098 28.4648 93.5754 24.1297 87.6344C23.9593 87.4009 24.0105 87.0734 24.2441 86.9029C24.4773 86.7324 24.805 86.7837 24.9756 87.0173C29.5134 93.236 30.0363 99.4544 29.676 103.576C29.2855 108.042 27.8372 111.004 27.7757 111.128C27.6843 111.313 27.499 111.42 27.3063 111.42Z" fill="#1E3A59"/>
<path d="M42.264 93.4923C42.264 93.4923 30.6575 104.766 24.5771 102.605C20.6473 101.209 18.6348 96.7753 18.8583 92.9222C19.0994 88.767 23.8136 85.8273 27.3802 90.2803L36.1526 86.7234" fill="#CB9179"/>
<path d="M42.2634 93.4928C42.2634 93.4928 33.8772 101.638 27.6284 102.754C26.5257 102.95 25.4891 102.928 24.5775 102.605C22.2875 101.791 20.6481 99.9455 19.7237 97.786C19.0602 96.2385 18.7643 94.5312 18.858 92.923C19.0988 88.7676 23.8129 85.827 27.3802 90.2802L36.1524 86.7239L42.2634 93.4928Z" fill="#CB9179"/>
<path d="M42.263 93.4925C42.263 93.4925 33.8768 101.638 27.6281 102.754C26.5254 102.95 25.4888 102.928 24.5772 102.605C22.4067 101.833 20.8188 100.133 19.8723 98.1185C19.8723 98.1185 19.8723 98.1166 19.8723 98.1147C19.8208 98.0063 19.7712 97.8961 19.7234 97.7858C19.0599 96.2383 18.764 94.5309 18.8578 92.9227C19.0985 88.7673 23.8127 85.8267 27.38 90.2799L29.6148 89.3738L36.1522 86.7236L42.263 93.4925Z" fill="#D26A2C"/>
<g opacity="0.2">
<path d="M42.263 93.4923C42.263 93.4923 33.8768 101.638 27.6281 102.753C26.5253 102.95 25.4888 102.928 24.5772 102.604C22.4067 101.833 20.8188 100.133 19.8723 98.1182C19.8723 98.1182 19.8723 98.1164 19.8723 98.1145C19.3154 95.3008 18.9625 90.4947 23.5223 91.9981C26.3618 92.9354 25.656 97.236 26.9003 98.1789C27.5233 98.6512 28.7988 97.9344 28.6903 94.5344C30.2305 95.1151 34.1966 97.2029 34.3822 95.1611C34.5274 93.5529 30.8719 91.4173 29.6148 89.3736L36.1521 86.7234L42.263 93.4923Z" fill="#2A1A5E"/>
</g>
<path d="M27.628 102.754C26.5253 102.95 25.4887 102.928 24.5772 102.605C24.3621 102.527 24.1526 102.443 23.9486 102.349C23.8806 102.316 23.8145 102.285 23.7483 102.252C23.6656 102.211 23.5847 102.169 23.5039 102.123C23.4543 102.097 23.4065 102.07 23.3587 102.042C23.2815 101.998 23.2062 101.954 23.1327 101.906C23.0867 101.879 23.0408 101.849 22.9948 101.82C22.9286 101.776 22.8643 101.733 22.8018 101.689C22.6842 101.607 22.5684 101.522 22.4563 101.434C22.3957 101.388 22.3369 101.34 22.2799 101.292C22.2302 101.25 22.1806 101.208 22.131 101.166C21.6807 100.774 21.2746 100.333 20.9143 99.8552C20.8757 99.8037 20.8371 99.7504 20.7985 99.6971C20.7544 99.6383 20.7121 99.5777 20.6717 99.517C20.6312 99.4582 20.589 99.3976 20.5504 99.3351C20.3905 99.0906 20.2417 98.8389 20.1038 98.5797C20.0689 98.5154 20.0358 98.4492 20.0027 98.3849C19.9697 98.3187 19.9366 98.2526 19.9053 98.1864C19.8943 98.1625 19.8815 98.1386 19.8722 98.1147C19.3154 95.301 18.9625 90.4949 23.5223 91.9983C25.6119 92.6875 25.781 95.1998 26.2221 96.854C26.3415 98.7102 26.2808 100.377 27.628 102.754Z" fill="#E1C0B9"/>
<path d="M27.6286 102.754C26.5259 102.951 25.4893 102.928 24.5777 102.605C22.2877 101.791 20.6484 99.9456 19.7239 97.7861C19.4225 96.4481 19.2699 94.8253 19.6118 93.1712C20.3487 89.6094 25.0556 91.1159 25.874 94.4247C26.6261 97.4658 25.7316 99.4044 27.6286 102.754Z" fill="#FFCCAA"/>
<g opacity="0.2">
<path d="M27.628 102.754C26.5253 102.95 25.4887 102.928 24.5772 102.605C24.3621 102.527 24.1526 102.443 23.9486 102.349C23.8806 102.316 23.8145 102.285 23.7483 102.252C23.6656 102.211 23.5847 102.169 23.5039 102.123C23.4543 102.097 23.4065 102.07 23.3587 102.042C23.2815 101.998 23.2062 101.954 23.1327 101.906C23.0867 101.879 23.0408 101.849 22.9948 101.82C22.9286 101.776 22.8643 101.733 22.8018 101.689C22.6842 101.607 22.5684 101.522 22.4563 101.434C22.3957 101.388 22.3369 101.34 22.2799 101.292C22.2302 101.25 22.1806 101.208 22.131 101.166C21.6807 100.774 21.2746 100.333 20.9143 99.8552C20.8757 99.8037 20.8371 99.7504 20.7985 99.6971C20.7544 99.6383 20.7121 99.5777 20.6717 99.517C20.6312 99.4582 20.589 99.3976 20.5504 99.3351C20.3905 99.0906 20.2417 98.8389 20.1038 98.5797C20.0689 98.5154 20.0358 98.4492 20.0027 98.3849C19.9697 98.3187 19.9366 98.2526 19.9053 98.1864C19.8943 98.1625 19.8815 98.1386 19.8722 98.1147C19.3154 95.301 18.9625 90.4949 23.5223 91.9983C25.6119 92.6875 25.781 95.1998 26.2221 96.854C26.3415 98.7102 26.2808 100.377 27.628 102.754Z" fill="#16044E"/>
</g>
<path d="M26.255 103.572C25.5822 103.572 24.9407 103.475 24.3432 103.263C19.9794 101.712 17.9302 96.8667 18.1614 92.8818C18.3055 90.398 19.852 88.2669 22.0097 87.5789C23.9481 86.9608 25.9571 87.6398 27.5851 89.4439L35.8902 86.0764C36.2473 85.9317 36.6544 86.1038 36.7994 86.461C36.9443 86.8184 36.772 87.2253 36.4148 87.3703L27.6424 90.9272C27.3561 91.0431 27.0282 90.9576 26.8352 90.7167C25.5141 89.0672 23.9511 88.4251 22.4339 88.9089C20.8481 89.4147 19.6642 91.0815 19.5551 92.9627C19.354 96.428 21.0948 100.627 24.8108 101.948C29.4629 103.601 38.6358 96.0434 41.7776 92.9916C42.0543 92.7227 42.496 92.7295 42.7647 93.0059C43.0333 93.2825 43.0269 93.7243 42.7503 93.993C42.309 94.4216 32.806 103.572 26.255 103.572Z" fill="#1E3A59"/>
<path d="M43.9788 66.4673C41.9429 69.7456 30.6222 77.7035 34.0587 88.3808C36.875 97.131 51.4225 100.655 57.8602 91.4574C63.067 84.0181 58.9521 72.7972 56.6058 66.497" fill="#E37A33"/>
<g opacity="0.2">
<path d="M43.9788 66.4673C41.9429 69.7456 30.6222 77.7035 34.0587 88.3808C36.875 97.131 51.4225 100.655 57.8602 91.4574C63.067 84.0181 58.9521 72.7972 56.6058 66.497" fill="#16044E"/>
</g>
<path d="M44.9371 67.1445C44.9371 67.1445 34.6865 78.1054 36.5645 86.5896C38.6539 96.0287 47.574 94.1884 50.3408 90.4586C53.1076 86.7289 52.7896 75.2813 55.9869 69.9752C57.2293 67.9133 44.9371 67.1445 44.9371 67.1445Z" fill="#FFCCAA"/>
<g opacity="0.2">
<path d="M44.9371 67.1445C44.9371 67.1445 34.6865 78.1054 36.5645 86.5896C38.6539 96.0287 47.574 94.1884 50.3408 90.4586C53.1076 86.7289 52.7896 75.2813 55.9869 69.9752C57.2293 67.9133 44.9371 67.1445 44.9371 67.1445Z" fill="#16044E"/>
</g>
<path d="M47.1982 97.5722C46.4162 97.5722 45.6208 97.5126 44.8155 97.3912C39.331 96.5643 34.8478 93.1115 33.394 88.5946C30.5835 79.8625 37.1356 72.934 41.0503 68.7943C42.0841 67.7011 42.977 66.757 43.3856 66.099C43.589 65.7715 44.0194 65.6707 44.3469 65.8742C44.6744 66.0776 44.775 66.508 44.5717 66.8355C44.0885 67.6135 43.1954 68.5579 42.0647 69.7536C38.3623 73.6687 32.1656 80.2213 34.723 88.1669C36.0157 92.1834 40.0589 95.2622 45.0236 96.0108C50.0073 96.7615 54.5914 94.9101 57.2881 91.057C62.3263 83.8587 58.1794 72.723 55.9515 66.7405C55.8169 66.3792 56.0008 65.9773 56.362 65.8428C56.7237 65.7085 57.1252 65.8921 57.2598 66.2533C59.5771 72.4759 63.8905 84.0586 58.4318 91.8576C55.8633 95.5275 51.7746 97.572 47.1982 97.5722Z" fill="#1E3A59"/>
<path d="M36.6062 73.6289C38.1209 75.8211 47.9686 75.6206 47.9686 75.6206C47.9686 75.6206 58.8036 83.2384 47.673 88.5146C37.9231 93.1363 27.1064 89.7264 25.9241 82.8761C24.2984 73.4569 33.4973 68.0486 33.4973 68.0486L37.2219 67.1445" fill="white"/>
<path d="M52.5505 83.2438C52.1994 84.9071 50.8137 86.6163 47.6176 88.1307C37.8677 92.7529 27.0518 89.3437 25.8701 82.4921C24.2436 73.073 33.4421 67.666 33.4421 67.666L37.1675 66.7617L36.5518 73.2457C36.6528 73.3927 36.7907 73.5287 36.9616 73.6537C39.3362 75.4126 47.9135 75.238 47.9135 75.238C47.9135 75.238 53.4198 79.1085 52.5505 83.2438Z" fill="white"/>
<g opacity="0.25">
<path d="M52.5505 83.2438C52.1994 84.9071 50.8137 86.6163 47.6176 88.1307C37.8677 92.7529 27.0518 89.3437 25.8701 82.4921C24.2436 73.073 33.4421 67.666 33.4421 67.666L37.1675 66.7617L36.5518 73.2457C36.6528 73.3927 36.7907 73.5287 36.9616 73.6537C34.3776 74.8925 30.3526 77.5776 30.8029 82.1667C31.459 88.8731 39.7625 86.0502 39.7625 86.0502C39.7625 86.0502 38.1195 78.7869 44.2929 78.8788C46.6288 78.9137 50.0289 81.2295 52.5505 83.2438Z" fill="#1E3A59"/>
</g>
<path d="M38.3498 90.9629C35.4928 90.963 32.761 90.3621 30.4327 89.1541C27.513 87.6392 25.648 85.3158 25.1813 82.6116C24.4809 78.553 25.6315 74.573 28.5087 71.1015C30.6587 68.5077 32.9903 67.1214 33.0886 67.0637L33.1775 67.0114L37.0024 66.0831C37.3761 65.9923 37.7545 66.2219 37.8454 66.5967C37.9364 66.9714 37.7065 67.3488 37.3317 67.4397L33.7145 68.3177C32.8284 68.8768 25.1145 74.0156 26.557 82.3742C26.9478 84.6381 28.5525 86.6058 31.0756 87.9149C35.5334 90.2278 41.9093 90.065 47.319 87.5006C50.2229 86.1241 51.7748 84.4951 51.9313 82.6588C52.1957 79.559 48.5442 76.5896 47.689 75.9394C45.5398 75.9701 37.5553 75.927 35.9771 73.6424C35.7579 73.3252 35.8374 72.8905 36.1546 72.6714C36.4714 72.452 36.9064 72.5315 37.1256 72.8489C38.0226 74.147 43.9656 74.6188 47.8996 74.5396L48.1282 74.5349L48.3153 74.6664C48.5348 74.8207 53.6875 78.4958 53.3224 82.7774C53.1206 85.1441 51.3019 87.1577 47.9171 88.7622C44.8282 90.2264 41.5124 90.9628 38.3498 90.9629Z" fill="#1E3A59"/>
<path d="M29.4449 88.2706C29.2975 88.2706 29.151 88.2085 29.0475 88.088C27.6444 86.453 26.565 81.8966 27.9943 78.1901C28.8006 76.0994 30.7274 73.4855 35.328 72.9053C35.6155 72.8692 35.8769 73.0724 35.9129 73.3591C35.9491 73.646 35.7459 73.9079 35.4591 73.944C32.1774 74.3579 29.9946 75.9133 28.9713 78.5668C27.7005 81.8624 28.6382 86.0033 29.842 87.406C30.0303 87.6254 30.0051 87.956 29.7857 88.1442C29.6869 88.229 29.5656 88.2706 29.4449 88.2706Z" fill="#1E3A59"/>
<path d="M70.6609 60.2778C69.7438 65.8172 66.5734 74.242 57.623 74.9257C57.6101 74.9091 57.6046 74.9018 57.6046 74.9018L55.1309 69.4635L51.3816 54.8506C60.819 54.891 66.8031 57.2821 70.6609 60.2778Z" fill="#E7E7E7"/>
<path d="M51.3809 54.8501C73.1881 54.9419 76.545 67.5879 77.8908 71.2326C78.8167 73.7398 80.2356 79.6376 77.3365 82.2134C68.5899 89.9845 57.6045 74.9017 57.6045 74.9017L57.5946 68.7307" fill="white"/>
<path d="M71.7951 85.1364C71.4659 85.1364 71.1326 85.1182 70.7956 85.0819C63.6711 84.3135 57.3076 75.6799 57.0402 75.3128C56.9534 75.1937 56.9066 75.0502 56.9063 74.9029L56.8964 68.7319C56.8957 68.3464 57.2078 68.0334 57.5933 68.0327C57.5937 68.0327 57.5942 68.0327 57.5944 68.0327C57.9795 68.0327 58.2918 68.3446 58.2925 68.7297L58.3021 74.6676C59.2406 75.8916 64.9675 83.0509 70.9478 83.6942C73.1216 83.9279 75.1141 83.254 76.8727 81.6916C79.3311 79.5075 78.2577 74.2415 77.2359 71.4745C77.1693 71.2943 77.0979 71.0924 77.0197 70.8714C75.5461 66.7038 71.6314 55.6334 51.3778 55.5483C50.9923 55.5466 50.681 55.2328 50.6826 54.8473C50.6843 54.4628 50.9965 54.1521 51.3806 54.1521C51.3816 54.1521 51.3826 54.1521 51.3836 54.1521C60.4328 54.1902 67.4402 56.3807 72.211 60.6629C76.1367 64.1864 77.5674 68.2322 78.3359 70.4059C78.4117 70.6203 78.481 70.816 78.5455 70.9908C78.8608 71.8449 81.5194 79.4306 77.7999 82.7354C76.0037 84.3312 73.9877 85.1364 71.7951 85.1364Z" fill="#1E3A59"/>
<path d="M11.9351 53.8625C15.0524 58.7186 19.4168 62.8172 24.7769 65.6472C25.8702 66.2237 27.001 66.748 28.1716 67.2143C28.7404 67.4428 29.3228 67.6558 29.9133 67.8595C31.6962 68.4639 33.4945 68.9163 35.2971 69.2234C36.8501 69.4919 38.4069 69.6498 39.9535 69.7072C41.8212 69.7773 43.678 69.6946 45.5071 69.472C46.1739 69.3886 46.8365 69.288 47.495 69.1704C59.5428 66.9922 70.1233 58.6357 74.4569 46.3957C80.8445 28.3662 71.2549 8.74522 53.0436 2.56852C49.5353 1.38138 45.96 0.773502 42.4325 0.707043C42.0203 0.69537 41.606 0.695577 41.1924 0.704331C40.0859 0.720319 38.9861 0.788012 37.8958 0.907039C35.3743 1.18319 32.9017 1.73098 30.5234 2.5266C28.1448 3.31939 25.8548 4.36338 23.7017 5.63454C23.0168 6.03831 22.3453 6.46427 21.6874 6.91527C20.7019 7.59157 19.7492 8.3147 18.8327 9.0931C14.2601 12.9549 10.6265 18.0256 8.50005 24.0324C4.82513 34.4035 6.43832 45.2993 11.9351 53.8625Z" fill="white"/>
<path d="M41.2431 69.8015C40.811 69.8015 40.38 69.7934 39.9509 69.7773C38.3784 69.7191 36.8086 69.556 35.2851 69.2927C33.4669 68.9829 31.652 68.523 29.8907 67.926C29.2435 67.7028 28.6727 67.4913 28.1453 67.2794C26.9966 66.8218 25.8522 66.2937 24.7441 65.7093C19.5115 62.9466 15.0617 58.8632 11.8759 53.9004C6.12935 44.9482 4.87467 34.0531 8.43373 24.0089C10.4905 18.1991 14.0707 13.0227 18.7873 9.03943C19.6795 8.28162 20.642 7.54744 21.6476 6.85736C22.2937 6.41447 22.9727 5.98267 23.6658 5.57409C25.8233 4.30034 28.1231 3.25257 30.5011 2.45994C32.9007 1.65721 35.3861 1.11123 37.888 0.837217C38.976 0.718395 40.0874 0.650087 41.1913 0.63414C41.6324 0.624728 42.0392 0.62559 42.4344 0.636852C46.0316 0.704585 49.6088 1.33215 53.066 2.50203C61.9273 5.5075 69.0352 11.7553 73.0807 20.0945C77.094 28.3677 77.6061 37.7166 74.523 46.4192C70.3381 58.2391 59.9863 66.9834 47.5074 69.2396C46.8486 69.3572 46.1785 69.4589 45.5157 69.5418C44.0952 69.7145 42.6632 69.8015 41.2431 69.8015ZM11.9941 53.8245C15.1669 58.7669 19.5984 62.8336 24.8097 65.585C25.9133 66.167 27.0532 66.6932 28.1975 67.1489C28.7229 67.3601 29.2916 67.5707 29.9362 67.793C31.69 68.3875 33.4978 68.8455 35.3089 69.1542C36.8264 69.4165 38.39 69.5788 39.9561 69.6368C41.7884 69.7055 43.6534 69.6266 45.4986 69.4022C46.1588 69.3197 46.8264 69.2184 47.4826 69.1012C59.912 66.8539 70.2225 58.1446 74.3907 46.3721C77.4612 37.7053 76.9511 28.3948 72.9544 20.1558C68.9255 11.8507 61.8464 5.6283 53.0211 2.63495C49.5776 1.46975 46.0147 0.844616 42.4312 0.777212C42.0375 0.766073 41.6331 0.765168 41.1939 0.774497C40.094 0.790362 38.987 0.858383 37.9034 0.976794C35.4114 1.24974 32.9359 1.7935 30.5456 2.59311C28.1769 3.38261 25.8863 4.42627 23.7374 5.695C23.0469 6.10198 22.3705 6.53205 21.7271 6.97306C20.7255 7.66043 19.7669 8.39173 18.8782 9.14658C14.1805 13.1139 10.6147 18.2694 8.56628 24.0557C5.02182 34.0588 6.27127 44.909 11.9941 53.8245Z" fill="#1E3A59"/>
<g opacity="0.25">
<path d="M74.4565 46.395C70.1242 58.6361 59.542 66.9935 47.4941 69.1698C46.8357 69.2883 46.1735 69.3889 45.5076 69.4716C43.6781 69.6951 41.8215 69.7764 39.9541 69.7076C38.4073 69.6491 36.8498 69.4922 35.298 69.224C33.4943 68.9175 31.6968 68.4649 29.9125 67.8605C29.3232 67.6548 28.741 67.4432 28.1711 67.2157C27.0003 66.7488 25.8706 66.2224 24.7768 65.6467C19.4167 62.8167 15.0515 58.7196 11.9343 53.8617C10.2213 51.1943 8.88476 48.2982 7.96851 45.2632C11.0508 49.8299 15.2586 53.6825 20.3721 56.3827C21.4649 56.9614 22.5957 57.4847 23.7665 57.9517C24.3343 58.1801 24.9165 58.3918 25.5079 58.5965C27.2921 59.2009 29.0896 59.6534 30.8913 59.961C32.4451 60.2281 34.0005 60.386 35.5474 60.4445C37.4148 60.5132 39.2734 60.431 41.1009 60.2086C41.7688 60.1248 42.4309 60.0243 43.0894 59.9058C55.1374 57.7294 65.7175 49.373 70.0518 37.1309C72.5823 29.9901 72.6033 22.6002 70.5779 15.896C76.4305 24.5566 78.2276 35.7536 74.4565 46.395Z" fill="#1E3A59"/>
</g>
<path d="M41.2428 70.2726C40.8048 70.2726 40.3683 70.2644 39.9332 70.2481C38.34 70.1891 36.7491 70.0238 35.2049 69.7569C33.3634 69.4431 31.5242 68.9771 29.7395 68.3722C29.0825 68.1456 28.5045 67.9314 27.9696 67.7165C26.8069 67.2535 25.6472 66.7181 24.5245 66.126C19.2199 63.3254 14.7092 59.1858 11.4796 54.155C5.6539 45.0794 4.38185 34.0342 7.98989 23.8518C10.0744 17.9635 13.7031 12.7171 18.4835 8.6799C19.387 7.91259 20.3622 7.16843 21.3811 6.46935C22.0362 6.02021 22.7244 5.58273 23.4268 5.1686C25.6125 3.87821 27.9426 2.81655 30.3522 2.0134C32.7831 1.20023 35.3015 0.647021 37.8367 0.369264C38.9395 0.24884 40.0659 0.179626 41.1845 0.163473C41.6303 0.154061 42.0445 0.154759 42.4478 0.166391C46.0889 0.234905 49.7138 0.870811 53.2169 2.05615C62.1988 5.10255 69.4035 11.4357 73.5043 19.8892C77.573 28.2765 78.0924 37.7543 74.9668 46.5766C70.7257 58.5553 60.236 67.4169 47.5911 69.7031C46.9233 69.8223 46.2451 69.9252 45.5741 70.0091C44.1337 70.1845 42.682 70.2726 41.2428 70.2726ZM12.3904 53.5704C15.5193 58.4446 19.8899 62.4552 25.0296 65.1688C26.1183 65.743 27.2428 66.2622 28.3717 66.7117C28.8912 66.9204 29.4526 67.1284 30.0896 67.3481C31.8178 67.9339 33.6012 68.3858 35.3879 68.6902C36.8858 68.9491 38.4282 69.1094 39.9735 69.1666C41.7814 69.2347 43.6212 69.1567 45.4417 68.9351C46.0922 68.8537 46.7517 68.7537 47.3998 68.6379C59.6623 66.4209 69.835 57.829 73.9468 46.2152C76.975 37.668 76.472 28.4864 72.5307 20.3616C68.5573 12.1706 61.5748 6.03364 52.8698 3.08115C49.4724 1.93153 45.9572 1.31482 42.4222 1.24828C42.032 1.23714 41.6352 1.23632 41.2039 1.24548C40.1154 1.26122 39.0234 1.32838 37.9545 1.44515C35.4959 1.71436 33.0534 2.25088 30.695 3.03989C28.3573 3.81907 26.0971 4.84876 23.9768 6.10076C23.2952 6.50244 22.628 6.92668 21.9933 7.36177C21.0051 8.03988 20.0595 8.76123 19.183 9.50569C14.548 13.4201 11.0307 18.5055 9.01005 24.2131C5.51474 34.0775 6.74755 44.7787 12.3904 53.5704Z" fill="#1E3A59"/>
<path d="M41.2428 70.4294C40.8029 70.4294 40.3643 70.4211 39.9273 70.4048C38.3272 70.3455 36.7293 70.1795 35.1782 69.9114C33.329 69.5963 31.4816 69.1283 29.6892 68.5207C29.0289 68.293 28.4485 68.0778 27.9113 67.862C26.7438 67.3971 25.579 66.8594 24.4513 66.2647C19.1229 63.4515 14.5918 59.2933 11.3476 54.2396C5.49544 45.1229 4.21766 34.0278 7.84207 23.7993C9.9358 17.8848 13.5807 12.615 18.3823 8.55988C19.2896 7.78933 20.2691 7.042 21.2924 6.3398C21.9505 5.88864 22.6418 5.44915 23.3472 5.03333C25.5424 3.73731 27.8827 2.67105 30.3026 1.86441C32.744 1.0477 35.2734 0.492107 37.8198 0.213281C38.9275 0.0922814 40.0588 0.0227376 41.1824 0.00646184C41.6296 -0.00295016 42.0468 -0.00216741 42.4523 0.00938182C46.108 0.0782251 49.749 0.716801 53.2674 1.90736C62.2894 4.96741 69.5264 11.3291 73.6456 19.8207C77.7328 28.246 78.2546 37.7667 75.1148 46.6289C70.855 58.6606 60.3193 67.5612 47.6192 69.8575C46.9484 69.9773 46.2673 70.0805 45.5937 70.1648C44.1464 70.3409 42.6884 70.4294 41.2428 70.4294ZM12.5225 53.4855C15.6369 58.337 19.9871 62.329 25.1029 65.0299C26.1867 65.6015 27.3061 66.1182 28.4298 66.5658C28.9473 66.7737 29.5063 66.9808 30.1409 67.1997C31.8604 67.7825 33.6358 68.2324 35.4144 68.5354C36.9058 68.7932 38.4411 68.9526 39.9794 69.0096C41.7788 69.0772 43.6105 68.9997 45.4228 68.7791C46.0701 68.6983 46.7267 68.5986 47.3722 68.4833C59.5791 66.2763 69.7058 57.7235 73.7988 46.1628C76.8129 37.6554 76.3123 28.5167 72.3895 20.4299C68.4345 12.2771 61.4844 6.16861 52.8194 3.22964C49.4375 2.08524 45.9382 1.47132 42.4193 1.40499C42.0301 1.39385 41.6355 1.39315 41.2074 1.40227C40.1226 1.41793 39.0355 1.48476 37.9715 1.60104C35.5242 1.86905 33.0927 2.40319 30.7448 3.18854C28.4175 3.96431 26.1674 4.9894 24.0566 6.23565C23.378 6.63572 22.7138 7.05794 22.0821 7.49102C21.0984 8.16601 20.1571 8.88416 19.2846 9.62512C14.6705 13.5219 11.1694 18.5839 9.1581 24.2653C5.67907 34.0837 6.90605 44.7349 12.5225 53.4855Z" fill="#1E3A59"/>
<path d="M17.6453 60.6332C39.0243 73.2329 66.1372 61.1641 65.964 36.7399C65.8462 20.1232 49.2763 7.52562 33.1188 8.77491C21.3592 9.68414 10.244 15.6486 6.55157 34.0454C6.55157 34.0454 6.18898 42.4296 8.84666 47.8004C11.5043 53.1711 15.0105 57.945 15.0105 57.945L17.6453 60.6332Z" fill="#0056A8"/>
<g opacity="0.35">
<path d="M65.9631 36.7402C66.1368 61.1637 39.0232 73.2322 17.6452 60.6341L17.1116 60.0886C39.8571 62.4105 61.361 47.4969 61.6511 22.7959C64.3248 26.8671 65.9259 31.6123 65.9631 36.7402Z" fill="#111A28"/>
</g>
<path d="M35.7773 69.9246C35.6138 69.9246 35.452 69.9236 35.2883 69.9215L35.1798 69.9116C33.3289 69.5963 31.4816 69.1283 29.6892 68.5206C29.0289 68.2929 28.4485 68.0778 27.9113 67.862C26.7438 67.397 25.579 66.8593 24.4513 66.2646C19.1229 63.4514 14.5918 59.2933 11.3476 54.2396C5.49544 45.1229 4.21766 34.0278 7.84207 23.7993C9.9358 17.8848 13.5807 12.615 18.3823 8.55982L18.4371 8.51358L18.5001 8.47947C22.5333 6.29379 27.3007 4.97508 32.6698 4.55997C42.3289 3.8133 52.516 7.42956 59.9189 14.2338C66.58 20.3563 70.2809 28.3296 70.3397 36.6849C70.4033 45.7858 67.1962 53.8188 61.065 59.9154C54.653 66.2913 45.4589 69.9246 35.7773 69.9246ZM35.3606 68.5261C44.8268 68.6345 53.8364 65.1344 60.0807 58.9254C65.9398 53.0992 69.0046 45.4119 68.9438 36.6946C68.8876 28.7309 65.3471 21.1192 58.9742 15.2617C51.8512 8.71465 42.0584 5.23434 32.7774 5.95188C27.6331 6.34952 23.075 7.6014 19.2283 9.67278C14.6428 13.562 11.1613 18.6064 9.15806 24.2653C5.67907 34.0836 6.90609 44.7348 12.5225 53.4854C15.6369 58.3369 19.9871 62.3289 25.1029 65.0299C26.1867 65.6014 27.3061 66.1182 28.4298 66.5657C28.9473 66.7736 29.5063 66.9807 30.1409 67.1997C31.8431 67.7766 33.6001 68.2233 35.3606 68.5261Z" fill="#1E3A59"/>
<path d="M35.8918 66.3093C29.5778 66.3093 23.1417 64.5883 17.3321 61.1643L17.2618 61.1229L14.5133 58.3099C14.4779 58.2617 10.9447 53.4308 8.29387 48.0737C5.59706 42.6237 5.92036 34.3676 5.93552 34.0187L5.94695 33.9241C9.14859 17.9725 18.2745 9.30425 33.071 8.16022C41.665 7.49567 50.7249 10.7126 57.3101 16.7649C63.2353 22.2109 66.5276 29.3032 66.5802 36.7355C66.6567 47.5175 61.4443 56.7295 52.2796 62.0093C47.296 64.8805 41.6445 66.3093 35.8918 66.3093ZM18.0281 60.1432C28.7353 66.4217 41.617 66.7295 51.6642 60.941C60.4332 55.8891 65.4205 47.0697 65.3472 36.7444C65.297 29.6577 62.1464 22.8847 56.4757 17.6728C50.1379 11.8477 41.4237 8.7503 33.1662 9.3897C19.0015 10.4849 10.2541 18.8039 7.16574 34.118C7.14326 34.7891 6.94339 42.5645 9.39906 47.5269C11.8837 52.5481 15.1618 57.1046 15.4819 57.5456L18.0281 60.1432Z" fill="#1E3A59"/>
<path d="M81.3252 34.0993C82.2025 40.8442 78.9015 47.0391 73.9503 47.9351C68.9992 48.8312 64.2744 44.0892 63.397 37.3443C63.3907 37.3021 63.3861 37.2571 63.3821 37.2144C62.5619 30.52 65.8554 24.3977 70.7719 23.5084C74.5967 22.816 78.2863 25.4887 80.172 29.8491C80.7265 31.1331 81.1255 32.5655 81.3252 34.0993Z" fill="white"/>
<g opacity="0.25">
<path d="M81.3249 34.0993C82.2023 40.8442 78.9013 47.0391 73.9501 47.9352C68.999 48.8312 64.2742 44.0892 63.3968 37.3443C63.3905 37.3022 63.3859 37.2571 63.3818 37.2144C64.0162 37.808 64.952 38.3364 66.07 37.8989C68.0278 37.1318 71.0713 32.1417 71.0713 32.1417C71.0713 32.1417 75.0113 31.1218 80.1717 29.8491C80.7262 31.1331 81.1253 32.5655 81.3249 34.0993Z" fill="#1E3A59"/>
</g>
<path d="M72.7323 48.7425C71.0589 48.7425 69.4112 48.1769 67.9022 47.0738C65.1328 45.0496 63.2384 41.5358 62.7047 37.4334C61.7815 30.3359 65.3451 23.7809 70.6485 22.8214C72.7751 22.4362 74.9097 22.9715 76.8211 24.3687C79.5904 26.3931 81.4848 29.9068 82.0184 34.0091C82.9416 41.1067 79.378 47.6616 74.0745 48.6212C73.6268 48.7023 73.1785 48.7425 72.7323 48.7425ZM71.9814 24.0974C71.62 24.0974 71.2583 24.1298 70.8972 24.1951C66.3145 25.0243 63.2604 30.8823 64.0892 37.2534C64.5667 40.9236 66.3001 44.1736 68.726 45.9468C70.3212 47.1128 72.0843 47.5622 73.8259 47.2476C78.4086 46.4183 81.4627 40.5603 80.6338 34.1891C80.1565 30.519 78.4232 27.2692 75.9972 25.4959C74.7329 24.5717 73.3624 24.0974 71.9814 24.0974Z" fill="#1E3A59"/>
<path d="M75.7212 46.1306C79.8065 45.9941 82.9718 41.5024 82.7912 36.0982C82.6106 30.694 79.1524 26.4236 75.0672 26.5602C70.9819 26.6967 67.8166 31.1884 67.9972 36.5926C68.1778 41.9968 71.636 46.2672 75.7212 46.1306Z" fill="white"/>
<path d="M75.5498 46.2198C74.8859 46.2198 74.217 46.1012 73.5545 45.8628C69.5642 44.4273 67.1388 38.9961 68.1479 33.7559C68.7102 30.8357 70.2341 28.4767 72.3288 27.2839C73.8844 26.3983 75.5828 26.2453 77.2401 26.8416C81.2304 28.2772 83.6559 33.7084 82.6468 38.9486C82.0845 41.8688 80.5606 44.2278 78.4659 45.4205C77.5322 45.9521 76.5467 46.2198 75.5498 46.2198ZM75.2457 26.631C74.2732 26.631 73.3122 26.892 72.4011 27.4108C70.3435 28.5824 68.8455 30.9052 68.2912 33.7836C67.2952 38.9561 69.6784 44.3133 73.6039 45.7255C75.22 46.3067 76.8762 46.1575 78.3937 45.2936C80.4513 44.122 81.9493 41.7993 82.5035 38.9209C83.4995 33.7484 81.1162 28.3913 77.1908 26.9788C76.5451 26.7466 75.8927 26.631 75.2457 26.631Z" fill="#1E3A59"/>
<g opacity="0.25">
<path d="M68.9989 41.3909C68.3125 39.6685 68.1035 37.7506 68.3076 35.8961C70.2086 39.691 74.0896 40.8235 77.2887 38.3772C79.3565 36.7974 80.6625 34.0845 80.9767 31.2146C81.0982 31.4531 81.2098 31.7062 81.3144 31.9672C83.0602 36.354 81.7187 42.02 78.3172 44.6221C74.9157 47.2242 70.7443 45.7752 68.9989 41.3909Z" fill="#1E3A59"/>
</g>
<path d="M75.7738 46.8384C74.5471 46.8384 73.3324 46.4202 72.2116 45.6042C69.9809 43.9802 68.3875 40.9355 67.9493 37.4595C67.2116 31.607 69.9336 26.2176 74.0171 25.4456C75.5815 25.15 77.1644 25.5436 78.5934 26.5841C80.8242 28.2081 82.4177 31.2529 82.8559 34.7289C83.5936 40.5814 80.8716 45.9708 76.788 46.7428C76.4503 46.8066 76.1116 46.8384 75.7738 46.8384ZM75.0222 26.7474C74.773 26.7474 74.524 26.7706 74.2764 26.8175C70.9042 27.4549 68.6872 32.1506 69.3344 37.2849C69.7253 40.3859 71.1082 43.074 73.0334 44.4756C74.1434 45.2837 75.3519 45.5934 76.5288 45.371C79.901 44.7336 82.118 40.038 81.4708 34.9036C81.0798 31.8026 79.697 29.1144 77.7718 27.7128C76.8953 27.0747 75.9574 26.7474 75.0222 26.7474Z" fill="#1E3A59"/>
<g opacity="0.5">
<path d="M41.8547 14.1857C41.8547 14.1857 26.1216 16.4028 18.0749 26.0539C18.0664 26.064 18.058 26.0742 18.0496 26.0843C16.3578 28.1169 15.2506 30.5615 14.8253 33.1523C14.2629 36.5786 14.3831 39.0174 14.5728 41.1598C15.1528 47.675 16.6598 50.6121 16.6598 50.6121C12.5977 47.5221 10.1336 43.8127 9.59597 38.391C9.54439 37.8564 9.51126 37.3031 9.49539 36.734C9.49124 36.6029 9.49018 36.4728 9.49104 36.3417C9.48804 36.3407 9.4891 36.3377 9.49219 36.3338C9.54217 35.1782 9.6658 33.6618 9.95001 31.9618C10.804 26.8339 13.1032 20.034 19.1968 16.4067C30.5906 9.62412 42.338 13.4543 41.8547 14.1857Z" fill="white"/>
</g>
<g opacity="0.5">
<path d="M56.9307 34.1456C59.3449 33.23 60.4494 30.2396 59.3977 27.4664C58.3459 24.6932 55.5362 23.1873 53.122 24.1029C50.7078 25.0185 49.6033 28.0089 50.6551 30.7821C51.7068 33.5552 54.5165 35.0611 56.9307 34.1456Z" fill="white"/>
</g>
<g opacity="0.5">
<path d="M59.3808 40.2725C60.3379 39.8037 60.6769 38.5317 60.1379 37.4315C59.5989 36.3312 58.3861 35.8194 57.429 36.2883C56.4719 36.7571 56.133 38.0291 56.6719 39.1293C57.2109 40.2295 58.4237 40.7414 59.3808 40.2725Z" fill="white"/>
</g>
<path d="M45.344 68.1332C45.344 68.1332 35.5658 62.1014 27.1972 66.467C22.0766 69.1382 23.1751 74.4013 26.4659 74.7531C30.413 75.175 34.1792 73.1651 38.3173 73.9834C38.3173 73.9834 39.9946 72.2771 41.3004 71.1106" fill="#CB9179"/>
<path d="M45.3433 68.1334L41.3 71.1107C39.9951 72.2778 38.3171 73.9833 38.3171 73.9833C34.1801 73.1654 30.4124 75.1742 26.4665 74.7534C24.9282 74.588 23.8677 73.3529 23.7005 71.8091C23.5057 70.0484 24.4688 67.8907 27.198 66.4664C29.8813 65.0659 32.7098 64.737 35.3122 64.9336C40.8294 65.349 45.3433 68.1334 45.3433 68.1334Z" fill="#D26A2C"/>
<g opacity="0.2">
<path d="M45.3435 68.1333L41.3001 71.1107C39.9952 72.2777 38.3173 73.9833 38.3173 73.9833C34.1802 73.1654 30.4126 75.1742 26.4667 74.7534C24.9284 74.588 23.8679 73.3529 23.7007 71.8091C24.4799 72.5939 25.9612 73.4044 28.6721 73.0129C33.5002 72.3163 37.6318 72.8015 38.6536 70.7247C39.4126 69.1828 36.371 67.2714 35.3123 64.9336C40.8296 65.349 45.3435 68.1333 45.3435 68.1333Z" fill="#16044E"/>
</g>
<path d="M44.9776 68.7275C40.617 66.2833 35.3034 64.8065 30.3521 66.0123C28.7893 66.4206 27.171 67.079 25.9692 68.148C25.3851 68.6752 24.9118 69.3078 24.64 70.0082C24.0911 71.3131 24.3844 73.0769 25.6574 73.7816C27.4064 74.6239 30.948 73.6996 32.9733 73.399C34.7617 73.0968 36.6378 72.9354 38.4528 73.2988L37.8196 73.4943C38.9639 72.6703 40.1134 71.8653 41.3005 71.1107C40.8641 71.6581 40.4451 72.2155 40.0318 72.7771C39.6199 73.3386 39.2112 73.9065 38.8152 74.473C38.6665 74.6956 38.4138 74.6915 38.1817 74.6684C34.0259 73.814 29.9345 76.1818 25.7245 75.3144C23.2706 74.6051 22.4219 71.6714 23.3398 69.4995C25.0917 65.207 31.2993 63.8559 35.4595 64.2451C39.0823 64.5631 42.5641 65.7415 45.7106 67.5393C46.4935 68.04 45.783 69.2048 44.9776 68.7275Z" fill="#1E3A59"/>
<path d="M69.1239 71.6158C68.5043 75.7016 61.8575 76.8856 57.8885 76.5892C57.8885 76.5892 56.0204 74.8821 54.2545 74.4016C51.695 73.7051 48.1719 73.7485 47.7427 75.394C47.2203 77.3964 50.7722 78.2669 50.7722 78.2669C50.7722 78.2669 48.9811 79.8743 45.7405 79.6059C41.5877 79.2618 40.2472 82.7333 41.3721 84.6437C41.6929 85.7091 40.0759 92.767 49.8504 92.9159C59.6249 93.0647 86.5586 99.1109 77.7178 70.9792L69.1239 71.6158Z" fill="white"/>
<path d="M79.4127 80.7959C79.0562 97.0997 58.1522 92.6594 49.7954 92.5326C40.0216 92.3837 41.6389 85.3263 41.3173 84.2603C40.9019 83.5546 40.8229 82.6374 41.0986 81.7773C41.5654 80.307 43.0651 79.0058 45.6859 79.2227C48.9261 79.491 50.718 77.8847 50.718 77.8847C50.718 77.8847 47.1654 77.0136 47.6873 75.0103C48.1174 73.3654 51.6406 73.3213 54.1989 74.0178C55.9651 74.4994 57.8342 76.2068 57.8342 76.2068C57.8839 76.2104 57.9335 76.2141 57.9831 76.2159C61.5467 76.4457 67.1173 75.5065 68.6887 72.4152C68.8743 72.0513 69.0048 71.658 69.0691 71.2335L77.663 70.5957C78.9441 74.6739 79.4734 78.0317 79.4127 80.7959Z" fill="white"/>
<g opacity="0.25">
<path d="M79.4127 80.7958C79.0562 97.0996 58.1522 92.6593 49.7954 92.5325C40.0216 92.3836 41.6389 85.3262 41.3173 84.2602C40.9019 83.5545 40.8229 82.6374 41.0986 81.7773C41.4827 82.3746 42.1976 83.0748 43.5117 83.7199C44.903 84.4017 47.8307 84.2602 47.8307 84.2602C47.8307 84.2602 47.7259 86.0503 44.6971 86.3407C42.6056 86.541 43.0596 89.897 47.2701 91.0916C52.4492 92.5582 59.8155 88.7813 61.1259 86.9472C62.1919 85.4567 59.7474 79.5865 57.9831 76.2158C57.5787 75.4402 57.2094 74.797 56.9263 74.3706C55.4137 72.0861 67.4279 71.7847 67.4279 71.7847C67.4279 71.7847 67.9352 71.9703 68.6887 72.4151C70.7821 73.6519 74.7739 76.8976 75.0422 83.7603C75.1489 86.4657 77.6686 84.1077 79.4127 80.7958Z" fill="#1E3A59"/>
</g>
<path d="M69.0689 71.2325C69.4127 75.0696 64.2897 76.6528 61.2421 76.9539C60.0935 77.0663 58.9345 77.0732 57.7818 76.9021C57.6235 76.8912 57.4814 76.8276 57.3717 76.7294C56.4666 75.941 55.3683 75.1576 54.2459 74.764C53.69 74.5832 53.027 74.4578 52.4309 74.3808C51.2888 74.2464 49.9147 74.2003 48.8958 74.6593C48.427 74.8919 48.3067 75.1389 48.342 75.5183C48.5144 76.2356 49.3843 76.6322 50.0355 76.9197C50.307 77.03 50.6272 77.1404 50.9019 77.2104C51.272 77.3053 51.4952 77.6823 51.4003 78.0525C51.351 78.2885 51.1341 78.4558 50.9654 78.5769C50.5166 78.9059 50.02 79.1647 49.5081 79.3717C48.3581 79.8319 47.1065 80.0062 45.8785 79.9348C45.3781 79.8959 44.8271 79.8745 44.334 79.9578C42.3284 80.2114 40.955 82.2415 41.9856 84.0592C42.0908 84.4596 42.0597 84.8062 42.0753 85.1932C42.0135 88.966 43.8197 91.061 47.5585 91.6475C48.4161 91.8022 49.4212 91.8275 50.3023 91.8465C53.1631 91.9583 56.0085 92.2707 58.8283 92.3949C67.0886 92.8102 77.9818 92.1837 78.6687 81.7245C78.9248 78.0233 78.0906 74.349 76.9969 70.8052C76.8803 70.4369 77.0855 70.0436 77.4543 69.9285C77.8222 69.8134 78.214 70.0186 78.3287 70.3866C79.8067 75.271 81.0135 80.7311 79.2389 85.7213C76.1992 93.8081 66.0885 94.1429 58.7615 93.7894C55.8977 93.6622 53.0821 93.3532 50.2579 93.2419C49.3081 93.2171 48.2749 93.1924 47.334 93.0254C43.54 92.4546 40.9278 90.1933 40.7173 86.2012C40.6614 85.6377 40.7033 84.9999 40.6486 84.4617L40.7155 84.6146C40.3486 83.9888 40.2076 83.2753 40.2438 82.5919C40.3308 80.4928 42.0974 78.8446 44.114 78.5791C44.721 78.4791 45.3484 78.493 45.9574 78.541C46.9883 78.6009 48.0334 78.4578 48.9888 78.0757C49.433 77.8942 49.8814 77.6632 50.251 77.3641L50.5509 78.5617C50.3501 78.51 50.1914 78.4599 50.0161 78.4014C48.2872 77.8653 46.1069 76.3638 47.2421 74.2988C48.3283 72.6993 50.9232 72.8171 52.6059 72.9956C53.3275 73.0941 53.9798 73.2112 54.6905 73.4407C56.0854 73.9401 57.2043 74.7438 58.3043 75.6906C58.3044 75.6907 57.8846 75.5096 57.8856 75.5098C61.5133 75.4278 67.2784 74.9092 69.0689 71.2325Z" fill="#1E3A59"/>
<path d="M77.5007 88.1288C77.4567 88.1288 77.4119 88.1232 77.3673 88.1115C77.0876 88.0379 76.9206 87.7516 76.9941 87.472C77.8613 84.1749 77.5958 81.4376 76.2046 79.3364C74.1427 76.2218 70.18 75.2268 68.0015 74.911C67.8995 74.8962 67.8339 74.8851 67.8089 74.8791C67.5277 74.8114 67.3547 74.5286 67.4224 74.2475C67.4892 73.97 67.7654 73.7979 68.0432 73.8586C68.0645 73.8623 68.1011 73.8674 68.1518 73.8748C70.5036 74.2158 74.7904 75.3037 77.0777 78.7584C78.6405 81.1191 78.9531 84.1404 78.0068 87.7383C77.945 87.9733 77.7328 88.1288 77.5007 88.1288Z" fill="#1E3A59"/>
<path d="M47.27 84.9065C45.3166 85.5795 42.5373 86.2691 40.7959 84.7248L41.8388 83.7966C42.0329 84.0979 42.3707 84.3648 42.792 84.5486C44.1703 85.1207 45.7934 85.0797 47.27 84.9065Z" fill="#1E3A59"/>
<path d="M62.8127 82.55C59.7016 77.1905 55.1848 74.7532 55.1848 74.7532Z" fill="#CB9179"/>
<path d="M57.264 69.064C59.4293 66.0715 72.3372 71.6273 72.9343 81.9235C73.0984 84.7535 71.8013 86.4618 69.6725 86.8564C66.8322 87.383 64.7524 85.6031 62.7577 82.167C59.6466 76.8074 55.1299 74.3702 55.1299 74.3702L57.264 69.064Z" fill="#CB9179"/>
<path d="M72.9262 82.9596V82.9614C72.7517 85.1724 71.5276 86.5122 69.6732 86.8559C66.8319 87.3833 64.7532 85.6025 62.7573 82.1675C59.6476 76.8082 55.1301 74.3694 55.1301 74.3694L57.2639 69.0634C58.2839 67.6538 61.6895 68.1408 65.0694 70.1294C68.8609 72.3606 72.6193 76.4793 72.9336 81.9231C72.9556 82.2869 72.952 82.6343 72.9262 82.9596Z" fill="#D26A2C"/>
<g opacity="0.2">
<path d="M72.9263 82.9614C72.7517 85.1724 71.5276 86.5122 69.6732 86.8559C66.8319 87.3833 64.7532 85.6025 62.7573 82.1675C59.6476 76.8082 55.1301 74.3694 55.1301 74.3694L57.2639 69.0634C58.2839 67.6538 61.6895 68.1408 65.0694 70.1294C64.268 71.2174 62.693 72.6583 59.7726 73.217C56.3027 73.8805 62.1251 77.0839 63.8656 80.3186C65.606 83.5532 70.0886 87.319 72.9263 82.9614Z" fill="#16044E"/>
</g>
<path d="M70.0484 85.5061C70.0032 85.5061 69.9648 85.4711 69.9615 85.4252C69.958 85.3771 69.9941 85.3353 70.0422 85.3318C70.3265 85.3111 70.6025 85.2474 70.8625 85.1429C70.9071 85.1246 70.9579 85.1465 70.976 85.1913C70.9939 85.236 70.9723 85.2869 70.9275 85.3048C70.6509 85.4161 70.3572 85.4837 70.0548 85.5058C70.0527 85.506 70.0505 85.5061 70.0484 85.5061ZM69.1807 85.4492C69.1752 85.4492 69.1696 85.4486 69.1639 85.4475C68.8874 85.3936 68.6018 85.3057 68.3149 85.1863C68.2703 85.1677 68.2494 85.1167 68.2678 85.0722C68.2863 85.0277 68.3376 85.0069 68.3819 85.0252C68.6579 85.14 68.9323 85.2245 69.1974 85.2763C69.2446 85.2854 69.2754 85.3313 69.2662 85.3787C69.2581 85.4203 69.2217 85.4492 69.1807 85.4492ZM71.6443 84.8705C71.6186 84.8705 71.5931 84.8592 71.5758 84.8375C71.5458 84.7998 71.5522 84.7449 71.5899 84.7149C71.8003 84.5476 72.0019 84.3442 72.1889 84.1107C72.219 84.0732 72.2738 84.0671 72.3116 84.0971C72.3492 84.1272 72.3553 84.1822 72.3252 84.2198C72.13 84.4635 71.9191 84.6761 71.6985 84.8516C71.6824 84.8643 71.6632 84.8705 71.6443 84.8705ZM67.5725 84.7958C67.5571 84.7958 67.5415 84.7917 67.5273 84.7832C67.2858 84.6367 67.0417 84.4677 66.8018 84.2808C66.7638 84.2512 66.757 84.1963 66.7866 84.1583C66.816 84.1203 66.871 84.1131 66.909 84.1431C67.1436 84.3258 67.3821 84.4909 67.6178 84.6338C67.659 84.6588 67.6722 84.7125 67.6472 84.7537C67.6308 84.7809 67.6019 84.7958 67.5725 84.7958ZM66.1945 83.7297C66.173 83.7297 66.1514 83.7217 66.1345 83.7058C65.9263 83.5087 65.7202 83.2964 65.5217 83.0745C65.4896 83.0385 65.4926 82.9833 65.5285 82.9512C65.5644 82.9191 65.6195 82.9221 65.6518 82.9581C65.847 83.1764 66.0498 83.3853 66.2545 83.579C66.2896 83.6121 66.2911 83.6674 66.258 83.7024C66.2408 83.7204 66.2176 83.7297 66.1945 83.7297ZM72.742 83.5287C72.7275 83.5287 72.7127 83.5249 72.6992 83.5173C72.6572 83.4936 72.6425 83.4403 72.6662 83.3984C72.7231 83.2978 72.7788 83.1927 72.8333 83.0834C72.8546 83.0403 72.9065 83.0226 72.9503 83.0443C72.9934 83.0657 73.011 83.1181 72.9894 83.1613C72.9335 83.2734 72.8764 83.3811 72.8181 83.4843C72.802 83.5127 72.7725 83.5287 72.742 83.5287ZM65.0307 82.4308C65.0044 82.4308 64.9784 82.419 64.9612 82.3965C64.7839 82.1644 64.613 81.9229 64.4535 81.6786C64.4271 81.6383 64.4384 81.5843 64.4789 81.5579C64.5191 81.5315 64.5732 81.5429 64.5996 81.5833C64.7567 81.8238 64.925 82.0619 65.0999 82.2905C65.1291 82.3288 65.1219 82.3836 65.0835 82.4129C65.0678 82.4249 65.0491 82.4308 65.0307 82.4308ZM64.0615 80.9801C64.0331 80.9801 64.0054 80.9662 63.9886 80.9408C63.8318 80.7028 63.6627 80.4655 63.4861 80.2354C63.4568 80.1972 63.464 80.1425 63.5022 80.1131C63.5404 80.0836 63.5952 80.0909 63.6245 80.1292C63.8036 80.3625 63.9751 80.6032 64.1343 80.8447C64.1608 80.8849 64.1497 80.9391 64.1095 80.9656C64.0947 80.9753 64.078 80.9801 64.0615 80.9801ZM63.0005 79.5964C62.9764 79.5964 62.9524 79.5864 62.9351 79.5669C62.7471 79.3536 62.5472 79.1413 62.3407 78.9357C62.3066 78.9017 62.3064 78.8465 62.3405 78.8123C62.3745 78.7783 62.4297 78.7781 62.4639 78.8121C62.6729 79.0203 62.8755 79.2354 63.0659 79.4515C63.0978 79.4876 63.0943 79.5428 63.0582 79.5746C63.0417 79.5892 63.0211 79.5964 63.0005 79.5964ZM61.7653 78.3644C61.7448 78.3644 61.7242 78.3572 61.7076 78.3426C61.4936 78.1539 61.2691 77.9672 61.0403 77.7877C61.0024 77.7579 60.9958 77.7031 61.0256 77.6651C61.0554 77.6274 61.1101 77.6205 61.1481 77.6504C61.3794 77.832 61.6065 78.0209 61.823 78.2117C61.8591 78.2435 61.8626 78.2987 61.8307 78.3348C61.8135 78.3544 61.7895 78.3644 61.7653 78.3644ZM60.3931 77.2862C60.3759 77.2862 60.3584 77.2811 60.3431 77.2704C60.1088 77.1061 59.8652 76.9446 59.6192 76.7905C59.5783 76.7649 59.566 76.711 59.5916 76.6702C59.6172 76.6295 59.671 76.6171 59.7119 76.6426C59.9604 76.7984 60.2065 76.9615 60.4433 77.1275C60.4827 77.1552 60.4923 77.2096 60.4646 77.249C60.4477 77.2733 60.4206 77.2862 60.3931 77.2862ZM58.914 76.359C58.8996 76.359 58.885 76.3553 58.8715 76.3478C58.6187 76.2065 58.3601 76.0703 58.1027 75.9427C58.0595 75.9214 58.0419 75.869 58.0633 75.8259C58.0846 75.7827 58.1367 75.7644 58.1802 75.7864C58.4402 75.9152 58.7014 76.0529 58.9566 76.1956C58.9987 76.219 59.0137 76.2722 58.9902 76.3143C58.9743 76.3428 58.9446 76.359 58.914 76.359ZM57.3484 75.5846C57.3369 75.5846 57.3251 75.5823 57.3139 75.5775C56.8179 75.3641 56.5089 75.2633 56.5059 75.2622C56.4601 75.2474 56.435 75.1982 56.4498 75.1524C56.4648 75.1065 56.5139 75.0815 56.5597 75.0963C56.5726 75.1004 56.8786 75.2002 57.3829 75.4172C57.4272 75.4363 57.4476 75.4876 57.4286 75.5319C57.4143 75.5649 57.3822 75.5846 57.3484 75.5846Z" fill="#1E3A59"/>
<path d="M56.6257 74.8485C56.6232 74.8485 56.6208 74.8484 56.6183 74.8482C56.5703 74.8441 56.5346 74.802 56.5386 74.754C56.5398 74.7397 56.5696 74.3978 56.7097 73.8788C56.7224 73.8323 56.7704 73.8054 56.8168 73.8173C56.8633 73.83 56.8909 73.8778 56.8783 73.9244C56.7427 74.4267 56.7129 74.7652 56.7127 74.7686C56.7087 74.8141 56.6706 74.8485 56.6257 74.8485ZM57.0729 73.161C57.0619 73.161 57.0508 73.1589 57.0399 73.1545C56.9953 73.1364 56.9739 73.0854 56.9921 73.0408C57.1039 72.7655 57.2331 72.4976 57.3756 72.2444C57.3992 72.2026 57.4524 72.1876 57.4945 72.2112C57.5364 72.2349 57.5513 72.2881 57.5277 72.3301C57.3887 72.5769 57.2629 72.8381 57.1536 73.1066C57.1399 73.1404 57.1073 73.161 57.0729 73.161ZM57.9298 71.6452C57.9114 71.6452 57.8929 71.6394 57.8771 71.6274C57.8387 71.5983 57.8312 71.5436 57.8603 71.5051C58.0393 71.2693 58.2355 71.0458 58.4436 70.8407C58.4779 70.8068 58.5332 70.8073 58.5669 70.8417C58.6007 70.876 58.6003 70.9312 58.566 70.965C58.3639 71.1641 58.1732 71.3814 57.9994 71.6106C57.9823 71.6333 57.9562 71.6452 57.9298 71.6452ZM59.169 70.4261C59.1421 70.4261 59.1156 70.4137 59.0985 70.3903C59.0701 70.3514 59.0785 70.2968 59.1175 70.2684C59.353 70.0963 59.6052 69.9388 59.8668 69.8005C59.9095 69.7783 59.9622 69.7944 59.9848 69.8368C60.0073 69.8795 59.991 69.9323 59.9485 69.9548C59.6942 70.0893 59.4493 70.2422 59.2204 70.4093C59.2048 70.4206 59.1869 70.4261 59.169 70.4261ZM60.7029 69.6109C60.6674 69.6109 60.634 69.589 60.6211 69.5538C60.6044 69.5085 60.6276 69.4583 60.6727 69.4417C60.9416 69.3426 61.2254 69.2574 61.5165 69.1881C61.5628 69.1771 61.6104 69.2059 61.6216 69.2529C61.6327 69.2997 61.6038 69.3468 61.5568 69.3579C61.2725 69.4256 60.9954 69.5088 60.7331 69.6055C60.7231 69.609 60.713 69.6109 60.7029 69.6109ZM62.3932 69.2045C62.35 69.2045 62.3126 69.1724 62.3068 69.1284C62.3006 69.0806 62.3343 69.0368 62.3821 69.0306C62.5555 69.0081 62.7346 68.99 62.9144 68.9768C62.9619 68.973 63.0044 69.0094 63.0078 69.0575C63.0113 69.1056 62.9752 69.1473 62.9271 69.1509C62.7506 69.1638 62.5748 69.1816 62.4046 69.2036C62.4008 69.2042 62.3969 69.2045 62.3932 69.2045Z" fill="#1E3A59"/>
<path d="M68.7122 87.6456C65.5663 87.646 63.5695 84.9559 62.1541 82.5173C59.1871 77.4061 54.8412 75.0077 54.7977 74.984C54.4591 74.8003 54.333 74.3769 54.5163 74.0381C54.6996 73.6992 55.1224 73.5728 55.4614 73.7558C55.6529 73.8591 60.188 76.3494 63.3614 81.8165C65.3818 85.297 67.231 86.599 69.5454 86.1701C71.4185 85.8228 72.3745 84.329 72.2374 81.9639C71.8282 74.9069 65.4195 70.4494 61.4762 69.2972C59.7112 68.7817 58.2799 68.8506 57.8295 69.4731C57.6035 69.7854 57.1671 69.8555 56.8547 69.6295C56.5424 69.4034 56.4724 68.967 56.6984 68.6548C57.5366 67.4965 59.4205 67.2423 61.8676 67.9572C66.1765 69.2161 73.1803 74.1099 73.6312 81.8831C73.8089 84.9493 72.3766 87.0651 69.7998 87.5428C69.4229 87.6127 69.0602 87.6456 68.7122 87.6456Z" fill="#1E3A59"/>
<path d="M50.9784 103.91C45.5823 104.612 42.7525 96.1879 45.179 91.5225C47.6056 86.8571 52.8682 87.4307 54.7275 90.4846C57.511 95.0563 57.6258 103.044 50.9784 103.91Z" fill="#CB9179"/>
<path d="M50.9781 103.91C47.1829 104.404 44.6577 100.383 44.3379 96.3301C44.2019 94.6209 44.4592 92.9062 45.1796 91.5222C47.6056 86.8577 52.8675 87.4311 54.7274 90.4838C55.5416 91.8237 56.1297 93.4575 56.3833 95.1208C56.9972 99.1274 55.6776 103.298 50.9781 103.91Z" fill="#E37A33"/>
<g opacity="0.2">
<path d="M50.9781 103.909C47.1829 104.404 44.6577 100.383 44.3379 96.3301C45.3414 94.8763 46.9146 93.4024 49.2395 93.1782C52.8693 92.829 55.084 93.9427 56.3833 95.1208C56.9972 99.1274 55.6775 103.297 50.9781 103.909Z" fill="#16044E"/>
</g>
<path d="M50.8514 103.461C46.9735 103.965 44.7552 98.5373 45.7274 94.744C46.6372 93.9408 47.7932 93.3178 49.2396 93.1781C51.333 92.976 52.9558 93.2627 54.2037 93.7662C55.9387 97.396 55.6777 102.832 50.8514 103.461Z" fill="#E1C0B9"/>
<path d="M50.8516 103.461C46.6385 104.01 44.3856 97.5564 46.0512 93.8036C47.8852 89.6713 52.3271 90.5948 53.7788 92.9792C55.9521 96.5486 56.0417 102.785 50.8516 103.461Z" fill="#FFCCAA"/>
<g opacity="0.2">
<path d="M50.8514 103.461C46.9735 103.965 44.7552 98.5373 45.7274 94.744C46.6372 93.9408 47.7932 93.3178 49.2396 93.1781C51.333 92.976 52.9558 93.2627 54.2037 93.7662C55.9387 97.396 55.6777 102.832 50.8514 103.461Z" fill="#16044E"/>
</g>
<path d="M50.3482 104.649C48.4795 104.649 46.7839 103.679 45.5151 101.865C43.389 98.8255 42.9783 94.2405 44.5596 91.2002C45.7713 88.8706 47.8017 87.4897 50.1303 87.4114C52.27 87.3379 54.2621 88.3778 55.3237 90.1213C57.0057 92.884 58.0577 97.4379 56.3933 100.908C55.3891 103.002 53.5478 104.279 51.0684 104.602C50.8259 104.633 50.5856 104.649 50.3482 104.649ZM50.3317 88.804C50.2803 88.804 50.2288 88.8049 50.1772 88.8066C48.3667 88.8675 46.7707 89.9748 45.7982 91.8444C44.4618 94.4139 44.84 98.464 46.6591 101.065C47.4495 102.195 48.8249 103.485 50.8882 103.217C52.9047 102.955 54.3333 101.975 55.1344 100.304C56.5099 97.4368 55.6709 93.3762 54.1312 90.8474C53.3686 89.5947 51.8898 88.804 50.3317 88.804Z" fill="#1E3A59"/>
<path d="M74.3478 91.4097C66.1027 83.0008 56.613 91.2692 56.0598 96.7591C55.8453 98.8883 55.8148 117.231 60.2937 117.038C63.4127 116.904 69.8137 112.629 71.5861 108.173L76.1166 100.007L74.3478 91.4097Z" fill="white"/>
<path d="M76.1157 100.008L71.5853 108.172C69.8136 112.629 63.4123 116.904 60.2934 117.038C58.3876 117.121 57.2977 113.847 56.693 109.894C55.8734 104.557 55.9358 97.9828 56.059 96.7588C56.4946 92.4287 62.4897 86.3729 69.0473 88.1281C69.0491 88.1299 69.0509 88.1299 69.0528 88.1299C70.8098 88.6022 72.6072 89.6333 74.3477 91.4105L76.1157 100.008Z" fill="white"/>
<g opacity="0.25">
<path d="M76.1155 100.008L71.5852 108.172C69.8134 112.629 63.4121 116.904 60.2933 117.038C58.3874 117.12 57.2975 113.847 56.6929 109.894L65.7297 106.121C65.7297 106.121 71.2681 106.611 72.9121 101.991C74.8365 96.5829 71.9362 89.4826 69.0581 88.1335C69.0562 88.1335 69.0544 88.1317 69.0526 88.1299C70.8096 88.6022 72.607 89.6333 74.3474 91.4105L76.1155 100.008Z" fill="#1E3A59"/>
</g>
<path d="M74.0984 91.6541C71.2028 89.3847 68.0202 87.8196 64.3184 88.8947C60.994 89.8638 57.9798 92.5618 56.9377 95.8908C56.6186 97.0366 56.7137 98.2535 56.685 99.4434C56.7148 103.171 56.961 113.706 59.6745 116.106C59.9484 116.312 60.1907 116.308 60.4945 116.285C60.9159 116.275 61.32 116.166 61.7273 116.029C63.4256 115.443 64.9619 114.432 66.4022 113.354C67.369 112.622 68.2894 111.824 69.1215 110.946C69.9522 110.069 70.7049 109.114 71.2618 108.044C71.4504 107.665 72.033 107.899 71.9103 108.302C70.8981 111.42 68.3834 113.864 65.7017 115.619C64.3037 116.499 62.8101 117.254 61.1817 117.63C59.8724 118.056 58.732 117.538 57.9948 116.452C55.4128 112.655 55.2291 102.267 55.3165 97.5367C55.2979 95.5047 56.2489 93.5118 57.4608 91.9574C59.8944 88.8154 63.8877 86.5877 67.9389 87.1763C69.2825 87.3606 70.581 87.8254 71.7139 88.524C72.8477 89.2223 73.8238 90.1291 74.5968 91.1655C74.7132 91.3214 74.6811 91.5421 74.5252 91.6584C74.3953 91.7552 74.2202 91.7491 74.0984 91.6541Z" fill="#1E3A59"/>
<path d="M65.6763 102.554C65.6763 102.554 64.6621 92.0351 58.8802 90.0694C53.2096 88.1414 49.0964 93.665 49.5421 100.946C50.3113 113.514 57.4479 119.318 62.8252 116.303C65.0759 115.041 65.8079 111.371 65.8079 111.371L65.6763 102.554Z" fill="white"/>
<path d="M51.5205 109.901C54.1873 116.083 58.9622 118.471 62.8257 116.304C65.0757 115.041 65.8089 111.372 65.8089 111.372L65.7296 106.121L65.6757 102.555C65.6757 102.555 64.6631 92.0351 58.8798 90.0707C53.21 88.142 49.0968 93.664 49.5431 100.946C49.7593 104.481 50.4788 107.481 51.5205 109.901Z" fill="white"/>
<g opacity="0.25">
<path d="M51.5205 109.901C54.1873 116.083 58.9622 118.471 62.8257 116.304C65.0758 115.041 65.8089 111.372 65.8089 111.372L65.7296 106.121C65.7296 106.121 59.8824 111.668 51.5205 109.901Z" fill="#1E3A59"/>
</g>
<path d="M65.329 102.587C64.5659 98.8454 63.1012 93.394 59.7154 91.2623C55.3457 88.8626 51.7834 91.8497 50.6762 96.2014C50.0211 98.6008 50.1564 101.153 50.5238 103.601C51.1823 107.798 52.6911 112.264 56.1286 114.965C57.4903 116.022 59.2839 116.645 60.9805 116.267C62.106 116.031 63.0993 115.516 63.813 114.56C64.5308 113.633 65.0667 112.467 65.4658 111.303C65.5209 111.111 65.7271 111.002 65.9164 111.067C66.0753 111.122 66.1695 111.279 66.1503 111.44C66.0692 112.123 65.9056 112.762 65.6895 113.406C64.9646 115.56 63.5921 117.13 61.2791 117.636C56.9216 118.612 53.2013 115.021 51.4231 111.409C49.2955 107.244 48.0926 100.393 49.2949 95.8389C50.334 91.564 53.7841 87.9409 58.502 89.1867C61.2726 89.8468 63.2226 92.3458 64.2827 94.8285C65.0804 96.668 65.5694 98.5865 65.8414 100.554C65.9269 101.207 66.0018 101.851 66.0239 102.52C66.0302 102.713 65.8788 102.875 65.6859 102.881C65.5077 102.887 65.3564 102.758 65.329 102.587Z" fill="#1E3A59"/>
<path d="M51.0087 94.2284C50.3496 96.6102 50.0937 99.0362 50.3301 101.493C50.3945 102.443 50.5107 103.521 50.6764 104.459C51.2319 107.848 52.5588 111.153 54.7705 113.77C55.402 114.513 56.091 115.176 56.7852 115.867C56.9384 116.009 56.9455 116.257 56.7869 116.399C56.69 116.487 56.5572 116.511 56.4407 116.474C56.1821 116.393 55.9319 116.286 55.6788 116.178C54.9565 115.804 54.2959 115.31 53.737 114.718C51.149 112.011 49.9711 108.31 49.2791 104.708C48.8173 102.133 48.5091 99.4419 49.1131 96.8593C49.3626 95.8211 49.7603 94.8027 50.3795 93.9262C50.4923 93.7665 50.7131 93.7285 50.8728 93.8412C50.9992 93.9304 51.0494 94.0876 51.0087 94.2284Z" fill="#1E3A59"/>
<path d="M49.544 100.945C50.0303 108.914 53.0774 114.165 56.613 116.171C59.0716 116.602 62.1847 116.201 63.1485 111.883C64.0676 107.771 63.7329 100.829 61.1614 96.2443C59.722 93.6761 55.4243 89.8162 50.6942 94.0773C49.8047 95.9287 49.3789 98.2854 49.544 100.945Z" fill="#AEAEB1"/>
<g opacity="0.25">
<path d="M55.987 104.239C59.2571 104.587 62.0494 104.788 61.8261 108.862C61.5045 114.728 59.4814 115.008 58.0764 114.835C55.0815 114.466 48.9202 103.487 55.987 104.239Z" fill="#1E3A59"/>
</g>
<g opacity="0.6">
<path d="M49.5623 98.519C49.5836 98.4139 49.606 98.3098 49.6296 98.2066C50.1108 96.0969 51.7474 94.386 53.8767 94.0009C57.1484 93.4092 59.8358 96.062 60.9154 97.9881C63.0618 101.815 63.6501 107.289 63.2478 111.384C64.0375 107.229 63.6313 100.648 61.1615 96.2443C59.722 93.6761 55.4243 89.8162 50.6942 94.0773C50.0867 95.3414 49.695 96.8441 49.5623 98.519Z" fill="white"/>
</g>
<path d="M62.2474 99.1928C62.1667 99.1928 62.0847 99.174 62.008 99.1345C59.0164 97.5927 54.4983 95.9997 49.9629 97.1665C49.6828 97.2382 49.3975 97.0699 49.3255 96.7899C49.2534 96.5098 49.422 96.2245 49.7021 96.1524C54.5565 94.9035 59.3344 96.5787 62.4877 98.2037C62.7448 98.3362 62.8457 98.652 62.7132 98.9089C62.6203 99.0892 62.4372 99.1928 62.2474 99.1928Z" fill="#1E3A59"/>
<path d="M63.4121 104.323C63.3274 104.323 63.2416 104.303 63.162 104.259C59.8024 102.427 54.7503 100.586 49.7641 102.22C49.4897 102.311 49.1936 102.161 49.1036 101.886C49.0135 101.611 49.1633 101.315 49.438 101.225C54.7801 99.4749 60.1224 101.409 63.6633 103.34C63.9172 103.478 64.0107 103.796 63.8723 104.05C63.7773 104.224 63.5976 104.323 63.4121 104.323Z" fill="#1E3A59"/>
<path d="M63.5826 108.927C63.5006 108.927 63.4175 108.908 63.3398 108.867C60.138 107.188 55.3168 105.498 50.533 106.982C50.2568 107.068 49.9636 106.913 49.8779 106.637C49.7922 106.361 49.9466 106.068 50.2228 105.982C55.3481 104.392 60.4493 106.169 63.8261 107.94C64.0821 108.074 64.1809 108.39 64.0466 108.646C63.953 108.825 63.771 108.927 63.5826 108.927Z" fill="#1E3A59"/>
<path d="M62.9481 113.152C62.8745 113.152 62.8 113.137 62.7289 113.104C58.9441 111.356 55.3894 110.826 52.1626 111.531C51.88 111.593 51.6012 111.414 51.5395 111.132C51.4778 110.849 51.6568 110.57 51.9393 110.508C55.3934 109.754 59.1713 110.307 63.168 112.153C63.4305 112.275 63.5449 112.586 63.4237 112.848C63.3352 113.04 63.1459 113.152 62.9481 113.152Z" fill="#1E3A59"/>
<path d="M58.0738 116.829C57.5832 116.829 57.066 116.782 56.5225 116.687C56.4636 116.676 56.4068 116.656 56.3547 116.626C52.2179 114.28 49.4765 108.429 49.0214 100.977C48.855 98.2964 49.2703 95.832 50.2222 93.8506C50.2518 93.7892 50.2931 93.7341 50.3438 93.6884C52.1453 92.0654 54.0476 91.4055 56 91.727C58.6264 92.1598 60.6679 94.2931 61.618 95.9884C64.2278 100.642 64.6176 107.71 63.6594 111.997C62.9547 115.154 60.995 116.829 58.0738 116.829ZM56.7932 115.671C59.9764 116.199 61.9417 114.886 62.6374 111.769C63.5534 107.671 63.1872 100.927 60.7047 96.5004C59.802 94.8897 57.9445 93.1086 55.8297 92.7601C54.235 92.4976 52.6512 93.0479 51.1218 94.3974C50.2785 96.2024 49.9138 98.4522 50.0664 100.912C50.0665 100.912 50.0665 100.912 50.0665 100.913C50.572 109.197 53.8575 113.955 56.7932 115.671Z" fill="#1E3A59"/>
<path d="M58.0738 116.829C57.5832 116.829 57.066 116.782 56.5225 116.687C56.4636 116.676 56.4068 116.656 56.3547 116.626C52.2179 114.28 49.4765 108.429 49.0214 100.977C48.855 98.2964 49.2703 95.832 50.2222 93.8506C50.2518 93.7892 50.2931 93.7341 50.3438 93.6884C52.1453 92.0654 54.0476 91.4055 56 91.727C58.6264 92.1598 60.6679 94.2931 61.618 95.9884C64.2278 100.642 64.6176 107.71 63.6594 111.997C62.9547 115.154 60.995 116.829 58.0738 116.829ZM56.7932 115.671C59.9764 116.199 61.9417 114.886 62.6374 111.769C63.5534 107.671 63.1872 100.927 60.7047 96.5004C59.802 94.8897 57.9445 93.1086 55.8297 92.7601C54.235 92.4976 52.6512 93.0479 51.1218 94.3974C50.2785 96.2024 49.9138 98.4522 50.0664 100.912C50.0665 100.912 50.0665 100.912 50.0665 100.913C50.572 109.197 53.8575 113.955 56.7932 115.671Z" fill="#1E3A59"/>
<path d="M60.7149 89.2015C61.725 88.7945 62.7265 88.8788 63.7389 89.0519C66.6023 89.6158 69.1122 91.5426 70.5437 94.0509C72.0909 96.7323 72.4559 99.93 72.1444 102.964C72.0788 103.63 71.9643 104.372 71.8442 105.028C71.8202 105.17 71.6852 105.266 71.5428 105.242C71.4026 105.219 71.3094 105.088 71.3264 104.95C71.4 104.067 71.4805 103.131 71.4709 102.243C71.5484 97.8499 70.0054 93.2088 65.9305 91.0334C65.1752 90.6156 64.3559 90.317 63.5214 90.1409C62.7452 89.9807 61.8255 89.904 61.1038 90.1729C60.4697 90.4022 60.0936 89.4784 60.7149 89.2015Z" fill="#1E3A59"/>
<path d="M46.5475 44.8573C47.2057 42.2474 43.8743 37.4454 39.5659 39.6523C35.2151 41.8809 35.861 48.5916 41.9013 49.1934" fill="#E37A33"/>
<path d="M46.5477 44.8573C46.4901 42.6403 44.6264 40.2341 42.4932 39.6945C40.2582 39.1858 37.8825 40.9576 37.4336 43.1453C36.877 45.5224 38.3033 47.7241 40.4898 48.6708C40.9351 48.8802 41.4111 49.0313 41.9014 49.1934C41.3903 49.2331 40.8661 49.2178 40.3491 49.1157C36.0064 48.3044 34.808 42.8915 38.0585 40.0649C39.7138 38.5713 42.333 38.0328 44.2879 39.2627C46.0724 40.347 47.4308 42.8437 46.5477 44.8573Z" fill="#1E3A59"/>
<g opacity="0.2">
<path d="M44.2034 46.1386C45.0316 44.6665 43.7566 42.9941 42.1896 43.123C40.3398 43.275 39.75 45.7927 42.115 47.0897C42.115 47.0897 40.9781 45.5735 42.1589 44.8508C43.3396 44.1281 44.2034 46.1386 44.2034 46.1386Z" fill="#16044E"/>
</g>
<path d="M44.2035 46.1385C44.7829 45.024 44.05 43.6121 42.8634 43.3328C42.1314 43.1417 41.2722 43.4145 40.9121 44.1039C40.3092 45.2254 41.1424 46.48 42.1152 47.0895C41.9266 47.0039 41.7391 46.9095 41.5678 46.7881C40.6498 46.2192 40.0833 44.9712 40.6254 43.9517C41.0346 43.1187 42.0864 42.7806 42.9421 43.0449C44.2332 43.3863 44.996 45.0057 44.2035 46.1385Z" fill="#1E3A59"/>
<path d="M36.8426 55.7045C35.0467 58.6563 33.6041 65.2807 41.7585 69.4607C48.6913 73.0145 63.3988 73.0191 66.2568 63.0372C69.9168 50.254 61.1025 42.8432 53.2882 42.0667C38.76 40.6228 37.7713 52.9713 36.8426 55.7045Z" fill="#CB9179"/>
<path d="M36.8426 55.7045C35.0467 58.6563 33.6041 65.2807 41.7585 69.4607C48.6913 73.0145 63.3988 73.0191 66.2568 63.0372C69.9168 50.254 61.1025 42.8432 53.2882 42.0667C38.76 40.6228 37.7713 52.9713 36.8426 55.7045Z" fill="#D26A2C"/>
<g opacity="0.2">
<path d="M42.7136 68.575C38.8622 66.6563 37.1036 62.582 38.2876 62.5124C39.4716 62.4427 42.0283 67.2309 50.1796 67.2309C57.388 67.2309 63.8357 63.8879 63.1967 55.1098C62.8385 50.189 65.2199 53.2901 65.5291 54.4509C65.8383 55.6117 67.633 66.6987 56.796 69.7033C51.4357 71.1894 47.21 70.8151 42.7136 68.575Z" fill="#2A1A5E"/>
</g>
<path d="M50.7788 67.2231C48.9502 69.0701 45.9673 69.5315 43.2491 68.5757C40.6613 67.6641 39.2443 64.9735 39.0955 62.9004C40.5878 64.027 43.5119 67.2304 50.1797 67.2304C50.38 67.2304 50.5803 67.2286 50.7788 67.2231Z" fill="#E1C0B9"/>
<g opacity="0.5">
<path d="M55.5055 44.7873C54.436 43.853 49.7557 42.8772 46.0305 44.3758C42.0595 45.9733 41.2462 48.8477 42.0244 48.34C43.1547 47.6025 46.3614 45.9039 50.2709 45.9014C53.2306 45.8995 56.5749 45.7215 55.5055 44.7873Z" fill="white"/>
</g>
<g opacity="0.2">
<path d="M49.0893 57.7346C49.0945 55.4732 45.8824 54.3899 44.3121 56.6972C43.5243 57.8548 44.8479 57.8442 46.0532 58.0211C47.5866 58.2461 49.0854 59.3967 49.0893 57.7346Z" fill="#16044E"/>
</g>
<path d="M46.9464 58.8017C49.7734 59.6046 53.3612 62.0622 52.0057 65.362C50.6323 68.705 46.7241 69.7981 43.2499 68.575C39.8605 67.3817 38.4789 63.1333 39.3265 61.2228C39.929 59.8651 42.1413 57.4371 46.9464 58.8017Z" fill="#FFD6B8"/>
<g opacity="0.2">
<path d="M50.7788 67.2231C48.9502 69.0701 45.9673 69.5315 43.2491 68.5757C40.6613 67.6641 39.2443 64.9735 39.0955 62.9004C40.5878 64.027 43.5119 67.2304 50.1797 67.2304C50.38 67.2304 50.5803 67.2286 50.7788 67.2231Z" fill="#16044E"/>
</g>
<path d="M51.796 72.1283C47.8968 72.1284 44.114 71.2332 41.5291 69.9082C38.1679 68.1852 36.065 65.9005 35.2789 63.1174C34.2578 59.5023 35.825 56.4262 36.3829 55.4926C36.4808 55.1913 36.5867 54.7535 36.7082 54.251C37.7209 50.0612 40.0908 40.2493 53.3379 41.5662C58.0203 42.0315 62.375 44.6059 64.9867 48.4527C66.902 51.2736 68.7608 56.1179 66.7401 63.1755C65.7858 66.5087 63.4414 69.0683 59.9604 70.5777C57.4448 71.6685 54.5904 72.1283 51.796 72.1283ZM50.9936 42.4513C40.5941 42.4513 38.6518 50.491 37.6857 54.4873C37.5461 55.065 37.4357 55.5212 37.3186 55.8661C37.3067 55.9009 37.2912 55.9343 37.272 55.9657C36.2922 57.5764 35.5082 60.2292 36.2468 62.8441C36.9538 65.3472 38.8854 67.4229 41.9878 69.0132C46.2204 71.1829 53.8176 72.1453 59.5604 69.6549C62.8018 68.2496 64.892 65.9764 65.7732 62.8988C67.288 57.6083 66.7282 52.8083 64.1547 49.0176C61.7449 45.4684 57.562 42.9967 53.2383 42.567C52.45 42.4886 51.7014 42.4513 50.9936 42.4513Z" fill="#1E3A59"/>
<path d="M59.3584 48.3947C59.6158 45.2054 65.2021 41.0747 69.2073 45.2064C73.252 49.3788 69.9584 56.685 62.9296 55.0522" fill="#E37A33"/>
<path d="M59.3584 48.3947C59.2095 45.8414 61.6866 43.5861 64.0644 43.0641C66.0079 42.6015 68.1077 43.3504 69.4782 44.7595C73.1109 48.2413 71.6848 54.5001 66.589 55.4735C65.3497 55.6802 64.0775 55.5173 62.9297 55.0522C63.5393 55.076 64.133 55.1015 64.7176 55.048C66.3944 54.9235 68.0775 54.2207 69.1361 52.9264C70.9538 50.7711 70.7953 47.4465 68.7584 45.4829C67.6313 44.2655 65.9124 43.7364 64.3053 44.147C62.2079 44.6458 60.0536 46.2697 59.3584 48.3947Z" fill="#1E3A59"/>
<path d="M54.1102 58.5076C54.4411 57.2473 53.7671 55.9781 52.6046 55.6729C51.4422 55.3676 50.2315 56.1418 49.9006 57.4021C49.5696 58.6624 50.2436 59.9316 51.4061 60.2368C52.5685 60.5421 53.7792 59.7679 54.1102 58.5076Z" fill="#1E3A59"/>
<path d="M51.2151 57.1948C51.1527 57.4322 51.2797 57.6713 51.4988 57.7289C51.7178 57.7864 51.9459 57.6405 52.0082 57.4031C52.0706 57.1656 51.9436 56.9265 51.7246 56.869C51.5055 56.8115 51.2774 56.9573 51.2151 57.1948Z" fill="#E37A33"/>
<path d="M52.3762 57.5C52.3139 57.7374 52.4409 57.9765 52.6599 58.0341C52.8789 58.0916 53.107 57.9457 53.1694 57.7083C53.2317 57.4708 53.1047 57.2317 52.8857 57.1742C52.6667 57.1166 52.4386 57.2625 52.3762 57.5Z" fill="#E37A33"/>
<path d="M50.842 58.2549C50.7797 58.4923 50.9067 58.7315 51.1257 58.789C51.3447 58.8465 51.5728 58.7006 51.6352 58.4631C51.6975 58.2257 51.5705 57.9866 51.3515 57.929C51.1325 57.8715 50.9044 58.0174 50.842 58.2549Z" fill="#E37A33"/>
<path d="M52.0032 58.56C51.9408 58.7975 52.0678 59.0366 52.2868 59.0941C52.5059 59.1517 52.734 59.0057 52.7963 58.7683C52.8587 58.5309 52.7317 58.2917 52.5127 58.2342C52.2936 58.1767 52.0655 58.3225 52.0032 58.56Z" fill="#E37A33"/>
<path d="M43.5375 56.2143C43.8274 55.1102 43.237 53.9984 42.2187 53.731C41.2004 53.4636 40.1399 54.1418 39.8499 55.2458C39.56 56.3499 40.1504 57.4617 41.1687 57.7291C42.187 57.9965 43.2476 57.3183 43.5375 56.2143Z" fill="#1E3A59"/>
<path d="M41.6975 55.2494C41.7521 55.0414 41.6409 54.8319 41.449 54.7815C41.2572 54.7311 41.0574 54.8589 41.0027 55.0669C40.9481 55.275 41.0593 55.4844 41.2512 55.5348C41.4431 55.5852 41.6429 55.4574 41.6975 55.2494Z" fill="#E37A33"/>
<path d="M42.0183 55.3308C41.9637 55.5388 42.0749 55.7483 42.2668 55.7987C42.4586 55.8491 42.6585 55.7213 42.7131 55.5133C42.7677 55.3053 42.6565 55.0958 42.4646 55.0454C42.2727 54.995 42.0729 55.1228 42.0183 55.3308Z" fill="#E37A33"/>
<path d="M41.3696 56.1764C41.4243 55.9684 41.313 55.7589 41.1212 55.7085C40.9293 55.6581 40.7295 55.7859 40.6748 55.994C40.6202 56.202 40.7315 56.4115 40.9233 56.4618C41.1152 56.5122 41.315 56.3844 41.3696 56.1764Z" fill="#E37A33"/>
<path d="M41.6916 56.2593C41.637 56.4673 41.7483 56.6768 41.9401 56.7272C42.132 56.7776 42.3318 56.6498 42.3864 56.4418C42.4411 56.2338 42.3298 56.0243 42.1379 55.9739C41.9461 55.9235 41.7463 56.0513 41.6916 56.2593Z" fill="#E37A33"/>
<path d="M43.7794 58.4792C43.4397 59.131 44.1589 60.3309 45.004 60.4604C45.6332 60.5568 46.8171 60.2662 46.9864 59.3725C47.1733 58.3852 44.1669 57.7358 43.7794 58.4792Z" fill="#1E3A59"/>
<path d="M64.1203 55.9919C64.0764 55.9919 64.0386 55.9588 64.0337 55.9142C64.0037 55.643 63.9763 55.4902 63.976 55.4887C63.9675 55.4412 63.999 55.3959 64.0463 55.3872C64.0933 55.3792 64.1391 55.4102 64.1478 55.4576C64.1489 55.4639 64.1764 55.617 64.2071 55.8951C64.2124 55.943 64.1779 55.9861 64.1299 55.9913C64.1267 55.9917 64.1235 55.9919 64.1203 55.9919Z" fill="#1E3A59"/>
<path d="M55.1879 71.1283C55.1542 71.1283 55.1221 71.1086 55.1079 71.0758C55.0886 71.0317 55.1089 70.9802 55.153 70.9611C55.4154 70.8468 55.6763 70.7262 55.9285 70.6024C55.9719 70.581 56.0241 70.5991 56.0453 70.6424C56.0665 70.6856 56.0486 70.7379 56.0053 70.7592C55.7509 70.884 55.4876 71.0057 55.2227 71.121C55.2113 71.1259 55.1995 71.1283 55.1879 71.1283ZM56.7281 70.372C56.6973 70.372 56.6675 70.3557 56.6517 70.3268C56.6284 70.2847 56.6436 70.2316 56.6859 70.2083C56.9366 70.0698 57.1844 69.9246 57.4224 69.7767C57.4635 69.7515 57.5171 69.7639 57.5426 69.8049C57.568 69.8458 57.5555 69.8996 57.5145 69.9251C57.274 70.0745 57.0235 70.2212 56.7702 70.3611C56.7568 70.3685 56.7424 70.372 56.7281 70.372ZM58.1852 69.466C58.1576 69.466 58.1305 69.4529 58.1136 69.4287C58.086 69.3891 58.0956 69.3348 58.1351 69.3071C58.3685 69.1441 58.599 68.9731 58.8203 68.7989C58.8582 68.7687 58.9131 68.7755 58.9428 68.8134C58.9726 68.8514 58.9661 68.9062 58.9282 68.936C58.7044 69.1122 58.4712 69.2853 58.2351 69.4502C58.2198 69.4608 58.2025 69.466 58.1852 69.466ZM59.5326 68.4041C59.5085 68.4041 59.4846 68.3942 59.4674 68.3748C59.4353 68.3388 59.4385 68.2836 59.4746 68.2516C59.6873 68.0627 59.8959 67.8656 60.0946 67.6661C60.1286 67.6319 60.1839 67.6318 60.2179 67.6658C60.2521 67.6999 60.2522 67.755 60.2182 67.7891C60.0171 67.9912 59.8059 68.1907 59.5905 68.382C59.5739 68.3968 59.5533 68.4041 59.5326 68.4041ZM60.7424 67.188C60.722 67.188 60.7015 67.1808 60.6848 67.1663C60.6486 67.1345 60.6451 67.0793 60.6768 67.0431C60.8635 66.8304 61.0458 66.6088 61.2184 66.3846C61.2477 66.3463 61.3025 66.3391 61.3407 66.3686C61.3789 66.398 61.3861 66.4528 61.3566 66.4909C61.1817 66.7182 60.9972 66.9427 60.8081 67.1583C60.7908 67.1778 60.7666 67.188 60.7424 67.188ZM61.7887 65.8281C61.772 65.8281 61.7551 65.8233 61.7401 65.8133C61.7002 65.7864 61.6895 65.7322 61.7163 65.6922C61.874 65.4575 62.0262 65.2143 62.1689 64.9692C62.193 64.9278 62.2464 64.9135 62.2882 64.9377C62.3298 64.962 62.3439 65.0154 62.3196 65.0571C62.1751 65.3053 62.0209 65.5517 61.8613 65.7895C61.8444 65.8146 61.8168 65.8281 61.7887 65.8281ZM62.6523 64.3449C62.6393 64.3449 62.6259 64.342 62.6134 64.3357C62.5703 64.3141 62.5527 64.2618 62.5743 64.2186C62.7007 63.966 62.821 63.7053 62.9319 63.4439C62.9506 63.3993 63.0021 63.3788 63.0463 63.3976C63.0907 63.4165 63.1113 63.4678 63.0925 63.5121C62.9802 63.7768 62.8584 64.0407 62.7304 64.2967C62.7151 64.3273 62.6843 64.3449 62.6523 64.3449ZM63.3234 62.7648C63.3138 62.7648 63.304 62.7632 63.2943 62.7597C63.2489 62.7436 63.2251 62.6937 63.2412 62.6484C63.3354 62.3826 63.4233 62.1091 63.5026 61.8354C63.5159 61.7892 63.5642 61.7622 63.6106 61.7759C63.6569 61.7892 63.6836 61.8377 63.6701 61.8839C63.5899 62.1609 63.501 62.4376 63.4057 62.7066C63.393 62.7424 63.3594 62.7648 63.3234 62.7648ZM63.8015 61.1151C63.7951 61.1151 63.7885 61.1144 63.7819 61.1129C63.7349 61.1022 63.7056 61.0553 63.7163 61.0083C63.7791 60.7339 63.8354 60.452 63.8836 60.1704C63.8917 60.123 63.9368 60.0905 63.9843 60.0991C64.0318 60.1073 64.0637 60.1523 64.0555 60.1999C64.0069 60.4845 63.95 60.7697 63.8864 61.0473C63.8771 61.0877 63.8412 61.1151 63.8015 61.1151ZM64.0919 59.4219C64.0885 59.4219 64.0851 59.4216 64.0817 59.4212C64.0338 59.4156 63.9995 59.3724 64.0051 59.3245C64.0376 59.0433 64.0633 58.7569 64.0813 58.4728C64.0842 58.4246 64.1247 58.3877 64.1739 58.3912C64.2219 58.3942 64.2585 58.4357 64.2555 58.4838C64.2373 58.7709 64.2113 59.0605 64.1784 59.3445C64.1732 59.389 64.1355 59.4219 64.0919 59.4219ZM64.2 57.7066C64.1997 57.7066 64.1995 57.7066 64.1991 57.7066C64.151 57.7061 64.1122 57.6666 64.1127 57.6185L64.1135 57.4558C64.1135 57.2231 64.1083 56.9904 64.0982 56.7642C64.0961 56.716 64.1333 56.6753 64.1815 56.6731C64.2311 56.6731 64.2705 56.7083 64.2726 56.7564C64.2829 56.9851 64.2881 57.2204 64.2881 57.4557L64.2872 57.62C64.2868 57.6679 64.2478 57.7066 64.2 57.7066Z" fill="#1E3A59"/>
<path d="M53.9762 71.6098C53.9405 71.6098 53.907 71.5878 53.8941 71.5523C53.8778 71.5069 53.9012 71.4569 53.9465 71.4405C54.084 71.3907 54.2197 71.34 54.3537 71.2886C54.398 71.2713 54.4491 71.2936 54.4665 71.3386C54.4837 71.3836 54.4613 71.434 54.4163 71.4513C54.2813 71.5034 54.1446 71.5545 54.0059 71.6046C53.9961 71.6081 53.9861 71.6098 53.9762 71.6098Z" fill="#1E3A59"/>
<g opacity="0.2">
<path d="M61.5067 50.7332C61.1376 48.7595 63.2123 47.3648 64.9267 48.1091C66.9507 48.9878 66.6516 52.0471 63.4936 52.6023C63.4936 52.6023 65.3531 51.3306 64.3005 50.0657C63.2479 48.8007 61.5067 50.7332 61.5067 50.7332Z" fill="#16044E"/>
</g>
<path d="M61.5067 50.7331C60.9376 48.4531 63.7896 46.8792 65.5576 48.2994C66.4245 48.9518 66.6009 50.2618 66.0328 51.1591C65.5 52.0532 64.4908 52.5046 63.4936 52.6022C64.8364 52.3064 66.2706 51.2026 66.0197 49.6969C65.8779 48.7689 65.0002 48.1216 64.0897 48.0595C62.6285 47.9289 61.2687 49.2399 61.5067 50.7331Z" fill="#1E3A59"/>
<path d="M44.794 59.355C44.2136 59.8425 44.2269 62.4087 44.6257 62.3556C44.8868 62.3208 45.0699 60.7943 45.6646 59.8309C46.1473 59.0488 45.8162 58.4963 44.794 59.355Z" fill="#1E3A59"/>
<path d="M1.77238 93.2509C1.6051 93.2509 1.44074 93.1709 1.33939 93.0223C1.17642 92.7833 1.23803 92.4576 1.47687 92.2948C4.0043 90.5711 10.198 89.8629 12.1663 91.0725C12.4127 91.2239 12.4896 91.5463 12.3382 91.7926C12.1868 92.0391 11.8644 92.1161 11.618 91.9645C10.1329 91.0518 4.36574 91.5917 2.06691 93.1597C1.97661 93.2214 1.87394 93.2509 1.77238 93.2509Z" fill="#1E3A59"/>
<path d="M2.05623 98.0574C1.85603 98.0574 1.66499 97.942 1.57798 97.7475C1.45998 97.4836 1.57806 97.174 1.84197 97.056C2.08389 96.9477 7.82841 94.4145 13.166 95.3127C13.4511 95.3607 13.6434 95.6307 13.5954 95.9158C13.5475 96.2009 13.278 96.3929 12.9924 96.3452C7.97149 95.5005 2.32593 97.9865 2.26949 98.0117C2.20012 98.0428 2.12758 98.0574 2.05623 98.0574Z" fill="#1E3A59"/>
<path d="M3.04565 102.852C2.90496 102.852 2.76469 102.796 2.66152 102.684C2.46494 102.472 2.4776 102.141 2.68971 101.944C3.68702 101.02 9.38169 98.9964 14.2677 100.387C14.5458 100.466 14.7071 100.756 14.6279 101.034C14.5488 101.312 14.2583 101.473 13.9811 101.394C9.31067 100.064 4.08389 102.08 3.40137 102.712C3.30063 102.806 3.17302 102.852 3.04565 102.852Z" fill="#1E3A59"/>
<path d="M4.91556 107.749C4.70164 107.749 4.50074 107.617 4.42347 107.404C4.32474 107.133 4.46489 106.832 4.73653 106.734C5.00516 106.636 11.3562 104.36 14.8605 105.938C15.1242 106.057 15.2417 106.367 15.1229 106.63C15.0043 106.894 14.6941 107.012 14.4306 106.893C11.3137 105.489 5.15604 107.695 5.09422 107.718C5.03525 107.739 4.97483 107.749 4.91556 107.749Z" fill="#1E3A59"/>
<path d="M27.7205 73.304C27.6725 73.304 27.6333 73.2651 27.6332 73.2169C27.6331 73.1687 27.6721 73.1295 27.7203 73.1294C27.9856 73.1289 28.2697 73.1207 28.5888 73.1044C28.6369 73.1003 28.6779 73.1389 28.6803 73.1871C28.6828 73.2351 28.6458 73.2762 28.5976 73.2786C28.2757 73.2951 27.9889 73.3034 27.7207 73.304C27.7207 73.304 27.7206 73.304 27.7205 73.304ZM26.8489 73.2704C26.8464 73.2704 26.8437 73.2702 26.8411 73.2699C26.5313 73.2422 26.2377 73.1951 25.9687 73.1297C25.9218 73.1183 25.8931 73.0711 25.9044 73.0243C25.9158 72.9776 25.9627 72.9487 26.0098 72.9601C26.2705 73.0234 26.5554 73.0693 26.8565 73.0962C26.9046 73.1005 26.94 73.1428 26.9357 73.1908C26.9317 73.2362 26.8936 73.2704 26.8489 73.2704ZM29.4641 73.2206C29.419 73.2206 29.3809 73.1859 29.3772 73.1402C29.3734 73.0922 29.4092 73.0501 29.4573 73.0463C29.7402 73.0237 30.0303 72.9974 30.3253 72.9687C30.3729 72.9636 30.4161 72.999 30.4206 73.0471C30.4253 73.0951 30.3902 73.1377 30.3422 73.1423C30.0462 73.1712 29.7551 73.1975 29.4711 73.2203C29.4688 73.2205 29.4664 73.2206 29.4641 73.2206ZM38.9475 73.1567C38.9289 73.1567 38.9102 73.1508 38.8943 73.1385C38.7121 72.9979 38.4561 72.8857 38.1335 72.8051C38.0868 72.7933 38.0583 72.746 38.07 72.6992C38.0818 72.6524 38.1294 72.6246 38.1759 72.6357C38.522 72.7223 38.7996 72.8449 39.0009 73.0004C39.0391 73.0298 39.0462 73.0846 39.0167 73.1228C38.9995 73.145 38.9737 73.1567 38.9475 73.1567ZM31.2021 73.0542C31.1581 73.0542 31.1201 73.0209 31.1155 72.976C31.1104 72.9282 31.1452 72.8852 31.1931 72.8801L32.0609 72.787C32.1082 72.7813 32.1518 72.8165 32.157 72.8645C32.1622 72.9123 32.1275 72.9554 32.0796 72.9606L31.2114 73.0537C31.2083 73.054 31.2051 73.0542 31.2021 73.0542ZM32.9389 72.8689C32.8947 72.8689 32.8568 72.8355 32.8522 72.7906C32.8473 72.7427 32.8821 72.6997 32.93 72.6948C33.2221 72.6646 33.5128 72.6355 33.7998 72.6089C33.8471 72.6042 33.8903 72.6397 33.8948 72.6878C33.8992 72.7357 33.8639 72.7783 33.8159 72.7827C33.5294 72.8093 33.2394 72.8382 32.948 72.8684C32.9449 72.8687 32.9419 72.8689 32.9389 72.8689ZM25.1691 72.8424C25.1563 72.8424 25.1432 72.8395 25.131 72.8335C24.8487 72.6957 24.6001 72.5262 24.392 72.3297C24.3569 72.2967 24.3553 72.2414 24.3885 72.2064C24.4215 72.1714 24.4767 72.1697 24.5118 72.2029C24.707 72.3873 24.9411 72.5467 25.2074 72.6767C25.2508 72.6978 25.2688 72.7501 25.2476 72.7933C25.2325 72.8243 25.2014 72.8424 25.1691 72.8424ZM34.6775 72.7102C34.6323 72.7102 34.594 72.6751 34.5906 72.6293C34.587 72.5812 34.6231 72.5393 34.6712 72.5358C34.9699 72.5138 35.262 72.4958 35.5453 72.4833C35.5928 72.4826 35.6341 72.5185 35.6363 72.5667C35.6384 72.6147 35.601 72.6556 35.5529 72.6577C35.2714 72.67 34.9809 72.688 34.684 72.7099C34.6818 72.71 34.6797 72.7102 34.6775 72.7102ZM37.2934 72.6735C37.2909 72.6735 37.2885 72.6735 37.286 72.6731C37.027 72.6513 36.7361 72.6396 36.4212 72.6385C36.3731 72.6383 36.3341 72.5991 36.3342 72.5509C36.3344 72.5029 36.3735 72.4639 36.4215 72.4639C36.4216 72.4639 36.4217 72.4639 36.4218 72.4639C36.7414 72.4651 37.037 72.477 37.3006 72.4994C37.3487 72.5034 37.3843 72.5456 37.3802 72.5936C37.3764 72.6391 37.3383 72.6735 37.2934 72.6735ZM23.9389 71.6544C23.9063 71.6544 23.8751 71.6362 23.8601 71.6048C23.6494 71.1646 23.6387 70.7998 23.6387 70.7312C23.6387 70.683 23.6778 70.6411 23.726 70.6411C23.7741 70.6411 23.8133 70.6773 23.8133 70.7255V70.7312C23.8133 70.7692 23.819 71.1146 24.0175 71.5295C24.0383 71.573 24.02 71.6251 23.9764 71.6459C23.9643 71.6516 23.9514 71.6544 23.9389 71.6544Z" fill="#1E3A59"/>
<path d="M27.9962 89.9521C28.8108 92.1598 29.0294 94.5384 28.9848 96.8715C28.6065 94.8061 27.9891 92.763 26.9621 90.9293C26.8974 90.8175 26.8226 90.6909 26.7639 90.6083L27.9962 89.9521Z" fill="#1E3A59"/>
<path d="M28.6134 100.095C28.5768 100.095 28.5427 100.072 28.5306 100.035C28.5154 99.9896 28.5402 99.9403 28.5859 99.9251C28.589 99.9241 28.9003 99.8203 29.4057 99.6255C29.4505 99.6081 29.5012 99.6305 29.5185 99.6755C29.5358 99.7205 29.5135 99.771 29.4685 99.7883C28.9588 99.9848 28.644 100.09 28.6409 100.091C28.6317 100.094 28.6225 100.095 28.6134 100.095ZM30.2486 99.4683C30.2145 99.4683 30.182 99.4481 30.168 99.4146C30.1496 99.3702 30.1705 99.319 30.215 99.3004C30.4625 99.1972 30.731 99.0816 31.015 98.9542C31.0596 98.9345 31.1107 98.9543 31.1303 98.9981C31.1501 99.042 31.1304 99.0937 31.0864 99.1134C30.8008 99.2415 30.5309 99.3577 30.2822 99.4616C30.2711 99.4661 30.2598 99.4683 30.2486 99.4683ZM31.8432 98.7528C31.8107 98.7528 31.7795 98.7345 31.7646 98.7033C31.7436 98.6599 31.7619 98.6078 31.8053 98.5869C32.0586 98.4648 32.3195 98.335 32.5846 98.1976C32.6275 98.1755 32.6803 98.1922 32.7022 98.2349C32.7244 98.2777 32.7077 98.3303 32.6649 98.3525C32.3981 98.4906 32.1358 98.6213 31.8809 98.744C31.8688 98.7499 31.8559 98.7528 31.8432 98.7528ZM33.3942 97.9485C33.3636 97.9485 33.3339 97.9324 33.318 97.9038C33.2945 97.8617 33.3095 97.8085 33.3516 97.7851C33.6092 97.6411 33.8622 97.4937 34.1038 97.3471C34.145 97.3219 34.1987 97.335 34.2236 97.3764C34.2487 97.4175 34.2356 97.4712 34.1943 97.4962C33.951 97.644 33.696 97.7924 33.4367 97.9374C33.4232 97.9449 33.4085 97.9485 33.3942 97.9485ZM34.8868 97.0408C34.8585 97.0408 34.8308 97.0271 34.8141 97.0018C34.7874 96.9616 34.7983 96.9075 34.8384 96.8809C35.0845 96.7174 35.3242 96.5499 35.5512 96.3832C35.59 96.3544 35.6446 96.363 35.6732 96.4018C35.7017 96.4407 35.6934 96.4953 35.6545 96.5239C35.4253 96.6923 35.1833 96.8612 34.935 97.0262C34.9201 97.0361 34.9034 97.0408 34.8868 97.0408ZM36.2921 96.0043C36.267 96.0043 36.2421 95.9935 36.2249 95.9727C36.1942 95.9355 36.1994 95.8806 36.2365 95.8499C36.4666 95.6597 36.6852 95.4666 36.8864 95.2759C36.9214 95.2428 36.9765 95.2441 37.0097 95.2792C37.0429 95.3142 37.0414 95.3694 37.0064 95.4025C36.8024 95.596 36.5808 95.7917 36.3476 95.9843C36.3314 95.9977 36.3118 96.0043 36.2921 96.0043ZM37.555 94.8008C37.5344 94.8008 37.5136 94.7935 37.4971 94.7786C37.461 94.7466 37.4578 94.6914 37.4899 94.6555C37.6883 94.4329 37.8702 94.2065 38.0307 93.9828C38.0587 93.9437 38.1131 93.9344 38.1525 93.9628C38.1916 93.9909 38.2007 94.0455 38.1726 94.0846C38.0085 94.3133 37.8227 94.5444 37.6202 94.7715C37.6029 94.7909 37.579 94.8008 37.555 94.8008Z" fill="#1E3A59"/>
<path d="M52.4924 76.9458C52.2535 77.7026 51.5157 78.1728 50.8596 78.5672L50.5752 77.2004C51.197 77.2787 51.9526 77.3384 52.4924 76.9458Z" fill="#1E3A59"/>
<g opacity="0.25">
<path d="M71.6361 60.8388C71.2463 60.7388 70.8359 61.0083 70.6485 61.3644C70.461 61.7205 70.4472 62.1402 70.4553 62.5425C70.5464 67.0288 72.8336 71.2323 73.0623 75.7137C72.2299 75.13 71.0969 75.0683 70.321 74.4114C69.9747 74.1182 69.7276 73.7282 69.4563 73.3644C67.6903 70.9969 64.8687 69.705 62.1687 68.5077C63.3135 68.3207 64.2688 67.4832 64.8753 66.4944C65.4817 65.5055 65.7917 64.3682 66.0943 63.2484C66.5547 61.5442 67.018 59.8212 67.0734 58.0569C68.5191 58.9452 70.0378 59.7147 71.6091 60.355" fill="#1E3A59"/>
</g>
</svg>
