<svg width="333" height="400" viewBox="0 0 333 400" fill="none" xmlns="http://www.w3.org/2000/svg">
<path d="M256.841 280.812L263.413 277.152C266.205 275.597 267.863 272.584 267.683 269.393L266.472 247.905C266.472 247.905 242.394 264.559 243.799 264.359" fill="white"/>
<path d="M256.844 283.221C255.998 283.221 255.178 282.775 254.737 281.984C254.09 280.823 254.508 279.356 255.669 278.709L262.241 275.049C264.213 273.95 265.406 271.783 265.279 269.529L264.068 248.041C263.993 246.714 265.009 245.577 266.337 245.502C267.648 245.427 268.801 246.442 268.876 247.77L270.087 269.258C270.317 273.342 268.156 277.266 264.584 279.256L258.013 282.916C257.642 283.123 257.24 283.221 256.844 283.221Z" fill="#1E3A59"/>
<path d="M115.796 191.121L113.953 164.36C113.647 159.916 116.672 155.935 121.035 155.04C145.843 149.953 224.679 145.327 251.515 147.862C256.001 148.286 259.561 151.812 260.019 156.294C260.63 162.272 261.448 171.28 261.857 180.135C262.559 195.334 266.472 226.636 266.472 226.636L269.61 242.63C270.778 248.589 267.282 254.474 261.489 256.297L255.637 258.138L122.605 201.755" fill="white"/>
<path d="M137.754 295.862H128.962C123.164 295.862 118.464 291.162 118.464 285.365V270.617L130.307 258.14L135.771 272.2" fill="white"/>
<path d="M137.754 298.269H128.962C121.845 298.269 116.056 292.48 116.056 285.364V270.617C116.056 269.287 117.134 268.209 118.464 268.209C119.794 268.209 120.872 269.287 120.872 270.617V285.364C120.872 289.825 124.501 293.454 128.961 293.454H137.754C139.084 293.454 140.161 294.532 140.161 295.861C140.161 297.191 139.084 298.269 137.754 298.269Z" fill="#1E3A59"/>
<path d="M255.637 260.546C255.316 260.546 254.997 260.482 254.697 260.355L121.665 203.972C120.44 203.453 119.869 202.04 120.388 200.815C120.907 199.592 122.321 199.02 123.544 199.538L255.76 255.575L260.766 254C265.395 252.544 268.181 247.855 267.247 243.094L264.109 227.1C264.099 227.045 264.09 226.99 264.083 226.935C264.044 226.62 260.15 195.365 259.451 180.246C259.046 171.454 258.233 162.502 257.624 156.539C257.284 153.215 254.619 150.574 251.288 150.259C225.771 147.848 146.941 152.186 121.519 157.399C118.352 158.048 116.133 160.969 116.355 164.194L118.198 190.955C118.29 192.282 117.288 193.431 115.962 193.523C114.633 193.615 113.486 192.613 113.394 191.286L111.551 164.525C111.164 158.905 115.033 153.813 120.551 152.682C146.862 147.286 225.33 142.969 251.741 145.465C257.353 145.995 261.841 150.447 262.414 156.049C263.03 162.073 263.851 171.121 264.262 180.024C264.934 194.575 268.628 224.458 268.851 226.255L271.972 242.167C273.379 249.338 269.183 256.4 262.211 258.594L256.359 260.435C256.124 260.509 255.88 260.546 255.637 260.546Z" fill="#1E3A59"/>
<path d="M326.367 166.297C326.367 166.297 334.493 177.783 324.561 189.521C314.629 201.259 308.609 199.754 308.609 199.754C305.852 229.81 295.264 247.32 264.564 232.572C264.564 232.566 264.558 232.566 264.552 232.56C263.781 232.193 262.999 231.802 262.204 231.393C261.235 230.893 260.254 230.363 259.249 229.804C259.249 229.804 261.855 264.717 259.447 284.78C257.04 304.843 272.293 377.078 272.293 377.078C272.293 377.078 274.701 387.516 271.288 391.525C270.222 392.777 268.904 393.873 267.598 394.788C264.618 396.87 261.055 397.948 257.425 397.948H216.618C213.903 397.948 211.538 396.058 210.984 393.397C210.069 389.015 209.624 382.309 213.494 377.174C214.162 376.283 214.963 375.447 215.908 374.67C215.908 374.67 215.926 374.177 215.914 373.292C215.884 368.885 215.276 354.812 209.088 344.777C202.707 334.429 196.327 312.97 194.659 307.143L194.635 307.065V307.059C194.376 306.156 194.238 305.65 194.238 305.65C194.22 306.727 194.202 307.811 194.19 308.906C193.846 332.208 194.382 359.128 195.381 387.973C195.568 393.421 191.21 397.948 185.75 397.948H132.327C129.347 397.948 126.801 395.853 126.181 392.946C125.115 387.955 124.814 380.274 130.78 374.887C133.29 372.611 136.92 370.745 142.066 369.656C142.066 369.656 134.042 328.422 131.032 295.916C128.023 263.411 125.5 242.174 125.5 242.174L94.0121 224.705C94.0121 224.705 106.352 171.311 140.363 159.573C174.373 147.835 236.676 153.855 236.676 153.855C236.676 153.855 253.849 157.569 273.202 180.642L285.735 156.762C290.087 146.746 295.439 143.971 299.05 148.696C300.2 150.201 300.79 152.061 300.874 153.951L301.284 163.083L316.134 154.258C319.143 152.783 322.051 152.001 324.784 152.416C325.073 152.458 325.362 152.524 325.633 152.603C329.052 153.584 331.038 157.178 330.183 160.747C329.677 162.884 328.425 164.744 326.367 166.297Z" fill="white"/>
<g opacity="0.25">
<path d="M152.903 169.811C195.648 188.211 230.815 190.125 251.524 160.585L243.739 156.177C214.894 174.192 184.783 180.315 152.903 169.811Z" fill="#0056A8"/>
</g>
<path d="M182.218 264.048C175.014 264.048 167.745 263.685 160.423 262.959C156.049 262.529 152.466 259.209 151.709 254.886C151.274 252.43 150.875 249.906 150.523 247.389C148.822 235.405 148.192 223.892 148.599 212.197C148.756 207.593 152.158 203.654 156.685 202.832C167.191 200.912 194.656 196.849 222.655 200.587C224.962 200.898 227.094 202.007 228.66 203.71C228.697 203.751 228.734 203.793 228.768 203.836C229.936 205.154 230.73 206.76 231.068 208.49C232.517 215.878 234.795 231.126 233.758 250.226C233.758 250.226 233.758 250.227 233.758 250.228C233.514 254.658 230.315 258.42 225.979 259.375C211.818 262.486 197.166 264.048 182.218 264.048ZM198.412 203.873C180.312 203.873 164.803 206.244 157.548 207.57C155.231 207.991 153.492 210.006 153.411 212.363C153.015 223.774 153.63 235.011 155.291 246.717C155.636 249.181 156.026 251.648 156.452 254.052C156.838 256.257 158.665 257.948 160.897 258.167C182.907 260.349 204.456 259.174 224.944 254.672C227.176 254.18 228.824 252.243 228.95 249.962C229.958 231.386 227.749 216.584 226.343 209.415C226.164 208.501 225.738 207.657 225.111 206.971C225.086 206.944 225.062 206.916 225.038 206.888C224.24 206.057 223.17 205.516 222.016 205.36C213.972 204.286 205.965 203.873 198.412 203.873Z" fill="#1E3A59"/>
<path d="M257.423 399.999H216.616C212.767 399.999 209.407 397.28 208.627 393.534C206.848 384.992 208.581 377.831 213.509 373.216C213.493 369.354 213.001 355.356 207.036 345.683C203.152 339.384 199.327 329.281 196.495 320.833C196.459 339.488 196.886 361.483 197.787 387.531C197.902 390.829 196.704 393.952 194.412 396.324C192.123 398.694 189.047 399.999 185.752 399.999H132.324C128.252 399.999 124.678 397.094 123.826 393.09C122.857 388.539 122.476 381.922 126.163 376.249C128.855 372.106 133.259 369.17 139.275 367.502C137.565 358.416 131.219 323.704 128.634 295.782C126.064 268.028 123.824 248.293 123.249 243.323L92.844 226.457C91.9046 225.935 91.4244 224.855 91.6657 223.809C91.7945 223.253 94.8993 210.015 102.275 195.117C112.161 175.153 125.06 161.952 139.576 156.941C173.691 145.167 234.342 150.854 236.907 151.102C237 151.111 237.092 151.125 237.184 151.145C237.889 151.298 254.028 154.988 272.716 176.034L283.562 155.367C286.668 148.244 290.413 144.224 294.394 143.738C296.852 143.437 299.188 144.552 300.964 146.876C302.369 148.716 303.169 151.001 303.281 153.486L303.51 158.604L314.902 151.83C314.958 151.796 315.016 151.765 315.075 151.737C318.835 149.897 322.127 149.222 325.143 149.677C327.637 150.052 329.789 151.412 331.202 153.505C332.657 155.66 333.14 158.375 332.526 160.951C332.036 163.007 331.009 164.84 329.463 166.42C332.215 171.704 334.164 181.542 326.398 190.72C319.352 199.047 313.89 201.254 310.796 201.742C308.72 221.284 303.454 232.673 294.293 237.502C286.2 241.768 275.588 240.498 261.938 233.603C262.553 243.635 263.769 268.629 261.84 284.711C259.505 304.156 274.495 375.508 274.647 376.226C274.911 377.371 277.199 387.934 273.122 392.73C272.039 394.004 270.644 395.241 268.975 396.407C265.613 398.757 261.618 399.999 257.423 399.999ZM194.24 302.884C195.311 302.884 196.27 303.599 196.56 304.655C196.633 304.923 203.979 331.55 211.135 343.155C218.851 355.669 218.34 373.638 218.314 374.397C218.291 375.091 217.968 375.742 217.43 376.181C212.133 380.505 212.283 387.47 213.341 392.551C213.659 394.076 215.036 395.183 216.616 395.183H257.423C260.626 395.183 263.667 394.241 266.217 392.459C267.549 391.529 268.637 390.571 269.453 389.611C271.257 387.488 270.827 381.112 269.944 377.263C269.309 374.255 254.631 304.364 257.059 284.137C259.41 264.537 256.874 229.971 256.848 229.624C256.782 228.741 257.206 227.892 257.953 227.416C258.701 226.939 259.649 226.911 260.422 227.343C274.222 235.044 284.862 237.029 292.048 233.242C299.851 229.129 304.484 217.986 306.211 199.178C306.279 198.441 306.58 197.745 307.202 197.344C307.808 196.952 308.46 196.826 309.141 197.044C309.689 197.086 314.642 197.158 322.723 187.609C331.283 177.492 324.681 167.732 324.396 167.321C323.657 166.259 323.885 164.795 324.917 164.016C326.499 162.823 327.456 161.456 327.842 159.836C328.144 158.567 327.914 157.241 327.211 156.199C326.56 155.237 325.572 154.612 324.426 154.439C322.433 154.137 320.093 154.656 317.278 156.02L302.516 164.798C301.789 165.231 300.888 165.249 300.142 164.847C299.397 164.445 298.918 163.682 298.88 162.836L298.47 153.702C298.403 152.203 297.942 150.853 297.138 149.8C296.058 148.387 295.242 148.484 294.978 148.518C293.422 148.708 290.646 151.139 287.944 157.367C287.92 157.421 287.894 157.474 287.867 157.527L275.336 181.405C274.963 182.115 274.26 182.594 273.462 182.68C272.665 182.767 271.875 182.448 271.359 181.833C253.692 160.768 237.81 156.273 236.279 155.88C232.697 155.552 173.421 150.355 141.148 161.493C112.195 171.486 99.2822 213.978 96.8072 223.148L126.666 239.711C127.343 240.087 127.797 240.764 127.889 241.533C127.914 241.745 130.451 263.173 133.43 295.338C136.394 327.353 144.351 368.428 144.432 368.839C144.683 370.13 143.852 371.383 142.566 371.655C136.663 372.903 132.502 375.332 130.201 378.873C127.413 383.162 127.757 388.426 128.537 392.087C128.925 393.91 130.482 395.183 132.324 395.183H185.752C187.729 395.183 189.574 394.4 190.949 392.978C192.324 391.554 193.044 389.678 192.975 387.698C191.807 353.962 191.433 326.993 191.83 305.248C191.852 304.05 192.75 303.051 193.938 302.902C194.039 302.89 194.14 302.884 194.24 302.884Z" fill="#1E3A59"/>
<path d="M301.975 160.421C305.801 162.263 308.761 166.056 309.453 170.224C309.713 171.492 309.679 172.796 309.612 174.065C309.427 173.457 309.291 172.851 309.07 172.275C308.087 169.543 306.082 167.169 303.481 165.936C302.57 165.516 301.567 165.11 300.596 165.035C297.577 164.033 298.896 159.604 301.975 160.421Z" fill="#1E3A59"/>
<path d="M308.181 201.767C303.169 199.916 298.862 196.253 295.968 191.816C299.653 194.765 304.181 196.748 308.893 197.035C308.951 197.035 309.026 197.039 309.037 197.028L308.181 201.767Z" fill="#1E3A59"/>
<path d="M298.673 218.172C285.617 218.172 277.361 213.296 272.522 208.799C266.259 202.978 264.252 196.58 264.169 196.311C264.001 195.76 264.036 195.166 264.267 194.638L270.999 179.317C271.534 178.1 272.955 177.546 274.172 178.081C275.39 178.616 275.943 180.037 275.409 181.254L269.062 195.698C270.627 199.66 278.902 216.428 305.729 212.872C307.052 212.697 308.258 213.625 308.432 214.942C308.607 216.261 307.68 217.471 306.362 217.646C303.632 218.007 301.071 218.172 298.673 218.172Z" fill="#1E3A59"/>
<path d="M261.856 208.779C261.54 208.779 261.218 208.716 260.908 208.584C259.686 208.06 259.12 206.644 259.644 205.422L264.259 194.659C264.783 193.437 266.198 192.87 267.421 193.395C268.643 193.919 269.209 195.334 268.685 196.557L264.07 207.32C263.679 208.232 262.79 208.779 261.856 208.779Z" fill="#1E3A59"/>
<path d="M104.991 67.8096L95.3594 72.2032C89.7179 74.7767 86.2346 80.5493 86.5875 86.74L88.2193 115.359C88.6208 122.399 93.861 128.215 100.822 129.345L113.502 131.404" fill="white"/>
<path d="M262.771 58.8135L272.84 62.0839C278.737 63.9994 282.854 69.3386 283.207 75.5293L284.839 104.148C285.24 111.188 280.695 117.562 273.908 119.476L261.544 122.963" fill="white"/>
<g opacity="0.25">
<path d="M113.501 131.404L100.818 129.348C93.8645 128.217 88.6198 122.399 88.2183 115.359L87.292 99.1143C87.6933 106.154 92.938 111.972 99.8917 113.103L111.303 114.956L113.501 131.404Z" fill="#0056A8"/>
</g>
<g opacity="0.25">
<path d="M283.909 87.9023L284.835 104.147C285.237 111.187 280.695 117.563 273.907 119.478L261.541 122.962L261.862 106.363L272.981 103.233C279.769 101.318 284.31 94.9418 283.909 87.9023Z" fill="#0056A8"/>
</g>
<path d="M184.908 175.915C232.82 175.915 271.66 137.074 271.66 89.1624C271.66 41.2504 232.82 2.41016 184.908 2.41016C136.996 2.41016 98.1554 41.2504 98.1554 89.1624C98.1554 137.074 136.996 175.915 184.908 175.915Z" fill="white"/>
<g opacity="0.25">
<path d="M189.847 175.774C170.005 176.905 151.348 171.275 136.101 160.886C145.185 163.479 154.845 164.613 164.801 164.044C212.63 161.318 249.2 120.329 246.473 72.4937C244.872 44.5003 230.17 20.3606 208.657 5.7041C243.204 15.526 269.362 46.3387 271.52 84.2242C274.246 132.06 237.683 173.048 189.847 175.774Z" fill="#0056A8"/>
</g>
<path d="M98.2141 94.8026C97.1054 94.8026 96.1764 93.9365 96.1122 92.8157C94.9618 72.6378 103.156 53.1607 119.184 37.9717C135.115 22.8746 156.904 13.8182 180.535 12.4709C204.163 11.1226 226.842 17.6444 244.387 30.8326C262.037 44.1016 272.392 62.5211 273.543 82.6983C273.609 83.8603 272.721 84.8556 271.559 84.9217C270.415 84.9949 269.402 84.1003 269.336 82.9384C268.257 64.0202 258.497 46.7115 241.855 34.201C225.105 21.6095 203.407 15.385 180.774 16.6776C158.136 17.9684 137.292 26.6168 122.083 41.0301C106.97 55.3515 99.2405 73.6573 100.32 92.5755C100.385 93.7374 99.4975 94.7328 98.3356 94.7989C98.2951 94.8015 98.2546 94.8026 98.2141 94.8026Z" fill="#1E3A59"/>
<path d="M113.505 133.813C113.377 133.813 113.247 133.802 113.116 133.781L100.436 131.722C92.2974 130.401 86.2852 123.728 85.8158 115.496L84.1839 86.8771C83.7708 79.6409 87.7652 73.0213 94.3599 70.0126L103.992 65.619C105.199 65.0676 106.629 65.5999 107.182 66.8105C107.733 68.0203 107.2 69.4485 105.99 70.0005L96.3583 74.3942C91.5842 76.572 88.6924 81.3642 88.9912 86.6028L90.6231 115.222C90.963 121.181 95.3155 126.012 101.207 126.969L113.888 129.028C115.201 129.241 116.092 130.478 115.879 131.79C115.687 132.972 114.665 133.813 113.505 133.813Z" fill="#1E3A59"/>
<path d="M261.543 125.372C260.492 125.372 259.527 124.679 259.227 123.617C258.866 122.337 259.611 121.007 260.891 120.646L273.254 117.159C279 115.539 282.775 110.245 282.435 104.285L280.803 75.6665C280.505 70.4276 277.087 65.9952 272.096 64.3739L262.028 61.1036C260.763 60.6929 260.071 59.3344 260.482 58.0696C260.892 56.8049 262.252 56.1129 263.516 56.5237L273.584 59.7941C280.478 62.0332 285.199 68.1562 285.611 75.3926L287.243 104.011C287.713 112.243 282.498 119.556 274.562 121.794L262.198 125.281C261.979 125.343 261.76 125.372 261.543 125.372Z" fill="#1E3A59"/>
<path d="M271.681 87.0651C273.852 125.136 236.838 158.214 189 160.942C145.386 163.429 107.836 139.83 99.9141 106.782C99.1416 103.588 98.6495 100.302 98.458 96.9423C96.2872 58.8711 133.301 25.8029 181.139 23.0752C217.084 21.0256 248.907 36.6944 263.43 60.7584L263.43 60.7679C268.236 68.7307 271.142 77.6115 271.681 87.0651Z" fill="#0056A8"/>
<g opacity="0.35">
<path d="M271.681 87.0649C273.852 125.136 236.838 158.214 189 160.942C145.386 163.428 107.836 139.83 99.9142 106.781C100.504 105.929 100.848 105.462 100.848 105.462C144.949 169.129 265.226 134.179 263.43 60.7676C268.236 68.7305 271.142 77.6113 271.681 87.0649Z" fill="#111A28"/>
</g>
<path d="M184.792 178.327C162.891 178.327 142.028 170.393 125.553 155.695C107.781 139.841 97.248 118.016 95.8926 94.2387C94.5366 70.4621 102.521 47.5802 118.375 29.8088C134.229 12.0374 156.055 1.5032 179.832 0.147531C203.617 -1.20492 226.491 6.77675 244.262 22.6304C262.034 38.4848 272.567 60.3105 273.923 84.0875C275.279 107.865 267.294 130.746 251.44 148.518C235.586 166.289 213.76 176.823 189.983 178.179C188.249 178.277 186.515 178.326 184.792 178.327ZM185.017 4.81508C183.386 4.81508 181.748 4.86166 180.107 4.95543C157.613 6.23802 136.966 16.2029 121.968 33.0145C106.971 49.826 99.4177 71.4719 100.7 93.9647C101.983 116.457 111.947 137.104 128.759 152.102C145.57 167.1 167.218 174.655 189.709 173.37C212.202 172.088 232.849 162.123 247.847 145.312C262.845 128.5 270.398 106.854 269.115 84.3616C267.832 61.869 257.868 41.2221 241.056 26.2241C225.472 12.321 205.734 4.81508 185.017 4.81508Z" fill="#1E3A59"/>
<g opacity="0.5">
<path d="M239.481 124.362C248.058 88.0065 233.667 60.1347 199.5 39.5674C258.44 52.2002 271.717 98.6105 239.481 124.362Z" fill="white"/>
</g>
<g opacity="0.5">
<path d="M129.74 95.5463C129.976 100.38 130.87 107.418 133.656 115.101C135.088 119.051 133.172 123.434 129.306 125.079C125.849 126.55 121.824 125.402 119.685 122.314C114.289 114.523 110.632 105.036 111.49 95.1294C111.975 89.5347 117.456 85.7636 122.893 87.1693C126.76 88.1692 129.546 91.5567 129.74 95.5463Z" fill="white"/>
</g>
<g opacity="0.5">
<path d="M136.173 56.9871C138.176 59.1923 138.517 62.4421 137.014 65.0146L133.06 71.785C131.365 74.6875 127.808 75.9226 124.679 74.6958L124.173 74.4976C120.305 72.9812 118.656 68.3783 120.73 64.7782C121.98 62.6077 123.627 60.0712 125.748 57.367C128.356 54.0425 133.333 53.8595 136.173 56.9871Z" fill="white"/>
</g>
<path d="M54.8911 264.71C34.5687 263.661 36.5288 253.096 36.5288 253.096C37.6684 253.255 67.8268 257.637 67.8268 257.637" fill="#A7A9B7"/>
<path d="M73.673 268.774L114.356 272.182C115.892 272.311 117.403 271.735 118.464 270.617L156.585 230.451C157.442 229.548 157.919 228.351 157.919 227.106V224.343C157.919 221.963 156.196 219.933 153.847 219.548L78.4613 207.174L73.673 268.774Z" fill="#A7A9B7"/>
<path d="M114.79 274.608C114.579 274.608 114.368 274.599 114.155 274.581L73.4719 271.173C72.1521 271.062 71.1692 269.907 71.272 268.587L76.0606 206.987C76.1133 206.314 76.4447 205.695 76.9752 205.279C77.5056 204.863 78.1855 204.689 78.8513 204.797L154.237 217.171C157.766 217.751 160.327 220.766 160.327 224.342V227.106C160.327 228.975 159.618 230.752 158.331 232.108L120.21 272.274C118.786 273.776 116.838 274.608 114.79 274.608ZM76.259 266.574L114.557 269.782C115.374 269.851 116.157 269.55 116.717 268.959L154.838 228.793C155.272 228.336 155.511 227.736 155.511 227.106V224.342C155.511 223.136 154.647 222.119 153.457 221.924L80.6587 209.974L76.259 266.574Z" fill="#1E3A59"/>
<path d="M111.86 263.621L35.6402 252.973C30.4573 252.251 25.7741 249.421 22.8065 245.105C21.8013 243.649 20.8321 242.132 19.893 240.567C7.09539 219.294 0.257203 189.19 3.03829 172.618C3.62223 169.163 6.98106 166.893 10.4122 167.616L95.3964 185.452C99.6342 186.342 103.011 189.563 104.095 193.758C104.582 195.643 105.058 197.521 105.527 199.393C110.644 219.691 114.864 239.248 117.639 257.776C118.144 261.165 115.255 264.097 111.86 263.621Z" fill="#A7A9B7"/>
<g opacity="0.6">
<path d="M8.66049 178.439C5.71094 195.968 13.5484 228.654 27.7967 249.999C25.8524 248.717 24.155 247.062 22.8065 245.105C8.15484 223.79 0.0525289 190.406 3.03825 172.618C3.62219 169.163 6.98102 166.893 10.4122 167.616L95.3964 185.452C99.0623 186.222 102.084 188.732 103.529 192.115C102.734 191.736 101.891 191.453 101.013 191.272L16.0346 173.437C12.5973 172.714 9.23836 174.983 8.66049 178.439Z" fill="white"/>
</g>
<path d="M112.591 266.078C112.237 266.078 111.882 266.054 111.524 266.004L35.3083 255.357C29.4195 254.535 24.1385 251.294 20.821 246.466C6.60698 225.784 -2.62246 191.784 0.66613 172.22C1.05571 169.904 2.3404 167.898 4.28497 166.572C6.23982 165.238 8.59268 164.772 10.9087 165.258L95.8903 183.094C101.066 184.18 105.103 188.036 106.425 193.157C112.797 217.852 117.243 238.872 120.018 257.42C120.373 259.796 119.608 262.138 117.919 263.844C116.485 265.293 114.587 266.078 112.591 266.078ZM112.19 261.235C113.05 261.352 113.889 261.07 114.497 260.456C115.108 259.84 115.384 258.992 115.255 258.132C112.505 239.751 108.092 218.892 101.761 194.36C100.901 191.026 98.272 188.514 94.9012 187.807L9.91899 169.971C8.89802 169.757 7.8607 169.963 6.99879 170.55C6.14716 171.131 5.58527 172.008 5.41531 173.019C2.69827 189.181 9.98674 222.199 24.7899 243.738C27.3441 247.455 31.4208 249.952 35.9748 250.588L112.19 261.235Z" fill="#1E3A59"/>
<path d="M112.336 266.071C111.245 266.071 110.258 265.326 109.995 264.219L95.6556 203.848C94.6044 199.422 91.0539 195.933 86.6095 194.96L2.30106 176.503C1.00187 176.218 0.179233 174.935 0.463522 173.636C0.748432 172.337 2.03672 171.513 3.33058 171.799L87.639 190.256C93.8793 191.622 98.865 196.521 100.341 202.736L114.68 263.106C114.987 264.4 114.188 265.698 112.894 266.005C112.707 266.049 112.519 266.071 112.336 266.071Z" fill="#1E3A59"/>
<path d="M54.8927 267.119C54.851 267.119 54.8092 267.118 54.7669 267.116C45.8005 266.653 39.6117 264.336 36.3721 260.229C33.5269 256.623 34.0882 253.053 34.1614 252.658C34.4039 251.349 35.6687 250.489 36.9679 250.73C38.2628 250.97 39.1218 252.205 38.9028 253.498C38.8847 253.635 38.6747 255.449 40.2389 257.354C41.8786 259.35 45.7727 261.83 55.0147 262.307C56.343 262.375 57.364 263.507 57.2956 264.835C57.2292 266.121 56.1659 267.119 54.8927 267.119Z" fill="#1E3A59"/>
<path d="M117.694 259.042C117.167 259.042 116.639 258.845 116.23 258.449C115.393 257.64 115.371 256.306 116.18 255.47L152.332 218.082C153.141 217.246 154.475 217.224 155.311 218.032C156.148 218.841 156.17 220.175 155.362 221.012L119.209 258.399C118.796 258.827 118.245 259.042 117.694 259.042Z" fill="#1E3A59"/>
<g opacity="0.25">
<path d="M117.695 256.935L153.847 219.547L156.66 221.084L157.919 229.245L118.464 271.845L116.485 269.776L115.137 263.671L117.695 260.346" fill="#1E3A59"/>
</g>
<path d="M115.793 273.79C114.642 273.79 113.624 272.961 113.423 271.787L112.105 264.075C111.881 262.764 112.762 261.52 114.073 261.296C115.383 261.074 116.627 261.953 116.852 263.264L118.17 270.976C118.394 272.287 117.513 273.531 116.202 273.755C116.065 273.779 115.928 273.79 115.793 273.79Z" fill="#1E3A59"/>
<path d="M119.444 231.603C119.35 231.603 119.254 231.595 119.159 231.58L112.052 230.443C111.319 230.326 110.733 229.773 110.573 229.048L108.427 219.294C108.298 218.706 108.47 218.093 108.886 217.658C109.301 217.223 109.906 217.024 110.499 217.126L125.805 219.775C126.422 219.882 126.939 220.3 127.172 220.88C127.406 221.46 127.323 222.119 126.953 222.623L120.899 230.866C120.557 231.334 120.013 231.603 119.444 231.603ZM113.837 227.071L118.641 227.84L122.316 222.837L112.533 221.144L113.837 227.071Z" fill="#1E3A59"/>
<path d="M117.693 250.314C117.304 250.314 116.913 250.188 116.583 249.931C115.797 249.317 115.657 248.182 116.271 247.396L123.597 238.016L113.468 236.923C112.476 236.816 111.76 235.925 111.867 234.933C111.973 233.942 112.873 233.227 113.855 233.331L127.212 234.773C127.864 234.844 128.427 235.262 128.682 235.865C128.937 236.469 128.845 237.163 128.442 237.68L119.118 249.619C118.761 250.075 118.23 250.314 117.693 250.314Z" fill="#1E3A59"/>
<g opacity="0.25">
<path d="M111.86 263.62L35.6402 252.972C30.4574 252.249 25.7742 249.42 22.8066 245.104C21.8013 243.647 20.8322 242.131 19.8931 240.565C94.4513 254.344 97.9968 203.292 97.9968 203.292L105.527 199.392C110.644 219.69 114.864 239.247 117.639 257.775C118.144 261.164 115.255 264.096 111.86 263.62Z" fill="#1E3A59"/>
</g>
<path d="M82.5746 273.438C103.254 267.572 86.6378 251.768 76.4046 249.209C59.8772 244.19 52.4178 255.92 55.6164 265.534C56.4165 267.938 58.1188 269.947 60.3054 271.228C66.7119 274.981 74.2279 275.442 82.5746 273.438Z" fill="#F9F9F9"/>
<g opacity="0.25">
<path d="M82.5746 273.439C74.2255 275.444 66.7131 274.98 60.3083 271.23C58.1173 269.948 56.4136 267.937 55.6191 265.536C55.2038 264.284 54.9629 262.995 54.9088 261.713C61.2173 265.235 68.5732 265.626 76.7298 263.67C83.9773 261.617 86.644 258.336 86.6079 254.839C93.4039 260.738 96.7387 269.424 82.5746 273.439Z" fill="#0056A8"/>
</g>
<path d="M73.4247 277.006C68.0929 277.006 63.2958 275.771 59.0886 273.306C56.3461 271.699 54.3012 269.21 53.3315 266.295C51.4281 260.575 52.7363 254.465 56.7454 250.349C59.443 247.579 65.6645 243.451 77.0484 246.889C84.2491 248.717 94.7348 256.47 94.8619 264.529C94.9181 268.129 92.9463 272.999 83.2318 275.755C83.2003 275.764 83.1688 275.772 83.1367 275.78C79.731 276.598 76.4889 277.006 73.4247 277.006ZM68.9392 250.413C65.3252 250.413 62.3234 251.524 60.1955 253.709C57.4476 256.53 56.5689 260.77 57.9007 264.774C58.502 266.58 59.7884 268.135 61.5225 269.151C67.1047 272.421 73.7901 273.062 81.9653 271.109C85.6936 270.045 90.1005 268.056 90.0467 264.605C89.9692 259.691 81.967 253.082 75.8205 251.546C75.7818 251.536 75.7431 251.525 75.7049 251.514C73.2814 250.778 71.0095 250.413 68.9392 250.413Z" fill="#1E3A59"/>
<path d="M142.656 366.965L149.241 371.106L141.48 371.635C140.085 371.73 138.877 370.676 138.781 369.281C138.58 367.267 140.999 365.851 142.656 366.965Z" fill="#1E3A59"/>
<path d="M214.157 372.664C218.925 368.736 225.4 367.559 231.381 367.517C234.531 367.568 237.779 368.008 240.849 368.656L244.501 369.601C242.287 369.362 239.221 369.125 237.037 369.179C236.357 369.217 234.914 369.254 234.264 369.302C233.698 369.366 232.117 369.549 231.527 369.618C227.439 370.302 223.351 371.562 219.988 373.938C219.148 374.529 218.291 375.207 217.659 375.969C215.429 378.221 212.032 375.032 214.157 372.664Z" fill="#1E3A59"/>
<path d="M228.515 354.547C222.879 354.547 217.218 353.998 211.876 353.28C210.558 353.103 209.633 351.891 209.81 350.573C209.987 349.255 211.198 348.329 212.517 348.508C239.707 352.161 254.574 347.608 262.222 333.28C262.849 332.107 264.308 331.663 265.481 332.291C266.654 332.917 267.097 334.375 266.471 335.549C258.419 350.63 243.562 354.547 228.515 354.547Z" fill="#1E3A59"/>
<path d="M166.519 354.317C151.158 354.317 137.933 348.941 137.043 348.572C135.815 348.062 135.233 346.653 135.743 345.425C136.253 344.197 137.66 343.614 138.889 344.124C139.219 344.261 172.165 357.614 192.75 341.388C193.795 340.563 195.308 340.744 196.131 341.788C196.954 342.832 196.775 344.346 195.731 345.17C186.874 352.152 176.265 354.317 166.519 354.317Z" fill="#1E3A59"/>
<path d="M155.219 287.972C184.588 294.847 199.088 294.887 228.44 287.972C228.573 287.921 228.76 287.98 228.785 288.141C228.808 288.248 228.753 288.355 228.658 288.401L224.356 290.515C204.854 299.621 183.718 300.451 163.707 292.415C161.078 291.354 157.548 289.697 155.001 288.401C154.884 288.344 154.836 288.202 154.893 288.085C154.963 287.958 155.092 287.931 155.219 287.972Z" fill="#1E3A59"/>
<path d="M194.223 308.353C193.025 308.353 191.988 307.46 191.836 306.24L190.794 297.813C190.631 296.493 191.568 295.291 192.888 295.128C194.208 294.965 195.41 295.902 195.574 297.222L196.616 305.649C196.779 306.969 195.842 308.171 194.522 308.334C194.422 308.347 194.322 308.353 194.223 308.353Z" fill="#1E3A59"/>
<path d="M256.864 229.78C254.65 210.847 250.657 191.91 243.799 174.065C245.882 178.395 247.858 182.797 249.588 187.298C254.822 200.867 258.792 214.822 261.633 229.111C262.144 232.407 257.292 233.11 256.864 229.78Z" fill="#1E3A59"/>
<path d="M188.844 261.403L187.926 237.954C187.829 235.48 188.85 233.134 190.727 231.519L197.676 225.54C198.412 224.907 198.825 223.988 198.809 223.018L198.452 201.497L203.266 201.417L203.623 222.938C203.664 225.342 202.641 227.622 200.817 229.191L193.868 235.169C193.11 235.821 192.699 236.767 192.738 237.765L193.656 261.215L188.844 261.403Z" fill="#1E3A59"/>
<path d="M171.213 236.719C176.532 236.719 180.844 232.205 180.844 226.637C180.844 221.068 176.532 216.554 171.213 216.554C165.893 216.554 161.581 221.068 161.581 226.637C161.581 232.205 165.893 236.719 171.213 236.719Z" fill="#07C7FF"/>
<path d="M171.213 239.127C164.574 239.127 159.173 233.524 159.173 226.636C159.173 219.749 164.574 214.146 171.213 214.146C177.851 214.146 183.252 219.749 183.252 226.636C183.252 233.524 177.851 239.127 171.213 239.127ZM171.213 218.961C167.23 218.961 163.989 222.404 163.989 226.636C163.989 230.868 167.23 234.311 171.213 234.311C175.196 234.311 178.436 230.868 178.436 226.636C178.436 222.404 175.196 218.961 171.213 218.961Z" fill="#1E3A59"/>
<path d="M230.731 225.29C229.483 225.29 228.427 224.327 228.332 223.062C228.232 221.736 229.227 220.58 230.552 220.481L256.66 218.517C257.992 218.415 259.142 219.412 259.242 220.737C259.342 222.064 258.348 223.219 257.022 223.319L230.914 225.283C230.852 225.287 230.791 225.29 230.731 225.29Z" fill="#1E3A59"/>
<path d="M259.251 244.094H231.612C230.282 244.094 229.204 243.016 229.204 241.686C229.204 240.357 230.282 239.278 231.612 239.278H259.251C260.581 239.278 261.659 240.357 261.659 241.686C261.659 243.012 260.587 244.088 259.263 244.094C259.259 244.094 259.255 244.094 259.251 244.094Z" fill="#1E3A59"/>
<path d="M152.903 253.525H137.754C136.424 253.525 135.346 252.446 135.346 251.117C135.346 249.787 136.424 248.709 137.754 248.709H152.903C154.233 248.709 155.311 249.787 155.311 251.117C155.311 252.446 154.233 253.525 152.903 253.525Z" fill="#1E3A59"/>
<path d="M134.794 180.136C132.297 186.403 130.888 193.046 130.061 199.711C129.417 204.821 129.268 210.076 129.426 215.214L124.612 215.074C124.949 212.009 125.315 208.954 125.908 205.933C127.608 196.995 130.361 188.097 134.794 180.136Z" fill="#1E3A59"/>
<g opacity="0.25">
<path d="M231.354 250.095C231.167 253.472 228.766 256.295 225.461 257.024C204.254 261.683 182.638 262.742 160.66 260.563C157.356 260.238 154.653 257.74 154.081 254.471C153.647 252.021 153.256 249.547 152.907 247.055C191.914 256.024 218.616 245.382 226.887 205.346C227.79 206.333 228.434 207.567 228.705 208.951C230.168 216.41 232.371 231.35 231.354 250.095Z" fill="#0056A8"/>
</g>
<g opacity="0.25">
<path d="M271.288 391.169C270.222 392.421 268.904 393.517 267.598 394.432C264.618 396.514 261.055 397.592 257.425 397.592H216.618C213.903 397.592 211.538 395.702 210.984 393.041C210.069 388.659 209.624 381.953 213.494 376.818C213.609 377.083 213.711 377.366 213.801 377.673C216.51 386.949 239.685 389.182 252.326 381.038C264.967 372.894 253.229 331.377 250.292 309.706C247.348 288.036 236.977 284.725 236.977 284.725C242.656 275.956 246.103 265.283 248.062 254.117C248.582 251.154 246.386 248.403 243.384 248.217L238.331 247.903C238.331 247.903 241.04 252.52 234.719 260.496C228.399 268.472 191.077 268.773 177.383 268.472C163.688 268.171 161.582 261.309 161.582 261.309C161.582 261.309 172.266 262.302 174.223 261.646C176.179 260.996 216.811 260.346 224.185 258.137C231.559 255.933 231.613 248.608 231.613 248.608L232.311 233.499H244.184C247.529 233.499 250.263 230.804 250.286 227.459C250.459 201.312 245.585 178.608 245.44 177.914C250.406 190.278 254.915 206.693 259.249 224.632L262.204 231.037C261.235 230.537 260.254 230.007 259.249 229.447C259.249 229.447 261.855 264.361 259.448 284.424C257.04 304.487 272.293 376.722 272.293 376.722C272.293 376.722 274.701 387.16 271.288 391.169Z" fill="#0056A8"/>
</g>
<g opacity="0.25">
<path d="M195.381 387.617C195.568 393.065 191.21 397.592 185.75 397.592H132.326C129.347 397.592 126.8 395.497 126.18 392.59C125.115 387.599 124.814 379.918 130.779 374.531C131.153 375.494 131.441 376.542 131.634 377.673C134.343 393.571 151.198 389.207 162.033 389.183C172.868 389.158 176.48 367.494 174.373 340.707C172.266 313.92 165.885 292.852 165.885 292.852L173.97 293.556L193.184 296.662C193.184 296.662 193.569 301.279 194.189 308.551C193.846 331.852 194.382 358.772 195.381 387.617Z" fill="#0056A8"/>
</g>
<g opacity="0.25">
<path d="M220.874 371.106L215.914 372.936C215.884 368.529 215.276 354.456 209.088 344.421C202.707 334.074 196.326 312.614 194.659 306.787L194.635 306.709V306.703L193.708 295.861H203.417L215.908 292.852C215.908 292.852 206.578 302.182 213.5 326.26C220.423 350.338 220.874 371.106 220.874 371.106Z" fill="#0056A8"/>
</g>
<g opacity="0.25">
<path d="M326.367 166.297C326.367 166.297 334.493 177.782 324.561 189.52C314.629 201.258 308.609 199.754 308.609 199.754C305.852 229.809 295.264 247.32 264.564 232.572C264.564 232.566 264.558 232.566 264.552 232.56C261.374 230.038 259.249 228.292 259.249 228.292L256.841 216.265L254.216 204.973C254.445 205.454 263.222 223.832 275.7 216.554C288.341 209.18 293.157 184.699 293.157 184.699C306.442 193.909 314.629 190.074 315.833 168.398C315.833 168.398 326.668 161.222 325.663 153.602C325.62 153.259 325.608 152.928 325.632 152.603C329.052 153.584 331.038 157.177 330.183 160.747C329.678 162.884 328.425 164.744 326.367 166.297Z" fill="#0056A8"/>
</g>
<g opacity="0.25">
<path d="M107.007 205.345C107.007 205.345 118.649 211.385 132.566 185.401C132.566 185.401 127.42 203.16 128.022 210.986C128.624 218.811 121.3 215.144 121.3 215.144L110.191 213.093" fill="#0056A8"/>
</g>
<path d="M65.7754 212.177C66.0624 212.869 66.3067 213.572 66.5086 214.28C63.8553 216.67 58.6083 220.023 52.3373 223.19C46.0669 226.356 40.3375 228.547 36.9645 229.2C36.611 228.568 36.2892 227.905 36.0022 227.212C35.9886 227.179 35.9754 227.147 35.9625 227.115C35.8372 226.809 35.7208 226.501 35.6129 226.192C35.3591 225.468 35.1508 224.736 34.9861 223.999C34.9793 223.969 34.9726 223.939 34.9664 223.909C34.7274 222.814 34.5848 221.71 34.5347 220.61C34.4392 218.516 34.6776 216.438 35.2184 214.465C36.532 209.675 39.6313 205.507 44.0785 203.262C48.4893 201.034 53.3296 201.15 57.4494 203.138C59.1409 203.954 60.7108 205.085 62.08 206.499C62.8125 207.255 63.4871 208.093 64.0922 209.006C64.1415 209.079 64.1896 209.153 64.2374 209.227C64.6346 209.847 65.0003 210.499 65.3306 211.185C65.4533 211.439 65.5711 211.698 65.6836 211.961C65.7148 212.032 65.7453 212.104 65.7754 212.177Z" fill="white"/>
<path d="M36.9642 229.34C36.9141 229.34 36.8663 229.313 36.8409 229.268C36.4846 228.63 36.1579 227.956 35.8713 227.265L35.8308 227.165C35.708 226.867 35.5895 226.554 35.48 226.237C35.2284 225.52 35.0155 224.777 34.8485 224.029C34.8418 224 34.8346 223.968 34.8279 223.936C34.5908 222.849 34.4444 221.73 34.3936 220.615C34.2981 218.523 34.5297 216.441 35.0826 214.427C36.4538 209.424 39.7098 205.309 44.015 203.135C48.2853 200.977 53.205 200.932 57.5104 203.01C59.2378 203.843 60.8093 204.983 62.1817 206.4C62.9232 207.165 63.6055 208.015 64.2103 208.927C64.2594 209 64.3083 209.075 64.3568 209.151C64.7608 209.781 65.131 210.445 65.4576 211.123C65.5816 211.378 65.7002 211.639 65.8139 211.904L65.9058 212.122C66.1919 212.812 66.4404 213.525 66.6443 214.241C66.6594 214.293 66.6431 214.349 66.6032 214.385C63.8209 216.891 58.5115 220.23 52.4007 223.315C46.2893 226.401 40.5287 228.653 36.991 229.338C36.9824 229.339 36.9734 229.34 36.9642 229.34ZM50.8886 201.766C48.5836 201.766 46.2803 202.307 44.1421 203.387C39.9081 205.525 36.7055 209.576 35.3547 214.502C34.8098 216.487 34.5818 218.54 34.6755 220.602C34.7257 221.702 34.8703 222.804 35.1044 223.879L35.1237 223.964C35.2888 224.705 35.4982 225.437 35.7461 226.144C35.8549 226.456 35.971 226.764 36.0933 227.06L36.1223 227.133C36.4011 227.805 36.706 228.439 37.0379 229.041C40.511 228.346 46.332 226.063 52.2735 223.063C58.224 220.058 63.6036 216.682 66.3484 214.233C66.1518 213.556 65.9153 212.882 65.6443 212.23L65.5541 212.016C65.4423 211.754 65.3248 211.497 65.2033 211.245C64.8815 210.577 64.5162 209.924 64.1182 209.303C64.071 209.228 64.0232 209.155 63.9748 209.083C63.3796 208.186 62.7083 207.349 61.9783 206.597C60.6294 205.204 59.0847 204.083 57.388 203.265C55.3173 202.265 53.1024 201.766 50.8886 201.766Z" fill="white"/>
<path d="M67.2002 221.255C67.1418 221.992 67.0428 222.723 66.9032 223.443C66.7088 224.455 66.4351 225.446 66.0877 226.405C64.5814 230.564 61.6802 234.116 57.6988 236.126C53.7087 238.141 49.3669 238.238 45.5252 236.767C44.6815 236.444 43.8619 236.045 43.076 235.574C42.4592 235.206 41.8639 234.793 41.2926 234.338C45.3035 233.204 49.937 231.384 54.7304 228.964C59.5233 226.543 63.8005 223.863 67.2002 221.255Z" fill="white"/>
<path d="M50.8941 237.913C49.0698 237.913 47.2415 237.576 45.4753 236.9C44.623 236.573 43.792 236.168 43.0033 235.696C42.3858 235.327 41.7803 234.907 41.205 234.449C41.1632 234.416 41.1439 234.363 41.1542 234.311C41.1645 234.259 41.2033 234.217 41.254 234.203C45.4003 233.03 50.0383 231.175 54.6672 228.838C59.2955 226.501 63.5996 223.84 67.1144 221.144C67.1591 221.109 67.2197 221.105 67.2673 221.131C67.3169 221.158 67.3454 221.211 67.3412 221.267C67.2819 222.011 67.1809 222.753 67.0418 223.47C66.8471 224.483 66.5706 225.487 66.2204 226.454C64.6405 230.817 61.6362 234.296 57.7622 236.253C55.5762 237.357 53.2384 237.913 50.8941 237.913ZM41.5982 234.398C42.0977 234.783 42.6185 235.137 43.1484 235.454C43.9227 235.918 44.7398 236.316 45.5764 236.636C49.5375 238.153 53.8205 237.928 57.6353 236.001C61.4447 234.077 64.3994 230.653 65.9557 226.358C66.3004 225.405 66.5726 224.415 66.7649 223.417C66.8822 222.812 66.9718 222.189 67.0316 221.562C63.5513 224.202 59.3271 226.801 54.7943 229.09C50.2487 231.386 45.6929 233.218 41.5982 234.398Z" fill="white"/>
<path d="M66.5086 214.279C63.8559 216.669 58.6085 220.022 52.3377 223.189C46.0671 226.355 40.3371 228.546 36.9643 229.199C36.6115 228.566 36.2897 227.903 36.0018 227.211C35.9883 227.178 35.9757 227.147 35.9622 227.114C35.8373 226.807 35.7206 226.5 35.6132 226.191C35.3595 225.467 35.1512 224.735 34.9859 223.998C34.9792 223.968 34.9725 223.938 34.967 223.908C34.728 222.813 34.5852 221.709 34.5346 220.609C34.4398 218.516 34.6781 216.437 35.2186 214.464C36.2814 210.59 38.5105 207.124 41.6781 204.752C40.8537 206.167 40.2135 207.702 39.774 209.306C39.2324 211.279 38.9942 213.356 39.0901 215.451C39.1396 216.551 39.2825 217.654 39.5215 218.749C39.5281 218.78 39.5348 218.81 39.5415 218.84C39.5503 218.879 39.5625 218.928 39.5779 218.985C40.4127 222.09 43.441 223.39 46.3631 223.097C51.9329 222.539 63.993 215.343 66.5584 213.683C66.7361 214.16 66.37 213.795 66.5086 214.279Z" fill="white"/>
<path d="M36.9643 229.342C36.9135 229.342 36.8663 229.314 36.8409 229.269C36.4817 228.625 36.1556 227.951 35.8714 227.266L35.8375 227.184C35.7003 226.845 35.5853 226.541 35.48 226.238C35.2278 225.519 35.0155 224.776 34.8479 224.03C34.8401 223.995 34.8334 223.965 34.828 223.935C34.5915 222.85 34.4451 221.732 34.3937 220.616C34.2987 218.524 34.5304 216.442 35.0826 214.427C36.1762 210.441 38.4886 206.965 41.5933 204.639C41.6472 204.599 41.7215 204.603 41.7717 204.647C41.8219 204.692 41.834 204.766 41.8001 204.824C40.9841 206.224 40.3484 207.744 39.9099 209.343C39.365 211.33 39.1369 213.383 39.2307 215.445C39.2802 216.544 39.4248 217.646 39.6595 218.72C39.6656 218.751 39.6723 218.779 39.6789 218.807C39.6873 218.848 39.6988 218.894 39.7139 218.948C40.5595 222.092 43.6563 223.228 46.3491 222.957C51.8109 222.41 63.8057 215.297 66.4815 213.565C66.5178 213.542 66.5625 213.537 66.6025 213.55C66.6436 213.563 66.6757 213.594 66.6908 213.635C66.7718 213.853 66.7876 214.007 66.6164 214.103C66.6164 214.112 66.6189 214.154 66.6436 214.241C66.6588 214.293 66.6424 214.349 66.6025 214.385C63.8208 216.891 58.512 220.23 52.4012 223.316C46.2897 226.402 40.5291 228.653 36.9908 229.339C36.9825 229.341 36.9735 229.342 36.9643 229.342ZM41.2134 205.296C38.4347 207.572 36.3661 210.815 35.3548 214.502C34.8104 216.488 34.5824 218.541 34.6756 220.603C34.7264 221.704 34.871 222.806 35.1051 223.879L35.1227 223.964C35.2884 224.703 35.4982 225.436 35.7462 226.146C35.8503 226.444 35.9634 226.743 36.0928 227.062L36.1321 227.157C36.3994 227.801 36.7037 228.434 37.0381 229.042C40.5118 228.346 46.3335 226.063 52.2743 223.064C58.2267 220.058 63.608 216.681 66.3504 214.232C66.328 214.125 66.3299 214.044 66.3577 213.981C63.0794 216.064 51.7856 222.697 46.3771 223.239C43.5651 223.517 40.3292 222.325 39.4419 219.023C39.4255 218.963 39.4129 218.912 39.4037 218.87C39.3964 218.842 39.3899 218.81 39.3832 218.777C39.1455 217.691 38.999 216.573 38.9489 215.458C38.8534 213.366 39.085 211.284 39.6378 209.269C40.0195 207.878 40.5487 206.544 41.2134 205.296Z" fill="white"/>
<path d="M54.7304 228.964C59.5232 226.543 63.8004 223.863 67.2001 221.255C67.1417 221.992 67.0427 222.723 66.9031 223.443C64.2871 225.56 60.1046 228.178 55.2321 230.639C50.5649 232.995 46.2125 234.729 43.076 235.574C42.4592 235.206 41.8639 234.793 41.2926 234.338C45.3035 233.204 49.9371 231.384 54.7304 228.964Z" fill="white"/>
<path d="M43.0757 235.716C43.0503 235.716 43.0256 235.709 43.0031 235.696C42.3856 235.327 41.7801 234.907 41.2049 234.449C41.1631 234.416 41.1438 234.363 41.1541 234.311C41.1644 234.259 41.2031 234.217 41.2539 234.203C45.4002 233.03 50.0382 231.175 54.6671 228.838C59.2954 226.501 63.5995 223.84 67.1143 221.144C67.159 221.109 67.2195 221.105 67.2672 221.131C67.3168 221.158 67.3453 221.211 67.3411 221.267C67.2817 222.011 67.1808 222.753 67.0417 223.47C67.0356 223.503 67.0181 223.532 66.9921 223.553C64.2654 225.76 60.0018 228.388 55.2955 230.765C50.808 233.031 46.3673 234.834 43.1125 235.711C43.1006 235.715 43.0879 235.716 43.0757 235.716ZM41.5982 234.398C42.082 234.77 42.5847 235.114 43.097 235.423C46.3288 234.545 50.7236 232.758 55.1686 230.513C59.8351 228.157 64.0611 225.554 66.7745 223.366C66.8869 222.777 66.9734 222.172 67.0315 221.562C63.5512 224.202 59.3269 226.801 54.7942 229.09C50.2488 231.386 45.6929 233.218 41.5982 234.398Z" fill="white"/>
<path d="M65.6837 211.96C65.7148 212.032 65.7453 212.103 65.7755 212.176C66.0625 212.869 66.3068 213.571 66.5087 214.28C63.8555 216.67 58.6085 220.022 52.3375 223.189C46.067 226.356 40.3376 228.546 36.9647 229.199C36.6111 228.567 36.2893 227.904 36.0023 227.211C35.9888 227.179 35.9755 227.147 35.9626 227.114C39.1618 226.708 44.9944 224.588 51.3869 221.36C58.0317 218.004 63.4612 214.371 65.6837 211.96Z" fill="white"/>
<path d="M36.9643 229.34C36.9141 229.34 36.8663 229.313 36.8409 229.268C36.4846 228.63 36.158 227.956 35.8713 227.266L35.8308 227.165C35.8151 227.124 35.8193 227.079 35.8417 227.042C35.8635 227.004 35.9016 226.979 35.9452 226.974C39.2489 226.555 45.1419 224.356 51.3236 221.234C57.7096 218.009 63.3057 214.331 65.5799 211.864C65.6126 211.829 65.6609 211.812 65.7075 211.821C65.7547 211.829 65.7946 211.86 65.8133 211.904L65.9058 212.122C66.192 212.812 66.4405 213.525 66.6444 214.241C66.6595 214.293 66.6431 214.349 66.6032 214.385C63.8209 216.891 58.5116 220.23 52.4008 223.315C46.2893 226.402 40.5287 228.653 36.991 229.338C36.9825 229.34 36.9734 229.34 36.9643 229.34ZM36.1629 227.23C36.4302 227.866 36.7218 228.468 37.0381 229.041C40.5111 228.347 46.3322 226.063 52.2737 223.063C58.2242 220.059 63.6038 216.682 66.3485 214.234C66.152 213.556 65.9155 212.883 65.6445 212.23L65.6378 212.214C63.2541 214.701 57.7293 218.315 51.4504 221.486C45.3542 224.565 39.5277 226.752 36.1629 227.23Z" fill="white"/>
<path d="M34.5087 221.217L34.5609 220C36.7923 220.117 42.6202 218.043 48.7328 214.956C56.0254 211.273 60.7309 207.753 61.6102 206.179L62.5495 206.818C61.3861 208.901 56.0181 212.617 49.1919 216.064C42.8363 219.273 36.9356 221.344 34.5087 221.217Z" fill="white"/>
<path d="M34.7263 221.364C34.6483 221.364 34.5733 221.362 34.5014 221.358C34.424 221.354 34.3641 221.288 34.3677 221.211L34.4204 219.994C34.4216 219.956 34.4384 219.921 34.4663 219.896C34.4942 219.87 34.5335 219.855 34.5685 219.859C34.6278 219.862 34.6895 219.864 34.7536 219.864C37.0883 219.864 42.7395 217.825 48.6694 214.83C55.9367 211.16 60.6189 207.665 61.4868 206.11C61.5062 206.075 61.5395 206.05 61.5775 206.041C61.6163 206.031 61.6568 206.039 61.6894 206.062L62.6287 206.701C62.6892 206.742 62.7086 206.823 62.6728 206.887C61.497 208.992 56.1053 212.731 49.2554 216.19C43.0672 219.315 37.2994 221.364 34.7263 221.364ZM34.6556 221.081C34.6816 221.081 34.7076 221.081 34.7342 221.081C37.2613 221.081 42.9759 219.045 49.1285 215.938C55.8108 212.563 61.0851 208.941 62.3608 206.86L61.6537 206.379C60.5898 208.03 55.9191 211.485 48.7964 215.082C42.8307 218.095 37.1251 220.146 34.745 220.146C34.7281 220.146 34.7123 220.146 34.696 220.146L34.6556 221.081Z" fill="white"/>
<path d="M35.302 215.067L35.1351 213.863C37.6427 213.44 41.9872 211.769 46.4731 209.504C51.1737 207.13 55.2381 204.518 57.0802 202.686L57.8188 203.591C55.8992 205.5 51.7277 208.19 46.9324 210.612C42.3598 212.921 37.9033 214.628 35.302 215.067Z" fill="white"/>
<path d="M35.3023 215.208C35.2727 215.208 35.243 215.198 35.2188 215.18C35.188 215.158 35.1674 215.124 35.1626 215.086L34.9956 213.882C34.9847 213.806 35.0367 213.736 35.1118 213.723C37.6068 213.302 41.9357 211.636 46.4098 209.377C51.0986 207.01 55.1487 204.407 56.9802 202.585C57.0085 202.557 57.0492 202.538 57.0872 202.544C57.1271 202.546 57.164 202.565 57.1894 202.596L57.9285 203.501C57.9745 203.557 57.9703 203.639 57.9189 203.69C55.9894 205.609 51.8039 208.309 46.9958 210.737C42.4116 213.052 37.9401 214.764 35.3258 215.206C35.318 215.207 35.3101 215.208 35.3023 215.208ZM35.2938 213.978L35.422 214.902C38.0289 214.428 42.3911 212.746 46.8687 210.485C51.5775 208.107 55.6796 205.473 57.6284 203.58L57.0684 202.894C55.1685 204.729 51.1583 207.295 46.5368 209.63C42.1189 211.861 37.8335 213.517 35.2938 213.978Z" fill="white"/>
<path d="M34.9662 224.516L34.9669 223.298C37.5273 223.3 43.549 221.128 49.9514 217.895C56.6671 214.504 62.2983 210.701 63.6453 208.646L64.5393 209.361C63.0686 211.603 57.3908 215.478 50.4106 219.003C43.7752 222.354 37.7128 224.518 34.9662 224.516Z" fill="white"/>
<path d="M34.9689 224.658C34.932 224.656 34.8933 224.644 34.8661 224.617C34.8394 224.59 34.825 224.554 34.825 224.517L34.8262 223.299C34.8262 223.221 34.8891 223.157 34.9672 223.157C34.9678 223.157 34.969 223.157 34.9696 223.157C37.5113 223.157 43.5053 220.993 49.8883 217.77C56.5841 214.388 62.1928 210.605 63.5277 208.57C63.5495 208.536 63.5839 208.514 63.6232 208.508C63.6624 208.501 63.7025 208.512 63.7339 208.537L64.6279 209.251C64.6848 209.297 64.6975 209.378 64.6575 209.439C63.1738 211.701 57.4743 215.595 50.4744 219.13C43.8227 222.488 37.7373 224.658 34.9689 224.658ZM35.108 223.438L35.1074 224.374C37.8964 224.304 43.8414 222.163 50.3472 218.877C57.1965 215.419 62.7841 211.629 64.3495 209.39L63.6757 208.852C62.1757 210.951 56.6153 214.689 50.0152 218.022C43.709 221.206 37.7627 223.363 35.108 223.438Z" fill="white"/>
<path d="M45.5461 237.07L45.5252 236.767L45.3956 236.498L45.4464 236.468L45.5043 236.463C47.7176 236.276 51.9329 234.749 56.2432 232.573C60.5773 230.384 64.2756 227.937 65.8947 226.187L66.2807 226.622C64.6191 228.418 60.8609 230.91 56.4728 233.126C52.0411 235.365 47.8542 236.876 45.5461 237.07Z" fill="white"/>
<path d="M45.5459 237.211C45.5121 237.211 45.4794 237.199 45.454 237.177C45.425 237.152 45.4074 237.117 45.4049 237.079L45.3862 236.804L45.2683 236.559C45.2362 236.492 45.2604 236.412 45.3239 236.375L45.3747 236.346C45.3929 236.335 45.4122 236.329 45.4328 236.327L45.4909 236.322C47.6889 236.137 51.8841 234.616 56.1798 232.446C60.5003 230.264 64.1832 227.829 65.7915 226.09C65.8182 226.061 65.8557 226.045 65.895 226.045C65.8956 226.045 65.8962 226.045 65.8962 226.045C65.9361 226.046 65.9743 226.063 66.0009 226.092L66.3868 226.528C66.4346 226.582 66.4339 226.664 66.3843 226.717C64.7131 228.524 60.9394 231.029 56.5361 233.252C52.0893 235.498 47.8825 237.015 45.558 237.21C45.5537 237.211 45.5501 237.211 45.5459 237.211ZM45.5992 236.595L45.6524 236.705C45.6604 236.722 45.6652 236.739 45.6663 236.757L45.6772 236.915C47.9956 236.674 52.0826 235.185 56.4091 233C60.7084 230.828 64.3973 228.395 66.0897 226.618L65.8919 226.395C64.211 228.147 60.5631 230.548 56.3068 232.698C52.0354 234.856 47.8503 236.377 45.5992 236.595Z" fill="white"/>
<path d="M67.2001 221.255C66.7034 227.521 63.2514 233.322 57.6987 236.126C52.1459 238.93 45.9127 238.02 41.2925 234.338C45.3034 233.204 49.9369 231.384 54.7303 228.964C59.5232 226.543 63.8004 223.863 67.2001 221.255Z" fill="white"/>
<path d="M50.8958 238.41C47.3592 238.41 43.8444 237.203 40.8873 234.846C40.6968 234.695 40.6072 234.449 40.655 234.21C40.7034 233.971 40.8812 233.779 41.1159 233.713C45.2308 232.549 49.8373 230.706 54.4378 228.383C59.0383 226.06 63.3146 223.416 66.8046 220.739C67.0085 220.582 67.2855 220.561 67.5104 220.683C67.736 220.806 67.8685 221.05 67.848 221.306C67.3175 228.003 63.5408 233.904 57.9914 236.706C55.7304 237.848 53.3079 238.41 50.8958 238.41ZM42.7357 234.589C47.1548 237.551 52.6668 237.939 57.4052 235.546C62.1417 233.154 65.4878 228.308 66.377 222.682C63.0684 225.093 59.1738 227.448 55.0233 229.544C50.8154 231.669 46.5959 233.4 42.7357 234.589Z" fill="white"/>
<path d="M75.1863 210.239C76.1839 212.646 72.9424 216.849 67.2001 221.254C63.8004 223.863 59.5232 226.543 54.7304 228.963C49.937 231.384 45.3034 233.204 41.2926 234.337C34.5183 236.253 29.5187 236.211 28.521 233.804C27.615 231.618 30.2043 227.952 34.9862 223.998C35.1508 224.734 35.3591 225.467 35.613 226.191C34.2914 227.394 33.642 228.347 33.8711 228.9C34.1043 229.463 35.2191 229.536 36.9647 229.199C40.3377 228.545 46.0671 226.355 52.3375 223.189C58.6085 220.022 63.8555 216.669 66.5088 214.279C67.8811 213.042 68.5594 212.063 68.3261 211.5C68.0973 210.948 67.0194 210.867 65.3309 211.183C65.0006 210.498 64.635 209.845 64.2377 209.226C70.0747 207.818 74.2801 208.052 75.1863 210.239Z" fill="white"/>
<path d="M33.227 235.834C30.6322 235.834 28.9344 235.171 28.3906 233.859C27.4905 231.687 29.8622 228.053 34.8963 223.889C34.9338 223.858 34.9834 223.848 35.0324 223.864C35.0784 223.88 35.1134 223.919 35.1243 223.967C35.2888 224.705 35.4982 225.437 35.7461 226.144C35.7648 226.198 35.7497 226.257 35.7079 226.295C33.9623 227.886 33.8891 228.576 34.0017 228.846C34.1135 229.117 34.6435 229.504 36.9376 229.061C40.398 228.391 46.2747 226.092 52.2736 223.063C58.272 220.034 63.6902 216.628 66.4144 214.175C68.2301 212.537 68.3094 211.831 68.1951 211.555C68.0856 211.29 67.5709 210.908 65.3565 211.323C65.2948 211.333 65.2307 211.303 65.2035 211.245C64.8817 210.577 64.5164 209.924 64.1184 209.303C64.0943 209.265 64.0894 209.217 64.1063 209.174C64.1239 209.132 64.1602 209.1 64.2043 209.089C70.361 207.604 74.4111 208.003 75.3166 210.185C76.305 212.57 73.303 216.75 67.286 221.367C63.7579 224.074 59.4381 226.744 54.794 229.089C50.1493 231.435 45.4944 233.297 41.3311 234.474C38.1171 235.382 35.3669 235.833 33.227 235.834ZM34.8999 224.253C30.0883 228.271 27.8122 231.726 28.6517 233.75C29.5832 236.001 34.2961 236.168 41.2543 234.202C45.4 233.03 50.038 231.175 54.6669 228.837C59.2951 226.5 63.5993 223.839 67.114 221.143C73.0234 216.609 75.9921 212.553 75.0551 210.293C74.2192 208.275 70.3626 207.922 64.4623 209.318C64.8064 209.868 65.1246 210.441 65.41 211.026C67.1829 210.706 68.2081 210.847 68.4561 211.447C68.7095 212.059 68.0866 213.047 66.6028 214.385C63.8205 216.891 58.5112 220.23 52.4004 223.315C46.2889 226.402 40.5283 228.653 36.9906 229.338C35.092 229.705 33.9991 229.576 33.7402 228.954C33.4953 228.362 34.0698 227.419 35.4489 226.149C35.2356 225.532 35.0511 224.895 34.8999 224.253Z" fill="white"/>
<path d="M35.5122 225.896C35.5454 225.994 35.5786 226.092 35.6134 226.191C34.2912 227.394 33.6413 228.346 33.8706 228.899C34.1046 229.463 35.2201 229.536 36.9647 229.198C39.2017 228.765 42.4774 227.655 46.2597 226.032C46.1995 226.396 46.1989 226.741 46.2606 227.057C44.8006 227.663 43.3852 228.197 42.0428 228.653C36.206 230.633 33.1628 230.605 32.805 229.741C32.5952 229.237 33.2015 227.964 35.5122 225.896Z" fill="white"/>
<path d="M34.5799 230.436C33.4688 230.436 32.8391 230.194 32.674 229.796C32.3807 229.089 33.4065 227.592 35.4176 225.792C35.4533 225.76 35.5023 225.748 35.5476 225.761C35.5936 225.773 35.6305 225.807 35.6456 225.852L35.746 226.144C35.7647 226.198 35.7496 226.258 35.7078 226.296C33.9616 227.885 33.889 228.575 34.001 228.845C34.1122 229.116 34.6421 229.504 36.9381 229.06C39.1804 228.626 42.4707 227.504 46.2039 225.903C46.2523 225.883 46.3061 225.889 46.3466 225.921C46.3871 225.953 46.407 226.004 46.3986 226.055C46.3405 226.405 46.3405 226.734 46.3986 227.031C46.4113 227.097 46.3762 227.163 46.3139 227.188C44.8604 227.791 43.4384 228.329 42.0878 228.787C38.6186 229.964 36.1302 230.436 34.5799 230.436ZM35.4479 226.145C33.3177 228.084 32.7588 229.263 32.9354 229.688C33.213 230.359 35.855 230.604 41.9972 228.52C43.3098 228.075 44.6906 227.554 46.1024 226.971C46.0691 226.746 46.0643 226.508 46.0879 226.259C42.4304 227.817 39.2071 228.908 36.9915 229.337C35.0935 229.705 33.9987 229.576 33.7398 228.953C33.4948 228.362 34.0701 227.419 35.4498 226.15L35.4479 226.145Z" fill="white"/>
<path d="M35.0774 225.021L35.2166 225.214C34.0282 226.231 33.1101 227.142 32.4205 227.942C32.9347 227.102 33.8188 226.132 35.0774 225.021Z" fill="white"/>
<path d="M32.4207 228.083C32.3917 228.083 32.3626 228.074 32.3372 228.056C32.2778 228.013 32.2616 227.931 32.3003 227.868C32.8229 227.014 33.7005 226.048 34.9834 224.914C35.0136 224.888 35.0535 224.875 35.0929 224.88C35.1321 224.884 35.1678 224.905 35.1915 224.937L35.3312 225.13C35.3742 225.19 35.3645 225.272 35.3088 225.321C34.1861 226.282 33.2505 227.195 32.5277 228.034C32.4998 228.066 32.4605 228.083 32.4207 228.083Z" fill="white"/>
<path d="M35.3562 225.405L35.2167 225.213C35.2367 225.194 35.2599 225.176 35.2831 225.157L35.3562 225.405Z" fill="white"/>
<path d="M35.356 225.545C35.3119 225.545 35.269 225.525 35.2417 225.487L35.1026 225.296C35.0609 225.239 35.0682 225.16 35.1196 225.111C35.142 225.089 35.1686 225.068 35.1946 225.047C35.2309 225.017 35.2794 225.008 35.3253 225.022C35.37 225.036 35.4051 225.071 35.4185 225.117L35.4917 225.364C35.511 225.43 35.4802 225.5 35.4185 225.531C35.3984 225.541 35.3772 225.545 35.356 225.545Z" fill="white"/>
<path d="M32.4206 227.941C31.881 228.815 31.743 229.547 31.9931 230.153C32.2379 230.741 32.8125 231.071 33.6083 231.21C35.6838 231.573 39.2551 230.631 42.3043 229.596C43.6848 229.128 45.1404 228.576 46.6423 227.954C46.9311 228.355 47.36 228.67 47.9156 228.903C45.6965 229.838 43.5436 230.63 41.5267 231.252C34.3359 233.472 31.2121 232.876 30.7206 231.691C30.4479 231.033 30.8415 229.772 32.4206 227.941Z" fill="white"/>
<path d="M33.7272 232.897C31.846 232.897 30.8681 232.416 30.5898 231.746C30.2475 230.919 30.8596 229.535 32.3137 227.849C32.3615 227.794 32.4455 227.785 32.5042 227.828C32.5635 227.871 32.5797 227.953 32.5411 228.016C32.0258 228.85 31.889 229.532 32.1238 230.099C32.3348 230.606 32.8423 230.933 33.6323 231.072C35.3108 231.366 38.2933 230.808 42.2593 229.463C43.6196 229.001 45.0761 228.45 46.5882 227.824C46.6493 227.799 46.7194 227.818 46.7563 227.872C47.0255 228.245 47.4338 228.548 47.9703 228.773C48.0229 228.795 48.0567 228.846 48.0567 228.903C48.0574 228.96 48.0229 229.011 47.9709 229.033C45.7463 229.971 43.5923 230.763 41.5685 231.388C38.0494 232.474 35.4915 232.897 33.7272 232.897ZM31.82 228.925C30.9751 230.094 30.617 231.074 30.8511 231.637C31.2279 232.547 33.8947 233.462 41.485 231.118C43.4102 230.523 45.4553 229.777 47.5662 228.897C47.1628 228.689 46.8367 228.431 46.5954 228.126C45.1135 228.738 43.6855 229.277 42.35 229.73C39.5532 230.679 35.7619 231.73 33.5839 231.35C32.6923 231.194 32.1135 230.809 31.863 230.207C31.7051 229.826 31.6912 229.398 31.82 228.925Z" fill="white"/>
<path d="M54.4351 229.112C49.7472 231.46 45.2213 233.227 41.2919 234.338C34.518 236.253 29.5177 236.212 28.5199 233.804C27.6145 231.618 30.2048 227.953 34.9863 223.998C35.0353 224.217 35.089 224.435 35.1459 224.653L34.8732 224.26C32.0976 226.605 28.9821 229.869 29.9091 232.101C30.2671 232.965 31.1152 233.432 32.2366 233.628C34.8761 234.087 39.02 233.051 41.7669 232.203C44.1774 231.459 46.7782 230.477 49.4488 229.304C50.7776 229.491 52.4695 229.422 54.4351 229.112Z" fill="white"/>
<path d="M33.2263 235.834C30.6322 235.834 28.9338 235.172 28.3893 233.859C27.4899 231.688 29.8622 228.055 34.8963 223.89C34.9338 223.859 34.9834 223.849 35.0324 223.865C35.0784 223.881 35.1134 223.92 35.1243 223.968C35.1728 224.185 35.2265 224.402 35.2828 224.618C35.2997 224.685 35.267 224.754 35.2047 224.782C35.1443 224.812 35.0698 224.791 35.0299 224.735L34.8461 224.469C32.1364 226.776 29.1581 229.926 30.0393 232.048C30.3514 232.801 31.0985 233.286 32.2604 233.489C34.8346 233.939 38.8267 232.964 41.7251 232.069C44.1257 231.328 46.7054 230.355 49.3916 229.175C49.4157 229.165 49.443 229.161 49.4684 229.165C50.7761 229.348 52.44 229.285 54.4137 228.973C54.4789 228.963 54.5486 229.003 54.5697 229.069C54.5909 229.136 54.5607 229.207 54.499 229.239C49.9597 231.512 45.4063 233.322 41.3308 234.474C38.1165 235.383 35.3669 235.834 33.2263 235.834ZM30.9799 228.023C28.9234 230.4 28.0893 232.396 28.6506 233.751C29.5826 236.001 34.2956 236.171 41.2532 234.203C45.0765 233.122 49.3231 231.459 53.5837 229.376C51.9791 229.578 50.5987 229.604 49.4683 229.45C46.7852 230.626 44.2085 231.598 41.8084 232.339C38.8797 233.243 34.8405 234.225 32.2118 233.768C30.9483 233.547 30.1299 233.004 29.778 232.156C29.2809 230.958 29.8882 229.49 30.9799 228.023Z" fill="white"/>
<path d="M46.6423 227.954C45.1404 228.576 43.6849 229.129 42.3043 229.597C39.2552 230.631 35.6838 231.574 33.6083 231.211C32.8125 231.072 32.2379 230.742 31.9931 230.153C31.743 229.548 31.881 228.816 32.4206 227.942C33.1102 227.141 34.0282 226.231 35.2167 225.213L35.3562 225.404C35.4064 225.569 35.4586 225.733 35.5122 225.897C33.2015 227.965 32.5953 229.238 32.8049 229.742C33.1628 230.606 36.206 230.634 42.0427 228.654C43.3851 228.198 44.8005 227.663 46.2605 227.058C46.2898 227.216 46.3343 227.367 46.394 227.511C46.4596 227.668 46.5423 227.817 46.6423 227.954Z" fill="white"/>
<path d="M34.6181 231.43C34.2449 231.43 33.8978 231.405 33.5838 231.35C32.6923 231.194 32.1134 230.81 31.8629 230.207C31.595 229.559 31.7425 228.772 32.3002 227.868C33.0459 227 33.9913 226.076 35.1249 225.106C35.1551 225.08 35.1945 225.069 35.2332 225.073C35.2724 225.078 35.3076 225.098 35.3311 225.13L35.4703 225.321C35.4793 225.334 35.4866 225.348 35.4908 225.363C35.541 225.528 35.5936 225.691 35.6463 225.854C35.6639 225.907 35.6481 225.966 35.6064 226.003C33.3454 228.026 32.7546 229.253 32.9353 229.688C33.2129 230.359 35.8549 230.604 41.9971 228.52C43.3417 228.064 44.7583 227.528 46.2062 226.928C46.245 226.911 46.2904 226.914 46.3273 226.934C46.3648 226.954 46.3908 226.991 46.3986 227.032C46.427 227.183 46.4682 227.321 46.5245 227.457C46.5862 227.606 46.6648 227.745 46.7561 227.871C46.7815 227.906 46.7893 227.951 46.7779 227.993C46.7658 228.034 46.7356 228.068 46.6957 228.085C45.1781 228.713 43.7155 229.267 42.3498 229.73C39.9566 230.543 36.8343 231.43 34.6181 231.43ZM35.1928 225.42C34.1216 226.345 33.2258 227.224 32.5278 228.034C32.0257 228.851 31.8891 229.532 32.1237 230.1C32.3348 230.606 32.8423 230.934 33.6322 231.072C35.3095 231.367 38.2926 230.81 42.2593 229.463C43.5718 229.018 44.9738 228.489 46.4291 227.89C46.3662 227.787 46.3112 227.679 46.264 227.566C46.2222 227.465 46.1872 227.361 46.1593 227.253C44.7596 227.83 43.3908 228.346 42.0881 228.788C36.1321 230.808 33.0697 230.75 32.6742 229.797C32.3844 229.098 33.3837 227.627 35.3495 225.854C35.3083 225.726 35.2672 225.597 35.228 225.468L35.1928 225.42Z" fill="white"/>
<path d="M35.2167 225.213C34.0283 226.23 33.1103 227.141 32.4207 227.941C32.9349 227.101 33.8189 226.131 35.0775 225.02L35.2167 225.213Z" fill="white"/>
<path d="M32.4208 228.083C32.3918 228.083 32.3627 228.074 32.3373 228.056C32.278 228.013 32.2617 227.931 32.3004 227.868C32.823 227.014 33.7006 226.048 34.9835 224.914C35.0137 224.888 35.0536 224.875 35.093 224.88C35.1323 224.884 35.1679 224.905 35.1916 224.937L35.3313 225.13C35.3743 225.19 35.3646 225.272 35.3089 225.321C34.1862 226.282 33.2506 227.195 32.5278 228.034C32.4999 228.066 32.4607 228.083 32.4208 228.083Z" fill="white"/>
<path d="M35.3562 225.404L35.6349 225.789C35.5934 225.825 35.552 225.861 35.5122 225.897C35.4586 225.733 35.4066 225.57 35.3562 225.404Z" fill="white"/>
<path d="M35.5122 226.039C35.5 226.039 35.488 226.037 35.4765 226.034C35.4299 226.022 35.3924 225.987 35.3779 225.941C35.324 225.776 35.2715 225.612 35.2212 225.446C35.2012 225.379 35.2315 225.309 35.2932 225.278C35.3555 225.248 35.4304 225.266 35.4704 225.322L35.7493 225.706C35.7922 225.765 35.7831 225.847 35.7281 225.895L35.6077 226.002C35.581 226.026 35.5472 226.039 35.5122 226.039Z" fill="white"/>
<path d="M63.2903 219C60.3639 221.023 56.8352 223.095 53.0831 224.989C50.9015 226.091 48.7281 227.091 46.6422 227.954C46.5422 227.817 46.4596 227.668 46.3939 227.511C46.3343 227.367 46.2897 227.216 46.2604 227.058C48.3474 226.199 50.5256 225.198 52.7123 224.094C56.4289 222.216 59.923 220.165 62.8147 218.164C67.9882 214.583 69.9585 212.023 69.6019 211.161C69.3876 210.645 68.0788 210.318 65.0413 210.941L64.9191 210.212L64.8782 209.97C66.47 209.644 67.7162 209.54 68.6298 209.659C69.5741 209.785 70.1629 210.148 70.4135 210.75C71.2971 212.881 67.0266 216.412 63.2903 219Z" fill="white"/>
<path d="M46.6419 228.095C46.5978 228.095 46.5548 228.075 46.5275 228.037C46.4228 227.893 46.3345 227.734 46.2638 227.565C46.2009 227.414 46.153 227.252 46.1217 227.084C46.109 227.018 46.1447 226.953 46.2064 226.927C48.2878 226.071 50.4549 225.075 52.6487 223.968C56.3607 222.092 59.8483 220.045 62.7346 218.048C68.1898 214.272 69.7521 211.893 69.4715 211.215C69.324 210.859 68.2321 210.429 65.07 211.079C65.0312 211.087 64.9932 211.079 64.9618 211.057C64.9303 211.035 64.9085 211.002 64.9024 210.964L64.7392 209.994C64.7264 209.919 64.7755 209.847 64.8499 209.832C66.4709 209.499 67.7126 209.398 68.6484 209.519C69.6355 209.65 70.2729 210.046 70.544 210.696C71.2819 212.476 68.8686 215.309 63.3711 219.116C60.4285 221.15 56.8931 223.224 53.1467 225.116C50.9571 226.221 48.787 227.22 46.696 228.084C46.6783 228.092 46.6601 228.095 46.6419 228.095ZM46.423 227.144C46.449 227.252 46.4823 227.356 46.5245 227.457C46.5717 227.57 46.6286 227.679 46.6939 227.78C48.7456 226.928 50.8727 225.947 53.0195 224.863C56.7544 222.978 60.2783 220.91 63.2101 218.884C68.4323 215.268 70.9443 212.398 70.2832 210.804C70.051 210.246 69.5036 209.918 68.6114 209.8C67.7471 209.686 66.5465 209.781 65.0404 210.081L65.1566 210.774C67.7278 210.263 69.4328 210.386 69.7329 211.107C70.1236 212.051 68.1609 214.636 62.8957 218.28C59.999 220.285 56.4993 222.338 52.7759 224.22C50.614 225.312 48.477 226.295 46.423 227.144Z" fill="white"/>
<path d="M49.4486 229.304C46.7781 230.476 44.1773 231.459 41.7667 232.203C39.0199 233.051 34.876 234.087 32.2364 233.628C31.1149 233.431 30.2669 232.965 29.9089 232.101C28.982 229.869 32.0974 226.605 34.873 224.26L35.1457 224.653C35.1891 224.823 35.2344 224.99 35.2828 225.157C35.2596 225.176 35.2366 225.194 35.2164 225.213L35.0772 225.02C33.8185 226.132 32.9345 227.102 32.4203 227.942C30.8412 229.773 30.4476 231.034 30.7203 231.692C31.2118 232.877 34.3357 233.473 41.5264 231.253C43.5432 230.631 45.6961 229.839 47.9153 228.904C48.3506 229.087 48.8637 229.221 49.4486 229.304Z" fill="white"/>
<path d="M33.7067 233.882C33.1744 233.882 32.6718 233.847 32.2121 233.766C30.9486 233.546 30.1302 233.003 29.7783 232.155C28.819 229.844 31.9702 226.527 34.7823 224.152C34.8131 224.126 34.85 224.114 34.8924 224.12C34.9317 224.125 34.9668 224.147 34.9898 224.179L35.2625 224.573C35.2722 224.587 35.2789 224.602 35.2831 224.618C35.3261 224.786 35.3708 224.953 35.4186 225.118C35.4343 225.172 35.4161 225.231 35.3714 225.267C35.3515 225.283 35.3321 225.299 35.3146 225.316C35.2856 225.343 35.2449 225.356 35.2044 225.354C35.1639 225.35 35.1264 225.329 35.1029 225.296L35.0544 225.23C33.8713 226.286 33.0264 227.223 32.5413 228.016C31.187 229.589 30.5598 230.936 30.8513 231.638C31.2281 232.548 33.8948 233.462 41.4852 231.118C43.5 230.496 45.6454 229.707 47.861 228.774C47.896 228.758 47.9359 228.758 47.9711 228.774C48.3915 228.951 48.8953 229.083 49.4687 229.164C49.531 229.173 49.5799 229.222 49.5885 229.284C49.5969 229.347 49.5631 229.408 49.5056 229.433C46.8092 230.617 44.2198 231.594 41.8089 232.338C39.3922 233.083 36.218 233.882 33.7067 233.882ZM34.8462 224.468C32.1365 226.775 29.1582 229.925 30.0394 232.047C30.3514 232.8 31.0985 233.285 32.2605 233.488C34.8347 233.938 38.8267 232.963 41.7251 232.068C43.9964 231.367 46.4279 230.458 48.9591 229.363C48.575 229.285 48.2254 229.183 47.9163 229.057C45.711 229.984 43.5753 230.768 41.5684 231.388C34.2976 233.632 31.1281 233.045 30.5898 231.746C30.2474 230.92 30.8596 229.536 32.3136 227.85C32.8228 227.014 33.7005 226.048 34.9834 224.915C35.0052 224.896 35.0313 224.884 35.059 224.88C35.0445 224.825 35.03 224.769 35.0154 224.713L34.8462 224.468Z" fill="white"/>
<path d="M35.0775 225.021L35.2167 225.214C34.0283 226.231 33.1103 227.142 32.4207 227.942C32.9349 227.102 33.8189 226.132 35.0775 225.021Z" fill="white"/>
<path d="M32.4208 228.083C32.3918 228.083 32.3627 228.074 32.3373 228.056C32.278 228.013 32.2617 227.931 32.3004 227.868C32.823 227.014 33.7006 226.048 34.9835 224.914C35.0137 224.888 35.0536 224.875 35.093 224.88C35.1323 224.884 35.1679 224.905 35.1916 224.937L35.3313 225.13C35.3743 225.19 35.3646 225.272 35.3089 225.321C34.1862 226.282 33.2506 227.195 32.5278 228.034C32.4999 228.066 32.4607 228.083 32.4208 228.083Z" fill="white"/>
<path d="M35.1458 224.653L35.4158 225.043C35.3708 225.082 35.3261 225.119 35.2829 225.157C35.2344 224.99 35.1892 224.823 35.1458 224.653Z" fill="white"/>
<path d="M35.2828 225.298C35.2695 225.298 35.2555 225.296 35.2429 225.292C35.1963 225.279 35.1607 225.243 35.1474 225.196C35.0983 225.028 35.0524 224.859 35.0095 224.688C34.9926 224.622 35.0259 224.553 35.0876 224.525C35.1499 224.496 35.2225 224.516 35.2624 224.573L35.5322 224.963C35.5733 225.022 35.563 225.102 35.5086 225.15L35.375 225.264C35.3487 225.286 35.3161 225.298 35.2828 225.298Z" fill="white"/>
<path d="M65.4268 220.255C62.1731 222.638 58.2164 225.027 53.9838 227.164C52.4642 227.933 50.9458 228.648 49.4486 229.304C48.8637 229.221 48.3504 229.088 47.9154 228.904C49.7823 228.119 51.6966 227.234 53.6133 226.267C57.8034 224.152 61.717 221.788 64.9335 219.434C71.1569 214.879 72.7903 211.879 72.3004 210.694C72.0276 210.038 70.9098 209.542 68.6299 209.66C67.6271 209.713 66.3994 209.884 64.9192 210.213C64.8378 210.231 64.7548 210.25 64.6718 210.269L64.4905 209.303C67.9118 208.518 72.1866 208.051 73.112 210.284C74.3149 213.185 68.814 217.776 65.4268 220.255Z" fill="white"/>
<path d="M49.4486 229.445C49.4419 229.445 49.4353 229.444 49.4286 229.444C48.8317 229.359 48.3042 229.221 47.8609 229.034C47.8088 229.012 47.7744 228.96 47.775 228.904C47.775 228.847 47.8088 228.795 47.8615 228.774C49.7299 227.988 51.6442 227.102 53.5501 226.14C57.7285 224.031 61.6363 221.673 64.8506 219.32C71.4344 214.501 72.5491 211.665 72.1699 210.748C71.882 210.056 70.5568 209.703 68.6376 209.801C67.5845 209.856 66.3439 210.041 64.9503 210.351L64.7036 210.406C64.6637 210.415 64.6262 210.408 64.5947 210.387C64.5626 210.366 64.5403 210.332 64.5336 210.295L64.3522 209.329C64.3377 209.255 64.3855 209.183 64.4592 209.166C67.9328 208.368 72.2793 207.905 73.2428 210.23C74.4822 213.219 68.9303 217.865 65.5104 220.369C62.2514 222.756 58.2878 225.149 54.0472 227.29C52.5448 228.05 51.0163 228.771 49.5054 229.433C49.4872 229.441 49.4679 229.445 49.4486 229.445ZM48.2957 228.896C48.6326 229.01 49.0118 229.097 49.4286 229.158C50.9232 228.503 52.4342 227.789 53.9203 227.038C58.147 224.904 62.0973 222.519 65.3435 220.141C68.6968 217.686 74.1471 213.149 72.9815 210.338C72.1051 208.223 67.9994 208.655 64.6545 209.411L64.784 210.098L64.888 210.075C66.2979 209.762 67.5541 209.575 68.6229 209.519C71.464 209.372 72.2309 210.158 72.4311 210.64C72.9652 211.932 71.2981 214.95 65.0174 219.548C61.7904 221.909 57.8692 224.277 53.677 226.393C51.8759 227.301 50.0673 228.143 48.2957 228.896Z" fill="white"/>
<path d="M75.1863 210.24C76.1839 212.647 72.9424 216.85 67.2001 221.255C63.8004 223.864 59.5232 226.544 54.7304 228.964C49.937 231.385 45.3034 233.204 41.2926 234.338C34.5183 236.253 29.5187 236.212 28.521 233.805C27.615 231.619 30.2043 227.953 34.9862 223.999C35.1508 224.735 35.3591 225.467 35.613 226.192C34.2914 227.395 33.642 228.348 33.8711 228.901C34.1043 229.464 35.2191 229.537 36.9647 229.2C40.3377 228.546 46.0671 226.356 52.3375 223.19C58.6085 220.023 63.8555 216.67 66.5088 214.28C67.8811 213.043 68.5594 212.064 68.3261 211.501C68.0973 210.949 67.0194 210.868 65.3309 211.184C65.0006 210.499 64.635 209.846 64.2377 209.227C70.0747 207.819 74.2801 208.053 75.1863 210.24Z" fill="white"/>
<path d="M33.2367 236.344C30.3987 236.344 28.5515 235.576 27.9206 234.054C26.5633 230.778 31.5055 226.033 34.5721 223.497C34.7463 223.353 34.9846 223.31 35.1969 223.383C35.4111 223.457 35.5714 223.636 35.621 223.857C35.7813 224.575 35.9852 225.288 36.2265 225.976C36.3129 226.222 36.244 226.496 36.0511 226.672C34.4936 228.09 34.4748 228.62 34.476 228.663C34.4888 228.669 34.6369 228.755 35.174 228.755C35.5339 228.755 36.0655 228.711 36.841 228.561C40.259 227.899 46.0843 225.619 52.0445 222.609C58.0053 219.599 63.3813 216.222 66.074 213.797C67.7011 212.33 67.7223 211.783 67.7211 211.738C67.7035 211.751 67.5584 211.647 67.023 211.647C66.6783 211.647 66.175 211.687 65.4504 211.823C65.1607 211.878 64.8728 211.731 64.7452 211.466C64.432 210.817 64.0774 210.181 63.6903 209.578C63.5772 209.401 63.556 209.18 63.6347 208.985C63.7127 208.789 63.8808 208.644 64.0854 208.595C70.6051 207.022 74.7616 207.517 75.7868 209.99C76.8852 212.64 73.8997 216.934 67.5959 221.77C64.043 224.497 59.6954 227.185 55.0235 229.544C50.3504 231.903 45.664 233.778 41.4694 234.963C38.2061 235.886 35.4261 236.344 33.2367 236.344ZM34.6103 225.168C30.5197 228.713 28.4294 231.885 29.1218 233.556C29.9208 235.484 34.6277 235.546 41.116 233.712C45.2308 232.549 49.8373 230.706 54.4378 228.383C59.0384 226.06 63.3146 223.417 66.8046 220.739C72.3493 216.485 75.4038 212.461 74.5855 210.488C73.9057 208.848 70.3672 208.544 65.2606 209.659C65.4124 209.922 65.5581 210.19 65.6972 210.461C66.9844 210.261 68.4982 210.218 68.9265 211.252C69.2815 212.108 68.6512 213.223 66.9444 214.762C64.1293 217.298 58.7789 220.665 52.6299 223.769C46.4792 226.876 40.6689 229.144 37.0876 229.837C35.6832 230.109 33.761 230.332 33.2705 229.149C32.9438 228.361 33.4501 227.355 34.863 226.002C34.7729 225.727 34.6888 225.449 34.6103 225.168Z" fill="white"/>
<g opacity="0.41">
<path d="M66.513 214.34C66.2041 214.618 65.8608 214.909 65.4839 215.212C65.3293 214.737 65.1553 214.265 64.9624 213.799C64.932 213.726 64.9012 213.655 64.8706 213.583C64.7584 213.319 64.6409 213.06 64.5176 212.807C64.1875 212.121 63.8212 211.468 63.4245 210.849C63.3768 210.775 63.3282 210.701 63.2794 210.628C62.6745 209.715 61.9994 208.877 61.2665 208.121C59.8974 206.708 58.328 205.575 56.6365 204.761C52.5162 202.773 47.6759 202.656 43.2651 204.883C40.3208 206.371 37.9667 208.701 36.3311 211.496C37.9511 208.01 40.6043 205.078 44.0834 203.321C48.4941 201.094 53.3346 201.21 57.4538 203.198C59.1452 204.014 60.7157 205.145 62.0847 206.559C62.8166 207.315 63.4918 208.152 64.0967 209.065C64.1465 209.138 64.1942 209.213 64.2419 209.287C64.6395 209.906 65.0049 210.558 65.335 211.244C65.4582 211.498 65.5757 211.757 65.6881 212.02C65.7197 212.092 65.7503 212.163 65.7798 212.237C66.0665 212.929 66.3108 213.632 66.513 214.34Z" fill="white"/>
<path d="M65.4837 215.353C65.4704 215.353 65.4564 215.351 65.4432 215.347C65.3991 215.334 65.3639 215.3 65.3494 215.256C65.1964 214.786 65.0228 214.314 64.8316 213.854L64.7494 213.66C64.6296 213.377 64.5123 213.12 64.3906 212.869C64.0694 212.203 63.7048 211.549 63.3055 210.926L63.1616 210.706C62.5695 209.812 61.8974 208.975 61.165 208.22C59.815 206.826 58.2708 205.705 56.5753 204.889C52.3474 202.848 47.5194 202.893 43.3284 205.01C40.5068 206.436 38.1291 208.703 36.4525 211.569C36.4143 211.634 36.3303 211.656 36.2655 211.622C36.1984 211.587 36.1711 211.506 36.2026 211.438C37.9083 207.767 40.6114 204.917 44.0196 203.195C48.2906 201.039 53.2103 200.994 57.5144 203.072C59.2437 203.905 60.8157 205.046 62.1863 206.462C62.9322 207.232 63.6143 208.082 64.2144 208.988C64.2634 209.061 64.3117 209.136 64.3602 209.212C64.763 209.839 65.1338 210.503 65.4617 211.183C65.5863 211.44 65.7042 211.701 65.8179 211.965C65.8494 212.037 65.8808 212.11 65.9104 212.186C66.1935 212.867 66.4421 213.58 66.6484 214.302C66.6635 214.354 66.6471 214.41 66.6072 214.446C66.2951 214.727 65.9467 215.022 65.5718 215.322C65.5466 215.343 65.5152 215.353 65.4837 215.353ZM50.074 203.108C52.3301 203.108 54.5874 203.616 56.6977 204.634C58.4234 205.465 59.9947 206.606 61.3684 208.023C62.1124 208.791 62.7953 209.641 63.3977 210.55L63.5435 210.773C63.9487 211.406 64.3195 212.07 64.645 212.746C64.769 213.002 64.8875 213.263 65.0006 213.529L65.0931 213.745C65.2601 214.149 65.415 214.561 65.5541 214.974C65.839 214.742 66.1069 214.514 66.353 214.294C66.1546 213.612 65.9181 212.939 65.6489 212.292C65.62 212.217 65.5896 212.147 65.5588 212.077C65.4469 211.815 65.3301 211.559 65.208 211.306C64.885 210.635 64.5196 209.982 64.1234 209.364C64.0762 209.291 64.029 209.217 63.9801 209.144C63.3886 208.252 62.7172 207.416 61.9835 206.658C60.6359 205.266 59.0917 204.145 57.3927 203.326C53.1672 201.286 48.3392 201.331 44.147 203.447C41.6169 204.725 39.4812 206.637 37.8644 209.052C39.353 207.249 41.1626 205.788 43.2016 204.758C45.379 203.658 47.7258 203.108 50.074 203.108Z" fill="white"/>
</g>
<path d="M65.7753 212.176C66.0624 212.869 66.3066 213.571 66.5085 214.28C63.8553 216.67 58.6083 220.022 52.3373 223.189C46.0668 226.355 40.3374 228.546 36.9645 229.199C36.6109 228.567 36.2891 227.904 36.0021 227.211C35.862 226.873 35.7323 226.533 35.6129 226.191C35.3591 225.467 35.1507 224.735 34.9861 223.998C33.1419 215.735 36.8109 206.931 44.0785 203.261C51.3462 199.591 59.7794 202.283 64.2373 209.226C64.6346 209.846 65.0003 210.498 65.3305 211.184C65.4871 211.507 65.6354 211.838 65.7753 212.176Z" fill="white"/>
<path d="M36.9642 229.849C36.7319 229.849 36.5129 229.724 36.3969 229.516C36.0303 228.861 35.6959 228.169 35.4013 227.46C35.2567 227.11 35.1224 226.758 34.9991 226.405C34.7414 225.67 34.523 224.907 34.3518 224.139C32.4115 215.445 36.3786 206.421 43.7857 202.68C51.2313 198.917 60.0652 201.525 64.7843 208.875C65.1998 209.524 65.5803 210.205 65.916 210.902C66.0776 211.235 66.2312 211.578 66.3757 211.928C66.6691 212.635 66.9244 213.366 67.1342 214.101C67.202 214.34 67.1281 214.596 66.9437 214.762C64.1293 217.297 58.7788 220.664 52.6299 223.769C46.4792 226.875 40.6689 229.144 37.0876 229.837C37.0466 229.845 37.0054 229.849 36.9642 229.849ZM50.8764 202.274C48.6845 202.274 46.4683 202.782 44.3712 203.841C37.4886 207.317 33.8081 215.734 35.6208 223.856C35.7811 224.574 35.985 225.288 36.2263 225.976C36.3419 226.308 36.4676 226.636 36.6025 226.963C36.8154 227.476 37.0513 227.979 37.3053 228.464C40.7712 227.697 46.3466 225.486 52.0443 222.609C57.7867 219.709 62.9867 216.468 65.7671 214.066C65.5953 213.511 65.397 212.961 65.1744 212.425C65.1744 212.425 65.1744 212.425 65.1744 212.424C65.0395 212.098 64.8968 211.779 64.7456 211.467C64.4317 210.816 64.0771 210.181 63.69 209.577C60.672 204.876 55.8381 202.274 50.8764 202.274Z" fill="white"/>
<path d="M64.4484 212.89C64.708 213.517 64.929 214.152 65.1117 214.793C62.7113 216.955 57.9646 219.988 52.2913 222.853C46.6186 225.718 41.4353 227.7 38.3839 228.291C38.0641 227.719 37.773 227.119 37.5132 226.492C37.5009 226.463 37.489 226.434 37.4773 226.404C37.3638 226.127 37.2586 225.849 37.161 225.569C36.9314 224.914 36.7429 224.252 36.594 223.585C36.588 223.558 36.5818 223.531 36.5762 223.504C36.3599 222.513 36.231 221.515 36.1856 220.519C36.0992 218.625 36.3148 216.745 36.8041 214.96C37.9926 210.627 40.7963 206.857 44.8196 204.825C48.81 202.81 53.1889 202.915 56.916 204.713C58.4463 205.451 59.8665 206.475 61.1053 207.754C61.7679 208.438 62.3782 209.195 62.9256 210.021C62.9702 210.088 63.0137 210.154 63.0569 210.222C63.4162 210.782 63.7471 211.373 64.0459 211.993C64.1569 212.222 64.2635 212.457 64.3652 212.695C64.3935 212.759 64.4211 212.824 64.4484 212.89Z" fill="#FFB200"/>
<path d="M65.7372 221.104C65.6843 221.771 65.5948 222.432 65.4685 223.084C65.2927 224 65.045 224.896 64.7308 225.764C63.3681 229.527 60.7433 232.739 57.1415 234.558C53.5318 236.381 49.6039 236.469 46.1284 235.138C45.3651 234.846 44.6236 234.485 43.9126 234.059C43.3547 233.726 42.8161 233.352 42.2992 232.94C45.9277 231.915 50.1196 230.268 54.4561 228.078C58.7921 225.889 62.6615 223.464 65.7372 221.104Z" fill="#FF9100"/>
<path d="M65.1116 214.794C62.7118 216.956 57.9645 219.99 52.2916 222.854C46.6187 225.719 41.4349 227.701 38.3835 228.292C38.0643 227.72 37.7732 227.12 37.5128 226.493C37.5006 226.463 37.4892 226.435 37.4769 226.405C37.3639 226.128 37.2584 225.85 37.1613 225.57C36.9317 224.916 36.7433 224.253 36.5938 223.586C36.5878 223.559 36.5818 223.532 36.5766 223.505C36.3604 222.514 36.2312 221.515 36.1855 220.52C36.0997 218.627 36.3152 216.746 36.8043 214.961C37.7658 211.456 39.7824 208.321 42.648 206.175C41.9023 207.455 41.3231 208.844 40.9254 210.294C40.4355 212.08 40.22 213.959 40.3067 215.853C40.3515 216.849 40.4807 217.847 40.697 218.838C40.703 218.866 40.709 218.893 40.715 218.92C40.7229 218.955 40.734 218.999 40.7479 219.051C41.5031 221.86 44.2429 223.036 46.8863 222.771C51.9253 222.266 62.8357 215.756 65.1567 214.254C65.3174 214.686 64.9864 214.356 65.1116 214.794Z" fill="#FF9100"/>
<path d="M54.4563 228.078C58.7922 225.889 62.6618 223.464 65.7374 221.104C65.6845 221.771 65.5951 222.432 65.4687 223.084C63.1021 224.999 59.3184 227.368 54.9102 229.594C50.6879 231.726 46.7505 233.294 43.9129 234.059C43.355 233.726 42.8164 233.352 42.2994 232.94C45.9278 231.915 50.1197 230.268 54.4563 228.078Z" fill="#D66B09"/>
<path d="M64.3653 212.695C64.3934 212.76 64.421 212.825 64.4483 212.891C64.7079 213.518 64.9289 214.153 65.1116 214.794C62.7112 216.956 57.9645 219.989 52.2912 222.854C46.6185 225.719 41.4352 227.7 38.3838 228.291C38.064 227.72 37.7729 227.12 37.5131 226.493C37.5008 226.463 37.4889 226.435 37.4772 226.405C40.3714 226.038 45.648 224.12 51.4312 221.199C57.4427 218.164 62.3547 214.876 64.3653 212.695Z" fill="#D66B09"/>
<path d="M36.1621 221.069L36.2094 219.969C38.2281 220.075 43.5004 218.198 49.0305 215.406C55.628 212.074 59.885 208.889 60.6804 207.465L61.5303 208.043C60.4779 209.928 55.6214 213.289 49.4459 216.408C43.696 219.311 38.3576 221.185 36.1621 221.069Z" fill="#D66B09"/>
<path d="M36.8796 215.506L36.7286 214.417C38.9973 214.034 42.9275 212.523 46.9859 210.473C51.2383 208.326 54.9154 205.962 56.5818 204.305L57.2501 205.124C55.5134 206.851 51.7396 209.285 47.4013 211.475C43.2647 213.564 39.233 215.109 36.8796 215.506Z" fill="#D66B09"/>
<path d="M36.5759 224.055L36.5765 222.953C38.8929 222.955 44.3406 220.99 50.1328 218.066C56.2083 214.997 61.3027 211.557 62.5214 209.698L63.3301 210.344C61.9997 212.373 56.8629 215.879 50.5482 219.068C44.5452 222.099 39.0607 224.057 36.5759 224.055Z" fill="#D66B09"/>
<path d="M46.1474 235.413L46.1284 235.14L46.0111 234.896L46.0571 234.869L46.1095 234.864C48.1119 234.695 51.9253 233.314 55.8247 231.345C59.7457 229.365 63.0914 227.151 64.5562 225.567L64.9054 225.961C63.4021 227.586 60.0021 229.841 56.0323 231.846C52.0232 233.871 48.2355 235.237 46.1474 235.413Z" fill="#D66B09"/>
<path d="M50.9872 236.686C47.7742 236.686 44.58 235.589 41.8939 233.449L40.9032 232.659L42.1226 232.315C45.8418 231.263 50.0057 229.597 54.1627 227.498C58.3223 225.397 62.1879 223.008 65.3416 220.589L66.5004 219.699L66.3848 221.156C65.9033 227.236 62.4733 232.594 57.4342 235.138C55.3797 236.176 53.1792 236.686 50.9872 236.686ZM43.7477 233.188C47.7089 235.79 52.6196 236.112 56.8488 233.977C61.0736 231.844 64.0708 227.542 64.9073 222.533C61.938 224.685 58.4566 226.786 54.7494 228.658C50.9848 230.559 47.2098 232.112 43.7477 233.188Z" fill="#371A45"/>
<path d="M72.9621 211.138C73.8646 213.316 70.9321 217.118 65.7372 221.104C62.6615 223.463 58.792 225.888 54.456 228.077C50.1196 230.267 45.9276 231.914 42.2991 232.94C36.1706 234.672 31.6476 234.635 30.7449 232.457C29.9252 230.479 32.2677 227.163 36.5938 223.586C36.7427 224.252 36.9311 224.915 37.1608 225.569C35.9652 226.658 35.3778 227.52 35.5849 228.02C35.796 228.53 36.8043 228.596 38.3836 228.291C41.4349 227.7 46.6183 225.718 52.291 222.854C57.9642 219.989 62.711 216.956 65.1114 214.794C66.3528 213.675 66.9665 212.789 66.7554 212.28C66.5484 211.78 65.5733 211.707 64.0457 211.993C63.7469 211.373 63.416 210.782 63.0567 210.222C68.3378 208.948 72.1424 209.16 72.9621 211.138Z" fill="#FFD766"/>
<path d="M37.0699 225.305C37.0999 225.393 37.13 225.482 37.1615 225.571C35.9653 226.659 35.3773 227.52 35.5848 228.021C35.7965 228.531 36.8057 228.597 38.384 228.291C40.4076 227.9 43.3711 226.895 46.7929 225.427C46.7384 225.757 46.7379 226.068 46.7936 226.355C45.4728 226.902 44.1924 227.386 42.9779 227.798C37.6976 229.59 34.9445 229.565 34.6206 228.783C34.4309 228.327 34.9793 227.176 37.0699 225.305Z" fill="#FFAA39"/>
<path d="M36.6766 224.511L36.8026 224.685C35.7274 225.606 34.8969 226.43 34.2729 227.154C34.7381 226.394 35.5378 225.516 36.6766 224.511Z" fill="#FF9100"/>
<path d="M36.9287 224.859L36.8025 224.686C36.8207 224.668 36.8415 224.652 36.8624 224.635L36.9287 224.859Z" fill="#FF9100"/>
<path d="M34.2729 227.154C33.7848 227.945 33.6599 228.607 33.8862 229.155C34.1076 229.687 34.6275 229.986 35.3474 230.112C37.2251 230.44 40.456 229.588 43.2145 228.651C44.4634 228.228 45.7803 227.728 47.1389 227.165C47.4002 227.529 47.7882 227.814 48.2908 228.024C46.2832 228.87 44.3356 229.586 42.5109 230.15C36.0056 232.158 33.1795 231.618 32.7349 230.547C32.4883 229.951 32.8443 228.811 34.2729 227.154Z" fill="#FFAA39"/>
<path d="M54.189 228.212C49.9479 230.336 45.8534 231.935 42.2986 232.94C36.1704 234.673 31.6467 234.636 30.744 232.457C29.925 230.48 32.2683 227.164 36.5941 223.586C36.6383 223.784 36.687 223.981 36.7384 224.179L36.4916 223.823C33.9806 225.944 31.1621 228.897 32.0007 230.917C32.3245 231.698 33.0918 232.12 34.1063 232.298C36.4942 232.713 40.2432 231.776 42.7282 231.008C44.909 230.336 47.2618 229.447 49.6777 228.386C50.8802 228.555 52.4106 228.493 54.189 228.212Z" fill="#FFAA39"/>
<path d="M47.1389 227.165C45.7803 227.728 44.4634 228.228 43.2145 228.651C40.456 229.588 37.2251 230.44 35.3474 230.112C34.6275 229.986 34.1076 229.687 33.8862 229.155C33.6599 228.607 33.7847 227.945 34.2729 227.154C34.8969 226.43 35.7273 225.606 36.8026 224.686L36.9288 224.859C36.9742 225.008 37.0214 225.156 37.0699 225.305C34.9794 227.176 34.431 228.327 34.6205 228.783C34.9443 229.565 37.6974 229.59 42.9779 227.799C44.1924 227.387 45.4728 226.903 46.7936 226.355C46.8201 226.498 46.8603 226.634 46.9144 226.765C46.9737 226.907 47.0485 227.041 47.1389 227.165Z" fill="#FFCF6E"/>
<path d="M36.8025 224.686C35.7272 225.607 34.8968 226.431 34.2728 227.155C34.738 226.395 35.5378 225.517 36.6765 224.512L36.8025 224.686Z" fill="#FFEC90"/>
<path d="M36.9287 224.859L37.1809 225.207C37.1434 225.24 37.106 225.273 37.0699 225.305C37.0214 225.157 36.9743 225.009 36.9287 224.859Z" fill="#FFEC90"/>
<path d="M62.2 219.065C59.5525 220.895 56.3602 222.77 52.9658 224.484C50.9923 225.48 49.026 226.385 47.1389 227.166C47.0485 227.041 46.9737 226.907 46.9144 226.765C46.8605 226.634 46.8201 226.498 46.7936 226.355C48.6817 225.578 50.6522 224.672 52.6305 223.673C55.9928 221.974 59.1538 220.119 61.77 218.309C66.4503 215.069 68.2329 212.753 67.9102 211.973C67.7163 211.507 66.5323 211.21 63.7844 211.774L63.6738 211.115L63.6368 210.896C65.0768 210.6 66.2043 210.507 67.0308 210.615C67.885 210.728 68.4177 211.057 68.6445 211.601C69.4435 213.529 65.5802 216.724 62.2 219.065Z" fill="#FFEC90"/>
<path d="M49.6778 228.385C47.2619 229.446 44.9089 230.335 42.7283 231.008C40.2432 231.775 36.4943 232.713 34.1064 232.297C33.0919 232.12 32.3246 231.698 32.0008 230.916C31.1622 228.897 33.9807 225.944 36.4917 223.822L36.7385 224.178C36.7778 224.332 36.8188 224.483 36.8626 224.634C36.8417 224.651 36.8207 224.668 36.8026 224.685L36.6767 224.51C35.538 225.516 34.7383 226.394 34.273 227.154C32.8444 228.81 32.4884 229.951 32.735 230.546C33.1796 231.618 36.0058 232.157 42.511 230.149C44.3355 229.586 46.2833 228.869 48.2909 228.024C48.6845 228.19 49.1487 228.31 49.6778 228.385Z" fill="#FFCF6E"/>
<path d="M36.6767 224.512L36.8027 224.686C35.7275 225.607 34.897 226.431 34.2731 227.155C34.7382 226.395 35.538 225.517 36.6767 224.512Z" fill="#FFAA39"/>
<path d="M36.7385 224.18L36.9829 224.532C36.9422 224.568 36.9018 224.601 36.8626 224.635C36.8188 224.485 36.7778 224.333 36.7385 224.18Z" fill="#FFEC90"/>
<path d="M64.1328 220.2C61.1893 222.356 57.6098 224.517 53.7807 226.45C52.4058 227.146 51.0323 227.793 49.6778 228.386C49.1486 228.311 48.6843 228.19 48.2908 228.024C49.9797 227.315 51.7115 226.513 53.4455 225.638C57.236 223.725 60.7767 221.587 63.6866 219.457C69.3168 215.336 70.7945 212.622 70.3513 211.551C70.1045 210.957 69.0932 210.508 67.0307 210.615C66.1236 210.662 65.0128 210.817 63.6737 211.115C63.6 211.132 63.5251 211.148 63.45 211.165L63.2862 210.292C66.3814 209.581 70.2486 209.16 71.0857 211.179C72.1737 213.804 67.1972 217.957 64.1328 220.2Z" fill="#FFEC90"/>
<path d="M35.018 234.814C32.419 234.814 30.7254 234.107 30.1447 232.706C28.9011 229.705 33.3921 225.39 36.1799 223.084L36.9977 222.408L37.2287 223.444C37.3727 224.087 37.556 224.73 37.7743 225.354L37.9164 225.76L37.5989 226.05C36.4581 227.088 36.2439 227.592 36.2034 227.749C36.3486 227.806 36.8555 227.923 38.2606 227.652C41.3478 227.055 46.6118 224.993 51.9986 222.273C57.3853 219.553 62.2435 216.501 64.6769 214.31C65.8739 213.231 66.0958 212.71 66.137 212.551C65.9949 212.495 65.5037 212.38 64.1658 212.632L63.6765 212.723L63.4606 212.275C63.1781 211.688 62.8582 211.115 62.5097 210.573L62.0168 209.804L62.9048 209.59C68.8395 208.159 72.6222 208.62 73.5628 210.889C74.568 213.314 71.8596 217.226 66.1329 221.619C62.9163 224.087 58.9799 226.521 54.7495 228.658C50.5186 230.794 46.275 232.491 42.4759 233.565C39.5235 234.4 37.0055 234.814 35.018 234.814ZM36.2209 224.754C32.5894 227.916 30.7337 230.732 31.3459 232.208C32.0565 233.922 36.2869 233.964 42.1225 232.314C45.8417 231.262 50.0056 229.597 54.1626 227.497C58.3222 225.396 62.1878 223.007 65.3415 220.588C70.3345 216.757 73.0896 213.145 72.3614 211.386C71.7619 209.94 68.621 209.674 64.0779 210.655C64.1935 210.858 64.3048 211.063 64.4118 211.271C65.5901 211.092 66.9576 211.07 67.3563 212.03C67.6932 212.843 67.1349 213.844 65.5472 215.276C62.9959 217.574 58.1505 220.623 52.5841 223.434C47.0152 226.246 41.7531 228.3 38.5074 228.929C37.2166 229.179 35.4468 229.382 34.9847 228.269C34.6756 227.524 35.1164 226.625 36.4114 225.38C36.3444 225.173 36.2809 224.964 36.2209 224.754Z" fill="#371A45"/>
<g opacity="0.41">
<path d="M65.1155 214.85C64.8361 215.102 64.5255 215.365 64.1844 215.638C64.0446 215.209 63.8872 214.782 63.7126 214.36C63.685 214.294 63.6572 214.23 63.6296 214.165C63.5282 213.926 63.4216 213.692 63.3103 213.463C63.0116 212.843 62.6802 212.252 62.3214 211.692C62.2783 211.624 62.2342 211.558 62.19 211.491C61.6428 210.666 61.032 209.907 60.369 209.224C59.1304 207.945 57.7106 206.921 56.1804 206.184C52.4529 204.385 48.0738 204.279 44.0836 206.295C41.42 207.64 39.2903 209.748 37.8105 212.277C39.2761 209.124 41.6764 206.471 44.8239 204.881C48.8141 202.867 53.1932 202.971 56.9198 204.77C58.4498 205.508 59.8707 206.531 61.1092 207.811C61.7713 208.494 62.3821 209.252 62.9292 210.078C62.9743 210.144 63.0174 210.211 63.0605 210.279C63.4203 210.839 63.7509 211.429 64.0494 212.049C64.1608 212.279 64.2672 212.514 64.3688 212.751C64.3974 212.816 64.4251 212.881 64.4518 212.947C64.7115 213.574 64.9326 214.209 65.1155 214.85Z" fill="white"/>
</g>
<path d="M38.0464 229.019L37.8166 228.608C37.4851 228.016 37.1809 227.387 36.9123 226.741C36.781 226.424 36.6595 226.105 36.547 225.784C36.3124 225.112 36.1146 224.42 35.9597 223.727C34.1978 215.835 37.8009 207.641 44.5262 204.244C51.2952 200.828 59.3178 203.194 63.6038 209.871C63.9807 210.458 64.326 211.077 64.6315 211.711C64.7779 212.014 64.9176 212.324 65.0488 212.641C65.3149 213.282 65.5467 213.947 65.7372 214.615L65.8479 215.005L65.5467 215.276C62.996 217.574 58.1506 220.623 52.5841 223.434C47.0152 226.246 41.7531 228.3 38.5073 228.929L38.0464 229.019ZM50.969 203.995C48.9953 203.995 47 204.452 45.1123 205.405C38.9102 208.537 35.5943 216.124 37.2286 223.444C37.3725 224.088 37.5558 224.731 37.7741 225.355C37.8788 225.653 37.9919 225.95 38.1134 226.244C38.2997 226.693 38.5047 227.132 38.7255 227.555C41.8592 226.853 46.8734 224.861 51.9976 222.273C57.1672 219.663 61.8494 216.748 64.3693 214.58C64.2174 214.093 64.0426 213.61 63.8472 213.14V213.139C63.7257 212.845 63.5963 212.557 63.4601 212.276C63.1777 211.688 62.8578 211.116 62.5093 210.573C59.7908 206.339 55.4371 203.995 50.969 203.995Z" fill="#371A45"/>
</svg>
