<svg width="140" height="186" viewBox="0 0 140 186" fill="none" xmlns="http://www.w3.org/2000/svg">
<g opacity="0.2">
<path d="M73.5444 185.184C110.247 185.184 140.001 179.814 140.001 173.19C140.001 166.565 110.247 161.195 73.5444 161.195C36.8415 161.195 7.08789 166.565 7.08789 173.19C7.08789 179.814 36.8415 185.184 73.5444 185.184Z" fill="#1E3A59"/>
</g>
<path d="M110.824 143.403H30.9473L32.3146 77.6123C32.3146 72.0637 36.5744 67.5657 41.8291 67.5657H102.676C107.931 67.5657 112.191 72.0637 112.191 77.6123L110.824 143.403Z" fill="white"/>
<g opacity="0.2">
<path d="M110.824 143.403H30.9473L32.3146 77.6123C32.3146 72.0637 36.5744 67.5657 41.8291 67.5657H102.676C107.931 67.5657 112.191 72.0637 112.191 77.6123L110.824 143.403Z" fill="#1E3A59"/>
</g>
<path d="M110.819 144.708H30.9422C30.5911 144.708 30.2551 144.567 30.0094 144.316C29.764 144.065 29.6297 143.726 29.637 143.375L31.0044 77.5849C31.0041 71.3523 35.8579 66.2598 41.8241 66.2598H102.672C108.638 66.2598 113.492 71.3524 113.492 77.6122L112.124 143.43C112.109 144.14 111.529 144.708 110.819 144.708ZM32.2751 142.097H109.54L110.881 77.5849C110.88 72.7922 107.198 68.8708 102.671 68.8708H41.824C37.2977 68.8708 33.6151 72.7922 33.6151 77.6122L32.2751 142.097Z" fill="#1E3A59"/>
<path d="M133.521 111.77C133.495 112.227 133.443 112.687 133.364 113.144C132.689 117.119 130.068 120.948 126.337 122.994C120.495 126.203 112.975 124.747 108.604 119.43V134.529C118.569 136.794 125.955 142.597 128.446 149.197V149.2C128.58 149.546 128.697 149.896 128.798 150.248C128.831 150.359 128.864 150.47 128.893 150.581C128.958 150.822 129.017 151.067 129.069 151.312C129.092 151.426 129.115 151.544 129.138 151.661C129.161 151.782 129.18 151.903 129.2 152.024C129.203 152.027 129.203 152.033 129.203 152.04C129.226 152.183 129.245 152.327 129.262 152.471C129.275 152.565 129.285 152.663 129.294 152.761C129.301 152.82 129.308 152.875 129.314 152.931C129.321 152.99 129.324 153.048 129.327 153.104C129.334 153.189 129.34 153.274 129.343 153.358C129.36 153.623 129.366 153.887 129.366 154.152C129.366 154.285 129.363 154.419 129.356 154.556C129.35 154.68 129.343 154.804 129.337 154.928C129.327 155.072 129.317 155.216 129.301 155.356C129.291 155.47 129.278 155.581 129.262 155.692C129.255 155.764 129.245 155.833 129.232 155.904C129.223 155.973 129.213 156.038 129.203 156.103C129.193 156.172 129.183 156.244 129.167 156.312C129.148 156.423 129.128 156.531 129.105 156.639C129.076 156.782 129.043 156.923 129.01 157.066C128.975 157.207 128.939 157.35 128.899 157.491C128.86 157.634 128.818 157.775 128.775 157.918C128.642 158.343 128.485 158.767 128.305 159.188C128.224 159.374 128.139 159.56 128.051 159.746C127.94 159.981 127.819 160.213 127.692 160.445C127.538 160.722 127.379 160.996 127.206 161.27C127.082 161.466 126.954 161.659 126.817 161.851C126.481 162.341 126.106 162.824 125.694 163.304C125.58 163.434 125.463 163.568 125.342 163.702C125.1 163.966 124.849 164.227 124.585 164.489C124.324 164.746 124.049 165.004 123.762 165.259C123.475 165.513 123.175 165.768 122.865 166.019C122.398 166.391 121.905 166.76 121.386 167.126C121.255 167.217 121.122 167.305 120.988 167.397C120.854 167.488 120.717 167.576 120.58 167.664C120.446 167.753 120.306 167.841 120.165 167.929C118.941 168.699 117.59 169.433 116.098 170.125C115.932 170.204 115.766 170.279 115.596 170.354C115.42 170.432 115.243 170.51 115.064 170.589C114.888 170.667 114.705 170.745 114.522 170.821C114.28 170.925 114.032 171.026 113.784 171.124C113.337 171.3 112.883 171.477 112.417 171.646C112.289 171.695 112.159 171.741 112.032 171.79C111.96 171.813 111.888 171.839 111.816 171.865C111.542 171.96 111.265 172.058 110.984 172.152C110.821 172.208 110.658 172.26 110.491 172.315C109.809 172.541 109.104 172.756 108.379 172.965C108.014 173.073 107.638 173.177 107.26 173.278C106.692 173.432 106.111 173.582 105.517 173.729C105.337 173.771 105.158 173.817 104.975 173.859C104.117 174.062 103.235 174.257 102.325 174.44C101.646 174.577 100.954 174.711 100.246 174.838C99.8899 174.904 99.5277 174.966 99.1621 175.028C98.8749 175.073 98.5844 175.122 98.2907 175.168C97.1222 175.354 95.9146 175.524 94.671 175.68C85.7637 178.2 77.493 178.856 71.0272 174.235C70.9489 174.3 70.8673 174.365 70.7857 174.43C70.5409 174.623 70.2929 174.806 70.0382 174.982C69.7021 175.214 69.3528 175.426 68.9971 175.625C68.8176 175.723 68.638 175.818 68.4552 175.909C68.2268 176.02 67.9951 176.128 67.7601 176.229C67.6425 176.281 67.5251 176.33 67.4043 176.376C67.0257 176.526 66.6373 176.663 66.2391 176.78C66.1608 176.803 66.0824 176.826 66.0008 176.849C65.8539 176.891 65.7038 176.934 65.5537 176.97C65.3611 177.019 65.1686 177.064 64.9727 177.107C64.8193 177.14 64.6626 177.172 64.5027 177.198C64.4015 177.218 64.297 177.238 64.1926 177.254C63.8597 177.309 63.5203 177.355 63.1776 177.394C63.0503 177.41 62.923 177.42 62.7925 177.433C62.7109 177.44 62.626 177.45 62.5412 177.453C62.44 177.463 62.3388 177.469 62.2344 177.476C62.0516 177.489 61.8656 177.499 61.6795 177.505C58.7975 177.619 55.9579 176.905 53.3631 175.648C49.8838 173.964 45.8463 172.959 41.3976 172.433C36.7236 171.878 32.1836 170.413 28.2147 167.883C27.7642 167.596 27.3301 167.305 26.9091 167.008C26.7818 166.92 26.6578 166.829 26.5338 166.738C26.3804 166.63 26.2302 166.519 26.0834 166.405C25.9398 166.297 25.7961 166.186 25.6558 166.075C25.597 166.029 25.5383 165.984 25.4796 165.935C25.2968 165.791 25.114 165.641 24.9378 165.494C24.7387 165.328 24.5429 165.161 24.3535 164.991C24.2099 164.867 24.0695 164.74 23.9325 164.609C23.7922 164.482 23.6583 164.355 23.5245 164.221C23.5115 164.215 23.4984 164.202 23.4853 164.185C23.4103 164.117 23.3352 164.045 23.2634 163.97C23.0871 163.8 22.9174 163.627 22.751 163.451C22.1961 162.87 21.687 162.279 21.2235 161.678C21.1092 161.535 20.9983 161.391 20.8938 161.248C20.8612 161.205 20.8286 161.163 20.8024 161.12C20.6915 160.974 20.5838 160.823 20.4825 160.673C20.4597 160.644 20.4401 160.614 20.4238 160.585C20.3161 160.435 20.2149 160.282 20.1203 160.128C20.0843 160.082 20.0549 160.037 20.0288 159.988C19.9244 159.828 19.8264 159.668 19.7318 159.505C19.6143 159.312 19.5066 159.12 19.3989 158.927C19.3271 158.8 19.2585 158.672 19.19 158.542C19.0986 158.366 19.0072 158.189 18.9224 158.013C18.7396 157.641 18.5764 157.266 18.4263 156.893C18.2728 156.521 18.1358 156.146 18.015 155.767C17.891 155.392 17.7832 155.02 17.6886 154.645C17.2546 152.941 17.1109 151.244 17.2415 149.608C17.2415 149.563 17.248 149.517 17.2513 149.468C17.2676 149.289 17.2839 149.109 17.3067 148.929C17.3328 148.727 17.3622 148.528 17.3948 148.329C17.4275 148.133 17.4634 147.934 17.5026 147.738C17.545 147.542 17.5907 147.35 17.6363 147.154C17.6853 146.961 17.7376 146.769 17.7963 146.58C17.8518 146.39 17.9105 146.201 17.9758 146.015V146.012C20.2181 139.448 27.1571 134.689 37.0598 135.734V119.972C32.3631 122.717 28.1461 124.01 25.2575 124.662C25.2543 124.666 25.251 124.666 25.2477 124.666C21.85 125.436 18.8733 126.072 15.2047 125.132C14.3496 124.914 13.5596 124.636 12.8416 124.323C11.177 123.608 9.89104 122.724 9 122.015C10.6123 120.044 12.3618 117.697 14.0917 114.959C15.2471 113.134 16.3928 111.133 17.4861 108.96C19.5946 104.769 21.0438 100.852 22.0589 97.4707C28.4789 83.6383 39.6122 76.1281 54.3063 73.4027L94.5796 70.8601C98.9108 72.5443 104.701 75.3088 110.755 79.8717C115.828 83.697 119.637 87.692 122.391 91.0669C123.361 92.2484 124.363 93.4006 125.388 94.5332C128.668 98.1725 130.509 101.639 131.56 104.064C132.81 106.949 133.671 109.002 133.521 111.77Z" fill="white"/>
<g opacity="0.2">
<path d="M108.715 122.29L108.181 116.772C107.99 114.8 106.333 113.295 104.353 113.295H99.544V110.889C99.544 106.968 96.3662 103.79 92.4461 103.79H52.9868C49.0668 103.79 45.889 106.969 45.889 110.889V113.295H41.5615C39.5807 113.295 37.9237 114.8 37.7329 116.772L37.1989 122.29C37.0851 123.467 38.0096 124.485 39.1914 124.485H45.889V130.742C45.889 134.662 49.0668 137.84 52.9868 137.84H92.4461C96.3661 137.84 99.544 134.662 99.544 130.742V124.485H106.723C107.905 124.485 108.829 123.467 108.715 122.29Z" fill="#371A45"/>
</g>
<path d="M38.536 96.3403L39.0456 120.36C39.0647 121.263 38.3481 122.011 37.4449 122.03C36.4626 122.059 35.6664 121.182 35.7852 120.208L38.536 96.3403Z" fill="#371A45"/>
<path d="M104.373 94.1738C107.876 102.225 109.871 110.933 110.596 119.707C110.671 120.607 110.004 121.398 109.104 121.474C108.204 121.55 107.413 120.882 107.337 119.982C107.686 111.302 106.845 102.558 104.373 94.1738Z" fill="#371A45"/>
<g opacity="0.2">
<path d="M36.7572 110.436V120.064C34.9163 121.269 30.7581 123.723 24.9549 124.755C24.9516 124.758 24.9483 124.758 24.9451 124.758C23.1009 125.088 21.0871 125.27 18.9296 125.225C16.5861 125.176 14.445 124.862 12.5389 124.415C10.8743 123.7 9.5883 122.816 8.69727 122.108C10.3096 120.136 12.0591 117.789 13.7889 115.051C15.3654 115.355 17.0854 115.557 18.9296 115.596C27.8728 115.785 34.3321 112.022 36.7572 110.436Z" fill="#1E3A59"/>
<path d="M94.3698 166.142C85.4631 168.662 77.1936 169.317 70.7271 164.698C68.1683 166.827 65.0032 167.826 61.3779 167.969C58.4965 168.082 55.657 167.368 53.0618 166.111C49.5851 164.427 45.5472 163.422 41.0957 162.895C36.422 162.342 31.8846 160.875 27.9145 158.347C22.3563 154.808 19.0645 150.455 17.6744 146.103C15.3411 152.936 18.0981 161.727 27.9145 167.976C31.8846 170.504 36.422 171.971 41.0957 172.525C45.5472 173.052 49.5851 174.056 53.0618 175.74C55.657 176.997 58.4965 177.711 61.3779 177.598C65.0032 177.456 68.1683 176.456 70.7271 174.327C77.1936 178.947 85.4631 178.291 94.3698 175.771C123.854 172.09 132.08 159.693 128.147 149.288C125.211 156.727 114.993 163.567 94.3698 166.142Z" fill="#1E3A59"/>
<path d="M133.061 113.236C132.385 117.212 129.764 121.04 126.034 123.087C120.191 126.295 112.671 124.839 108.301 119.523V111.337C109.273 112.326 115.047 117.998 123.455 116.996C127.414 116.523 130.535 114.738 132.777 112.92C132.871 113.024 132.966 113.132 133.061 113.236Z" fill="#1E3A59"/>
</g>
<path d="M82.2134 179.053C77.7392 179.053 74.0178 178.021 70.7762 175.939C68.2448 177.762 65.1053 178.758 61.4279 178.903C58.4609 179.023 55.4547 178.351 52.4913 176.915C49.3172 175.378 45.5389 174.366 40.9406 173.821C35.8228 173.215 31.2038 171.619 27.2117 169.078C17.7944 163.082 13.5777 153.858 16.4694 145.577C19.0361 138.228 26.4012 133.95 35.4524 134.413V122.275C32.179 123.974 28.751 125.235 25.2338 126.031C21.985 126.766 18.6257 127.526 14.5798 126.489C12.1745 125.872 9.92299 124.743 7.88767 123.131C7.61334 122.914 7.43773 122.595 7.40013 122.247C7.36253 121.899 7.46642 121.551 7.68826 121.28C10.9249 117.328 13.7274 113.017 16.018 108.465C17.833 104.858 19.3427 101.064 20.5053 97.1888C20.5231 97.129 20.5453 97.0709 20.5716 97.014C26.8536 83.4779 38.0212 75.1327 53.7646 72.2102C53.8162 72.2007 53.8682 72.1943 53.9206 72.1912L94.1956 69.6482C94.3841 69.6346 94.5741 69.6655 94.7509 69.7341C100.644 72.0249 106.192 75.1161 111.24 78.9219C115.631 82.2323 119.622 86.0714 123.102 90.3317C123.96 91.3826 124.926 92.5011 126.054 93.7512C128.759 96.7506 130.913 100.077 132.456 103.637C133.706 106.522 134.693 108.8 134.522 111.932C134.249 116.933 131.164 121.761 126.664 124.231C121.157 127.254 114.425 126.515 109.608 122.643V133.594C122.145 136.796 130.815 145.619 130.356 154.862C130.175 158.492 128.479 163.816 121.422 168.568C115.22 172.744 106.206 175.599 94.628 177.054C89.9076 178.383 85.8162 179.053 82.2134 179.053ZM70.7258 173.022C70.991 173.022 71.2568 173.102 71.4844 173.265C76.7712 177.042 83.7191 177.426 94.0128 174.515C94.0764 174.497 94.1411 174.484 94.2066 174.476C114.722 171.915 127.26 164.534 127.748 154.733C128.157 146.51 119.857 138.588 108.013 135.895C107.419 135.76 106.997 135.232 106.997 134.622V119.523C106.997 118.972 107.343 118.48 107.862 118.294C108.381 118.108 108.961 118.268 109.311 118.694C113.278 123.518 120.047 124.885 125.407 121.942C129.078 119.927 131.693 115.847 131.915 111.79C132.046 109.39 131.332 107.612 130.06 104.675C128.63 101.375 126.63 98.2885 124.115 95.5C122.958 94.2179 121.965 93.0673 121.08 91.9832C117.732 87.8847 113.892 84.1914 109.668 81.0065C104.888 77.403 99.6423 74.4652 94.0716 72.272L54.1642 74.7919C39.1659 77.5954 28.9632 85.1981 22.9791 98.0294C21.7766 102.019 20.2197 105.924 18.3508 109.639C16.1802 113.952 13.5667 118.057 10.5718 121.859C12.0261 122.834 13.5873 123.538 15.2286 123.959C18.6639 124.841 21.4415 124.212 24.6577 123.484C28.6243 122.587 32.4737 121.056 36.099 118.937C36.5027 118.7 37.002 118.699 37.4077 118.931C37.8133 119.164 38.0636 119.596 38.0636 120.064V135.825C38.0636 136.195 37.9065 136.548 37.6314 136.796C37.3564 137.043 36.9882 137.161 36.6212 137.124C28.1622 136.23 21.222 139.888 18.9345 146.438C16.4571 153.532 20.2566 161.554 28.6142 166.875C32.2724 169.204 36.5229 170.669 41.2477 171.229C46.1394 171.807 50.1896 172.899 53.6295 174.565C56.2025 175.812 58.7912 176.392 61.3254 176.294C64.8538 176.155 67.6554 175.184 69.8906 173.324C70.1316 173.123 70.4282 173.022 70.7258 173.022Z" fill="#1E3A59"/>
<path d="M108.299 140.879C105.943 141.96 103.445 142.467 100.933 142.966C98.4975 143.478 96.094 144.102 93.7299 144.853C88.9722 146.345 84.4138 148.32 79.8928 150.444C79.4519 150.699 78.8937 150.681 78.5132 150.367C74.7923 147.72 67.7141 144.318 63.9749 148.231C60.7285 152.259 63.6187 159.468 65.6497 163.656C67.3701 167.109 69.481 170.401 71.7766 173.56C72.2012 174.143 72.0725 174.959 71.4893 175.383C70.9066 175.807 70.0911 175.677 69.6678 175.094C67.3102 171.848 65.1253 168.451 63.3123 164.812C61.108 160.178 59.0034 154.845 60.3563 149.609C62.2731 143.106 69.3356 142.935 74.5803 145.207C76.5268 146.005 78.3297 147.053 80.0162 148.235L78.6369 148.158C80.8196 146.769 83.1199 145.555 85.499 144.508C91.2076 141.95 102.347 138.631 108.299 140.879Z" fill="#1E3A59"/>
<path d="M35.709 144.007C38.2863 142.679 41.4197 143.531 43.6155 145.255L43.0121 144.909L61.7056 149.707C63.3546 150.18 62.7505 152.614 61.0564 152.236L42.3629 147.438C42.1253 147.383 41.9144 147.259 41.7594 147.091C40.4607 145.041 38.2043 143.653 35.709 144.007Z" fill="#1E3A59"/>
<path d="M80.2297 149.447C79.2408 153.6 79.694 158.028 81.1866 162.055C80.1404 160.137 79.3092 158.071 78.8013 155.893C78.2906 153.717 78.1126 151.433 78.2933 149.155C78.3318 148.611 78.807 148.202 79.3507 148.245C79.9443 148.287 80.3685 148.87 80.2297 149.447Z" fill="#1E3A59"/>
<path d="M36.7513 173.038C36.1373 173.038 35.5899 172.602 35.4704 171.976C33.6105 162.24 35.6271 153.546 41.6355 145.398C42.0634 144.818 42.8809 144.695 43.4611 145.122C44.0414 145.55 44.165 146.367 43.7369 146.948C38.1844 154.478 36.3195 162.505 38.0352 171.487C38.1705 172.195 37.706 172.879 36.9978 173.014C36.915 173.03 36.8325 173.038 36.7513 173.038Z" fill="#1E3A59"/>
<path d="M107.084 174.638C107.074 174.638 107.064 174.638 107.054 174.637C106.333 174.621 105.762 174.023 105.779 173.302C106.095 159.478 102.885 149.688 95.9665 143.375C95.4339 142.889 95.3962 142.063 95.8822 141.53C96.3683 140.998 97.194 140.96 97.7266 141.446C105.236 148.298 108.724 158.738 108.389 173.362C108.373 174.073 107.791 174.638 107.084 174.638Z" fill="#1E3A59"/>
<g opacity="0.2">
<path d="M36.7617 140.875C88.0373 140.26 101.954 140.723 101.978 141.447C101.99 141.813 98.4446 142.034 92.5201 143.812C87.4113 145.346 83.2334 147.226 80.1043 148.847C75.5025 144.342 69.5104 143.482 65.3462 145.695C63.6855 146.578 62.3301 148.251 61.3788 150.971C56.9492 150.69 49.9887 149.589 42.8816 145.363C40.4605 143.923 38.4331 142.365 36.7617 140.875Z" fill="#1E3A59"/>
</g>
<path d="M112.235 95.5395C116.861 96.4948 122.142 99.3238 124.581 103.501C124.865 103.866 124.479 104.344 124.081 104.079C120.27 101.199 115.869 99.3024 111.349 97.996C109.642 97.3758 110.473 95.0092 112.235 95.5395Z" fill="#1E3A59"/>
<g opacity="0.2">
<path d="M105.444 76.2794C96.792 85.1047 84.6241 90.5985 71.1497 90.5985C59.0721 90.5985 48.0412 86.1803 39.6562 78.9071C44.1176 76.4418 49.1422 74.7381 54.6684 73.713L94.9439 71.1719C98.622 72.6481 102.156 74.3122 105.444 76.2794Z" fill="#1E3A59"/>
</g>
<path d="M117.09 125.892C116.854 125.892 116.616 125.828 116.401 125.695C115.789 125.314 115.601 124.509 115.982 123.897C120.16 117.183 121.617 108.432 119.694 101.602C119.499 100.908 119.903 100.187 120.597 99.9916C121.291 99.7961 122.012 100.2 122.208 100.894C124.353 108.513 122.817 117.856 118.199 125.276C117.952 125.674 117.526 125.892 117.09 125.892Z" fill="#1E3A59"/>
<path d="M32.919 116.287C32.5914 116.287 32.2635 116.165 32.0097 115.918C27.6829 111.718 22.7183 110.281 16.8318 111.526C16.1274 111.675 15.4335 111.224 15.2844 110.519C15.1352 109.813 15.5861 109.12 16.2916 108.971C22.9995 107.553 28.8995 109.26 33.8286 114.045C34.3459 114.547 34.3581 115.374 33.8558 115.891C33.5999 116.155 33.2597 116.287 32.919 116.287Z" fill="#1E3A59"/>
<path d="M16.8551 144.791C24.6366 144.791 30.9446 139.165 30.9446 132.225C30.9446 125.285 24.6366 119.659 16.8551 119.659C9.07372 119.659 2.76562 125.285 2.76562 132.225C2.76562 139.165 9.07372 144.791 16.8551 144.791Z" fill="#C0BECC"/>
<g opacity="0.2">
<path d="M16.8551 141.636C24.6366 141.636 30.9446 136.01 30.9446 129.07C30.9446 122.13 24.6366 116.504 16.8551 116.504C9.07372 116.504 2.76562 122.13 2.76562 129.07C2.76562 136.01 9.07372 141.636 16.8551 141.636Z" fill="black"/>
</g>
<path d="M16.8483 146.097C8.35939 146.097 1.45312 139.874 1.45312 132.225C1.45312 124.576 8.35939 118.354 16.8483 118.354C25.3372 118.354 32.2433 124.576 32.2433 132.225C32.2433 139.874 25.3372 146.097 16.8483 146.097ZM16.8483 120.965C9.7991 120.965 4.0642 126.016 4.0642 132.225C4.0642 138.434 9.79903 143.486 16.8483 143.486C23.8974 143.486 29.6322 138.434 29.6322 132.225C29.6322 126.016 23.8974 120.965 16.8483 120.965Z" fill="#1E3A59"/>
<path d="M5.20058 140.598C4.84039 140.598 4.48166 140.45 4.22382 140.159C3.74513 139.62 3.79408 138.795 4.33328 138.316C12.5604 131.013 21.937 131.03 29.4149 138.361C29.9298 138.865 29.9382 139.692 29.4333 140.207C28.9288 140.722 28.1016 140.73 27.5872 140.225C21.1025 133.869 13.2587 133.884 6.0669 140.269C5.81812 140.49 5.50876 140.598 5.20058 140.598Z" fill="#1E3A59"/>
<path d="M16.8531 146.097C16.8422 146.097 16.8315 146.097 16.8206 146.097C16.0999 146.079 15.5297 145.481 15.5473 144.76L15.8068 134.1C15.8245 133.379 16.4333 132.814 17.1439 132.826C17.8646 132.844 18.4348 133.442 18.4172 134.163L18.1576 144.823C18.1402 145.533 17.5593 146.097 16.8531 146.097Z" fill="#1E3A59"/>
<path d="M6.53261 119.249C14.0474 112.336 26.6063 115.587 30.9451 123.903L32.7468 128.588C33.3074 130.046 32.473 131.72 30.9432 132.036C30.8607 132.053 30.7767 132.068 30.6911 132.079C29.1135 132.286 27.6203 131.315 27.021 129.841C26.1744 127.759 25.1513 125.991 23.7357 124.923C23.1813 124.504 22.4026 124.57 21.9126 125.062C20.0481 126.935 20.0913 129.659 21.3703 132.933C21.7413 134.788 21.2218 136.164 20.3311 136.931C19.0523 138.033 17.0571 137.56 16.3134 136.045C14.8351 133.033 15.9829 129.612 13.6638 127.709C13.5949 127.653 13.5245 127.6 13.453 127.551C12.3745 126.813 10.9125 126.972 9.93321 127.838C9.4479 128.267 8.91231 128.789 8.36907 129.411C6.68691 131.336 6.52119 132.4 5.44236 132.705C4.04053 133.101 1.18171 132.099 1.31296 130.371C1.50966 127.78 2.32453 125.52 3.55981 123.185C4.33373 121.723 5.31495 120.369 6.53261 119.249Z" fill="white"/>
<g opacity="0.2">
<path d="M21.2068 132.507C21.0407 132.735 20.8507 132.936 20.6397 133.106C19.2696 134.208 17.1318 133.734 16.3348 132.219C14.7509 129.208 15.9807 125.786 13.4958 123.884C13.422 123.827 13.3467 123.775 13.2701 123.726C12.1145 122.987 10.5481 123.147 9.49871 124.012C8.97866 124.441 8.40484 124.963 7.82281 125.585C6.02048 127.511 5.84292 128.575 4.68702 128.88C3.86261 129.097 2.56877 128.893 1.59167 128.379C1.45694 129.025 1.35912 129.686 1.3071 130.371C1.17585 132.099 4.03467 133.101 5.4365 132.705C6.51533 132.4 6.68104 131.336 8.3632 129.41C8.90645 128.789 9.44196 128.267 9.92734 127.838C10.9067 126.972 12.3686 126.813 13.4471 127.551C13.5187 127.6 13.589 127.653 13.6579 127.709C15.977 129.612 14.8293 133.033 16.3075 136.045C17.0513 137.56 19.0466 138.033 20.3253 136.931C21.2159 136.164 21.7354 134.788 21.3644 132.933C21.3086 132.789 21.258 132.649 21.2068 132.507Z" fill="black"/>
<path d="M32.5358 128.052C32.3706 128.12 32.1963 128.175 32.0111 128.211C31.9227 128.228 31.8327 128.242 31.7409 128.253C30.0505 128.461 28.4506 127.49 27.8086 126.016C26.9015 123.933 25.8053 122.165 24.2885 121.097C23.6945 120.679 22.8602 120.744 22.3352 121.236C20.9028 122.58 20.5257 124.361 20.9295 126.468C21.164 125.959 21.4844 125.487 21.9078 125.062C22.3978 124.569 23.1766 124.504 23.7309 124.922C25.1464 125.991 26.1696 127.759 27.0162 129.841C27.6154 131.315 29.1087 132.286 30.6863 132.079C30.7719 132.067 30.856 132.053 30.9384 132.036C32.4681 131.72 33.3025 130.046 32.742 128.588L32.5358 128.052Z" fill="black"/>
</g>
<path d="M18.7011 138.84C18.4395 138.84 18.1753 138.814 17.9115 138.76C16.6949 138.511 15.6841 137.731 15.1384 136.62C14.4134 135.143 14.2392 133.63 14.0856 132.295C13.8847 130.55 13.7167 129.444 12.8327 128.718C12.7934 128.686 12.7528 128.656 12.7118 128.628C12.1559 128.247 11.3493 128.326 10.7948 128.816C10.2822 129.269 9.79587 129.758 9.34934 130.269C8.73925 130.967 8.33826 131.553 8.01595 132.024C7.41965 132.895 6.90454 133.647 5.79417 133.961C4.42012 134.35 2.45875 133.886 1.23244 132.883C0.3687 132.176 -0.0661314 131.249 0.00816239 130.271C0.202635 127.71 0.941045 125.336 2.40283 122.574C3.29477 120.889 4.38579 119.447 5.64558 118.288C9.27832 114.946 14.3349 113.549 19.5188 114.456C25.0082 115.415 29.7112 118.721 32.0996 123.299C32.1226 123.342 32.143 123.388 32.1606 123.434L33.9622 128.119C34.3781 129.201 34.2977 130.405 33.7417 131.422C33.2064 132.402 32.2816 133.092 31.2045 133.315C31.0924 133.338 30.9786 133.357 30.863 133.372C28.7265 133.655 26.6501 132.403 25.8085 130.333C24.9373 128.189 24.001 126.76 22.9462 125.964C22.9166 125.942 22.8676 125.95 22.8348 125.982C21.4911 127.333 21.4088 129.451 22.5834 132.457C22.6111 132.529 22.6325 132.602 22.6474 132.676C23.0789 134.834 22.5441 136.745 21.1801 137.92C20.4826 138.521 19.6085 138.84 18.7011 138.84ZM11.9042 125.771C12.7043 125.771 13.4998 126.002 14.1876 126.473C14.2901 126.544 14.3903 126.619 14.4884 126.699C16.2347 128.132 16.471 130.185 16.6796 131.996C16.8154 133.176 16.9558 134.396 17.4822 135.469C17.6689 135.849 18.0158 136.116 18.4344 136.202C18.6574 136.247 19.09 136.274 19.4757 135.942C20.0875 135.415 20.3152 134.454 20.1069 133.293C18.5873 129.331 18.8823 126.252 20.9841 124.14C21.933 123.187 23.4526 123.075 24.5189 123.88C25.9807 124.983 27.1591 126.721 28.2275 129.349C28.6219 130.32 29.5639 130.908 30.518 130.784C30.5687 130.777 30.6232 130.768 30.6766 130.757C31.121 130.666 31.352 130.35 31.4503 130.171C31.6379 129.827 31.6653 129.421 31.525 129.056L29.751 124.442C27.7534 120.67 23.6676 117.832 19.0692 117.028C14.6919 116.262 10.4434 117.422 7.41345 120.209C6.37278 121.167 5.46329 122.373 4.71061 123.796C3.42498 126.225 2.77764 128.283 2.61172 130.469C2.60085 130.612 2.79972 130.791 2.88578 130.861C3.52239 131.382 4.64028 131.573 5.08444 131.448C5.26088 131.398 5.40048 131.222 5.8615 130.549C6.20337 130.049 6.6717 129.365 7.38296 128.551C7.90294 127.956 8.46923 127.387 9.06553 126.859C9.88025 126.139 10.8957 125.771 11.9042 125.771Z" fill="#1E3A59"/>
<path d="M111.296 53.9066L110.506 53.9034C110.103 53.9018 109.778 53.5737 109.779 53.1704L109.871 30.0231C109.873 29.6199 110.201 29.2943 110.604 29.2959L111.394 29.299C115.624 29.3159 119.04 32.7587 119.023 36.9889L118.986 46.2777C118.969 50.5079 115.527 53.9234 111.296 53.9066Z" fill="white"/>
<path d="M111.328 54.1352C111.317 54.1352 111.307 54.1352 111.296 54.1352L110.506 54.1321C110.25 54.1311 110.009 54.0304 109.829 53.8486C109.648 53.6668 109.55 53.4255 109.551 53.1694L109.643 30.0222C109.645 29.4947 110.075 29.0671 110.602 29.0671C110.603 29.0671 110.604 29.0671 110.605 29.0671L111.395 29.0704C113.502 29.0788 115.48 29.9072 116.964 31.4029C118.448 32.8987 119.26 34.8828 119.252 36.9897L119.215 46.2784C119.207 48.3855 118.378 50.3632 116.882 51.8471C115.395 53.3233 113.423 54.135 111.328 54.1352ZM110.602 29.5245C110.469 29.5245 110.343 29.576 110.249 29.6699C110.153 29.7643 110.101 29.8899 110.1 30.0238L110.008 53.1713C110.008 53.3053 110.059 53.4314 110.154 53.5264C110.248 53.6216 110.374 53.6743 110.508 53.6747L111.297 53.6778C111.308 53.6779 111.318 53.6779 111.328 53.6779C113.302 53.6779 115.159 52.9131 116.56 51.5224C117.969 50.1245 118.75 48.2616 118.758 46.2767L118.795 36.988C118.803 35.0031 118.037 33.1341 116.639 31.725C115.241 30.316 113.379 29.5356 111.394 29.5278L110.604 29.5245C110.603 29.5245 110.602 29.5245 110.602 29.5245Z" fill="#371A45"/>
<g opacity="0.25">
<path d="M119.002 41.877L118.988 45.557C118.969 50.1838 115.203 53.9218 110.573 53.9051C110.132 53.9038 109.776 53.5424 109.777 53.1014L109.8 46.9845C109.922 47.2639 110.201 47.4576 110.525 47.4614L111.07 47.462C114.728 47.4773 117.85 45.145 119.002 41.877Z" fill="#1E3A59"/>
</g>
<path d="M111.328 55.1795C111.315 55.1795 111.303 55.1795 111.291 55.1795L110.501 55.1764C109.966 55.1743 109.464 54.9639 109.087 54.5841C108.71 54.2042 108.504 53.7002 108.506 53.1651L108.598 30.0179C108.6 29.483 108.811 28.9809 109.19 28.604C109.568 28.2291 110.069 28.0229 110.601 28.0229C110.603 28.0229 110.606 28.0229 110.609 28.0229L111.399 28.0262C113.785 28.0357 116.024 28.9737 117.705 30.6675C119.385 32.3614 120.305 34.6081 120.296 36.994L120.259 46.2827C120.249 48.6687 119.311 50.908 117.617 52.5883C115.932 54.2603 113.7 55.1795 111.328 55.1795ZM111.054 52.6329L111.301 52.6337C111.31 52.6339 111.319 52.6339 111.327 52.6339C113.023 52.6339 114.619 51.9765 115.824 50.7813C117.035 49.5798 117.706 47.9786 117.713 46.2726L117.75 36.9839C117.756 35.278 117.099 33.6716 115.897 32.4606C114.696 31.2494 113.095 30.5787 111.389 30.5721L111.142 30.5709L111.054 52.6329Z" fill="#1E3A59"/>
<path d="M34.0004 28.991L34.7903 28.9942C35.1935 28.9958 35.5191 29.3239 35.5175 29.7272L35.4253 52.8745C35.4237 53.2778 35.0955 53.6033 34.6923 53.6017L33.9024 53.5986C29.6722 53.5817 26.2567 50.1389 26.2735 45.9087L26.3105 36.6199C26.3273 32.3897 29.7702 28.9742 34.0004 28.991Z" fill="white"/>
<path d="M34.6958 53.8304C34.6944 53.8304 34.693 53.8304 34.6916 53.8304L33.9018 53.8272C31.7948 53.8188 29.8171 52.9904 28.3333 51.4947C26.8494 49.9989 26.0368 48.0148 26.045 45.9079L26.082 36.6191C26.0904 34.5121 26.9188 32.5344 28.4146 31.0506C29.9102 29.5666 31.8934 28.7654 34.0014 28.7625L34.7913 28.7656C35.0474 28.7666 35.2878 28.8672 35.4682 29.0491C35.6486 29.231 35.7474 29.472 35.7464 29.7281L35.6543 52.8753C35.6533 53.1314 35.5526 53.3718 35.3708 53.5523C35.1899 53.7317 34.9504 53.8304 34.6958 53.8304ZM33.9692 29.2196C31.9957 29.2196 30.1386 29.9844 28.7368 31.3752C27.3277 32.773 26.5474 34.6359 26.5395 36.6207L26.5025 45.9095C26.4945 47.8944 27.26 49.7634 28.658 51.1725C30.0558 52.5815 31.9188 53.3619 33.9035 53.3697L34.6934 53.3729C34.6943 53.3729 34.695 53.3729 34.6957 53.3729C34.8289 53.3729 34.9541 53.3214 35.0486 53.2275C35.1438 53.1332 35.1964 53.0075 35.1968 52.8736L35.289 29.7264C35.2901 29.4498 35.0661 29.2239 34.7897 29.2229L33.9998 29.2198C33.9896 29.2196 33.9793 29.2196 33.9692 29.2196Z" fill="#371A45"/>
<g opacity="0.25">
<path d="M35.4549 46.4227L35.4288 52.8061C35.4275 53.2471 35.066 53.6031 34.6251 53.6019C32.1958 53.5912 30.0096 52.5492 28.485 50.8897C27.1082 49.3911 26.271 47.3869 26.2794 45.1894L26.2923 41.8831C27.5946 44.789 30.5139 46.8215 33.9073 46.8357L34.747 46.8389C35.0536 46.8393 35.3149 46.671 35.4549 46.4227Z" fill="#371A45"/>
</g>
<path d="M34.6951 54.8747C34.6923 54.8747 34.6894 54.8747 34.6865 54.8747L33.8969 54.8715C28.9717 54.8519 24.9806 50.8291 25.0001 45.9038L25.0371 36.6148C25.0466 34.229 25.9846 31.9896 27.6784 30.3092C29.3635 28.6375 31.596 27.7183 33.9682 27.7183C33.9805 27.7183 33.9927 27.7183 34.0049 27.7183L34.7947 27.7214C35.3298 27.7236 35.832 27.9339 36.2087 28.3138C36.5856 28.6936 36.7918 29.1973 36.7898 29.7323L36.6977 52.8797C36.6956 53.4145 36.4851 53.9167 36.1054 54.2936C35.7275 54.6685 35.2271 54.8747 34.6951 54.8747ZM34.6966 52.3289H34.6969C34.6969 52.3289 34.6967 52.3289 34.6966 52.3289ZM33.9687 30.264C32.2724 30.264 30.6764 30.9213 29.4715 32.1166C28.2603 33.3181 27.5896 34.9192 27.583 36.6251L27.546 45.9139C27.5392 47.6199 28.197 49.2263 29.3986 50.4373C30.6001 51.6485 32.2012 52.3191 33.9071 52.3257L34.1543 52.3267L34.242 30.265L33.9949 30.2641C33.9861 30.264 33.9772 30.264 33.9687 30.264Z" fill="#1E3A59"/>
<path d="M72.6505 80.6598C94.3061 80.6598 111.861 63.1044 111.861 41.4488C111.861 19.7932 94.3061 2.23779 72.6505 2.23779C50.9948 2.23779 33.4395 19.7932 33.4395 41.4488C33.4395 63.1044 50.9948 80.6598 72.6505 80.6598Z" fill="white"/>
<path d="M72.7131 80.8908C71.7115 80.8908 70.7064 80.8533 69.6971 80.7775C59.192 79.9885 49.6229 75.1558 42.7527 67.1696C35.8824 59.1834 32.5333 48.9999 33.3224 38.4946C34.1114 27.9895 38.9441 18.4204 46.9302 11.5502C54.9165 4.67987 65.099 1.33019 75.6053 2.11988C86.1104 2.90893 95.6795 7.74163 102.55 15.7279C109.42 23.7141 112.769 33.8976 111.98 44.4029C111.191 54.908 106.358 64.477 98.3722 71.3473C91.1531 77.5576 82.1375 80.8908 72.7131 80.8908ZM72.5901 2.46384C63.2743 2.46384 54.3642 5.75827 47.2284 11.8969C39.3349 18.6875 34.5583 28.1455 33.7783 38.529C32.9985 48.9123 36.3087 58.9778 43.0994 66.8714C49.89 74.7651 59.348 79.5415 69.7314 80.3215C80.1126 81.102 90.1802 77.7913 98.0738 71.0006C105.967 64.21 110.744 54.752 111.524 44.3685C112.304 33.9852 108.994 23.9197 102.203 16.0262C95.4123 8.13246 85.9542 3.35588 75.5708 2.5759C74.574 2.50106 73.5795 2.46384 72.5901 2.46384Z" fill="#371A45"/>
<g opacity="0.35">
<path d="M111.786 38.9454C111.902 40.7321 111.893 42.5483 111.755 44.3866C110.13 65.9806 91.3102 82.1713 69.716 80.5514C48.122 78.9266 31.9313 60.1066 33.5511 38.5124C33.5974 37.8914 33.6585 37.271 33.7342 36.6611C34.9406 55.8931 50.1718 71.7742 69.9301 73.2589C90.9033 74.8326 109.256 59.6065 111.786 38.9454Z" fill="#1E3A59"/>
</g>
<path d="M72.718 81.9354C71.6899 81.9354 70.658 81.8968 69.6221 81.819C58.8389 81.0092 49.0165 76.0485 41.9643 67.8508C34.9121 59.6533 31.4744 49.2 32.2844 38.4168C33.9562 16.1566 53.4288 -0.592231 75.6865 1.0788C97.9467 2.75093 114.697 22.2212 113.025 44.4813C112.214 55.2646 107.254 65.087 99.0562 72.1392C91.6462 78.5139 82.3919 81.9354 72.718 81.9354ZM72.6273 3.50963C52.9866 3.50963 36.3174 18.7084 34.8229 38.6075C34.0638 48.7126 37.2854 58.5086 43.8942 66.1906C50.503 73.8729 59.7076 78.5216 69.8128 79.2805C79.9181 80.0372 89.7138 76.8182 97.396 70.2092C105.078 63.6006 109.727 54.3958 110.486 44.2905C112.053 23.4301 96.3563 5.18426 75.4959 3.61732C74.5346 3.54521 73.5761 3.50963 72.6273 3.50963Z" fill="#1E3A59"/>
<path d="M111.552 45.3809C111.092 53.0401 108.18 60.002 103.575 65.6306C100.123 69.8504 86.5557 76.7844 70.365 75.96C55.3528 75.1956 42.1807 66.3776 39.2572 61.7757C35.3576 55.6374 33.2976 48.3775 33.7566 40.7183C34.9715 20.4496 52.8891 13.0908 74.3725 14.3784C95.8559 15.666 112.766 25.1122 111.552 45.3809Z" fill="#0056A8"/>
<g opacity="0.5">
<path d="M103.95 43.0626C104.858 39.3395 103.406 35.7882 100.708 35.1306C98.0105 34.473 95.0878 36.9581 94.1803 40.6813C93.2728 44.4044 94.7242 47.9557 97.422 48.6133C100.12 49.2709 103.043 46.7858 103.95 43.0626Z" fill="white"/>
</g>
<g opacity="0.5">
<path d="M94.6424 56.2294C95.2911 54.5944 94.6796 52.8176 93.2765 52.2609C91.8734 51.7042 90.2101 52.5784 89.5613 54.2134C88.9126 55.8484 89.5241 57.6251 90.9272 58.1818C92.3303 58.7385 93.9937 57.8644 94.6424 56.2294Z" fill="white"/>
</g>
<g opacity="0.35">
<path d="M105.12 26.0186C109.603 30.841 112.039 37.239 111.552 45.3796C111.093 53.0404 108.179 60.0017 103.577 65.6306C100.124 69.8503 86.5551 76.7839 70.3647 75.9612C64.6478 75.6716 59.1998 74.2123 54.4805 72.2606C74.4039 72.8478 90.9352 64.3301 95.2164 59.0964C101.061 51.9528 104.757 43.1157 105.338 33.3967C105.496 30.7992 105.413 28.341 105.12 26.0186Z" fill="#111A28"/>
</g>
<path d="M109.268 28.6779C108.955 28.6779 108.643 28.5632 108.397 28.3315L108.279 28.2198L108.188 28.0771C102.196 18.513 89.8523 12.4936 74.3219 11.5625C58.7087 10.6259 45.7365 15.2996 38.7358 24.3822L38.6531 24.4791C38.1703 24.9902 37.3623 25.0155 36.8513 24.5331C36.3605 24.0697 36.3177 23.3107 36.7423 22.7986C44.2708 13.0563 58.0192 8.03549 74.4743 9.02121C90.8226 10.0014 103.889 16.4451 110.329 26.7001C110.648 27.1826 110.608 27.8394 110.194 28.2776C109.943 28.5434 109.606 28.6779 109.268 28.6779Z" fill="#1E3A59"/>
<g opacity="0.5">
<path d="M41.7702 53.2994C41.7702 53.2994 36.691 32.9281 47.9446 25.6059C59.1982 18.2838 74.6999 19.2451 74.2777 20.2177C74.2777 20.2177 56.8651 23.3441 49.3362 36.5106C43.5305 46.6635 41.7702 53.2994 41.7702 53.2994Z" fill="white"/>
</g>
<path d="M34.1816 85.616L25.7168 48.7795L119.843 48.9628L112.361 85.9019L34.1816 85.616Z" fill="url(#paint0_linear_488_8106)"/>
<path d="M108.464 141.183H38.0604C37.0282 141.183 36.1836 140.338 36.1836 139.306V136.009C36.1836 134.976 37.0281 134.132 38.0604 134.132H108.464C109.496 134.132 110.341 134.976 110.341 136.009V139.306C110.341 140.338 109.496 141.183 108.464 141.183Z" fill="#BFD4E6"/>
<g opacity="0.2">
<path d="M110.043 134.94V135.842C110.043 136.856 109.272 137.685 108.33 137.685H37.5982C37.0122 137.685 36.4927 137.364 36.1836 136.877V139.34C36.1836 140.353 36.9542 141.183 37.896 141.183H108.628C109.57 141.183 110.341 140.353 110.341 139.34V135.975C110.341 135.592 110.23 135.235 110.043 134.94Z" fill="#1E3A59"/>
</g>
<path d="M115.333 90.6197L111.703 129.376C111.59 130.581 111.071 131.703 110.243 132.523L108.623 134.132H37.8912L36.2711 132.523C35.4432 131.703 34.925 130.581 34.8118 129.376L31.1814 90.6197C31.1129 89.8666 31.1606 89.1006 31.378 88.3828C31.8932 86.6874 33.0904 85.758 34.7224 85.319C34.7969 85.2998 34.8684 85.2805 34.9428 85.2645C35.4848 85.1427 36.0388 85.0979 36.5927 85.0979H109.922C110.55 85.0979 111.182 85.1556 111.792 85.319C113.424 85.7581 114.621 86.6875 115.137 88.3828C115.146 88.4085 115.152 88.4373 115.157 88.463C115.357 89.1584 115.399 89.8955 115.333 90.6197Z" fill="#BFD4E6"/>
<g opacity="0.7">
<path d="M37.247 132.1L33.6166 93.3439C33.5481 92.5908 33.5958 91.8248 33.8131 91.1069C34.3284 89.4115 35.5256 88.4821 37.1577 88.0431C37.2321 88.0239 37.3036 88.0047 37.3781 87.9886C37.9201 87.8668 38.474 87.822 39.028 87.822H112.357C112.985 87.822 113.617 87.8797 114.227 88.0431C114.548 88.1293 114.846 88.2406 115.131 88.3666C114.613 86.6821 113.419 85.7566 111.792 85.319C111.182 85.1556 110.55 85.0979 109.922 85.0979H36.5927C36.0388 85.0979 35.4848 85.1428 34.9428 85.2645C34.8684 85.2805 34.7969 85.2998 34.7224 85.319C33.0904 85.7581 31.8931 86.6875 31.378 88.3828C31.1606 89.1006 31.1129 89.8666 31.1814 90.6197L34.8118 129.376C34.925 130.581 35.4432 131.703 36.2711 132.523L37.8496 134.09C37.523 133.484 37.3134 132.808 37.247 132.1Z" fill="white"/>
</g>
<path d="M108.465 142.488H38.0611C36.3065 142.488 34.8789 141.061 34.8789 139.306V136.009C34.8789 134.254 36.3065 132.826 38.0611 132.826H108.465C110.22 132.826 111.647 134.254 111.647 136.009V139.306C111.647 141.061 110.219 142.488 108.465 142.488ZM38.0611 135.437C37.7516 135.437 37.49 135.699 37.49 136.009V139.306C37.49 139.616 37.7516 139.877 38.0611 139.877H108.465C108.774 139.877 109.036 139.616 109.036 139.306V136.009C109.036 135.699 108.774 135.437 108.465 135.437H38.0611Z" fill="#1E3A59"/>
<path d="M108.626 135.437H37.8942C37.5494 135.437 37.2188 135.301 36.9742 135.058L35.3541 133.45C34.3097 132.412 33.6568 131.009 33.5153 129.499L29.8856 90.7404C29.7941 89.764 29.8772 88.8436 30.1324 88.0045C30.7489 85.9776 32.1807 84.6502 34.3885 84.0594C35.0578 83.8799 35.7797 83.7925 36.5948 83.7925H109.925C110.741 83.7925 111.462 83.8799 112.132 84.0594C114.339 84.6502 115.771 85.9776 116.388 88.0042C116.643 88.8436 116.726 89.7639 116.635 90.7404L113.005 129.499C112.864 131.009 112.211 132.412 111.166 133.449L109.546 135.058C109.302 135.301 108.971 135.437 108.626 135.437ZM38.4324 132.826H108.088L109.326 131.597C109.937 130.989 110.321 130.158 110.405 129.255L114.035 90.4969C114.095 89.8601 114.046 89.277 113.89 88.764C113.539 87.6111 112.789 86.9379 111.457 86.5812C111.01 86.4616 110.509 86.4034 109.926 86.4034H36.595C36.0112 86.4034 35.5106 86.4616 35.0644 86.5812C33.7316 86.9379 32.9813 87.6111 32.6308 88.764C32.4748 89.277 32.4259 89.8601 32.4856 90.4969L36.1153 129.255C36.1997 130.158 36.5831 130.989 37.1944 131.597L38.4324 132.826Z" fill="#1E3A59"/>
<g opacity="0.2">
<path d="M115.333 90.6196L111.703 129.376C111.59 130.581 111.071 131.702 110.243 132.523L108.623 134.132H37.8912L36.2711 132.523C35.4432 131.702 34.925 130.581 34.8118 129.376L31.1814 90.6196C31.1129 89.8665 31.1606 89.1005 31.378 88.3827C31.8932 86.6873 33.0904 85.7579 34.7224 85.3189C34.7969 85.2996 34.8684 85.2804 34.9428 85.2644L36.3098 85.4663C34.2132 85.8638 33.7515 88.8506 33.829 91.1421C34.0494 97.728 34.6302 104.304 35.5713 110.817C36.1371 114.736 36.9115 118.819 39.2642 121.87C42.6504 126.264 48.3745 127.424 53.6132 128.302C64.3704 130.106 75.7679 131.834 85.8253 127.357C91.1682 124.976 95.7546 120.979 99.8943 116.637C107.256 108.923 113.68 99.2471 115.157 88.4629C115.357 89.1583 115.399 89.8953 115.333 90.6196Z" fill="#1E3A59"/>
</g>
<mask id="mask0_488_8106" style="mask-type:luminance" maskUnits="userSpaceOnUse" x="72" y="103" width="21" height="20">
<path d="M92.0873 103.291H72.9395V122.439H92.0873V103.291Z" fill="white"/>
</mask>
<g mask="url(#mask0_488_8106)">
<path d="M91.5873 112.865C91.5873 117.877 87.5248 121.939 82.5134 121.939C77.502 121.939 73.4395 117.877 73.4395 112.865C73.4395 107.854 77.502 103.791 82.5134 103.791C87.5248 103.791 91.5873 107.854 91.5873 112.865Z" fill="#7B1AF7" stroke="black"/>
<path d="M78.3542 113.072L84.7368 107.572C85.0149 107.394 85.28 107.572 85.1103 107.877L83.0732 111.884H86.7059C86.7059 111.884 87.2831 111.884 86.7059 112.359L80.4251 117.893C79.9838 118.266 79.6782 118.062 79.9838 117.485L81.9529 113.581H78.3542C78.3542 113.581 77.777 113.581 78.3542 113.072Z" fill="white"/>
</g>
<circle cx="63.363" cy="112.865" r="9.07395" fill="#8D45DD" stroke="black"/>
<path d="M60.1474 111.946C60.0894 111.916 59.4624 111.568 59.1549 111.055C58.9736 110.751 58.88 110.43 58.9157 110.074C58.9395 109.842 59.0167 109.632 59.1638 109.447C59.2666 109.319 59.3923 109.219 59.518 109.119C59.5522 109.092 59.5863 109.065 59.6199 109.037C59.6987 108.971 59.9082 108.796 59.935 108.697C59.9676 108.577 59.9186 108.454 59.8086 108.414C59.6437 108.359 59.3688 108.36 59.2083 108.371C59.0732 108.381 58.932 108.334 58.9276 108.279C58.9231 108.223 59.0034 108.141 59.1103 108.116C59.195 108.095 59.3242 108.065 59.4015 108.013C59.4437 107.985 59.4861 107.949 59.5303 107.912C59.6307 107.827 59.7398 107.735 59.874 107.709C60.1489 107.656 60.3391 107.758 60.4297 107.995C60.5708 108.334 60.4787 108.767 60.1801 109.085C60.074 109.198 59.9551 109.298 59.8363 109.397C59.8036 109.425 59.7711 109.452 59.7388 109.48C59.6274 109.575 59.5308 109.679 59.4372 109.796C59.1861 110.11 59.4521 110.685 59.5144 110.751C59.7358 110.98 59.9275 111.024 60.3108 111.007C60.4829 111 60.7803 110.891 61.1018 110.773C61.4827 110.632 61.8974 110.48 62.177 110.471C63.306 110.435 64.1305 110.894 64.5124 111.107C64.5622 111.134 64.6045 111.158 64.639 111.176C65.0285 111.376 65.5613 111.414 65.7077 111.424C65.73 111.426 65.7432 111.427 65.7458 111.427C65.7945 111.431 65.852 111.435 65.9154 111.439C66.2277 111.46 66.6831 111.49 66.93 111.575C67.3475 111.691 67.5734 111.884 67.7264 112.313C67.7739 112.498 67.7829 112.664 67.716 112.767C67.5947 112.952 67.3 113.111 67.1012 113.219C67.0614 113.24 67.0254 113.26 66.9954 113.277C66.9033 113.329 66.7206 113.264 66.6849 113.238C66.4843 113.103 66.3075 112.995 66.0697 112.961C66.0207 112.954 65.6849 112.894 65.517 113.018C65.3937 113.107 65.2897 113.162 65.1515 113.225C64.9136 113.334 64.4099 113.467 64.3382 113.486L64.3299 113.489C64.2556 113.509 64.159 113.547 64.159 113.615C64.159 113.711 65.0461 114.454 65.0936 114.474C65.3165 114.565 65.4442 114.712 65.4858 114.924C65.4992 114.994 65.5289 115.065 65.5676 115.12C65.635 115.219 65.8105 115.47 65.9955 115.735C66.2058 116.035 66.4283 116.354 66.5184 116.486C66.5987 116.603 66.6819 116.66 66.7963 116.679C66.8155 116.682 66.8342 116.685 66.8524 116.688C66.9894 116.709 67.0927 116.724 67.1544 116.828C67.199 116.903 67.1707 117.05 67.141 117.146C67.1083 117.254 67.1975 117.39 67.2049 117.405C67.2836 117.56 67.3163 117.708 67.3059 117.858L67.305 117.87C67.3008 117.935 67.2925 118.061 67.1975 118.065C67.1009 118.069 67.0723 118.011 67.0594 117.985L67.0578 117.982C67.0472 117.961 67.016 117.895 66.9934 117.848L66.9716 117.803C66.9141 117.697 66.7166 117.484 66.6516 117.413L66.6329 117.393C66.5437 117.295 65.2258 115.474 65.2258 115.474L65.2239 115.471C65.1517 115.376 65.0776 115.279 64.9554 115.232C64.7846 115.165 64.6731 115.03 64.639 114.849C64.6315 114.81 64.1055 114.405 63.8812 114.234C63.7994 114.171 63.3032 113.971 63.2958 113.974C63.2958 113.975 63.3059 113.991 63.3236 114.019C63.4245 114.176 63.7713 114.719 63.8901 115.028C63.9124 115.086 63.9495 115.284 63.9079 115.384C63.844 115.539 63.7088 115.606 63.5543 115.56C63.5067 115.547 63.4637 115.523 63.4236 115.5C63.4057 115.49 63.3864 115.48 63.3686 115.471L63.3151 115.444C63.2937 115.433 63.2731 115.422 63.2526 115.412C63.2318 115.403 63.2113 115.394 63.1903 115.387C63.0387 115.337 62.8857 115.289 62.7326 115.241L62.4222 115.144C62.2052 115.076 61.9897 115.009 61.7728 114.943C61.7572 114.939 61.7418 114.934 61.7259 114.929C61.6936 114.92 61.6597 114.912 61.6198 114.913C61.5871 114.913 61.5515 114.927 61.5395 114.976C61.5395 114.977 61.5158 115.126 61.4237 115.186C61.3762 115.216 61.2781 115.24 61.2038 115.237C61.1399 115.234 61.0582 115.252 61.0151 115.289L60.9601 115.335C60.92 115.368 60.871 115.387 60.8383 115.396C60.8041 115.405 60.7402 115.405 60.7031 115.366C60.663 115.325 60.6764 115.255 60.6823 115.234C60.6885 115.209 60.701 115.189 60.712 115.172L60.7507 115.11C60.7818 115.059 60.813 115.009 60.8457 114.959C60.9364 114.821 61.027 114.682 61.1191 114.545C61.2157 114.402 61.3642 114.345 61.5604 114.375C61.6117 114.384 62.416 114.632 62.9119 114.785C63.1336 114.853 63.2936 114.902 63.2973 114.903C63.2081 114.74 62.6807 114.007 62.5321 113.915C62.5069 113.9 62.4851 113.885 62.464 113.871C62.393 113.823 62.3304 113.78 62.177 113.754C61.7892 113.688 60.9438 113.492 60.7343 113.34C60.3257 113.043 60.293 112.371 60.3004 112.235C60.3079 112.1 60.2648 112.009 60.1474 111.946Z" fill="white"/>
<circle cx="72.9372" cy="111.908" r="9.57395" fill="url(#paint1_linear_488_8106)"/>
<path d="M75.7383 108.03H70.1377C69.7439 108.03 69.5046 108.464 69.7149 108.797L71.8156 112.123C71.9213 112.29 71.9183 112.504 71.8078 112.669L69.7538 115.725C69.5306 116.058 69.7687 116.504 70.1688 116.504H75.7071C76.1073 116.504 76.3453 116.058 76.1221 115.725L74.0681 112.669C73.9577 112.504 73.9546 112.29 74.0604 112.123L76.161 108.797C76.3713 108.464 76.1321 108.03 75.7383 108.03Z" stroke="white" stroke-width="1.5"/>
<mask id="path-65-inside-1_488_8106" fill="white">
<path fill-rule="evenodd" clip-rule="evenodd" d="M78.5458 104.148C79.7536 103.598 81.0958 103.291 82.5095 103.291C87.797 103.291 92.0834 107.578 92.0834 112.865C92.0834 118.153 87.797 122.439 82.5095 122.439C80.4147 122.439 78.4771 121.766 76.9009 120.625C75.6931 121.175 74.3509 121.482 72.9372 121.482C71.523 121.482 70.1805 121.175 68.9724 120.625C67.396 121.766 65.4581 122.439 63.363 122.439C58.0755 122.439 53.7891 118.153 53.7891 112.865C53.7891 107.578 58.0755 103.291 63.363 103.291C64.7772 103.291 66.1198 103.598 67.3279 104.148C68.9042 103.007 70.8421 102.334 72.9372 102.334C75.032 102.334 76.9696 103.006 78.5458 104.148Z"/>
</mask>
<path d="M78.5458 104.148L77.3729 105.768C77.9557 106.19 78.72 106.266 79.3747 105.968L78.5458 104.148ZM76.9009 120.625L78.0738 119.005C77.4911 118.583 76.7267 118.507 76.072 118.805L76.9009 120.625ZM68.9724 120.625L69.8015 118.805C69.1467 118.506 68.3821 118.583 67.7993 119.005L68.9724 120.625ZM67.3279 104.148L66.4987 105.968C67.1535 106.267 67.9181 106.19 68.5009 105.768L67.3279 104.148ZM79.3747 105.968C80.3275 105.534 81.3874 105.291 82.5095 105.291V101.291C80.8041 101.291 79.1798 101.661 77.7169 102.328L79.3747 105.968ZM82.5095 105.291C86.6925 105.291 90.0834 108.682 90.0834 112.865H94.0834C94.0834 106.473 88.9016 101.291 82.5095 101.291V105.291ZM90.0834 112.865C90.0834 117.048 86.6925 120.439 82.5095 120.439V124.439C88.9016 124.439 94.0834 119.257 94.0834 112.865H90.0834ZM82.5095 120.439C80.8498 120.439 79.3202 119.908 78.0738 119.005L75.728 122.245C77.634 123.625 79.9796 124.439 82.5095 124.439V120.439ZM76.072 118.805C75.1192 119.239 74.0593 119.482 72.9372 119.482V123.482C74.6426 123.482 76.2669 123.112 77.7298 122.445L76.072 118.805ZM72.9372 119.482C71.8148 119.482 70.7545 119.239 69.8015 118.805L68.1432 122.445C69.6064 123.111 71.2313 123.482 72.9372 123.482V119.482ZM67.7993 119.005C66.5527 119.907 65.0229 120.439 63.363 120.439V124.439C65.8933 124.439 68.2393 123.625 70.1454 122.244L67.7993 119.005ZM63.363 120.439C59.18 120.439 55.7891 117.048 55.7891 112.865H51.7891C51.7891 119.257 56.9709 124.439 63.363 124.439V120.439ZM55.7891 112.865C55.7891 108.682 59.18 105.291 63.363 105.291V101.291C56.9709 101.291 51.7891 106.473 51.7891 112.865H55.7891ZM63.363 105.291C64.4854 105.291 65.5457 105.534 66.4987 105.968L68.157 102.328C66.6938 101.662 65.0689 101.291 63.363 101.291V105.291ZM68.5009 105.768C69.7475 104.865 71.2773 104.334 72.9372 104.334V100.334C70.407 100.334 68.061 101.148 66.1548 102.528L68.5009 105.768ZM72.9372 104.334C74.5969 104.334 76.1265 104.865 77.3729 105.768L79.7187 102.528C77.8127 101.148 75.4671 100.334 72.9372 100.334V104.334Z" fill="white" mask="url(#path-65-inside-1_488_8106)"/>
<defs>
<linearGradient id="paint0_linear_488_8106" x1="67.6138" y1="49.587" x2="67.329" y2="115.511" gradientUnits="userSpaceOnUse">
<stop stop-color="white" stop-opacity="0"/>
<stop offset="0.932" stop-color="#CDEEFF"/>
</linearGradient>
<linearGradient id="paint1_linear_488_8106" x1="67.7513" y1="104.727" x2="78.9209" y2="119.088" gradientUnits="userSpaceOnUse">
<stop offset="0.394929" stop-color="#6ADDFF"/>
<stop offset="0.878969" stop-color="#06C6FF"/>
</linearGradient>
</defs>
</svg>
