<svg width="141" height="252" viewBox="0 0 141 252" fill="none" xmlns="http://www.w3.org/2000/svg">
<path d="M34.2741 30.3762C27.8448 53.0773 20.7968 79.0788 14.0706 101.626C14.0108 101.814 13.8106 101.917 13.6231 101.858C13.4452 101.801 13.3431 101.617 13.384 101.438C19.098 78.6333 26.3129 52.6361 32.3608 29.8513C32.7248 28.615 34.5895 29.0712 34.2741 30.3762Z" fill="#1E3A59"/>
<path d="M27.5287 85.6811L1.05622 189.921C0.983251 190.208 0.691393 190.382 0.404355 190.309C0.119893 190.237 -0.0530523 189.949 0.0146768 189.665L24.9995 85.0579C25.4314 83.4191 27.9022 83.9532 27.5287 85.6811Z" fill="#1E3A59"/>
<path d="M39.1501 149.477L32.3853 179.061C32.311 179.386 31.9873 179.589 31.6623 179.515C31.3469 179.443 31.1465 179.134 31.2028 178.819L36.5981 148.955C36.965 147.24 39.4841 147.74 39.1501 149.477Z" fill="#1E3A59"/>
<path d="M123.379 159.176L118.232 185.963C118.181 186.227 117.926 186.4 117.662 186.349C117.408 186.3 117.239 186.061 117.272 185.808L120.807 158.762C121.094 157.019 123.652 157.418 123.379 159.176Z" fill="#1E3A59"/>
<path d="M115.996 156.135L112.251 175.125C112.1 175.849 111.01 175.685 111.09 174.94L113.423 155.725C113.699 153.966 116.278 154.367 115.996 156.135Z" fill="#1E3A59"/>
<path d="M90.3347 194.013C106.974 218.052 76.947 224.233 71.3156 248.045C76.947 224.233 52.6816 206.052 78.473 191.392" fill="url(#paint0_linear_488_7435)"/>
<path d="M71.3191 249.348C71.2199 249.348 71.1191 249.336 71.0184 249.312C70.3183 249.147 69.8851 248.445 70.0506 247.745C72.1736 238.768 69.9201 230.719 67.7409 222.936C64.3943 210.984 61.2334 199.694 77.8318 190.259C78.4563 189.904 79.2518 190.123 79.6077 190.748C79.9632 191.373 79.7442 192.169 79.119 192.524C64.2909 200.952 66.9203 210.344 70.2493 222.233C71.6843 227.359 73.2463 232.937 73.4697 238.925C76.3625 233.615 80.2833 229.24 83.8846 225.221C92.2282 215.91 98.8187 208.555 89.2662 194.755C88.8568 194.163 89.0043 193.352 89.5957 192.943C90.1873 192.533 90.9985 192.681 91.4079 193.272C102.13 208.763 94.21 217.601 85.8247 226.959C80.3603 233.057 74.7098 239.363 72.5856 248.345C72.5857 248.344 72.5854 248.345 72.5856 248.345C72.4439 248.944 71.9093 249.348 71.3191 249.348Z" fill="#1E3A59"/>
<path d="M86.6176 192.789C90.489 195.81 90.9991 199.284 90.5188 203.048C89.3456 212.242 81.2255 214.972 77.4268 222.194C77.2522 214.093 71.1655 208.224 74.2419 199.45C75.5012 195.858 77.5221 192.944 82.3666 191.85" fill="#FFB300"/>
<path d="M62.6435 192.066C80.4978 217.932 48.2089 224.535 42.1217 250.125C48.2089 224.535 22.1482 204.955 49.8954 189.231" fill="url(#paint1_linear_488_7435)"/>
<path d="M42.1256 251.428C42.0258 251.428 41.9246 251.417 41.8231 251.392C41.2246 251.25 40.8216 250.716 40.8219 250.126C40.8219 250.026 40.8334 249.925 40.8576 249.824C43.1584 240.151 40.7436 231.483 38.4083 223.101C34.8381 210.285 31.4659 198.18 49.2562 188.098C49.8825 187.744 50.6768 187.963 51.0314 188.589C51.3861 189.215 51.1662 190.01 50.5405 190.364C34.5216 199.442 37.3442 209.574 40.9177 222.402C42.4804 228.011 44.184 234.125 44.3642 240.69C47.4923 234.85 51.7939 230.062 55.7389 225.671C64.7506 215.641 71.8686 207.719 61.5748 192.806C61.1662 192.214 61.315 191.403 61.9067 190.995C62.499 190.586 63.3099 190.735 63.7186 191.326C75.1799 207.931 66.6779 217.394 57.6767 227.412C51.7854 233.969 45.6937 240.75 43.3917 250.427C43.2494 251.025 42.7151 251.428 42.1256 251.428Z" fill="#1E3A59"/>
<path d="M58.6569 190.744C62.8145 193.997 63.358 197.732 62.8364 201.778C61.5623 211.661 52.8291 214.584 48.7353 222.343C48.5588 213.634 42.0237 207.316 45.3432 197.888C46.7021 194.028 48.8787 190.898 54.0882 189.729" fill="#FFB300"/>
<path d="M26.9739 134.751C28.5848 136.216 30.8739 137.293 33.4594 138.077C42.5229 140.83 55.2365 140.025 55.2365 140.025L64.3818 80.328L65.6667 71.9365C64.7461 72.2217 42.6951 72.9167 30.8529 79.1656C20.9768 84.3781 19.139 127.624 26.9739 134.751Z" fill="white"/>
<g opacity="0.25">
<path d="M26.9742 134.751C28.5851 136.217 30.8742 137.293 33.4596 138.078C33.5763 138.113 33.6929 138.148 33.8095 138.18C33.9739 138.229 34.1382 138.276 34.305 138.32C34.4931 138.373 34.6838 138.424 34.877 138.472C34.9961 138.502 35.1152 138.531 35.2344 138.564C35.7291 138.682 36.2315 138.795 36.7414 138.9C36.9607 138.944 37.1826 138.989 37.4044 139.031C37.4677 139.041 37.5311 139.055 37.5944 139.066C37.7449 139.094 37.8955 139.123 38.0485 139.149C38.0986 139.158 38.1515 139.166 38.2042 139.175C38.4549 139.218 38.7054 139.259 38.9587 139.299C39.4625 139.378 39.966 139.449 40.4719 139.515C40.5984 139.531 40.7249 139.548 40.8487 139.564C41.1016 139.594 41.3544 139.624 41.6045 139.652C41.7283 139.666 41.8546 139.68 41.981 139.693C42.1049 139.707 42.2311 139.718 42.3548 139.732C42.6549 139.763 42.9522 139.789 43.2469 139.815C43.3916 139.828 43.5337 139.842 43.6783 139.852C44.2228 139.898 44.7592 139.936 45.2875 139.967C45.4085 139.975 45.5267 139.982 45.6449 139.988C45.7027 139.991 45.7605 139.994 45.8183 139.997C45.913 140.004 46.0076 140.009 46.1021 140.013C46.3097 140.024 46.5147 140.035 46.7168 140.043C46.9243 140.052 47.1292 140.06 47.3314 140.068C47.9039 140.09 48.4579 140.106 48.9906 140.116C49.198 140.121 49.4026 140.124 49.6019 140.125C49.8093 140.131 50.0112 140.131 50.2079 140.132C50.3602 140.134 50.5096 140.134 50.6539 140.134C50.8743 140.137 51.0892 140.134 51.299 140.134C51.3855 140.134 51.4747 140.133 51.5585 140.133C53.8054 140.117 55.2366 140.025 55.2366 140.025L64.3819 80.3281C63.5736 80.3836 62.8178 80.4426 62.1275 80.4991C59.4762 80.7159 57.7734 80.9114 57.7734 80.9114C57.7734 80.9114 44.3391 78.9074 42.3068 83.9009C39.0391 91.9236 37.8677 97.4419 34.9862 109.605C34.6931 110.844 34.4201 112.076 34.171 113.296C33.5691 116.244 29.9876 117.487 27.7504 115.475C27.7362 115.462 27.722 115.449 27.7078 115.436C25.05 113.018 23.5054 106.439 23.0111 98.5971C21.0344 112.925 22.2363 130.441 26.9742 134.751Z" fill="#371A45"/>
</g>
<g opacity="0.25">
<path d="M63.4075 72.1528L62.1289 80.4994C62.8192 80.4429 63.575 80.384 64.3833 80.3284L65.6682 71.937C65.5074 71.9875 64.6966 72.0483 63.4075 72.1528Z" fill="#371A45"/>
</g>
<path d="M50.7843 141.444C44.0345 141.444 31.6015 140.718 26.102 135.715C20.9844 131.058 19.7934 113.577 21.5985 99.3662C22.4522 92.6459 24.7112 80.936 30.2482 78.0144C40.3616 72.678 57.1727 71.3412 63.5016 70.8379C64.3452 70.7709 65.1436 70.7074 65.3524 70.6737C66.0199 70.5072 66.7087 70.8882 66.9138 71.5531C67.1258 72.2404 66.7408 72.9694 66.0534 73.1816C65.7845 73.2647 65.4526 73.2959 63.708 73.4347C58.1169 73.8792 41.1027 75.2323 31.4639 80.3183C28.2773 81.9996 25.4872 89.4241 24.1827 99.6945C22.2844 114.637 23.9662 130.25 27.8549 133.788C34.6287 139.951 54.9527 138.738 55.1572 138.725C55.8809 138.681 56.494 139.225 56.5393 139.942C56.5849 140.66 56.04 141.279 55.322 141.325C55.0804 141.34 53.3394 141.444 50.7843 141.444ZM65.3352 70.6782C65.3151 70.6833 65.2987 70.6886 65.2854 70.6926C65.302 70.6875 65.3186 70.6826 65.3352 70.6782Z" fill="#1E3A59"/>
<path d="M29.4471 79.105C33.9721 79.54 38.2998 81.0961 42.2821 83.2206C40.1979 82.5037 38.0607 81.9561 35.8909 81.6156C33.7857 81.2979 31.5888 81.1118 29.481 81.2764C27.9257 81.3658 27.8851 79.0657 29.4471 79.105Z" fill="#1E3A59"/>
<path d="M22.3719 110.296L33.1881 111.734C34.1537 111.863 34.9119 112.625 35.0301 113.592C35.4633 117.132 36.0393 125.362 32.476 127.865C29.5184 129.942 24.9397 129.416 22.3783 126.983C19.5133 124.262 19.6783 116.232 19.9544 112.268C20.0402 111.036 21.1473 110.134 22.3719 110.296Z" fill="white"/>
<g opacity="0.25">
<path d="M35.0371 113.594C35.4721 117.133 36.0465 125.364 32.4828 127.865C29.5247 129.943 24.9472 129.417 22.3845 126.984C20.6238 125.309 20.008 121.627 19.8594 118.119C20.2489 119.89 20.9361 121.349 21.8385 122.332C27.0087 127.966 31.4553 121.928 31.4553 121.928C31.4553 121.928 32.0775 123.492 32.6378 123.61C34.981 124.106 34.9162 116.678 34.7935 112.835C34.9194 113.064 35.0046 113.319 35.0371 113.594Z" fill="#371A45"/>
</g>
<path d="M28.1174 130.459C25.7006 130.459 23.2434 129.594 21.4892 127.928C18.4482 125.04 18.2736 117.769 18.6628 112.179C18.7286 111.234 19.1867 110.35 19.9198 109.751C20.6534 109.153 21.6104 108.88 22.5516 109.006L33.3674 110.444C34.9221 110.651 36.1407 111.88 36.3308 113.434C36.8912 118.015 37.234 126.121 33.2323 128.931C31.7692 129.959 29.9547 130.459 28.1174 130.459ZM22.0942 111.581C21.9021 111.581 21.7183 111.646 21.5667 111.769C21.3861 111.917 21.2776 112.127 21.2614 112.36C20.7805 119.267 21.5363 124.381 23.2832 126.04C25.4803 128.126 29.3508 128.474 31.7354 126.8C34.1838 125.08 34.379 118.931 33.7452 113.75C33.6992 113.374 33.4027 113.077 33.0241 113.026L22.2082 111.588C22.2082 111.588 22.2082 111.588 22.208 111.588C22.1699 111.583 22.132 111.581 22.0942 111.581Z" fill="#1E3A59"/>
<path d="M26.6515 128.244C29.9132 126.684 31.1181 122.841 31.4836 119.452C31.6159 118.225 31.733 116.975 31.5383 115.747C31.884 116.952 31.9213 118.229 31.9396 119.478C32.0344 123.34 30.9448 127.889 27.3209 129.949C26.1132 130.505 25.3853 128.66 26.6515 128.244Z" fill="#371A45"/>
<path d="M139.365 153.282C139.196 154.454 138.293 155.444 137.012 155.643C133.608 156.164 129.775 155.73 126.441 155.062C126.441 157.232 124.704 159.837 122.099 158.969C118.088 157.823 113.72 155.452 109.83 152.535C106.327 149.908 104.195 145.841 103.952 141.473C101.573 123.304 97.5399 101.363 96.6543 86.5978C96.0942 77.2551 96.7888 70.7908 99.958 69.9702C101.135 70.795 102.298 71.6981 103.444 72.6792C108.48 76.9902 111.971 82.8294 113.599 89.2546L126.006 138.13C131.603 142.828 137.672 147.573 139.226 151.884C139.395 152.353 139.439 152.83 139.365 153.282Z" fill="white"/>
<path d="M123.107 160.442C122.65 160.442 122.184 160.367 121.718 160.214C117.734 159.072 113.236 156.715 109.05 153.578C105.267 150.743 102.939 146.377 102.657 141.594C101.84 135.358 100.81 128.559 99.8146 121.984C94.9966 90.171 92.4102 70.5784 99.634 68.7097C100.004 68.6149 100.396 68.6851 100.708 68.9042C101.938 69.7665 103.144 70.7034 104.295 71.6892C109.471 76.1221 113.126 82.0857 114.864 88.9352L127.168 137.403C127.591 137.757 128.016 138.112 128.441 138.466C133.833 142.961 138.925 147.207 140.455 151.443C140.881 152.621 140.762 153.906 140.131 154.97C139.502 156.028 138.437 156.742 137.209 156.93C134.49 157.347 131.243 157.233 127.54 156.592C127.205 157.836 126.479 158.957 125.509 159.657C124.787 160.177 123.964 160.442 123.107 160.442ZM99.8093 71.463C98.637 72.3183 97.2551 75.6241 97.9869 87.0194C98.6009 96.5748 100.527 109.294 102.39 121.594C103.39 128.199 104.425 135.028 105.246 141.303C105.25 141.335 105.253 141.367 105.255 141.4C105.48 145.432 107.433 149.111 110.612 151.493C114.559 154.452 118.767 156.662 122.459 157.717C122.477 157.722 122.495 157.728 122.513 157.734C123.069 157.92 123.551 157.857 123.985 157.544C124.654 157.061 125.14 156.018 125.14 155.062C125.14 154.672 125.315 154.302 125.618 154.054C125.92 153.807 126.317 153.708 126.7 153.785C130.668 154.584 134.072 154.775 136.815 154.355C137.276 154.285 137.659 154.03 137.891 153.639C138.127 153.242 138.167 152.777 138.005 152.328C136.715 148.756 131.661 144.542 126.773 140.467C126.238 140.021 125.702 139.574 125.171 139.128C124.962 138.953 124.813 138.716 124.746 138.451L112.339 89.576C110.734 83.2501 107.366 77.7492 102.601 73.6677C101.7 72.8962 100.764 72.1567 99.8093 71.463Z" fill="#1E3A59"/>
<path d="M127.403 140.995C125.294 138.936 121.674 138.504 118.752 139.029C118.174 139.137 117.944 138.3 118.498 138.1C121.882 136.925 125.992 136.85 129.073 138.996C130.591 140.134 128.796 142.288 127.403 140.995Z" fill="#1E3A59"/>
<path d="M127.289 156.544C125.744 155.994 124.474 155.003 123.354 153.898C122.291 152.844 121.379 151.727 120.46 150.629C120.289 150.424 120.316 150.119 120.521 149.947C120.702 149.796 120.962 149.8 121.139 149.944C123.174 151.563 125.424 153.625 127.955 154.025C129.862 154.393 129.134 157.164 127.289 156.544Z" fill="#1E3A59"/>
<g opacity="0.25">
<path d="M139.359 153.282C139.19 154.454 138.287 155.444 137.006 155.644C133.602 156.165 129.769 155.73 126.435 155.062C126.435 157.233 124.698 159.837 122.093 158.969C118.082 157.823 113.715 155.453 109.825 152.535C106.321 149.909 104.189 145.841 103.946 141.473C101.567 123.304 97.5341 101.363 96.6484 86.598C99.1057 86.4069 101.632 86.4634 104.02 85.873L106.308 84.3882C112.794 98.6714 114.431 114.739 113.801 130.411C113.727 132.217 113.693 134.227 114.9 135.573C117.461 138.443 123.083 135.829 125.632 138.712C123.37 137.453 120.352 139.442 119.797 141.968C119.245 144.495 120.491 147.087 122.128 149.088C124.716 152.253 128.497 154.558 132.578 154.854C134.922 155.023 137.336 154.463 139.359 153.282Z" fill="#1E3A59"/>
</g>
<path d="M99.0903 181.544C102.937 185.669 105.108 190.071 102.524 195.276C102.477 195.372 102.425 195.472 102.372 195.572C101.387 197.434 99.4203 198.584 97.3146 198.602C86.8171 198.671 77.3702 195.059 70.437 188.925L63.0566 178.071L72.6077 138.999L97.1149 131.227L108.207 127.711C108.186 145.428 105.911 163.315 99.0903 181.544Z" fill="white"/>
<path d="M97.0237 199.903C86.6078 199.904 76.8712 196.357 69.5753 189.9C69.4944 189.828 69.4226 189.746 69.3616 189.657L61.9813 178.803C61.774 178.498 61.7056 178.12 61.793 177.762L71.344 138.689C71.4519 138.247 71.7823 137.894 72.2156 137.757L107.815 126.469C108.211 126.344 108.643 126.414 108.979 126.66C109.314 126.906 109.512 127.297 109.511 127.712C109.487 147.459 106.567 164.984 100.589 181.253C103.655 184.694 106.891 189.812 103.524 196.179C102.319 198.459 99.9434 199.885 97.3254 199.902C97.2254 199.903 97.1239 199.903 97.0237 199.903ZM71.423 188.056C78.2945 194.081 87.4764 197.372 97.3086 197.297C98.966 197.287 100.465 196.392 101.221 194.962C103.404 190.835 102.482 187.088 98.1396 182.432C97.8026 182.071 97.6989 181.55 97.8722 181.088C103.744 165.393 106.701 148.499 106.896 129.493L73.7006 140.018L64.4611 177.817L71.423 188.056Z" fill="#1E3A59"/>
<path d="M99.6683 182.709C95.556 184.364 91.0541 183.726 87.2103 181.93C86.7531 181.711 87.034 181 87.5177 181.159C91.067 182.248 95.329 182.269 98.5033 180.379C100.138 179.473 101.378 181.94 99.6683 182.709Z" fill="#1E3A59"/>
<path d="M93.2847 170.238C83.868 170.238 73.6177 166.54 66.7868 160.086C66.264 159.592 66.2407 158.768 66.7347 158.245C67.2285 157.723 68.053 157.699 68.5759 158.193C78.5469 167.614 93.9672 169.518 103.115 165.917C103.785 165.653 104.541 165.982 104.804 166.651C105.068 167.321 104.739 168.077 104.07 168.34C100.804 169.626 97.1122 170.238 93.2847 170.238Z" fill="#1E3A59"/>
<g opacity="0.25">
<path d="M102.526 195.275C102.479 195.37 102.426 195.47 102.374 195.57C101.389 197.433 99.4222 198.583 97.3166 198.6C86.819 198.67 77.3722 195.058 70.439 188.923L63.0586 178.07L72.6096 138.997L97.1169 131.226C97.6682 131.799 98.085 132.481 98.3107 133.284C98.6406 134.46 98.4974 135.711 98.2587 136.909C97.6335 140.022 96.3441 143 94.5033 145.592L95.2154 145.145C92.4889 147.246 89.9535 149.716 88.3906 152.785C86.984 155.555 86.4413 158.672 85.916 161.737C85.4429 164.477 84.9739 167.216 84.505 169.956C84.0491 172.617 83.5977 175.404 84.4312 177.97C85.2431 180.475 87.7047 182.65 90.2791 182.272C88.3559 182.633 86.1765 183.275 85.521 185.099C85.0868 186.31 85.5122 187.66 86.1028 188.806C88.204 192.883 92.515 195.726 97.0821 196.052C98.9273 196.182 100.79 195.904 102.526 195.275Z" fill="#1E3A59"/>
</g>
<path d="M109.899 123.565C108.77 129.287 106.704 134.249 103.612 138.191C98.1727 145.15 89.5637 148.931 77.3818 148.115C76.1184 160.918 74.5598 173.174 70.4355 180.676C74.269 182.421 76.5178 186.819 75.8275 191.751C75.7624 192.224 75.6713 192.697 75.5497 193.179C75.1806 194.646 74.0128 195.779 72.5541 196.166C59.0958 199.7 36.6897 191.421 38.7432 181.978C42.8588 168.064 43.7619 151.74 43.0846 134.223L45.811 122.444L56.5429 76.0479L98.2204 68.6675L106.469 83.8624C110.75 98.6753 112.074 112.533 109.899 123.565Z" fill="white"/>
<path d="M107.047 83.6951C114.155 104.526 117.358 140.07 90.989 148.144C86.5503 149.412 81.8451 149.718 77.2931 149.415C77.2931 149.415 78.677 148.242 78.6764 148.244C78.1206 153.808 77.5201 159.386 76.5605 164.946C75.5516 170.564 74.2965 176.177 71.5755 181.303L70.9731 179.49C74.9099 181.251 77.2244 185.548 77.2424 189.751C77.2667 191.17 77.092 192.497 76.6978 193.883C76.1757 195.46 74.9028 196.725 73.3691 197.27C69.5924 198.385 65.5407 198.46 61.6684 198.108C56.5392 197.603 51.5237 196.278 46.8622 194.047C42.2768 191.795 36.3355 187.654 37.469 181.702C41.993 166.265 42.2623 149.927 41.8142 133.929L55.2727 75.7547C55.3939 75.2308 55.8165 74.8546 56.3146 74.7658L97.992 67.3854C98.7003 67.26 99.3762 67.7324 99.5016 68.4407C99.627 69.149 99.1545 69.8249 98.4462 69.9503L56.7687 77.3308L57.8104 76.3419L44.352 134.517C44.7842 140.725 44.6294 150.849 44.0925 158.385C43.5159 166.297 42.1989 174.938 40.0144 182.255C39.2439 186.721 44.4983 189.926 48.0033 191.706C54.4941 194.756 61.9535 196.251 69.1036 195.479C70.1331 195.371 71.1469 195.161 72.1505 194.921C73.8781 194.497 74.3847 193.076 74.5411 191.47C75.1182 187.742 73.4342 183.433 69.8951 181.862C69.2404 181.564 68.9507 180.793 69.248 180.138C71.8044 175.346 73.0379 169.861 73.9943 164.499C78.293 140.039 71.5082 149.169 87.7656 146.231C107.217 142.47 111.095 121.859 109.486 104.915C108.891 97.8932 107.505 90.9437 105.888 84.0304C105.81 83.705 106.012 83.3769 106.338 83.301C106.642 83.2298 106.948 83.4055 107.047 83.6951Z" fill="#1E3A59"/>
<path d="M71.0169 181.842C67.1534 183.534 62.746 183.196 58.9575 181.685C58.6464 181.562 58.4938 181.211 58.6167 180.9C58.7308 180.611 59.0431 180.458 59.336 180.537C62.826 181.465 66.7506 181.351 69.852 179.512C71.4736 178.64 72.6917 181.063 71.0169 181.842Z" fill="#1E3A59"/>
<path d="M83.2278 149.449C77.2719 149.752 70.9104 148.481 66.2034 144.653C65.9671 144.463 65.9291 144.118 66.1186 143.882C66.3011 143.653 66.6159 143.621 66.8537 143.765C69.3114 145.065 71.9624 146.035 74.713 146.45C77.4928 146.945 80.3575 146.902 83.1758 146.854C84.8473 146.895 84.9002 149.337 83.2278 149.449Z" fill="#1E3A59"/>
<path d="M64.2869 169.274C55.6682 169.274 46.4848 166.619 41.6619 160.976C41.1947 160.429 41.259 159.607 41.8058 159.14C42.3528 158.672 43.1745 158.737 43.6421 159.284C49.8376 166.532 65.0771 168.35 74.564 165.133C75.2455 164.903 75.9846 165.267 76.2157 165.948C76.4468 166.63 76.0818 167.369 75.4007 167.6C72.1435 168.705 68.275 169.274 64.2869 169.274Z" fill="#1E3A59"/>
<g opacity="0.25">
<path d="M61.7797 94.4697C61.5635 96.3093 61.3473 98.149 61.131 99.9885C60.9535 101.499 60.7765 103.034 61.0333 104.532C61.2901 106.031 62.0458 107.515 63.3491 108.299C65.302 109.472 67.7947 108.79 69.9588 108.077C70.2267 110.353 70.4945 112.629 70.7624 114.905C70.8609 115.742 70.9441 116.654 70.4987 117.369C70.0606 118.073 69.2244 118.404 68.4386 118.668C64.2378 120.08 59.8308 120.877 55.4015 121.025C53.9499 121.074 52.2459 120.924 51.4628 119.701C50.8787 118.789 51.0376 117.606 51.2177 116.538C51.8936 112.529 52.5778 108.489 54.033 104.692C55.4882 100.896 57.7858 97.3138 61.1236 94.9925" fill="#1E3A59"/>
</g>
<g opacity="0.25">
<path d="M61.375 181.523C61.8786 181.623 62.3778 181.749 62.8598 181.879C62.3605 181.78 61.8656 181.658 61.375 181.523Z" fill="#371A45"/>
</g>
<g opacity="0.25">
<path d="M78.1113 147.478C79.0621 147.573 80.0216 147.621 80.981 147.625C80.0259 147.655 79.0535 147.634 78.1113 147.478Z" fill="#371A45"/>
</g>
<g opacity="0.25">
<path d="M109.891 123.564C108.762 129.286 106.696 134.249 103.605 138.191L102.285 136.884C95.0739 136.519 87.8368 136.758 80.6648 137.591C79.0237 137.778 77.3479 138.012 75.8893 138.79C74.4305 139.567 73.2149 140.999 73.1542 142.649C73.089 144.39 74.3307 145.979 75.8806 146.769C76.5795 147.125 77.3263 147.346 78.099 147.477C76.154 147.277 74.2309 146.878 72.3683 146.287C69.9068 145.51 67.3713 144.381 64.8447 144.92C61.7666 145.571 59.7045 148.532 58.6755 151.506C55.9796 159.316 58.2718 168.12 55.9101 176.039C55.6322 176.968 55.3022 178.027 55.8059 178.852C56.0967 179.33 56.6003 179.616 57.0953 179.868C58.4541 180.558 59.8824 181.114 61.3542 181.518C59.7826 181.196 58.1633 181.118 56.8478 181.961C54.9376 183.185 54.5642 186.011 55.5714 188.047C56.583 190.079 58.6235 191.407 60.729 192.254C65.5393 194.181 71.1267 193.921 75.8197 191.75C75.7546 192.224 75.6635 192.697 75.5419 193.179C75.1728 194.646 74.005 195.779 72.5463 196.165C59.088 199.699 36.6819 191.42 38.7354 181.978C42.851 168.064 43.7541 151.74 43.0768 134.222L45.8032 122.444C55.0938 120.447 64.4538 118.75 73.9268 118.15C85.1362 117.438 96.5584 118.298 107.191 121.923C107.976 122.188 108.78 122.483 109.4 123.035C109.587 123.2 109.748 123.378 109.891 123.564Z" fill="#1E3A59"/>
</g>
<path d="M105.081 133.332L73.9881 133.414C70.308 133.425 67.286 130.421 67.2754 126.736L67.2324 110.19C67.2238 106.965 69.5268 104.249 72.5727 103.617C73.004 103.525 73.4512 103.48 73.9101 103.478L104.998 103.395C108.683 103.384 111.705 106.388 111.711 110.073L111.748 123.178L111.759 126.619C111.769 130.304 108.761 133.321 105.081 133.332Z" fill="white"/>
<g opacity="0.25">
<path d="M105.081 133.331L73.9881 133.414C70.308 133.425 67.286 130.421 67.2754 126.736L67.2324 110.19C67.2238 106.964 69.5268 104.249 72.5727 103.617C74.3414 104.785 75.4646 105.532 75.4646 105.532C77.0137 118.809 76.4561 128.657 97.0598 127.236C104.163 126.746 108.917 124.646 111.748 123.177L111.759 126.619C111.769 130.303 108.761 133.32 105.081 133.331Z" fill="#1E3A59"/>
</g>
<path d="M73.9707 134.502C69.6904 134.502 66.2023 131.025 66.1907 126.742L66.1465 110.193C66.1351 105.903 69.6161 102.404 73.9062 102.392L104.997 102.309C105.004 102.309 105.011 102.309 105.018 102.309C109.298 102.309 112.787 105.785 112.798 110.068L112.842 126.617C112.848 128.688 112.042 130.642 110.572 132.119C109.103 133.596 107.154 134.413 105.083 134.418L73.992 134.501C73.9851 134.502 73.9777 134.502 73.9707 134.502ZM105.018 104.479C105.012 104.479 105.008 104.479 105.003 104.479L73.9118 104.563C70.8188 104.571 68.3089 107.094 68.317 110.188L68.3612 126.736C68.3653 128.227 68.9547 129.632 70.0209 130.693C71.0832 131.749 72.4855 132.331 73.9709 132.331C73.976 132.331 73.9811 132.331 73.9864 132.331L105.077 132.248C106.568 132.244 107.973 131.654 109.034 130.588C110.094 129.522 110.676 128.114 110.672 126.623L110.628 110.074C110.619 106.986 108.104 104.479 105.018 104.479Z" fill="#1E3A59"/>
<path d="M106.329 133.206C105.926 133.291 105.512 133.333 105.081 133.332L73.9881 133.414C71.2913 133.42 68.9484 131.812 67.8863 129.496C67.4987 128.654 67.2803 127.72 67.2801 126.737L67.2577 119.386L67.2504 116.96L67.2324 110.19C67.2218 106.506 70.2301 103.489 73.9101 103.478L80.6287 103.461C77.5335 104.053 75.1825 106.789 75.1893 110.048L75.2105 118.986L75.232 126.599C75.243 130.279 78.2646 133.287 81.9448 133.276L106.329 133.206Z" fill="white"/>
<g opacity="0.25">
<path d="M106.322 133.206C105.92 133.291 105.505 133.333 105.075 133.332L73.9818 133.414C70.3018 133.425 67.2798 130.421 67.2738 126.737L67.2441 116.96C68.0309 118.686 69.4414 120.802 71.6901 121.019C72.9237 121.141 74.1353 120.25 75.2042 118.986L75.2257 126.599C75.2367 130.279 78.2583 133.287 81.9385 133.276L106.322 133.206Z" fill="#371A45"/>
</g>
<path d="M73.9634 134.501C71.9037 134.501 69.9602 133.695 68.4886 132.231C67.011 130.761 66.195 128.811 66.1907 126.741L66.1465 110.193C66.1398 108.122 66.9457 106.168 68.4154 104.691C69.8845 103.214 71.8343 102.397 73.9055 102.39L80.6219 102.374C80.6228 102.374 80.6238 102.374 80.6246 102.374C81.1836 102.374 81.6513 102.798 81.7049 103.355C81.7587 103.912 81.3794 104.419 80.8293 104.525C78.182 105.033 76.2657 107.355 76.2728 110.047L76.3169 126.595C76.3199 128.086 76.9091 129.491 77.9754 130.552C79.0414 131.613 80.4517 132.181 81.938 132.19L106.325 132.122C106.326 132.122 106.327 132.122 106.328 132.122C106.885 132.122 107.351 132.543 107.408 133.097C107.464 133.652 107.091 134.16 106.544 134.271C106.062 134.369 105.568 134.424 105.076 134.416L73.9885 134.5C73.9803 134.501 73.9717 134.501 73.9634 134.501ZM76.3626 104.555L73.9117 104.561C72.4207 104.566 71.015 105.156 69.9543 106.222C68.8938 107.288 68.3124 108.696 68.317 110.186L68.3612 126.735C68.3612 126.735 68.3612 126.735 68.3612 126.736C68.3643 128.226 68.9533 129.632 70.0196 130.693C71.0814 131.749 72.4817 132.33 73.964 132.33C73.97 132.33 73.9761 132.33 73.9822 132.33L76.6869 132.323C76.6047 132.248 76.524 132.17 76.4447 132.091C74.9666 130.621 74.1504 128.671 74.1464 126.6L74.1023 110.053C74.0967 107.933 74.9509 105.978 76.3626 104.555Z" fill="#1E3A59"/>
<path d="M87.4702 118.425C87.4683 119.037 86.5929 123.974 86.5929 123.974C86.5929 123.974 85.0281 123.969 83.1067 123.963C80.7063 123.956 78.7679 121.464 78.7774 118.398C78.7868 115.332 80.7404 112.853 83.1409 112.86C84.7609 112.865 86.6271 112.871 86.6271 112.871C86.6271 112.871 87.4732 117.428 87.4702 118.425Z" fill="#22A7F0"/>
<g opacity="0.25">
<path d="M87.4702 118.425C87.4683 119.037 86.5929 123.974 86.5929 123.974C86.5929 123.974 85.0281 123.969 83.1067 123.963C80.7063 123.956 78.7679 121.464 78.7774 118.398C78.7868 115.332 80.7404 112.853 83.1409 112.86C84.7609 112.865 86.6271 112.871 86.6271 112.871C86.6271 112.871 87.4732 117.428 87.4702 118.425Z" fill="#0056A8"/>
</g>
<path d="M86.5941 124.842C86.5932 124.842 86.5922 124.842 86.5914 124.842L83.1051 124.832C81.6715 124.827 80.3394 124.128 79.3541 122.861C78.4178 121.658 77.905 120.072 77.9102 118.396C77.9209 114.862 80.2621 111.992 83.1316 111.992C83.136 111.992 83.1403 111.992 83.1448 111.992L86.6308 112.003C87.0481 112.004 87.4056 112.302 87.4819 112.713C87.57 113.187 88.3428 117.38 88.3397 118.428C88.3377 119.065 87.6574 122.95 87.449 124.126C87.3754 124.54 87.0151 124.842 86.5941 124.842ZM83.1314 113.729C81.2171 113.729 79.6547 115.822 79.647 118.401C79.6429 119.691 80.0257 120.896 80.7249 121.795C81.3749 122.63 82.2222 123.092 83.1105 123.095L85.8655 123.104C86.2412 120.949 86.5959 118.76 86.603 118.421C86.6045 117.837 86.2159 115.478 85.9036 113.737L83.1394 113.729C83.1369 113.729 83.134 113.729 83.1314 113.729Z" fill="#1E3A59"/>
<path d="M90.9543 118.44C90.9638 115.374 89.0255 112.883 86.625 112.875C84.2245 112.868 82.2709 115.347 82.2614 118.413C82.2518 121.479 84.1901 123.971 86.5906 123.978C88.9911 123.986 90.9448 121.506 90.9543 118.44Z" fill="#07C7FF"/>
<g opacity="0.25">
<path d="M82.2618 118.41C82.2512 121.474 84.1898 123.967 86.5897 123.975C88.993 123.983 90.9464 121.502 90.9538 118.434C90.9564 118.02 90.9203 117.615 90.852 117.225C90.228 119.329 88.6333 120.824 86.7692 120.816C84.6962 120.809 82.9651 118.951 82.5428 116.464C82.3623 117.069 82.2659 117.725 82.2618 118.41Z" fill="#0056A8"/>
</g>
<path d="M82.2619 118.41C82.2604 118.619 82.2697 118.825 82.2895 119.028C82.7737 116.627 84.485 114.856 86.5127 114.864C88.749 114.872 90.5881 117.036 90.8128 119.815C90.9042 119.371 90.9511 118.911 90.954 118.435C90.9645 115.37 89.026 112.877 86.626 112.87C84.2259 112.866 82.2727 115.343 82.2619 118.41Z" fill="white"/>
<path d="M86.6069 124.843C86.6024 124.843 86.5981 124.843 86.5937 124.843C85.16 124.838 83.8279 124.139 82.8426 122.872C81.9063 121.669 81.3934 120.083 81.3985 118.407C81.4096 114.873 83.7505 112.003 86.6198 112.003C86.6243 112.003 86.6286 112.003 86.6331 112.003C89.5084 112.013 91.839 114.9 91.8283 118.439C91.817 121.973 89.4762 124.843 86.6069 124.843ZM86.6197 113.74C84.7054 113.74 83.1432 115.834 83.1352 118.412C83.1312 119.702 83.514 120.907 84.2132 121.806C84.8635 122.642 85.7107 123.104 86.5989 123.106C86.6016 123.106 86.6044 123.106 86.6068 123.106C88.5212 123.106 90.0835 121.013 90.0914 118.434C90.0993 115.852 88.5453 113.746 86.6276 113.74C86.6252 113.74 86.6223 113.74 86.6197 113.74Z" fill="#1E3A59"/>
<path d="M95.4134 134.28C95.4061 134.28 95.3987 134.28 95.3911 134.28C94.8159 134.268 94.3592 133.792 94.3713 133.216L94.612 121.739C94.6193 121.39 94.8013 121.068 95.0967 120.881L99.9281 117.825L99.9395 103.415C99.9401 102.84 100.407 102.374 100.982 102.374C100.982 102.374 100.982 102.374 100.982 102.374C101.558 102.374 102.024 102.841 102.024 103.416L102.012 118.4C102.011 118.757 101.828 119.089 101.527 119.28L96.6838 122.343L96.4547 133.26C96.4429 133.828 95.9787 134.28 95.4134 134.28Z" fill="#1E3A59"/>
<path d="M52.2299 123.451H66.2019C68.8174 123.451 70.9377 121.33 70.9377 118.715C70.9377 116.099 68.8174 113.979 66.2019 113.979H52.2299C49.6144 113.979 47.4941 116.099 47.4941 118.715C47.4941 121.33 49.6144 123.451 52.2299 123.451Z" fill="white"/>
<g opacity="0.25">
<path d="M48.8393 115.412C49.1368 117.741 51.1221 119.543 53.5323 119.543H67.5043C68.8345 119.543 70.0346 118.993 70.8949 118.11C70.9203 118.308 70.9377 118.509 70.9377 118.714C70.9377 121.33 68.8174 123.45 66.2019 123.45H52.2299C49.6144 123.45 47.4941 121.33 47.4941 118.714C47.4941 117.429 48.0081 116.265 48.8393 115.412Z" fill="#1E3A59"/>
</g>
<path d="M66.2031 124.536H52.2312C49.0213 124.536 46.4102 121.924 46.4102 118.715C46.4102 115.505 49.0213 112.894 52.2312 112.894H66.2031C69.4129 112.894 72.0241 115.505 72.0241 118.715C72.0241 121.924 69.4129 124.536 66.2031 124.536ZM52.2312 115.064C50.2184 115.064 48.5806 116.702 48.5806 118.715C48.5806 120.727 50.2184 122.365 52.2312 122.365H66.2031C68.2159 122.365 69.8536 120.727 69.8536 118.715C69.8536 116.702 68.2159 115.064 66.2031 115.064H52.2312Z" fill="#1E3A59"/>
<path d="M63.9261 80.3894L61.7554 94.2819C61.4471 94.7769 61.1215 95.4238 60.7786 96.2051C57.796 102.973 53.4243 119.861 47.7674 134.909C45.2146 141.703 40.6821 147.603 34.678 151.68C34.2352 151.983 33.8098 152.257 33.4016 152.5C32.2034 153.216 30.7881 153.546 29.4163 153.29C28.6652 153.147 28.0097 152.869 27.493 152.439C26.5335 151.658 26.0256 150.377 26.1558 148.549C25.4265 148.675 24.7057 148.788 23.9895 148.879H23.9851C19.9781 149.418 16.2098 149.392 12.9537 148.18C11.165 147.512 9.94502 145.797 9.97111 143.891V143.826C9.9928 142.875 10.3445 141.981 10.9176 141.247V141.243C11.2301 140.843 11.6122 140.492 12.042 140.205C14.4818 138.59 16.7134 136.784 18.7147 134.783C20.968 132.534 22.6523 129.786 23.7421 126.795C32.3728 103.117 37.7171 74.5633 51.7702 77.7846L63.9261 80.3894Z" fill="white"/>
<path d="M62.1469 94.5232C59.8635 99.4278 57.9586 107.371 56.2692 112.608C54.4156 118.725 52.5477 124.851 50.4577 130.919C49.3926 133.988 48.3751 137.109 46.8073 139.972C43.8895 145.446 39.5619 150.214 34.2733 153.487C29.9668 156.26 24.3123 154.04 24.8612 148.456L26.3834 149.833C22.1718 150.556 17.6259 150.966 13.4251 149.708C11.2454 149.173 9.35693 147.542 8.83803 145.301C8.1678 142.584 9.56435 140.076 11.9119 138.726C15.836 135.986 19.6516 132.743 21.696 128.317C25.6789 118.474 28.3195 108.094 32.0129 98.1027C35.2131 89.7879 40.6337 74.0373 52.0164 76.5055C55.1868 77.1774 60.9861 78.4317 64.2035 79.1163C65.8699 79.5348 65.3557 81.9699 63.6576 81.6634C61.3068 81.15 55.4626 79.9141 53.1997 79.4223C52.2644 79.22 50.8584 78.8738 49.9261 78.8462C43.298 78.6714 39.4178 87.2263 37.0453 92.44C32.4186 103.343 29.4488 114.859 25.4152 126.01C24.2489 129.56 22.4006 132.949 19.7358 135.609C18.0049 137.353 16.1285 138.925 14.1348 140.351L13.3838 140.875L12.6673 141.363C11.9735 141.851 11.4589 142.613 11.3205 143.442C11.1039 144.693 11.7386 146.024 12.8402 146.677C13.7407 147.176 14.7669 147.39 15.7722 147.598C19.1328 148.205 22.5409 147.844 25.9372 147.267C26.6461 147.144 27.3203 147.62 27.4427 148.329C27.4695 149.061 27.4019 149.869 27.6569 150.468C28.4505 152.543 31.343 152.373 32.9227 151.267C37.8203 148.215 41.8823 143.872 44.6429 138.802C46.1706 136.06 47.1749 133.081 48.2652 130.143C50.4459 124.164 52.4171 118.097 54.3802 112.017C56.1405 106.698 57.795 101.293 60.1669 96.1977L60.7183 95.1046L61.3726 94.0416C61.5044 93.8274 61.7848 93.7607 61.999 93.8925C62.2155 94.0264 62.2779 94.3092 62.1469 94.5232Z" fill="#1E3A59"/>
<path d="M22.6129 147.745C25.5718 147.383 28.5399 146.644 30.693 144.45C30.9445 144.189 31.3739 144.527 31.1756 144.833C29.4414 147.627 26.2344 149.25 23.214 150.28C21.3773 150.84 20.7171 148.071 22.6129 147.745Z" fill="#1E3A59"/>
<path d="M52.8976 121.092C52.846 121.092 52.7941 121.089 52.7417 121.081C41.7653 119.503 32.9656 114.674 29.2026 108.164C28.9025 107.645 29.08 106.982 29.5991 106.682C30.1182 106.381 30.7817 106.559 31.0818 107.078C34.5147 113.016 42.7272 117.448 53.0505 118.933C53.644 119.018 54.0558 119.568 53.9704 120.161C53.8927 120.702 53.4285 121.092 52.8976 121.092Z" fill="#1E3A59"/>
<g opacity="0.25">
<path d="M60.7817 96.2048C57.7991 102.973 53.4274 119.861 47.7704 134.908C45.2177 141.703 40.6852 147.603 34.6811 151.679C34.2383 151.983 33.8128 152.257 33.4047 152.5C32.2065 153.216 30.7912 153.546 29.4193 153.29C28.6683 153.147 28.0127 152.869 27.4961 152.439C28.6509 152.591 29.8014 152.535 30.891 152.105C32.5104 151.467 33.713 150.09 34.82 148.744C38.2237 144.598 41.3886 140.179 43.4854 135.238C44.3928 133.102 45.0961 130.884 45.7951 128.674C47.1583 124.363 48.5215 120.056 49.8847 115.75C52.216 108.387 54.7947 100.633 60.6383 95.5796L60.7817 96.2048Z" fill="#1E3A59"/>
</g>
<g opacity="0.25">
<path d="M30.204 144.846L29.2489 145.593C27.6339 146.891 25.8626 147.994 23.9914 148.879H23.9871C19.98 149.418 16.2117 149.391 12.9556 148.18C11.1669 147.512 9.94697 145.797 9.97307 143.891V143.826C9.99476 142.875 10.3465 141.981 10.9195 141.247V141.243C11.6228 140.691 12.3609 140.183 13.0859 139.693C11.8485 140.613 11.9658 142.71 13.0121 143.878C14.0974 145.089 15.7949 145.528 17.4012 145.767C21.6688 146.409 26.0753 146.092 30.204 144.846Z" fill="#1E3A59"/>
</g>
<path d="M76.0256 48.9858C75.9294 49.0309 75.8334 49.0759 75.7383 49.1174C75.8106 49.118 75.8817 49.1162 75.954 49.1168C76.0016 49.0255 76.0256 48.9858 76.0256 48.9858Z" fill="#982E20"/>
<g opacity="0.35">
<path d="M70.293 68.0944L73.2785 77.7493C73.9921 77.3278 74.7751 76.8694 75.6164 76.3871L72.6142 66.6807C72.4674 66.8189 71.6264 67.3083 70.293 68.0944Z" fill="#371A45"/>
</g>
<path d="M112.016 46.0729C111.26 52.6973 108.826 59.1723 104.712 64.8399C103.873 65.9952 102.968 67.1155 101.992 68.1958C101.519 68.7228 101.024 69.2407 100.515 69.753C98.9753 71.2889 97.3416 72.6751 95.6294 73.9128C94.1563 74.9832 92.6229 75.9409 91.0487 76.7891C89.1481 77.8143 87.1809 78.6756 85.1711 79.3776C84.4373 79.6312 83.699 79.8649 82.9564 80.0788C69.355 83.9649 54.124 80.6975 43.3888 70.2179C27.5715 54.7838 27.5067 29.5513 43.2368 13.8599C46.2686 10.8399 49.6653 8.38632 53.2884 6.51834C53.7098 6.29607 54.1394 6.08493 54.5727 5.88309C55.728 5.3353 56.9028 4.84461 58.0938 4.41201C60.8488 3.41233 63.6916 2.71922 66.5631 2.33112C69.4334 1.93998 72.3399 1.85441 75.2204 2.07422C76.1363 2.14353 77.0498 2.24264 77.9619 2.37473C79.3286 2.57327 80.6851 2.83707 82.0321 3.17669C88.7423 4.84828 95.0953 8.25221 100.363 13.3951C109.463 22.273 113.347 34.3918 112.016 46.0729Z" fill="white"/>
<path d="M71.6903 81.7573C61.1952 81.7573 50.9524 77.7388 43.3213 70.2893C35.6829 62.836 31.444 52.8777 31.3854 42.2489C31.3263 31.5352 35.5109 21.4282 43.1684 13.7895C46.1575 10.812 49.5476 8.33586 53.2449 6.43004C53.6475 6.21757 54.0689 6.00896 54.5326 5.79282C55.6838 5.24706 56.8714 4.75092 58.0617 4.31857C60.7964 3.32623 63.6529 2.6244 66.5518 2.23256C69.4226 1.84148 72.3422 1.75496 75.2299 1.97496C76.1592 2.04528 77.0838 2.14661 77.9781 2.27629C79.3743 2.47921 80.7472 2.74959 82.0587 3.08028C88.9828 4.80516 95.3373 8.34738 100.435 13.324C109.251 21.926 113.509 33.8667 112.117 46.0843C111.344 52.8575 108.812 59.3634 104.795 64.8986C103.944 66.0694 103.026 67.2013 102.068 68.2627C101.629 68.7513 101.145 69.2618 100.588 69.8233C99.0666 71.3407 97.4187 72.7438 95.6899 73.9938C94.2442 75.0441 92.6992 76.0144 91.0979 76.877C89.224 77.8877 87.2416 78.7607 85.206 79.4719C84.473 79.7251 83.7262 79.9616 82.9859 80.1748C79.2618 81.2387 75.4591 81.7573 71.6903 81.7573ZM72.1085 2.05553C70.2592 2.05553 68.409 2.18053 66.5786 2.4299C63.6936 2.8199 60.8509 3.51832 58.1297 4.50573C56.9454 4.93604 55.7636 5.42978 54.6173 5.9732C54.1563 6.18814 53.7376 6.39523 53.337 6.60656C49.6573 8.50358 46.2836 10.9676 43.3091 13.9306C35.6898 21.5311 31.5259 31.5877 31.5846 42.2478C31.643 52.8228 35.8605 62.7307 43.4604 70.1466C53.7811 80.2214 68.905 83.9908 82.9311 79.983C83.6678 79.7709 84.4112 79.5356 85.1406 79.2835C87.1661 78.576 89.1387 77.7073 91.0034 76.7014C92.5968 75.8429 94.1343 74.8776 95.573 73.8323C97.2936 72.5884 98.9333 71.1921 100.447 69.6825C101.001 69.1238 101.483 68.6155 101.92 68.1293C102.874 67.073 103.787 65.9466 104.634 64.7814C108.631 59.274 111.15 52.8008 111.919 46.0617C113.304 33.9058 109.068 22.0253 100.296 13.4666C95.2235 8.51466 88.9004 4.98991 82.0102 3.27351C80.7051 2.9444 79.3392 2.67534 77.9495 2.47338C77.0598 2.34452 76.1397 2.24363 75.2148 2.17363C74.1823 2.09477 73.1455 2.05553 72.1085 2.05553Z" fill="#371A45"/>
<g opacity="0.25">
<path d="M43.3915 70.2171C54.126 80.6985 69.3591 83.9659 82.9597 80.0778C83.7026 79.8648 84.4405 79.6314 85.173 79.3775C87.1837 78.6762 89.1499 77.8136 91.0509 76.7899C92.6247 75.9403 94.1594 74.9834 95.6315 73.914C97.345 72.6762 98.9778 71.2903 100.519 69.7538C101.025 69.2399 101.521 68.7236 101.996 68.1972C102.972 67.1159 103.874 65.9941 104.715 64.8394C108.828 59.1718 111.264 52.698 112.019 46.0718C112.434 42.4328 112.343 38.7486 111.745 35.1348C110.878 41.4412 108.481 47.5814 104.557 52.9887C103.719 54.1459 102.813 55.2651 101.838 56.3464C101.365 56.8728 100.87 57.3892 100.361 57.903C98.8196 59.4395 97.1868 60.8254 95.4758 62.0632C94.0011 63.1325 92.4691 64.0895 90.8953 64.9391C88.9943 65.9627 87.0255 66.8253 85.0175 67.5267C84.2823 67.7805 83.5445 68.014 82.8014 68.2269C69.2009 72.115 53.9704 68.8476 43.2333 58.3663C36.968 52.2537 33.1774 44.603 31.858 36.6196C30.2075 48.5832 34.0548 61.108 43.3915 70.2171Z" fill="#1E3A59"/>
</g>
<path d="M71.6889 82.4249C61.0216 82.4249 50.6098 78.3396 42.8527 70.7673C35.0855 63.1883 30.775 53.0616 30.7155 42.2527C30.6553 31.3589 34.9098 21.0826 42.6946 13.3169C45.7328 10.2905 49.1785 7.77401 52.9367 5.83647C53.3435 5.62185 53.7748 5.40843 54.2484 5.18767C55.4145 4.63482 56.6217 4.13045 57.8315 3.69096C60.6112 2.68222 63.5141 1.96899 66.4602 1.57077C69.3771 1.17336 72.3444 1.08513 75.2787 1.30918C76.2227 1.38058 77.1626 1.48361 78.0718 1.61545C79.4909 1.82159 80.8863 2.09646 82.2197 2.43273C89.257 4.1859 95.717 7.78698 100.899 12.8461C109.864 21.5933 114.194 33.7358 112.778 46.1599C112.778 46.16 112.778 46.16 112.778 46.16C111.993 53.0473 109.418 59.6627 105.333 65.2908C104.468 66.4811 103.536 67.6315 102.561 68.7103C102.117 69.2057 101.625 69.7243 101.06 70.2937C99.5112 71.8384 97.8362 73.2644 96.079 74.535C94.6105 75.6019 93.0399 76.5881 91.4126 77.4648C89.5079 78.4922 87.4932 79.3796 85.4241 80.1023C84.6781 80.36 83.92 80.6 83.1686 80.8165C79.3835 81.898 75.5196 82.4249 71.6889 82.4249ZM72.1062 2.72349C70.287 2.72349 68.4671 2.84634 66.6666 3.09172C63.8279 3.47539 61.0319 4.16242 58.3553 5.13368C57.1908 5.5566 56.0287 6.04223 54.9013 6.57672C54.4463 6.78888 54.0373 6.99116 53.6465 7.19742C50.022 9.06591 46.704 11.4894 43.7782 14.4039C36.2866 21.8769 32.1925 31.7643 32.2503 42.2441C32.3076 52.6392 36.4537 62.3787 43.9247 69.6687C54.0743 79.5769 68.9496 83.2829 82.7453 79.3409C83.4696 79.1324 84.2019 78.9005 84.9203 78.6524C86.9105 77.9572 88.8505 77.1029 90.684 76.1138C92.2516 75.2691 93.7635 74.32 95.1782 73.2921C96.8714 72.0679 98.4843 70.6946 99.9733 69.2097C100.517 68.6615 100.992 68.1611 101.421 67.6832C102.36 66.6428 103.258 65.535 104.091 64.3888C108.021 58.9747 110.497 52.611 111.253 45.986C112.615 34.0367 108.45 22.3579 99.8271 13.9445C94.8393 9.07521 88.6218 5.60938 81.8464 3.9214C80.5617 3.59754 79.2182 3.33286 77.8513 3.13431C76.9767 3.0076 76.0718 2.90843 75.1621 2.83963C74.1465 2.7621 73.1264 2.72349 72.1062 2.72349Z" fill="#371A45"/>
<path d="M71.6909 82.649C60.9658 82.649 50.4971 78.5413 42.6977 70.9278C34.8872 63.3065 30.5528 53.1231 30.4928 42.2538C30.4324 31.2994 34.7101 20.9662 42.538 13.1577C45.5925 10.115 49.057 7.58476 52.8358 5.63672C53.244 5.42134 53.6784 5.2064 54.1554 4.984C55.3267 4.42868 56.5403 3.92153 57.7568 3.47956C60.5514 2.46545 63.4702 1.74836 66.432 1.34798C69.3647 0.948546 72.3478 0.860191 75.2976 1.085C76.2465 1.15684 77.1915 1.26051 78.1058 1.39298C79.5327 1.60019 80.9357 1.87678 82.2765 2.21469C89.3518 3.97729 95.8473 7.59818 101.058 12.6853C110.073 21.4812 114.427 33.6915 113.003 46.1852C112.213 53.1109 109.625 59.7631 105.517 65.4225C104.647 66.6193 103.71 67.7759 102.73 68.8606C102.283 69.3583 101.789 69.8793 101.221 70.4515C99.6633 72.0054 97.9792 73.4392 96.2125 74.7166C94.7363 75.7891 93.1571 76.7807 91.5209 77.6622C89.6061 78.6952 87.5802 79.5874 85.5001 80.314C84.7496 80.5734 83.9878 80.8145 83.2327 81.032C79.4269 82.1193 75.5423 82.649 71.6909 82.649ZM72.108 2.9476C70.299 2.9476 68.4892 3.07001 66.6988 3.31399C63.8757 3.69551 61.0954 4.37862 58.4338 5.34438C57.276 5.76501 56.1203 6.24786 54.9993 6.77925C54.5463 6.99046 54.1407 7.19122 53.7531 7.39565C50.1474 9.2547 46.8481 11.6644 43.9385 14.5628C36.49 21.993 32.4192 31.8234 32.4767 42.2428C32.5336 52.5773 36.6555 62.2602 44.0833 69.5081C54.1753 79.3598 68.9667 83.0445 82.6856 79.1251C83.4057 78.9178 84.1342 78.6871 84.8489 78.4401C86.8272 77.7491 88.7562 76.8995 90.5794 75.916C92.1383 75.0762 93.6417 74.1322 95.0483 73.1104C96.7324 71.8926 98.3361 70.5272 99.8168 69.0507C100.357 68.5059 100.829 68.0083 101.256 67.5332C102.191 66.498 103.083 65.3965 103.912 64.2569C107.819 58.874 110.281 52.5471 111.032 45.9605C112.386 34.0806 108.246 22.4697 99.6724 14.1051C94.7131 9.2635 88.5309 5.81742 81.7941 4.13918C80.5163 3.81703 79.1803 3.55387 77.821 3.3564C76.9517 3.23045 76.0518 3.13171 75.1472 3.0633C74.137 2.98608 73.1227 2.9476 72.108 2.9476Z" fill="#1E3A59"/>
<path d="M109.553 56.0045C93.8146 79.9703 59.5506 81.2857 47.2737 55.876C38.9213 38.5888 49.6751 17.0778 67.0633 10.1326C79.7187 5.07787 94.2841 5.59255 107.495 22.7822C107.495 22.7822 112.146 31.2894 112.13 38.2129C112.114 45.1364 110.914 51.8738 110.914 51.8738L109.553 56.0045Z" fill="#0056A8"/>
<path opacity="0.35" d="M47.2745 55.8763C59.5504 81.2857 93.815 79.9696 109.553 56.0059L109.828 55.1682C87.4314 69.1756 57.5315 64.6811 44.6332 39.2207C43.9376 44.805 44.6978 50.5411 47.2745 55.8763Z" fill="#111A28"/>
<path d="M76.4649 79.5663C72.2305 79.5663 68.0547 78.9091 64.1112 77.5785C54.5977 74.3687 47.1392 67.6437 42.5417 58.1307C38.3192 49.392 38.0875 39.1864 41.8895 29.3937C46.1122 18.5173 54.8671 9.53403 65.3088 5.36358C71.1113 3.04611 76.7513 1.97731 82.0735 2.18756C82.1411 2.19022 82.2081 2.19977 82.2738 2.21617C89.3514 3.97921 95.8467 7.59991 101.057 12.6868C110.072 21.4823 114.425 33.692 113.001 46.1852C112.212 53.1107 109.623 59.7624 105.516 65.4217C104.646 66.6183 103.709 67.7749 102.729 68.8597C102.282 69.3572 101.788 69.8784 101.22 70.4506C99.6626 72.0043 97.9786 73.4381 96.2118 74.7154C96.1701 74.7457 96.1259 74.7725 96.08 74.7959C89.8551 77.9561 83.0895 79.5663 76.4649 79.5663ZM80.7546 4.1418C76.0759 4.1418 71.1335 5.16934 66.0433 7.20238C56.1023 11.1729 47.7628 19.7367 43.7353 30.1104C40.1342 39.3853 40.3436 49.0306 44.3245 57.2691C48.6852 66.2922 55.7463 72.6663 64.7441 75.7023C74.3337 78.938 85.3987 77.9757 95.1143 73.0653C96.7739 71.8604 98.3563 70.5103 99.8185 69.0521C100.359 68.5072 100.831 68.0097 101.257 67.5346C102.192 66.4995 103.085 65.3979 103.913 64.2581C107.821 58.875 110.283 52.5477 111.034 45.9608C112.388 34.0804 108.248 22.4689 99.674 14.1038C94.7386 9.28574 88.5927 5.84953 81.8939 4.16231C81.516 4.14858 81.1361 4.1418 80.7546 4.1418Z" fill="#1E3A59"/>
<path d="M76.7234 75.0933C75.9335 75.0933 75.1437 75.0677 74.3515 75.0156C62.1867 74.2178 52.1089 67.342 46.7022 56.1514C42.9759 48.4392 42.7729 39.4296 46.1304 30.7825C49.8629 21.1695 57.6 13.2303 66.8269 9.54483C82.7133 3.19976 96.5644 7.52325 107.995 22.3966C108.015 22.4225 108.032 22.4499 108.048 22.4786C108.241 22.8318 112.778 31.2088 112.761 38.2144C112.745 45.1131 111.547 51.9168 111.535 51.9845C111.53 52.014 111.523 52.0431 111.513 52.0716L110.152 56.2023C110.135 56.2552 110.111 56.3054 110.08 56.3518C102.388 68.0656 89.7747 75.0933 76.7234 75.0933ZM80.4086 7.99856C76.2154 7.99856 71.8422 8.90464 67.2964 10.7204C58.3896 14.2779 50.9181 21.9491 47.3104 31.2406C44.0814 39.5569 44.2702 48.2081 47.8419 55.6007C53.0448 66.3693 62.7373 72.9854 74.4344 73.7526C87.8327 74.6301 101.063 67.7255 108.977 55.7266L110.296 51.7195C110.398 51.1314 111.48 44.7108 111.495 38.2113C111.511 31.7773 107.307 23.7769 106.96 23.1275C99.2058 13.0548 90.3124 7.99856 80.4086 7.99856Z" fill="#1E3A59"/>
<path d="M29.9979 60.9726C32.5282 68.4127 39.1099 73.1517 44.7 71.5555C50.29 69.9594 52.7699 62.6335 50.2396 55.1934C50.2247 55.1465 50.2065 55.0974 50.1888 55.0511C47.625 47.6925 41.0881 43.025 35.5375 44.6104C31.2191 45.8432 28.757 50.4958 29.0258 55.9781C29.1058 57.5921 29.4226 59.2806 29.9979 60.9726Z" fill="white"/>
<g opacity="0.25">
<path d="M29.9975 60.9727C32.5278 68.4129 39.1095 73.1519 44.6995 71.5557C50.2895 69.9595 52.7695 62.6337 50.2392 55.1935C50.2242 55.1466 50.2061 55.0976 50.1884 55.0513C49.8335 55.9902 49.1328 57.0153 47.7506 57.1319C45.3297 57.3351 39.6293 53.7139 39.6293 53.7139C39.6293 53.7139 35.0245 54.666 29.0254 55.9782C29.1054 57.5923 29.4222 59.2808 29.9975 60.9727Z" fill="#1E3A59"/>
</g>
<path d="M42.4971 72.8515C37.0675 72.8518 31.3947 68.1565 29.0597 61.2925C27.5046 56.7195 27.6806 52.0574 29.5425 48.5018C30.8359 46.0322 32.8149 44.357 35.266 43.657C41.3477 41.9199 48.4862 46.9518 51.1802 54.8733C52.7353 59.4461 52.5593 64.108 50.6974 67.6638C49.4042 70.1334 47.4251 71.8086 44.9739 72.5087C44.1629 72.7403 43.3327 72.8515 42.4971 72.8515ZM37.7903 45.2909C37.1209 45.2909 36.4583 45.3798 35.8109 45.5647C33.895 46.1117 32.3351 47.4457 31.3001 49.4221C29.7126 52.4536 29.5772 56.6524 30.9381 60.6537C32.9961 66.7056 37.8671 70.8742 42.45 70.8747C43.1193 70.8748 43.7818 70.786 44.4292 70.601C46.3452 70.0539 47.905 68.7199 48.9401 66.7434C50.5274 63.7119 50.6628 59.5132 49.302 55.512C47.2439 49.46 42.3731 45.2909 37.7903 45.2909Z" fill="#1E3A59"/>
<path d="M41.9419 70.5957C46.2468 68.6536 47.654 62.4627 45.0849 56.7679C42.5158 51.073 36.9434 48.0308 32.6385 49.9729C28.3336 51.9149 26.9264 58.1058 29.4955 63.8007C32.0645 69.4955 37.637 72.5377 41.9419 70.5957Z" fill="white"/>
<path d="M39.1985 71.2847C39.0452 71.2847 38.8908 71.2801 38.7349 71.2707C35.9494 71.1021 33.1612 69.431 31.0856 66.6856C27.3615 61.7603 27.1069 54.8814 30.5178 51.3515C31.9361 49.8837 33.7797 49.1731 35.8504 49.2995C38.6359 49.468 41.4239 51.1394 43.4996 53.8846C47.2236 58.8099 47.4783 65.6887 44.0674 69.2187C42.756 70.5758 41.0804 71.2847 39.1985 71.2847ZM31.2506 66.5607C33.2898 69.2577 36.0223 70.899 38.7475 71.0639C40.7567 71.1866 42.5437 70.4976 43.9185 69.0746C47.2617 65.615 46.9996 58.8568 43.3345 54.0094C41.2954 51.3124 38.563 49.6711 35.8379 49.5062C33.8295 49.3846 32.0415 50.0725 30.6667 51.4955C27.3236 54.9551 27.5855 61.7133 31.2506 66.5607Z" fill="#371A45"/>
<g opacity="0.25">
<path d="M46.5011 62.246C46.3343 60.1103 45.5729 58.0154 44.4154 56.1968C44.38 61.1006 40.934 64.254 36.3698 63.3494C33.4203 62.7661 30.6829 60.6196 28.8934 57.8046C28.8891 58.1138 28.9025 58.433 28.9271 58.757C29.3545 64.1953 33.6349 69.3853 38.4885 70.3483C43.342 71.3112 46.9277 67.6815 46.5011 62.246Z" fill="#1E3A59"/>
</g>
<path d="M39.4381 72.1816C35.147 72.1816 30.5342 68.2041 28.5576 62.4663C27.2227 58.5916 27.3261 54.5675 28.8341 51.7017C29.8096 49.8477 31.2891 48.6005 33.1125 48.0952C37.8338 46.7874 43.5038 51.0396 45.7549 57.5741C47.0898 61.4487 46.9866 65.4729 45.4786 68.3388C44.5031 70.1928 43.0236 71.44 41.2002 71.9452C40.6245 72.1047 40.0339 72.1816 39.4381 72.1816ZM30.4331 61.8201C32.3494 67.3824 36.9419 71.0669 40.6703 70.0335C41.953 69.6779 43.0087 68.7725 43.7229 67.415C44.9807 65.0243 45.0391 61.5872 43.8793 58.2203C41.9631 52.6582 37.3712 48.9748 33.6422 50.007C32.3594 50.3626 31.3038 51.268 30.5896 52.6255C29.3318 55.0159 29.2736 58.4535 30.4331 61.8201Z" fill="#1E3A59"/>
<g opacity="0.5">
<path d="M60.4491 21.1741C60.4491 21.1741 77.4323 15.5992 90.3479 21.3458C90.3615 21.3519 90.3751 21.3579 90.3886 21.364C93.1059 22.5758 95.4376 24.4937 97.1534 26.8979C99.4226 30.0774 100.512 32.599 101.385 34.8559C104.035 41.7209 103.972 45.4342 103.972 45.4342C106.538 40.2977 107.183 35.3295 105.034 29.5895C104.82 29.0242 104.579 28.4491 104.312 27.8667C104.252 27.7323 104.188 27.6005 104.122 27.4686C104.125 27.4661 104.122 27.4636 104.117 27.4612C103.493 26.3195 102.615 24.8501 101.484 23.275C98.0752 18.5225 92.3774 12.8001 84.4248 12.1644C69.5547 10.9756 59.5979 20.6757 60.4491 21.1741Z" fill="white"/>
</g>
<g opacity="0.5">
<path d="M55.3098 48.5837C58.2797 48.3018 60.4247 45.3077 60.1008 41.8963C59.777 38.4848 57.1069 35.9479 54.1371 36.2298C51.1673 36.5117 49.0223 39.5058 49.3461 42.9172C49.67 46.3286 52.34 48.8656 55.3098 48.5837Z" fill="white"/>
</g>
<g opacity="0.5">
<path d="M55.8883 56.1837C57.1197 56.1817 58.1161 55.0326 58.1139 53.617C58.1116 52.2014 57.1115 51.0555 55.8801 51.0575C54.6487 51.0594 53.6522 52.2086 53.6545 53.6241C53.6568 55.0397 54.6569 56.1857 55.8883 56.1837Z" fill="white"/>
</g>
<defs>
<linearGradient id="paint0_linear_488_7435" x1="72.1492" y1="247.715" x2="82.1479" y2="201.765" gradientUnits="userSpaceOnUse">
<stop stop-color="#FF5722"/>
<stop offset="0.9972" stop-color="#FF9800"/>
</linearGradient>
<linearGradient id="paint1_linear_488_7435" x1="43.0211" y1="249.772" x2="53.8312" y2="200.387" gradientUnits="userSpaceOnUse">
<stop stop-color="#FF5722"/>
<stop offset="0.9972" stop-color="#FF9800"/>
</linearGradient>
</defs>
</svg>
