<svg width="94" height="201" viewBox="0 0 94 201" fill="none" xmlns="http://www.w3.org/2000/svg">
<path d="M6.03881 140.519C12.3938 150.389 30.8183 148.448 30.8183 148.448L35.2769 85.1507L36.1777 72.3665C36.1777 72.3665 25.7739 71.9051 17.6555 74.69C13.7435 76.0292 10.3643 78.1244 8.93221 81.3857C3.94692 92.7164 0.8174 132.407 6.03881 140.519Z" fill="white"/>
<g opacity="0.25">
<path d="M3.9968 107.574C2.80948 121.439 3.10731 135.962 6.03881 140.518C12.393 150.388 30.8199 148.448 30.8199 148.448L36.1758 72.3688C36.1758 72.3688 35.9822 72.3592 35.6259 72.354L31.451 131.672C31.451 131.672 13.024 133.613 6.66988 123.742C4.9494 121.067 4.13568 114.962 3.9968 107.574Z" fill="#1E3A59"/>
</g>
<path d="M26.9919 149.611C29.2067 149.611 30.7117 149.461 30.9229 149.439C31.4697 149.382 31.8663 148.892 31.809 148.345C31.7516 147.798 31.2585 147.4 30.7147 147.458C30.5366 147.476 12.8218 149.215 6.87619 139.979C2.0089 132.419 4.75806 93.3484 9.84321 81.7879C13.9335 72.4891 35.9098 73.3508 36.1318 73.3614C36.6792 73.3838 37.1467 72.9599 37.1709 72.4104C37.1951 71.8608 36.7694 71.3957 36.2199 71.3713C35.26 71.3287 12.6531 70.4521 8.01974 80.9859C3.13591 92.0887 -0.373321 132.398 5.20123 141.058C10.0158 148.536 21.0523 149.61 26.9919 149.611Z" fill="#1E3A59"/>
<path d="M4.93426 113.507L17.2761 115.355C18.3779 115.52 19.2336 116.426 19.355 117.564C19.7997 121.729 20.3409 131.406 16.2326 134.294C12.8227 136.691 7.59691 136.006 4.70417 133.111C1.46831 129.872 1.77122 120.441 2.14317 115.789C2.25879 114.342 3.53694 113.298 4.93426 113.507Z" fill="white"/>
<g opacity="0.35">
<path d="M19.354 117.565C19.8008 121.729 20.3402 131.406 16.2315 134.293C12.821 136.691 7.5966 136.006 4.70222 133.11C2.71375 131.117 2.06222 126.782 1.94239 122.659C2.36238 124.745 3.12703 126.469 4.1444 127.637C9.97357 134.331 15.1417 127.303 15.1417 127.303C15.1417 127.303 15.8304 129.149 16.4692 129.297C19.1402 129.914 19.1719 121.187 19.0864 116.67C19.227 116.94 19.3207 117.242 19.354 117.565Z" fill="#1E3A59"/>
</g>
<path d="M11.3452 136.75C13.3031 136.75 15.2342 136.214 16.8071 135.109C21.197 132.023 20.9094 122.725 20.3472 117.458C20.1779 115.872 18.9763 114.602 17.4252 114.37L5.08344 112.522C4.14476 112.383 3.21517 112.631 2.46731 113.225C1.70944 113.827 1.23011 114.733 1.15203 115.71C0.730455 120.984 0.539997 130.351 4.00136 133.815C5.92787 135.743 8.66158 136.75 11.3452 136.75ZM4.57927 114.477C4.64862 114.477 4.71852 114.482 4.78847 114.492V114.492L17.1303 116.34C17.785 116.438 18.2932 116.984 18.3664 117.669C19.231 125.77 18.2199 131.681 15.6616 133.479C12.7386 135.534 8.04423 135.043 5.41052 132.407C3.29525 130.29 2.46688 124.262 3.13764 115.868C3.17231 115.433 3.37425 115.049 3.70609 114.785C3.96083 114.583 4.26483 114.477 4.57927 114.477Z" fill="#1E3A59"/>
<path d="M14.6641 119.711C14.0249 123.996 14.2495 128.968 11.2342 132.343C10.3049 133.328 9.08232 133.926 7.74398 134.163C7.20043 134.257 6.83644 134.775 6.93276 135.318C7.02873 135.86 7.54583 136.222 8.08773 136.126C13.6747 134.927 15.1353 129.372 15.4297 124.427C15.5491 122.876 15.5625 121.323 15.7105 119.841C15.7676 119.172 14.7761 119.04 14.6641 119.711Z" fill="#1E3A59"/>
<g opacity="0.25">
<path d="M19.8703 74.8491C25.0209 79.4882 31.0218 83.0412 37.4917 85.3099L38.3926 72.5256C38.3926 72.5256 27.9887 72.0643 19.8703 74.8491Z" fill="#1E3A59"/>
</g>
<path d="M92.3789 110.883C90.9928 95.1034 73.3494 80.5903 64.6699 77.0332L57.1288 77.7446L70.7882 115.308L92.3789 110.883Z" fill="white"/>
<path d="M70.7877 116.304C70.854 116.304 70.9212 116.297 70.9883 116.283L92.5789 111.859C93.0746 111.757 93.4153 111.3 93.3711 110.796C91.9712 94.857 74.4582 79.9681 65.0476 76.1113C64.8987 76.0503 64.7369 76.0268 64.5764 76.0412L57.0353 76.7527C56.7283 76.7817 56.452 76.9512 56.2872 77.2119C56.1223 77.4726 56.0875 77.7949 56.193 78.0847L69.8523 115.648C69.9975 116.048 70.3764 116.304 70.7877 116.304ZM91.2919 110.089L71.4305 114.159L58.5052 78.6148L64.5158 78.0479C68.4917 79.7389 74.9104 84.0599 80.5329 90.0557C84.9144 94.7281 90.2546 101.932 91.2919 110.089Z" fill="#1E3A59"/>
<path d="M75.3876 140.544C75.3876 140.544 77.8907 166.634 73.6994 181.844C73.6994 181.844 84.9429 188.301 77.7965 193.28C69.9916 198.718 49.6139 198.553 45.9725 191.537C42.2481 184.361 47.8748 150.903 47.298 127.206" fill="white"/>
<path d="M63.3719 169.533C67.6322 169.533 72.1913 168.964 76.4705 167.319C76.9839 167.121 77.2401 166.545 77.0428 166.031C76.8453 165.518 76.2692 165.262 75.7556 165.459C62.8411 170.424 46.5945 164.85 46.4318 164.792C45.9126 164.611 45.3445 164.884 45.1628 165.404C44.9812 165.923 45.2548 166.491 45.7741 166.673C46.2483 166.839 54.1024 169.533 63.3719 169.533Z" fill="#1E3A59"/>
<path d="M56.7765 183.612C61.2847 181.433 66.5776 180.958 71.4086 182.19C72.0347 182.329 72.8627 182.637 73.4836 182.822C74.7462 183.19 75.3366 181.35 74.0893 180.918C68.2743 179.51 61.8442 180.399 56.7765 183.612Z" fill="#1E3A59"/>
<g opacity="0.25">
<path d="M80.0898 190.612C79.8022 191.518 79.1134 192.421 77.8795 193.282C70.0754 198.717 49.6984 198.555 46.0575 191.539C42.3333 184.362 47.9612 150.904 47.3822 127.206L75.4725 140.545C75.4725 140.545 75.7261 143.205 75.9381 147.321C73.6142 149.61 69.0839 152.699 60.3374 155.493C48.4949 159.274 46.7804 191.455 60.818 193.007C65.7154 193.546 74.6134 192.728 80.0898 190.612Z" fill="#1E3A59"/>
</g>
<path d="M61.8795 198.123C68.2579 198.123 74.6757 196.668 78.3657 194.097C80.3027 192.747 81.2446 191.142 81.1653 189.326C81.0052 185.66 76.6156 182.504 74.8533 181.381C78.7768 166.101 76.4802 141.504 76.379 140.448C76.3263 139.901 75.8394 139.502 75.2924 139.552C74.7447 139.605 74.3436 140.091 74.396 140.639C74.4208 140.898 76.833 166.723 72.7392 181.58L72.5344 182.323L73.203 182.708C74.8239 183.641 79.0569 186.666 79.1752 189.415C79.2228 190.519 78.5855 191.516 77.227 192.463C72.323 195.88 61.5973 197.143 53.8057 195.222C50.257 194.347 47.7889 192.875 46.8564 191.078C44.8462 187.205 45.8231 174.01 46.8573 160.041C47.6461 149.386 48.5401 137.309 48.2936 127.181C48.2803 126.631 47.8328 126.188 47.2736 126.21C46.7238 126.223 46.2889 126.68 46.3022 127.23C46.5463 137.26 45.6561 149.284 44.8707 159.894C43.7239 175.385 42.818 187.621 45.0883 191.996C46.3063 194.343 49.1559 196.127 53.329 197.156C55.988 197.812 58.9297 198.123 61.8795 198.123Z" fill="#1E3A59"/>
<path d="M17.8626 119.131L27.4008 119.81C28.2523 119.871 28.9533 120.458 29.1042 121.241C29.6568 124.11 30.5642 130.797 27.5678 133.001C25.0807 134.83 21.0471 134.61 18.686 132.743C16.0448 130.654 15.7957 124.096 15.8432 120.85C15.8579 119.841 16.7828 119.054 17.8626 119.131Z" fill="white"/>
<g opacity="0.35">
<path d="M29.1034 121.242C29.6577 124.11 30.5638 130.797 27.567 133C25.0794 134.831 21.0468 134.61 18.6844 132.742C17.0612 131.457 16.3417 128.481 16.0397 125.627C16.4675 127.053 17.1404 128.212 17.9785 128.973C22.7802 133.332 26.3766 128.204 26.3766 128.204C26.3766 128.204 26.9978 129.451 27.4941 129.522C29.5695 129.82 29.1488 123.764 28.8531 120.635C28.9745 120.815 29.0615 121.02 29.1034 121.242Z" fill="#371A45"/>
</g>
<path d="M23.3768 135.449C25.157 135.449 26.9181 134.956 28.2743 133.958C31.6979 131.44 30.9964 124.769 30.2734 121.017C30.0213 119.708 28.8757 118.724 27.4879 118.625L17.9496 117.946C17.0862 117.884 16.2276 118.179 15.6011 118.754C15.0044 119.301 14.6693 120.04 14.6577 120.833C14.5903 125.45 15.1069 131.425 17.9515 133.675C19.4412 134.853 21.4205 135.449 23.3768 135.449ZM17.7808 120.316L27.319 120.996C27.6306 121.018 27.8918 121.216 27.9401 121.466C28.7386 125.611 28.8758 130.566 26.8663 132.044C24.8938 133.495 21.417 133.386 19.4256 131.811C17.846 130.562 16.9519 126.471 17.0339 120.868C17.0363 120.697 17.1299 120.576 17.208 120.505C17.3549 120.37 17.5621 120.302 17.7808 120.316Z" fill="#371A45"/>
<path d="M25.4004 122.936C25.0886 125.908 25.4601 129.412 23.2986 131.678C22.6762 132.29 21.8717 132.654 20.9773 132.84C20.332 132.972 19.916 133.603 20.0505 134.248C20.1884 134.928 20.8956 135.347 21.5584 135.144C22.7924 134.783 23.9985 134.097 24.8408 133.099C25.7041 132.095 26.1755 130.886 26.4226 129.727C26.914 127.494 26.6426 125.198 26.6555 123.014C26.6544 122.218 25.5009 122.145 25.4004 122.936Z" fill="#371A45"/>
<path d="M23.5301 96.4713C27.0487 96.8157 30.5699 97.4771 33.9535 98.5015C35.4728 98.905 36.1304 96.7156 34.6335 96.2186C30.9732 95.5614 27.2614 95.3524 23.5478 95.4476C22.9091 95.4764 22.8913 96.4214 23.5301 96.4713Z" fill="#371A45"/>
<g opacity="0.35">
<path d="M49.4322 140.773C49.5423 141.32 49.6444 141.857 49.7383 142.387C49.6471 141.857 49.545 141.32 49.4322 140.773Z" fill="#371A45"/>
</g>
<path d="M17.5238 129.459C17.5272 129.592 17.5339 129.725 17.5372 129.858C17.6705 133.079 18.1839 135.809 19.0709 137.95C19.0775 137.963 19.0841 137.98 19.0909 137.993C19.1142 138.05 19.1376 138.104 19.1609 138.164C19.751 139.534 20.4911 140.831 21.3647 142.036C24.1818 145.944 28.3893 148.95 33.4936 150.809C35.7974 151.645 42.0086 153.72 50.3368 153.807C51.4337 153.821 52.5739 153.794 53.7475 153.731C58.9351 153.441 71.4342 151.031 75.5751 144.736C78.3523 140.519 77.7087 128.377 74.3481 109.941C74.3014 109.684 74.2514 109.421 74.2081 109.157C74.1214 108.704 74.0347 108.248 73.9481 107.787C73.8121 107.063 73.72 106.576 73.6947 106.441C71.4233 94.3344 69.9543 86.5041 67.3723 82.582C67.0493 82.0914 65.9152 80.4563 65.3803 78.0289C65.1731 77.0887 65.1132 76.29 65.0957 75.7523C47.3333 72.2346 33.0143 74.5882 29.5243 82.0129C28.9436 83.2484 28.5662 84.8293 28.706 86.8771C26.4437 91.9074 24.7978 95.8871 23.9584 98.1189C23.6717 98.8814 23.3984 99.6358 23.1317 100.387C22.6416 101.787 22.1781 103.171 21.748 104.528C21.7248 104.599 21.7013 104.672 21.678 104.745C18.6641 114.37 17.3205 122.895 17.5238 129.459Z" fill="white"/>
<g opacity="0.25">
<path d="M19.1622 135.893C21.6685 142.544 26.8094 147.587 33.5007 150.371C36.107 151.456 43.7233 154.364 53.7497 153.719C58.9386 153.387 71.4351 150.627 75.5788 143.419C76.8669 141.18 77.4193 136.991 77.3033 131.033C77.1955 134.57 76.2822 138.961 75.3902 140.544C70.9815 148.364 58.948 146.797 53.7591 147.068C43.733 147.595 36.1159 145.209 33.5093 144.318C26.8172 142.033 21.6752 137.895 19.1671 132.439C18.1207 130.167 17.565 127.156 17.516 123.553C17.4412 128.615 18.0006 132.813 19.1622 135.893Z" fill="#1E3A59"/>
</g>
<g opacity="0.35">
<path d="M76.2036 116.766C76.8532 122.275 77.2279 127.05 77.3007 131.034C77.4142 127.323 77.0341 122.535 76.2036 116.766Z" fill="#371A45"/>
</g>
<path d="M67.9788 84.4363C68.0218 86.2477 68.3684 88.001 68.7728 89.752C69.9102 94.8389 71.1709 100.365 72.1601 105.445C74.1354 115.887 76.2453 126.461 76.1431 137.096C76.0869 138.838 75.9479 140.588 75.5302 142.201C74.2698 147.723 66.3742 150.392 61.4527 151.608C59.7533 152.115 55.4223 152.569 53.6227 152.794C50.1822 152.932 45.8514 152.696 42.1791 151.975C36.5811 150.892 30.9301 149.087 26.4175 145.497C22.7605 142.589 19.8859 138.551 18.9404 133.94C17.3093 125.399 18.9287 116.525 20.9701 108.152C22.9138 100.597 25.6371 93.2388 28.8496 86.1122C29.0757 85.6107 28.8524 85.021 28.3509 84.7949C27.8494 84.5689 27.2605 84.7902 27.0345 85.2917C22.1558 96.1152 18.2436 107.517 16.7028 119.348C15.4267 130.271 15.8685 139.739 25.1442 147.102C29.9337 150.9 35.8816 152.824 41.8121 153.955C45.7807 154.687 49.8348 154.957 53.8674 154.768C55.7533 154.528 60.1468 154.06 61.9157 153.516C67.624 152.064 75.8458 149.088 77.3295 142.664C77.7943 140.81 77.9186 138.97 77.9699 137.146C78.019 126.315 75.8305 115.673 73.774 105.119C72.7546 100.034 71.4634 94.4743 70.288 89.3991C69.8826 87.6572 69.3973 85.9336 68.6156 84.2831C68.5365 84.1162 68.337 84.045 68.1701 84.1241C68.0463 84.1827 67.975 84.3076 67.9788 84.4363Z" fill="#1E3A59"/>
<path d="M48.9275 147.564C48.9275 147.564 50.7638 169.353 46.5725 184.564C46.5725 184.564 57.816 191.02 50.6695 195.999C42.8646 201.437 22.487 201.273 18.8455 194.256C15.1212 187.081 20.7478 153.622 20.171 129.925L48.9275 147.564Z" fill="white"/>
<g opacity="0.25">
<path d="M20.1929 122.329C19.8862 150.633 15.422 186.004 18.8426 194.112C22.4834 202.744 42.8606 202.947 50.6654 196.257C52.4391 194.735 53.0792 193.103 53.0392 191.509C44.1576 196.593 26.7409 195.768 23.4003 187.847C20.253 180.396 23.777 149.876 24.6037 123.006C28.1711 123.331 32.5119 123.201 37.4962 122.081L37.6296 125.15C37.7863 128.721 40.4601 131.492 43.5674 131.312L69.8391 129.806C72.9497 129.627 75.3701 126.565 75.2135 122.994L75.0668 119.661L74.51 106.965C74.36 103.395 71.6861 100.624 68.5723 100.803L42.3039 102.309C41.9171 102.332 41.5404 102.397 41.1803 102.508C38.6298 103.257 36.7928 105.994 36.9295 109.121L37.0496 111.889C34.419 112.226 24.5405 113.242 17.5359 110.605C17.6692 115.142 18.1826 118.988 19.0696 122.004C19.0762 122.023 19.0829 122.046 19.0895 122.065C19.4427 122.157 19.8095 122.245 20.1929 122.329Z" fill="#1E3A59"/>
</g>
<path d="M48.5994 147.592C48.1018 153.787 48.3694 159.931 48.1315 166.117C47.877 172.236 47.1788 178.384 45.6149 184.299L45.4191 185.038L46.0791 185.428C48.5209 186.933 53.789 190.766 51.4479 193.934C50.9182 194.642 50.1141 195.191 49.3653 195.653C47.905 196.495 46.3102 197.096 44.679 197.554C38.3294 199.386 25.985 199.731 20.8037 195.16C20.2542 194.654 19.8048 194.044 19.5398 193.345C18.8868 191.609 18.7402 189.456 18.6288 187.554C18.4322 182.574 18.7344 177.557 19.0376 172.572C19.6554 163.115 20.494 153.662 20.9379 144.184C21.1588 139.446 21.6554 134.657 20.5054 129.917C20.4612 129.735 20.2776 129.623 20.0953 129.667C19.9617 129.7 19.8662 129.806 19.8416 129.933C19.1243 133.443 19.1152 136.992 19.0407 140.551C18.9366 146.461 18.472 152.351 18.0663 158.255C17.5619 165.348 16.9573 172.451 16.6734 179.569C16.5707 182.242 16.5261 184.951 16.6389 187.648C16.8335 190.293 16.9034 193.129 18.423 195.467C19.6715 197.189 21.6481 198.327 23.5697 199.053C30.2084 201.455 38.4352 201.263 45.2143 199.472C48.0172 198.664 51.7301 197.248 53.3437 194.678C55.9598 190.11 50.5326 185.838 47.0711 183.7L47.5352 184.828C49.1627 178.735 49.807 172.479 50.1931 166.216C50.4948 159.975 50.6535 153.68 49.261 147.536C49.2174 147.356 49.0359 147.245 48.8556 147.289C48.7097 147.324 48.6089 147.45 48.5994 147.592Z" fill="#1E3A59"/>
<path d="M36.2469 172.251C40.5072 172.251 45.0663 171.682 49.3455 170.038C49.8589 169.84 50.1151 169.264 49.9178 168.75C49.7205 168.237 49.1439 167.981 48.6306 168.178C35.7167 173.143 19.4695 167.568 19.3068 167.511C18.788 167.329 18.2195 167.604 18.0378 168.123C17.8562 168.642 18.1298 169.21 18.6491 169.392C19.1232 169.558 26.9775 172.251 36.2469 172.251Z" fill="#1E3A59"/>
<path d="M76.7586 129.832C73.9804 129.832 71.7281 127.733 71.7281 125.144C71.7281 122.555 73.9804 120.456 76.7586 120.456C79.5368 120.456 81.7891 122.555 81.7891 125.144C81.7891 127.733 79.5368 129.832 76.7586 129.832Z" fill="white"/>
<g opacity="0.35">
<path d="M81.7871 125.272C81.7111 127.86 79.3997 129.903 76.6226 129.832C73.8454 129.761 71.6534 127.603 71.7294 125.015C71.7504 124.3 71.9422 123.623 72.2717 123.024C73.0324 124.627 74.7344 125.77 76.7403 125.821C78.7463 125.872 80.5128 124.818 81.3624 123.256C81.6563 123.871 81.8081 124.557 81.7871 125.272Z" fill="#371A45"/>
</g>
<path d="M76.7609 130.828C80.007 130.828 82.6923 128.38 82.7828 125.302C82.8257 123.845 82.2831 122.445 81.2553 121.359C80.1542 120.196 78.5747 119.505 76.9218 119.462C73.6042 119.37 70.8267 121.856 70.7348 124.987C70.692 126.443 71.2345 127.843 72.2623 128.929C73.3635 130.093 74.9429 130.784 76.5958 130.826C76.6509 130.827 76.706 130.828 76.7609 130.828ZM76.7569 121.452C76.7949 121.452 76.8328 121.453 76.8709 121.454C77.9982 121.482 79.069 121.947 79.8086 122.729C80.4698 123.427 80.8188 124.32 80.7918 125.243V125.243C80.7319 127.28 78.8659 128.893 76.6466 128.835C75.5193 128.806 74.4485 128.341 73.7089 127.56C73.0478 126.861 72.6987 125.968 72.7258 125.045C72.7846 123.043 74.5821 121.452 76.7569 121.452Z" fill="#371A45"/>
<g opacity="0.35">
<path d="M77.042 113.774C76.1906 108.51 76.0345 103.63 76.2787 99.2871C76.3904 101.796 76.6422 104.429 77.0868 107.17C77.6047 110.385 77.7609 113.741 77.436 117.036C77.3484 115.94 77.2142 114.849 77.042 113.774Z" fill="#371A45"/>
</g>
<path d="M72.1872 122.847L45.9156 124.072C42.8062 124.218 40.1322 121.966 39.9756 119.064L39.2764 106.036C39.1398 103.496 40.9771 101.271 43.5258 100.66C43.8865 100.571 44.2627 100.519 44.6504 100.5L70.918 99.2743C74.0314 99.1283 76.7054 101.381 76.8581 104.282L77.4145 114.601L77.5612 117.311C77.7178 120.212 75.2966 122.7 72.1872 122.847Z" fill="white"/>
<path d="M16.469 105.786C16.469 105.786 14.0354 107.586 13.9245 110.368C13.7962 113.583 15.9534 114.89 15.9534 114.89C15.9534 114.89 25.395 119.41 40.5573 116.433C40.5573 116.433 45.0264 111.184 40.0611 108.212C40.0611 108.212 24.0594 110.24 16.469 105.786Z" fill="white"/>
<path d="M72.1872 122.847L45.9156 124.072C42.8062 124.218 40.1322 121.966 39.9756 119.064L39.2764 106.036C39.1398 103.496 40.9771 101.271 43.5258 100.66C43.8865 100.571 44.2627 100.519 44.6504 100.5L70.918 99.2743C74.0314 99.1283 76.7054 101.381 76.8581 104.282L77.4145 114.601L77.5612 117.311C77.7178 120.212 75.2966 122.7 72.1872 122.847Z" fill="white"/>
<g opacity="0.25">
<path d="M72.1872 122.846L45.9156 124.072C42.8062 124.218 40.1322 121.965 39.9756 119.064L39.2764 106.036C39.1398 103.496 40.9771 101.271 43.5258 100.66C45.0672 101.513 46.0463 102.06 46.0463 102.06C47.8873 112.458 51.3631 117.524 65.3097 117.086C71.3297 116.895 75.0807 115.863 77.4145 114.601L77.5612 117.311C77.7178 120.212 75.2966 122.7 72.1872 122.846Z" fill="#371A45"/>
</g>
<path d="M45.6273 125.254C45.7409 125.254 45.8542 125.251 45.9688 125.246L72.2384 124.019C74.106 123.932 75.8776 123.108 77.0985 121.758C78.2386 120.497 78.818 118.896 78.7295 117.248L78.029 104.218C77.8383 100.669 74.6205 97.9222 70.8618 98.1005L44.5923 99.3268C42.7245 99.414 40.9531 100.238 39.7321 101.588C38.592 102.849 38.0128 104.451 38.1012 106.098L38.8016 119.129C38.9866 122.569 42.0151 125.253 45.6273 125.254ZM71.2034 100.44C73.5795 100.44 75.567 102.15 75.6848 104.344L76.3852 117.374C76.44 118.392 76.0749 119.39 75.3574 120.183C74.5531 121.073 73.3764 121.616 72.1289 121.675L45.8594 122.901C43.3794 123.019 41.2675 121.268 41.1459 119.003L40.4455 105.972C40.3907 104.954 40.7558 103.956 41.4733 103.163C42.2776 102.274 43.4543 101.73 44.7018 101.672L70.9713 100.445C71.0489 100.442 71.1266 100.44 71.2034 100.44Z" fill="#1E3A59"/>
<path d="M73.2363 122.701C72.8994 122.782 72.551 122.831 72.187 122.846L45.9154 124.072C43.6368 124.177 41.5925 122.999 40.6022 121.214C40.241 120.566 40.019 119.838 39.9794 119.064L39.666 113.276L39.5626 111.366L39.2762 106.035C39.1196 103.134 41.5408 100.646 44.6502 100.5L50.327 100.236C47.7352 100.818 45.8581 103.06 45.9944 105.626L46.3704 112.664L46.6936 118.658C46.8503 121.556 49.5242 123.813 52.6336 123.666L73.2363 122.701Z" fill="white"/>
<g opacity="0.25">
<path d="M73.2363 122.701C72.8994 122.782 72.551 122.831 72.187 122.846L45.9154 124.072C42.806 124.218 40.132 121.965 39.9794 119.064L39.5626 111.366C40.2965 112.695 41.5733 114.31 43.4822 114.396C44.5296 114.446 45.5177 113.699 46.3704 112.664L46.6936 118.658C46.8503 121.556 49.5242 123.812 52.6336 123.666L73.2363 122.701Z" fill="#1E3A59"/>
</g>
<path d="M45.6236 124.934C45.7331 124.934 45.8428 124.931 45.9534 124.926L72.2248 123.699C72.6277 123.682 73.0352 123.626 73.4316 123.533L73.1956 121.849L52.5907 122.813C49.9369 122.939 47.6749 121.054 47.5455 118.613L46.8452 105.582C46.7316 103.47 48.2731 101.571 50.5105 101.068L50.2834 99.3818L44.6092 99.6457C42.8235 99.73 41.1321 100.517 39.9679 101.806C38.8867 103.003 38.3381 104.521 38.4228 106.081L39.1231 119.11C39.2967 122.382 42.1804 124.934 45.6236 124.934ZM48.1884 123.112L45.8733 123.22C43.2182 123.349 40.9574 121.461 40.828 119.02V119.019L40.1277 105.989C40.0678 104.886 40.4609 103.807 41.2348 102.951C42.0963 101.997 43.3552 101.414 44.6889 101.351L46.8173 101.252C45.6891 102.426 45.0501 104 45.1401 105.674L45.8404 118.704C45.9349 120.486 46.8334 122.054 48.1884 123.112Z" fill="#1E3A59"/>
<path d="M56.7083 111.765C56.7312 112.247 56.1892 116.167 56.1892 116.167C56.1892 116.167 54.8667 116.222 53.2428 116.289C51.214 116.373 49.4762 114.483 49.3614 112.068C49.2465 109.653 50.798 107.628 52.8268 107.544C54.196 107.488 55.7732 107.422 55.7732 107.422C55.7732 107.422 56.6709 110.98 56.7083 111.765Z" fill="#22A7F0"/>
<g opacity="0.35">
<path d="M56.7083 111.765C56.7312 112.247 56.1892 116.167 56.1892 116.167C56.1892 116.167 54.8667 116.222 53.2428 116.289C51.214 116.373 49.4762 114.483 49.3614 112.068C49.2465 109.653 50.798 107.628 52.8268 107.544C54.196 107.488 55.7732 107.422 55.7732 107.422C55.7732 107.422 56.6709 110.98 56.7083 111.765Z" fill="#371A45"/>
</g>
<path d="M53.1144 117.074C53.168 117.074 53.2216 117.073 53.2755 117.071L55.3218 116.986C56.2245 116.949 56.963 116.298 57.078 115.438C57.5121 112.188 57.4963 111.854 57.4904 111.728V111.728C57.468 111.26 57.2136 110.023 56.7342 108.049C56.5323 107.218 55.7393 106.64 54.8519 106.678L52.7949 106.762C51.7222 106.807 50.7073 107.295 49.9372 108.136C49.0033 109.157 48.5086 110.604 48.58 112.106C48.7121 114.882 50.7301 117.074 53.1144 117.074ZM55.9268 111.799C55.9276 111.871 55.9102 112.36 55.5269 115.231C55.5132 115.333 55.3947 115.417 55.2571 115.423L53.2108 115.507C51.611 115.577 50.2377 114.014 50.1433 112.031C50.0916 110.943 50.4372 109.908 51.092 109.193C51.5856 108.653 52.1968 108.353 52.8595 108.326L54.9165 108.241C55.0567 108.235 55.1876 108.313 55.2133 108.419C55.7179 110.495 55.9126 111.525 55.9268 111.799Z" fill="#371A45"/>
<path d="M52.3244 112.023C52.1735 109.61 53.6939 107.552 55.7202 107.425C57.7466 107.298 59.5115 109.152 59.6624 111.564C59.8133 113.977 58.2929 116.036 56.2665 116.163C54.2402 116.289 52.4752 114.436 52.3244 112.023Z" fill="#22A7F0"/>
<g opacity="0.7">
<path d="M59.6133 112.583C59.1617 110.631 57.6221 109.222 55.8602 109.295C54.1017 109.364 52.7013 110.897 52.4364 112.877C52.3669 112.577 52.3219 112.268 52.3084 111.945C52.193 109.531 53.7444 107.507 55.772 107.422C57.8031 107.339 59.5378 109.228 59.6532 111.642C59.6702 111.964 59.6558 112.277 59.6133 112.583Z" fill="white"/>
</g>
<g opacity="0.35">
<path d="M56.1905 116.165C54.1595 116.251 52.4213 114.363 52.3093 111.945C52.2787 111.336 52.3565 110.75 52.5214 110.216C53.0538 112.005 54.5271 113.267 56.1946 113.201C57.7084 113.138 58.958 111.989 59.4461 110.407C59.5609 110.798 59.6337 111.212 59.6541 111.642C59.7695 114.059 58.2181 116.083 56.1905 116.165Z" fill="#371A45"/>
</g>
<path d="M56.0606 116.953C56.1142 116.953 56.1677 116.952 56.2216 116.949C57.2943 116.905 58.3092 116.417 59.0793 115.575C60.0132 114.555 60.508 113.108 60.4366 111.606C60.3015 108.767 58.1869 106.541 55.7412 106.641C54.6684 106.685 53.6536 107.173 52.8835 108.015C51.9496 109.036 51.4548 110.482 51.5262 111.984C51.6583 114.761 53.6763 116.953 56.0606 116.953ZM55.9034 108.203C57.4587 108.203 58.7807 109.738 58.8732 111.681C58.9249 112.769 58.5793 113.804 57.9245 114.519C57.4309 115.059 56.8197 115.358 56.157 115.386C54.552 115.453 53.1839 113.892 53.0895 111.91C53.0378 110.821 53.3834 109.787 54.0382 109.071C54.5318 108.532 55.143 108.232 55.8057 108.205C55.8382 108.203 55.871 108.203 55.9034 108.203Z" fill="#371A45"/>
<path d="M64.0133 124.099C64.0225 124.099 64.0317 124.099 64.0411 124.099C64.5741 124.083 64.9941 123.639 64.9789 123.106L64.753 115.137C64.7435 114.8 64.9228 114.479 65.2327 114.276L67.6721 112.683C68.5704 112.096 69.0756 111.126 69.0237 110.089L68.4888 99.392C68.4623 98.8595 68.0084 98.4476 67.4763 98.476C66.9437 98.5025 66.5336 98.9559 66.5602 99.4885L67.095 110.186C67.1123 110.53 66.9333 110.859 66.616 111.066L64.1768 112.659C63.3002 113.232 62.7939 114.179 62.8226 115.192L63.0485 123.161C63.0635 123.685 63.4926 124.099 64.0133 124.099Z" fill="#371A45"/>
<path d="M16.3967 105.786C16.3967 105.786 13.9631 107.586 13.8522 110.368C13.724 113.583 15.8811 114.89 15.8811 114.89C15.8811 114.89 25.3228 119.41 40.485 116.433C40.485 116.433 44.9541 111.184 39.9888 108.212C39.9888 108.212 23.9872 110.24 16.3967 105.786Z" fill="white"/>
<g opacity="0.25">
<path d="M13.8501 110.369C13.7219 113.582 15.8778 114.888 15.8778 114.888C15.8778 114.888 25.3178 119.409 40.4834 116.432C40.4834 116.432 41.9526 114.701 42.2676 112.67C42.196 112.77 42.1494 112.822 42.1494 112.822C31.0664 115 23.0407 113.169 19.525 112.027C17.0829 111.233 15.4527 109.164 15.513 106.856C15.5138 106.824 15.5149 106.792 15.5162 106.76C15.5176 106.706 15.519 106.652 15.5298 106.601C14.8191 107.389 13.9151 108.703 13.8501 110.369Z" fill="#1E3A59"/>
</g>
<path d="M30.2731 118.452C33.3393 118.452 36.8247 118.167 40.6775 117.41L41.0187 117.343L41.2441 117.079C41.3468 116.958 43.7552 114.088 43.2615 111.088C43.0096 109.557 42.0809 108.302 40.5009 107.357L40.2058 107.18L39.8643 107.223C39.7078 107.243 24.1094 109.156 16.9014 104.927L16.334 104.594L15.8051 104.985C15.6901 105.07 12.9861 107.106 12.8576 110.327C12.7077 114.087 15.2571 115.676 15.3657 115.742L15.4517 115.788C15.7492 115.931 21.155 118.452 30.2731 118.452ZM39.9285 115.526C26.0973 118.145 17.1386 114.36 16.3642 114.015C16.1255 113.847 14.7534 112.777 14.8479 110.407C14.9107 108.834 15.9205 107.602 16.5317 106.996C23.9359 110.817 37.3325 109.517 39.7554 109.242C40.6482 109.844 41.1528 110.554 41.2948 111.405C41.5731 113.073 40.4123 114.866 39.9285 115.526Z" fill="#1E3A59"/>
<path d="M29.6535 186.331C34.1616 184.153 39.4545 183.677 44.2855 184.91C44.9116 185.048 45.7396 185.357 46.3605 185.541C47.6232 185.909 48.2136 184.069 46.9663 183.637C41.1513 182.229 34.721 183.118 29.6535 186.331Z" fill="#1E3A59"/>
<path d="M51.6565 92.8239V132.385C51.6565 132.581 51.6793 132.769 51.7191 132.951C51.9781 134.092 52.994 134.943 54.2148 134.943H81.5394C82.7602 134.943 83.7761 134.093 84.0351 132.951C84.0749 132.769 84.0977 132.581 84.0977 132.385V92.8239C84.0977 91.4095 82.9537 90.2656 81.5394 90.2656H54.2148C52.8005 90.2656 51.6565 91.4096 51.6565 92.8239Z" fill="#FFA726"/>
<path d="M56.389 131.386H79.363C80.5508 131.386 81.5137 130.423 81.5137 129.236V95.9734C81.5137 94.7856 80.5508 93.8228 79.363 93.8228H56.389C55.2012 93.8228 54.2383 94.7856 54.2383 95.9734V129.236C54.2384 130.423 55.2012 131.386 56.389 131.386Z" fill="white"/>
<g opacity="0.25">
<path d="M51.6565 118.154V132.385C51.6565 132.387 51.6565 132.389 51.6565 132.391C51.6573 132.704 51.9259 132.951 52.239 132.951H83.5152C83.8283 132.951 84.0969 132.704 84.0977 132.391C84.0977 132.389 84.0977 132.387 84.0977 132.385V118.154H51.6565Z" fill="#1E3A59"/>
</g>
<path d="M54.2115 135.646H81.5367C83.3344 135.646 84.7969 134.183 84.7969 132.385V92.8236C84.7969 91.0259 83.3344 89.5635 81.5367 89.5635H54.2115C52.4138 89.5635 50.9512 91.0259 50.9512 92.8236V132.385C50.9512 134.183 52.4138 135.646 54.2115 135.646ZM81.5367 90.9679C82.5599 90.9679 83.3925 91.8005 83.3925 92.8236V132.385C83.3925 133.409 82.5599 134.241 81.5367 134.241H54.2115C53.1882 134.241 52.3556 133.409 52.3556 132.385V92.8236C52.3556 91.8005 53.1882 90.9679 54.2115 90.9679H81.5367Z" fill="#1E3A59"/>
<path d="M86.2298 106.486C78.7734 104.274 70.4141 103.495 61.1521 104.148C60.6537 104.183 60.1513 104.085 59.7154 103.841C57.3394 102.51 53.8454 101.474 51.73 102.489C50.5276 103.066 50.1819 104.624 50.957 105.709L51.5121 106.486C45.9136 106.286 45.7941 114.515 48.3897 120.316C49.8055 123.48 52.8731 125.576 56.331 125.817C65.4176 126.452 74.0293 126.441 81.9486 125.491C83.8301 125.265 85.6595 124.668 87.2588 123.651C91.557 120.92 93.7425 115.82 91.9213 107.624L86.2298 106.486Z" fill="white"/>
<g opacity="0.25">
<path d="M51.7322 102.488C51.7464 102.481 51.7622 102.477 51.7765 102.471L51.7988 102.5C51.767 102.499 51.7377 102.502 51.7062 102.501C51.7152 102.497 51.7231 102.492 51.7322 102.488Z" fill="#371A45"/>
<path d="M47.089 109.713C47.2483 111.674 47.8095 113.76 48.675 115.591C50.0908 118.586 53.1584 120.569 56.6162 120.798C65.703 121.399 74.3147 121.389 82.2338 120.489C84.1154 120.275 85.9447 119.71 87.5441 118.748C90.0724 117.227 91.8683 114.929 92.5491 111.717C92.7655 116.973 90.6846 120.458 87.2595 122.519C85.6602 123.481 83.8308 124.046 81.9492 124.26C74.0301 125.16 65.4183 125.169 56.3317 124.569C52.8738 124.34 49.8063 122.356 48.3905 119.362C46.9248 116.262 46.3256 112.429 47.089 109.713Z" fill="#1E3A59"/>
</g>
<path d="M86.3227 106.173C78.3963 102.908 69.6102 102.652 61.1618 103.139C60.5871 103.226 60.1171 102.903 59.6334 102.648C58.0211 101.845 56.3426 101.248 54.5187 101.078C52.3448 100.85 49.7105 101.639 49.5445 104.182C49.4684 105.041 49.8024 105.896 50.3353 106.558L50.7005 107.063C50.7001 107.071 51.5479 105.49 51.5477 105.491C48.3154 105.333 46.3545 107.817 45.9263 110.811C45.5271 113.33 45.8826 115.896 46.5866 118.304C47.5218 121.734 49.5866 124.661 52.958 126.029C54.5032 126.723 56.2653 126.834 57.9334 126.92C64.301 127.306 70.6942 127.399 77.067 126.95C82.4546 126.546 86.9558 126.394 90.7319 121.889C92.9234 119.223 93.6794 115.646 93.5408 112.297C93.4809 110.636 93.2354 109.006 92.8937 107.408C92.7786 106.87 92.2493 106.528 91.7114 106.643C91.1677 106.758 90.8243 107.299 90.9491 107.84C91.5746 110.773 91.873 113.886 91.1027 116.784C90.035 121.177 86.0423 124.14 81.6134 124.526C76.9313 125.075 72.2186 125.278 67.5005 125.256C64.3526 125.242 61.2028 125.122 58.0556 124.932C56.6098 124.841 55.0589 124.797 53.722 124.19C50.901 123.048 49.2724 120.588 48.4954 117.734C47.8712 115.6 47.5481 113.325 47.8915 111.137C48.1769 109.168 49.2793 107.335 51.4914 107.482C52.2963 107.53 52.8054 106.534 52.3227 105.907C52.1743 105.685 51.8097 105.229 51.675 104.996C51.3932 104.501 51.5099 103.786 51.9826 103.454C53.9084 102.399 56.8829 103.46 58.7717 104.352C59.5359 104.796 60.395 105.13 61.2926 105.017C67.9554 104.482 74.6808 104.733 81.2565 105.948C82.8861 106.241 84.4913 106.57 86.1371 106.799C86.3195 106.83 86.4946 106.702 86.5178 106.517C86.5372 106.369 86.4537 106.23 86.3227 106.173Z" fill="#1E3A59"/>
<path d="M76.1843 126.725C76.2947 126.725 76.4068 126.699 76.5115 126.645C79.5815 125.051 81.4874 121.476 81.7407 116.837C82.0416 111.325 79.9669 106.103 76.5783 103.845C76.2514 103.627 75.8096 103.715 75.5917 104.042C75.3737 104.369 75.4621 104.811 75.789 105.028C78.7268 106.987 80.5899 111.811 80.3198 116.759C80.0947 120.883 78.4676 124.026 75.8558 125.382C75.5071 125.563 75.3711 125.993 75.5522 126.341C75.6789 126.585 75.9272 126.725 76.1843 126.725Z" fill="#1E3A59"/>
<path d="M64.7418 97.2378H71.8621C73.9003 97.2378 75.5586 95.5795 75.5586 93.5413V90.1234C75.5586 89.8091 75.3037 89.5542 74.9894 89.5542H61.6144C61.3002 89.5542 61.0452 89.8091 61.0452 90.1234V93.5413C61.0453 95.5795 62.7036 97.2378 64.7418 97.2378ZM74.4202 90.6926V93.5413C74.4202 94.9518 73.2726 96.0994 71.8621 96.0994H64.7418C63.3313 96.0994 62.1837 94.9518 62.1837 93.5413V90.6926H74.4202Z" fill="#1E3A59"/>
<path d="M21.3508 146.326C28.1634 141.383 32.5601 134.855 33.5873 126.122L33.0239 125.746L31.0262 124.414C27.6739 113.117 28.0694 101.21 31.3108 88.8428L35.457 77.7672L33.8719 74.3296C25.3376 79.2897 17.8762 86.4495 13.5593 95.4846C7.21617 108.743 7.63732 126.036 21.3508 146.326Z" fill="white"/>
<path d="M31.0033 88.762C27.2531 98.0485 26.7658 110.512 28.9835 120.245C29.2893 121.546 29.7926 123.402 30.2069 124.656C30.2604 124.851 30.3812 125.01 30.5375 125.115C30.5518 125.126 33.098 126.82 33.1133 126.832L32.739 126.022C32.5042 127.983 32.0852 129.918 31.4571 131.782C29.6013 137.439 25.6558 142.192 20.8488 145.635L22.0575 145.848C20.2 143.053 18.3068 139.929 16.7858 136.937C4.21724 112.831 10.7561 88.8657 34.3005 75.0675C34.3003 75.0675 33.0963 74.687 33.0963 74.687L34.6818 78.1242C35.1816 79.1435 36.6791 78.4317 36.2323 77.409L34.6467 73.9718C34.4504 73.5435 33.9434 73.3556 33.5155 73.5532C13.6103 85.0064 3.83137 105.639 11.2087 127.926C12.8349 132.951 15.1156 137.813 17.8265 142.336C18.5768 143.675 19.8125 145.503 20.6429 146.804C20.9043 147.212 21.4664 147.31 21.8517 147.017C25.2178 144.576 28.23 141.57 30.4157 138.005C32.6222 134.446 33.95 130.367 34.4347 126.221C34.474 125.892 34.318 125.583 34.0603 125.411L31.4993 123.704L31.8441 124.171C28.2333 112.788 28.7487 100.447 31.6172 88.9229C31.6588 88.7535 31.5551 88.5823 31.3856 88.5407C31.2157 88.5004 31.0546 88.6013 31.0033 88.762Z" fill="#1E3A59"/>
<path d="M33.3795 131.855C34.3159 128.715 34.8386 125.436 34.8633 122.145C34.8653 121.871 34.6446 121.647 34.3703 121.645C34.0924 121.642 33.8757 121.868 33.8673 122.137C33.5107 125.328 32.6752 128.407 31.4703 131.287C30.9745 132.659 33.0259 133.278 33.3795 131.855Z" fill="#1E3A59"/>
<path d="M10.6313 123.189C10.9264 123.189 11.2021 123.004 11.3037 122.709C13.3763 116.703 21.5895 113.391 28.879 115.621C29.2545 115.736 29.6527 115.525 29.7675 115.149C29.8824 114.773 29.6711 114.376 29.2954 114.26C21.3054 111.816 12.2699 115.547 9.95881 122.245C9.83055 122.617 10.0278 123.022 10.3992 123.15C10.4761 123.176 10.5544 123.189 10.6313 123.189Z" fill="#1E3A59"/>
<g opacity="0.25">
<path d="M21.3494 146.326C28.162 141.383 32.5587 134.855 33.5859 126.121L33.0225 125.746C32.57 127.812 31.944 129.829 30.8114 131.602C29.1466 134.209 26.0932 136.181 23.0511 135.626C19.7672 135.028 17.6386 131.847 16.3211 128.782C13.7086 122.709 12.7468 116.03 12.6871 109.423C12.6443 104.764 13.0371 100.117 13.5579 95.4844C7.21477 108.742 7.63591 126.036 21.3494 146.326Z" fill="#1E3A59"/>
</g>
<path d="M86.2783 57.9726C83.4746 63.923 79.1493 69.2021 73.5105 73.1948C72.3603 74.0084 71.16 74.7685 69.906 75.4689C69.297 75.8115 68.6704 76.1385 68.0331 76.4563C66.1077 77.4036 64.1422 78.1813 62.1504 78.7956C60.435 79.3291 58.6989 79.7383 56.9594 80.0323C54.8588 80.3883 52.748 80.57 50.6478 80.5894C49.8818 80.5939 49.1179 80.5785 48.3564 80.5432C34.417 79.8665 21.2205 71.9896 14.509 58.798C4.61805 39.3674 12.549 15.7705 32.2163 6.091C36.0055 4.22944 39.9563 3.01258 43.9333 2.41476C44.3974 2.34053 44.8656 2.27931 45.3345 2.22791C46.5874 2.08201 47.8405 1.99551 49.0904 1.96853C51.9811 1.90699 54.8568 2.15978 57.6628 2.70656C60.4686 3.25016 63.2114 4.09075 65.8332 5.20836C66.6671 5.56321 67.4892 5.94511 68.2996 6.3574C69.5137 6.97579 70.6976 7.65186 71.8487 8.39581C77.589 12.0829 82.447 17.2755 85.7405 23.7493C91.4307 34.9263 91.222 47.48 86.2783 57.9726Z" fill="white"/>
<path d="M50.3872 80.6985C50.4744 80.6985 50.5614 80.6982 50.6486 80.6977C52.7772 80.6781 54.9065 80.4901 56.9777 80.1391C58.747 79.8402 60.4981 79.4229 62.1826 78.8991C64.1933 78.279 66.1779 77.49 68.0809 76.5535C68.7789 76.2057 69.393 75.8819 69.9594 75.5633C71.1912 74.8752 72.4071 74.108 73.5731 73.2832C79.0816 69.383 83.5089 64.1047 86.3765 58.0189C91.5485 47.0413 91.352 34.5327 85.8372 23.7003C82.6495 17.4344 77.8327 12.1107 71.9073 8.3047C70.7856 7.57986 69.5884 6.89225 68.3488 6.26099C67.5543 5.85669 66.7222 5.46905 65.8756 5.10877C63.2467 3.9881 60.4905 3.1441 57.6834 2.60019C54.8498 2.0481 51.9575 1.80038 49.0881 1.86033C47.8392 1.88725 46.5721 1.97472 45.322 2.12044C44.822 2.1752 44.3619 2.23648 43.9163 2.30778C39.8579 2.91787 35.9052 4.15817 32.1687 5.99385C22.592 10.7071 15.4791 18.8274 12.1403 28.8593C8.82791 38.8116 9.63486 49.4615 14.4124 58.8471C20.8982 71.5952 33.9028 79.95 48.3513 80.6513C49.0255 80.6827 49.7091 80.6985 50.3872 80.6985ZM86.1804 57.9266C83.3288 63.9787 78.9259 69.2277 73.4479 73.1065C72.2881 73.9268 71.0788 74.6899 69.8534 75.3744C69.29 75.6913 68.6789 76.0135 67.9849 76.3593C66.0923 77.2906 64.1186 78.0755 62.1185 78.6922C60.4431 79.2133 58.7013 79.6282 56.9415 79.9255C54.8816 80.2747 52.7638 80.4616 50.6469 80.4811C49.8879 80.4857 49.1187 80.4701 48.3616 80.4349C33.991 79.7373 21.0563 71.4277 14.6056 58.7489C9.85438 49.4152 9.05188 38.8245 12.3459 28.9278C15.6663 18.9514 22.7401 10.8755 32.2642 6.18822C35.9806 4.36237 39.9122 3.1289 43.9495 2.52193C44.3926 2.45093 44.8493 2.39026 45.3463 2.3358C46.5907 2.1907 47.8507 2.10383 49.0928 2.07704C51.9462 2.0163 54.8233 2.26377 57.6423 2.81305C60.4343 3.35397 63.1759 4.1934 65.7908 5.3082C66.6328 5.66653 67.4604 6.05209 68.2506 6.45413C69.4834 7.08192 70.6743 7.76586 71.7901 8.4868C77.6832 12.2723 82.4737 17.5668 85.644 23.7984C91.128 34.5702 91.3228 47.0105 86.1804 57.9266Z" fill="#371A45"/>
<g opacity="0.25">
<path d="M14.5086 58.7969C21.2189 71.9901 34.4174 79.8675 48.3566 80.5421C49.1182 80.5784 49.8816 80.594 50.6464 80.5888C52.7473 80.5703 54.8576 80.3871 56.958 80.0326C58.6976 79.7373 60.4346 79.3292 62.1487 78.7962C64.1418 78.1824 66.1063 77.4046 68.0334 76.4571C68.6689 76.1373 69.2956 75.8118 69.906 75.4703C71.1601 74.7691 72.3589 74.0068 73.5098 73.1941C79.1485 69.2013 83.475 63.924 86.2782 57.9716C87.819 54.7031 88.9005 51.2318 89.4863 47.6658C86.6794 53.2838 82.4946 58.2617 77.1153 62.0712C75.966 62.8871 74.7655 63.6461 73.5115 64.3474C72.9035 64.6898 72.2768 65.0152 71.6388 65.3342C69.7118 66.2817 67.7472 67.0595 65.7566 67.6741C64.04 68.2063 62.3055 68.6152 60.5659 68.9105C58.4655 69.2649 56.3527 69.4474 54.2543 69.4668C53.487 69.4711 52.7237 69.4555 51.962 69.4191C38.0227 68.7446 24.8267 60.8679 18.1139 47.6739C14.1959 39.9782 13.0771 31.6292 14.3728 23.752C9.04165 34.4074 8.66965 47.3286 14.5086 58.7969Z" fill="#1E3A59"/>
</g>
<path d="M50.3876 81.4244C50.4763 81.4244 50.5647 81.4241 50.6531 81.4236C52.8222 81.4035 54.9902 81.2122 57.099 80.8548C58.8999 80.5504 60.6828 80.1258 62.3983 79.5923C64.4436 78.9615 66.4641 78.1581 68.4015 77.2048C69.1136 76.8498 69.7384 76.5204 70.3152 76.1961C71.5675 75.4965 72.8054 74.7154 73.9924 73.8757C79.603 69.9032 84.1125 64.527 87.0332 58.3282C92.3017 47.1461 92.1015 34.4046 86.4841 23.3707C83.2382 16.9903 78.3333 11.5694 72.2998 7.69388C71.1589 6.95651 69.9399 6.25639 68.6783 5.61402C67.8688 5.20215 67.0217 4.80737 66.1601 4.44067C63.4844 3.30005 60.6788 2.44103 57.8216 1.88747C54.9379 1.32556 51.9913 1.07112 49.0727 1.13449C47.8009 1.16183 46.5109 1.25084 45.238 1.39924C44.731 1.45473 44.2593 1.51767 43.8016 1.59092C39.6762 2.21101 35.6521 3.4736 31.8486 5.34218C22.0958 10.1421 14.8522 18.4126 11.4515 28.63C8.07723 38.7679 8.89908 49.6163 13.7655 59.1764C20.3692 72.156 33.6082 80.6625 48.316 81.3764C49.003 81.4083 49.6983 81.4244 50.3876 81.4244ZM85.5238 57.6169C82.7253 63.556 78.4046 68.7073 73.0286 72.5137C71.8899 73.3192 70.7024 74.0685 69.4995 74.7404C68.9449 75.0523 68.3442 75.369 67.6611 75.7095C65.8063 76.6221 63.8682 77.3928 61.9047 77.9982C60.2585 78.5103 58.5485 78.9176 56.8206 79.2095C54.798 79.5523 52.7188 79.7358 50.6402 79.755C49.8959 79.759 49.1398 79.7442 48.3952 79.7094C34.2856 79.0246 21.5855 70.8667 15.2526 58.4195C10.5903 49.2601 9.80261 38.8679 13.0347 29.1569C16.2934 19.3662 23.2364 11.4404 32.5849 6.83931C36.2337 5.04667 40.0939 3.83554 44.0575 3.23956C44.4955 3.1696 44.9404 3.11026 45.4254 3.05709C46.652 2.91425 47.8891 2.82885 49.1084 2.80247C51.9118 2.7443 54.7357 2.9861 57.5035 3.52525C60.2461 4.05664 62.9383 4.88099 65.5061 5.97577C66.3334 6.32787 67.1459 6.70623 67.9213 7.10088C69.132 7.71738 70.3011 8.38881 71.3961 9.09638C77.1825 12.8132 81.8851 18.0104 84.9971 24.1274C90.3788 34.6986 90.5708 46.905 85.5238 57.6169Z" fill="#371A45"/>
<path d="M50.3878 81.5862C50.4768 81.5862 50.5656 81.5859 50.6543 81.5853C52.8327 81.5652 55.0091 81.3731 57.1264 81.0142C58.9343 80.7088 60.7244 80.2823 62.4467 79.7466C64.4997 79.1135 66.5283 78.3069 68.4733 77.3499C69.1886 76.9934 69.8155 76.6628 70.3948 76.337C71.6518 75.6348 72.8945 74.8508 74.0861 74.0078C79.7196 70.0191 84.2471 64.6211 87.1798 58.3972C92.4697 47.1695 92.2688 34.3762 86.6286 23.2973C83.3696 16.8915 78.445 11.4486 72.3874 7.55771C71.2424 6.81784 70.0185 6.11491 68.752 5.46997C67.9392 5.05627 67.0886 4.66003 66.2236 4.29187C63.5377 3.14679 60.7211 2.28435 57.8527 1.72872C54.958 1.16472 52.0031 0.911632 49.0695 0.972799C47.7927 1.00033 46.4976 1.08976 45.2196 1.23871C44.7111 1.29438 44.2367 1.35763 43.7765 1.43125C39.6361 2.05372 35.5961 3.32107 31.7777 5.1971C21.9857 10.0163 14.7128 18.32 11.2984 28.5789C7.91045 38.7583 8.73552 49.6507 13.6217 59.2497C20.2516 72.2807 33.5428 80.8211 48.3086 81.5378C48.9982 81.57 49.6958 81.5862 50.3878 81.5862ZM85.3777 57.5482C82.5912 63.462 78.2886 68.5915 72.9353 72.3819C71.8014 73.1841 70.6189 73.9302 69.4209 74.5995C68.8682 74.9102 68.2699 75.2255 67.5892 75.565C65.7427 76.4735 63.8127 77.241 61.8573 77.8439C60.2175 78.3539 58.5147 78.7595 56.7939 79.0502C54.7797 79.3916 52.709 79.5744 50.639 79.5935C49.897 79.5979 49.1446 79.5827 48.4031 79.5482C34.3516 78.8661 21.7036 70.742 15.3971 58.3464C10.7543 49.2259 9.97004 38.8778 13.1884 29.2082C16.4333 19.4589 23.3472 11.5664 32.6566 6.98462C36.2904 5.19942 40.1347 3.99318 44.0818 3.39976C44.5185 3.32999 44.9609 3.27102 45.4433 3.21809C46.6659 3.07567 47.898 2.9907 49.1121 2.96451C51.9022 2.90365 54.716 3.14709 57.4727 3.68429C60.2044 4.21342 62.8855 5.03454 65.4429 6.12468C66.267 6.47544 67.0761 6.85233 67.8484 7.24516C69.054 7.85915 70.2183 8.52789 71.3086 9.23247C77.0714 12.934 81.7543 18.1096 84.8532 24.201C90.2119 34.7266 90.4023 46.8822 85.3777 57.5482Z" fill="#1E3A59"/>
<path d="M80.8273 66.4713C58.5315 83.8795 26.0998 74.2567 22.6764 46.6266C20.3473 27.8287 37.2082 11.1355 55.6547 10.1533C69.0803 9.43842 82.5266 14.5324 89.4258 34.7777C89.4258 34.7777 91.078 44.1998 88.8701 50.6638C86.6621 57.1277 83.4069 63.0427 83.4069 63.0427L80.8273 66.4713Z" fill="#0056A8"/>
<path opacity="0.35" d="M22.6792 46.6265C26.1019 74.256 58.5344 83.8784 80.8293 66.4721L81.3516 65.7765C55.9883 71.771 29.4745 58.1019 25.4864 30.2275C23.0679 35.2251 21.9615 40.8254 22.6792 46.6265Z" fill="#111A28"/>
<path d="M56.0128 80.2323C58.0952 80.2323 60.1939 80.0837 62.2928 79.7814L62.4443 79.7474C64.4997 79.1135 66.5282 78.3069 68.4733 77.3499C69.1886 76.9934 69.8155 76.6628 70.3948 76.337C71.6518 75.6348 72.8945 74.8508 74.0861 74.0078C79.7196 70.0191 84.2471 64.6211 87.1798 58.3972C92.4697 47.1695 92.2688 34.3762 86.6286 23.2973C83.3696 16.8915 78.4451 11.4488 72.3875 7.5577L72.3014 7.50252L72.2059 7.46589C67.2974 5.5829 61.6864 4.79469 55.5279 5.12262C44.4453 5.7128 33.4148 11.3361 26.0211 20.1652C19.3639 28.1152 16.3465 37.7293 17.5251 47.237C18.8085 57.5872 23.6504 66.2376 31.5269 72.2529C38.3276 77.4465 47.0041 80.2323 56.0128 80.2323ZM61.9317 77.8208C51.3046 79.3307 40.6666 76.7265 32.736 70.6698C25.2944 64.9866 20.718 56.799 19.5019 46.992C18.3923 38.039 21.2499 28.9658 27.5484 21.4443C34.5937 13.031 45.093 7.67307 55.634 7.11195C61.4704 6.80093 66.7735 7.53352 71.3972 9.28942C77.1181 12.9857 81.7699 18.1401 84.8533 24.201C90.2122 34.7272 90.4034 46.8818 85.3779 57.5482C82.5913 63.462 78.2887 68.5915 72.9355 72.3819C71.8015 73.1841 70.619 73.9302 69.421 74.5995C68.8683 74.9102 68.27 75.2257 67.5893 75.565C65.7663 76.4617 63.8617 77.2214 61.9317 77.8208Z" fill="#1E3A59"/>
<path d="M55.9768 76.216C64.8747 76.216 73.8975 73.1464 81.4411 67.2564L81.545 67.1753L84.2804 63.5229C84.4151 63.2783 87.6029 57.4574 89.8134 50.9856C92.0781 44.3559 90.477 35.0006 90.4078 34.6057L90.3695 34.4564C84.3398 16.763 72.6444 8.25248 55.6026 9.15869C45.7129 9.68533 35.8702 14.7026 29.2732 22.5801C23.3305 29.676 20.6371 38.2594 21.689 46.7491C23.2135 59.0541 30.5349 68.7788 41.7757 73.4298C46.2974 75.3007 51.1188 76.216 55.9768 76.216ZM80.112 65.7667C69.0278 74.365 54.6419 76.5975 42.5373 71.5891C31.978 67.2203 25.0998 58.077 23.6659 46.5041C22.6826 38.5689 25.2164 30.5267 30.8004 23.8591C37.049 16.3974 46.3605 11.6455 55.7085 11.148C71.7261 10.2936 82.7432 18.3277 88.4577 35.0225C88.6018 35.9032 89.9266 44.4916 87.9283 50.3417C85.8909 56.3067 82.9137 61.8648 82.568 62.5023L80.112 65.7667Z" fill="#1E3A59"/>
<path d="M4.92431 45.918C4.93212 53.6712 9.58093 60.1836 15.3096 60.4626C21.0382 60.7417 25.6756 54.6821 25.6677 46.9289C25.6686 46.8804 25.6672 46.8288 25.6654 46.7799C25.6004 39.0924 20.9709 32.6609 15.2825 32.3843C10.857 32.1684 7.08305 35.7359 5.59789 40.9434C5.16142 42.4769 4.92266 44.1548 4.92431 45.918Z" fill="white"/>
<g opacity="0.25">
<path d="M4.92431 45.9179C4.93212 53.6711 9.58093 60.1835 15.3096 60.4626C21.0382 60.7416 25.6756 54.682 25.6677 46.9289C25.6686 46.8803 25.6672 46.8288 25.6654 46.7799C25.0364 47.5448 24.057 48.2806 22.7286 47.9518C20.4022 47.3749 16.223 42.186 16.223 42.186C16.223 42.186 11.6188 41.6171 5.59781 40.9434C5.1614 42.4768 4.92266 44.1547 4.92431 45.9179Z" fill="#371A45"/>
</g>
<path d="M15.6969 61.4677C18.0528 61.4677 20.2778 60.5296 22.1566 58.7383C25.026 56.0023 26.6689 51.6976 26.6641 46.9274C26.6559 38.6639 21.5714 31.6935 15.3303 31.3897C12.811 31.2659 10.4291 32.2072 8.43521 34.1085C5.5658 36.8445 3.92283 41.1493 3.92772 45.9194C3.9359 54.183 9.02032 61.1532 15.2617 61.4569C15.407 61.4641 15.5522 61.4677 15.6969 61.4677ZM14.9021 33.3712C15.0122 33.3712 15.1227 33.3739 15.2333 33.3793C20.4307 33.6326 24.6648 39.7111 24.6721 46.9295C24.6762 51.0944 23.222 54.9701 20.7818 57.2965C19.1923 58.8121 17.3144 59.5618 15.3585 59.4675C10.161 59.2144 5.92688 53.136 5.91962 45.9173C5.91547 41.7524 7.36973 37.8768 9.80969 35.5503C11.3095 34.1203 13.0638 33.3712 14.9021 33.3712Z" fill="#1E3A59"/>
<path d="M3.56684 48.3996C2.97017 42.2647 6.246 36.9257 10.8836 36.4747C15.5212 36.0237 19.7644 40.6313 20.361 46.7663C20.9577 52.9012 17.6819 58.2402 13.0443 58.6912C8.40671 59.1422 4.1635 54.5345 3.56684 48.3996Z" fill="white"/>
<path d="M12.4229 58.8442C13.4604 58.8442 14.485 58.5916 15.4626 58.0879C19.7722 55.8677 21.7151 49.3543 19.7939 43.5682C18.7229 40.3428 16.6448 37.8959 14.0927 36.855C12.1951 36.0811 10.2443 36.1603 8.45178 37.0839C4.1422 39.3041 2.19927 45.8176 4.12047 51.6036C5.19144 54.8291 7.26947 57.2759 9.82169 58.3168C10.6843 58.6686 11.5582 58.8442 12.4229 58.8442ZM11.4918 36.5534C12.3282 36.5534 13.1732 36.723 14.0077 37.0635C16.4988 38.0794 18.53 40.4762 19.5801 43.6391C21.468 49.3243 19.5746 55.7164 15.3596 57.888C13.6267 58.7805 11.7412 58.8567 9.90654 58.1083C7.41536 57.0924 5.38416 54.6956 4.33407 51.5328C2.44614 45.8475 4.33956 39.4554 8.55464 37.2839C9.49931 36.7973 10.4895 36.5534 11.4918 36.5534Z" fill="#371A45"/>
<g opacity="0.25">
<path d="M19.9397 52.333C20.4603 50.2846 20.4123 48.0861 19.9068 46.0203C18.3205 50.591 14.102 52.4461 10.1239 50.1552C7.55268 48.6761 5.6747 45.8035 4.89424 42.6064C4.7923 42.8941 4.70372 43.1966 4.62412 43.507C3.3011 48.7238 5.65681 54.9288 9.88679 57.3657C14.1168 59.8026 18.6167 57.5468 19.9397 52.333Z" fill="#1E3A59"/>
</g>
<path d="M12.2843 59.7461C14.0186 59.7461 15.6657 59.0488 17.0691 57.716C19.389 55.5124 20.7621 51.7806 20.742 47.7329C20.708 40.905 16.7483 35.128 11.915 34.8548C10.0449 34.7512 8.26429 35.4477 6.76198 36.8744C4.44209 39.0778 3.06907 42.8098 3.08915 46.8575C3.12309 53.6853 7.08277 59.4624 11.9162 59.7358C12.0392 59.7426 12.162 59.7461 12.2843 59.7461ZM11.5544 36.8366C11.637 36.8366 11.7196 36.839 11.8025 36.8438C15.6046 37.0585 18.7212 41.9478 18.75 47.7428C18.7674 51.2511 17.6262 54.4396 15.6973 56.2717C14.6036 57.3107 13.3312 57.8222 12.0286 57.7468C8.2265 57.5319 5.10991 52.6425 5.08104 46.8477C5.06364 43.3391 6.20482 40.1508 8.13377 38.3187C9.15816 37.3459 10.3362 36.8366 11.5544 36.8366Z" fill="#1E3A59"/>
<g opacity="0.5">
<path d="M46.5828 17.5627C46.5828 17.5627 64.6931 17.7371 75.2176 27.4526C75.2287 27.4628 75.2397 27.4731 75.2507 27.4833C77.4641 29.5299 79.0777 32.1287 79.9422 34.9939C81.0855 38.783 81.3111 41.5572 81.4141 44.0066C81.7241 51.4562 80.456 54.999 80.456 54.999C84.5891 50.9047 86.8245 46.3471 86.6288 40.1399C86.6078 39.528 86.5633 38.8977 86.4969 38.2522C86.4821 38.1033 86.4641 37.9562 86.4437 37.8081C86.447 37.8066 86.4453 37.8034 86.4413 37.7994C86.2136 36.5008 85.8491 34.8052 85.276 32.9259C83.5511 27.2569 79.9449 19.9123 72.5203 16.7156C58.6376 10.7381 45.9282 16.8077 46.5828 17.5627Z" fill="white"/>
</g>
<g opacity="0.5">
<path d="M32.5016 42.3647C29.6373 41.6878 27.9457 38.4717 28.7233 35.1815C29.5009 31.8912 32.4532 29.7726 35.3176 30.4496C38.1819 31.1265 39.8735 34.3426 39.0959 37.6329C38.3183 40.9231 35.366 43.0417 32.5016 42.3647Z" fill="white"/>
</g>
<g opacity="0.5">
<path d="M30.6316 49.6394C29.4804 49.2512 28.9088 47.8637 29.355 46.5403C29.8012 45.2169 31.0962 44.4588 32.2475 44.847C33.3987 45.2351 33.9703 46.6226 33.5241 47.946C33.0779 49.2694 31.7829 50.0276 30.6316 49.6394Z" fill="white"/>
</g>
</svg>
