<svg width="316" height="400" viewBox="0 0 316 400" fill="none" xmlns="http://www.w3.org/2000/svg">
<g opacity="0.2">
<path d="M101.716 400C151.282 400 191.464 392.113 191.464 382.385C191.464 372.656 151.282 364.77 101.716 364.77C52.1494 364.77 11.9678 372.656 11.9678 382.385C11.9678 392.113 52.1494 400 101.716 400Z" fill="#1E3A59"/>
</g>
<path d="M100.219 160.419L100.825 176.501L101.138 184.692L106.488 325.951C106.488 325.951 96.8358 325.769 83.9124 324.485C81.3843 324.233 78.7305 323.942 76.0001 323.6C55.6518 321.064 31.0225 315.806 21.9718 304.992C8.44323 288.821 8.71734 212.134 22.3149 182.188C28.5433 168.459 57.9857 163.395 78.8352 161.523C81.165 161.309 83.3904 161.14 85.4605 161.006C94.1907 160.424 100.219 160.419 100.219 160.419Z" fill="white"/>
<path d="M100.825 176.5L101.138 184.691L105.386 296.853L106.488 325.951C106.488 325.951 106.286 325.946 105.903 325.936C105.795 325.931 105.665 325.927 105.528 325.925C105.42 325.92 105.297 325.916 105.174 325.912C105.08 325.913 104.986 325.906 104.893 325.907C104.856 325.903 104.813 325.907 104.777 325.903C104.604 325.896 104.409 325.891 104.206 325.88C104.163 325.883 104.12 325.88 104.069 325.877C103.903 325.87 103.729 325.863 103.542 325.857C103.289 325.85 103.028 325.836 102.754 325.824C102.558 325.812 102.349 325.808 102.139 325.797C101.922 325.787 101.705 325.777 101.481 325.767C101.199 325.755 100.902 325.738 100.599 325.728C99.9838 325.694 99.333 325.663 98.6451 325.621C98.0377 325.594 97.4007 325.555 96.7342 325.511C95.9665 325.462 95.163 325.415 94.3298 325.357C91.2506 325.146 87.726 324.864 83.9121 324.485C83.1712 324.411 82.4153 324.332 81.6524 324.253C81.1218 324.198 80.5764 324.136 80.0309 324.075C78.7147 323.929 77.3615 323.771 75.9999 323.599C55.6445 321.065 31.0223 315.805 21.9787 304.991C10.834 291.677 9.04565 237.329 16.3621 201.827C14.2505 232.842 17.3285 266.171 25.7289 276.205C29.8816 281.167 36.888 261.389 36.7229 251.434C36.2969 225.761 51.0144 195.497 74.903 176.146C75.5236 175.643 89.3208 177.572 100.825 176.5Z" fill="#E5E5E5"/>
<path d="M109.403 328.808L106.439 328.752C103.609 328.699 36.9109 327.211 19.8255 306.79C9.81022 294.82 9.13746 259.336 9.16998 248.746C9.25414 221.18 13.3131 195.231 19.7626 181.027C24.2721 171.097 39.341 164.152 64.5514 160.386C82.7888 157.662 100.045 157.622 100.217 157.622L102.914 157.62L109.403 328.808ZM97.5235 163.247C77.3887 163.592 31.9997 167.622 24.8612 183.343C18.7186 196.871 14.8518 221.938 14.7699 248.764C14.6898 274.946 18.36 296.313 24.1206 303.197C37.692 319.418 90.4551 322.529 103.58 323.055L97.5235 163.247Z" fill="#1E3A59"/>
<path d="M7.48062 243.849C11.7776 240.55 39.039 241.387 39.039 241.387C42.0451 241.73 44.4386 244.056 44.8613 247.052C46.4086 258.016 48.6641 283.497 37.7582 291.463C28.7035 298.076 16.4094 294.684 9.85016 288.073C4.7325 282.915 3.84511 273.535 3.87268 264.187C3.90267 254.059 4.1272 246.423 7.48062 243.849Z" fill="white"/>
<path d="M3.87118 264.19C3.85195 269.01 4.0887 273.838 5.02203 278.09C5.8862 282.085 7.37223 285.575 9.85071 288.072C16.4091 294.683 28.7031 298.077 37.7578 291.461C46.3119 285.214 46.7707 268.175 45.8232 255.839C45.8192 255.829 45.8224 255.821 45.8224 255.821C45.5631 252.439 45.1929 249.407 44.8624 247.051C44.4408 244.056 42.0449 241.726 39.0387 241.388C39.0387 241.388 11.7766 240.546 7.47633 243.85C4.13138 246.423 3.90032 254.061 3.87118 264.19Z" fill="white"/>
<path d="M5.02148 278.089C5.88565 282.085 7.37168 285.575 9.85016 288.072C16.4085 294.683 28.7025 298.077 37.7572 291.461C46.3114 285.213 46.7701 268.175 45.8227 255.839C45.7477 256.343 43.9833 269.07 39.8919 267.95C36.6716 267.076 34.976 260.425 34.8719 260.033C34.7663 260.862 31.4753 286.012 17.8306 284.207C11.6946 283.399 7.6661 280.937 5.02148 278.089Z" fill="#E5E5E5"/>
<path d="M26.5603 297.821C19.4998 297.821 12.4947 294.715 7.86188 290.045C1.8289 283.965 1.04429 273.557 1.07198 264.179C1.10704 252.367 1.44101 244.955 5.77479 241.627C10.4974 238.002 32.4947 238.385 39.1243 238.588L39.3557 238.604C43.6284 239.092 47.032 242.404 47.6331 246.66C49.5947 260.561 51.1348 285.16 39.4092 293.724C35.4922 296.585 31.0152 297.821 26.5603 297.821ZM9.18286 246.071C6.72033 247.968 6.69228 257.347 6.67185 264.195C6.64888 271.947 7.21535 281.443 11.8373 286.101C17.7267 292.037 28.4147 294.819 36.1062 289.202C42.8467 284.278 45.0832 268.668 42.0881 247.443C41.8487 245.747 40.5124 244.419 38.8212 244.181C26.2708 243.804 11.4043 244.471 9.18286 246.071Z" fill="#1E3A59"/>
<path d="M18.4249 290.901C19.7252 291.275 21.3655 290.974 22.6748 290.377C27.6379 288.03 30.2217 282.691 31.7678 277.424C32.8522 273.673 33.3281 269.756 33.6625 265.846C33.925 261.967 34.1625 257.897 33.3953 254.087C33.3026 253.691 33.5492 253.294 33.9462 253.201C34.3237 253.113 34.7019 253.334 34.8176 253.697C35.1621 254.788 35.3246 255.757 35.4883 256.788C36.2021 261.861 36.1428 266.952 35.7957 272.058C35.0581 280.357 32.6241 289.946 24.6825 294.425C22.422 295.617 19.8831 296.238 17.2305 295.7C13.9163 294.892 15.1195 290.06 18.4249 290.901Z" fill="#1E3A59"/>
<path d="M64.0686 181.821C57.3445 181.327 50.535 181.071 43.7918 181.121C37.2101 181.201 30.3757 181.457 24.0199 182.859C22.5077 183.221 20.9874 182.279 20.6388 180.763C20.27 179.192 21.3313 177.618 22.9247 177.367C33.3942 175.873 43.7621 176.753 54.1765 177.714C57.5937 178.066 60.9841 178.462 64.4005 178.954C65.1899 179.067 65.7376 179.799 65.6241 180.589C65.5148 181.352 64.8252 181.889 64.0686 181.821Z" fill="#1E3A59"/>
<path d="M60.334 178.028C72.7348 188.473 91.0028 195.069 111.373 195.069C123.544 195.069 134.967 192.712 144.835 188.593L136.663 168.92C93.1044 91.8731 81.7648 158.309 81.7648 158.309C81.7648 158.309 70.6177 163.968 60.334 178.028Z" fill="#E8E8E8"/>
<path d="M224.447 221.263C224.447 221.263 210.615 254.453 181.139 254.005C150.895 253.545 135.316 221.251 135.316 221.251C135.316 221.251 123.818 178.125 131.895 177.395C151.944 175.583 169.429 199.116 179.336 200.414C182.223 199.188 198.103 185.828 206.146 181.519C208.608 180.201 230.386 178.966 235.065 191.303C237.767 198.427 224.447 221.263 224.447 221.263Z" fill="white"/>
<path d="M129.945 195.602C131.695 207.655 135.316 221.253 135.316 221.253C135.316 221.253 150.898 253.546 181.137 254.002C210.615 254.453 224.448 221.265 224.448 221.265C224.448 221.265 237.765 198.428 235.068 191.301C230.387 178.967 208.609 180.201 206.145 181.518C198.106 185.83 182.226 199.188 179.335 200.411C173.244 199.616 164.292 190.412 153.637 183.864C146.96 179.763 139.617 176.697 131.894 177.393C128.353 177.715 128.576 186.187 129.945 195.602Z" fill="white"/>
<path d="M129.946 195.604C131.692 207.657 135.314 221.251 135.314 221.251C135.314 221.251 137.06 224.866 140.512 229.695C147.381 239.299 161.016 253.699 181.138 254.006C210.619 254.456 224.452 221.265 224.452 221.265C224.452 221.265 232.521 207.425 234.82 197.937C235.475 195.229 235.665 192.882 235.065 191.3C230.386 178.967 208.606 180.202 206.144 181.518C198.109 185.829 182.229 199.192 179.337 200.413C173.246 199.615 164.29 190.413 153.635 183.865C146.958 179.765 139.618 176.696 131.897 177.392C128.357 177.712 128.575 186.191 129.946 195.604Z" fill="white"/>
<path d="M140.511 229.695C147.38 239.299 161.015 253.698 181.137 254.005C210.617 254.456 224.451 221.264 224.451 221.264C224.451 221.264 232.52 207.424 234.819 197.936C227.302 191.006 219.28 184.744 215.106 185.045C205.89 185.693 210.699 231.373 186.287 237.062C161.874 242.757 154.698 206.374 149.405 201.654C147.039 199.546 143.594 213.556 140.511 229.695Z" fill="#E8E8E8"/>
<path d="M129.945 195.602C138.845 192.975 146.884 188.955 153.637 183.864C146.96 179.763 139.617 176.697 131.893 177.393C128.354 177.715 128.576 186.187 129.945 195.602Z" fill="#E8E8E8"/>
<path d="M51.5332 178.605C57.9461 184.865 66.0501 189.997 75.3008 193.548L81.5089 167.756C81.5089 167.756 66.7815 165.849 51.5332 178.605Z" fill="#E8E8E8"/>
<path d="M56.8408 183.227C69.4092 193.016 86.6409 199.054 105.651 199.054C120.309 199.054 133.913 195.461 145.135 189.329L136.663 168.92C93.1064 91.872 81.7668 158.306 81.7668 158.306C81.7668 158.306 67.9054 165.346 56.8408 183.227Z" fill="#E8E8E8"/>
<path d="M181.717 256.809C181.511 256.809 181.305 256.807 181.098 256.804C149.489 256.323 133.462 223.85 132.796 222.468C132.719 222.309 132.657 222.143 132.612 221.973C132.587 221.881 130.147 212.694 128.31 202.818C124.82 184.062 126.446 178.99 127.973 176.806C128.872 175.521 130.175 174.739 131.644 174.606C145.226 173.378 157.228 182.481 166.876 189.794C171.494 193.295 175.879 196.618 178.886 197.465C180.444 196.467 183.871 193.868 186.709 191.715C192.626 187.227 199.991 181.64 204.825 179.051C207.527 177.604 218.3 177.098 226.542 180.184C232.189 182.299 235.938 185.705 237.684 190.309C240.67 198.183 229.478 218.178 226.955 222.521C226.382 223.843 222.817 231.727 215.963 239.635C206.218 250.88 194.388 256.809 181.717 256.809ZM137.951 220.255C139.376 223.029 154.334 250.796 181.183 251.205C181.362 251.208 181.542 251.209 181.72 251.209C208.552 251.209 221.734 220.495 221.865 220.183C221.912 220.07 221.968 219.958 222.029 219.852C228.11 209.422 233.823 195.92 232.448 192.295C231.418 189.58 229.176 187.435 225.785 185.922C218.629 182.729 208.968 183.463 207.405 184.022C202.955 186.421 195.826 191.829 190.093 196.177C184.757 200.225 181.905 202.365 180.431 202.991C179.971 203.187 179.468 203.256 178.973 203.19C174.505 202.605 169.646 198.921 163.493 194.258C154.7 187.592 143.773 179.32 132.475 180.157C132.058 180.951 130.727 184.987 133.732 201.343C135.364 210.224 137.53 218.645 137.951 220.255Z" fill="#1E3A59"/>
<path d="M186.288 256.346C186.081 256.346 185.871 256.323 185.661 256.274C177.888 254.496 172.401 248.834 169.794 239.9C165.51 225.216 170.333 205.56 177.341 198.449C178.427 197.347 180.2 197.335 181.301 198.42C182.402 199.505 182.415 201.278 181.33 202.38C175.511 208.284 171.466 225.637 175.17 238.331C177.203 245.298 181.153 249.498 186.909 250.815C188.417 251.16 189.36 252.662 189.014 254.169C188.718 255.467 187.564 256.346 186.288 256.346Z" fill="#1E3A59"/>
<path d="M72.5166 248.438C72.5166 248.438 92.1241 279.05 97.1792 293.562C103.942 312.977 96.4298 366.227 101.628 375.988C103.89 380.235 108.077 384.224 129.773 384.224C146.224 384.224 157.429 384.234 157.784 372.924C158.048 364.504 147.014 360.654 147.014 360.654L159.407 268.407" fill="white"/>
<path d="M97.1776 293.56C103.945 312.977 96.4286 366.227 101.63 375.985C103.893 380.235 108.075 384.225 129.776 384.225C146.224 384.225 157.428 384.235 157.787 372.921C157.798 372.667 157.792 372.412 157.777 372.167C157.387 364.276 147.015 360.656 147.015 360.656L155.982 293.903L159.41 268.405L72.5166 248.436C72.5166 248.436 92.1268 279.047 97.1776 293.56Z" fill="white"/>
<path d="M97.1785 293.56C103.946 312.977 96.4294 366.227 101.631 375.985C103.894 380.235 108.076 384.225 129.777 384.225C146.225 384.225 157.429 384.235 157.788 372.921C157.798 372.667 157.793 372.412 157.778 372.167C155.291 374.118 149.419 377.088 136.664 377.176C117.611 377.306 107.067 375.491 105.215 364.77C103.368 354.05 104.289 335.719 110.464 325.269C116.726 314.678 140.872 317.056 155.983 293.903L159.411 268.405L72.5176 248.436C72.5176 248.436 92.1277 279.047 97.1785 293.56Z" fill="#E8E8E8"/>
<path d="M74.8743 246.928C82.1451 258.482 89.172 270.114 95.3155 282.327C97.1079 285.985 98.8684 289.697 100.141 293.609C102.884 303.265 102.846 313.129 102.99 322.963C103.062 336.525 102.211 349.991 102.538 363.461C103.047 373.43 102.737 378.296 114.047 380.314C120.38 381.461 127.2 381.443 133.75 381.418C138.084 381.38 142.561 381.36 146.761 380.643C148.779 380.287 150.686 379.716 152.073 378.818C154.856 377.125 155.607 373.132 154.505 370.209C153.116 366.877 149.211 364.51 145.854 363.191C144.706 362.673 144.081 361.469 144.239 360.281L156.632 268.034C157.204 264.443 162.545 265.03 162.182 268.78L149.789 361.027L147.937 358.01C149.201 358.477 150.279 358.999 151.44 359.635C156.063 362.143 160.53 366.624 160.579 372.383C160.603 375.279 160.018 378.035 158.324 380.477C153.169 387.557 141.51 386.773 133.778 387.018C126.821 387.034 120.025 387.075 113.02 385.819C110.666 385.379 108.269 384.772 105.875 383.662C97.45 379.8 97.2628 371.689 96.9414 363.643C96.6043 350.057 97.4623 336.474 97.3904 322.978C97.2004 313.248 97.3985 303.009 94.2867 293.806C91.5322 286.585 87.7596 279.786 84.0004 273.009C79.6036 265.216 74.9463 257.504 70.1591 249.948C68.2599 246.859 72.7061 243.792 74.8743 246.928Z" fill="#1E3A59"/>
<path d="M121.133 337.082C109.381 337.082 100.234 334.61 99.55 334.42C98.433 334.11 97.7789 332.953 98.0886 331.835C98.3982 330.718 99.5545 330.062 100.673 330.372C100.963 330.452 129.927 338.252 150.381 325.575C151.368 324.965 152.662 325.269 153.272 326.254C153.883 327.24 153.579 328.535 152.593 329.146C142.568 335.358 130.943 337.082 121.133 337.082Z" fill="#1E3A59"/>
<path d="M43.9181 266.825C44.2405 269.811 44.6255 272.698 45.078 275.481C51.2419 312.6 102.031 321.583 133.766 305.791L153.028 289.307C155.124 286.087 156.752 282.55 157.819 278.696C158.344 276.797 158.786 274.867 159.145 272.917C164.05 246.3 154.073 215.433 148.56 197.565L136.664 168.92C93.1049 91.8731 81.7653 158.309 81.7653 158.309C81.7653 158.309 49.1614 174.865 44.0534 221.659C42.3161 237.582 42.4305 253.176 43.9181 266.825Z" fill="white"/>
<path d="M56.8408 183.227C69.4092 193.016 86.6409 199.054 105.651 199.054C120.309 199.054 133.913 195.461 145.135 189.329L136.663 168.92C93.1064 91.872 81.7668 158.306 81.7668 158.306C81.7668 158.306 67.9054 165.346 56.8408 183.227Z" fill="#E8E8E8"/>
<path d="M43.9189 266.825C44.2414 269.811 44.6264 272.698 45.0789 275.481C51.2428 312.599 102.032 321.583 133.767 305.791L153.029 289.307C155.125 286.087 156.753 282.55 157.819 278.695C158.345 276.797 158.787 274.867 159.146 272.916C161.121 254.478 130.186 251.006 73.1781 254.009C68.0252 254.281 67.1175 241.292 64.9444 220.382C43.6141 224.776 48.2242 265.773 43.9189 266.825Z" fill="#E8E8E8"/>
<path d="M151.856 288.546C152.526 286.717 153.103 284.911 153.625 283.128C154.216 281.373 154.328 279.507 154.979 277.791C155.984 274.177 156.661 270.451 157.067 266.68C158.706 251.373 156.13 235.853 152.816 220.831C151.138 213.211 149.094 205.648 147.224 197.98C147.04 197.228 147.502 196.469 148.254 196.285C148.951 196.115 149.654 196.499 149.899 197.154C152.697 204.519 155.286 212.01 157.444 219.662C161.758 235.076 164.417 251.163 162.901 267.287C162.495 271.343 161.795 275.394 160.721 279.373C160.341 281.457 159.108 283.315 158.088 285.137C156.997 286.943 155.678 288.6 154.204 290.071C153.645 290.63 152.739 290.629 152.18 290.07C151.769 289.657 151.66 289.057 151.856 288.546Z" fill="#1E3A59"/>
<path d="M134.228 170.3C127.981 159.479 105.9 120.866 92.1308 139.596C87.8605 145.41 85.5493 153.025 84.2815 160.146C79.7073 162.487 75.5904 165.761 71.8424 169.28C54.6397 185.579 47.3023 207.642 46.271 230.901C45.3355 246.086 45.8038 261.413 48.4059 276.4C53.3554 301.564 81.9393 311.582 104.971 310.208C109.75 309.986 114.494 309.268 119.16 308.231C123.84 307.223 128.432 305.929 133.144 304.539C133.897 304.306 134.699 304.737 134.921 305.493C135.096 306.086 134.864 306.703 134.391 307.045C125.967 313.074 115.476 315.271 105.306 315.983C79.8742 317.96 49.3577 306.807 42.7647 279.584C41.6078 274.597 41.0773 269.494 40.5689 264.413C39.2277 249.358 39.4891 234.198 41.3594 219.216C43.871 198.931 52.838 179.152 67.9413 165.129C71.7803 161.576 75.8743 158.336 80.4966 155.814L79.0045 157.84C80.5829 150.108 82.9146 142.714 87.6781 136.2C97.703 123.09 110.616 129.74 119.802 139.771C127.517 148.095 133.528 157.797 139.103 167.544C139.866 168.889 139.395 170.598 138.05 171.362C136.702 172.127 134.988 171.651 134.228 170.3Z" fill="#1E3A59"/>
<g opacity="0.7">
<path d="M58.9076 139.735C61.7731 139.595 63.9658 136.812 63.8052 133.518C63.6446 130.224 61.1915 127.667 58.326 127.807C55.4606 127.946 53.2679 130.73 53.4285 134.024C53.5891 137.318 56.0422 139.875 58.9076 139.735Z" fill="white"/>
</g>
<path d="M99.5492 310.401C99.4976 339.612 93.8892 366.93 93.8892 366.93C93.8892 366.93 99.7861 374.561 93.9852 381.58C90.4552 385.851 81.7648 385.86 81.7648 385.86H57.2406C57.2406 385.86 50.5382 385.215 47.9604 377.804C46.6871 374.143 47.1642 325.264 45.6594 293.237C45.2004 283.469 44.1952 278.512 43.4268 268.241L99.5492 310.401Z" fill="white"/>
<path d="M43.4287 268.243C44.1934 278.511 45.2024 283.468 45.6602 293.237C46.0139 300.764 46.2583 309.227 46.4404 317.815C47.0386 345.748 46.9866 375.007 47.9593 377.806C50.5394 385.213 57.2391 385.858 57.2391 385.858H81.7648C81.7648 385.858 90.4568 385.852 93.9835 381.577C99.7886 374.56 93.8899 366.929 93.8899 366.929C93.8899 366.929 98.3841 345.04 99.362 319.5C99.4765 316.509 99.5441 313.466 99.5493 310.403L43.4287 268.243Z" fill="white"/>
<path d="M47.4541 372.516C47.5841 375.34 47.7506 377.197 47.9587 377.806C50.5387 385.213 57.2384 385.858 57.2384 385.858H81.7642C81.7642 385.858 90.4561 385.853 93.9828 381.577C96.4692 378.575 96.8074 375.46 96.386 372.88C96.2351 373.093 96.0687 373.306 95.8918 373.52C92.0686 378.154 86.9997 379.187 72.5156 379.187C58.0315 379.187 50.7415 377.65 47.4541 372.516Z" fill="#E8E8E8"/>
<path d="M52.7273 275.229C49.1366 272.532 44.0587 275.424 44.5463 279.889C44.9957 284.002 45.4101 287.902 45.6601 293.238C45.928 298.939 46.1333 305.179 46.2962 311.603C46.3759 314.746 49.2357 317.076 52.3309 316.521C63.3744 314.54 76.9751 314.505 93.317 318.054C96.4765 318.74 99.4851 316.359 99.5285 313.126C99.5288 313.096 99.5293 313.066 99.5297 313.035C99.5511 311.392 98.7937 309.835 97.4802 308.849L52.7273 275.229Z" fill="#E8E8E8"/>
<path d="M100.949 310.404C102.712 324.683 101.216 339.163 99.0359 353.308C98.3063 358.043 97.5751 362.729 96.6321 367.493L96.105 365.218C96.2756 365.443 96.3432 365.547 96.4533 365.707C101.368 372.832 100.005 382.877 91.6941 386.622C88.4658 388.028 85.3727 388.512 82.0407 388.655C81.1643 388.66 78.2884 388.661 77.3612 388.66C72.9288 388.649 61.5386 388.683 56.9727 388.647C53.7608 388.216 50.7506 386.582 48.5541 384.209C46.9025 382.383 45.645 380.207 45.0917 377.833C44.348 372.375 44.5249 365.651 44.3092 360.159C43.793 336.161 44.0916 307.501 42.1434 283.779C41.6217 278.759 41.0043 273.603 40.6346 268.45C40.5138 266.903 41.6772 265.55 43.2259 265.44C44.7683 265.329 46.1085 266.49 46.2191 268.032C47.0331 278.146 48.5134 288.476 48.693 298.688C49.7148 322.401 49.3517 351.434 50.4202 375.204C50.4473 375.794 50.5803 376.657 50.6063 376.886C51.3715 379.119 52.8563 381.076 54.952 382.175C55.708 382.606 56.7606 382.951 57.5089 383.073C60.4024 383.026 73.5456 383.079 77.3588 383.06C78.429 383.046 81.2215 383.083 82.2592 383.044C85.4659 382.824 89.05 382.267 91.4266 380.216C93.1768 378.455 94.0438 375.994 93.6424 373.484C93.386 371.755 92.6348 369.991 91.6088 368.549C91.1492 367.891 91.007 367.098 91.1466 366.367C92.0295 361.827 92.8181 357.15 93.4445 352.502C94.6016 344.382 95.5737 332.721 96.5044 324.467C97.0347 319.781 97.465 315.092 98.1531 310.374C98.3745 308.802 100.743 308.762 100.949 310.404Z" fill="#1E3A59"/>
<path d="M98.0181 337.638C98.0181 337.638 81.6745 345.106 47.165 336.673Z" fill="white"/>
<path d="M77.5634 342.802C69.5906 342.802 59.3257 341.806 46.6664 338.713C45.54 338.438 44.8498 337.301 45.1249 336.175C45.4006 335.048 46.5376 334.357 47.6636 334.633C80.8796 342.75 96.994 335.797 97.1525 335.724C98.2084 335.252 99.4509 335.719 99.9279 336.773C100.405 337.827 99.9433 339.067 98.8912 339.548C98.4491 339.749 91.5187 342.802 77.5634 342.802Z" fill="#1E3A59"/>
<path d="M56.5703 364.633C56.5703 364.633 71.1678 359.517 88.9714 364.77Z" fill="white"/>
<path d="M56.1068 363.312C64.0749 360.105 72.8559 359.633 81.2351 361.101C84.0254 361.573 86.7476 362.402 89.367 363.427C90.0891 363.71 90.4452 364.524 90.1627 365.246C89.5352 366.734 87.7699 365.902 86.5886 365.797C79.4194 364.536 72.0947 364.157 64.8417 364.838C62.2194 365.078 59.4815 365.463 56.9299 365.975C55.2924 366.279 54.5813 363.984 56.1068 363.312Z" fill="#1E3A59"/>
<path d="M148.093 247.699C148.093 247.699 156.998 248.549 160.079 245.459C160.079 245.459 171.829 252.013 163.52 262.551C157.141 270.643 139.99 268.632 139.99 268.632" fill="white"/>
<path d="M139.989 268.632C139.989 268.632 157.139 270.645 163.519 262.553C167.746 257.185 166.778 252.852 164.807 249.896C164.339 251.177 163.58 252.531 162.453 253.961C158.112 259.479 148.753 260.294 143.235 260.259L139.989 268.632Z" fill="#E8E8E8"/>
<path d="M144.585 271.655C141.828 271.655 139.901 271.441 139.663 271.413C138.127 271.233 137.028 269.842 137.208 268.306C137.388 266.77 138.778 265.672 140.315 265.851C144.657 266.353 156.899 266.426 161.32 260.817C163.228 258.397 163.989 256.112 163.581 254.024C163.128 251.698 161.351 249.895 160.072 248.865C155.806 251.094 149.278 250.624 147.825 250.485C146.286 250.338 145.157 248.972 145.304 247.432C145.451 245.893 146.814 244.767 148.355 244.91C151.421 245.198 156.638 244.941 158.095 243.482L159.591 241.981L161.441 243.013C161.701 243.158 167.816 246.633 169.068 252.9C169.822 256.678 168.695 260.508 165.718 264.284C160.724 270.619 150.647 271.655 144.585 271.655Z" fill="#1E3A59"/>
<path d="M146.769 280.317L94.5069 282.639C88.3214 282.915 83.0305 278.078 82.7539 271.885L81.52 244.073C81.279 238.651 84.9597 233.925 90.0357 232.648C90.7541 232.463 91.5028 232.356 92.274 232.32L144.528 229.999C150.722 229.722 156.013 234.559 156.281 240.753L157.264 262.78L157.523 268.564C157.8 274.757 152.955 280.04 146.769 280.317Z" fill="white"/>
<path d="M146.769 280.317L94.5069 282.639C88.3214 282.915 83.0305 278.078 82.7539 271.885L81.52 244.073C81.279 238.651 84.9597 233.925 90.0357 232.648C90.7541 232.463 91.5028 232.356 92.274 232.32L144.528 229.999C150.722 229.722 156.013 234.559 156.281 240.753L157.264 262.78L157.523 268.564C157.8 274.757 152.955 280.04 146.769 280.317Z" fill="white"/>
<path d="M81.5198 244.073L82.055 256.145L82.7543 271.886C83.029 278.078 88.3211 282.918 94.507 282.642L146.769 280.321C152.955 280.044 157.8 274.76 157.525 268.568L157.266 262.783L157.035 257.625L156.284 240.754C156.01 234.561 150.724 229.723 144.532 229.997L92.2759 232.32C91.5024 232.356 90.7508 232.463 90.0343 232.645C84.9602 233.923 81.2806 238.654 81.5198 244.073Z" fill="white"/>
<path d="M82.0557 256.145L82.755 271.886C83.0297 278.079 88.3218 282.919 94.5077 282.642L146.77 280.321C152.956 280.044 157.801 274.761 157.526 268.568L157.267 262.783L157.035 257.626C155.412 262.582 152.144 268.804 145.784 270.555C130.391 274.791 122.346 267.985 118.397 254.621C118.397 254.621 103.664 250.641 101.213 254.393C98.7526 258.15 100.163 264.926 96.9061 264.335C93.6559 263.746 93.7282 252.871 93.7282 252.871L82.0557 256.145Z" fill="#E8E8E8"/>
<path d="M94.4772 285.076C86.932 285.076 80.6318 279.112 80.2935 271.501L79.1012 244.677C78.9332 240.899 80.2548 237.273 82.8222 234.467C85.3895 231.661 88.884 230.023 92.6617 229.855L143.928 227.577C147.708 227.409 151.332 228.73 154.138 231.297C156.945 233.864 158.582 237.359 158.75 241.136L159.942 267.96C160.11 271.738 158.789 275.364 156.221 278.171C153.654 280.977 150.16 282.615 146.382 282.782L95.1148 285.061C94.9015 285.071 94.689 285.076 94.4772 285.076ZM144.564 232.451C144.425 232.451 144.286 232.454 144.146 232.461L92.8788 234.739C90.4056 234.849 88.1151 235.925 86.429 237.767C84.7431 239.61 83.8752 241.987 83.9851 244.46L85.1774 271.284C85.4056 276.416 89.7692 280.399 94.898 280.178L146.165 277.899C148.638 277.789 150.929 276.714 152.615 274.871C154.301 273.028 155.169 270.651 155.059 268.178L153.867 241.354C153.757 238.881 152.682 236.59 150.839 234.904C149.1 233.314 146.886 232.451 144.564 232.451Z" fill="#1E3A59"/>
<path d="M81.5199 244.074L81.6788 247.713L82.0244 255.452L82.2102 259.531L82.761 271.888C82.8306 273.535 83.2641 275.097 83.9736 276.482C85.9209 280.302 89.9725 282.836 94.5071 282.642L107.871 281.852C101.687 282.122 96.3949 277.282 96.1183 271.096L95.6766 261.147L95.5472 258.301L94.8858 243.277C94.6425 237.799 98.4039 233.035 103.567 231.819L92.276 232.321C86.0901 232.598 81.2453 237.881 81.5199 244.074Z" fill="white"/>
<path d="M81.6787 247.712L82.0243 255.451L82.2101 259.53L82.7609 271.887C82.8305 273.534 83.264 275.096 83.9735 276.481C85.9208 280.301 89.9724 282.835 94.507 282.641L107.871 281.851C101.687 282.121 96.3949 277.281 96.1182 271.095L95.6765 261.146C94.7889 261.781 93.6981 262.132 92.9191 260.956C91.3746 258.631 90.3511 248.292 86.6905 247.077C85.473 246.671 83.6145 247.037 81.6787 247.712Z" fill="#D8D8D8"/>
<path d="M93.9996 285.097C90.575 285.097 87.3201 283.83 84.7667 281.493C82.0574 279.014 80.4774 275.642 80.3174 271.996L79.0815 244.181C78.9174 240.537 80.192 237.037 82.6708 234.328C85.148 231.621 88.5202 230.04 92.1665 229.875L103.456 229.376L104.125 234.197C99.9992 235.17 97.1412 238.943 97.3292 243.17L98.5652 270.985C98.6676 273.327 99.6852 275.495 101.43 277.092C103.175 278.688 105.426 279.506 107.762 279.405C118.801 278.914 139.425 277.996 141.374 277.907L143.977 277.78L144.091 280.239C144.164 282.007 143.001 282.544 141.73 282.734L141.732 282.783L94.6267 285.082C94.417 285.092 94.2077 285.097 93.9996 285.097ZM95.1191 234.638L92.3844 234.759C90.0435 234.865 87.874 235.884 86.2773 237.629C84.6811 239.373 83.8598 241.623 83.9653 243.963L85.2012 271.781C85.3037 274.121 86.3215 276.29 88.0668 277.887C89.8117 279.484 92.0641 280.307 94.3976 280.199L97.4659 280.049C95.1633 277.646 93.8276 274.537 93.6814 271.2L92.4454 243.387C92.3016 240.156 93.3023 237.095 95.1191 234.638Z" fill="#1E3A59"/>
<path d="M116.12 256.495C116.16 257.524 115.035 265.884 115.035 265.884C115.035 265.884 112.404 265.986 109.174 266.111C105.138 266.267 101.705 262.215 101.505 257.06C101.306 251.906 104.416 247.601 108.452 247.444C111.175 247.339 114.313 247.218 114.313 247.218C114.313 247.218 116.055 254.819 116.12 256.495Z" fill="#22A7F0"/>
<path d="M116.12 256.495C116.16 257.524 115.035 265.884 115.035 265.884C115.035 265.884 112.404 265.986 109.174 266.111C105.138 266.267 101.705 262.215 101.505 257.06C101.306 251.906 104.416 247.601 108.452 247.444C111.175 247.339 114.313 247.218 114.313 247.218C114.313 247.218 116.055 254.819 116.12 256.495Z" fill="#059FE1"/>
<path d="M108.943 267.949C106.528 267.949 104.251 266.825 102.503 264.762C100.791 262.742 99.7869 260.032 99.6745 257.132C99.5626 254.231 100.355 251.451 101.906 249.305C103.555 247.022 105.855 245.711 108.382 245.613L113.542 245.414C114.833 245.372 115.975 246.241 116.258 247.501C117.002 250.814 117.9 255.053 117.953 256.425C117.963 256.691 117.994 257.501 116.947 265.423C116.776 266.718 115.703 267.693 114.397 267.744L109.246 267.943C109.144 267.946 109.043 267.949 108.943 267.949ZM112.86 249.109L108.524 249.277C107.147 249.33 105.852 250.102 104.878 251.452C103.804 252.937 103.258 254.904 103.339 256.99C103.419 259.076 104.116 260.994 105.301 262.393C106.377 263.663 107.74 264.341 109.104 264.279L113.421 264.113C114.023 259.51 114.291 257.011 114.289 256.558C114.256 255.794 113.703 252.914 112.86 249.109Z" fill="#1E3A59"/>
<path d="M115.058 265.891C119.094 265.735 122.204 261.429 122.004 256.274C121.805 251.12 118.371 247.068 114.335 247.224C110.299 247.38 107.189 251.686 107.389 256.841C107.588 261.995 111.022 266.047 115.058 265.891Z" fill="#07C7FF"/>
<path d="M107.366 256.836C107.563 261.988 110.997 266.043 115.032 265.887C119.072 265.731 122.182 261.424 121.979 256.267C121.954 255.571 121.865 254.892 121.723 254.241C120.821 257.821 118.246 260.448 115.111 260.564C111.626 260.699 108.586 257.696 107.701 253.545C107.44 254.575 107.324 255.684 107.366 256.836Z" fill="#059FE1"/>
<path d="M107.367 256.836C107.38 257.187 107.409 257.532 107.457 257.871C108.102 253.802 110.855 250.705 114.264 250.575C118.024 250.433 121.267 253.941 121.84 258.596C121.963 257.844 122.009 257.067 121.98 256.266C121.783 251.114 118.349 247.06 114.314 247.215C110.279 247.377 107.17 251.678 107.367 256.836Z" fill="white"/>
<path d="M114.803 267.722C112.388 267.722 110.112 266.598 108.364 264.536C106.652 262.515 105.647 259.805 105.535 256.905C105.423 254.004 106.215 251.224 107.766 249.078C109.415 246.795 111.715 245.484 114.242 245.386C116.768 245.303 119.164 246.418 120.985 248.567C122.697 250.587 123.701 253.297 123.814 256.197C123.926 259.098 123.133 261.878 121.583 264.024C119.934 266.307 117.633 267.618 115.106 267.716C115.005 267.72 114.904 267.722 114.803 267.722ZM114.537 249.047C114.486 249.047 114.435 249.048 114.384 249.05C113.008 249.103 111.713 249.875 110.738 251.225C109.665 252.71 109.118 254.677 109.199 256.763C109.28 258.849 109.976 260.767 111.161 262.166C112.237 263.436 113.601 264.119 114.964 264.052C116.341 263.999 117.636 263.227 118.611 261.877C119.684 260.392 120.231 258.425 120.15 256.339C120.069 254.253 119.372 252.335 118.188 250.936C117.151 249.714 115.86 249.047 114.537 249.047Z" fill="#1E3A59"/>
<path d="M130.514 282.671C129.519 282.671 128.703 281.875 128.682 280.876L128.354 265.12C128.295 262.279 129.656 259.615 131.993 257.996L134.776 256.069C136.131 255.131 136.9 253.587 136.832 251.94L135.95 230.389C135.908 229.378 136.695 228.524 137.707 228.483C138.714 228.43 139.572 229.228 139.613 230.239L140.496 251.79C140.615 254.698 139.257 257.425 136.863 259.084L134.08 261.011C132.757 261.927 131.987 263.435 132.02 265.045L132.348 280.799C132.368 281.812 131.565 282.65 130.553 282.67C130.54 282.671 130.527 282.671 130.514 282.671Z" fill="#1E3A59"/>
<path d="M42.7758 249.238C42.7758 249.238 55.6632 251.006 81.5912 250.286C81.5912 250.286 89.5015 250.532 90.1942 258.392C90.9296 266.736 82.4939 269.547 82.4939 269.547C82.4939 269.547 60.3351 273.704 43.9187 266.825C33.9451 262.646 42.7758 249.238 42.7758 249.238Z" fill="white"/>
<path d="M43.9211 266.823C60.3336 273.704 82.4921 269.55 82.4921 269.55C82.4921 269.55 90.1337 266.998 90.2332 259.562C90.245 259.187 90.2274 258.795 90.1922 258.391C89.5018 250.533 81.5909 250.288 81.5909 250.288C74.944 250.475 69.1572 250.492 64.2246 250.422C49.9068 250.217 42.7742 249.24 42.7742 249.24C42.7742 249.24 33.9447 262.645 43.9211 266.823Z" fill="white"/>
<path d="M43.921 266.822C60.3336 273.703 82.4921 269.549 82.4921 269.549C82.4921 269.549 90.1337 266.998 90.2332 259.561C88.7471 261.158 84.5751 264.125 74.435 263.469C66.5476 262.954 64.5289 256.109 64.2247 250.421C49.9069 250.216 42.7743 249.239 42.7743 249.239C42.7743 249.239 33.9447 262.644 43.921 266.822Z" fill="#E8E8E8"/>
<path d="M67.1809 273.606C59.6982 273.606 50.7056 272.704 42.8368 269.407C39.7845 268.128 37.7113 265.943 36.8411 263.087C34.8308 256.489 39.8577 248.578 40.4378 247.697C41.0308 246.797 42.0882 246.321 43.1565 246.464C43.3502 246.49 56.2497 248.187 81.5138 247.487C81.569 247.485 81.6239 247.485 81.6785 247.487C85.2737 247.599 92.2629 249.971 92.9837 258.146C93.7188 266.489 87.0228 270.989 83.3795 272.203C83.2587 272.243 83.1353 272.275 83.0104 272.298C82.5065 272.393 75.8592 273.606 67.1809 273.606ZM44.2679 252.227C42.9812 254.642 41.3457 258.674 42.2001 261.461C42.4427 262.253 42.9971 263.402 45.0013 264.242C59.6307 270.372 79.4856 267.223 81.7642 266.832C82.7522 266.446 87.8922 264.164 87.4052 258.638C86.9721 253.725 82.6209 253.153 81.5581 253.088C61.0363 253.654 48.7148 252.683 44.2679 252.227Z" fill="#1E3A59"/>
<path d="M147.014 360.653C147.014 360.653 134.652 363.133 124.263 362.373Z" fill="white"/>
<path d="M147.428 362.712C139.7 363.877 131.972 364.481 124.161 363.77C123.392 363.695 122.828 363.01 122.903 362.24C122.975 361.492 123.626 360.94 124.366 360.977C131.783 361.204 139.352 360.149 146.602 358.594C149.42 358.021 150.259 362.149 147.428 362.712Z" fill="#1E3A59"/>
<path d="M81.5061 167.756C81.5061 167.756 53.1522 164.082 34.3746 201.024C30.7365 208.181 23.9842 226.208 23.3147 246.926C22.5154 271.661 26.6498 298.311 38.0263 308.932C43.7816 314.305 49.4852 312.936 54.0255 313.785C72.4798 321.185 70.2431 302.326 70.3743 299.184C73.439 298.629 77.7112 297.296 77.1932 291.88C76.6212 285.899 68.2137 279.602 68.2137 279.602C68.2137 279.602 58.9201 253.2 68.8357 220.382" fill="white"/>
<path d="M77.003 290.767C77.0973 291.139 77.16 291.509 77.1969 291.881C77.7147 297.293 73.4423 298.63 70.3748 299.186C70.243 302.326 72.4802 321.185 54.0284 313.786C49.4876 312.933 43.7851 314.306 38.0264 308.932C35.1819 306.275 32.7898 302.619 30.8185 298.24C30.8104 298.215 30.7977 298.196 30.7908 298.181C30.7775 298.156 30.7643 298.131 30.7556 298.101C30.7493 298.091 30.7429 298.082 30.7417 298.071C24.8698 284.936 22.718 265.397 23.3147 246.924C23.9875 226.208 30.7383 208.18 34.3731 201.021C53.1508 164.081 81.5094 167.753 81.5094 167.753L68.8349 220.383C58.9195 253.201 68.2127 279.601 68.2127 279.601C68.2127 279.601 75.6076 285.141 77.003 290.767Z" fill="white"/>
<path d="M30.7398 298.072C30.745 298.082 30.7502 298.093 30.7554 298.103C30.7658 298.134 30.7762 298.155 30.7918 298.181C30.797 298.197 30.8126 298.218 30.8178 298.244C32.7893 302.618 35.182 306.275 38.0274 308.933C43.7855 314.306 49.4866 312.933 54.0276 313.786C72.4778 321.188 70.2411 302.327 70.3763 299.185C73.44 298.629 77.7159 297.292 77.1957 291.882C77.1593 291.507 77.0968 291.138 77.0032 290.769C75.6092 285.141 68.2125 279.601 68.2125 279.601C68.2125 279.601 58.9171 253.203 68.8367 220.385L69.1904 218.913L81.5079 167.755C81.5079 167.755 63.9731 165.487 47.3591 182.471C42.8389 187.084 38.3862 193.124 34.3758 201.02C30.7398 208.182 23.9881 226.206 23.317 246.924C22.7189 265.4 24.8723 284.938 30.7398 298.072Z" fill="white"/>
<path d="M51.5332 178.605C57.9461 184.865 66.0501 189.997 75.3008 193.548L81.5089 167.756C81.5089 167.756 66.7815 165.849 51.5332 178.605Z" fill="#E8E8E8"/>
<path d="M77.1968 291.883C77.7145 297.294 73.4422 298.631 70.3747 299.187C70.2429 302.327 72.4801 321.186 54.0283 313.787C49.4875 312.934 43.785 314.307 38.0263 308.933C35.1818 306.276 32.7897 302.62 30.8184 298.242C31.428 299.513 35.7848 307.673 47.1379 307.478C61.8618 307.232 64.4492 309.698 66.1013 305.004C67.7534 300.31 63.4564 294.761 68.1535 291.256C70.4995 293.948 74.095 294.636 77.0028 290.769C77.0972 291.14 77.1599 291.51 77.1968 291.883Z" fill="#E8E8E8"/>
<path d="M81.1463 170.533C73.8134 170.076 66.4346 172.368 60.1119 176.003C51.1206 181.143 44.0212 189.554 38.8881 198.567C32.6901 209.521 29.2697 221.913 27.3027 234.291C24.5021 253.49 25.7362 285.617 36.1292 302.214C38.9712 306.703 42.8308 310.193 48.3563 310.467C50.1618 310.661 52.1828 310.624 54.5402 311.033C57.9948 312.196 62.6361 314.078 65.4006 311.132C67.8818 308.167 67.59 302.946 67.5771 299.068C67.6155 297.749 68.5743 296.673 69.8197 296.439C71.3609 296.167 73.098 295.713 73.9323 294.596C74.4129 293.984 74.5354 292.728 74.3475 291.855C73.9488 289.661 72.4794 287.756 71.005 286.034C69.684 284.541 68.1075 283.068 66.5373 281.845C65.7449 281.363 65.5112 280.34 65.2231 279.542C60.3456 264.124 60.2244 246.57 63.9948 230.903C64.9098 227.181 66.1106 223.548 67.4957 219.978C68.1017 218.433 70.4437 219.034 70.1904 220.702C68.3314 230.359 67.0801 240.165 67.1637 250.001C67.2361 259.66 68.3495 269.346 70.855 278.673L69.8924 277.362C71.8505 278.887 73.5587 280.479 75.2045 282.33C77.1167 284.506 78.839 286.976 79.6539 289.878C81.3411 296.565 77.3209 300.972 70.8735 301.939L73.1722 299.301C73.1684 299.479 73.1687 299.749 73.1743 300.04L73.1905 300.943C73.7463 314.828 66.6384 321.949 52.9837 316.385L53.5111 316.538C51.9433 316.251 49.9636 316.25 47.8124 316.041C43.3743 315.779 38.5818 313.664 35.5062 310.373C23.5224 297.875 21.0889 274.36 20.4882 257.756C19.8708 241.5 22.175 225.144 27.667 209.811C29.0542 205.969 30.5947 202.098 32.5523 198.493C41.5041 181.003 57.8312 165.569 78.4512 164.87C79.6138 164.868 80.6765 164.833 81.8663 164.98C85.5846 165.564 84.8704 170.925 81.1463 170.533Z" fill="#1E3A59"/>
<path d="M69.7344 290.431C69.7344 290.431 66.0974 293.761 69.4713 302.24Z" fill="white"/>
<path d="M70.4432 291.205C70.4833 291.248 70.4287 291.37 70.4199 291.466L70.3561 291.77C69.781 294.593 70.3419 297.409 70.4538 300.289C70.4804 300.817 70.5101 301.373 70.4355 301.951C70.3652 302.577 69.8012 303.027 69.1755 302.957C68.3143 302.812 67.927 301.887 67.4346 301.277C66.5364 299.775 66.0154 298.118 65.9681 296.327C65.8571 293.861 66.7556 290.99 69.025 289.657C70.0581 288.743 71.4459 290.254 70.4432 291.205Z" fill="#1E3A59"/>
<path d="M64.3202 250.062C64.0929 250.062 63.8617 250.024 63.635 249.946C38.4064 241.236 24.4774 248.682 24.3402 248.759C23.3276 249.317 22.0503 248.957 21.4861 247.948C20.9219 246.939 21.2756 245.666 22.2822 245.097C22.9044 244.745 37.8369 236.597 65.0052 245.976C66.1015 246.355 66.6837 247.55 66.305 248.647C66.0051 249.516 65.191 250.062 64.3202 250.062Z" fill="#1E3A59"/>
<path d="M191.956 136.308C184.851 149.792 174.293 161.566 160.828 170.226C158.081 171.991 155.224 173.626 152.249 175.118C150.804 175.848 149.319 176.541 147.811 177.21C143.256 179.204 138.626 180.802 133.952 182.018C129.926 183.076 125.864 183.844 121.807 184.344C116.908 184.952 112.003 185.154 107.139 184.982C105.365 184.913 103.599 184.799 101.839 184.638C69.6412 181.632 39.9067 162.035 25.733 130.804C4.84399 84.8028 25.6407 30.9981 72.1683 10.6229C81.1323 6.70511 90.4036 4.29639 99.6716 3.32328C100.754 3.19934 101.844 3.10612 102.934 3.0355C105.85 2.82717 108.759 2.75644 111.656 2.82306C118.354 2.97928 124.985 3.86147 131.424 5.41702C137.862 6.9652 144.125 9.19448 150.079 12.0525C151.972 12.9601 153.836 13.9291 155.67 14.9671C158.416 16.524 161.087 18.2114 163.675 20.0524C176.582 29.1805 187.291 41.7027 194.247 57.0289C206.264 83.4904 204.484 112.529 191.956 136.308Z" fill="white"/>
<path d="M110.447 185.322C109.341 185.322 108.235 185.303 107.129 185.264C105.361 185.195 103.573 185.079 101.813 184.919C68.4282 181.801 39.1778 161.111 25.4761 130.921C15.3824 108.693 14.6146 83.9477 23.3132 61.2436C32.0815 38.3583 49.3917 20.2893 72.0547 10.3646C80.8973 6.49957 90.1787 4.03644 99.6416 3.04301C100.679 2.92403 101.751 2.8296 102.916 2.75403C105.822 2.54654 108.765 2.47327 111.662 2.54122C118.316 2.69648 124.986 3.57201 131.489 5.14316C137.933 6.69243 144.228 8.9315 150.2 11.7984C152.116 12.7165 154.003 13.7001 155.808 14.7217C158.616 16.3136 161.318 18.03 163.838 19.8228C177.165 29.2479 187.769 42.0737 194.503 56.9125C206.154 82.5673 205.316 111.554 192.205 136.439C184.936 150.235 174.139 162 160.98 170.463C158.192 172.254 155.297 173.905 152.375 175.37C151.037 176.046 149.581 176.732 147.925 177.468C143.421 179.44 138.744 181.062 134.022 182.291C130.068 183.33 125.97 184.115 121.842 184.624C118.093 185.088 114.273 185.322 110.447 185.322ZM109.562 3.08086C107.363 3.08086 105.149 3.1597 102.954 3.3164C101.796 3.39137 100.734 3.48495 99.7032 3.60309C90.2952 4.59083 81.0697 7.03945 72.2804 10.8809C49.757 20.7444 32.5534 38.7019 23.8394 61.4452C15.1951 84.0073 15.9585 108.598 25.989 130.687C39.6074 160.694 68.6813 181.259 101.865 184.357C103.615 184.517 105.392 184.632 107.149 184.7C112.049 184.875 116.97 184.66 121.772 184.065C125.875 183.558 129.949 182.778 133.879 181.745C138.573 180.524 143.222 178.911 147.697 176.952C149.343 176.221 150.791 175.539 152.121 174.867C155.027 173.41 157.904 171.769 160.675 169.989C173.752 161.579 184.482 149.886 191.706 136.176C204.736 111.446 205.568 82.6406 193.989 57.1458C187.297 42.3976 176.757 29.6506 163.512 20.2825C161.006 18.5004 158.321 16.7948 155.53 15.2121C153.736 14.1969 151.861 13.2192 149.956 12.3068C144.02 9.45663 137.762 7.23085 131.357 5.69114C124.893 4.12954 118.262 3.25933 111.649 3.10456C110.956 3.08884 110.259 3.08086 109.562 3.08086Z" fill="#1E3A59"/>
<path d="M25.733 130.802C39.9037 162.036 69.6428 181.635 101.841 184.636C103.6 184.799 105.366 184.914 107.137 184.981C112.002 185.155 116.906 184.949 121.805 184.346C125.862 183.842 129.926 183.076 133.949 182.02C138.626 180.805 143.254 179.207 147.812 177.213C149.317 176.538 150.801 175.85 152.249 175.122C155.225 173.628 158.079 171.988 160.827 170.225C174.292 161.565 184.853 149.795 191.957 136.306C195.861 128.899 198.723 120.975 200.448 112.78C193.37 125.495 183.168 136.586 170.322 144.849C167.577 146.619 164.72 148.252 161.745 149.746C160.302 150.476 158.818 151.164 157.308 151.837C152.749 153.831 148.121 155.429 143.449 156.646C139.421 157.7 135.363 158.468 131.306 158.972C126.407 159.575 121.497 159.779 116.638 159.607C114.861 159.538 113.096 159.423 111.336 159.261C79.138 156.259 49.4045 136.662 35.2281 105.426C26.9533 87.2067 25.2259 67.7643 29.039 49.6631C15.5972 73.7784 13.4013 103.651 25.733 130.802Z" fill="#E8E8E8"/>
<path d="M110.448 187.212C109.32 187.212 108.191 187.192 107.063 187.152C105.256 187.082 103.435 186.964 101.643 186.8C67.5805 183.62 37.7382 162.508 23.7574 131.702C13.4535 109.01 12.6697 83.7481 21.5507 60.5685C30.5011 37.2077 48.1685 18.7639 71.2983 8.63507C80.3199 4.69184 89.7896 2.17902 99.4455 1.1654C100.496 1.04497 101.598 0.947517 102.795 0.870253C105.748 0.658896 108.75 0.585378 111.706 0.653573C118.495 0.812453 125.3 1.7054 131.934 3.30799C138.504 4.8876 144.926 7.1719 151.019 10.0967C152.972 11.0324 154.897 12.0361 156.739 13.0788C159.604 14.7032 162.361 16.4543 164.934 18.2846C178.53 27.9001 189.351 40.9889 196.223 56.1329C208.117 82.3224 207.262 111.914 193.877 137.32C186.456 151.403 175.434 163.414 162.002 172.052C159.158 173.88 156.204 175.564 153.222 177.059C151.861 177.747 150.377 178.446 148.693 179.194C144.088 181.21 139.316 182.866 134.498 184.119C130.467 185.178 126.285 185.98 122.074 186.499C118.25 186.973 114.352 187.212 110.448 187.212ZM109.563 4.97019C107.409 4.97019 105.24 5.04721 103.09 5.20101C101.951 5.27477 100.918 5.36569 99.9192 5.48032C90.6866 6.44944 81.6493 8.84824 73.0381 12.612C50.982 22.271 34.1359 39.8539 25.6043 62.1216C17.1418 84.2082 17.8899 108.281 27.7099 129.907C41.0488 159.298 69.5311 179.442 102.042 182.477C103.755 182.634 105.499 182.747 107.223 182.814C112.018 182.983 116.837 182.774 121.541 182.191C125.562 181.695 129.552 180.93 133.401 179.919C138.002 178.722 142.557 177.142 146.941 175.223C148.549 174.509 149.968 173.839 151.271 173.181C154.122 171.752 156.941 170.144 159.655 168.401C172.457 160.167 182.964 148.718 190.036 135.297C202.792 111.087 203.606 82.8866 192.271 57.9273C185.716 43.4838 175.395 30.9998 162.422 21.8253C159.965 20.0774 157.335 18.4066 154.6 16.8559C152.844 15.8622 151.007 14.9046 149.142 14.0108C143.323 11.2175 137.192 9.03699 130.916 7.52823C124.581 5.99735 118.085 5.14479 111.605 4.99364C110.927 4.97793 110.246 4.97019 109.563 4.97019Z" fill="#1E3A59"/>
<path d="M110.448 187.841C109.312 187.841 108.176 187.821 107.041 187.78C105.222 187.71 103.389 187.591 101.586 187.427C67.2979 184.225 37.2584 162.973 23.1842 131.962C12.8101 109.116 12.0212 83.6812 20.9628 60.3431C29.9743 36.8237 47.7606 18.2552 71.0456 8.05805C80.1271 4.08906 89.6594 1.55955 99.38 0.539041C100.435 0.418007 101.547 0.319703 102.754 0.241835C105.722 0.0296316 108.746 -0.0426749 111.721 0.0239484C118.555 0.183675 125.405 1.08254 132.082 2.69577C138.695 4.28566 145.159 6.58471 151.291 9.52872C153.257 10.4704 155.195 11.4809 157.05 12.5306C159.934 14.1657 162.709 15.9287 165.299 17.7713C178.984 27.4503 189.879 40.6267 196.797 55.8723C208.772 82.2404 207.911 112.034 194.434 137.613V137.613C186.963 151.793 175.866 163.884 162.343 172.582C159.48 174.421 156.507 176.116 153.505 177.621C152.136 178.313 150.643 179.017 148.949 179.769C144.311 181.8 139.507 183.466 134.657 184.728C130.6 185.794 126.391 186.6 122.151 187.124C118.302 187.601 114.378 187.841 110.448 187.841ZM109.563 5.59939C107.424 5.59939 105.27 5.67617 103.135 5.82876C102.002 5.90228 100.98 5.99224 99.9911 6.10566C90.8169 7.06885 81.8422 9.45085 73.2904 13.1886C51.3904 22.779 34.6634 40.2375 26.1923 62.3466C17.791 84.2745 18.5334 108.175 28.2832 129.647C41.5294 158.833 69.8145 178.836 102.101 181.851C103.801 182.006 105.535 182.118 107.248 182.184C112.007 182.354 116.793 182.145 121.464 181.566C125.457 181.073 129.419 180.314 133.241 179.31C137.812 178.121 142.335 176.552 146.689 174.646C148.284 173.937 149.694 173.272 150.987 172.619C153.82 171.199 156.619 169.602 159.315 167.871C172.026 159.696 182.458 148.329 189.48 135.003C202.144 110.967 202.952 82.9684 191.698 58.1874C185.189 43.8452 174.94 31.4492 162.059 22.3391C159.618 20.6025 157.006 18.9435 154.289 17.4035C152.547 16.4172 150.723 15.4661 148.87 14.5784C143.091 11.8044 137.002 9.6385 130.77 8.14014C124.477 6.6199 118.025 5.77326 111.591 5.62297C110.917 5.60701 110.241 5.59939 109.563 5.59939Z" fill="#1E3A59"/>
<path d="M178.46 155.418C125.05 193.413 50.9683 167.787 45.8978 103.473C42.4482 59.7174 83.2034 22.8164 126.006 22.4483C157.159 22.1804 187.759 35.3615 201.639 82.9396C201.639 82.9396 204.49 104.921 198.711 119.657C192.932 134.392 184.786 147.748 184.786 147.748L178.46 155.418Z" fill="#0056A8"/>
<g opacity="0.35">
<path d="M45.9012 103.473C50.9701 167.786 125.053 193.411 178.462 155.421L179.743 153.865C120.41 165.121 60.4459 130.74 54.0936 65.8018C47.9787 77.1205 44.8389 89.9703 45.9012 103.473Z" fill="#111A28"/>
</g>
<path d="M124.123 184.947C101.587 184.947 79.9771 177.478 63.6489 163.814C46.0081 149.051 35.6767 128.494 33.7717 104.365C32.023 82.196 40.0137 60.2151 56.2714 42.4717C74.3241 22.7698 100.477 10.8753 126.229 10.6536C140.529 10.5344 153.464 12.939 164.651 17.8122L164.881 17.9126L165.086 18.0575C178.726 27.7044 189.58 40.8316 196.472 56.0195C208.401 82.2869 207.543 111.967 194.118 137.448C186.676 151.573 175.621 163.618 162.149 172.282C159.297 174.115 156.335 175.804 153.344 177.304C151.979 177.993 150.492 178.694 148.803 179.445C144.184 181.467 139.398 183.127 134.567 184.384L134.191 184.451C130.825 184.783 127.464 184.947 124.123 184.947ZM127.272 15.5378C126.939 15.5378 126.606 15.5393 126.271 15.5423C101.85 15.7524 77.029 27.0541 59.8759 45.7745C44.5442 62.5073 37.0045 83.1786 38.6455 103.981C40.4445 126.771 50.1753 146.164 66.7862 160.065C84.4887 174.879 108.802 181.998 133.521 179.605C138.041 178.418 142.518 176.86 146.831 174.972C148.433 174.26 149.848 173.593 151.147 172.937C153.99 171.512 156.8 169.909 159.506 168.171C172.27 159.962 182.743 148.55 189.793 135.169C202.509 111.035 203.321 82.9224 192.021 58.0407C185.521 43.7177 175.305 31.3273 162.469 22.1947C152.227 17.776 140.391 15.5378 127.272 15.5378Z" fill="#1E3A59"/>
<path d="M123.945 174.718C111.435 174.718 99.0623 172.104 87.6703 166.784C62.3915 154.979 46.6114 131.946 44.3762 103.592C42.8355 84.0495 49.8851 64.6673 64.2265 49.0161C80.1681 31.6189 103.259 21.1154 125.994 20.92C165.157 20.5873 191.086 41.3052 203.107 82.5111L203.155 82.7423C203.273 83.6559 205.989 105.285 200.135 120.213C194.374 134.903 186.173 148.408 186.091 148.543L185.966 148.719L179.511 156.545L179.347 156.662C162.583 168.587 143.104 174.718 123.945 174.718ZM126.918 23.9716C126.618 23.9716 126.321 23.9728 126.02 23.9754C104.117 24.1638 81.8587 34.2965 66.4791 51.0803C52.7166 66.1 45.9486 84.6636 47.422 103.352C49.5684 130.578 64.7097 152.689 88.9632 164.016C116.751 176.993 150.623 173.263 177.412 154.289L183.537 146.861C184.259 145.664 191.875 132.906 197.29 119.098C202.646 105.44 200.344 84.9617 200.139 83.2487C188.626 43.9104 163.992 23.9716 126.918 23.9716Z" fill="#1E3A59"/>
<path d="M4.87565 99.9987C4.09286 117.947 14.1815 133.503 27.4138 134.741C40.6461 135.978 52.007 122.43 52.7898 104.482C52.7968 104.369 52.7989 104.25 52.7998 104.137C53.4435 86.334 43.3911 70.9676 30.2516 69.7397C20.0296 68.7829 10.9247 76.6512 6.94871 88.5526C5.78008 92.0573 5.05388 95.917 4.87565 99.9987Z" fill="white"/>
<path d="M4.87565 99.9988C4.09286 117.947 14.1815 133.503 27.4138 134.741C40.6461 135.979 52.007 122.43 52.7898 104.482C52.7968 104.37 52.7989 104.25 52.7998 104.137C51.2648 105.842 48.9215 107.444 45.8806 106.546C40.5548 104.97 31.4163 92.5269 31.4163 92.5269C31.4163 92.5269 20.8169 90.7345 6.94871 88.5527C5.78008 92.0574 5.05388 95.9171 4.87565 99.9988Z" fill="#E8E8E8"/>
<path d="M29.1191 137.619C28.4667 137.619 27.8115 137.589 27.1534 137.527C12.48 136.155 1.23019 119.265 2.07598 99.8769C2.56339 88.7 6.87263 78.7772 13.8987 72.6521C18.8153 68.3664 24.5621 66.3945 30.5098 66.9518C45.1832 68.3241 56.433 85.2137 55.5872 104.602C55.0998 115.779 50.7906 125.701 43.7648 131.826C39.3921 135.638 34.3642 137.619 29.1191 137.619ZM7.67065 100.121C6.95303 116.574 15.9271 130.853 27.6748 131.951C32.06 132.361 36.3525 130.859 40.085 127.605C45.8741 122.559 49.5781 113.868 49.9928 104.358C50.7104 87.9055 41.7363 73.6263 29.9886 72.5277C25.6026 72.1152 21.3107 73.6203 17.5788 76.8736C11.7897 81.9202 8.08539 90.6109 7.67065 100.121Z" fill="#1E3A59"/>
<path d="M21.279 130.476C31.2794 130.336 39.2199 118.33 39.0145 103.659C38.8091 88.9877 30.5356 77.208 20.5351 77.348C10.5347 77.4881 2.59426 89.4947 2.79967 104.166C3.00508 118.837 11.2786 130.616 21.279 130.476Z" fill="white"/>
<path d="M19.8645 130.411C9.87458 129.398 2.25244 116.714 2.83282 102.074C2.89243 100.484 3.05542 98.937 3.29616 97.4446C5.52834 107.642 11.8828 115.355 19.649 116.134C28.4191 117.014 36.115 108.752 38.3438 96.9443C38.879 99.7333 39.114 102.696 38.9956 105.74C38.4152 120.381 29.8486 131.422 19.8645 130.411Z" fill="#E8E8E8"/>
<path d="M21.1487 133.276C20.628 133.276 20.1049 133.25 19.5798 133.197C7.97195 132.02 -0.613271 118.301 0.0343416 101.964C0.41135 92.4593 4.03839 83.8303 9.73693 78.882C13.4667 75.6424 17.7921 74.1683 22.2463 74.6211C33.8541 75.7981 42.4393 89.5168 41.7917 105.853C41.4147 115.359 37.7876 123.988 32.0888 128.936C28.7985 131.793 25.0448 133.276 21.1487 133.276ZM20.7095 80.1433C18.1628 80.1433 15.6575 81.1577 13.4086 83.1104C8.85487 87.0647 5.94689 94.196 5.6301 102.186C5.11706 115.126 11.7637 126.775 20.1448 127.625C23.0221 127.92 25.8835 126.908 28.4172 124.707C32.9713 120.753 35.8793 113.622 36.1959 105.631C36.709 92.692 30.0622 81.0422 21.6812 80.1927C21.3571 80.1595 21.0327 80.1433 20.7095 80.1433Z" fill="#1E3A59"/>
<g opacity="0.5">
<path d="M103.548 39.4852C103.548 39.4852 143.724 37.5072 166.792 60.7905C166.816 60.8149 166.84 60.8394 166.864 60.8639C171.715 65.7682 176.346 76.0981 178.03 82.736C180.257 91.5145 180.489 97.8793 180.475 103.489C180.424 120.551 177.163 128.52 177.163 128.52C187.03 119.582 192.605 109.392 192.79 95.1819C192.805 93.7811 192.767 92.3357 192.681 90.8532C192.663 90.5115 192.637 90.1733 192.605 89.8327C192.613 89.8295 192.609 89.822 192.6 89.8124C192.212 86.8206 191.552 82.9072 190.434 78.5527C187.069 65.4171 179.574 48.2595 162.928 40.1943C131.802 25.1136 102.128 37.6922 103.548 39.4852Z" fill="white"/>
</g>
<g opacity="0.5">
<path d="M84.8392 84.3231C86.9795 76.7866 83.396 69.1667 76.8351 67.3035C70.2743 65.4402 63.2207 70.0393 61.0804 77.5757C58.9401 85.1122 62.5237 92.7321 69.0845 94.5953C75.6453 96.4585 82.6989 91.8595 84.8392 84.3231Z" fill="white"/>
</g>
<g opacity="0.5">
<path d="M70.8741 107.65C72.0437 104.632 70.8639 101.362 68.239 100.344C65.6141 99.3268 62.5381 100.948 61.3686 103.965C60.1991 106.983 61.3789 110.253 64.0038 111.271C66.6286 112.288 69.7046 110.667 70.8741 107.65Z" fill="white"/>
</g>
<path d="M270.59 233.318C270.59 233.318 290.172 243.548 288.55 269.318C287.795 281.307 280.428 295.993 276.479 295.822C272.529 295.652 278.442 267.477 263.397 260.887C246.82 253.626 270.59 233.318 270.59 233.318Z" fill="#FF4545"/>
<path d="M263.399 260.886C278.443 267.481 272.533 295.651 276.482 295.821C278.019 295.891 280.068 293.715 282.046 290.321C285.156 284.987 288.086 276.646 288.551 269.319C289.076 260.935 287.364 254.199 284.804 248.924C279.509 237.976 270.594 233.319 270.594 233.319C270.594 233.319 246.819 253.629 263.399 260.886Z" fill="#FF0606"/>
<g opacity="0.25">
<path d="M263.399 260.886C278.443 267.481 272.533 295.651 276.482 295.821C278.019 295.891 280.068 293.715 282.046 290.321C280.131 290.538 278.487 289.542 278.38 285.572C278.091 274.532 275.025 268.137 276.263 264.717C277.569 261.09 282.081 255.42 284.804 248.924C279.509 237.976 270.594 233.319 270.594 233.319C270.594 233.319 246.819 253.629 263.399 260.886Z" fill="#1E3A59"/>
</g>
<path d="M276.531 297.69C276.486 297.69 276.442 297.69 276.397 297.688C273.366 297.557 273.149 293.936 272.791 287.938C272.28 279.392 271.507 266.479 262.646 262.598C258.592 260.822 256.275 258.157 255.759 254.677C254.335 245.062 267.833 233.218 269.377 231.899C269.956 231.403 270.778 231.311 271.454 231.664C271.66 231.772 292.091 242.764 290.412 269.435C289.669 281.232 282.4 297.69 276.531 297.69ZM270.802 235.626C266.59 239.486 258.575 248.217 259.454 254.131C259.774 256.284 261.308 257.935 264.145 259.177C275.099 263.975 275.953 278.261 276.518 287.715C276.647 289.878 276.803 292.475 277.097 293.718C279.783 291.896 285.991 280.225 286.685 269.2C287.995 248.39 274.734 238.179 270.802 235.626Z" fill="#1E3A59"/>
<g opacity="0.5">
<path d="M283.615 272.477C285.166 269.44 285.589 260.163 282.766 259.09C280.08 258.07 282.063 275.514 283.615 272.477Z" fill="white"/>
</g>
<path d="M230.133 224.885C230.133 224.885 208.094 226.438 199.285 250.709C195.186 262.002 196.071 278.408 199.76 279.829C203.448 281.251 209.287 253.061 225.711 253.031C243.808 252.999 230.133 224.885 230.133 224.885Z" fill="#FF4545"/>
<path d="M225.71 253.029C209.285 253.063 203.446 281.249 199.758 279.826C198.321 279.276 197.313 276.463 196.855 272.561C196.135 266.429 196.782 257.612 199.284 250.71C202.152 242.814 206.413 237.323 210.868 233.51C220.096 225.591 230.13 224.884 230.13 224.884C230.13 224.884 243.809 253.001 225.71 253.029Z" fill="#FF0606"/>
<g opacity="0.25">
<path d="M225.711 253.029C209.285 253.063 203.446 281.248 199.759 279.826C198.321 279.276 197.313 276.463 196.855 272.561C198.524 273.526 200.429 273.269 202.114 269.673C206.79 259.668 212.156 255.03 212.387 251.4C212.639 247.554 210.769 240.553 210.868 233.51C220.096 225.591 230.13 224.884 230.13 224.884C230.13 224.884 243.809 253.001 225.711 253.029Z" fill="#1E3A59"/>
</g>
<path d="M200.142 281.782C199.808 281.782 199.458 281.713 199.089 281.571C193.586 279.45 193.466 261.269 197.531 250.072C206.648 224.951 229.769 223.038 230.002 223.021C230.766 222.968 231.479 223.381 231.812 224.067C232.7 225.893 240.341 242.144 235.193 250.389C233.33 253.372 230.141 254.89 225.715 254.897C216.041 254.915 210.174 266.444 206.291 274.074C203.921 278.731 202.368 281.782 200.142 281.782ZM229.012 226.902C224.35 227.63 208.225 231.55 201.041 251.346C197.282 261.702 198.294 274.84 200.042 277.64C200.809 276.612 201.983 274.304 202.963 272.38C207.258 263.94 213.749 251.185 225.708 251.164C228.806 251.158 230.873 250.258 232.026 248.411C235.2 243.326 231.332 232.114 229.012 226.902Z" fill="#1E3A59"/>
<g opacity="0.5">
<path d="M202.547 255.577C202.339 252.174 205.658 243.5 208.675 243.644C211.545 243.782 202.756 258.981 202.547 255.577Z" fill="white"/>
</g>
<path d="M217.782 267.727C216.307 271.004 217.147 274.852 219.842 277.23C223.147 280.147 228.896 283.632 238.571 285.649C248.246 287.666 254.911 286.769 259.107 285.415C262.528 284.312 264.837 281.12 264.794 277.526L264.339 239.767C264.321 238.307 263.291 237.056 261.862 236.758L236.76 231.525C235.331 231.227 233.887 231.962 233.287 233.293L217.782 267.727Z" fill="#B5B5B5"/>
<path d="M219.84 277.23C223.148 280.15 228.898 283.634 238.572 285.651C248.246 287.667 254.909 286.771 259.108 285.416C262.528 284.314 264.838 281.118 264.792 277.527L264.721 271.769L264.335 239.768C264.322 238.305 263.287 237.057 261.858 236.759L236.761 231.527C235.332 231.229 233.884 231.96 233.288 233.296L220.147 262.477L217.782 267.727C216.304 271.006 217.145 274.854 219.84 277.23Z" fill="#B5B5B5"/>
<path d="M220.146 262.477C220.609 263.6 221.335 264.631 222.289 265.477C225.597 268.397 231.347 271.881 241.021 273.898C250.695 275.915 257.359 275.019 261.558 273.664C262.771 273.269 263.848 272.614 264.721 271.769L264.335 239.768C264.322 238.305 263.287 237.057 261.858 236.759L236.76 231.527C235.331 231.229 233.883 231.96 233.287 233.296L220.146 262.477Z" fill="#8E8E8E"/>
<path d="M249.196 289C246.035 289.001 242.352 288.664 238.125 287.782C227.714 285.612 221.652 281.734 218.399 278.864C214.965 275.834 213.919 270.999 215.795 266.833L231.299 232.399C232.327 230.118 234.755 228.884 237.203 229.393L262.305 234.626C264.754 235.136 266.485 237.24 266.516 239.741L266.97 277.5C267.025 282.069 264.133 286.084 259.774 287.489C257.321 288.28 253.817 289 249.196 289ZM236.119 233.638C235.758 233.638 235.426 233.847 235.272 234.189L219.767 268.622C219.767 268.622 219.767 268.622 219.767 268.622C218.68 271.036 219.289 273.839 221.281 275.597C224.14 278.12 229.536 281.542 239.014 283.517C248.492 285.494 254.808 284.514 258.438 283.342C260.967 282.527 262.646 280.2 262.614 277.553L262.159 239.793C262.154 239.352 261.848 238.981 261.416 238.891L236.314 233.658C236.249 233.644 236.184 233.638 236.119 233.638Z" fill="#1E3A59"/>
<path d="M251.073 279.253C247.964 279.253 244.333 278.921 240.158 278.05C229.911 275.914 223.967 272.117 220.785 269.309C219.42 268.108 218.431 266.552 217.928 264.809C217.836 264.49 217.86 264.149 217.997 263.846L232.013 232.721C232.868 230.807 234.985 229.725 237.048 230.157L262.146 235.389C264.208 235.818 265.719 237.655 265.737 239.756L266.149 273.884C266.153 274.216 266.039 274.538 265.827 274.794C264.67 276.19 263.142 277.222 261.408 277.779C259.016 278.55 255.595 279.253 251.073 279.253ZM220.772 264.501C221.157 265.54 221.795 266.468 222.636 267.208C225.566 269.795 231.082 273.298 240.73 275.31C250.376 277.319 256.832 276.313 260.55 275.113C261.619 274.771 262.575 274.174 263.343 273.375L262.937 239.786C262.93 238.987 262.357 238.293 261.575 238.13L236.477 232.898C235.696 232.735 234.891 233.142 234.568 233.867L220.772 264.501Z" fill="#1E3A59"/>
<path d="M287.551 73.2953C285.305 70.7144 281.613 69.9448 278.523 71.4133C252.565 83.7486 223.554 115.47 216.196 162.277C209.601 204.233 216.578 241.402 219.301 253.414C219.952 256.289 221.653 258.828 224.09 260.485C227.644 262.903 233.695 266.178 242.258 267.964C250.822 269.749 257.677 269.164 261.901 268.368C264.797 267.822 267.371 266.174 269.117 263.799C276.412 253.876 297.661 222.59 308.379 181.494C320.337 135.646 306.418 94.9752 287.551 73.2953Z" fill="white"/>
<path d="M216.199 162.276C212.264 187.308 213.157 210.634 215.105 227.935C215.105 227.935 215.103 227.941 215.108 227.948C216.418 239.66 218.213 248.607 219.307 253.442C219.962 256.31 221.66 258.833 224.096 260.483C227.649 262.904 233.7 266.176 242.261 267.961C250.823 269.745 257.677 269.164 261.901 268.365C264.794 267.825 267.359 266.19 269.099 263.822C272.04 259.828 277.26 252.343 283.141 242.131C283.148 242.126 283.149 242.12 283.149 242.12C291.847 227.039 301.987 206.013 308.381 181.493C320.339 135.645 306.418 94.973 287.554 73.2927C285.308 70.7116 281.616 69.9418 278.526 71.4102C252.565 83.7457 223.558 115.468 216.199 162.276Z" fill="white"/>
<path d="M213.448 197.302C213.387 208.7 214.11 219.102 215.105 227.935C215.105 227.935 215.099 227.942 215.105 227.949C216.415 239.661 218.209 248.603 219.307 253.439C219.962 256.311 221.66 258.835 224.096 260.485C227.649 262.907 233.7 266.174 242.26 267.961C250.821 269.748 257.676 269.162 261.898 268.363C264.79 267.825 267.355 266.187 269.094 263.821C272.041 259.83 277.259 252.341 283.139 242.13C283.146 242.123 283.146 242.123 283.146 242.123C291.842 227.042 301.985 206.012 308.377 181.491C320.337 135.644 306.417 94.9736 287.553 73.2903C285.307 70.7088 281.615 69.9388 278.525 71.4073C252.563 83.7434 223.555 115.47 216.197 162.276C215.569 166.259 215.065 170.209 214.669 174.09C213.844 182.139 213.482 189.928 213.448 197.302Z" fill="white"/>
<path d="M213.448 197.302C217.971 196.633 224.955 194.396 228.305 187.098C231.21 180.734 220.147 176 214.669 174.09C213.844 182.139 213.482 189.928 213.448 197.302Z" fill="#E8E8E8"/>
<path d="M215.106 227.948C216.417 239.66 218.212 248.607 219.306 253.442C219.96 256.31 221.658 258.833 224.095 260.483C227.647 262.904 233.699 266.176 242.26 267.961C250.821 269.746 257.676 269.164 261.9 268.365C264.792 267.825 267.357 266.191 269.097 263.822C272.038 259.828 277.259 252.344 283.139 242.131C282.754 242.717 269.636 262.413 262.785 258.547C254.808 254.049 260.434 238.259 249.045 235.414C237.468 233.471 236.316 250.193 227.206 251.129C219.381 251.936 215.225 228.639 215.106 227.948Z" fill="#DBDBDB"/>
<path d="M253.362 271.624C249.973 271.624 246.066 271.3 241.751 270.401C232.799 268.535 226.444 265.098 222.691 262.543C219.738 260.535 217.672 257.488 216.873 253.964C213.747 240.171 207.183 203.587 213.738 161.89C221.568 112.077 252.956 80.807 277.455 69.1646C281.538 67.2243 286.463 68.2506 289.43 71.6611C307.236 92.1226 323.514 133.329 310.788 182.122C300.135 222.969 279.501 253.88 271.124 265.274C268.984 268.185 265.872 270.153 262.363 270.814C260.051 271.25 257.005 271.623 253.362 271.624ZM281.788 73.1673C281.043 73.1673 280.293 73.3283 279.592 73.6615C256.188 84.7835 226.185 114.766 218.656 162.663C212.055 204.656 219.34 242.32 221.729 252.864C222.248 255.154 223.585 257.129 225.491 258.427C228.873 260.728 234.614 263.827 242.767 265.526C250.919 267.226 257.42 266.679 261.44 265.921C263.707 265.494 265.721 264.217 267.112 262.325C273.515 253.615 295.242 222.001 305.971 180.866C318.207 133.95 302.684 94.4768 285.673 74.9295C284.676 73.7835 283.244 73.1673 281.788 73.1673Z" fill="#1E3A59"/>
<path d="M235.512 110.962C246.506 115.643 259.07 119.594 272.603 122.415C286.135 125.237 299.231 126.635 311.18 126.736C307.565 104.397 298.359 85.7029 287.53 73.2669C285.285 70.6885 281.586 69.9544 278.499 71.4231C263.616 78.5027 247.736 91.9516 235.512 110.962Z" fill="#FF0606"/>
<path d="M311.181 128.837C311.175 128.837 311.169 128.837 311.163 128.837C298.676 128.73 285.558 127.262 272.174 124.472C258.791 121.682 246.179 117.786 234.689 112.894C234.12 112.652 233.687 112.171 233.505 111.58C233.323 110.988 233.411 110.347 233.746 109.826C245.36 91.7661 260.933 77.4543 277.597 69.527C281.537 67.6539 286.272 68.6248 289.114 71.8879C301.247 85.8216 309.82 105.181 313.254 126.401C313.352 127.012 313.177 127.635 312.774 128.105C312.375 128.57 311.793 128.837 311.181 128.837ZM238.658 109.999C249.266 114.331 260.816 117.813 273.032 120.36C285.248 122.907 297.227 124.33 308.682 124.597C305.126 105.116 297.102 87.4567 285.947 74.6463C284.337 72.7974 281.646 72.2514 279.402 73.3197C264.081 80.6077 249.689 93.5808 238.658 109.999Z" fill="#1E3A59"/>
<path d="M237.521 290.689C263.151 249.994 253.018 238.041 248.685 237.137C244.351 236.234 230.29 243.144 237.521 290.689Z" fill="#FF0606"/>
<g opacity="0.5">
<path d="M243.989 252.161C242.818 257.778 242.539 262.471 243.367 262.644C244.194 262.816 245.814 258.403 246.985 252.786C248.156 247.169 248.434 242.475 247.607 242.303C246.78 242.13 245.16 246.544 243.989 252.161Z" fill="white"/>
</g>
<path d="M237.52 292.557C237.393 292.557 237.266 292.544 237.138 292.517C236.375 292.358 235.791 291.741 235.674 290.97C230.204 255.001 237.01 242.412 241.554 238.11C243.92 235.869 246.728 234.824 249.064 235.309C251.401 235.796 253.557 237.879 254.832 240.879C257.278 246.639 258.487 260.899 239.099 291.684C238.753 292.234 238.152 292.557 237.52 292.557ZM247.928 238.931C247.12 238.931 245.701 239.326 244.121 240.821C241.05 243.729 234.637 253.766 238.647 285.279C254.917 257.996 253.048 246.232 251.395 242.338C250.391 239.975 248.978 239.106 248.302 238.965C248.199 238.944 248.074 238.931 247.928 238.931Z" fill="#1E3A59"/>
<g opacity="0.5">
<path d="M298.307 112.509C299.081 103.887 291.286 81.6407 283.622 81.7908C276.33 81.9335 297.532 121.13 298.307 112.509Z" fill="white"/>
</g>
<path d="M285.151 178.131C286.868 188.414 282.098 199.117 272.469 204.48C262.215 210.197 249.699 208.041 241.901 199.99L241.897 199.989C240.388 198.433 239.056 196.653 237.95 194.669C231.126 182.428 235.518 166.972 247.761 160.15C260.004 153.324 275.458 157.718 282.282 169.959C283.738 172.574 284.685 175.338 285.151 178.131Z" fill="#0096F0"/>
<g opacity="0.7">
<path d="M274.086 203.273C282.961 195.28 285.479 181.949 279.414 171.075C273.882 161.146 262.852 156.224 252.25 157.987C263.541 154.332 276.201 159.025 282.197 169.786C288.696 181.446 285.022 196.016 274.086 203.273Z" fill="white"/>
</g>
<path d="M260.161 209.243C250.703 209.243 241.513 204.258 236.59 195.427C233.088 189.143 232.242 181.871 234.209 174.952C236.176 168.032 240.719 162.292 247.003 158.79C253.287 155.287 260.559 154.442 267.478 156.408C274.398 158.375 280.138 162.918 283.64 169.202C287.143 175.486 287.989 182.757 286.022 189.678C284.055 196.598 279.512 202.337 273.228 205.84C269.088 208.147 264.595 209.243 260.161 209.243ZM260.081 158.483C256.074 158.483 252.114 159.504 248.518 161.508C242.961 164.605 238.942 169.682 237.202 175.802C235.463 181.923 236.211 188.354 239.309 193.912C243.662 201.722 251.791 206.13 260.156 206.131C264.078 206.131 268.051 205.162 271.713 203.121C277.271 200.024 281.289 194.947 283.029 188.827C284.768 182.706 284.02 176.275 280.922 170.717C277.824 165.159 272.748 161.141 266.628 159.401C264.467 158.787 262.267 158.483 260.081 158.483Z" fill="#1E3A59"/>
<path d="M259.716 200.043C269.574 200.043 277.565 192.052 277.565 182.194C277.565 172.336 269.574 164.345 259.716 164.345C249.858 164.345 241.866 172.336 241.866 182.194C241.866 192.052 249.858 200.043 259.716 200.043Z" fill="#22A7F0"/>
<path d="M244.128 190.884C245.893 194.056 248.48 196.478 251.481 198.026C254.115 199.4 257.068 200.095 260.056 200.04C261.692 200.014 263.341 199.753 264.954 199.258C266.129 198.898 267.288 198.407 268.408 197.785C271.651 195.974 274.114 193.304 275.662 190.217C278.223 185.111 278.296 178.869 275.309 173.505C273.507 170.276 270.853 167.822 267.78 166.271C263.529 164.12 258.472 163.701 253.794 165.36C252.853 165.683 251.928 166.101 251.023 166.603C250.456 166.919 249.908 167.263 249.385 167.63C246.884 169.4 244.956 171.73 243.682 174.354C241.208 179.423 241.17 185.581 244.128 190.884Z" fill="#22A7F0"/>
<g opacity="0.5">
<path d="M253.794 165.36L264.954 199.258C266.129 198.898 267.289 198.407 268.408 197.785C271.651 195.974 274.114 193.304 275.662 190.217L267.78 166.271C263.529 164.12 258.472 163.701 253.794 165.36Z" fill="white"/>
</g>
<g opacity="0.5">
<path d="M243.682 174.354L251.481 198.025C254.115 199.4 257.068 200.095 260.055 200.039L249.385 167.63C246.884 169.4 244.956 171.729 243.682 174.354Z" fill="white"/>
</g>
<path d="M259.75 201.594C252.935 201.594 246.313 198.005 242.766 191.643C237.556 182.295 240.922 170.452 250.269 165.243C259.614 160.035 271.456 163.4 276.666 172.748C279.19 177.274 279.8 182.513 278.383 187.499C276.966 192.485 273.691 196.62 269.164 199.144C266.181 200.806 262.944 201.594 259.75 201.594ZM259.687 165.903C257.005 165.903 254.288 166.565 251.783 167.961C243.935 172.335 241.109 182.279 245.483 190.128C249.859 197.972 259.802 200.798 267.649 196.425C271.45 194.307 274.199 190.834 275.389 186.648C276.579 182.462 276.067 178.064 273.948 174.263C273.947 174.263 273.947 174.263 273.947 174.263C270.969 168.919 265.409 165.903 259.687 165.903Z" fill="#1E3A59"/>
<path d="M198.162 191.005C198.861 180.456 202.69 167.199 215.511 168.314C226.235 169.246 230.566 179.627 227.167 184.84C223.065 191.13 210.463 187.723 210.463 187.723" fill="white"/>
<path d="M196.067 190.866C196.038 182.626 197.955 173.112 205.209 167.946C213.093 162.642 225.167 165.513 229.577 174.032C231.436 177.581 232.04 181.928 230.024 185.717C227.005 191.129 220.154 191.887 214.809 190.666C213.157 190.306 211.639 189.82 210.098 189.074C209.391 188.73 209.097 187.877 209.442 187.17C209.69 186.661 210.202 186.366 210.734 186.37C215.57 186.257 226.132 187.197 225.286 180.122C224.549 173.845 217.509 170.211 211.657 171.416C206.299 172.489 203.724 177.609 202.151 182.564C201.295 185.308 200.725 188.215 200.254 191.166C199.819 193.683 196.135 193.411 196.067 190.866Z" fill="#1E3A59"/>
</svg>
