<svg width="227" height="400" viewBox="0 0 227 400" fill="none" xmlns="http://www.w3.org/2000/svg">
<path d="M119.517 400C108.775 400 99.4149 398.011 93.3887 394.497L92.3259 395.776L90.8092 392.901C90.7589 392.805 90.7101 392.709 90.6621 392.612C89.7476 391.857 88.9559 391.044 88.3018 390.189C74.5223 393.509 55.0643 393.673 43.2433 386.263C39.8205 384.118 37.424 380.621 36.6686 376.667C35.9296 372.799 36.7914 368.941 39.095 365.804C41.5026 362.524 45.3258 359.534 50.755 356.691C49.3601 348.629 48.282 340.681 47.5472 333.038C47.5342 332.941 47.5253 332.845 47.5188 332.746C46.0263 317.083 45.9399 302.534 47.261 288.361C45.6816 287.118 44.317 285.772 43.1958 284.348C40.8218 281.334 39.5547 277.955 38.8867 275.424C28.3131 267.292 22.3064 256.863 21.0276 244.416C19.1133 225.77 28.9792 202.774 46.838 184.072C46.1764 182.878 45.4936 181.643 44.8331 180.352C43.8313 178.39 43.5774 176.189 44.0951 174.074C44.0875 174.052 44.0799 174.029 44.0724 174.007L43.4745 172.218L45.1616 171.374C45.2001 171.355 45.2383 171.336 45.2768 171.317C45.7274 170.607 46.2699 169.968 46.8855 169.416C45.9267 168.855 44.981 168.28 44.0537 167.693C42.5161 166.708 41.1747 165.805 39.9424 164.925C37.8204 163.421 35.6806 161.757 33.5875 159.984C32.4374 159.061 31.3625 158.159 30.3458 157.262C18.7667 147.036 9.98632 133.939 4.95316 119.387C-4.12703 93.1349 -0.613305 64.7147 14.5931 41.4141C22.0693 29.9512 32.256 20.1636 44.0516 13.1092C46.669 11.4458 49.4353 9.87989 52.2234 8.48564L52.5924 8.30132L52.9911 8.19526C53.2835 8.118 53.5769 8.04634 53.8702 7.9748L54.0378 7.93357C55.5785 7.25197 57.1207 6.61669 58.6244 6.04388C60.5365 5.31732 62.5235 4.63969 64.5314 4.02963C70.7784 2.1269 77.2473 0.883665 83.757 0.33545C90.3242 -0.224563 96.9562 -0.083346 103.467 0.758723C106.302 1.12623 109.161 1.63532 111.966 2.27246C113.083 2.51812 114.126 2.77335 115.142 3.04995C124.192 5.42326 132.867 9.20835 140.909 14.2948C161.538 27.3626 175.728 47.5805 180.866 71.225C181.496 74.1232 181.988 77.1041 182.332 80.0994C183.429 81.0203 184.461 82.0512 185.409 83.1728C187.936 86.161 189.89 89.7347 191.218 93.7968C194.142 99.3378 195.303 106.356 194.487 113.587C193.057 126.271 185.654 137.206 176.435 140.314C172.715 142.696 168.655 144.022 164.629 144.174C164.375 144.502 164.118 144.828 163.861 145.155L163.622 145.46C163.105 146.115 162.582 146.755 162.053 147.391L161.74 147.762C160.537 149.189 159.278 150.591 157.982 151.947C164.687 154.082 170.821 157.415 175.92 161.712C196.737 163.026 208.552 167.502 212.03 175.386C217.87 188.622 221.219 208.966 221.494 232.786C221.937 233.025 222.321 233.287 222.65 233.576C226.626 237.073 226.768 244.161 226.67 255.438C226.593 264.309 225.836 274.203 220.801 280.315C219.469 281.933 217.924 283.373 216.2 284.604C214.779 289.637 213.147 293.491 211.344 296.067C202.602 308.562 176.732 313.287 155.75 315.028C156.022 325.192 156.91 335.259 157.771 345.014C158.793 356.593 159.758 367.53 159.558 377.071C159.778 388.039 150.046 395.996 132.847 398.908C128.566 399.632 124.081 399.999 119.517 400ZM94.0008 389.711L94.2022 389.856C99.2784 393.486 108.742 395.653 119.517 395.653C123.838 395.653 128.079 395.305 132.121 394.621C146.991 392.104 155.407 385.726 155.211 377.121L155.209 377.073L155.211 377.025C155.41 367.71 154.453 356.872 153.441 345.398C152.516 334.913 151.559 324.073 151.357 313.063L151.32 311.009L153.367 310.855C182.174 308.693 201.499 302.556 207.782 293.575C209.365 291.313 210.899 287.55 212.218 282.693L212.432 281.906L213.112 281.453C214.755 280.362 216.213 279.049 217.445 277.551C221.618 272.486 222.253 263.511 222.323 255.4C222.406 245.915 222.271 239.032 219.779 236.84C219.684 236.757 219.381 236.534 218.623 236.273L217.169 235.771L217.159 234.232C217.01 210.728 213.69 189.919 208.053 177.14C206.156 172.841 198.87 167.419 174.932 166.007L174.193 165.963L173.633 165.477C168.055 160.624 161.035 157.052 153.333 155.148L149.513 154.204L152.346 151.473C152.533 151.294 152.715 151.108 152.896 150.923C153.034 150.783 153.171 150.643 153.31 150.505L153.564 150.25C155.247 148.562 156.88 146.782 158.417 144.959L158.715 144.606C159.218 144.002 159.716 143.392 160.205 142.772L160.446 142.465C160.902 141.885 161.359 141.306 161.799 140.712L162.465 139.812L163.853 139.841C167.371 139.841 170.983 138.692 174.297 136.519L174.547 136.355L174.83 136.265C182.602 133.792 188.909 124.267 190.168 113.1C190.894 106.662 189.874 100.475 187.295 95.678L187.201 95.5028L187.14 95.313C185.986 91.7177 184.287 88.5773 182.09 85.9796C181.129 84.8425 180.068 83.8212 178.937 82.9438L178.205 82.3756L178.108 81.4531C177.779 78.3127 177.278 75.1822 176.618 72.1479C171.729 49.649 158.222 30.4075 138.584 17.9676C130.922 13.121 122.656 9.51438 114.02 7.24911C113.054 6.98656 112.078 6.74785 111.018 6.51472C108.331 5.90466 105.608 5.41954 102.909 5.06954C96.706 4.26784 90.3863 4.13172 84.1245 4.66689C77.9173 5.18964 71.7516 6.37438 65.7967 8.18818C63.8816 8.77005 61.9889 9.41564 60.1699 10.1067C58.6835 10.6732 57.1541 11.305 55.6259 11.9848L55.4506 12.0624L54.8997 12.1979C54.6453 12.26 54.3906 12.322 54.1383 12.3883C51.4918 13.7128 48.8659 15.2001 46.3325 16.8093C35.0509 23.5572 25.3518 32.8761 18.234 43.7893C3.76681 65.9568 0.423751 92.9935 9.06129 117.967C13.85 131.811 22.205 144.272 33.2225 154.003C34.1876 154.854 35.2121 155.715 36.3538 156.632C38.3956 158.36 40.4361 159.947 42.4619 161.383C43.6401 162.224 44.9231 163.087 46.3892 164.027C48.331 165.256 50.3693 166.438 52.4369 167.531L57.5561 170.24L51.7852 171.597C50.4708 171.912 49.3846 172.768 48.7415 174.004L48.542 174.388L48.4381 174.694C48.0236 175.919 48.1181 177.225 48.7046 178.374C49.335 179.608 50.0039 180.816 50.6509 181.984C50.912 182.455 51.1697 182.923 51.4238 183.389L52.1971 184.804L51.0672 185.954C33.3798 203.959 23.5266 226.191 25.3521 243.972C26.5261 255.404 32.1654 264.973 42.1129 272.415L42.7469 272.889L42.9274 273.66C43.4314 275.816 44.4795 278.953 46.6109 281.658C47.7134 283.058 49.1258 284.381 50.8095 285.59L51.8281 286.322L51.7044 287.57C50.2901 301.845 50.3381 316.505 51.8508 332.385L51.856 332.45C51.856 332.451 51.856 332.451 51.8558 332.451C51.8558 332.451 51.8554 332.451 51.8552 332.449L51.8695 332.568C52.6415 340.613 53.8004 349.008 55.314 357.519L55.5999 359.127L54.1362 359.849C48.5679 362.597 44.7943 365.386 42.5992 368.376C41.0186 370.529 40.4291 373.183 40.9388 375.851C41.4679 378.622 43.1496 381.074 45.5521 382.58C56.7115 389.575 75.7376 389.053 88.6924 385.606L90.3183 385.174L91.1446 386.64C91.2586 386.842 91.399 387.058 91.5873 387.322L91.6325 387.385C92.1795 388.133 92.8835 388.842 93.7351 389.505L94.0008 389.711ZM51.8472 332.404L51.8481 332.41C51.8478 332.408 51.8476 332.406 51.8472 332.404Z" fill="#1E3A59"/>
<path opacity="0.25" d="M90.0552 196.988C103.51 196.988 114.417 185.161 114.417 170.572C114.417 155.982 103.51 144.155 90.0552 144.155C76.6005 144.155 65.6934 155.982 65.6934 170.572C65.6934 185.161 76.6005 196.988 90.0552 196.988Z" fill="#0056A8"/>
<path d="M145.612 166.056C145.612 166.056 201.428 161.645 208.229 177.061C222.069 208.436 218.686 278.327 207.94 293.686C194.863 312.376 133.954 311.783 133.954 311.783L145.612 166.056Z" fill="white"/>
<path d="M133.956 311.783C133.956 311.783 194.865 312.376 207.939 293.685C211.888 288.041 214.844 275.023 216.317 259.264C218.848 232.152 216.981 196.906 208.23 177.062C201.428 161.645 145.611 166.057 145.611 166.057L138.182 258.949L133.956 311.783Z" fill="white"/>
<path d="M133.956 311.783C133.956 311.783 194.865 312.376 207.939 293.685C211.888 288.041 214.844 275.022 216.317 259.264C218.848 232.152 216.981 196.905 208.23 177.062C206.638 173.447 202.349 170.927 196.718 169.178C178.327 163.471 145.611 166.057 145.611 166.057L144.915 174.75L138.182 258.949L133.956 311.783Z" fill="white"/>
<path opacity="0.25" d="M144.915 174.75C170.777 177.737 187.778 173.008 196.718 169.178C178.327 163.471 145.611 166.057 145.611 166.057L144.915 174.75Z" fill="#0056A8"/>
<path opacity="0.25" d="M133.956 311.783C133.956 311.783 194.865 312.376 207.939 293.685C211.888 288.041 214.844 275.022 216.317 259.264L138.182 258.949L133.956 311.783Z" fill="#0056A8"/>
<path d="M134.864 313.766C134.391 313.766 134.077 313.764 133.936 313.763C133.388 313.757 132.866 313.524 132.495 313.118C132.125 312.713 131.939 312.172 131.983 311.625L143.641 165.898C143.719 164.929 144.489 164.16 145.458 164.083C145.599 164.072 159.716 162.979 174.482 163.802C194.932 164.94 206.896 169.133 210.041 176.263C216.445 190.78 219.814 214.528 219.285 241.419C218.799 266.113 214.983 287.075 209.563 294.821C196.793 313.072 142.927 313.766 134.864 313.766ZM147.452 167.907L136.101 309.795C146.876 309.678 195.322 308.269 206.32 292.552C211.243 285.515 214.863 264.935 215.327 241.341C215.838 215.393 212.508 191.662 206.419 177.861C201.485 166.673 163.694 166.808 147.452 167.907Z" fill="#1E3A59"/>
<path d="M219.907 236.694C216.581 233.77 195.256 235.352 195.256 235.352C192.902 235.758 191.006 237.981 190.645 240.765C189.321 250.953 187.293 274.592 195.738 281.637C202.75 287.487 212.398 283.985 217.595 277.675C221.651 272.751 222.442 264.048 222.517 255.402C222.599 246.034 222.502 238.977 219.907 236.694Z" fill="white"/>
<path d="M222.518 255.404C222.483 259.862 222.248 264.335 221.474 268.296C220.757 272.018 219.559 275.29 217.595 277.674C212.398 283.984 202.75 287.487 195.738 281.635C189.114 276.11 188.932 260.362 189.801 248.922C189.804 248.912 189.802 248.906 189.802 248.906C190.04 245.769 190.361 242.953 190.643 240.764C191.004 237.982 192.902 235.754 195.256 235.353C195.256 235.353 216.582 233.766 219.91 236.695C222.499 238.976 222.6 246.035 222.518 255.404Z" fill="white"/>
<path opacity="0.25" d="M221.474 268.296C220.757 272.018 219.559 275.29 217.595 277.673C212.398 283.983 202.75 287.487 195.738 281.635C189.114 276.109 188.932 260.362 189.801 248.922C189.854 249.386 191.102 261.107 194.313 259.95C196.84 259.046 198.235 252.843 198.32 252.477C198.394 253.24 200.707 276.408 211.395 274.334C216.201 273.405 219.377 271.009 221.474 268.296Z" fill="#0056A8"/>
<path d="M203.943 286.604C200.44 286.604 197.191 285.427 194.471 283.157C185.578 275.738 187.027 253.253 188.682 240.51C189.155 236.877 191.719 233.955 194.92 233.402C194.983 233.391 195.046 233.383 195.11 233.379C200.308 232.993 217.549 231.986 221.214 235.208H221.215C224.415 238.023 224.59 244.722 224.497 255.419C224.423 263.911 223.727 273.345 219.124 278.933C215.592 283.221 210.476 286.062 205.438 286.534C204.935 286.58 204.436 286.604 203.943 286.604ZM195.512 237.318C194.064 237.616 192.85 239.157 192.608 241.02C190.008 261.035 191.652 275.65 197.007 280.117C199.316 282.044 202.028 282.877 205.07 282.592C209.021 282.222 213.235 279.856 216.068 276.416C219.909 271.754 220.475 262.728 220.539 255.385C220.595 248.894 220.672 240.004 218.601 238.181C216.957 236.769 205.36 236.595 195.512 237.318Z" fill="#1E3A59"/>
<path d="M211.89 284.637C207.403 285.848 203.301 282.316 201.375 278.723C197.8 272.079 197.661 264.634 197.776 257.396C197.9 253.85 198.071 250.249 198.975 246.808C198.395 250.298 198.555 253.86 198.757 257.377C199.254 264.128 200.109 271.506 203.889 277.153C205.439 279.358 207.951 281.697 210.682 280.867C213.333 279.91 214.61 283.867 211.89 284.637Z" fill="#1E3A59"/>
<path d="M174.945 176.157C181.47 174.791 188.146 174.647 194.737 175.368C196.9 175.592 199.037 175.989 201.148 176.424C194.748 176.038 188.302 176.604 182.087 178.116C180.107 178.599 177.989 179.204 176.135 179.935C173.476 180.882 172.215 176.912 174.945 176.157Z" fill="#1E3A59"/>
<path d="M155.568 377.075C156.172 400.655 95.1061 400.655 90.2692 385.539C90.2631 385.539 90.2631 385.539 90.257 385.545C90.2328 385.552 90.2147 385.558 90.1906 385.564C75.2928 389.917 55.7758 389.415 45.3582 382.885C41.7729 380.636 39.965 376.549 40.4911 372.649C40.7028 371.077 41.2953 369.535 42.3049 368.163C44.9834 364.523 49.778 361.488 55.2014 358.936C51.1021 336.396 49.258 314.146 50.9267 292.181C51.1988 288.619 51.5616 285.07 52.021 281.527C52.0694 281.128 52.1238 280.735 52.1782 280.336L96.3032 272.355L109.012 270.058L155.568 275.499C146.499 308.148 156.173 349.262 155.568 377.075Z" fill="white"/>
<path opacity="0.25" d="M99.2598 308.602C98.764 313.711 99.1087 318.898 99.4473 324.044C100.312 337.013 101.189 350.06 104 362.739C104.127 363.308 104.254 363.876 104.387 364.444C104.508 364.952 104.635 365.466 104.762 365.98C99.9006 368.513 94.8159 371.246 91.8714 375.866C90.6681 377.746 89.9849 380.043 89.9124 382.305C89.8761 383.411 89.991 384.505 90.257 385.545C90.7771 387.583 91.9137 389.391 93.7216 390.552C93.4132 391.011 93.0867 391.458 92.73 391.888C91.6658 389.874 90.8072 387.764 90.1906 385.563C75.2928 389.917 55.7758 389.415 45.3582 382.885C41.7729 380.636 39.965 376.549 40.4911 372.649C42.8854 376.567 47.0331 379.354 51.4528 380.757C56.5558 382.383 62.0276 382.377 67.3663 381.972C71.7437 381.633 76.3086 380.956 79.8154 378.32C83.3282 375.69 85.2932 370.533 83.0561 366.76C81.1939 363.622 77.1913 362.467 73.5395 362.382C69.8936 362.298 66.2176 363.005 62.62 362.401C59.0226 361.802 55.3223 359.353 54.9293 355.726C64.5487 361.355 77.294 361.125 86.7018 355.157C88.6246 353.942 90.4687 352.437 91.4239 350.375C92.3308 348.422 92.3489 346.185 92.2886 344.032C92.1193 338.391 91.5147 332.768 90.4748 327.224C89.0963 319.836 86.6233 312.103 80.7343 307.435C75.5649 303.342 68.6782 302.326 62.5897 299.799C58.2728 298.009 54.3004 295.409 50.9267 292.18C51.1988 288.619 51.5616 285.07 52.021 281.527C52.3414 281.442 52.6619 281.382 52.9823 281.339C55.5278 281.031 58.0551 281.878 60.5038 282.658C70.6674 285.91 81.1151 288.305 91.6779 289.798C92.1252 289.865 92.5666 289.925 93.014 289.986C98.25 290.687 103.782 291.128 108.619 289.018C103.655 292.882 100.838 299.006 99.7252 305.204C99.5199 306.334 99.3686 307.465 99.2598 308.602Z" fill="#0056A8"/>
<path opacity="0.25" d="M155.569 377.075C156.173 400.655 95.107 400.655 90.2701 385.539C90.264 385.539 90.264 385.539 90.2579 385.545C90.7779 387.583 91.9146 389.391 93.7224 390.552C93.414 391.011 93.0875 391.459 92.7308 391.888C91.6667 389.875 90.8081 387.764 90.1915 385.564C89.8348 384.3 89.5567 383.006 89.3691 381.688C89.5445 381.9 89.7258 382.105 89.9133 382.305C95.4697 388.314 104.321 390.134 112.556 390.666C118.524 391.053 124.8 390.902 130.078 388.079C135.356 385.261 139.244 379.064 137.654 373.296C137.37 372.268 136.886 371.234 136.015 370.611C135.096 369.952 133.893 369.856 132.756 369.849C127.297 369.807 121.879 371.282 116.426 370.968C111.674 370.696 106.534 368.507 104.388 364.444C104.073 363.846 103.826 363.217 103.65 362.54C103.765 362.606 103.886 362.679 104.001 362.739C112.169 367.473 122.278 368.755 131.366 366.198C135.985 364.892 140.665 362.298 142.497 357.854C144.244 353.634 143.023 348.851 142.08 344.383C140.75 338.059 140.024 331.601 139.921 325.138C139.831 319.062 140.054 312.308 136.04 307.743C132.835 304.104 127.678 302.864 122.829 302.695C113.892 302.38 104.176 305.669 99.6114 313.36L100.355 310.96C99.9924 310.174 99.6235 309.388 99.2608 308.602C98.0637 306.026 96.8726 303.444 95.6755 300.869C94.0188 297.302 92.338 293.656 91.679 289.798C91.5883 289.297 91.5218 288.795 91.4734 288.287C90.9172 282.615 92.9124 276.999 96.3043 272.355L109.013 270.058L155.569 275.499C146.5 308.148 156.173 349.262 155.569 377.075Z" fill="#0056A8"/>
<path d="M119.515 397.827C105.99 397.827 93.0307 394.43 89.2486 387.707C75.1801 391.45 55.7273 391.527 44.3954 384.422C41.4823 382.596 39.4434 379.621 38.8012 376.259C38.1769 372.992 38.9028 369.736 40.8447 367.091C43.2465 363.82 47.2862 360.806 53.1715 357.901C48.0713 329.223 47.1587 303.756 50.3804 280.092C50.4862 279.313 51.0815 278.691 51.8546 278.552L108.689 268.273C108.865 268.241 109.045 268.236 109.222 268.256L155.778 273.698C156.304 273.759 156.777 274.047 157.073 274.488C157.368 274.927 157.457 275.474 157.315 275.985C151.381 297.348 153.624 322.773 155.604 345.205C156.622 356.742 157.583 367.638 157.382 377.072C157.604 386.872 148.532 394.048 132.481 396.765C128.293 397.474 123.874 397.827 119.515 397.827ZM90.2689 383.725C91.0382 383.725 91.7498 384.218 91.9958 384.986C94.2862 392.145 114.041 396.207 131.876 393.188C138.549 392.059 154.039 388.232 153.754 377.121C153.753 377.092 153.753 377.064 153.754 377.035C153.955 367.791 153 356.975 151.99 345.525C150.045 323.486 147.849 298.597 153.278 277.058L109.069 271.891L53.8016 281.886C50.7921 305.173 51.8355 330.289 56.9851 358.612C57.1325 359.421 56.7167 360.228 55.9728 360.578C50.0464 363.367 45.9402 366.28 43.7688 369.238C42.4304 371.061 41.9316 373.313 42.3642 375.579C42.8178 377.953 44.2606 380.056 46.3218 381.349C55.7365 387.251 74.4094 388.304 89.7572 383.799C89.9278 383.749 90.0997 383.725 90.2689 383.725Z" fill="#1E3A59"/>
<path d="M89.8424 388.631C86.4922 383.773 88.615 377.487 92.0509 373.434C95.3146 369.486 99.3596 366.435 104.127 364.499L102.998 366.54C99.1196 346.72 96.8934 326.577 96.3149 306.392C96.3072 306.371 98.1851 308.153 98.1849 308.148C90.1968 307.783 81.6869 306.333 75.1523 301.498C78.6822 303.365 82.5498 304.319 86.4191 304.706C90.2984 305.092 94.202 304.939 98.0704 304.522C99.0377 304.414 99.904 305.165 99.936 306.137C100.505 326.178 102.708 346.17 106.559 365.844C106.731 366.722 106.237 367.577 105.43 367.885C103.427 368.667 101.478 369.815 99.6866 371.138C95.1819 374.576 89.3227 380.847 92.8785 386.646C94.1641 388.656 91.2071 390.644 89.8424 388.631Z" fill="#1E3A59"/>
<path d="M122.29 341.509C114.079 341.509 106.141 340.454 99.9782 337.999C90.1923 339.537 66.9202 341.996 50.6943 334.1C49.7938 333.662 49.4187 332.576 49.8571 331.675C50.2959 330.775 51.3817 330.398 52.282 330.838C63.0899 336.098 80.8929 337.405 99.9046 334.337C100.237 334.284 100.58 334.324 100.892 334.454C114.569 340.156 138.216 338.2 152.28 333.117C153.22 332.777 154.261 333.264 154.602 334.206C154.942 335.149 154.455 336.188 153.512 336.529C145.133 339.557 133.459 341.508 122.29 341.509Z" fill="#1E3A59"/>
<path d="M56.4052 357.58C60.7914 361.627 67.8167 362.201 73.6308 362.109C75.755 362.031 77.8862 361.795 79.9905 361.355C73.7957 363.499 67.0618 364.321 60.5494 363.084C58.3288 362.611 56.0562 361.85 53.9973 360.293C51.9944 358.661 54.5405 355.781 56.4052 357.58Z" fill="#1E3A59"/>
<path d="M105.757 364.664C110.833 368.158 117.684 368.878 123.779 368.544C125.93 368.389 128.082 368.038 130.173 367.401C128.189 368.322 126.071 368.98 123.908 369.441C117.23 370.72 110.084 370.888 103.801 367.72C101.584 366.404 103.626 363.2 105.757 364.664Z" fill="#1E3A59"/>
<path d="M46.1315 173.319C61.8515 165.459 74.5485 175.737 79.99 196.294C95.1054 170.9 122.313 154.576 150.081 154.085C182.775 160.017 197.273 192.706 177.612 209.481C172.432 213.534 167.004 216.613 161.009 217.456C162.742 232.172 161.7 246.173 156.776 259.174C159.838 261.442 162.736 264.476 162.785 268.068C162.922 278.242 140.112 286.447 128.359 289.405C102.402 295.938 54.7371 295.917 41.2944 267.034C39.3522 262.861 34.4508 250.193 41.899 229.548C44.5821 222.597 47.215 215.34 49.7591 207.782C51.4859 202.651 53.0953 197.61 54.596 192.666C53.9914 186.62 48.5499 180.574 46.1315 173.319Z" fill="#A0AFB9"/>
<path d="M62.7529 226.006C68.1325 221.885 74.8787 219.444 81.6519 219.67C88.4251 219.896 95.1559 222.904 99.4804 228.122C97.6737 229.823 95.174 230.547 92.7507 231.083C86.7166 232.417 80.5033 232.939 74.3311 232.629C72.014 232.512 69.6518 232.266 67.5434 231.298C65.435 230.33 63.5952 228.52 63.1326 226.247" fill="#8E959C"/>
<path d="M148.285 179.517C153.572 177.58 159.63 177.853 164.722 180.258C167.306 181.478 169.647 183.219 172.344 184.163C175.042 185.106 178.37 185.072 180.398 183.058C182.893 180.58 182.312 176.345 180.714 173.213C185.133 178.078 187.511 184.742 187.171 191.306C186.831 197.87 183.776 204.253 178.877 208.635C177.169 200.938 172.683 194.105 167.369 188.282C165.733 186.489 163.968 184.743 161.79 183.673C160.238 182.91 158.533 182.52 156.847 182.136C153.644 181.408 150.441 180.679 147.238 179.951" fill="#8E959C"/>
<path d="M159.331 156.595C157.628 156.329 155.852 156.541 154.26 157.201C152.423 157.962 150.768 159.436 150.31 161.371C149.852 163.306 150.943 165.629 152.878 166.086C149.89 164.839 146.53 164.983 143.296 165.148C139.767 165.328 136.237 165.508 132.708 165.688C136.023 162.269 139.727 159.228 143.726 156.642C144.94 155.857 146.195 155.108 147.575 154.68C151.29 153.528 155.287 154.849 158.877 156.346C159.005 156.4 159.154 156.481 159.161 156.62C159.168 156.759 158.893 156.798 158.919 156.661" fill="#8E959C"/>
<path d="M108.479 190.875C115.244 186.866 122.103 182.918 129.496 180.24C136.889 177.561 144.907 176.19 152.664 177.484C149.056 178.044 145.711 180.128 143.619 183.12C136.59 182.138 129.484 183.713 122.561 185.278C120.646 185.711 118.726 186.146 116.87 186.786C114.283 187.679 111.834 188.97 109.63 190.592" fill="#8E959C"/>
<path d="M105.597 193.53C111.87 190.853 118.828 189.802 125.612 190.508C126.958 190.648 128.306 190.858 129.585 191.299C135.182 193.231 138.351 199.069 140.453 204.604C139.623 201.141 138.971 197.581 139.274 194.033C139.577 190.485 140.93 186.913 143.578 184.531C137.001 182.121 129.62 182.513 122.942 184.627C116.264 186.741 110.211 190.484 104.604 194.683" fill="#8E959C"/>
<path d="M139.723 217.134C140.86 221.404 140.141 226.134 137.787 229.872C135.432 233.611 131.478 236.303 127.136 237.123C125.204 237.488 123.103 237.538 121.51 238.689C127.172 238.064 132.805 237.163 138.379 235.989C139.337 235.787 140.336 235.556 141.076 234.916C142.304 233.853 142.445 232.023 142.409 230.399C142.294 225.186 141.278 219.995 139.42 215.123" fill="#8E959C"/>
<path d="M119.793 268.712C119.728 269.457 120.827 269.606 121.56 269.457C126.379 268.474 131.198 267.492 136.018 266.51C137.646 266.178 139.477 265.703 140.272 264.243C141.297 269.465 143.169 274.519 145.792 279.149C146.191 279.854 146.624 280.639 146.448 281.43C146.347 281.884 146.056 282.269 145.772 282.638C144.341 284.503 142.757 286.475 140.5 287.131C138.622 287.676 136.6 287.205 134.662 287.465C132.58 287.744 130.706 288.849 128.683 289.417C126.661 289.986 124.153 289.851 122.893 288.169C122.401 287.512 122.167 286.702 121.952 285.909C120.526 280.635 119.541 275.241 119.012 269.803" fill="#8E959C"/>
<path d="M97.3506 295.775C73.9377 295.776 49.1892 289.186 39.655 269.019C32.2452 253.345 36.8524 235.909 42.0326 224.027C44.1251 218.479 46.1463 212.819 48.0408 207.202C49.6777 202.35 51.2617 197.406 52.7511 192.502C52.3497 189.543 50.5982 186.38 48.748 183.038C48.0913 181.852 47.412 180.625 46.7671 179.363C45.7956 177.461 45.7533 175.252 46.6522 173.302C47.5439 171.365 49.2353 169.972 51.2917 169.48C64.1755 166.398 74.9392 174.739 80.5889 191.923C87.9708 180.718 97.8485 171.219 109.356 164.297C122.023 156.676 136.095 152.518 150.049 152.271C150.169 152.267 150.288 152.279 150.405 152.3C168.713 155.622 183.188 167.576 187.281 182.754C190.188 193.532 187.093 203.777 178.79 210.861C178.77 210.878 178.751 210.895 178.73 210.91C173.113 215.304 168.066 217.89 163 218.948C164.531 233.685 163.2 246.672 158.94 258.55C162.572 261.489 164.474 264.664 164.598 268.001C165.113 281.832 132.683 290.836 128.984 291.817C120.081 294.178 108.877 295.775 97.3506 295.775ZM52.1365 173.008C51.1687 173.24 50.3706 173.9 49.947 174.82C49.5168 175.753 49.5353 176.807 49.9977 177.712C50.6151 178.921 51.2794 180.121 51.9219 181.281C54.0302 185.089 56.0215 188.686 56.4014 192.486C56.4254 192.723 56.4017 192.963 56.3326 193.192C54.8007 198.251 53.1676 203.355 51.4784 208.361C49.5656 214.033 47.524 219.749 45.4107 225.351C45.3997 225.38 45.3882 225.408 45.3758 225.437C40.4888 236.629 36.0985 253.007 42.9349 267.469C50.3504 283.154 67.7229 288.878 80.9902 290.918C98.3696 293.59 116.697 291.323 128.054 288.31C141.456 284.756 161.283 276.45 160.973 268.136C160.88 265.645 159.109 263.123 155.708 260.639C155.048 260.158 154.792 259.296 155.081 258.532C159.67 246.416 161.02 233.049 159.208 217.668C159.093 216.688 159.781 215.796 160.757 215.659C165.75 214.958 170.742 212.548 176.465 208.077C183.637 201.939 186.303 193.056 183.779 183.699C180.061 169.914 166.787 159.018 149.934 155.902C123.001 156.447 96.1756 172.65 81.5495 197.221C81.1759 197.849 80.4615 198.192 79.7395 198.09C79.0163 197.989 78.4244 197.463 78.2373 196.757C73.5614 179.093 63.8047 170.214 52.1368 173.008H52.1365Z" fill="#1E3A59"/>
<path d="M48.9482 173.07C56.8796 175.891 62.6139 182.885 66.0844 190.248C63.9448 186.831 61.3222 183.746 58.2904 181.222C55.2706 178.714 51.7805 176.74 48.1527 175.987C46.0932 175.491 46.9141 172.452 48.9482 173.07Z" fill="#1E3A59"/>
<path d="M126.077 167.303C136.623 162.705 149.536 162.813 159.498 168.784C154.19 167.106 148.667 166.359 143.157 166.691C137.75 167.02 132.467 168.403 127.548 170.619C125.34 171.546 123.897 168.328 126.077 167.303Z" fill="#1E3A59"/>
<path d="M101.151 196.899C113.073 185.215 132.252 178.644 148.751 182.442C149.725 182.679 150.323 183.659 150.087 184.633C149.849 185.615 148.85 186.215 147.872 185.962C131.678 182.163 114.659 187.818 101.151 196.899Z" fill="#1E3A59"/>
<path d="M71.4921 225.054C71.5133 224.943 71.5266 224.829 71.5266 224.711V200.527C71.5266 199.525 70.7144 198.713 69.7128 198.713C68.7111 198.713 67.899 199.525 67.899 200.527V224.711C67.899 224.829 67.9123 224.943 67.9335 225.054C66.1437 225.763 64.876 227.506 64.876 229.548C64.876 232.22 67.0415 234.385 69.7129 234.385C72.3843 234.385 74.5498 232.22 74.5498 229.548C74.5497 227.506 73.282 225.763 71.4921 225.054Z" fill="#1E3A59"/>
<path d="M93.8623 225.658C93.8835 225.547 93.8968 225.433 93.8968 225.316V201.131C93.8968 200.13 93.0847 199.317 92.083 199.317C91.0814 199.317 90.2692 200.13 90.2692 201.131V225.316C90.2692 225.433 90.2825 225.547 90.3038 225.658C88.5139 226.367 87.2461 228.11 87.2461 230.153C87.2461 232.824 89.4116 234.99 92.083 234.99C94.7544 234.99 96.92 232.824 96.92 230.153C96.92 228.11 95.6523 226.367 93.8623 225.658Z" fill="#1E3A59"/>
<path d="M159.85 225.267C159.146 218.841 159.044 212.306 158.517 205.861L157.986 199.317C160.638 207.643 162.327 216.316 163.471 225.046C163.601 226.037 162.903 226.945 161.912 227.075C160.814 227.225 159.886 226.353 159.85 225.267Z" fill="#371A45"/>
<path d="M8.73318 118.079C13.4476 131.709 21.6367 144.232 32.991 154.26C35.3074 156.304 37.7453 158.243 40.3144 160.064C41.5616 160.954 42.8508 161.814 44.1653 162.656C48.1401 165.173 52.2421 167.33 56.4397 169.137C60.0539 170.703 63.7424 172.003 67.4653 173.052C71.9608 174.321 76.5194 175.213 81.0931 175.749C82.7619 175.938 84.4306 176.084 86.0991 176.186C116.645 177.984 147.261 163.912 164.99 136.732C191.114 96.6977 179.367 43.3963 138.767 17.6773C130.944 12.7294 122.617 9.14909 114.088 6.91202C113.094 6.64114 112.087 6.39783 111.078 6.17577C108.38 5.56347 105.669 5.08071 102.951 4.72835C96.6638 3.91535 90.3358 3.79102 84.0905 4.32408C77.8467 4.85019 71.6701 6.03853 65.6922 7.85916C63.7911 8.43693 61.9093 9.07643 60.0457 9.78474C57.254 10.8476 54.5144 12.0434 51.8303 13.3948C38.4513 20.0843 26.6418 30.2629 17.9422 43.6018C2.91358 66.6302 0.420541 94.0452 8.73318 118.079Z" fill="white"/>
<path d="M91.3207 176.578C89.5802 176.578 87.8358 176.527 86.085 176.423C84.4219 176.322 82.7333 176.175 81.0661 175.985C76.428 175.442 71.8307 174.532 67.4003 173.281C63.6137 172.214 59.8943 170.893 56.3452 169.356C52.1059 167.531 47.9651 165.344 44.0381 162.857C42.5975 161.934 41.3345 161.084 40.1762 160.258C37.6534 158.469 35.1828 156.511 32.8335 154.439C21.7414 144.642 13.33 132.097 8.50859 118.157C-0.188316 93.013 3.17736 65.791 17.7432 43.4722C26.1639 30.5614 37.9143 20.0876 51.7241 13.1827C54.3358 11.868 57.1072 10.6499 59.9611 9.5632C61.7919 8.86731 63.6968 8.21775 65.6229 7.63265C71.617 5.80668 77.8235 4.61412 84.0705 4.08764C90.3753 3.54998 96.7378 3.68586 102.981 4.4934C105.697 4.8455 108.438 5.3336 111.13 5.94466C112.208 6.18213 113.197 6.4237 114.15 6.68328C122.853 8.96618 131.179 12.5979 138.894 17.4773C158.663 30.0006 172.261 49.3727 177.184 72.0253C182.067 94.4981 177.807 117.524 165.188 136.862C149.004 161.676 121.055 176.578 91.3207 176.578ZM8.95733 118.002C13.7522 131.864 22.1171 144.34 33.1479 154.083C35.4845 156.144 37.9419 158.091 40.4516 159.871C41.6038 160.693 42.8604 161.539 44.2934 162.456C48.1984 164.93 52.3167 167.104 56.5335 168.92C60.0636 170.449 63.7631 171.763 67.5292 172.824C71.9355 174.068 76.5084 174.973 81.1204 175.513C82.7787 175.702 84.4589 175.848 86.1136 175.949C117.6 177.805 147.752 162.726 164.791 136.603C177.34 117.372 181.576 94.4739 176.72 72.1263C171.825 49.5989 158.301 30.3332 138.64 17.8787C130.966 13.0254 122.686 9.41304 114.028 7.14231C113.079 6.88398 112.098 6.64415 111.027 6.40817C108.348 5.80022 105.621 5.31448 102.92 4.96448C96.7106 4.16092 90.3817 4.02542 84.1109 4.56084C77.8969 5.08446 71.7234 6.27068 65.7612 8.08672C63.8455 8.66897 61.9509 9.31505 60.1301 10.007C57.2917 11.088 54.5351 12.2993 51.9371 13.6074C38.2022 20.4747 26.5158 30.8915 18.1411 43.7317C3.65614 65.9268 0.308981 92.9973 8.95733 118.002Z" fill="#371A45"/>
<path opacity="0.25" d="M164.989 136.73C147.263 163.914 116.642 177.987 86.0971 176.184C84.4282 176.084 82.7606 175.939 81.0945 175.748C76.5191 175.214 71.9619 174.319 67.4663 173.054C63.7435 172.001 60.0529 170.704 56.4414 169.139C52.2408 167.333 48.1409 165.176 44.1627 162.658C42.8523 161.812 41.5626 160.955 40.3121 160.067C37.7431 158.244 35.3088 156.301 32.9907 154.259C21.6366 144.231 13.4445 131.711 8.73144 118.077C6.14028 110.59 4.59787 102.769 4.1582 94.8579C8.95762 107.764 16.9113 119.598 27.7431 129.165C30.0569 131.214 32.4956 133.151 35.0645 134.974C36.3095 135.863 37.599 136.719 38.915 137.565C42.8932 140.083 46.993 142.239 51.1881 144.047C54.8053 145.61 58.4904 146.909 62.2131 147.961C66.7086 149.227 71.2715 150.121 75.8412 150.656C77.513 150.845 79.1805 150.991 80.8494 151.09C111.394 152.893 142.01 138.822 159.741 111.636C170.09 95.7805 174.489 77.8432 173.515 60.3672C182.634 84.8471 180.411 113.101 164.989 136.73Z" fill="#0056A8"/>
<path d="M91.3198 178.169C89.5481 178.169 87.7733 178.118 85.9911 178.013C84.297 177.909 82.5808 177.759 80.8861 177.567C76.1592 177.013 71.4787 176.087 66.9674 174.813C63.1135 173.727 59.3263 172.382 55.7122 170.816C51.3995 168.96 47.1838 166.734 43.1863 164.202C41.7162 163.26 40.4318 162.396 39.252 161.554C36.687 159.736 34.1719 157.742 31.7803 155.633C20.4823 145.654 11.9152 132.876 7.00424 118.678C-1.85462 93.0649 1.57352 65.3364 16.4102 42.6024C24.9847 29.4557 36.95 18.7902 51.0122 11.7592C53.6684 10.422 56.4902 9.18183 59.3947 8.07571C61.2601 7.36678 63.1996 6.70542 65.1602 6.10964C71.2603 4.2515 77.5782 3.03746 83.9368 2.50191C90.3529 1.95394 96.8294 2.09292 103.186 2.91487C105.951 3.27331 108.742 3.77023 111.482 4.39246C112.576 4.63291 113.589 4.88094 114.569 5.14747C123.415 7.468 131.891 11.1652 139.745 16.1322C159.877 28.8856 173.726 48.6154 178.739 71.6873C183.714 94.5795 179.375 118.035 166.522 137.732C150.043 162.996 121.589 178.169 91.3198 178.169ZM10.4613 117.482C15.1667 131.085 23.3758 143.329 34.2013 152.89C36.4952 154.914 38.908 156.826 41.3718 158.573C42.5061 159.382 43.7412 160.213 45.1515 161.116C48.9786 163.54 53.0224 165.675 57.1622 167.457C60.6308 168.96 64.2627 170.25 67.9605 171.292C72.2868 172.514 76.7763 173.402 81.3052 173.932C82.9304 174.117 84.5826 174.261 86.21 174.361C117.119 176.175 146.729 161.38 163.457 135.733C175.772 116.862 179.929 94.3924 175.164 72.4641C170.36 50.3563 157.086 31.4481 137.787 19.2232C130.253 14.458 122.123 10.9113 113.623 8.6818C112.686 8.42682 111.73 8.19295 110.684 7.96281C108.043 7.3633 105.366 6.88675 102.715 6.5431C96.6184 5.75468 90.4042 5.62216 84.2454 6.14703C78.1416 6.66133 72.0793 7.82632 66.2244 9.60944C64.3421 10.1813 62.4821 10.8157 60.695 11.4949C57.9081 12.5562 55.2018 13.7454 52.6523 15.0289C39.1654 21.7721 27.6939 31.9974 19.4737 44.6014C5.26049 66.3807 1.97693 92.9467 10.4613 117.482Z" fill="#371A45"/>
<path d="M91.3191 178.154C89.5477 178.154 87.7732 178.102 85.9912 177.997C84.2974 177.894 82.5815 177.744 80.8871 177.551C76.1611 176.998 71.4813 176.071 66.9709 174.798C63.1175 173.712 59.3309 172.367 55.7175 170.802C51.4057 168.946 47.1906 166.72 43.1936 164.189C41.724 163.247 40.4398 162.383 39.26 161.541C36.6957 159.723 34.1808 157.73 31.7899 155.621C20.4938 145.644 11.9282 132.868 7.01807 118.672C-1.8393 93.0641 1.58834 65.3408 16.4222 42.6108C24.9954 29.4662 36.9583 18.8026 51.0184 11.773C53.674 10.4358 56.4955 9.19589 59.3993 8.09014C61.2644 7.38122 63.2036 6.71985 65.1639 6.12407C71.2632 4.26655 77.5798 3.05276 83.9375 2.51696C90.3523 1.96999 96.8283 2.10847 103.183 2.92992C105.947 3.28836 108.738 3.78528 111.478 4.40727C112.572 4.64809 113.585 4.89575 114.564 5.16228C123.409 7.48256 131.884 11.1791 139.735 16.1449C159.865 28.8966 173.711 48.6226 178.723 71.6907C183.698 94.5789 179.359 118.03 166.508 137.724C150.032 162.983 121.583 178.154 91.3191 178.154ZM10.4461 117.487C15.1524 131.092 23.3629 143.339 34.1903 152.901C36.4848 154.925 38.8981 156.838 41.3623 158.585C42.4966 159.394 43.732 160.225 45.1426 161.129C48.9704 163.554 53.015 165.689 57.1556 167.471C60.6247 168.974 64.2573 170.264 67.9559 171.306C72.2829 172.528 76.7733 173.417 81.3027 173.948C82.9284 174.132 84.5812 174.276 86.2086 174.376C117.132 176.196 146.738 161.392 163.469 135.741C175.786 116.866 179.944 94.3932 175.178 72.461C170.373 50.349 157.097 31.4374 137.795 19.21C130.26 14.444 122.128 10.8967 113.627 8.6668C112.689 8.41182 111.733 8.17795 110.686 7.94756C108.046 7.34805 105.368 6.8715 102.717 6.52759C96.6182 5.73955 90.4031 5.60616 84.2439 6.13165C78.1389 6.6462 72.0753 7.81119 66.2196 9.59469C64.3369 10.1669 62.4766 10.8012 60.6892 11.4806C57.9016 12.5419 55.1949 13.7315 52.645 15.0154C39.156 21.7599 27.6824 31.9869 19.4603 44.593C5.24338 66.3773 1.95807 92.9459 10.4461 117.487Z" fill="#1E3A59"/>
<path d="M17.6765 137.406C63.0717 181.444 137.473 167.819 151.7 107.216C161.379 65.9857 127.895 24.8386 87.1229 18.2374C57.4486 13.433 26.3372 21.537 6.15167 64.8906C6.15167 64.8906 0.2224 85.4406 3.58285 100.339C6.94318 115.237 12.7631 129.166 12.7631 129.166L17.6765 137.406Z" fill="#0056A8"/>
<g opacity="0.7">
<path d="M150.04 108.282C136.09 167.708 63.1311 181.067 18.6177 137.887L17.6426 136.248C71.5243 155.272 132.532 131.701 147.771 71.874C151.87 83.3362 152.967 95.8043 150.04 108.282Z" fill="#111A28"/>
</g>
<path d="M82.399 175.749C74.3873 175.749 66.2664 174.742 58.263 172.695L57.9898 172.602C53.5907 170.709 49.2925 168.439 45.2148 165.857C43.7151 164.896 42.4058 164.015 41.2029 163.157C38.5885 161.303 36.0242 159.271 33.5854 157.119C22.0661 146.945 13.3313 133.917 8.32423 119.441C-0.70777 93.3269 2.78744 65.0559 17.9145 41.8771C26.6564 28.4733 38.8561 17.5988 53.1938 10.4302L53.3636 10.3452L53.5473 10.2964C64.858 7.30063 77.468 6.89425 91.0262 9.08897C115.42 13.0384 138.499 28.12 152.763 49.4318C165.599 68.6105 169.985 90.6003 165.113 111.35C159.805 133.95 147.03 151.938 128.169 163.37C114.699 171.534 98.7809 175.749 82.399 175.749ZM59.3196 169.147C82.6891 175.084 107.077 171.828 126.251 160.206C144.243 149.301 156.436 132.115 161.512 110.505C166.147 90.7648 161.948 69.8062 149.689 51.4896C135.985 31.0149 113.834 16.5296 90.4348 12.7412C77.4658 10.6417 65.4364 11.0065 54.6779 13.8243C41.0009 20.7007 29.3618 31.0969 21.0123 43.8986C6.51503 66.1131 3.16451 93.2064 11.8202 118.232C16.6192 132.106 24.9921 144.594 36.0335 154.346C38.3738 156.411 40.8344 158.361 43.3468 160.142C44.5036 160.967 45.7633 161.815 47.202 162.737C51.0663 165.184 55.1451 167.342 59.3196 169.147Z" fill="#1E3A59"/>
<path d="M188.909 110.906C187.071 127.805 175.407 140.91 162.854 140.173C150.301 139.436 141.615 125.138 143.452 108.238C143.462 108.132 143.477 108.02 143.492 107.914C145.44 91.171 157.042 78.2381 169.507 78.9711C179.205 79.5398 186.594 88.2028 188.609 99.9034C189.2 103.349 189.326 107.063 188.909 110.906Z" fill="white"/>
<path opacity="0.25" d="M188.909 110.907C187.071 127.806 175.407 140.911 162.854 140.174C150.301 139.437 141.615 125.138 143.452 108.239C143.462 108.133 143.477 108.021 143.492 107.915C144.684 109.73 146.646 111.564 149.619 111.159C154.826 110.448 165.155 100.118 165.155 100.118C165.155 100.118 175.325 99.9592 188.608 99.9043C189.2 103.35 189.326 107.063 188.909 110.907Z" fill="#0056A8"/>
<path d="M163.85 142.015C163.482 142.015 163.116 142.005 162.747 141.983C157.336 141.665 152.449 139.101 148.616 134.567C143.069 128.006 140.529 118.338 141.649 108.041C143.587 90.2218 156.134 76.3683 169.615 77.1613C175.027 77.4791 179.913 80.0435 183.747 84.5769C189.294 91.1377 191.833 100.806 190.714 111.103C188.829 128.435 176.907 142.015 163.85 142.015ZM168.492 80.7563C157.257 80.7563 146.942 92.9235 145.256 108.433C144.258 117.61 146.549 126.504 151.386 132.225C154.563 135.981 158.565 138.103 162.96 138.361C163.264 138.379 163.568 138.388 163.871 138.388C175.106 138.39 185.421 126.22 187.107 110.711C188.105 101.533 185.813 92.6394 180.976 86.9191C177.8 83.1629 173.798 81.0409 169.403 80.7828C169.099 80.765 168.795 80.7563 168.492 80.7563Z" fill="#1E3A59"/>
<path d="M190.349 116.449C193.091 103.216 187.631 90.8963 178.154 88.9325C168.676 86.9686 158.771 96.1044 156.028 109.338C153.286 122.571 158.746 134.891 168.224 136.855C177.701 138.818 187.607 129.683 190.349 116.449Z" fill="white"/>
<path opacity="0.25" d="M154.678 121.364C154.024 116.776 154.645 111.995 156.232 107.611C158.616 117.947 167.377 122.981 176.587 118.922C182.539 116.301 187.308 110.48 189.76 103.694C189.914 104.345 190.036 105.025 190.137 105.721C191.796 117.404 185.204 130.377 175.41 134.696C165.617 139.015 156.337 133.04 154.678 121.364Z" fill="#0056A8"/>
<path d="M171.137 139.034C170.906 139.034 170.677 139.028 170.446 139.016C166.452 138.813 162.823 136.917 159.95 133.534C155.476 128.262 153.391 119.909 154.374 111.19C156.029 96.5037 165.84 84.9753 176.254 85.5174C180.248 85.7206 183.877 87.6166 186.749 90.9999C191.224 96.2716 193.309 104.625 192.325 113.344C190.707 127.703 181.285 139.034 171.137 139.034ZM175.537 89.1271C167.204 89.1271 159.393 99.0466 157.978 111.596C157.105 119.34 158.876 126.663 162.716 131.186C164.924 133.788 167.661 135.242 170.63 135.393C179.165 135.838 187.276 125.754 188.721 112.938C189.594 105.194 187.823 97.871 183.984 93.3481C181.776 90.7468 179.039 89.2919 176.069 89.1406C175.891 89.1313 175.714 89.1271 175.537 89.1271Z" fill="#1E3A59"/>
<g opacity="0.5">
<path d="M85.8442 44.2005C85.8442 44.2005 56.2549 43.3398 38.4515 58.5416C38.4328 58.5576 38.4141 58.5737 38.3954 58.5895C34.6512 61.7921 31.8513 65.9347 30.2581 70.5593C28.1512 76.6754 27.6073 81.1922 27.284 85.186C26.3067 97.3332 28.1536 103.199 28.1536 103.199C21.6622 96.2511 18.2996 88.6663 19.012 78.5407C19.0849 77.5428 19.1975 76.5162 19.3467 75.4661C19.3803 75.224 19.419 74.9848 19.4617 74.7442C19.4565 74.7415 19.4594 74.7364 19.4663 74.7301C19.9204 72.6235 20.6229 69.8774 21.6777 66.8443C24.8536 57.6946 31.2079 45.9273 43.536 41.176C66.5876 32.2918 86.9612 43.0087 85.8442 44.2005Z" fill="white"/>
</g>
<g opacity="0.5">
<path d="M121.463 95.4051C127.865 94.6017 132.307 87.9882 131.385 80.6333C130.462 73.2785 124.523 67.9675 118.12 68.7709C111.718 69.5743 107.275 76.1879 108.198 83.5427C109.121 90.8975 115.06 96.2085 121.463 95.4051Z" fill="white"/>
</g>
<g opacity="0.5">
<path d="M127.595 112.375C130.195 111.8 131.767 108.909 131.106 105.92C130.444 102.93 127.799 100.973 125.198 101.549C122.598 102.124 121.026 105.014 121.687 108.004C122.349 110.994 124.994 112.951 127.595 112.375Z" fill="white"/>
</g>
<g opacity="0.61">
<path d="M43.109 170.295C60.4729 170.295 74.5491 156.219 74.5491 138.855C74.5491 121.491 60.4729 107.415 43.109 107.415C25.7451 107.415 11.6689 121.491 11.6689 138.855C11.6689 156.219 25.7451 170.295 43.109 170.295Z" fill="#FFA6C9"/>
</g>
<path d="M43.1076 172.182C24.7312 172.182 9.78125 157.232 9.78125 138.856C9.78125 120.479 24.7312 105.529 43.1076 105.529C61.4839 105.529 76.4341 120.479 76.4341 138.856C76.4341 157.232 61.4839 172.182 43.1076 172.182ZM43.1076 109.302C26.8115 109.302 13.5539 122.56 13.5539 138.855C13.5539 155.151 26.8115 168.409 43.1076 168.409C59.4036 168.409 72.6614 155.151 72.6614 138.855C72.6614 122.56 59.4035 109.302 43.1076 109.302Z" fill="#FFA6C9"/>
<g opacity="0.5">
<path d="M27.3888 155.784C30.3941 155.784 32.8303 153.348 32.8303 150.343C32.8303 147.338 30.3941 144.901 27.3888 144.901C24.3835 144.901 21.9473 147.338 21.9473 150.343C21.9473 153.348 24.3835 155.784 27.3888 155.784Z" fill="white"/>
</g>
<g opacity="0.5">
<path d="M23.2423 142.297C23.1876 142.297 23.1334 142.296 23.0785 142.294C20.7427 142.204 18.9211 140.239 19.0099 137.903C19.5446 123.858 28.2291 114.95 42.2407 114.074C44.5695 113.925 46.5826 115.701 46.7287 118.034C46.8745 120.367 45.1014 122.376 42.7686 122.522C36.0455 122.942 27.9336 126.008 27.4686 138.225C27.3818 140.506 25.5051 142.297 23.2423 142.297Z" fill="white"/>
</g>
<path d="M150.126 234.385L144.684 261.593C133.16 266.841 121.667 269.61 110.221 267.639L95.638 268.642L92.6875 268.848L95.106 241.64C108.365 241.767 121.891 240.455 135.688 237.722C140.47 236.785 145.283 235.667 150.126 234.385Z" fill="white"/>
<path d="M150.126 234.385L144.685 261.593C133.16 266.841 121.667 269.61 110.221 267.639L95.6381 268.642C95.4931 267.457 95.4446 266.26 95.4688 265.081C95.5776 259.984 96.9803 255.014 98.371 250.111C98.8849 254.881 102.615 259.132 107.277 260.262C109.562 260.819 111.951 260.673 114.29 260.462C118.48 260.081 122.652 259.482 126.788 258.672C129.466 258.146 132.169 257.511 134.575 256.217C136.982 254.923 139.092 252.88 139.932 250.28C141.281 246.108 139.08 241.531 135.996 238.417L135.718 237.897C135.706 237.837 135.7 237.782 135.688 237.722C140.47 236.785 145.283 235.667 150.126 234.385Z" fill="#D3E4EF"/>
<path d="M92.6878 270.662C92.2023 270.662 91.7348 270.467 91.3924 270.118C91.0209 269.739 90.8341 269.216 90.8812 268.687L93.2997 241.479C93.3828 240.543 94.1675 239.826 95.1059 239.826C95.1116 239.826 95.1175 239.826 95.1232 239.826C112.675 239.999 131.018 237.57 149.662 232.631C150.267 232.472 150.912 232.634 151.369 233.063C151.825 233.492 152.028 234.126 151.905 234.741L146.464 261.949C146.349 262.52 145.967 263.001 145.437 263.243C132.341 269.21 120.79 271.247 110.131 269.463L92.8126 270.658C92.7709 270.661 92.7293 270.662 92.6878 270.662ZM96.7651 243.462L94.6825 266.892L110.097 265.829C110.241 265.818 110.387 265.827 110.529 265.851C120.282 267.532 130.94 265.722 143.089 260.322L147.781 236.864C130.392 241.245 113.263 243.462 96.8005 243.462C96.7885 243.462 96.7773 243.462 96.7651 243.462Z" fill="#1E3A59"/>
<path d="M52.0093 184.263C25.0643 210.805 10.0551 252.524 45.0766 275.131C41.9542 266.16 43.7758 253.098 48.094 237.969C46.7958 235.209 45.1567 233.283 43.2968 231.898C47.6506 218.239 51.5335 205.1 54.5079 192.964C54.2431 189.988 53.4499 187.083 52.0093 184.263Z" fill="#6E7C8C"/>
<path d="M43.5888 261.635C29.0984 250.109 25.4899 234.631 28.685 218.866C20.8558 239.51 23.2405 261.035 45.0763 275.13C43.7498 271.319 43.3184 266.767 43.5888 261.635Z" fill="#4A5B6E"/>
<path d="M45.076 276.781C44.7657 276.781 44.4546 276.694 44.1815 276.517C31.6219 268.41 24.5592 257.534 23.1896 244.194C21.2421 225.227 31.8415 201.812 50.8512 183.087C51.2257 182.718 51.7539 182.55 52.2727 182.633C52.7915 182.717 53.2393 183.044 53.4787 183.512C54.9608 186.414 55.8602 189.544 56.1512 192.817C56.1672 192.998 56.1537 193.18 56.1103 193.356C53.4808 204.087 49.9132 216.515 45.2117 231.321C47.0049 232.878 48.4429 234.834 49.5869 237.267C49.7567 237.628 49.7901 238.038 49.6805 238.422C44.9406 255.028 43.9442 266.858 46.6347 274.588C46.8663 275.254 46.6498 275.992 46.0962 276.428C45.798 276.662 45.4378 276.781 45.076 276.781ZM51.4845 187.13C34.2304 204.863 24.682 226.421 26.4722 243.857C27.5987 254.83 32.9462 264.019 42.384 271.227C40.9916 263.19 42.2821 252.492 46.3337 238.127C45.2773 236.056 43.9574 234.447 42.3112 233.221C41.7463 232.8 41.5107 232.067 41.7245 231.397C46.533 216.312 50.1695 203.696 52.8387 192.841C52.6395 190.867 52.1855 188.956 51.4845 187.13Z" fill="#1E3A59"/>
<path d="M43.7755 234.265C42.3091 233.592 41.1734 231.726 40.1933 230.538C39.2 229.268 37.8052 227.537 36.8613 226.247C40.1136 227.797 43.2427 229.774 46.1204 232.156C46.7514 232.679 46.8395 233.614 46.3171 234.245C45.8707 234.784 45.1233 234.927 44.5214 234.631L43.7755 234.265Z" fill="#1E3A59"/>
<path d="M48.5511 234.989C44.9517 242.221 43.3144 248.648 42.505 253.128C41.4941 258.722 40.5002 264.563 42.2116 271.758C42.2116 271.758 42.8509 277.469 46.3268 281.881C55.8538 293.976 86.1885 298.172 117.614 292.448C123.823 291.316 127.701 285.077 125.917 279.022L122.919 268.848C105.669 268.862 95.7583 260.614 97.525 239.222C91.8959 240.483 84.1233 241.601 74.9096 241.055C63.5624 240.383 54.5052 237.454 48.5511 234.989Z" fill="#6E7C8C"/>
<g opacity="0.4">
<path d="M126.023 279.396L122.917 268.847C105.67 268.858 95.7612 260.611 97.5282 239.219C92.198 240.44 84.8542 241.549 76.1309 241.121C75.7258 241.103 75.3207 241.086 74.9098 241.056C74.54 241.033 74.1761 241.004 73.8121 240.98C62.5586 240.088 53.6651 236.935 47.9474 234.382C47.7889 235.35 47.6245 236.325 47.4601 237.294V237.299C47.419 237.54 47.3839 237.769 47.3428 238.01C49.8964 238.967 52.45 239.918 54.9977 240.869C66.1277 245.77 80.2225 245.512 95.7142 242.847C93.2487 251.095 95.5087 260.029 101.579 266.005C110.631 274.916 122.87 272.034 123.522 271.87C124.455 274.963 125.383 278.057 126.31 281.151C126.316 281.156 126.316 281.156 126.316 281.162C126.316 281.168 126.316 281.168 126.316 281.174V281.18L126.023 279.396Z" fill="white"/>
</g>
<path d="M126.175 279.896C89.1522 287.571 60.2387 284.641 52.7835 276.707C47.7554 271.357 45.528 265.22 45.528 265.22C43.5178 259.681 43.5083 254.773 43.7142 251.918C42.3549 255.634 40.2619 263.044 42.2119 271.758C42.2119 271.758 42.8518 277.469 46.3269 281.881C55.9586 294.108 86.8582 298.263 118.651 292.254C124.318 291.183 127.805 285.428 126.175 279.896Z" fill="#4A5B6E"/>
<path d="M90.3396 296.784C84.3926 296.784 78.6826 296.4 73.3962 295.626C59.6792 293.619 49.8264 289.254 44.9026 283.003C41.3441 278.486 40.5326 272.958 40.4219 272.064C38.6984 264.375 40.0596 257.971 41.9405 249.123C43.0339 243.981 44.4787 238.822 46.2344 233.787C46.4015 233.308 46.7617 232.92 47.2275 232.719C47.6932 232.518 48.2223 232.521 48.6857 232.727C57.0667 236.465 65.9293 238.657 75.0271 239.244C82.4277 239.724 89.8609 239.12 97.12 237.454C97.6812 237.324 98.2717 237.47 98.7088 237.846C99.1458 238.222 99.378 238.784 99.3343 239.359C98.9975 243.788 99.2376 252.502 104.628 261.098C111.53 272.104 122.288 275.762 126.593 276.825C127.237 276.984 127.743 277.482 127.912 278.124L127.942 278.236C128.854 281.717 128.267 285.451 126.333 288.483C124.393 291.524 121.242 293.636 117.688 294.277C108.467 295.942 99.1445 296.784 90.3396 296.784ZM49.0322 236.828C47.6074 241.13 46.4176 245.511 45.4888 249.877C43.4601 259.421 42.4715 264.711 43.9809 271.356C43.997 271.426 44.0085 271.497 44.0161 271.568C44.0216 271.617 44.6158 276.776 47.7524 280.758C56.728 292.152 85.8693 296.336 117.044 290.707C119.643 290.238 121.856 288.755 123.275 286.531C124.522 284.577 124.989 282.308 124.623 280.056C119.347 278.572 108.626 274.3 101.555 263.025C96.4736 254.923 95.5428 246.736 95.6113 241.486C88.7492 242.851 81.7582 243.315 74.7931 242.865C65.9225 242.292 57.2655 240.262 49.0322 236.828Z" fill="#1E3A59"/>
<path d="M180.752 260.388C182.361 258.115 187.801 249.669 184.274 228.688C183.851 226.175 175.898 181.166 156.683 179.965C150.491 179.578 145.743 183.904 144.943 184.661C138.26 190.978 138.947 201.58 140.246 218.122C140.906 226.515 142.109 233.527 143.181 238.668C135.053 237.242 123.819 236.345 110.895 238.668C105.87 239.571 101.354 240.824 97.3929 242.19C97.2378 245.669 97.3719 253.531 102.089 261.562C108.549 272.56 119.124 276.248 122.635 277.412C131.638 280.398 139.125 279.206 146.703 277.999C151.156 277.29 160.058 275.782 169.598 269.781C173.277 267.466 177.59 264.854 180.752 260.388Z" fill="#6E7C8C"/>
<path d="M184.273 228.688C183.996 227.04 180.481 207.122 172.676 193.263C176.821 204.589 178.785 215.733 178.989 216.948C182.516 237.928 177.076 246.374 175.467 248.647C172.306 253.113 167.993 255.725 164.314 258.04C154.774 264.041 145.872 265.549 141.42 266.258C133.841 267.465 126.354 268.657 117.351 265.671C114.105 264.595 104.827 261.358 98.3389 252.188C99.0315 255.101 100.181 258.315 102.088 261.562C108.548 272.56 119.123 276.247 122.634 277.412C131.637 280.397 139.124 279.205 146.703 277.999C151.155 277.29 160.058 275.781 169.597 269.78C173.276 267.466 177.589 264.853 180.75 260.388C182.36 258.115 187.799 249.669 184.273 228.688Z" fill="#4A5B6E"/>
<path d="M136.115 280.261C132.394 280.261 128.326 279.836 123.899 278.569C119.005 277.169 107.55 273.891 100.546 262.513C95.9146 254.99 95.2909 247.253 95.5832 242.088C95.6247 241.353 96.1066 240.715 96.8028 240.475C101.293 238.927 105.926 237.718 110.575 236.883C120.518 235.096 130.703 234.954 140.891 236.461C139.741 230.464 138.918 224.355 138.439 218.264C137.168 202.079 136.249 190.384 143.698 183.343C145.096 182.021 150.183 177.737 156.797 178.154C165.586 178.704 173.131 187.127 179.222 203.191C183.851 215.397 185.975 227.863 186.063 228.388C189.167 246.848 185.693 256.549 182.233 261.436C178.863 266.196 174.272 269.028 170.92 271.097L170.553 271.324C160.996 277.232 151.918 278.566 147.556 279.207C144.188 279.701 140.379 280.261 136.115 280.261ZM99.1579 243.51C99.0606 248.105 99.8448 254.454 103.635 260.611C109.901 270.79 120.408 273.797 124.895 275.081C133.647 277.584 140.755 276.539 147.027 275.618C151.466 274.965 159.727 273.751 168.645 268.238L169.016 268.009C172.274 265.998 176.33 263.496 179.272 259.34C183.606 253.219 184.747 242.44 182.486 228.989C182.409 228.528 174.536 182.898 156.571 181.775C151.405 181.457 147.32 184.911 146.19 185.979C140.289 191.557 140.744 201.278 142.056 217.98C142.591 224.793 143.568 231.629 144.958 238.297C145.081 238.886 144.904 239.498 144.486 239.93C144.067 240.362 143.461 240.558 142.87 240.455C132.237 238.59 121.587 238.589 111.217 240.453C107.154 241.183 103.104 242.21 99.1579 243.51Z" fill="#1E3A59"/>
<path d="M137.807 236.056C144.231 236.304 150.533 238.427 156.096 241.603C154.466 241.573 152.878 241.45 151.302 241.321C146.642 240.887 142.007 240.545 137.417 239.662C135.279 239.184 135.632 236.059 137.807 236.056Z" fill="#1E3A59"/>
</svg>
