<svg width="320" height="400" viewBox="0 0 320 400" fill="none" xmlns="http://www.w3.org/2000/svg">
<g opacity="0.2">
<path d="M187.51 400C241.327 400 284.955 394.4 284.955 387.493C284.955 380.586 241.327 374.986 187.51 374.986C133.692 374.986 90.0649 380.586 90.0649 387.493C90.0649 394.4 133.692 400 187.51 400Z" fill="#1E3A59"/>
</g>
<path d="M227.954 149.249H252.658C264.644 149.249 274.554 158.587 275.265 170.552L280.993 266.876C281.75 279.617 272.81 290.891 260.232 293.056L241.145 296.342L227.954 149.249Z" fill="white"/>
<path d="M240.974 296.565L240.955 296.359L227.745 149.059H252.658C264.725 149.059 274.739 158.495 275.455 170.541L281.183 266.865C281.947 279.719 272.954 291.06 260.264 293.244L240.974 296.565ZM228.162 149.44L241.316 296.12L260.199 292.869C272.698 290.717 281.555 279.547 280.802 266.888L275.075 170.563C274.371 158.718 264.524 149.44 252.658 149.44H228.162Z" fill="#371A45"/>
<path d="M227.954 149.249H252.658C264.644 149.249 274.554 158.587 275.265 170.552L280.993 266.876C281.75 279.617 272.81 290.891 260.232 293.056L241.145 296.342L227.954 149.249Z" fill="white"/>
<path d="M240.974 296.565L240.955 296.359L227.745 149.059H252.658C264.725 149.059 274.739 158.495 275.455 170.541L281.183 266.865C281.947 279.719 272.954 291.06 260.264 293.244L240.974 296.565ZM228.162 149.44L241.316 296.12L260.199 292.869C272.698 290.717 281.555 279.547 280.802 266.888L275.075 170.563C274.371 158.718 264.524 149.44 252.658 149.44H228.162Z" fill="#371A45"/>
<g opacity="0.2">
<path d="M217.222 153.247H241.926C253.912 153.247 263.822 162.585 264.533 174.55L270.261 270.874C271.018 283.615 262.078 294.889 249.5 297.054L230.413 300.34L217.222 153.247Z" fill="#0056A8"/>
</g>
<path d="M241.144 299.159C240.527 299.159 239.923 298.956 239.427 298.575C238.803 298.095 238.408 297.377 238.338 296.593L225.147 149.5C225.076 148.712 225.34 147.931 225.874 147.348C226.407 146.764 227.162 146.432 227.953 146.432H252.657C266.112 146.432 277.278 156.953 278.076 170.384L283.804 266.708C284.648 280.899 274.719 293.42 260.709 295.832L241.622 299.118C241.463 299.145 241.303 299.159 241.144 299.159ZM231.033 152.066L243.677 293.047L259.753 290.28C270.931 288.356 278.853 278.365 278.18 267.043L272.452 170.719C271.83 160.259 263.135 152.066 252.657 152.066H231.033Z" fill="#1E3A59"/>
<path d="M272.299 163.342C267.566 162.976 262.905 165.257 259.074 168.138C257.538 169.296 255.667 167.177 256.997 165.799C261 161.656 266.145 158.222 272.189 157.709C276.273 157.444 276.396 163.447 272.299 163.342Z" fill="#1E3A59"/>
<path d="M156.128 145.292C136.3 154.902 118.949 167.418 106.858 186.104L83.1948 219.517C98.5696 231.367 113.917 233.093 129.221 219.517C123.711 267.912 124.049 316.182 130.333 364.326C123.414 365.447 120.425 375.714 123.945 384.936C124.817 387.22 127.028 388.714 129.473 388.662L175.12 387.695C177.72 387.64 179.966 385.835 180.545 383.299C182.499 374.735 181.543 359.332 180.492 343.704C180.357 341.692 180.592 339.673 181.185 337.746L188.551 313.808C194.352 331.038 198.394 348.427 196.063 366.391C187.424 377.284 190.429 388.664 203.199 388.664C224.76 389.664 249.535 389.727 250.337 382.918C251.525 320.105 250.579 260.253 245.48 229.801C279.804 282.372 301.395 293.542 312.123 269.393C312.919 262.284 309.416 256.673 304.235 251.646C322.827 246.2 319.635 236.246 300.103 236.434C261.229 185.353 238.44 138.615 210.711 154.366L156.128 145.292Z" fill="white"/>
<path d="M221.489 389.334C216.158 389.334 210.066 389.172 203.189 388.854C197.756 388.854 193.767 386.802 191.967 383.076C189.748 378.485 191.211 372.222 195.88 366.314C198.327 347.353 193.594 329.475 188.558 314.429L181.366 337.801C180.778 339.715 180.547 341.696 180.682 343.69C181.652 358.121 182.753 374.477 180.73 383.341C180.133 385.959 177.827 387.827 175.124 387.884L129.476 388.852C126.948 388.926 124.665 387.359 123.766 385.003C121.607 379.346 121.813 372.912 124.291 368.612C125.711 366.148 127.723 364.615 130.12 364.169C123.924 316.584 123.539 268.078 128.976 219.986C114.61 232.501 99.5918 232.395 83.078 219.668L82.9331 219.557L106.702 185.994C117.607 169.14 133.287 156.15 156.044 145.12L156.099 145.094L156.159 145.104L210.675 154.167C232.723 141.711 251.626 168.412 277.774 205.359C284.811 215.302 292.087 225.583 300.197 236.243C309.698 236.174 316.189 238.556 316.749 242.338C317.263 245.799 312.727 249.302 304.6 251.736C310.554 257.595 313.006 263.219 312.311 269.414L312.296 269.47C308.892 277.135 304.351 281.247 298.8 281.693C286.504 282.676 268.665 265.514 245.814 230.66C251.429 265.334 251.481 332.479 250.526 382.921C250.018 387.243 240.693 389.334 221.489 389.334ZM188.542 313.186L188.731 313.746C193.854 328.963 198.755 347.121 196.251 366.415L196.244 366.467L196.212 366.509C191.61 372.311 190.151 378.443 192.31 382.91C194.043 386.497 197.91 388.473 203.198 388.473C214.593 389.001 249.238 390.609 250.147 382.895C251.108 332.052 251.047 264.208 245.291 229.832L245.141 228.934L245.639 229.696C268.644 264.931 286.513 282.298 298.77 281.313C304.164 280.879 308.594 276.851 311.936 269.343C312.614 263.206 310.124 257.625 304.102 251.782L303.868 251.555L304.181 251.463C312.183 249.119 316.855 245.643 316.373 242.393C315.943 239.498 310.911 236.622 300.643 236.622C300.465 236.622 300.286 236.623 300.105 236.624L300.009 236.625L299.952 236.549C291.814 225.857 284.519 215.549 277.463 205.579C251.407 168.762 232.58 142.163 210.805 154.531L210.746 154.565L156.156 145.489C133.494 156.482 117.879 169.421 107.017 186.207L83.4561 219.478C99.8867 232.073 114.817 232.039 129.095 219.374L129.467 219.045L129.411 219.539C123.913 267.821 124.287 316.527 130.522 364.301L130.545 364.484L130.363 364.514C128.003 364.896 126.018 366.379 124.621 368.802C122.198 373.007 122.003 379.313 124.123 384.867C124.965 387.073 127.1 388.516 129.468 388.472L175.116 387.504C177.645 387.45 179.801 385.703 180.359 383.256C182.369 374.446 181.271 358.12 180.302 343.716C180.164 341.675 180.4 339.647 181.003 337.69L188.542 313.186Z" fill="#371A45"/>
<g opacity="0.2">
<path d="M180.491 343.703C181.546 359.335 182.499 374.728 180.549 383.303C179.964 385.838 177.719 387.639 175.12 387.697L129.474 388.662C127.029 388.713 124.816 387.221 123.948 384.937C123.478 383.708 123.124 382.46 122.88 381.219C149.981 379.862 166.815 369.859 164.847 341.831C164.429 335.9 161.894 330.439 157.874 326.328V326.322C157.868 326.315 157.861 326.315 157.855 326.309C156.452 324.875 154.87 323.614 153.133 322.546C143.801 314.512 138.71 306.202 135.967 299.085C133.617 292.986 139.948 287.147 145.817 290.023C158.285 296.132 171.734 299.405 185.908 300.591L187.51 317.194L181.186 337.746C180.594 339.67 180.356 341.696 180.491 343.703Z" fill="#0056A8"/>
</g>
<g opacity="0.2">
<path d="M130.7 200.232C118.284 211.623 105.839 212.237 93.3741 205.141L83.1938 219.516C98.4461 231.271 113.671 233.055 128.855 219.83C129.368 213.299 129.98 206.767 130.7 200.232Z" fill="#0056A8"/>
</g>
<g opacity="0.2">
<path d="M312.122 269.392C301.395 293.54 279.805 282.373 245.477 229.802C245.46 223.757 244.869 217.672 243.765 211.554C274.949 260.688 295.169 272.925 305.941 253.397C310.156 257.978 312.826 263.099 312.122 269.392Z" fill="#0056A8"/>
</g>
<g opacity="0.2">
<path d="M245.037 163.722C234.209 173.001 220.935 179.125 206.839 181.351C205.402 181.576 203.96 181.762 202.506 181.908C198.523 182.303 194.484 182.393 190.433 182.15C187.075 181.948 183.706 181.525 180.348 180.86C176.449 180.105 172.568 179.029 168.725 177.621C167.457 177.147 166.201 176.657 164.979 176.128C162.46 175.057 160.037 173.857 157.694 172.545C149.829 168.144 143.012 162.465 137.406 155.879C143.31 151.952 149.581 148.465 156.127 145.293L210.709 154.364C222.507 147.665 233.415 152.274 245.037 163.722Z" fill="#0056A8"/>
</g>
<path d="M221.634 391.968C216.733 391.968 211.167 391.831 204.874 391.558C204.299 391.535 203.715 391.509 203.13 391.481C196.752 391.462 191.824 388.817 189.602 384.219C187.013 378.863 188.423 371.829 193.361 365.28C195.15 350.328 192.357 335.984 188.593 323.243L183.874 338.573C183.381 340.18 183.187 341.844 183.299 343.516C184.49 361.175 185.245 375.363 183.291 383.927C182.423 387.721 179.088 390.428 175.18 390.511L129.533 391.48C125.871 391.554 122.599 389.326 121.312 385.933C120.795 384.575 120.392 383.17 120.117 381.762C118.979 375.997 119.927 370.209 122.654 366.287C123.9 364.495 125.455 363.163 127.235 362.347C125.057 345.125 123.62 327.663 122.963 310.403C122.528 299.187 122.414 287.803 122.623 276.569C122.931 259.764 123.967 242.721 125.705 225.806C111.859 235.076 97.009 233.721 81.4757 221.746C80.2788 220.823 80.0231 219.119 80.8967 217.887L104.526 184.525C112.336 172.473 122.582 162.334 135.848 153.532C141.6 149.706 147.833 146.181 154.899 142.757C155.424 142.503 156.015 142.418 156.589 142.514L210.213 151.425C225.596 143.344 238.551 153.378 247.014 161.715C257.183 171.716 267.728 186.615 279.937 203.866C286.728 213.462 293.743 223.373 301.505 233.621C311.959 233.781 318.59 236.854 319.346 241.952C319.657 244.049 319.147 248.958 309.268 252.9C312.659 256.95 315.727 262.493 314.921 269.706C314.889 269.992 314.813 270.273 314.696 270.536C310.871 279.147 305.593 283.781 299.01 284.31C298.606 284.343 298.197 284.359 297.784 284.359C285.642 284.36 269.918 270.276 249.916 241.452C254.051 278.22 254.012 337.406 253.15 382.971C253.149 383.063 253.142 383.155 253.132 383.246C252.427 389.244 243.357 390.79 235.535 391.466C231.659 391.8 227.052 391.968 221.634 391.968ZM188.551 310.988C189.759 310.988 190.835 311.759 191.221 312.907C196.439 328.418 201.426 346.947 198.855 366.755C198.789 367.263 198.586 367.742 198.268 368.143C194.367 373.062 192.99 378.282 194.675 381.768C195.946 384.398 198.973 385.847 203.199 385.847C203.244 385.847 203.289 385.848 203.334 385.85C203.922 385.878 204.51 385.906 205.103 385.928C217.848 386.483 227.486 386.47 234.583 385.892C245.744 384.982 247.367 382.875 247.521 382.617C248.477 331.894 248.411 264.386 242.698 230.268C242.478 228.952 243.21 227.663 244.452 227.178C245.695 226.693 247.106 227.146 247.835 228.262C275.786 271.067 290.842 279.319 298.558 278.694C302.897 278.345 306.434 275.06 309.363 268.657C309.802 263.476 307.6 258.834 302.273 253.668C301.553 252.97 301.258 251.942 301.499 250.969C301.74 249.996 302.479 249.224 303.441 248.942C312.301 246.346 313.861 243.375 313.773 242.779C313.628 241.804 310.106 239.139 300.131 239.251C300.121 239.251 300.113 239.251 300.104 239.251C299.224 239.251 298.395 238.84 297.862 238.14C289.705 227.421 282.401 217.101 275.338 207.121C263.284 190.089 252.874 175.38 243.062 165.73C231.26 154.106 221.712 151.357 212.1 156.813C211.538 157.133 210.884 157.248 210.248 157.142L156.553 148.219C150.048 151.408 144.287 154.685 138.965 158.225C126.336 166.604 116.608 176.225 109.223 187.636C109.201 187.669 109.179 187.702 109.157 187.734L87.0887 218.891C101.723 229.246 114.57 228.748 127.35 217.408C128.223 216.633 129.482 216.477 130.518 217.015C131.554 217.553 132.15 218.674 132.018 219.833C129.867 238.73 128.601 257.854 128.255 276.673C128.049 287.801 128.162 299.076 128.592 310.187C129.273 328.06 130.797 346.152 133.122 363.961C133.319 365.469 132.283 366.862 130.781 367.105C129.408 367.329 128.23 368.135 127.28 369.502C125.435 372.156 124.808 376.438 125.645 380.676C125.859 381.775 126.173 382.868 126.578 383.931C127.024 385.105 128.153 385.891 129.414 385.847L175.059 384.878C176.381 384.85 177.508 383.943 177.799 382.672C179.723 374.236 178.636 358.117 177.678 343.895C177.519 341.533 177.792 339.186 178.489 336.917L185.858 312.976C186.218 311.807 187.291 311.004 188.514 310.988C188.527 310.988 188.539 310.988 188.551 310.988Z" fill="#1E3A59"/>
<path d="M157.961 348.208C147.478 348.208 137.209 347.104 127.251 344.9C125.731 344.564 124.773 343.061 125.109 341.541C125.445 340.022 126.948 339.059 128.468 339.4C144.927 343.041 162.29 343.552 180.078 340.916C181.617 340.689 183.05 341.751 183.278 343.29C183.506 344.829 182.443 346.261 180.904 346.489C173.171 347.635 165.51 348.208 157.961 348.208Z" fill="#1E3A59"/>
<path d="M219.892 347.275C212.824 347.275 204.725 346.754 195.509 345.723C193.963 345.55 192.85 344.156 193.023 342.61C193.196 341.064 194.586 339.947 196.136 340.124C223.846 343.225 241.14 341.585 249.005 335.107C250.205 334.118 251.981 334.29 252.97 335.491C253.959 336.691 253.787 338.467 252.587 339.456C246.22 344.7 235.611 347.275 219.892 347.275Z" fill="#1E3A59"/>
<path d="M195.417 363.649C204.432 361.877 214.279 362.688 222.446 367.042C223.21 367.441 223.506 368.384 223.107 369.148C222.732 369.865 221.871 370.167 221.136 369.872C213.337 366.655 204.702 366.772 196.708 369.133C192.91 370.065 191.592 364.517 195.417 363.649Z" fill="#1E3A59"/>
<path d="M129.48 361.077C135.521 359.58 142.14 360.453 147.56 363.315C149.013 364.075 148.09 366.293 146.533 365.804C141.45 364.179 136.011 364.332 131.184 366.447C127.339 367.878 125.507 362.132 129.48 361.077Z" fill="#1E3A59"/>
<path d="M185.891 314.738L181.29 301.592L183.752 303.471C170.145 302.047 156.291 298.459 144.983 290.458C143.507 289.368 144.971 287.109 146.575 288.047C152.166 291.456 158.334 293.807 164.684 295.338C171.042 296.871 177.585 297.611 184.146 297.851C185.313 297.894 186.276 298.677 186.608 299.731L191.209 312.877C192.328 316.421 187.236 318.221 185.891 314.738Z" fill="#1E3A59"/>
<path d="M183.895 297.844C192.222 298.19 200.727 297.047 209.067 295.094C210.651 294.749 211.331 297.007 209.809 297.589C201.593 300.552 192.975 302.794 183.993 303.478C182.439 303.596 181.083 302.433 180.964 300.879C180.825 299.208 182.222 297.765 183.895 297.844Z" fill="#1E3A59"/>
<path d="M126.407 219.381C127.606 204.111 131.923 188.873 140.077 175.862C140.463 175.24 141.282 175.049 141.904 175.436C142.5 175.806 142.697 176.579 142.373 177.189C138.889 183.719 136.308 190.679 134.63 197.83C132.945 204.985 132.151 212.319 132.035 219.657C131.83 223.492 126.243 223.24 126.407 219.381Z" fill="#1E3A59"/>
<path d="M237.843 186.649C243.716 200.187 247.708 214.936 247.106 229.798C246.974 231.829 244.008 231.861 243.849 229.82C243.295 219.03 241.652 208.32 238.847 197.87C237.913 194.374 236.87 190.899 235.779 187.428C235.38 186.123 237.275 185.391 237.843 186.649Z" fill="#1E3A59"/>
<path d="M253.811 244.924C253.275 244.924 252.733 244.772 252.254 244.453C250.958 243.591 250.606 241.843 251.468 240.547C259.831 227.971 270.716 218.76 283.82 213.17C285.251 212.56 286.906 213.224 287.517 214.655C288.127 216.087 287.462 217.741 286.031 218.352C273.954 223.503 263.903 232.021 256.159 243.667C255.617 244.483 254.722 244.924 253.811 244.924Z" fill="#1E3A59"/>
<path d="M290.258 258.715C295.26 257.441 299.498 254.41 301.97 249.969C303.936 246.782 308.655 249.491 306.884 252.799C304.872 255.395 302.09 257.458 299.17 258.848C296.407 260.139 293.463 260.756 290.604 260.914C289.987 260.949 289.459 260.476 289.425 259.86C289.394 259.319 289.754 258.846 290.258 258.715Z" fill="#1E3A59"/>
<g opacity="0.2">
<path d="M141.802 241.865H130.792C128.849 241.865 127.329 240.275 127.517 238.439L128.394 229.826C128.708 226.748 131.432 224.399 134.688 224.399H141.802V241.865Z" fill="#1E3A59"/>
</g>
<g opacity="0.2">
<path d="M230.007 241.865H241.808C243.751 241.865 245.271 240.275 245.084 238.439L244.206 229.826C243.892 226.748 241.168 224.399 237.912 224.399H230.007L230.007 241.865Z" fill="#1E3A59"/>
</g>
<g opacity="0.2">
<path d="M141.803 220.644V251.631C141.803 257.75 147.027 262.711 153.471 262.711H218.339C224.783 262.711 230.007 257.75 230.007 251.631V220.644C230.007 214.524 224.783 209.563 218.339 209.563H153.471C147.027 209.563 141.803 214.524 141.803 220.644Z" fill="#0056A8"/>
</g>
<g opacity="0.2">
<path d="M212.401 365.125C205.06 370.928 201.443 378.286 205.077 388.664L204.998 388.743C204.395 388.72 203.798 388.692 203.201 388.664C190.428 388.664 187.425 377.283 196.062 366.393C198.395 348.426 194.35 331.04 188.552 313.805L187.51 317.191L185.904 322.408V300.594L205.506 296.404C211.581 295.106 216.423 301.647 213.268 306.999C205.043 320.954 204.857 340.598 212.401 365.125Z" fill="#0056A8"/>
</g>
<path d="M107.235 184.976C104.375 197.328 95.8853 208.983 84.5114 220.282C76.3856 213.982 70.4096 207.404 66.4826 200.563C46.9515 199.797 43.3844 180.778 53.5245 168.637C39.0925 166.774 34.5146 163.432 37.7454 158.917C39.5017 156.463 42.4369 155.131 45.4536 155.217C56.0574 154.811 65.191 155.166 73.3845 156.008C82.0707 152.075 93.1034 158.966 93.1034 175.304C96.7822 179.237 101.325 182.577 107.235 184.976Z" fill="white"/>
<path d="M84.5268 220.536L84.3946 220.433C76.3875 214.225 70.3238 207.603 66.3696 200.749C58.1357 200.398 52.0841 196.782 49.3209 190.559C46.3348 183.835 47.8445 175.323 53.1586 168.782C43.3789 167.49 38.0365 165.513 36.8285 162.738C36.3135 161.555 36.5698 160.233 37.5898 158.807C39.3482 156.351 42.279 154.943 45.4588 155.027C55.3555 154.647 64.4832 154.905 73.3526 155.814C77.1989 154.091 81.484 154.445 85.1157 156.787C90.2975 160.129 93.2761 166.848 93.2937 175.229C97.2552 179.45 101.839 182.581 107.307 184.8L107.457 184.861L107.421 185.02C104.836 196.182 97.3859 207.761 84.6455 220.418L84.5268 220.536ZM45.1864 155.404C42.2377 155.404 39.5339 156.746 37.9 159.029C36.9633 160.338 36.7204 161.534 37.178 162.585C38.3259 165.222 43.8337 167.195 53.5487 168.449L53.893 168.493L53.6704 168.76C48.2717 175.224 46.7008 183.72 49.6691 190.405C52.3818 196.514 58.3555 200.054 66.4901 200.373L66.5954 200.377L66.6478 200.468C70.5541 207.274 76.5582 213.854 84.4959 220.03C97.0514 207.531 104.419 196.099 107.012 185.091C101.536 182.845 96.9391 179.685 92.9641 175.434L92.9127 175.38V175.304C92.9127 167.02 89.9958 160.388 84.9093 157.107C81.3735 154.826 77.2008 154.489 73.4627 156.182L73.4158 156.203L73.3648 156.198C64.4978 155.287 55.3703 155.028 45.4608 155.407C45.369 155.405 45.2777 155.404 45.1864 155.404Z" fill="#371A45"/>
<g opacity="0.2">
<path d="M56.0182 165.453C57.2351 165.103 60.8899 164.11 70.3303 163.568C72.9733 163.416 76.5964 163.269 80.941 163.286C82.9426 163.552 85.0794 163.916 87.3262 164.413C88.7757 164.733 90.1575 165.083 91.4686 165.45C88.083 156.351 80.045 152.992 73.382 156.009C65.1885 155.167 56.055 154.812 45.4512 155.218C42.4346 155.132 39.4993 156.464 37.743 158.919C34.8515 162.959 38.2215 166.059 49.3065 168.002C50.7903 167.292 53.0927 166.294 56.0182 165.453Z" fill="#0056A8"/>
<path d="M103.668 185.54C104.518 186.448 105.416 187.323 106.364 188.164C106.694 187.106 106.986 186.044 107.233 184.976C105.955 184.457 104.744 183.892 103.588 183.288C103.636 184.02 103.668 184.766 103.668 185.54Z" fill="black"/>
<path d="M77.0485 210.799C75.9054 210.754 74.8222 210.641 73.7881 210.477C76.385 213.338 79.3801 216.149 82.7798 218.907C80.5369 216.247 78.6247 213.545 77.0485 210.799Z" fill="black"/>
</g>
<g opacity="0.2">
<path d="M73.0796 189.483C58.3591 189.011 51.0693 181.594 50.5431 173.131C44.4392 184.971 49.2275 199.887 66.4796 200.563C70.4065 207.404 76.3825 213.982 84.5084 220.282C88.2651 216.55 91.7045 212.779 94.7329 208.957C84.9981 202.731 77.8164 196.236 73.0796 189.483Z" fill="#0056A8"/>
</g>
<path d="M84.51 223.1C83.9037 223.1 83.2952 222.905 82.7844 222.509C74.9773 216.456 68.9402 209.993 64.8183 203.279C56.3707 202.52 49.8962 198.328 46.9196 191.625C44.0708 185.21 44.7912 177.409 48.6287 170.745C40.2907 169.265 35.8474 167.065 34.4199 163.786C33.7945 162.35 33.4664 160.056 35.4532 157.279C37.7024 154.136 41.4091 152.304 45.4329 152.399C55.1821 152.029 64.1948 152.27 72.9516 153.134C77.4459 151.369 82.3551 151.882 86.5386 154.58C92.2529 158.265 95.6311 165.357 95.9016 174.152C99.4377 177.729 103.502 180.421 108.294 182.367C109.576 182.887 110.291 184.263 109.979 185.612C107.279 197.271 99.5976 209.265 86.4958 222.281C85.9502 222.823 85.2317 223.1 84.51 223.1ZM45.1744 158.03C43.0841 158.03 41.1743 158.966 40.035 160.558C39.6276 161.127 39.5559 161.469 39.5856 161.537C39.632 161.644 40.8705 164.164 53.8841 165.844C54.9042 165.976 55.7714 166.653 56.1466 167.61C56.5217 168.568 56.3451 169.654 55.686 170.444C50.9235 176.145 49.5039 183.562 52.0689 189.339C54.3539 194.484 59.5117 197.471 66.5922 197.748C67.5613 197.786 68.4425 198.32 68.925 199.161C72.3588 205.144 77.5207 210.969 84.288 216.505C94.7054 205.815 101.149 195.989 103.9 186.592C98.9842 184.281 94.7613 181.202 91.0453 177.229C90.5569 176.707 90.2855 176.019 90.2855 175.304C90.2855 167.93 87.8069 162.102 83.4852 159.314C80.7132 157.526 77.4551 157.257 74.5452 158.574C74.0914 158.78 73.592 158.862 73.0955 158.81C64.3517 157.912 55.3438 157.657 45.5606 158.032C45.4979 158.035 45.435 158.036 45.3732 158.033C45.3068 158.031 45.2403 158.03 45.1744 158.03Z" fill="#1E3A59"/>
<path d="M50.1808 166.603C66.0656 161.13 81.4008 187.44 54.7838 189.323C53.3293 189.464 52.9994 187.342 54.4226 187.033C59.1497 186.312 67.4245 183.851 65.0698 177.613C63.2893 173.087 56.756 169.598 52.3596 171.799C48.7172 173.447 46.4482 168.059 50.1808 166.603Z" fill="#1E3A59"/>
<path d="M72.7463 159.185C69.532 160.096 66.9882 164.363 68.3314 167.634C70.3684 171.498 75.8759 170.149 79.436 169.057C80.0401 168.859 80.6896 169.189 80.8868 169.793C81.0732 170.364 80.7843 170.977 80.2427 171.209C77.8473 172.285 75.4387 173.149 72.749 173.29C65.4384 173.809 61.8541 166.967 64.4376 160.576C65.5333 157.741 67.7799 155.208 70.7651 153.903C74.4554 152.412 76.5063 157.882 72.7463 159.185Z" fill="#1E3A59"/>
<path d="M86.3457 126.337H95.496L89.1118 121.876L97.8435 117.697L89.3131 115.017C89.0733 119.379 88.3547 123.365 86.3457 126.337Z" fill="#FEA831"/>
<path d="M39.1554 150.093C31.5543 161.03 23.9929 169.608 16.6196 166.969C11.3208 168.274 8.17177 166.973 7.1826 163.051C4.36265 162.79 2.24456 161.703 1.68945 158.776L29.4838 136.994V133.519C20.4224 129.857 16.9505 123.757 23.8499 119.247C15.6807 112.674 15.5114 106.746 21.9719 106.664C16.1569 95.7435 20.4226 85.8181 26.1974 94.6448C25.965 79.3048 28.4198 75.3864 33.8973 84.3158C35.0241 78.2124 38.4045 76.7099 41.9727 83.6585C42.5361 70.727 51.6443 66.3809 52.1138 75.2075C52.33 91.0356 54.492 106.178 60.9405 119.81L64.6026 117.556C74.6499 84.9731 109.299 123.566 74.7438 132.393C67.9073 143.165 60.2714 153.162 39.1554 150.093Z" fill="#03B3FF"/>
<g opacity="0.6">
<path d="M39.4118 87.3089C39.5135 84.9753 39.8962 82.9263 40.4534 81.1789C37.7908 77.6528 35.414 78.7686 34.2539 82.7968C35.7235 82.3496 37.5416 83.6668 39.4118 87.3089Z" fill="white"/>
<path d="M49.5528 78.8576C49.7689 94.6859 51.9309 109.828 58.3793 123.46L62.0414 121.206C62.3325 120.263 62.6462 119.385 62.9762 118.558L60.9423 119.81C54.4939 106.178 52.3317 91.0353 52.1156 75.2072C51.7665 68.6444 46.6435 69.3686 43.8062 75.485C46.4297 73.1425 49.2949 74.008 49.5528 78.8576Z" fill="white"/>
<path d="M66.8931 112.008C76.4293 101.653 91.204 115.505 86.1282 126.559C98.1795 114.391 76.9441 93.5907 66.8931 112.008Z" fill="white"/>
</g>
<g opacity="0.2">
<path d="M41.3831 132.193V135.669L37.2985 138.869C32.0476 141.523 29.5461 139.568 29.4841 133.517C20.4246 129.855 16.9542 123.759 23.8502 119.246C15.6808 112.671 15.5119 106.744 21.9741 106.665C16.1598 95.7412 20.4247 85.8197 26.1996 94.6426C25.9686 79.3069 28.4194 75.3856 33.9012 84.3156C35.1125 87.2903 36.4928 90.2594 38.0422 93.2342C32.2955 84.5578 28.07 94.4511 33.873 105.342C27.4108 105.421 27.5799 111.348 35.7491 117.922C28.8474 122.435 32.3237 128.531 41.3831 132.193Z" fill="#371A45"/>
</g>
<g opacity="0.2">
<path d="M22.7839 129.505L23.0962 126.523C22.0543 125.995 21.0963 125.442 20.2202 124.873C20.3157 126.451 21.2142 128.033 22.7839 129.505Z" fill="black"/>
<path d="M18.6561 111.707C18.2178 111.295 17.8092 110.888 17.4219 110.486C17.4743 110.996 17.6199 111.547 17.8531 112.13C18.1078 111.986 18.3725 111.844 18.6561 111.707Z" fill="black"/>
<g opacity="0.2">
<path d="M84.2182 107.337C90.7327 114.335 90.8056 127.718 70.8123 130.386C62.5011 140.347 53.4293 149.449 31.541 144.072C22.408 154.113 13.5624 161.811 6.08245 158.374C4.58181 158.562 3.26106 158.583 2.11059 158.445L1.68848 158.776C2.24358 161.704 4.36167 162.791 7.18163 163.051C8.17079 166.973 11.3199 168.275 16.6186 166.969C23.992 169.608 31.5535 161.031 39.1545 150.093C60.2705 153.162 67.9064 143.165 74.7424 132.393C94.043 127.463 91.7514 113.25 84.2182 107.337Z" fill="#371A45"/>
</g>
<path d="M59.1392 115.662C54.9215 105.197 52.9868 93.9278 52.3519 82.2002C52.1484 94.0159 53.5214 105.483 57.6062 116.352L59.1392 115.662Z" fill="black"/>
</g>
<path d="M19.3847 169.148C18.443 169.148 17.4964 169.011 16.5434 168.722C9.60983 170.267 6.93326 167.211 5.9015 164.581C2.58033 163.978 0.607062 162.135 0.0296152 159.09C-0.0880561 158.469 0.150403 157.835 0.647584 157.445L27.7946 136.17V134.638C22.2461 132.169 18.8964 128.769 18.5483 125.211C18.3914 123.606 18.7804 121.373 21.1716 119.181C16.8326 115.24 14.9482 111.374 15.9749 108.4C16.3072 107.437 17.1795 105.97 19.4533 105.312C16.6335 98.707 16.8478 92.0331 20.1795 90.0618C20.9221 89.6216 22.5056 89.0483 24.5201 90.3719C24.7548 80.5447 26.4848 78.5723 28.3606 78.0276C30.1839 77.499 31.8597 78.7487 33.3072 80.506C34.425 78.1665 35.9074 77.546 36.8507 77.4071C38.2307 77.2022 39.5685 77.7546 40.8512 79.0486C42.2305 72.6281 45.7756 68.9074 49.0666 68.8916C49.0732 68.8916 49.08 68.8916 49.0862 68.8916C51.2098 68.8916 53.5579 70.5259 53.8023 75.1174C53.8036 75.1396 53.8043 75.1618 53.8045 75.184C54.0382 92.306 56.5473 105.776 61.6823 117.369L63.1817 116.446C67.4647 103.3 75.2768 102.721 78.4728 103.092C85.1237 103.867 90.9189 110.223 91.3913 117.26C91.6383 120.938 90.5928 129.837 75.8139 133.858C69.5082 143.702 62.2884 152.344 46.4545 152.345C44.4311 152.345 42.2705 152.205 39.95 151.907C33.5063 161.079 26.6161 169.148 19.3847 169.148ZM3.63106 159.402C4.0598 160.359 5.00117 161.152 7.33875 161.367C8.05257 161.433 8.64703 161.942 8.82211 162.637C9.14304 163.908 9.89323 166.885 16.216 165.327C16.5379 165.248 16.8771 165.265 17.1899 165.377C23.7429 167.722 31.2697 158.479 37.7684 149.128C38.1342 148.602 38.766 148.329 39.3995 148.42C59.0512 151.276 66.1198 142.828 73.3171 131.486C73.5479 131.123 73.9088 130.861 74.3261 130.754C83.4377 128.427 88.4284 123.591 88.0187 117.486C87.6566 112.089 83.106 107.035 78.0817 106.449C73.0013 105.86 68.6753 110.086 66.2185 118.054C66.0977 118.446 65.8383 118.781 65.4892 118.996L61.8271 121.249C61.4174 121.501 60.9199 121.567 60.4601 121.43C59.9994 121.293 59.6189 120.967 59.4134 120.532C53.5365 108.109 50.6801 93.7243 50.4252 75.2648C50.324 73.4723 49.7875 72.2719 49.0857 72.2719C49.0848 72.2719 49.0838 72.2719 49.0829 72.2719C47.3648 72.28 43.9891 76.2235 43.6619 83.7318C43.6287 84.498 43.0838 85.1454 42.3346 85.3093C41.5859 85.473 40.8201 85.1122 40.4697 84.4303C38.857 81.2893 37.6363 80.7112 37.3422 80.7517C36.9843 80.8043 36.0773 81.8197 35.5601 84.6224C35.433 85.3105 34.8949 85.8493 34.2068 85.9773C33.5193 86.1045 32.823 85.7956 32.457 85.1992C30.63 82.2208 29.6258 81.5054 29.2906 81.3374C28.9098 81.8104 27.7293 84.1316 27.8881 94.6186C27.8995 95.3708 27.4125 96.0402 26.693 96.2606C25.9738 96.4806 25.1957 96.1994 24.7837 95.5696C23.2645 93.2485 22.1665 92.8099 21.9008 92.9707C20.6686 93.6997 19.9818 99.3287 23.4644 105.869C23.7416 106.39 23.7273 107.017 23.427 107.524C23.1267 108.032 22.5836 108.346 21.994 108.354C21.2609 108.363 19.5185 108.493 19.17 109.503C18.6744 110.938 20.2596 114.187 24.91 117.929C25.3317 118.268 25.5653 118.789 25.5387 119.329C25.5121 119.87 25.2283 120.365 24.7755 120.661C23.3711 121.579 21.7343 123.057 21.9129 124.881C22.1485 127.292 25.2927 130.002 30.1179 131.952C30.7568 132.21 31.1747 132.83 31.1747 133.519V136.993C31.1747 137.512 30.936 138.003 30.5273 138.323L3.63106 159.402Z" fill="#1E3A59"/>
<path d="M48.4449 150.508L49.0088 157.06L49.03 157.306C49.0704 157.776 48.8406 158.207 48.4713 158.447L43.1631 161.881C42.59 162.261 41.9084 161.515 42.3314 160.98L46.1784 155.964L45.6409 157.35L45.077 150.798C44.9405 148.576 48.1971 148.289 48.4449 150.508Z" fill="#1E3A59"/>
<path d="M50.3592 162.418C50.3498 162.409 45.9561 158.197 45.9472 158.189C44.7383 157.042 45.9577 155.022 47.5199 155.527L52.2721 157.013C53.0814 157.254 52.9283 158.479 52.0967 158.526L47.1306 158.885L48.6938 156.214L51.3336 161.712C51.6321 162.313 50.8305 162.885 50.3592 162.418Z" fill="#1E3A59"/>
<path d="M57.577 148.899L59.2356 154.849C59.2768 154.99 59.326 155.16 59.2977 155.303L58.3118 162.064C58.255 162.453 57.8937 162.722 57.5048 162.666C57.1861 162.619 56.9478 162.367 56.9032 162.064L55.9173 155.303L55.9794 155.757L54.3208 149.807C53.7762 147.648 56.9232 146.765 57.577 148.899Z" fill="#1E3A59"/>
<path d="M65.5254 160.387L56.8263 156.802L58.4416 156.773L55.3603 157.414C54.6552 157.587 54.1425 156.658 54.643 156.15L56.773 153.833C57.1346 153.44 57.72 153.375 58.1547 153.654L58.3886 153.805L66.3096 158.882C67.1695 159.441 66.4725 160.773 65.5254 160.387Z" fill="#1E3A59"/>
<path d="M43.8984 143.017C43.6041 143.017 43.3152 142.984 43.0301 142.918C41.2309 142.506 40.2299 140.935 39.6623 139.482C39.104 139.821 38.5684 140.12 38.0591 140.378C35.0264 141.91 32.563 142.124 30.7375 141.015C28.795 139.834 27.8314 137.387 27.7921 133.534C27.7826 132.601 28.5315 131.837 29.4651 131.827C30.3945 131.824 31.1627 132.567 31.1723 133.5C31.2066 136.847 32.0149 137.835 32.494 138.126C33.2325 138.577 34.6679 138.304 36.5343 137.361C37.4726 136.886 38.534 136.235 39.6887 135.424C40.1545 135.097 40.7535 135.026 41.2818 135.236C41.8107 135.445 42.1988 135.906 42.3149 136.463C42.8019 138.803 43.4685 139.551 43.7859 139.623C43.8453 139.638 45.3203 139.911 49.0845 135.021C49.2941 134.749 49.5814 134.547 49.9083 134.443C53.6002 133.26 55.3033 129.045 55.108 121.562C47.2105 111.861 41.1344 102.846 36.5407 94.0141C34.9682 90.9948 33.5528 87.946 32.3339 84.9529C31.9819 84.0885 32.3972 83.1024 33.262 82.7501C34.1274 82.3984 35.1132 82.8135 35.4649 83.6782C36.6438 86.5739 38.0149 89.5264 39.5395 92.4533C44.0951 101.212 50.162 110.179 58.0874 119.866C58.3205 120.151 58.4543 120.504 58.4682 120.872C58.8182 130.126 56.522 135.568 51.4517 137.483C48.4998 141.229 46.0663 143.017 43.8984 143.017Z" fill="#1E3A59"/>
<path d="M43.6897 82.9893L43.3596 92.436C43.3245 93.3098 42.0493 93.3914 41.9014 92.5337L40.3169 83.2148C40.0123 80.7613 43.6634 80.5127 43.6897 82.9893Z" fill="#1E3A59"/>
<path d="M24.5236 117.696L29.8463 120.855C30.7603 121.402 30.1378 122.814 29.1246 122.521L23.1794 120.798C20.778 119.971 22.2763 116.508 24.5236 117.696Z" fill="#1E3A59"/>
<path d="M22.9879 105.311L25.8387 108.553C26.1396 108.895 26.1061 109.416 25.764 109.717C25.5103 109.94 25.1574 109.979 24.8696 109.844L20.9596 108.016C18.531 106.677 21.0231 103.355 22.9879 105.311Z" fill="#1E3A59"/>
<path d="M37.9286 111.819L47.5596 123.409C47.8642 123.721 47.9969 124.177 47.8806 124.579L46.5565 129.378C46.4299 129.837 45.9552 130.107 45.4962 129.98C45.1348 129.88 44.891 129.563 44.8655 129.209L44.5169 124.243L44.8377 125.413L36.6279 112.777C36.0904 111.934 37.2796 111.05 37.9286 111.819Z" fill="#1E3A59"/>
<path d="M56.7775 122.627C56.0326 122.627 55.3509 122.131 55.147 121.378C54.9032 120.477 55.4358 119.548 56.3367 119.304L60.4995 118.178C61.4025 117.935 62.3288 118.467 62.5726 119.368C62.8164 120.269 62.2838 121.197 61.3829 121.441L57.2201 122.567C57.0721 122.607 56.9236 122.627 56.7775 122.627Z" fill="#1E3A59"/>
<path d="M38.7172 151.724C36.009 150.802 34.0869 148.231 33.4836 145.591C33.2363 144.625 34.587 144.105 35.0536 144.976C36.0077 146.819 37.554 148.273 39.5941 148.459C42.171 148.882 41.1686 152.64 38.7172 151.724Z" fill="#1E3A59"/>
<path d="M15.5418 165.667C20.1506 162.359 24.3352 158.384 27.7426 153.719C28.1022 153.221 28.8978 153.714 28.598 154.259C25.8001 159.443 22.0419 164.16 17.6996 168.269C17.0215 168.917 15.9436 168.89 15.2989 168.208C14.5938 167.475 14.7123 166.254 15.5418 165.667Z" fill="#1E3A59"/>
<path d="M6.14909 161.714L19.2778 152.977C19.5393 152.803 19.8926 152.874 20.0667 153.136C20.2255 153.374 20.1802 153.689 19.9722 153.875L8.21742 164.388C6.38248 165.918 4.20231 163.112 6.14909 161.714Z" fill="#1E3A59"/>
<path d="M83.3588 115.806C83.5582 114.578 82.7239 113.42 81.4953 113.221C80.2668 113.021 79.1092 113.856 78.9098 115.084C78.7105 116.313 79.5448 117.47 80.7733 117.67C82.0018 117.869 83.1594 117.035 83.3588 115.806Z" fill="#1E3A59"/>
<path d="M95.4962 127.464H86.3459C85.929 127.464 85.5463 127.234 85.3509 126.866C85.1553 126.498 85.1791 126.051 85.4125 125.706C87.0351 123.306 87.9172 119.889 88.1883 114.955C88.2072 114.608 88.3858 114.288 88.6718 114.091C88.9576 113.892 89.3184 113.837 89.651 113.942L98.1814 116.622C98.6231 116.761 98.9348 117.155 98.9678 117.617C99.0004 118.079 98.7478 118.513 98.3301 118.713L91.3405 122.059L96.1419 125.414C96.5449 125.696 96.7187 126.207 96.5713 126.676C96.4235 127.145 95.9885 127.464 95.4962 127.464ZM88.2841 125.21H91.9167L89.0804 123.229C88.8453 123.934 88.5803 124.594 88.2841 125.21ZM90.3388 116.52C90.2247 117.88 90.0582 119.129 89.8375 120.28L94.7781 117.915L90.3388 116.52Z" fill="#1E3A59"/>
<g opacity="0.4">
<path d="M80.849 138.966C92.3099 138.966 101.601 129.422 101.601 117.65C101.601 105.878 92.3099 96.335 80.849 96.335C69.3881 96.335 60.0972 105.878 60.0972 117.65C60.0972 129.422 69.3881 138.966 80.849 138.966Z" fill="white"/>
</g>
<g opacity="0.4">
<path d="M60.0965 117.65C47.7463 117.309 71.0441 150.528 75.8287 138.335C66.8901 134.743 60.3163 129.037 60.0965 117.65Z" fill="white"/>
</g>
<path d="M80.8496 140.092C68.7856 140.092 58.9707 130.025 58.9707 117.65C58.9707 105.276 68.7856 95.208 80.8496 95.208C92.9133 95.208 102.728 105.276 102.728 117.65C102.728 130.025 92.9134 140.092 80.8496 140.092ZM80.8496 97.4619C70.0283 97.4619 61.2246 106.518 61.2246 117.65C61.2246 128.782 70.0283 137.839 80.8496 137.839C91.671 137.839 100.474 128.782 100.474 117.65C100.474 106.518 91.671 97.4619 80.8496 97.4619Z" fill="#000072"/>
<path d="M72.4513 142.15C71.9801 142.15 71.4854 142.083 70.9715 141.947C64.2535 140.17 54.5446 126.48 55.4664 120.083C55.8025 117.748 57.5132 116.45 60.1292 116.525C60.7307 116.541 61.213 117.027 61.2247 117.629C61.4084 127.124 66.0422 133.188 76.2507 137.291C76.8249 137.521 77.1056 138.172 76.8794 138.748C76.01 140.963 74.4365 142.15 72.4513 142.15ZM59.0178 118.867C58.0367 119.104 57.7901 119.757 57.6968 120.404C56.9434 125.634 66.0046 138.302 71.5476 139.768C72.7617 140.09 73.634 139.824 74.2733 138.906C64.448 134.646 59.5663 128.234 59.0178 118.867Z" fill="#000072"/>
<path d="M80.8496 140.092C68.7856 140.092 58.9707 130.025 58.9707 117.65C58.9707 105.276 68.7856 95.208 80.8496 95.208C92.9133 95.208 102.728 105.276 102.728 117.65C102.728 130.025 92.9134 140.092 80.8496 140.092ZM80.8496 97.4619C70.0283 97.4619 61.2246 106.518 61.2246 117.65C61.2246 128.782 70.0283 137.839 80.8496 137.839C91.671 137.839 100.474 128.782 100.474 117.65C100.474 106.518 91.671 97.4619 80.8496 97.4619Z" fill="#1E3A59"/>
<path d="M72.4513 142.15C71.9801 142.15 71.4854 142.083 70.9715 141.947C64.2535 140.17 54.5446 126.48 55.4664 120.083C55.8025 117.748 57.5132 116.45 60.1292 116.525C60.7307 116.541 61.213 117.027 61.2247 117.629C61.4084 127.124 66.0422 133.188 76.2507 137.291C76.8249 137.521 77.1056 138.172 76.8794 138.748C76.01 140.963 74.4365 142.15 72.4513 142.15ZM59.0178 118.867C58.0367 119.104 57.7901 119.757 57.6968 120.404C56.9434 125.634 66.0046 138.302 71.5476 139.768C72.7617 140.09 73.634 139.824 74.2733 138.906C64.448 134.646 59.5663 128.234 59.0178 118.867Z" fill="#1E3A59"/>
<path d="M142.2 233.226H131.19C129.247 233.226 127.727 231.636 127.915 229.8L128.792 221.187C129.106 218.109 131.83 215.761 135.086 215.761H142.2L142.2 233.226Z" fill="white"/>
<g opacity="0.2">
<path d="M128.415 224.875L127.913 229.8C127.726 231.636 129.246 233.226 131.189 233.226H142.199V226.324H131.189C130.014 226.324 128.997 225.741 128.415 224.875Z" fill="#1E3A59"/>
</g>
<path d="M230.405 233.226H242.206C244.149 233.226 245.669 231.636 245.482 229.8L244.604 221.187C244.29 218.109 241.566 215.761 238.31 215.761H230.405L230.405 233.226Z" fill="white"/>
<g opacity="0.2">
<path d="M244.978 224.875C244.397 225.741 243.38 226.324 242.205 226.324H230.403V233.226H242.205C244.147 233.226 245.667 231.636 245.48 229.8L244.978 224.875Z" fill="#1E3A59"/>
</g>
<path d="M142.199 212.005V242.992C142.199 249.111 147.423 254.072 153.868 254.072H218.735C225.18 254.072 230.404 249.111 230.404 242.992V212.005C230.404 205.886 225.18 200.925 218.735 200.925H153.868C147.423 200.925 142.199 205.886 142.199 212.005Z" fill="white"/>
<g opacity="0.2">
<path d="M206.672 232.383C212.789 232.383 217.747 228.168 217.747 222.968C217.747 217.768 212.789 213.553 206.672 213.553C200.556 213.553 195.597 217.768 195.597 222.968C195.597 228.168 200.556 232.383 206.672 232.383Z" fill="black"/>
</g>
<path d="M207.067 228.343C212.201 228.343 216.362 224.392 216.362 219.517C216.362 214.642 212.201 210.69 207.067 210.69C201.934 210.69 197.772 214.642 197.772 219.517C197.772 224.392 201.934 228.343 207.067 228.343Z" fill="#00AAFF"/>
<path d="M207.067 228.343C212.201 228.343 216.362 224.392 216.362 219.517C216.362 214.642 212.201 210.69 207.067 210.69C201.934 210.69 197.772 214.642 197.772 219.517C197.772 224.392 201.934 228.343 207.067 228.343Z" fill="#07C7FF"/>
<g opacity="0.2">
<path d="M207.067 224.493C202.631 224.493 198.926 221.54 198 217.592C197.855 218.212 197.772 218.855 197.772 219.517C197.772 224.392 201.933 228.343 207.067 228.343C212.201 228.343 216.362 224.391 216.362 219.517C216.362 218.855 216.279 218.212 216.134 217.592C215.208 221.54 211.504 224.493 207.067 224.493Z" fill="black"/>
</g>
<g opacity="0.2">
<path d="M218.735 239.142H153.868C147.423 239.142 142.199 234.181 142.199 228.062V242.992C142.199 249.111 147.423 254.072 153.868 254.072H218.735C225.18 254.072 230.404 249.111 230.404 242.992V228.062C230.404 234.181 225.18 239.142 218.735 239.142Z" fill="#0056A8"/>
</g>
<path d="M218.736 256.325H153.868C146.191 256.325 139.946 250.344 139.946 242.992V212.005C139.946 204.653 146.191 198.671 153.868 198.671H218.736C226.412 198.671 232.658 204.653 232.658 212.005V242.992C232.658 250.344 226.412 256.325 218.736 256.325ZM153.868 203.179C148.676 203.179 144.453 207.138 144.453 212.005V242.992C144.453 247.859 148.676 251.818 153.868 251.818H218.736C223.927 251.818 228.15 247.859 228.15 242.992V212.005C228.15 207.138 223.927 203.179 218.736 203.179H153.868Z" fill="#1E3A59"/>
<path d="M195.596 255.761C194.662 255.761 193.906 255.005 193.906 254.071V235.033L168.592 227.14C167.885 226.92 167.405 226.266 167.405 225.526V200.924C167.405 199.991 168.161 199.234 169.095 199.234C170.028 199.234 170.785 199.991 170.785 200.924V224.283L196.099 232.176C196.805 232.396 197.286 233.05 197.286 233.789V254.071C197.286 255.005 196.529 255.761 195.596 255.761Z" fill="#1E3A59"/>
<path d="M207.067 230.034C201.009 230.034 196.082 225.316 196.082 219.517C196.082 213.718 201.009 209 207.067 209C213.124 209 218.052 213.718 218.052 219.517C218.052 225.316 213.124 230.034 207.067 230.034ZM207.067 212.38C202.873 212.38 199.462 215.582 199.462 219.517C199.462 223.452 202.873 226.654 207.067 226.654C211.26 226.654 214.672 223.452 214.672 219.517C214.672 215.582 211.26 212.38 207.067 212.38Z" fill="#1E3A59"/>
<path d="M142.2 235.48H131.189C129.592 235.48 128.072 234.811 127.019 233.646C126.013 232.532 125.522 231.047 125.672 229.572L126.55 220.958C126.983 216.711 130.652 213.507 135.086 213.507H142.2C143.444 213.507 144.453 214.516 144.453 215.761V233.226C144.453 234.471 143.444 235.48 142.2 235.48ZM135.086 218.015C132.973 218.015 131.231 219.476 131.034 221.415L130.156 230.028C130.128 230.301 130.254 230.503 130.364 230.625C130.563 230.845 130.864 230.972 131.189 230.972H139.946V218.015H135.086Z" fill="#1E3A59"/>
<path d="M242.205 235.48H230.403C229.159 235.48 228.15 234.471 228.15 233.226V215.761C228.15 214.516 229.159 213.507 230.403 213.507H238.308C242.742 213.507 246.411 216.711 246.844 220.958L247.722 229.572C247.873 231.047 247.381 232.532 246.375 233.646C245.323 234.812 243.803 235.48 242.205 235.48ZM232.657 230.972H242.205C242.53 230.972 242.831 230.845 243.031 230.625C243.141 230.503 243.266 230.301 243.238 230.029L242.361 221.415C242.163 219.477 240.421 218.015 238.309 218.015H232.657V230.972Z" fill="#1E3A59"/>
<g opacity="0.5">
<path d="M203.903 220.596C205.651 220.596 207.067 219.251 207.067 217.592C207.067 215.932 205.651 214.587 203.903 214.587C202.155 214.587 200.739 215.932 200.739 217.592C200.739 219.251 202.155 220.596 203.903 220.596Z" fill="white"/>
</g>
<path d="M115.742 131.366C123.059 143.44 133.464 153.727 146.376 160.961C149.01 162.434 151.739 163.782 154.568 164.99C155.942 165.582 157.351 166.136 158.78 166.668C163.095 168.248 167.458 169.457 171.839 170.31C175.613 171.054 179.404 171.527 183.175 171.754C187.73 172.029 192.267 171.93 196.745 171.486C198.377 171.319 200.001 171.109 201.615 170.857C231.153 166.188 257.482 146.296 268.798 116.539C285.476 72.7084 263.252 24.0893 219.174 7.94006C210.682 4.83579 201.992 3.14735 193.386 2.7885C192.381 2.73706 191.37 2.71446 190.36 2.71291C187.658 2.69057 184.969 2.79538 182.301 3.02656C176.13 3.56336 170.062 4.76851 164.208 6.58618C158.355 8.3971 152.703 10.8283 147.371 13.8241C145.675 14.7756 144.01 15.7822 142.377 16.851C139.931 18.4537 137.562 20.1731 135.278 22.0297C123.884 31.24 114.709 43.4654 109.157 58.0683C99.5616 83.2814 102.842 110.074 115.742 131.366Z" fill="white"/>
<path d="M188.254 172.103C186.549 172.103 184.85 172.052 183.163 171.95C179.326 171.719 175.503 171.232 171.801 170.502C167.379 169.641 162.975 168.413 158.713 166.852C157.145 166.268 155.764 165.718 154.491 165.17C151.712 163.984 148.95 162.625 146.281 161.132C133.672 154.069 123.054 143.811 115.575 131.468C102.085 109.202 99.6784 82.424 108.974 57.9992C114.346 43.8716 123.399 31.381 135.155 21.8775C137.378 20.0701 139.772 18.3239 142.27 16.6874C143.875 15.6372 145.559 14.6165 147.275 13.6535C152.62 10.6507 158.297 8.21 164.151 6.39921C170.059 4.56492 176.16 3.36431 182.284 2.83167C184.948 2.60087 187.669 2.49554 190.362 2.51749C191.439 2.51905 192.433 2.54385 193.397 2.59295C202.176 2.95921 210.872 4.69623 219.242 7.75607C240.63 15.5924 257.58 31.2436 266.971 51.8269C276.345 72.3747 277.059 95.3814 268.981 116.61C258.051 145.353 232.25 166.214 201.646 171.051C200.03 171.303 198.388 171.515 196.765 171.682C193.932 171.962 191.085 172.103 188.254 172.103ZM115.91 131.264C123.354 143.55 133.922 153.76 146.472 160.79C149.129 162.276 151.879 163.629 154.645 164.81C155.913 165.356 157.288 165.903 158.849 166.484C163.091 168.038 167.474 169.26 171.876 170.117C175.562 170.844 179.367 171.329 183.187 171.558C187.654 171.829 192.209 171.739 196.725 171.291C198.34 171.125 199.976 170.914 201.585 170.664C232.049 165.848 257.734 145.082 268.614 116.47C276.654 95.3405 275.944 72.4408 266.613 51.9895C257.267 31.5023 240.395 15.924 219.107 8.12415C210.775 5.0782 202.119 3.34911 193.378 2.98441C192.419 2.93531 191.432 2.9109 190.359 2.90895C187.676 2.88804 184.969 2.99272 182.318 3.22196C176.222 3.75252 170.148 4.94728 164.267 6.77366C158.439 8.57626 152.787 11.0058 147.467 13.9951C145.758 14.954 144.082 15.97 142.484 17.0151C139.998 18.6443 137.615 20.3826 135.401 22.1821C123.699 31.6422 114.687 44.0756 109.34 58.1385C100.088 82.4496 102.483 109.103 115.91 131.264Z" fill="#371A45"/>
<g opacity="0.2">
<path d="M268.798 116.538C257.486 146.298 231.153 166.192 201.614 170.856C200 171.11 198.378 171.32 196.748 171.485C192.269 171.931 187.732 172.028 183.178 171.755C179.406 171.526 175.614 171.055 171.843 170.312C167.459 169.46 163.099 168.251 158.78 166.671C157.354 166.134 155.946 165.583 154.568 164.994C151.739 163.784 149.013 162.432 146.378 160.96C133.466 153.726 123.058 143.443 115.742 131.364C111.722 124.732 108.634 117.56 106.581 110.071C113.829 121.434 123.867 131.11 136.186 138.011C138.818 139.49 141.546 140.836 144.376 142.045C145.748 142.637 147.157 143.188 148.588 143.722C152.906 145.303 157.266 146.511 161.645 147.366C165.422 148.106 169.209 148.58 172.981 148.809C177.535 149.081 182.076 148.983 186.55 148.539C188.186 148.371 189.808 148.161 191.422 147.908C220.96 143.243 247.288 123.351 258.606 93.5896C265.213 76.2297 265.71 58.1201 261.171 41.5771C274.933 63.127 278.645 90.6678 268.798 116.538Z" fill="#0056A8"/>
</g>
<path d="M188.254 173.417C186.522 173.417 184.797 173.365 183.084 173.262C179.19 173.028 175.308 172.533 171.547 171.792C167.06 170.918 162.589 169.672 158.261 168.087C156.666 167.493 155.266 166.935 153.971 166.378C151.154 165.175 148.349 163.795 145.64 162.279C132.833 155.105 122.048 144.686 114.451 132.149C100.75 109.535 98.3058 82.3377 107.746 57.5322C113.2 43.188 122.392 30.5053 134.329 20.856C136.585 19.0226 139.015 17.2493 141.55 15.5884C143.18 14.5215 144.89 13.4852 146.632 12.5075C152.057 9.46004 157.821 6.98219 163.763 5.14413C169.759 3.28217 175.953 2.06363 182.171 1.52268C184.876 1.28864 187.638 1.18408 190.373 1.20344C191.464 1.20499 192.478 1.23032 193.464 1.28085C202.367 1.65217 211.196 3.41582 219.693 6.52229C241.415 14.4806 258.629 30.3763 268.167 51.2818C277.688 72.1517 278.413 95.5185 270.21 117.077C259.113 146.26 232.919 167.439 201.852 172.35C200.209 172.606 198.544 172.821 196.899 172.989C194.021 173.274 191.129 173.417 188.254 173.417ZM117.035 130.584C124.362 142.675 134.763 152.724 147.115 159.644C149.731 161.107 152.438 162.439 155.162 163.602C156.413 164.14 157.768 164.68 159.308 165.253C163.478 166.78 167.794 167.984 172.128 168.828C175.76 169.544 179.506 170.021 183.266 170.247C187.665 170.513 192.15 170.425 196.596 169.984C198.184 169.821 199.797 169.613 201.384 169.366C231.381 164.624 256.673 144.176 267.387 116.003C275.301 95.2047 274.602 72.6646 265.419 52.5356C256.219 32.3705 239.612 17.0367 218.655 9.3586C210.452 6.35993 201.929 4.65708 193.324 4.29822C192.375 4.24977 191.409 4.22562 190.358 4.22406C187.708 4.20341 185.042 4.30614 182.432 4.532C176.43 5.05425 170.449 6.23097 164.657 8.02955C158.918 9.80527 153.351 12.198 148.111 15.1419C146.428 16.0863 144.777 17.0866 143.205 18.1159C140.757 19.7198 138.41 21.4313 136.231 23.2027C124.706 32.5191 115.834 44.7607 110.569 58.6064C101.462 82.5363 103.819 108.771 117.035 130.584Z" fill="#371A45"/>
<path d="M188.253 174.617C186.498 174.617 184.748 174.565 183.012 174.46C179.064 174.223 175.129 173.721 171.315 172.969C166.769 172.084 162.236 170.82 157.849 169.214C156.229 168.61 154.81 168.045 153.497 167.48C150.644 166.262 147.8 164.864 145.054 163.327C132.066 156.051 121.129 145.485 113.425 132.771C99.5302 109.838 97.0514 82.259 106.624 57.1048C112.154 42.5628 121.473 29.7051 133.574 19.9222C135.859 18.0651 138.323 16.2674 140.892 14.584C142.546 13.5021 144.279 12.4513 146.045 11.4604C151.543 8.3716 157.385 5.86024 163.408 3.99711C169.485 2.11008 175.764 0.875051 182.067 0.326437C184.81 0.0888866 187.608 -0.0200815 190.383 0.00303713C191.486 0.00459569 192.52 0.0303094 193.525 0.0816121C202.541 0.457745 211.492 2.24542 220.106 5.39449C242.132 13.4645 259.587 29.5834 269.259 50.7834C278.914 71.9477 279.65 95.6425 271.332 117.504C260.082 147.087 233.531 168.557 202.039 173.535C200.374 173.795 198.688 174.012 197.022 174.183C194.102 174.472 191.169 174.617 188.253 174.617ZM118.062 129.961C125.281 141.876 135.531 151.778 147.702 158.596C150.28 160.038 152.949 161.351 155.633 162.497C156.869 163.029 158.206 163.562 159.727 164.128C163.832 165.631 168.086 166.818 172.358 167.649C175.939 168.355 179.631 168.826 183.338 169.048C187.674 169.311 192.094 169.224 196.478 168.789C198.041 168.628 199.633 168.423 201.199 168.179C230.77 163.505 255.704 143.348 266.265 115.576C274.064 95.0797 273.375 72.8685 264.326 53.0332C255.261 33.1625 238.895 18.0522 218.243 10.4854C210.156 7.5292 201.755 5.85076 193.274 5.49696C192.333 5.44904 191.387 5.42566 190.356 5.42397C187.732 5.40085 185.109 5.50424 182.536 5.72737C176.619 6.24195 170.723 7.40192 165.013 9.17504C159.353 10.9263 153.865 13.2852 148.699 16.1875C147.039 17.1192 145.412 18.1053 143.862 19.1193C141.449 20.7006 139.135 22.3879 136.988 24.1335C125.626 33.3186 116.88 45.3848 111.691 59.0321C102.717 82.6133 105.041 108.468 118.062 129.961Z" fill="#1E3A59"/>
<path d="M129.272 148.277C180.695 180.343 247.6 152.271 248.65 92.4038C249.365 51.6735 209.68 19.8796 170.167 22.0437C141.409 23.6189 113.919 37.6187 103.798 82.5C103.798 82.5 102.407 103.027 108.57 116.337C114.733 129.648 123.003 141.542 123.003 141.542L129.272 148.277Z" fill="#0056A8"/>
<g opacity="0.7">
<path d="M248.649 92.4049C247.601 152.271 180.694 180.342 129.273 148.279L128.003 146.913C183.381 153.867 236.768 118.511 238.966 57.9912C245.246 68.1173 248.868 79.8356 248.649 92.4049Z" fill="#111A28"/>
</g>
<path d="M175.109 172.316C173.997 172.316 172.886 172.296 171.77 172.257L171.466 172.222C166.953 171.344 162.459 170.09 158.11 168.498C156.506 167.9 155.098 167.34 153.797 166.78C150.967 165.571 148.148 164.185 145.425 162.661C132.552 155.45 121.712 144.977 114.076 132.375C100.304 109.645 97.847 82.3089 107.335 57.376C112.817 42.9595 122.056 30.2128 134.053 20.5149L134.208 20.3891L134.386 20.2974C144.393 15.149 156.143 12.1732 169.308 11.4521C192.935 10.1575 217.595 19.5652 235.29 36.6151C251.315 52.0558 259.94 71.9095 259.578 92.5194C259.182 114.953 250.803 134.557 235.348 149.213C219.763 163.992 197.964 172.316 175.109 172.316ZM172.061 168.368C195.029 169.143 217.111 161.136 232.667 146.385C247.346 132.465 255.305 113.815 255.682 92.451C256.025 72.9353 247.823 54.1024 232.586 39.4212C215.656 23.1085 192.082 14.1073 169.521 15.343C156.985 16.0298 145.825 18.8315 136.347 23.6714C124.961 32.9209 116.191 45.0502 110.978 58.7615C101.92 82.5632 104.265 108.661 117.409 130.356C124.696 142.384 135.042 152.379 147.329 159.261C149.931 160.717 152.624 162.042 155.333 163.198C156.579 163.734 157.927 164.272 159.46 164.842C163.558 166.343 167.8 167.53 172.061 168.368Z" fill="#1E3A59"/>
<path d="M286.305 86.7857C288.04 103.365 279.609 118.363 267.47 120.284C255.331 122.205 244.084 110.321 242.35 93.7425C242.337 93.6389 242.328 93.5283 242.321 93.4234C240.723 76.9716 249.131 62.1502 261.184 60.2438C270.562 58.7593 279.406 65.5145 283.746 76.3053C285.022 79.4831 285.91 83.0156 286.305 86.7857Z" fill="white"/>
<path d="M286.304 86.7851C288.039 103.364 279.608 118.363 267.469 120.284C255.33 122.205 244.084 110.321 242.349 93.7419C242.336 93.6382 242.328 93.5277 242.32 93.4227C243.833 94.9129 246.085 96.2596 248.84 95.2496C253.665 93.4785 261.395 81.4178 261.395 81.4178C261.395 81.4178 271.073 79.1372 283.746 76.3047C285.022 79.4825 285.91 83.0149 286.304 86.7851Z" fill="#D8D8D8"/>
<path d="M264.861 122.438C260.592 122.438 256.417 120.947 252.642 118.049C245.933 112.897 241.475 104.111 240.411 93.9434C238.573 76.3764 247.756 60.3957 260.882 58.319C266.149 57.4835 271.383 58.9231 276.013 62.4774C282.722 67.6288 287.18 76.4151 288.244 86.5829C290.082 104.149 280.899 120.13 267.773 122.207C266.8 122.361 265.828 122.438 264.861 122.438ZM263.767 61.9881C263.01 61.9881 262.25 62.0477 261.49 62.1679C250.378 63.9258 242.66 77.9983 244.286 93.538C245.226 102.513 249.236 110.521 255.015 114.958C258.775 117.845 262.976 119.021 267.164 118.359C278.276 116.6 285.994 102.528 284.368 86.9882C283.429 78.013 279.419 70.0055 273.64 65.5685C270.562 63.2047 267.188 61.9881 263.767 61.9881Z" fill="#1E3A59"/>
<path d="M271.852 115.971C281.832 115.913 289.86 105.119 289.781 91.8634C289.703 78.6078 281.549 67.9097 271.568 67.9686C261.588 68.0275 253.56 78.821 253.639 92.0767C253.717 105.332 261.871 116.03 271.852 115.971Z" fill="white"/>
<path d="M271.785 116.198C270.059 116.198 268.326 115.868 266.619 115.207C256.954 111.463 251.355 98.0049 254.136 85.2072C255.691 78.0545 259.57 72.3447 264.781 69.5419C268.627 67.4719 272.777 67.1973 276.78 68.7489C286.444 72.4934 292.044 85.9514 289.263 98.7487C287.708 105.901 283.829 111.611 278.619 114.414C276.412 115.601 274.105 116.198 271.785 116.198ZM271.616 68.1666C269.361 68.1666 267.119 68.7463 264.973 69.9005C259.869 72.6471 256.064 78.2574 254.535 85.2934C251.794 97.9034 257.281 111.152 266.766 114.827C270.655 116.333 274.687 116.067 278.426 114.055C283.531 111.309 287.336 105.698 288.865 98.6626C291.605 86.0525 286.118 72.8039 276.633 69.1288C274.976 68.4866 273.292 68.1666 271.616 68.1666Z" fill="#371A45"/>
<g opacity="0.2">
<path d="M255.778 103.971C254.207 99.7112 253.812 94.9994 254.422 90.4657C258.833 99.8717 268.238 102.863 276.194 97.0453C281.336 93.2882 284.687 86.7123 285.628 79.6963C285.91 80.2876 286.167 80.914 286.406 81.5594C290.403 92.4075 286.787 106.219 278.328 112.407C269.868 118.595 259.774 114.812 255.778 103.971Z" fill="#0056A8"/>
</g>
<path d="M272.287 117.938C269.146 117.938 266.057 116.832 263.243 114.68C257.829 110.54 254.079 102.92 253.211 94.2969C251.751 79.7935 258.809 66.6228 268.944 64.9379C272.841 64.2898 276.738 65.3526 280.214 68.0104C285.628 72.1504 289.378 79.7703 290.246 88.3939C291.706 102.897 284.648 116.068 274.513 117.753C273.77 117.877 273.027 117.938 272.287 117.938ZM271.144 68.6526C270.623 68.6526 270.103 68.6954 269.584 68.7817C261.436 70.1366 255.83 81.4076 257.089 93.907C257.851 101.478 261.036 108.087 265.61 111.585C268.209 113.572 271.065 114.376 273.874 113.909C282.022 112.555 287.627 101.283 286.369 88.7841C285.607 81.2126 282.421 74.6038 277.847 71.106C275.728 69.4859 273.438 68.6526 271.144 68.6526Z" fill="#1E3A59"/>
<g opacity="0.5">
<path d="M191.9 38.1111C191.9 38.1111 154.67 42.5161 135.133 64.9352C135.112 64.9589 135.092 64.9824 135.071 65.0059C130.963 69.7278 128.21 75.4566 127.056 81.568C125.53 89.6501 125.672 95.4311 125.994 100.514C126.982 115.971 130.365 123.006 130.365 123.006C120.966 115.472 115.371 106.557 114.419 93.691C114.329 92.4224 114.283 91.1105 114.279 89.7622C114.277 89.4515 114.282 89.1436 114.291 88.8332C114.284 88.8307 114.287 88.8237 114.295 88.8145C114.48 86.0812 114.86 82.4974 115.629 78.4873C117.941 66.3917 123.759 50.415 138.34 42.1536C165.603 26.7059 193.082 36.4051 191.9 38.1111Z" fill="white"/>
</g>
<g opacity="0.5">
<path d="M226.6 85.5872C232.582 83.5771 235.556 76.3666 233.243 69.4819C230.929 62.5972 224.205 58.6455 218.223 60.6555C212.241 62.6655 209.266 69.8761 211.58 76.7608C213.893 83.6455 220.618 87.5972 226.6 85.5872Z" fill="white"/>
</g>
<g opacity="0.5">
<path d="M232.309 100.707C234.693 99.6533 235.642 96.5756 234.429 93.8327C233.217 91.0897 230.302 89.7203 227.918 90.7739C225.535 91.8275 224.585 94.9052 225.798 97.6482C227.011 100.391 229.926 101.761 232.309 100.707Z" fill="white"/>
</g>
</svg>
