<svg width="91" height="90" viewBox="0 0 91 90" fill="none" xmlns="http://www.w3.org/2000/svg">
<path d="M90.4688 45C90.4688 20.1472 70.3216 0 45.4688 0C20.6159 0 0.46875 20.1472 0.46875 45C0.46875 69.8528 20.6159 90 45.4688 90C70.3216 90 90.4688 69.8528 90.4688 45Z" fill="#5865F2"/>
<path d="M62.5619 31.5093C68.0861 39.6888 70.8141 48.9151 69.7943 59.5367C69.79 59.5816 69.7668 59.6229 69.7301 59.6499C65.5468 62.7434 61.4938 64.6209 57.4976 65.8658C57.4665 65.8753 57.4331 65.8748 57.4024 65.8644C57.3716 65.8538 57.3447 65.834 57.3258 65.8074C56.4025 64.5137 55.5637 63.1498 54.8287 61.7176C54.7865 61.6332 54.8251 61.5317 54.9119 61.4984C56.2442 60.9929 57.511 60.387 58.7296 59.6697C58.8255 59.613 58.8316 59.4744 58.743 59.408C58.4843 59.2147 58.2282 59.0114 57.983 58.8082C57.9372 58.7707 57.8754 58.7632 57.8234 58.7885C49.9124 62.4676 41.2462 62.4676 33.2417 58.7885C33.1896 58.7652 33.1279 58.7732 33.0833 58.8101C32.8387 59.0133 32.582 59.2147 32.3258 59.408C32.2371 59.4744 32.2444 59.613 32.341 59.6697C33.5596 60.3734 34.8264 60.9929 36.1568 61.5008C36.243 61.5341 36.284 61.6332 36.2412 61.7176C35.5222 63.1517 34.6833 64.5155 33.743 65.8092C33.702 65.8615 33.6347 65.8856 33.5711 65.8658C29.5939 64.6209 25.5409 62.7434 21.3576 59.6499C21.3228 59.6229 21.2977 59.5798 21.294 59.5348C20.4417 50.3473 22.1787 41.0447 28.5196 31.5075C28.535 31.4823 28.5582 31.4625 28.5851 31.4508C31.7052 30.0088 35.0477 28.9478 38.5414 28.342C38.6049 28.3322 38.6685 28.3616 38.7015 28.4184C39.1332 29.188 39.6266 30.1751 39.9605 30.9817C43.6429 30.4152 47.383 30.4152 51.1426 30.9817C51.4764 30.1923 51.9527 29.188 52.3825 28.4184C52.3978 28.3902 52.4215 28.3677 52.4503 28.354C52.4791 28.3402 52.5114 28.336 52.5427 28.342C56.0381 28.9497 59.3808 30.0106 62.4983 31.4508C62.5258 31.4625 62.5484 31.4823 62.5619 31.5093ZM41.8326 48.9779C41.8711 46.2618 39.9048 44.0144 37.4366 44.0144C34.9884 44.0144 33.0411 46.2422 33.0411 48.9779C33.0411 51.7131 35.0269 53.9408 37.4366 53.9408C39.8852 53.9408 41.8326 51.7131 41.8326 48.9779ZM58.0851 48.9779C58.1236 46.2618 56.1573 44.0144 53.6897 44.0144C51.241 44.0144 49.2936 46.2422 49.2936 48.9779C49.2936 51.7131 51.2795 53.9408 53.6897 53.9408C56.1573 53.9408 58.0851 51.7131 58.0851 48.9779Z" fill="white"/>
</svg>
