<svg width="512" height="512" viewBox="0 0 512 512" fill="none" xmlns="http://www.w3.org/2000/svg">
<circle cx="256" cy="256" r="244" fill="url(#paint0_linear_730_9)" stroke="#F8F8F8" stroke-width="24"/>
<path d="M255.911 342.163H173.304C162.468 342.163 153.052 336.375 148.611 327.012C144.17 317.649 145.769 306.924 152.697 299.093L220.914 223.337C220.914 223.337 220.914 222.996 220.914 222.826L152.697 147.07C145.591 139.239 143.992 128.514 148.611 119.151C153.23 109.788 162.645 104 173.304 104H255.911L280.604 116.598L255.911 129.706H173.127C173.127 129.706 172.949 130.046 172.949 130.217C172.949 130.217 172.949 130.217 172.949 130.387L241.166 206.143C249.871 215.846 249.871 230.487 241.166 240.19L172.949 315.946C172.949 315.946 172.949 315.946 172.949 316.117C172.949 316.117 172.949 316.627 173.127 316.627C173.127 316.627 173.127 316.627 173.304 316.627H255.911V342.333V342.163Z" fill="white"/>
<path d="M291.086 223.337C291.086 223.337 291.086 222.996 291.086 222.826L359.303 147.07C366.409 139.239 368.008 128.514 363.389 119.151C358.77 109.788 349.355 104 338.696 104H256.089L280.782 116.598L256.089 129.536H338.873C338.873 129.536 339.051 129.876 339.051 130.046C339.051 130.046 339.051 130.046 339.051 130.217L270.834 205.973C262.129 215.676 262.129 230.317 270.834 240.02L339.051 315.776C339.051 315.776 339.051 315.776 339.051 315.946C339.051 315.946 339.051 316.457 338.873 316.457C338.873 316.457 338.873 316.457 338.696 316.457H255.911L231.04 329.736L255.911 341.993H338.518C349.355 341.993 358.77 336.205 363.211 326.842C367.653 317.479 366.054 306.754 359.125 298.923L290.908 223.167L291.086 223.337Z" fill="white"/>
<path d="M137.028 407.384C136.036 407.384 135.252 407.112 134.676 406.568C134.132 405.992 133.86 405.176 133.86 404.12V376.424C133.86 375.368 134.132 374.568 134.676 374.024C135.252 373.448 136.068 373.16 137.124 373.16H153.876C154.708 373.16 155.332 373.368 155.748 373.784C156.164 374.2 156.372 374.792 156.372 375.56C156.372 376.36 156.164 376.984 155.748 377.432C155.332 377.848 154.708 378.056 153.876 378.056H140.004V387.608H152.868C153.668 387.608 154.276 387.816 154.692 388.232C155.14 388.648 155.364 389.24 155.364 390.008C155.364 390.808 155.14 391.432 154.692 391.88C154.276 392.296 153.668 392.504 152.868 392.504H140.004V404.12C140.004 406.296 139.012 407.384 137.028 407.384ZM170.097 407.48C167.665 407.48 165.553 406.984 163.761 405.992C161.969 405 160.577 403.592 159.585 401.768C158.593 399.912 158.097 397.736 158.097 395.24C158.097 393.352 158.369 391.672 158.913 390.2C159.489 388.696 160.305 387.416 161.361 386.36C162.417 385.272 163.681 384.456 165.153 383.912C166.625 383.336 168.273 383.048 170.097 383.048C172.529 383.048 174.641 383.544 176.433 384.536C178.225 385.528 179.617 386.936 180.609 388.76C181.601 390.584 182.097 392.744 182.097 395.24C182.097 397.128 181.809 398.824 181.233 400.328C180.689 401.832 179.889 403.128 178.833 404.216C177.777 405.272 176.513 406.088 175.041 406.664C173.569 407.208 171.921 407.48 170.097 407.48ZM170.097 402.92C171.281 402.92 172.321 402.632 173.217 402.056C174.113 401.48 174.801 400.632 175.281 399.512C175.793 398.36 176.049 396.936 176.049 395.24C176.049 392.68 175.505 390.776 174.417 389.528C173.329 388.248 171.889 387.608 170.097 387.608C168.913 387.608 167.873 387.896 166.977 388.472C166.081 389.016 165.377 389.864 164.865 391.016C164.385 392.136 164.145 393.544 164.145 395.24C164.145 397.768 164.689 399.688 165.777 401C166.865 402.28 168.305 402.92 170.097 402.92ZM195.546 407.48C193.594 407.48 191.978 407.128 190.698 406.424C189.418 405.688 188.458 404.6 187.818 403.16C187.21 401.72 186.906 399.928 186.906 397.784V386.168C186.906 385.144 187.162 384.392 187.674 383.912C188.186 383.4 188.922 383.144 189.882 383.144C190.842 383.144 191.578 383.4 192.09 383.912C192.634 384.392 192.906 385.144 192.906 386.168V397.88C192.906 399.544 193.242 400.776 193.914 401.576C194.586 402.376 195.658 402.776 197.13 402.776C198.73 402.776 200.042 402.232 201.066 401.144C202.09 400.024 202.602 398.552 202.602 396.728V386.168C202.602 385.144 202.858 384.392 203.37 383.912C203.882 383.4 204.618 383.144 205.578 383.144C206.538 383.144 207.274 383.4 207.786 383.912C208.33 384.392 208.602 385.144 208.602 386.168V404.312C208.602 406.36 207.626 407.384 205.674 407.384C204.746 407.384 204.026 407.128 203.514 406.616C203.002 406.072 202.746 405.304 202.746 404.312V400.664L203.418 402.104C202.746 403.832 201.722 405.16 200.346 406.088C199.002 407.016 197.402 407.48 195.546 407.48ZM217.823 407.384C216.863 407.384 216.127 407.128 215.615 406.616C215.103 406.072 214.847 405.304 214.847 404.312V386.168C214.847 385.176 215.103 384.424 215.615 383.912C216.127 383.4 216.847 383.144 217.775 383.144C218.703 383.144 219.423 383.4 219.935 383.912C220.447 384.424 220.703 385.176 220.703 386.168V389.432L220.175 388.232C220.879 386.536 221.967 385.256 223.439 384.392C224.943 383.496 226.639 383.048 228.527 383.048C230.415 383.048 231.967 383.4 233.183 384.104C234.399 384.808 235.311 385.88 235.919 387.32C236.527 388.728 236.831 390.52 236.831 392.696V404.312C236.831 405.304 236.575 406.072 236.063 406.616C235.551 407.128 234.815 407.384 233.855 407.384C232.895 407.384 232.143 407.128 231.599 406.616C231.087 406.072 230.831 405.304 230.831 404.312V392.984C230.831 391.16 230.479 389.832 229.775 389C229.103 388.168 228.047 387.752 226.607 387.752C224.847 387.752 223.439 388.312 222.383 389.432C221.359 390.52 220.847 391.976 220.847 393.8V404.312C220.847 406.36 219.839 407.384 217.823 407.384ZM251.949 407.48C249.901 407.48 248.093 406.984 246.525 405.992C244.989 405 243.789 403.592 242.925 401.768C242.061 399.912 241.629 397.736 241.629 395.24C241.629 392.712 242.061 390.552 242.925 388.76C243.789 386.936 244.989 385.528 246.525 384.536C248.093 383.544 249.901 383.048 251.949 383.048C253.901 383.048 255.597 383.528 257.037 384.488C258.509 385.448 259.501 386.712 260.013 388.28H259.485V375.8C259.485 374.808 259.741 374.056 260.253 373.544C260.765 373.032 261.501 372.776 262.461 372.776C263.421 372.776 264.157 373.032 264.669 373.544C265.213 374.056 265.485 374.808 265.485 375.8V404.312C265.485 405.304 265.229 406.072 264.717 406.616C264.205 407.128 263.469 407.384 262.509 407.384C261.549 407.384 260.813 407.128 260.301 406.616C259.789 406.072 259.533 405.304 259.533 404.312V400.568L260.061 402.008C259.581 403.672 258.605 405 257.133 405.992C255.661 406.984 253.933 407.48 251.949 407.48ZM253.629 402.92C254.813 402.92 255.853 402.632 256.749 402.056C257.645 401.48 258.333 400.632 258.813 399.512C259.325 398.36 259.581 396.936 259.581 395.24C259.581 392.68 259.037 390.776 257.949 389.528C256.861 388.248 255.421 387.608 253.629 387.608C252.445 387.608 251.405 387.896 250.509 388.472C249.613 389.016 248.909 389.864 248.397 391.016C247.917 392.136 247.677 393.544 247.677 395.24C247.677 397.768 248.221 399.688 249.309 401C250.397 402.28 251.837 402.92 253.629 402.92ZM279.434 407.48C277.738 407.48 276.218 407.16 274.874 406.52C273.562 405.848 272.522 404.952 271.754 403.832C271.018 402.712 270.65 401.448 270.65 400.04C270.65 398.312 271.098 396.952 271.994 395.96C272.89 394.936 274.346 394.2 276.362 393.752C278.378 393.304 281.082 393.08 284.474 393.08H286.874V396.536H284.522C282.538 396.536 280.954 396.632 279.77 396.824C278.586 397.016 277.738 397.352 277.226 397.832C276.746 398.28 276.506 398.92 276.506 399.752C276.506 400.808 276.874 401.672 277.61 402.344C278.346 403.016 279.37 403.352 280.682 403.352C281.738 403.352 282.666 403.112 283.466 402.632C284.298 402.12 284.954 401.432 285.434 400.568C285.914 399.704 286.154 398.712 286.154 397.592V392.072C286.154 390.472 285.802 389.32 285.098 388.616C284.394 387.912 283.21 387.56 281.546 387.56C280.618 387.56 279.61 387.672 278.522 387.896C277.466 388.12 276.346 388.504 275.162 389.048C274.554 389.336 274.01 389.416 273.53 389.288C273.082 389.16 272.73 388.904 272.474 388.52C272.218 388.104 272.09 387.656 272.09 387.176C272.09 386.696 272.218 386.232 272.474 385.784C272.73 385.304 273.162 384.952 273.77 384.728C275.242 384.12 276.65 383.688 277.994 383.432C279.37 383.176 280.618 383.048 281.738 383.048C284.042 383.048 285.93 383.4 287.402 384.104C288.906 384.808 290.026 385.88 290.762 387.32C291.498 388.728 291.866 390.552 291.866 392.792V404.312C291.866 405.304 291.626 406.072 291.146 406.616C290.666 407.128 289.978 407.384 289.082 407.384C288.186 407.384 287.482 407.128 286.97 406.616C286.49 406.072 286.25 405.304 286.25 404.312V402.008H286.634C286.41 403.128 285.962 404.104 285.29 404.936C284.65 405.736 283.834 406.36 282.842 406.808C281.85 407.256 280.714 407.48 279.434 407.48ZM308.708 407.48C306.628 407.48 304.884 407.128 303.476 406.424C302.1 405.72 301.076 404.696 300.404 403.352C299.732 401.976 299.396 400.28 299.396 398.264V388.04H296.9C296.132 388.04 295.54 387.848 295.124 387.464C294.708 387.048 294.5 386.488 294.5 385.784C294.5 385.048 294.708 384.488 295.124 384.104C295.54 383.72 296.132 383.528 296.9 383.528H299.396V379.16C299.396 378.168 299.652 377.416 300.164 376.904C300.708 376.392 301.46 376.136 302.42 376.136C303.38 376.136 304.116 376.392 304.628 376.904C305.14 377.416 305.396 378.168 305.396 379.16V383.528H310.484C311.252 383.528 311.844 383.72 312.26 384.104C312.676 384.488 312.884 385.048 312.884 385.784C312.884 386.488 312.676 387.048 312.26 387.464C311.844 387.848 311.252 388.04 310.484 388.04H305.396V397.928C305.396 399.464 305.732 400.616 306.404 401.384C307.076 402.152 308.164 402.536 309.668 402.536C310.212 402.536 310.692 402.488 311.108 402.392C311.524 402.296 311.892 402.232 312.212 402.2C312.596 402.168 312.916 402.296 313.172 402.584C313.428 402.84 313.556 403.384 313.556 404.216C313.556 404.856 313.444 405.432 313.22 405.944C313.028 406.424 312.66 406.76 312.116 406.952C311.7 407.08 311.156 407.192 310.484 407.288C309.812 407.416 309.22 407.48 308.708 407.48ZM319.963 407.336C319.003 407.336 318.267 407.048 317.755 406.472C317.243 405.896 316.987 405.096 316.987 404.072V386.456C316.987 385.4 317.243 384.6 317.755 384.056C318.267 383.48 319.003 383.192 319.963 383.192C320.923 383.192 321.659 383.48 322.171 384.056C322.715 384.6 322.987 385.4 322.987 386.456V404.072C322.987 405.096 322.731 405.896 322.219 406.472C321.707 407.048 320.955 407.336 319.963 407.336ZM319.963 378.728C318.843 378.728 317.963 378.456 317.323 377.912C316.715 377.336 316.411 376.552 316.411 375.56C316.411 374.536 316.715 373.752 317.323 373.208C317.963 372.664 318.843 372.392 319.963 372.392C321.115 372.392 321.995 372.664 322.603 373.208C323.211 373.752 323.515 374.536 323.515 375.56C323.515 376.552 323.211 377.336 322.603 377.912C321.995 378.456 321.115 378.728 319.963 378.728ZM339.926 407.48C337.494 407.48 335.382 406.984 333.59 405.992C331.798 405 330.406 403.592 329.414 401.768C328.422 399.912 327.926 397.736 327.926 395.24C327.926 393.352 328.198 391.672 328.742 390.2C329.318 388.696 330.134 387.416 331.19 386.36C332.246 385.272 333.51 384.456 334.982 383.912C336.454 383.336 338.102 383.048 339.926 383.048C342.358 383.048 344.47 383.544 346.262 384.536C348.054 385.528 349.446 386.936 350.438 388.76C351.43 390.584 351.926 392.744 351.926 395.24C351.926 397.128 351.638 398.824 351.062 400.328C350.518 401.832 349.718 403.128 348.662 404.216C347.606 405.272 346.342 406.088 344.87 406.664C343.398 407.208 341.75 407.48 339.926 407.48ZM339.926 402.92C341.11 402.92 342.15 402.632 343.046 402.056C343.942 401.48 344.63 400.632 345.11 399.512C345.622 398.36 345.878 396.936 345.878 395.24C345.878 392.68 345.334 390.776 344.246 389.528C343.158 388.248 341.718 387.608 339.926 387.608C338.742 387.608 337.702 387.896 336.806 388.472C335.91 389.016 335.206 389.864 334.694 391.016C334.214 392.136 333.974 393.544 333.974 395.24C333.974 397.768 334.518 399.688 335.606 401C336.694 402.28 338.134 402.92 339.926 402.92ZM359.854 407.384C358.894 407.384 358.158 407.128 357.646 406.616C357.134 406.072 356.878 405.304 356.878 404.312V386.168C356.878 385.176 357.134 384.424 357.646 383.912C358.158 383.4 358.878 383.144 359.806 383.144C360.734 383.144 361.454 383.4 361.966 383.912C362.478 384.424 362.734 385.176 362.734 386.168V389.432L362.206 388.232C362.91 386.536 363.998 385.256 365.47 384.392C366.974 383.496 368.67 383.048 370.558 383.048C372.446 383.048 373.998 383.4 375.214 384.104C376.43 384.808 377.342 385.88 377.95 387.32C378.558 388.728 378.862 390.52 378.862 392.696V404.312C378.862 405.304 378.606 406.072 378.094 406.616C377.582 407.128 376.846 407.384 375.886 407.384C374.926 407.384 374.174 407.128 373.63 406.616C373.118 406.072 372.862 405.304 372.862 404.312V392.984C372.862 391.16 372.51 389.832 371.806 389C371.134 388.168 370.078 387.752 368.638 387.752C366.878 387.752 365.47 388.312 364.414 389.432C363.39 390.52 362.878 391.976 362.878 393.8V404.312C362.878 406.36 361.87 407.384 359.854 407.384Z" fill="white"/>
<defs>
<linearGradient id="paint0_linear_730_9" x1="117.333" y1="64" x2="416" y2="448" gradientUnits="userSpaceOnUse">
<stop offset="0.394929" stop-color="#6ADDFF"/>
<stop offset="0.878969" stop-color="#06C6FF"/>
</linearGradient>
</defs>
</svg>
