<svg width="91" height="90" viewBox="0 0 91 90" fill="none" xmlns="http://www.w3.org/2000/svg">
<path d="M45.4688 90C70.3216 90 90.4688 69.8528 90.4688 45C90.4688 20.1472 70.3216 0 45.4688 0C20.6159 0 0.46875 20.1472 0.46875 45C0.46875 69.8528 20.6159 90 45.4688 90Z" fill="#FF4500"/>
<path d="M75.4042 45.4292C75.4042 41.7812 72.4542 38.8842 68.8592 38.8842C67.0892 38.8842 65.4792 39.5812 64.2992 40.7082C59.7932 37.4892 53.6232 35.3972 46.7562 35.1292L49.7602 21.0732L59.5242 23.1652C59.6322 25.6332 61.6702 27.6182 64.1922 27.6182C66.7672 27.6182 68.8592 25.5262 68.8592 22.9502C68.8592 20.3752 66.7672 18.2832 64.1922 18.2832C62.3682 18.2832 60.7582 19.3562 60.0072 20.9122L49.1172 18.6052C48.7952 18.5512 48.4732 18.6052 48.2582 18.7662C47.9902 18.9272 47.8292 19.1952 47.7762 19.5172L44.4492 35.1822C37.4752 35.3972 31.1982 37.4892 26.6382 40.7622C25.4582 39.6352 23.8482 38.9382 22.0782 38.9382C18.4302 38.9382 15.5332 41.8882 15.5332 45.4832C15.5332 48.1652 17.1422 50.4182 19.3962 51.4382C19.2882 52.0812 19.2352 52.7252 19.2352 53.4232C19.2352 63.5082 30.9842 71.7172 45.4692 71.7172C59.9542 71.7172 71.7032 63.5622 71.7032 53.4232C71.7032 52.7792 71.6492 52.0812 71.5422 51.4382C73.7952 50.4182 75.4042 48.1112 75.4042 45.4292ZM30.4472 50.0962C30.4472 47.5212 32.5392 45.4292 35.1152 45.4292C37.6902 45.4292 39.7822 47.5212 39.7822 50.0962C39.7822 52.6712 37.6902 54.7642 35.1152 54.7642C32.5392 54.8172 30.4472 52.6712 30.4472 50.0962ZM56.5742 62.4892C53.3552 65.7082 47.2392 65.9232 45.4692 65.9232C43.6452 65.9232 37.5292 65.6542 34.3632 62.4892C33.8812 62.0062 33.8812 61.2552 34.3632 60.7722C34.8462 60.2902 35.5972 60.2902 36.0802 60.7722C38.1192 62.8112 42.4112 63.5082 45.4692 63.5082C48.5272 63.5082 52.8722 62.8112 54.8572 60.7722C55.3402 60.2902 56.0912 60.2902 56.5742 60.7722C57.0032 61.2552 57.0032 62.0062 56.5742 62.4892ZM55.7152 54.8172C53.1402 54.8172 51.0482 52.7252 51.0482 50.1502C51.0482 47.5752 53.1402 45.4832 55.7152 45.4832C58.2912 45.4832 60.3832 47.5752 60.3832 50.1502C60.3832 52.6712 58.2912 54.8172 55.7152 54.8172Z" fill="white"/>
</svg>
