<svg width="293" height="250" viewBox="0 0 293 250" fill="none" xmlns="http://www.w3.org/2000/svg">
<path d="M263.767 97.8006C264.307 100.897 264.307 103.994 263.767 107.091C263.466 108.821 261.989 110.099 260.233 110.099H219.271C217.436 110.099 215.894 108.711 215.707 106.886C215.401 103.906 215.377 100.931 215.684 97.9628C215.872 96.1543 217.422 94.793 219.241 94.793H260.233C261.989 94.793 263.466 96.0708 263.767 97.8006Z" fill="#66A669"/>
<g opacity="0.25">
<path d="M215.707 106.885C215.895 108.712 217.437 110.097 219.274 110.097H260.233C261.989 110.097 263.465 108.824 263.769 107.093C264.191 104.668 264.282 102.248 264.038 99.8229C263.977 100.498 263.886 101.172 263.769 101.847C263.465 103.577 261.989 104.856 260.233 104.856H219.274C217.437 104.856 215.895 103.471 215.707 101.644C215.641 100.985 215.585 100.32 215.55 99.6606C215.397 102.065 215.458 104.475 215.707 106.885Z" fill="#1E3A59"/>
</g>
<g opacity="0.7">
<path d="M215.498 103.811C215.528 102.872 215.589 101.939 215.685 101.005C215.873 99.1988 217.42 97.8391 219.242 97.8391H260.232C261.987 97.8391 263.464 99.1126 263.768 100.843C263.951 101.883 264.067 102.923 264.123 103.968C264.245 101.913 264.123 99.8584 263.768 97.7985C263.464 96.0684 261.987 94.7949 260.232 94.7949H219.242C217.42 94.7949 215.873 96.1546 215.685 97.9609C215.482 99.9091 215.422 101.857 215.498 103.811Z" fill="white"/>
</g>
<path d="M219.27 111.621H260.232C262.718 111.621 264.835 109.826 265.267 107.353C265.834 104.097 265.834 100.795 265.267 97.5391C264.835 95.0662 262.718 93.2711 260.232 93.2711H219.24C216.617 93.2711 214.438 95.2208 214.17 97.8066C213.861 100.78 213.869 103.888 214.192 107.041C214.46 109.652 216.643 111.621 219.27 111.621ZM262.267 98.0624C262.775 100.971 262.775 103.921 262.267 106.83C262.091 107.842 261.235 108.577 260.232 108.577H219.27C218.209 108.577 217.328 107.783 217.22 106.731C216.918 103.785 216.911 100.887 217.198 98.1203C217.304 97.0912 218.182 96.3153 219.24 96.3153H260.232C261.235 96.3153 262.091 97.0501 262.267 98.0624Z" fill="#1E3A59"/>
<path d="M232.801 110.099C237.705 111.677 242.61 111.677 247.514 110.099V94.7933C242.808 93.4769 237.881 93.6292 232.801 94.7933V110.099Z" fill="#DADEE0"/>
<g opacity="0.25">
<path d="M232.8 103.08V110.097C237.706 111.675 242.612 111.675 247.513 110.097V103.08C242.612 104.658 237.706 104.658 232.8 103.08Z" fill="#1E3A59"/>
</g>
<path d="M240.157 112.801C242.771 112.801 245.384 112.383 247.98 111.547C248.609 111.345 249.036 110.76 249.036 110.099V94.7931C249.036 94.1103 248.581 93.5113 247.924 93.3275C243.215 92.0105 238.157 92.0042 232.46 93.3097C231.769 93.4677 231.278 94.0836 231.278 94.7931V110.099C231.278 110.76 231.705 111.345 232.334 111.547C234.929 112.383 237.543 112.801 240.157 112.801ZM245.991 108.963C242.115 110.018 238.199 110.018 234.322 108.963V96.0244C238.581 95.1821 242.42 95.1662 245.991 95.9773V108.963Z" fill="#1E3A59"/>
<path d="M262.988 100.966C263.401 100.966 263.74 100.636 263.749 100.222C263.758 99.8013 263.425 99.4535 263.005 99.4441L247.53 99.1057C247.091 99.0933 246.762 99.4302 246.753 99.8499C246.744 100.271 247.077 100.618 247.497 100.628L262.971 100.966C262.977 100.966 262.983 100.966 262.988 100.966Z" fill="#1E3A59"/>
<path d="M247.513 105.025C247.549 105.025 247.585 105.023 247.622 105.017C248.294 104.963 257.159 104.992 262.984 105.025C262.985 105.025 262.987 105.025 262.988 105.025C263.406 105.025 263.747 104.687 263.749 104.268C263.751 103.848 263.413 103.505 262.992 103.503C256.091 103.464 247.777 103.435 247.364 103.518C246.952 103.6 246.685 104.001 246.767 104.414C246.839 104.775 247.157 105.025 247.513 105.025Z" fill="#1E3A59"/>
<path d="M216.902 100.992C216.908 100.992 216.914 100.992 216.919 100.992L233.58 100.628C234 100.618 234.333 100.27 234.324 99.8498C234.315 99.4356 233.976 99.1056 233.564 99.1056C233.558 99.1056 233.553 99.1056 233.547 99.1056L216.886 99.4698C216.466 99.4792 216.133 99.8271 216.142 100.248C216.151 100.662 216.49 100.992 216.902 100.992Z" fill="#1E3A59"/>
<path d="M233.564 105.025C233.919 105.025 234.237 104.775 234.31 104.413C234.392 104.001 234.125 103.6 233.713 103.518C233.301 103.434 224.342 103.464 216.899 103.503C216.478 103.505 216.139 103.848 216.142 104.268C216.144 104.687 216.484 105.025 216.903 105.025C216.904 105.025 216.905 105.025 216.907 105.025C223.198 104.992 232.761 104.963 233.457 105.017C233.493 105.022 233.529 105.025 233.564 105.025Z" fill="#1E3A59"/>
<path d="M49.823 50.5307C50.363 53.6274 50.363 56.7242 49.823 59.821C49.5213 61.5509 48.0442 62.8287 46.2883 62.8287H5.32641C3.49179 62.8287 1.9495 61.4411 1.76239 59.616C1.45686 56.6357 1.4323 53.661 1.73997 50.693C1.92749 48.8844 3.47808 47.5232 5.29626 47.5232H46.2882C48.0442 47.5231 49.5213 48.8008 49.823 50.5307Z" fill="#66A669"/>
<g opacity="0.25">
<path d="M1.76287 59.6154C1.95059 61.4419 3.49299 62.827 5.32964 62.827H46.289C48.0445 62.827 49.5209 61.5537 49.8253 59.8234C50.2464 57.3983 50.3377 54.9781 50.0942 52.5529C50.0333 53.2277 49.942 53.9025 49.8253 54.5774C49.5209 56.3075 48.0445 57.5861 46.289 57.5861H5.32964C3.49299 57.5861 1.95059 56.201 1.76287 54.3745C1.69691 53.7149 1.64109 53.0504 1.60558 52.3907C1.45337 54.7955 1.51426 57.2055 1.76287 59.6154Z" fill="#1E3A59"/>
</g>
<g opacity="0.7">
<path d="M1.55463 56.5408C1.58507 55.6021 1.64597 54.6686 1.74236 53.7351C1.93009 51.9288 3.47755 50.5691 5.29898 50.5691H46.2888C48.0442 50.5691 49.5207 51.8426 49.8251 53.5727C50.0077 54.6128 50.1244 55.6529 50.1803 56.698C50.302 54.6432 50.1803 52.5884 49.8251 50.5285C49.5207 48.7984 48.0442 47.5249 46.2888 47.5249H5.29898C3.47755 47.5249 1.93009 48.8847 1.74236 50.6909C1.53942 52.6392 1.47853 54.5874 1.55463 56.5408Z" fill="white"/>
</g>
<path d="M5.32639 64.3508H46.2882C48.774 64.3508 50.8911 62.5557 51.3227 60.0823C51.8905 56.8266 51.8905 53.5248 51.3227 50.269C50.8911 47.7962 48.774 46.0011 46.2882 46.0011H5.29634C2.67379 46.0011 0.493977 47.9508 0.225986 50.5357C-0.082489 53.5105 -0.0747795 56.6176 0.24831 59.7713C0.515892 62.3818 2.69886 64.3508 5.32639 64.3508ZM48.3236 50.7922C48.831 53.7006 48.831 56.6506 48.3236 59.559C48.1473 60.5717 47.2911 61.3066 46.2882 61.3066H5.32639C4.2656 61.3066 3.38442 60.5129 3.27665 59.461C2.97467 56.5145 2.96695 53.6169 3.25381 50.8498C3.36056 49.8211 4.23859 49.0453 5.29634 49.0453H46.2882C47.2911 49.0452 48.147 49.7799 48.3236 50.7922Z" fill="#1E3A59"/>
<path d="M18.8578 62.8285C23.7623 64.4069 28.6668 64.4069 33.5713 62.8285V47.523C28.8653 46.2066 23.9378 46.3589 18.8578 47.523V62.8285Z" fill="#DADEE0"/>
<g opacity="0.25">
<path d="M18.8544 55.8101V62.8269C23.7606 64.4048 28.6668 64.4048 33.5679 62.8269V55.8101C28.6668 57.388 23.7606 57.388 18.8544 55.8101Z" fill="#1E3A59"/>
</g>
<path d="M26.2125 65.5305C28.8263 65.5305 31.4399 65.1129 34.0355 64.2775C34.6647 64.0753 35.0913 63.4896 35.0913 62.8287V47.5231C35.0913 46.8403 34.6367 46.2413 33.9793 46.0576C29.2695 44.7396 24.2118 44.7342 18.5156 46.0397C17.8239 46.1983 17.3336 46.8136 17.3336 47.5231V62.8287C17.3336 63.4897 17.7602 64.0753 18.3895 64.2775C20.985 65.1129 23.5985 65.5305 26.2125 65.5305ZM32.0471 61.6932C28.1706 62.7465 24.2544 62.7465 20.3778 61.6932V48.7544C24.6364 47.9121 28.475 47.8968 32.0471 48.7073V61.6932Z" fill="#1E3A59"/>
<path d="M49.0454 53.6956C49.4581 53.6956 49.797 53.3656 49.806 52.9514C49.8151 52.5307 49.482 52.1829 49.0618 52.1735L33.5872 51.8356C33.1555 51.8391 32.819 52.1601 32.8098 52.5798C32.8007 53.0005 33.1338 53.3483 33.554 53.3577L49.0286 53.6956C49.0343 53.6956 49.0399 53.6956 49.0454 53.6956Z" fill="#1E3A59"/>
<path d="M33.5697 57.7545C33.6057 57.7545 33.6421 57.7521 33.6787 57.7466C34.3488 57.6937 43.2153 57.7224 49.0408 57.7545C49.0424 57.7545 49.0438 57.7545 49.0451 57.7545C49.4636 57.7545 49.8037 57.4166 49.8061 56.998C49.8084 56.5773 49.4698 56.235 49.0494 56.2324C42.1479 56.1933 33.8342 56.1651 33.422 56.2473C33.0097 56.3291 32.7422 56.7299 32.8242 57.1421C32.8962 57.5043 33.2141 57.7545 33.5697 57.7545Z" fill="#1E3A59"/>
<path d="M2.95848 53.7219C2.96396 53.7219 2.96965 53.7219 2.97533 53.7219L19.636 53.3577C20.0562 53.3483 20.3893 53.0004 20.3802 52.5798C20.3713 52.1601 20.039 51.8385 19.6028 51.8356L2.94213 52.1998C2.52194 52.2092 2.1888 52.5571 2.19794 52.9777C2.20687 53.3919 2.5457 53.7219 2.95848 53.7219Z" fill="#1E3A59"/>
<path d="M19.6209 57.7547C19.9766 57.7547 20.2944 57.5045 20.3666 57.1423C20.4486 56.73 20.181 56.3292 19.7688 56.2475C19.3565 56.1658 10.3979 56.1946 2.95553 56.2327C2.53513 56.2348 2.19621 56.5775 2.19845 56.9977C2.20068 57.4169 2.54102 57.7548 2.95949 57.7548C2.96071 57.7548 2.96193 57.7548 2.96345 57.7548C9.25515 57.7226 18.8209 57.6939 19.5137 57.7474C19.5497 57.7523 19.5855 57.7547 19.6209 57.7547Z" fill="#1E3A59"/>
<path d="M263.768 114.555C264.308 117.651 264.308 120.748 263.768 123.845C263.466 125.575 261.989 126.852 260.233 126.852H219.271C217.437 126.852 215.894 125.465 215.707 123.64C215.402 120.659 215.377 117.685 215.685 114.717C215.872 112.908 217.423 111.547 219.241 111.547H260.233C261.989 111.547 263.466 112.825 263.768 114.555Z" fill="#66A669"/>
<g opacity="0.25">
<path d="M215.707 123.639C215.895 125.466 217.438 126.851 219.274 126.851H260.234C261.989 126.851 263.465 125.577 263.77 123.847C264.191 121.422 264.282 119.002 264.039 116.577C263.978 117.251 263.887 117.926 263.77 118.601C263.465 120.331 261.989 121.61 260.234 121.61H219.274C217.438 121.61 215.895 120.225 215.707 118.398C215.642 117.739 215.586 117.074 215.55 116.414C215.398 118.819 215.459 121.229 215.707 123.639Z" fill="#1E3A59"/>
</g>
<g opacity="0.7">
<path d="M215.498 120.564C215.528 119.625 215.589 118.692 215.686 117.758C215.873 115.952 217.421 114.592 219.242 114.592H260.232C261.988 114.592 263.464 115.866 263.768 117.596C263.951 118.636 264.068 119.676 264.124 120.721C264.245 118.667 264.124 116.612 263.768 114.552C263.464 112.822 261.988 111.548 260.232 111.548H219.242C217.421 111.548 215.873 112.908 215.686 114.714C215.483 116.663 215.422 118.611 215.498 120.564Z" fill="white"/>
</g>
<path d="M219.271 128.374H260.233C262.718 128.374 264.835 126.579 265.267 124.106C265.835 120.85 265.835 117.549 265.267 114.292C264.835 111.82 262.718 110.024 260.233 110.024H219.241C216.618 110.024 214.438 111.974 214.171 114.56C213.862 117.534 213.869 120.641 214.193 123.795C214.46 126.405 216.643 128.374 219.271 128.374ZM262.268 114.816C262.775 117.725 262.775 120.674 262.268 123.583C262.092 124.595 261.236 125.33 260.233 125.33H219.271C218.21 125.33 217.329 124.537 217.221 123.485C216.919 120.538 216.911 117.641 217.198 114.874C217.305 113.845 218.183 113.069 219.241 113.069H260.233C261.236 113.069 262.092 113.804 262.268 114.816Z" fill="#1E3A59"/>
<path d="M232.801 126.852C237.706 128.431 242.61 128.431 247.515 126.852V111.547C242.809 110.23 237.881 110.383 232.801 111.547V126.852Z" fill="#DADEE0"/>
<g opacity="0.25">
<path d="M232.8 119.834V126.851C237.706 128.429 242.613 128.429 247.514 126.851V119.834C242.612 121.412 237.706 121.412 232.8 119.834Z" fill="#1E3A59"/>
</g>
<path d="M240.157 129.554C242.771 129.554 245.385 129.136 247.98 128.301C248.61 128.099 249.036 127.513 249.036 126.852V111.546C249.036 110.864 248.582 110.265 247.924 110.081C243.216 108.764 238.157 108.757 232.461 110.063C231.769 110.221 231.279 110.837 231.279 111.546V126.852C231.279 127.513 231.705 128.099 232.334 128.301C234.93 129.136 237.543 129.554 240.157 129.554ZM245.992 125.716C242.115 126.771 238.199 126.771 234.323 125.716V112.778C238.581 111.935 242.421 111.919 245.992 112.731V125.716Z" fill="#1E3A59"/>
<path d="M262.989 117.719C263.401 117.719 263.74 117.389 263.749 116.975C263.758 116.554 263.425 116.207 263.005 116.197L247.531 115.859C247.092 115.858 246.762 116.183 246.753 116.603C246.744 117.024 247.077 117.372 247.497 117.381L262.972 117.719C262.978 117.719 262.983 117.719 262.989 117.719Z" fill="#1E3A59"/>
<path d="M247.513 121.778C247.549 121.778 247.586 121.776 247.623 121.77C248.295 121.716 257.16 121.745 262.984 121.778C262.986 121.778 262.987 121.778 262.988 121.778C263.407 121.778 263.747 121.44 263.749 121.022C263.752 120.601 263.413 120.259 262.993 120.256C256.091 120.218 247.777 120.188 247.365 120.271C246.952 120.354 246.685 120.755 246.768 121.167C246.84 121.529 247.158 121.778 247.513 121.778Z" fill="#1E3A59"/>
<path d="M216.902 117.745C216.908 117.745 216.914 117.745 216.919 117.745L233.58 117.381C234 117.372 234.333 117.024 234.324 116.603C234.315 116.189 233.976 115.859 233.564 115.859C233.558 115.859 233.553 115.859 233.547 115.859L216.886 116.223C216.466 116.233 216.133 116.581 216.142 117.001C216.151 117.415 216.49 117.745 216.902 117.745Z" fill="#1E3A59"/>
<path d="M233.564 121.779C233.919 121.779 234.237 121.529 234.31 121.167C234.392 120.755 234.125 120.354 233.713 120.271C233.301 120.188 224.342 120.218 216.899 120.257C216.478 120.259 216.139 120.601 216.142 121.022C216.144 121.441 216.484 121.779 216.903 121.779C216.904 121.779 216.905 121.779 216.907 121.779C223.198 121.746 232.761 121.717 233.457 121.771C233.493 121.776 233.529 121.779 233.564 121.779Z" fill="#1E3A59"/>
<path d="M49.823 66.5179C50.363 69.6146 50.363 72.7114 49.823 75.8082C49.5213 77.5381 48.0442 78.8158 46.2883 78.8158H5.32641C3.49179 78.8158 1.9495 77.4283 1.76239 75.6032C1.45686 72.6229 1.4323 69.6482 1.73997 66.6801C1.92749 64.8716 3.47808 63.5103 5.29626 63.5103H46.2882C48.0442 63.5103 49.5213 64.7881 49.823 66.5179Z" fill="#66A669"/>
<g opacity="0.25">
<path d="M1.76287 75.6025C1.95059 77.429 3.49299 78.8141 5.32964 78.8141H46.289C48.0445 78.8141 49.5209 77.5407 49.8253 75.8105C50.2464 73.3853 50.3377 70.9652 50.0942 68.54C50.0333 69.2148 49.942 69.8896 49.8253 70.5645C49.5209 72.2946 48.0445 73.5731 46.289 73.5731H5.32964C3.49299 73.5731 1.95059 72.188 1.76287 70.3614C1.69691 69.7019 1.64109 69.0373 1.60558 68.3777C1.45337 70.7825 1.51426 73.1925 1.76287 75.6025Z" fill="#1E3A59"/>
</g>
<g opacity="0.7">
<path d="M1.55463 72.5278C1.58507 71.5892 1.64597 70.6557 1.74236 69.7221C1.93009 67.9159 3.47755 66.5562 5.29898 66.5562H46.2888C48.0442 66.5562 49.5207 67.8296 49.8251 69.5598C50.0077 70.5998 50.1244 71.6399 50.1803 72.6851C50.302 70.6303 50.1803 68.5754 49.8251 66.5156C49.5207 64.7855 48.0442 63.512 46.2888 63.512H5.29898C3.47755 63.512 1.93009 64.8717 1.74236 66.6779C1.53942 68.6262 1.47853 70.5745 1.55463 72.5278Z" fill="white"/>
</g>
<path d="M5.32639 80.3382H46.2882C48.774 80.3382 50.8911 78.5432 51.3227 76.0698C51.8905 72.814 51.8905 69.5122 51.3227 66.2565C50.8911 63.7836 48.774 61.9884 46.2882 61.9884H5.29634C2.67379 61.9884 0.493977 63.9381 0.225986 66.523C-0.082489 69.4978 -0.0747795 72.605 0.24831 75.7587C0.515892 78.3692 2.69886 80.3382 5.32639 80.3382ZM48.3236 66.7797C48.831 69.6881 48.831 72.6381 48.3236 75.5465C48.1473 76.5592 47.2911 77.294 46.2882 77.294H5.32639C4.2656 77.294 3.38442 76.5008 3.27665 75.4485C2.97467 72.5019 2.96695 69.6044 3.25381 66.8372C3.36056 65.8086 4.23859 65.0327 5.29634 65.0327H46.2882C47.2911 65.0326 48.147 65.7674 48.3236 66.7797Z" fill="#1E3A59"/>
<path d="M18.8578 78.8158C23.7623 80.3942 28.6668 80.3942 33.5713 78.8158V63.5103C28.8653 62.1939 23.9378 62.3463 18.8578 63.5103V78.8158Z" fill="#DADEE0"/>
<g opacity="0.25">
<path d="M18.8544 71.7971V78.8139C23.7606 80.3918 28.6668 80.3918 33.5679 78.8139V71.7971C28.6668 73.375 23.7606 73.375 18.8544 71.7971Z" fill="#1E3A59"/>
</g>
<path d="M26.2125 81.5178C28.8263 81.5178 31.4399 81.1002 34.0355 80.2648C34.6647 80.0626 35.0913 79.4769 35.0913 78.816V63.5104C35.0913 62.8277 34.6367 62.2286 33.9793 62.0449C29.2695 60.7274 24.2118 60.7215 18.5156 62.027C17.8239 62.1856 17.3336 62.8009 17.3336 63.5104V78.816C17.3336 79.477 17.7602 80.0626 18.3895 80.2648C20.985 81.1002 23.5985 81.5178 26.2125 81.5178ZM32.0471 77.6804C28.1706 78.7337 24.2544 78.7337 20.3778 77.6804V64.7416C24.6364 63.8993 28.475 63.884 32.0471 64.6945V77.6804Z" fill="#1E3A59"/>
<path d="M49.0454 69.6836C49.4581 69.6836 49.797 69.3536 49.806 68.9394C49.8151 68.5187 49.482 68.1709 49.0618 68.1615L33.5872 67.8231C33.1555 67.8057 32.819 68.1476 32.8098 68.5673C32.8007 68.988 33.1338 69.3357 33.554 69.3451L49.0286 69.6836C49.0343 69.6836 49.0399 69.6836 49.0454 69.6836Z" fill="#1E3A59"/>
<path d="M33.5697 73.7426C33.6059 73.7426 33.6423 73.7402 33.6792 73.7347C34.3514 73.6807 43.2163 73.7099 49.0408 73.7426C49.0424 73.7426 49.0438 73.7426 49.0451 73.7426C49.4636 73.7426 49.8037 73.4047 49.8061 72.986C49.8086 72.5654 49.4698 72.223 49.0494 72.2205C42.1474 72.1819 33.8335 72.1521 33.4212 72.2353C33.0089 72.318 32.7419 72.719 32.8244 73.1311C32.8967 73.4929 33.2145 73.7426 33.5697 73.7426Z" fill="#1E3A59"/>
<path d="M2.95848 69.7093C2.96396 69.7093 2.96965 69.7093 2.97533 69.7093L19.636 69.3451C20.0562 69.3357 20.3893 68.988 20.3802 68.5673C20.3713 68.1476 20.039 67.8057 19.6028 67.8231L2.94213 68.1872C2.52194 68.1967 2.1888 68.5445 2.19794 68.9651C2.20687 69.3793 2.5457 69.7093 2.95848 69.7093Z" fill="#1E3A59"/>
<path d="M19.621 73.7423C19.9762 73.7423 20.294 73.4926 20.3664 73.1309C20.4489 72.7187 20.1818 72.3178 19.7696 72.2351C19.3578 72.1524 10.3991 72.1817 2.95554 72.2203C2.53514 72.2224 2.19623 72.5652 2.19846 72.9853C2.20069 73.4045 2.54103 73.7424 2.9595 73.7424C2.96072 73.7424 2.96225 73.7424 2.96347 73.7424C9.25446 73.7092 18.8185 73.681 19.5134 73.735C19.5493 73.7398 19.5856 73.7423 19.621 73.7423Z" fill="#1E3A59"/>
<path d="M49.823 82.0845C50.363 85.1812 50.363 88.278 49.823 91.3748C49.5213 93.1047 48.0442 94.3825 46.2883 94.3825H5.32641C3.49179 94.3825 1.9495 92.9949 1.76239 91.1699C1.45686 88.1895 1.4323 85.2148 1.73997 82.2468C1.92749 80.4382 3.47808 79.077 5.29626 79.077H46.2882C48.0442 79.077 49.5213 80.3547 49.823 82.0845Z" fill="#66A669"/>
<g opacity="0.25">
<path d="M1.76287 91.1693C1.95059 92.9958 3.49299 94.3809 5.32964 94.3809H46.289C48.0445 94.3809 49.5209 93.1075 49.8253 91.3773C50.2464 88.9521 50.3377 86.532 50.0942 84.1068C50.0333 84.7816 49.942 85.4564 49.8253 86.1313C49.5209 87.8614 48.0445 89.1399 46.289 89.1399H5.32964C3.49299 89.1399 1.95059 87.7548 1.76287 85.9283C1.69691 85.2687 1.64109 84.6042 1.60558 83.9445C1.45337 86.3493 1.51426 88.7593 1.76287 91.1693Z" fill="#1E3A59"/>
</g>
<g opacity="0.7">
<path d="M1.55463 88.0941C1.58507 87.1555 1.64597 86.2219 1.74236 85.2884C1.93009 83.4822 3.47755 82.1224 5.29898 82.1224H46.2888C48.0442 82.1224 49.5207 83.3959 49.8251 85.126C50.0077 86.1661 50.1244 87.2062 50.1803 88.2514C50.302 86.1965 50.1803 84.1417 49.8251 82.0818C49.5207 80.3517 48.0442 79.0782 46.2888 79.0782H5.29898C3.47755 79.0782 1.93009 80.438 1.74236 82.2442C1.53942 84.1926 1.47853 86.1408 1.55463 88.0941Z" fill="white"/>
</g>
<path d="M5.3264 95.9046H46.2882C48.774 95.9046 50.8911 94.1094 51.3227 91.6365C51.8905 88.3808 51.8905 85.079 51.3227 81.8227C50.8911 79.3498 48.774 77.5547 46.2882 77.5547H5.29634C2.67379 77.5547 0.49398 79.5044 0.22599 82.0897C-0.0824852 85.0645 -0.0749779 88.1717 0.248314 91.3248C0.515896 93.9356 2.69887 95.9046 5.3264 95.9046ZM48.3236 82.346C48.831 85.2549 48.831 88.2049 48.3236 91.1133C48.1473 92.1255 47.2911 92.8604 46.2882 92.8604H5.3264C4.2656 92.8604 3.38442 92.0672 3.27666 91.0147C2.97467 88.0681 2.96695 85.1711 3.25381 82.4039C3.36057 81.3748 4.2386 80.599 5.29634 80.599H46.2882C47.2911 80.599 48.147 81.3337 48.3236 82.346Z" fill="#1E3A59"/>
<path d="M18.8578 94.3824C23.7623 95.9608 28.6668 95.9608 33.5713 94.3824V79.0769C28.8653 77.7605 23.9378 77.9128 18.8578 79.0769V94.3824Z" fill="#DADEE0"/>
<g opacity="0.25">
<path d="M18.8544 87.364V94.3808C23.7606 95.9587 28.6668 95.9587 33.5679 94.3808V87.364C28.6668 88.9418 23.7606 88.9418 18.8544 87.364Z" fill="#1E3A59"/>
</g>
<path d="M26.2125 97.0839C28.8263 97.0839 31.4399 96.6663 34.0355 95.8308C34.6647 95.6287 35.0913 95.043 35.0913 94.3821V79.0765C35.0913 78.3937 34.6367 77.7947 33.9793 77.6109C29.2705 76.2939 24.2126 76.287 18.5159 77.5931C17.8243 77.7512 17.3337 78.367 17.3337 79.0765V94.3821C17.3337 95.0431 17.7603 95.6287 18.3896 95.8308C20.985 96.6663 23.5985 97.0839 26.2125 97.0839ZM32.0471 93.2465C28.1706 94.3009 24.2544 94.3009 20.3778 93.2465V80.3078C24.6364 79.4655 28.476 79.4496 32.0471 80.2607V93.2465Z" fill="#1E3A59"/>
<path d="M49.0454 85.2497C49.4581 85.2497 49.797 84.9197 49.806 84.5055C49.8151 84.0848 49.482 83.7371 49.0618 83.7276L33.5872 83.3892C33.1555 83.3927 32.819 83.7137 32.8098 84.1334C32.8007 84.5541 33.1338 84.9019 33.554 84.9113L49.0286 85.2497C49.0343 85.2497 49.0399 85.2497 49.0454 85.2497Z" fill="#1E3A59"/>
<path d="M33.5697 89.3085C33.6059 89.3085 33.6423 89.306 33.6792 89.3006C34.3514 89.2471 43.2163 89.2753 49.0408 89.3085C49.0424 89.3085 49.0438 89.3085 49.0451 89.3085C49.4636 89.3085 49.8037 88.9706 49.8061 88.552C49.8086 88.1313 49.4698 87.789 49.0494 87.7864C42.1479 87.7473 33.8337 87.7181 33.4212 87.8013C33.0089 87.8841 32.7419 88.2849 32.8244 88.6971C32.8967 89.0588 33.2145 89.3085 33.5697 89.3085Z" fill="#1E3A59"/>
<path d="M2.95848 85.2755C2.96396 85.2755 2.96965 85.2755 2.97533 85.2755L19.636 84.9113C20.0562 84.9019 20.3893 84.554 20.3802 84.1334C20.3713 83.7137 20.039 83.3922 19.6028 83.3892L2.94213 83.7534C2.52194 83.7628 2.1888 84.1107 2.19794 84.5313C2.20687 84.9455 2.5457 85.2755 2.95848 85.2755Z" fill="#1E3A59"/>
<path d="M19.621 89.309C19.9762 89.309 20.294 89.0593 20.3664 88.6976C20.4489 88.2853 20.1818 87.8845 19.7696 87.8018C19.3578 87.7186 10.3985 87.7478 2.95554 87.787C2.53514 87.7889 2.19623 88.1318 2.19846 88.552C2.20069 88.9712 2.54103 89.3091 2.9595 89.3091C2.96072 89.3091 2.96225 89.3091 2.96347 89.3091C9.25446 89.2759 18.8185 89.2476 19.5134 89.3017C19.5493 89.3065 19.5856 89.309 19.621 89.309Z" fill="#1E3A59"/>
<path d="M49.823 99.5049C50.363 102.602 50.363 105.698 49.823 108.795C49.5213 110.525 48.0442 111.803 46.2883 111.803H5.32641C3.49179 111.803 1.9495 110.415 1.76239 108.59C1.45686 105.61 1.4323 102.635 1.73997 99.6671C1.92749 97.8586 3.47808 96.4973 5.29626 96.4973H46.2882C48.0442 96.4972 49.5213 97.775 49.823 99.5049Z" fill="#66A669"/>
<g opacity="0.25">
<path d="M1.76287 108.589C1.95059 110.416 3.49299 111.801 5.32964 111.801H46.289C48.0445 111.801 49.5209 110.527 49.8253 108.797C50.2464 106.372 50.3377 103.952 50.0942 101.527C50.0333 102.201 49.942 102.876 49.8253 103.551C49.5209 105.281 48.0445 106.56 46.289 106.56H5.32964C3.49299 106.56 1.95059 105.175 1.76287 103.348C1.69691 102.689 1.64109 102.024 1.60558 101.364C1.45337 103.769 1.51426 106.179 1.76287 108.589Z" fill="#1E3A59"/>
</g>
<g opacity="0.7">
<path d="M1.55463 105.515C1.58507 104.576 1.64597 103.642 1.74236 102.709C1.93009 100.903 3.47755 99.5429 5.29898 99.5429H46.2888C48.0442 99.5429 49.5207 100.816 49.8251 102.546C50.0077 103.587 50.1244 104.627 50.1803 105.672C50.302 103.617 50.1803 101.562 49.8251 99.5023C49.5207 97.7722 48.0442 96.4987 46.2888 96.4987H5.29898C3.47755 96.4987 1.93009 97.8585 1.74236 99.6647C1.53942 101.613 1.47853 103.561 1.55463 105.515Z" fill="white"/>
</g>
<path d="M5.3264 113.324H46.2882C48.774 113.324 50.8911 111.529 51.3227 109.056C51.8905 105.801 51.8905 102.499 51.3227 99.2431C50.8911 96.7697 48.774 94.9746 46.2882 94.9746H5.29634C2.67379 94.9746 0.49398 96.9243 0.22599 99.5096C-0.0824852 102.484 -0.0749779 105.592 0.248314 108.745C0.515896 111.355 2.69887 113.324 5.3264 113.324ZM46.2882 98.0188C47.2911 98.0188 48.1472 98.7536 48.3236 99.7663C48.831 102.675 48.831 105.625 48.3236 108.533C48.1473 109.545 47.2911 110.28 46.2882 110.28H5.3264C4.2656 110.28 3.38442 109.487 3.27666 108.435C2.97467 105.488 2.96695 102.591 3.25381 99.8239C3.36057 98.7948 4.2386 98.0189 5.29634 98.0189H46.2882V98.0188Z" fill="#1E3A59"/>
<path d="M18.8578 111.803C23.7623 113.381 28.6668 113.381 33.5713 111.803V96.4974C28.8653 95.181 23.9378 95.3333 18.8578 96.4974V111.803Z" fill="#DADEE0"/>
<g opacity="0.25">
<path d="M18.8544 104.784V111.801C23.7606 113.379 28.6668 113.379 33.5679 111.801V104.784C28.6668 106.362 23.7606 106.362 18.8544 104.784Z" fill="#1E3A59"/>
</g>
<path d="M26.2125 114.505C28.8263 114.505 31.4399 114.087 34.0355 113.251C34.6647 113.049 35.0913 112.464 35.0913 111.803V96.4971C35.0913 95.8143 34.6367 95.2153 33.9793 95.031C29.2693 93.715 24.211 93.7081 18.5159 95.0137C17.8243 95.1717 17.3337 95.7876 17.3337 96.4971V111.803C17.3337 112.464 17.7603 113.049 18.3896 113.251C20.985 114.087 23.5985 114.505 26.2125 114.505ZM32.0471 110.667C28.1706 111.722 24.2544 111.722 20.3778 110.667V97.7284C24.6359 96.886 28.4755 96.8712 32.0471 97.6813V110.667Z" fill="#1E3A59"/>
<path d="M49.0454 102.67C49.4581 102.67 49.797 102.34 49.806 101.926C49.8151 101.505 49.482 101.157 49.0618 101.148L33.5872 100.809C33.1555 100.804 32.819 101.133 32.8098 101.554C32.8007 101.974 33.1338 102.322 33.554 102.332L49.0286 102.67C49.0343 102.67 49.0399 102.67 49.0454 102.67Z" fill="#1E3A59"/>
<path d="M33.5697 106.729C33.6059 106.729 33.6423 106.726 33.6792 106.721C34.3514 106.667 43.2163 106.696 49.0408 106.729C49.0424 106.729 49.0438 106.729 49.0451 106.729C49.4636 106.729 49.8037 106.391 49.8061 105.972C49.8086 105.552 49.4698 105.209 49.0494 105.207C42.1474 105.168 33.8335 105.139 33.4212 105.222C33.0089 105.304 32.7419 105.705 32.8244 106.117C32.8967 106.479 33.2145 106.729 33.5697 106.729Z" fill="#1E3A59"/>
<path d="M2.95848 102.696C2.96396 102.696 2.96965 102.696 2.97533 102.696L19.636 102.332C20.0562 102.322 20.3893 101.974 20.3802 101.554C20.3713 101.133 20.039 100.803 19.6028 100.809L2.94213 101.174C2.52194 101.183 2.1888 101.531 2.19794 101.952C2.20687 102.366 2.5457 102.696 2.95848 102.696Z" fill="#1E3A59"/>
<path d="M19.621 106.729C19.9762 106.729 20.294 106.479 20.3664 106.117C20.4489 105.705 20.1818 105.304 19.7696 105.222C19.3578 105.139 10.3991 105.169 2.95554 105.207C2.53514 105.209 2.19623 105.552 2.19846 105.972C2.20069 106.391 2.54103 106.729 2.9595 106.729C2.96072 106.729 2.96225 106.729 2.96347 106.729C9.25446 106.696 18.8185 106.667 19.5134 106.722C19.5493 106.726 19.5856 106.729 19.621 106.729Z" fill="#1E3A59"/>
<path d="M191.402 244.126H193.854C197.543 244.126 200.534 241.135 200.534 237.446H184.721C184.721 241.135 187.712 244.126 191.402 244.126Z" fill="#B3B9BC"/>
<path d="M191.403 245.648H193.855C198.378 245.648 202.058 241.968 202.058 237.446C202.058 236.605 201.376 235.924 200.536 235.924H184.723C183.882 235.924 183.201 236.605 183.201 237.446C183.201 241.968 186.88 245.648 191.403 245.648ZM198.785 238.968C198.134 241.071 196.17 242.604 193.855 242.604H191.403C189.089 242.604 187.125 241.071 186.474 238.968H198.785Z" fill="#1E3A59"/>
<path d="M176.226 137.242V227.385C176.226 232.941 180.731 237.446 186.287 237.446H281.336C284.761 237.446 287.79 235.731 289.601 233.113C290.738 231.484 291.397 229.511 291.397 227.385V137.242C291.397 131.686 286.892 127.181 281.336 127.181H186.287C180.731 127.181 176.226 131.686 176.226 137.242Z" fill="#C1D0D6"/>
<g opacity="0.25">
<path d="M176.224 160.124V227.385C176.224 232.94 180.729 237.446 186.285 237.446H281.334C284.759 237.446 287.788 235.731 289.599 233.113C188.365 230.474 184.722 150.489 184.722 150.489L176.224 160.124Z" fill="#1E3A59"/>
</g>
<g opacity="0.7">
<path d="M178.078 131.427C178.641 131.296 179.235 131.225 179.838 131.225H279.794C283.995 131.225 287.404 134.629 287.404 138.83V233.884C287.404 234.452 287.343 235.005 287.222 235.538C289.753 233.717 291.397 230.744 291.397 227.385V137.242C291.397 131.686 286.892 127.181 281.336 127.181H186.287C182.898 127.181 179.899 128.855 178.078 131.427Z" fill="white"/>
</g>
<path d="M186.287 238.968H281.333C287.721 238.968 292.917 233.771 292.917 227.383V137.242C292.917 130.854 287.721 125.657 281.333 125.657H186.287C179.899 125.657 174.702 130.854 174.702 137.242V227.383C174.702 233.771 179.899 238.968 186.287 238.968ZM281.333 128.701C286.042 128.701 289.873 132.532 289.873 137.242V227.383C289.873 232.093 286.042 235.924 281.333 235.924H186.287C181.577 235.924 177.746 232.093 177.746 227.383V137.242C177.746 132.532 181.577 128.701 186.287 128.701H281.333Z" fill="#1E3A59"/>
<path d="M182.82 141.77L172.228 123.289L182.122 115.359L191.725 128.917L192.713 135.128L187.075 136.342L184.849 139.452" fill="#66A669"/>
<g opacity="0.7">
<path d="M172.226 123.289L173.565 125.623L181.627 119.159L191.232 132.716L191.653 135.354L192.713 135.126L191.724 128.916L182.119 115.359L172.226 123.289Z" fill="white"/>
</g>
<path d="M188.555 230.174H279.066C281.639 230.174 283.733 228.08 283.733 225.507V139.118C283.733 136.544 281.639 134.451 279.066 134.451H188.555C185.982 134.451 183.888 136.544 183.888 139.118V225.507C183.888 228.08 185.982 230.174 188.555 230.174ZM279.066 137.495C279.961 137.495 280.689 138.223 280.689 139.118V225.507C280.689 226.402 279.961 227.129 279.066 227.129H188.555C187.66 227.129 186.932 226.402 186.932 225.507V139.118C186.932 138.223 187.66 137.495 188.555 137.495H279.066Z" fill="#1E3A59"/>
<g opacity="0.25">
<path d="M185.407 139.119V143.091C185.407 141.356 186.817 139.946 188.553 139.946H279.066C280.801 139.946 282.212 141.356 282.212 143.091V139.119C282.212 137.379 280.801 135.973 279.066 135.973H188.553C186.817 135.973 185.407 137.379 185.407 139.119Z" fill="#1E3A59"/>
</g>
<path d="M281.788 168.698H282.634C284.642 168.698 286.27 167.07 286.27 165.062V156.86C286.27 154.852 284.642 153.224 282.634 153.224H281.788C279.78 153.224 278.152 154.852 278.152 156.86V165.062C278.152 167.07 279.78 168.698 281.788 168.698Z" fill="#07C7FF"/>
<g opacity="0.25">
<path d="M278.152 159.987V165.06C278.152 167.069 279.781 168.698 281.79 168.698H282.632C284.641 168.698 286.27 167.069 286.27 165.06V159.987C286.27 161.996 284.641 163.624 282.632 163.624H281.79C279.781 163.624 278.152 161.996 278.152 159.987Z" fill="#1E3A59"/>
</g>
<g opacity="0.7">
<path d="M278.152 156.862V160.159C278.152 158.15 279.781 156.522 281.79 156.522H282.632C284.641 156.522 286.27 158.15 286.27 160.159V156.862C286.27 154.852 284.641 153.224 282.632 153.224H281.79C279.781 153.224 278.152 154.852 278.152 156.862Z" fill="white"/>
</g>
<path d="M281.788 170.474H282.633C285.617 170.474 288.045 168.046 288.045 165.062V156.86C288.045 153.875 285.617 151.448 282.633 151.448H281.788C278.804 151.448 276.376 153.875 276.376 156.86V165.062C276.376 168.046 278.804 170.474 281.788 170.474ZM282.633 154.999C283.659 154.999 284.494 155.834 284.494 156.86V165.062C284.494 166.088 283.659 166.922 282.633 166.922H281.788C280.762 166.922 279.927 166.088 279.927 165.062V156.86C279.927 155.834 280.762 154.999 281.788 154.999H282.633Z" fill="#1E3A59"/>
<path d="M281.788 213.516H282.634C284.642 213.516 286.27 211.888 286.27 209.88V201.678C286.27 199.67 284.642 198.042 282.634 198.042H281.788C279.78 198.042 278.152 199.67 278.152 201.678V209.88C278.152 211.888 279.78 213.516 281.788 213.516Z" fill="#07C7FF"/>
<g opacity="0.25">
<path d="M278.152 204.805V209.879C278.152 211.888 279.781 213.516 281.79 213.516H282.632C284.641 213.516 286.27 211.888 286.27 209.879V204.805C286.27 206.814 284.641 208.443 282.632 208.443H281.79C279.781 208.443 278.152 206.814 278.152 204.805Z" fill="#1E3A59"/>
</g>
<g opacity="0.25">
<path d="M248.523 208.272C237.595 208.272 228.736 199.413 228.736 188.485C228.736 177.557 237.595 168.698 248.523 168.698C259.451 168.698 268.31 177.557 268.31 188.485C268.31 199.413 259.451 208.272 248.523 208.272Z" fill="#1E3A59"/>
</g>
<g opacity="0.7">
<path d="M278.152 201.679V204.977C278.152 202.968 279.781 201.339 281.79 201.339H282.632C284.641 201.339 286.27 202.968 286.27 204.977V201.679C286.27 199.67 284.641 198.042 282.632 198.042H281.79C279.781 198.042 278.152 199.67 278.152 201.679Z" fill="white"/>
</g>
<path d="M281.788 215.292H282.633C285.617 215.292 288.045 212.864 288.045 209.88V201.678C288.045 198.694 285.617 196.266 282.633 196.266H281.788C278.804 196.266 276.376 198.694 276.376 201.678V209.88C276.376 212.864 278.804 215.292 281.788 215.292ZM282.633 199.818C283.659 199.818 284.494 200.652 284.494 201.678V209.88C284.494 210.906 283.659 211.741 282.633 211.741H281.788C280.762 211.741 279.927 210.906 279.927 209.88V201.678C279.927 200.652 280.762 199.818 281.788 199.818H282.633Z" fill="#1E3A59"/>
<path d="M252.835 203.072C241.907 203.072 233.048 194.213 233.048 183.285C233.048 172.357 241.907 163.498 252.835 163.498C263.763 163.498 272.622 172.357 272.622 183.285C272.622 194.213 263.763 203.072 252.835 203.072Z" fill="#07C7FF"/>
<g opacity="0.25">
<path d="M233.047 183.285C233.047 194.213 241.906 203.072 252.835 203.072C260.917 203.072 267.863 198.226 270.937 191.286C267.31 195.431 261.982 198.044 256.046 198.044C245.118 198.044 236.259 189.185 236.259 178.257C236.259 175.405 236.863 172.696 237.954 170.245C234.894 173.726 233.047 178.287 233.047 183.285Z" fill="#1E3A59"/>
</g>
<g opacity="0.7">
<path d="M236.884 171.57C240.461 167.998 245.412 165.781 250.867 165.781C261.795 165.781 270.654 174.639 270.654 185.568C270.654 189.957 269.228 194.015 266.808 197.298C270.4 193.716 272.622 188.759 272.622 183.285C272.622 172.356 263.764 163.498 252.835 163.498C246.29 163.498 240.486 166.674 236.884 171.57Z" fill="white"/>
</g>
<path d="M252.837 204.594C264.586 204.594 274.146 195.035 274.146 183.285C274.146 171.535 264.586 161.976 252.837 161.976C241.087 161.976 231.527 171.535 231.527 183.285C231.527 195.035 241.087 204.594 252.837 204.594ZM252.837 165.02C262.908 165.02 271.102 173.213 271.102 183.285C271.102 193.356 262.908 201.55 252.837 201.55C242.765 201.55 234.571 193.356 234.571 183.285C234.571 173.213 242.765 165.02 252.837 165.02Z" fill="#1E3A59"/>
<path d="M252.837 196.476C260.111 196.476 266.028 190.559 266.028 183.285C266.028 176.011 260.111 170.093 252.837 170.093C245.563 170.093 239.645 176.011 239.645 183.285C239.645 190.559 245.563 196.476 252.837 196.476ZM252.837 172.63C258.712 172.63 263.492 177.41 263.492 183.285C263.492 189.16 258.712 193.939 252.837 193.939C246.962 193.939 242.182 189.16 242.182 183.285C242.182 177.41 246.962 172.63 252.837 172.63Z" fill="#1E3A59"/>
<g opacity="0.25">
<path d="M252.835 187.021C250.772 187.021 249.099 185.348 249.099 183.285C249.099 181.221 250.772 179.549 252.835 179.549C254.899 179.549 256.571 181.221 256.571 183.285C256.571 185.348 254.899 187.021 252.835 187.021Z" fill="#1E3A59"/>
</g>
<path d="M250.636 163.512L252.158 167.268L253.68 163.512H250.636Z" fill="#1E3A59"/>
<path d="M252.158 199.302L250.636 203.058H253.68L252.158 199.302Z" fill="#1E3A59"/>
<path d="M233.061 184.765L236.817 183.242L233.061 181.72V184.765Z" fill="#1E3A59"/>
<path d="M268.854 183.242L272.609 184.765V181.72L268.854 183.242Z" fill="#1E3A59"/>
<path d="M237.777 170.633L241.509 172.213L239.93 168.481L237.777 170.633Z" fill="#1E3A59"/>
<path d="M264.164 194.822L265.743 198.554L267.896 196.401L264.164 194.822Z" fill="#1E3A59"/>
<g opacity="0.25">
<path d="M199.407 181.311C199.442 182.831 200.069 184.204 201.066 185.211C201.617 185.767 201.957 186.497 201.957 187.279V195.88C201.957 196.646 202.578 197.266 203.344 197.266H206.913C207.679 197.266 208.3 196.646 208.3 195.88V187.318C208.3 186.514 208.648 185.764 209.211 185.19C210.225 184.156 210.852 182.74 210.852 181.178C210.852 177.942 208.167 175.329 204.904 175.454C201.823 175.572 199.336 178.229 199.407 181.311Z" fill="#1E3A59"/>
</g>
<path d="M239.93 198.342L241.509 194.61L237.777 196.19L239.93 198.342Z" fill="#1E3A59"/>
<path d="M264.164 171.916L267.896 170.337L265.743 168.185L264.164 171.916Z" fill="#1E3A59"/>
<path d="M202.197 178.426C202.232 179.946 202.859 181.318 203.856 182.325C204.407 182.881 204.747 183.611 204.747 184.394V192.994C204.747 193.76 205.368 194.381 206.134 194.381H209.703C210.469 194.381 211.089 193.76 211.089 192.994V184.432C211.089 183.628 211.438 182.879 212.001 182.305C213.015 181.27 213.641 179.855 213.641 178.292C213.641 175.057 210.957 172.444 207.694 172.569C204.613 172.686 202.126 175.343 202.197 178.426Z" fill="#07C7FF"/>
<g opacity="0.7">
<path d="M211.358 179.84C211.358 181.403 210.734 182.818 209.719 183.853C209.156 184.426 208.806 185.172 208.806 185.979V194.381H209.704C210.47 194.381 211.089 193.762 211.089 192.996V184.431C211.089 183.63 211.439 182.879 212.003 182.306C213.017 181.271 213.641 179.855 213.641 178.292C213.641 175.055 210.957 172.442 207.695 172.569C206.117 172.63 204.697 173.351 203.697 174.457C204.235 174.259 204.813 174.142 205.412 174.117C208.674 173.99 211.358 176.603 211.358 179.84Z" fill="white"/>
</g>
<path d="M206.136 195.649H209.705C211.169 195.649 212.36 194.458 212.36 192.994V184.432C212.36 183.993 212.555 183.554 212.908 183.193C214.2 181.875 214.912 180.135 214.912 178.292C214.912 176.372 214.15 174.581 212.766 173.249C211.384 171.92 209.572 171.226 207.648 171.301C203.857 171.446 200.844 174.655 200.931 178.455C200.972 180.248 201.691 181.94 202.957 183.218C203.295 183.559 203.481 183.977 203.481 184.394V192.994C203.481 194.458 204.672 195.649 206.136 195.649ZM207.921 173.832C209.079 173.832 210.169 174.271 211.007 175.077C211.889 175.926 212.375 177.068 212.375 178.292C212.375 179.467 211.921 180.576 211.097 181.417C210.276 182.254 209.823 183.325 209.823 184.432V192.994C209.823 193.059 209.77 193.112 209.705 193.112H206.136C206.071 193.112 206.018 193.059 206.018 192.994V184.394C206.018 183.304 205.571 182.252 204.759 181.432C203.952 180.617 203.493 179.539 203.467 178.397V178.396C203.412 176.015 205.372 173.927 207.745 173.836C207.804 173.834 207.863 173.832 207.921 173.832Z" fill="#1E3A59"/>
<path d="M231.189 228.651L228.736 245.563L212.924 243.534L216.391 228.651H231.189Z" fill="#66A669"/>
<path d="M216.391 228.651L215.368 233.047L207.766 243.111L198.042 235.501L204.046 228.651H216.391Z" fill="#66A669"/>
<path d="M207.806 235.036C206.405 235.036 205.27 233.9 205.27 232.499C205.27 231.098 206.405 229.962 207.806 229.962C209.207 229.962 210.343 231.098 210.343 232.499C210.343 233.9 209.207 235.036 207.806 235.036Z" fill="#5B8C4A"/>
<path d="M228.737 247.085C229.483 247.085 230.132 246.538 230.242 245.782L232.694 228.87C232.758 228.432 232.628 227.989 232.339 227.655C232.05 227.321 231.63 227.129 231.188 227.129H216.39C215.682 227.129 215.068 227.617 214.908 228.306L211.441 243.188C211.343 243.608 211.427 244.049 211.673 244.402C211.918 244.756 212.302 244.988 212.729 245.043L228.542 247.073C228.608 247.081 228.673 247.085 228.737 247.085ZM229.429 230.173L227.444 243.863L214.788 242.239L217.598 230.173H229.429Z" fill="#1E3A59"/>
<path d="M207.765 244.633C207.831 244.633 207.897 244.629 207.962 244.62C208.367 244.567 208.734 244.354 208.98 244.028L216.581 233.963C216.71 233.794 216.801 233.599 216.849 233.391L217.873 228.997C217.978 228.544 217.871 228.068 217.583 227.705C217.294 227.341 216.855 227.129 216.39 227.129H204.045C203.606 227.129 203.189 227.318 202.9 227.648L196.896 234.497C196.62 234.812 196.486 235.226 196.525 235.643C196.564 236.059 196.773 236.441 197.103 236.699L206.827 244.31C207.097 244.52 207.427 244.633 207.765 244.633ZM213.957 232.386L207.484 240.958L200.246 235.294L204.735 230.173H214.473L213.957 232.386Z" fill="#1E3A59"/>
<path d="M222.457 238.08C221.056 238.08 219.92 236.944 219.92 235.543C219.92 234.142 221.056 233.006 222.457 233.006C223.858 233.006 224.993 234.142 224.993 235.543C224.993 236.944 223.858 238.08 222.457 238.08Z" fill="#5B8C4A"/>
<path d="M207.934 114.664C207.934 114.664 208.188 127.729 211.486 135.973H193.601C193.601 135.973 189.704 125.699 191.399 116.059L207.934 114.664Z" fill="#66A669"/>
<g opacity="0.7">
<path d="M191.069 118.682L205.59 117.46C205.59 117.46 205.793 127.876 208.188 135.973H211.486C208.188 127.729 207.934 114.664 207.934 114.664L191.399 116.059C191.247 116.932 191.14 117.805 191.069 118.682Z" fill="white"/>
</g>
<path d="M193.601 137.495H211.486C211.991 137.495 212.463 137.244 212.746 136.826C213.03 136.408 213.087 135.877 212.899 135.408C209.741 127.512 209.459 114.762 209.456 114.634C209.448 114.213 209.266 113.815 208.953 113.533C208.641 113.252 208.228 113.111 207.806 113.147L191.271 114.542C190.582 114.6 190.02 115.115 189.9 115.795C188.152 125.733 192.013 136.078 192.178 136.513C192.403 137.104 192.969 137.495 193.601 137.495ZM209.326 134.451H194.69C193.856 131.859 191.817 124.556 192.724 117.475L206.472 116.315C206.636 119.749 207.234 127.925 209.326 134.451Z" fill="#1E3A59"/>
<path d="M200.419 132.366C198.58 132.366 197.089 130.462 197.089 128.115C197.089 125.767 198.58 123.863 200.419 123.863C202.258 123.863 203.748 125.767 203.748 128.115C203.748 130.462 202.258 132.366 200.419 132.366Z" fill="#5B8C4A"/>
<path d="M182.82 143.293C183.077 143.293 183.337 143.227 183.576 143.091C184.305 142.673 184.558 141.743 184.14 141.014L174.196 123.662L181.813 117.558L190.483 129.797C190.969 130.482 191.919 130.645 192.605 130.159C193.291 129.673 193.453 128.723 192.967 128.037L183.364 114.48C183.121 114.138 182.748 113.91 182.333 113.852C181.918 113.794 181.497 113.909 181.17 114.172L171.276 122.101C170.691 122.57 170.534 123.395 170.907 124.045L181.498 142.527C181.779 143.018 182.292 143.292 182.82 143.293Z" fill="#1E3A59"/>
<path d="M181.276 132.003C179.83 130.955 179.507 128.932 180.555 127.486C181.604 126.039 183.626 125.717 185.072 126.765C186.519 127.813 186.841 129.835 185.793 131.282C184.745 132.728 182.723 133.051 181.276 132.003Z" fill="#5B8C4A"/>
<path d="M272.201 244.126H274.654C278.343 244.126 281.334 241.135 281.334 237.446H265.521C265.521 241.135 268.512 244.126 272.201 244.126Z" fill="#B3B9BC"/>
<path d="M272.2 245.648H274.652C279.175 245.648 282.854 241.968 282.854 237.446C282.854 236.605 282.173 235.924 281.332 235.924H265.519C264.679 235.924 263.997 236.605 263.997 237.446C263.997 241.968 267.677 245.648 272.2 245.648ZM279.581 238.968C278.93 241.071 276.967 242.604 274.652 242.604H272.2C269.885 242.604 267.922 241.071 267.271 238.968H279.581Z" fill="#1E3A59"/>
<g opacity="0.25">
<path d="M216.391 231.865C216.813 231.992 229.749 238.578 229.749 238.578C229.749 238.578 230.956 229.328 230.703 229.328C230.449 229.328 216.391 228.651 216.391 228.651L204.003 229.328C204.003 229.328 202.861 231.104 203.115 231.104C203.368 231.104 212.924 234.719 212.924 234.719" fill="#1E3A59"/>
</g>
<path d="M158.297 104.686C158.297 104.686 181.419 106.701 174.195 133.606L155.084 116.372" fill="white"/>
<path d="M174.197 135.128C174.869 135.128 175.484 134.679 175.666 134C178.149 124.757 177.449 117.274 173.587 111.758C168.231 104.106 158.829 103.204 158.431 103.17C157.591 103.1 156.856 103.717 156.783 104.553C156.71 105.39 157.328 106.128 158.164 106.202C158.264 106.211 166.592 107.046 171.11 113.527C174.416 118.27 174.96 124.892 172.726 133.21C172.508 134.023 172.99 134.857 173.802 135.075C173.934 135.111 174.067 135.128 174.197 135.128Z" fill="#1E3A59"/>
<path d="M150.023 199.431C172.274 208.473 171.364 164.287 171.364 164.287L159.634 172.668L148.827 195.715" fill="white"/>
<path d="M122.798 235.071L123.108 235.264L128.785 238.801C128.785 238.801 129.125 245.396 135.548 247.761C141.977 250.13 148.572 246.239 150.855 242.52C151.997 240.668 152.839 236.365 153.199 231.632C153.565 226.877 153.438 221.682 152.631 218.08C151.023 210.896 142.864 208.973 142.864 208.973L138.303 214.904L125.32 231.794L122.798 235.071Z" fill="white"/>
<path d="M8.034 112.889C8.0695 113.396 8.11009 113.888 8.15575 114.375C9.84019 131.346 20.6825 135.405 35.4316 133.944C35.4316 133.944 42.4078 145.613 58.0092 156.649C71.0636 165.888 82.5249 157.618 85.9141 154.67C85.9598 154.634 86.0054 154.594 86.046 154.558C86.6193 154.051 86.9288 153.731 86.9288 153.731C86.1678 161.468 87.4362 168.785 87.4362 168.785C72.3828 183.833 72.8901 193.138 72.8901 193.138C72.535 203.24 79.0596 210.784 88.5625 217.223C88.7756 217.37 88.9938 217.512 89.212 217.659L87.8573 221.55C86.0714 221.145 84.2449 221.17 82.4843 221.535C73.9302 223.291 66.9895 233.052 74.0774 240.49C83.6513 250.541 109.253 248.268 117.203 241.337C125.148 234.402 129.207 222.732 144.093 206.837C148.685 201.936 152.257 196.4 155.007 191.098C155.854 189.465 156.62 187.856 157.315 186.294C158.746 183.082 159.867 180.068 160.73 177.466C161.744 174.411 162.404 171.92 162.785 170.337C163.074 169.124 163.201 168.445 163.201 168.445C164.88 167.745 166.422 167.019 167.843 166.283C167.939 166.238 168.031 166.187 168.122 166.136C172.166 164.021 175.185 161.798 177.427 159.672C182.668 154.715 184.545 147.151 182.419 140.256C181.501 137.272 180.283 134.659 178.873 132.366C170.613 118.901 155.763 116.526 155.763 116.526C155.763 116.526 123.839 109.083 104.052 112.889C84.2652 116.694 69.4248 128.617 69.4248 128.617C47.3546 113.776 39.6173 111.874 39.6173 111.874L8.034 112.889Z" fill="white"/>
<g opacity="0.25">
<path d="M8.1552 114.375C9.83964 131.346 20.682 135.405 35.431 133.944C35.431 133.944 42.4072 145.613 58.0086 156.648C71.2406 166.009 82.8339 157.394 86.0455 154.558C86.1216 153.695 86.0759 152.929 85.8983 152.305C84.5335 147.501 88.3844 144.086 88.3844 144.086L95.2846 145.146L95.8528 141.554C90.1602 141.97 93.2399 132.721 93.3413 132.417C77.5827 154.934 58.0036 141.767 37.9678 124.304C23.0006 131.28 10.3166 113.649 10.3166 113.649L8.1552 114.375Z" fill="#1E3A59"/>
</g>
<g opacity="0.25">
<path d="M88.5634 217.222L99.9689 198.044C82.6983 202.143 87.5639 184.173 91.496 177.186C95.428 170.2 96.9501 169.14 96.9501 169.14C96.9501 169.14 96.0622 174.406 110.522 176.689C124.982 178.972 125.616 172.666 125.616 172.666L114.074 171.869C106.215 170.758 114.637 166.532 114.637 166.532L126.6 166.613L130.948 159.013C117.432 161.25 105.322 158.662 95.6564 147.663L94.9258 153.731H86.9297C86.1687 161.468 87.4371 168.784 87.4371 168.784C72.3836 183.833 72.891 193.138 72.891 193.138C72.5358 203.239 79.0605 210.784 88.5634 217.222Z" fill="#1E3A59"/>
</g>
<path d="M95.1742 248.812C104.514 248.812 113.8 246.322 118.202 242.483C122.081 239.098 124.957 234.8 128.598 229.358C132.512 223.508 137.383 216.228 145.202 207.875C158.8 193.35 163.615 173.786 164.533 169.533C170.258 167.062 174.946 164.118 178.475 160.778C184.056 155.496 186.175 147.265 183.875 139.808C177.537 119.26 157.382 115.271 156.067 115.033C154.27 114.617 123.475 107.604 103.764 111.393C86.3531 114.742 72.8978 124.101 69.3636 126.744C48.0128 112.475 40.3023 110.475 39.9803 110.396C39.8452 110.362 39.7055 110.349 39.568 110.352L7.98468 111.367C7.5724 111.38 7.18303 111.56 6.90601 111.866C6.62878 112.171 6.48755 112.576 6.51465 112.988C7.04453 121.075 9.55141 127.075 13.9663 130.818C18.6272 134.771 25.3981 136.322 34.6445 135.544C36.5444 138.433 43.6326 148.344 57.1297 157.891C69.2672 166.476 80.2063 160.814 85.1875 157.171C85.0376 162.197 85.564 166.532 85.8134 168.257C71.581 182.717 71.3459 192.078 71.3684 193.133C71.0525 202.549 76.1512 210.559 87.3887 218.266L86.8439 219.832C80.8519 219.113 74.3362 222.4 71.238 227.864C68.5995 232.518 69.248 237.63 72.9732 241.54C77.8776 246.687 86.549 248.811 95.1742 248.812ZM155.52 118.027C156.332 118.16 175.018 121.422 180.966 140.704C182.927 147.064 181.128 154.075 176.383 158.567C172.97 161.797 168.338 164.647 162.615 167.04C162.143 167.237 161.801 167.659 161.706 168.162C161.665 168.383 157.372 190.42 142.98 205.795C134.991 214.329 130.043 221.723 126.068 227.665C122.552 232.919 119.775 237.07 116.201 240.188C112.578 243.348 104.548 245.587 96.2165 245.76C86.8554 245.95 79.1886 243.65 75.1773 239.44C71.3573 235.43 72.7287 231.407 73.8864 229.365C76.2118 225.264 81.9469 221.774 87.5235 223.033C88.2785 223.202 89.0421 222.78 89.2963 222.048L90.6492 218.158C90.8776 217.502 90.6322 216.775 90.0532 216.39C79.078 209.109 74.1082 201.737 74.4126 193.19C74.4143 193.145 74.4138 193.099 74.4114 193.053C74.4092 192.98 74.2741 184.097 88.512 169.859C88.8621 169.509 89.0199 169.011 88.9356 168.523C88.9233 168.452 87.7126 161.308 88.4431 153.88C88.5067 153.233 88.1533 152.618 87.5631 152.347C86.9725 152.076 86.2754 152.21 85.8275 152.68C85.3202 153.207 73.2035 165.53 58.8878 155.405C43.7648 144.709 36.8057 133.276 36.7371 133.162C36.4344 132.657 35.8655 132.373 35.2814 132.429C26.4182 133.307 20.09 132.02 15.9353 128.496C12.3988 125.497 10.3465 120.863 9.68343 114.358L39.4263 113.402C40.6816 113.792 48.9014 116.651 68.5754 129.879C69.1281 130.251 69.8584 130.219 70.3775 129.803C70.5234 129.686 85.1776 118.068 104.339 114.383C123.578 110.684 155.099 117.932 155.415 118.007C155.45 118.015 155.485 118.022 155.52 118.027Z" fill="#1E3A59"/>
<path d="M87.6215 223.052C93.0023 224.617 98.5198 226.312 103.097 229.66L104.258 230.517L105.356 231.463L105.912 231.942L106.425 232.463L107.476 233.514C107.158 232.881 106.766 232.158 106.421 231.526C105.727 230.48 104.988 229.453 104.132 228.51C100.68 224.753 96.1103 221.96 91.1813 220.614C90.1752 220.348 89.1563 220.134 88.0943 220.045C86.2108 219.915 85.7986 222.599 87.6215 223.052Z" fill="#1E3A59"/>
<path d="M113.439 181.762C110.272 183.008 107.69 185.228 105.433 187.7L108.45 188.587C107.811 185.758 106.761 182.968 104.772 180.79C104.33 183.618 104.538 186.44 104.983 189.229C105.17 190.607 107.01 191.174 107.947 190.17C110.3 187.753 112.38 185.023 113.439 181.762Z" fill="#1E3A59"/>
<path d="M90.6078 218.262C97.2117 202.992 108.306 188.85 108.417 188.709L106.027 186.823C105.914 186.967 94.5795 201.409 87.8138 217.055L90.6078 218.262Z" fill="#1E3A59"/>
<path d="M134.806 219.955C135.074 212.286 130.117 204.415 122.178 199.904C113.884 195.19 104.65 195.37 96.8441 200.397L98.4921 202.956C105.313 198.564 113.398 198.417 120.674 202.55C127.532 206.448 131.989 213.399 131.764 219.849L134.806 219.955Z" fill="#1E3A59"/>
<path d="M58.0094 158.171C58.2618 158.171 58.5178 158.108 58.7536 157.975C76.6971 147.893 70.9387 128.365 70.8785 128.169C70.6317 127.366 69.7796 126.913 68.9764 127.162C68.1735 127.409 67.7224 128.259 67.9681 129.062C68.1841 129.774 73.036 146.459 57.2622 155.322C56.5294 155.733 56.269 156.661 56.681 157.394C56.9603 157.891 57.477 158.171 58.0094 158.171Z" fill="#1E3A59"/>
<path d="M88.4468 153.63C88.7084 148.194 89.7848 142.846 91.7804 137.754C93.2763 133.851 95.2677 130.063 97.4508 126.5C98.2101 125.311 99.0092 124.144 99.7815 122.951C96.94 126.116 94.2462 129.516 92.0655 133.178C89.0713 138.113 86.6896 143.555 85.6493 149.279C85.3975 150.804 85.2744 152.267 85.4096 153.833C85.6563 155.758 88.4498 155.565 88.4468 153.63Z" fill="#1E3A59"/>
<path d="M129.501 125.319C95.316 125.319 67.6032 97.6061 67.6032 63.4207C67.6032 29.2353 95.316 1.52249 129.501 1.52249C163.687 1.52249 191.4 29.2353 191.4 63.4207C191.4 97.6061 163.687 125.319 129.501 125.319Z" fill="white"/>
<g opacity="0.25">
<path d="M68.4039 73.3838C73.168 102.831 98.7086 125.317 129.5 125.317C163.687 125.317 191.399 97.6053 191.399 63.4192C191.399 53.0487 188.847 43.2718 184.336 34.6822C184.864 37.9242 185.138 41.2525 185.138 44.6468C185.138 78.8329 157.426 106.545 123.24 106.545C99.4291 106.545 78.7592 93.0999 68.4039 73.3838Z" fill="#1E3A59"/>
</g>
<path d="M77.0001 96.2148C96.9635 129.432 159.623 121.315 172.053 90.3654L178.882 67.2379C173.829 23.1399 120.133 -9.90492 81.3919 24.4721C66.3792 47.5366 61.7143 71.25 77.0001 96.2148Z" fill="#0056A8"/>
<g opacity="0.7">
<path opacity="0.35" d="M67.6018 66.2699C67.8504 76.0722 70.7677 86.0368 76.9982 96.2145C96.9629 129.431 159.622 121.314 172.052 90.3646L178.882 67.239C178.445 63.4236 177.644 59.6895 176.517 56.077C167.202 78.462 145.117 94.2003 119.353 94.2003C97.7087 94.2002 78.6623 83.094 67.6018 66.2699Z" fill="#111A28"/>
</g>
<path d="M129.502 126.841C164.472 126.841 192.922 98.3901 192.922 63.4203C192.922 28.4504 164.472 0 129.502 0C94.5318 0 66.0815 28.4504 66.0815 63.4203C66.0815 98.3901 94.5318 126.841 129.502 126.841ZM129.502 3.04417C162.793 3.04417 189.878 30.1286 189.878 63.4203C189.878 96.712 162.793 123.796 129.502 123.796C96.2104 123.796 69.1257 96.712 69.1257 63.4203C69.1257 30.1286 96.2104 3.04417 129.502 3.04417Z" fill="#1E3A59"/>
<path d="M178.971 102.108C171.039 100.342 166.395 90.8907 168.598 80.9988C170.801 71.1068 179.017 64.5198 186.949 66.2865C194.881 68.0531 199.525 77.5042 197.322 87.3962C195.119 97.2882 186.903 103.875 178.971 102.108Z" fill="white"/>
<g opacity="0.25">
<path d="M178.973 102.101C186.903 103.871 195.117 97.2806 197.324 87.3921C198.207 83.4245 197.989 79.528 196.898 76.1642C194.199 85.1394 186.457 90.9183 178.973 89.2491C174.219 88.1937 170.647 84.3784 169.024 79.3656C168.861 79.8984 168.719 80.4411 168.597 80.9943C166.395 90.8828 171.038 100.335 178.973 102.101Z" fill="#1E3A59"/>
</g>
<path d="M181.599 103.915C184.946 103.915 188.289 102.679 191.248 100.306C194.983 97.3118 197.668 92.8426 198.809 87.7219C199.95 82.6007 199.415 77.4147 197.304 73.1179C195.137 68.7077 191.578 65.7522 187.282 64.7955C182.986 63.8397 178.51 65.0041 174.676 68.0775C170.941 71.0721 168.255 75.5418 167.115 80.662C165.974 85.7832 166.509 90.9693 168.62 95.266C170.787 99.6762 174.346 102.632 178.642 103.588C179.621 103.806 180.611 103.915 181.599 103.915ZM184.341 67.5166C185.105 67.5166 185.868 67.5993 186.621 67.7674C189.997 68.519 192.821 70.8963 194.572 74.4602C196.379 78.1376 196.828 82.6127 195.838 87.06C194.847 91.5074 192.541 95.3681 189.344 97.9312C186.245 100.415 182.68 101.371 179.304 100.617C175.927 99.8651 173.103 97.4878 171.352 93.9238C169.545 90.2465 169.095 85.7713 170.086 81.324C171.077 76.8767 173.383 73.0159 176.58 70.4529C178.987 68.5229 181.677 67.5166 184.341 67.5166Z" fill="#1E3A59"/>
<path d="M185.98 98.8079C188.37 98.8079 190.758 97.879 192.868 96.0987C195.431 93.9355 197.289 90.7412 198.099 87.1039C199.81 79.4192 196.258 72.0654 190.18 70.7112C184.103 69.3576 177.765 74.508 176.053 82.1938C175.243 85.8305 175.569 89.5113 176.972 92.558C178.45 95.7692 180.936 97.9101 183.972 98.5859C184.637 98.7346 185.308 98.8079 185.98 98.8079ZM188.175 74.0423C188.586 74.0423 188.998 74.0864 189.408 74.1775C193.574 75.106 195.918 80.5582 194.632 86.3319C193.99 89.2145 192.55 91.7197 190.577 93.3844C188.743 94.9328 186.671 95.5497 184.744 95.1195C182.816 94.69 181.202 93.253 180.198 91.0725C179.118 88.7275 178.877 85.8483 179.519 82.9656C180.679 77.7598 184.4 74.0423 188.175 74.0423Z" fill="#1E3A59"/>
<path d="M184.481 67.5226C184.55 67.5226 184.619 67.5182 184.689 67.5088C185.522 67.3953 186.105 66.6278 185.991 65.7949C183.182 45.1952 174.322 28.4685 160.369 17.4236C146.36 6.33444 128.092 1.67746 107.545 3.95765C106.709 4.0503 106.107 4.80241 106.199 5.63834C106.292 6.47366 107.048 7.07864 107.88 6.98305C147.989 2.53724 177.463 25.7807 182.975 66.2063C183.079 66.9692 183.732 67.5226 184.481 67.5226Z" fill="#1E3A59"/>
<g opacity="0.5">
<path d="M119.243 20.9595C95.5007 20.4508 81.6137 32.4671 76.0553 54.7733C75.5084 56.9683 78.3111 58.3768 79.752 56.6331C90.9296 43.1073 103.673 31.6355 119.967 25.0419C122.095 24.1806 121.538 21.0087 119.243 20.9595Z" fill="white"/>
</g>
<g opacity="0.5">
<path d="M155.944 69.817C151.671 69.817 148.207 65.3875 148.207 59.9235C148.207 54.4594 151.671 50.0299 155.944 50.0299C160.217 50.0299 163.681 54.4594 163.681 59.9235C163.681 65.3875 160.217 69.817 155.944 69.817Z" fill="white"/>
</g>
<g opacity="0.5">
<path d="M156.04 85.228C153.711 85.228 151.823 83.3398 151.823 81.0105C151.823 78.6813 153.711 76.793 156.04 76.793C158.369 76.793 160.258 78.6813 160.258 81.0105C160.258 83.3398 158.369 85.228 156.04 85.228Z" fill="white"/>
</g>
<path d="M89.5725 167.596L118.795 171.695C122.254 172.182 125.484 169.748 125.97 166.285L128.151 150.734C128.576 147.703 126.762 144.852 123.98 143.863C123.587 143.721 123.172 143.621 122.741 143.559L93.5226 139.46C90.0597 138.973 86.8298 141.407 86.3476 144.87L84.6174 157.186L84.1624 160.42C83.6758 163.884 86.1139 167.109 89.5725 167.596Z" fill="white"/>
<path d="M89.5725 167.596L118.795 171.695C122.254 172.182 125.484 169.748 125.97 166.285L128.151 150.734C128.576 147.703 126.762 144.852 123.98 143.863C123.587 143.721 123.172 143.621 122.741 143.559L93.5226 139.46C90.0597 138.973 86.8298 141.407 86.3476 144.87L84.6174 157.186L84.1624 160.42C83.6758 163.884 86.1139 167.109 89.5725 167.596Z" fill="white"/>
<path d="M89.5725 167.596L118.795 171.695C122.254 172.182 125.484 169.748 125.97 166.285L128.151 150.734C128.576 147.703 126.762 144.852 123.98 143.863C123.587 143.721 123.172 143.621 122.741 143.559L93.5226 139.46C90.0597 138.973 86.8298 141.407 86.3476 144.87L84.6174 157.186L84.1624 160.42C83.6758 163.884 86.1139 167.109 89.5725 167.596Z" fill="white"/>
<g opacity="0.3">
<path d="M89.5305 167.592L118.753 171.691C122.212 172.178 125.441 169.744 125.928 166.281L128.109 150.73C128.534 147.699 126.72 144.848 123.938 143.859C122.124 144.729 120.972 145.286 120.972 145.286C117.798 157.569 113.37 163.295 97.8338 161.373C91.1278 160.542 87.0475 158.929 84.5754 157.182L84.1204 160.417C83.6338 163.88 86.0719 167.105 89.5305 167.592Z" fill="#1E3A59"/>
</g>
<path d="M120.082 173.088C121.623 173.088 123.12 172.588 124.378 171.639C125.908 170.486 126.897 168.811 127.161 166.925L129.473 150.449C129.738 148.562 129.249 146.68 128.095 145.15C126.941 143.62 125.267 142.632 123.381 142.367L93.2371 138.138C91.3508 137.873 89.4688 138.362 87.939 139.516C86.409 140.669 85.4206 142.344 85.1559 144.23L82.8441 160.706C82.5793 162.593 83.0688 164.475 84.2223 166.005C85.3758 167.535 87.0499 168.523 88.9367 168.788L119.08 173.017C119.415 173.064 119.75 173.088 120.082 173.088ZM92.2406 140.605C92.4544 140.605 92.6694 140.62 92.8847 140.65L123.028 144.879C124.244 145.05 125.324 145.689 126.069 146.677C126.815 147.666 127.132 148.881 126.961 150.096L124.649 166.572C124.479 167.788 123.84 168.868 122.851 169.614C121.862 170.359 120.648 170.676 119.433 170.505H119.433L89.289 166.276C88.0736 166.105 86.9935 165.467 86.2481 164.478C85.5024 163.489 85.1858 162.274 85.3563 161.059L87.6681 144.583C87.8388 143.367 88.4772 142.287 89.4662 141.541C90.28 140.928 91.2466 140.605 92.2406 140.605Z" fill="#1E3A59"/>
<path d="M99.9247 168.938L99.9676 169.057L118.797 171.697C121.333 172.05 123.742 170.841 125.04 168.801C125.514 168.062 125.839 167.213 125.967 166.286L126.939 159.378L127.26 157.098L127.819 153.095L128.151 150.736C128.636 147.272 126.202 144.047 122.743 143.56L116.429 142.677C119.262 143.634 121.117 146.511 120.69 149.571L120.044 154.187L119.511 157.972L118.51 165.13C118.021 168.585 114.792 171.02 111.334 170.538L99.9247 168.938Z" fill="white"/>
<g opacity="0.3">
<path d="M96.9425 168.517L96.9855 168.636L118.798 171.697C121.333 172.05 123.743 170.841 125.04 168.8C125.515 168.062 125.84 167.213 125.968 166.286L126.94 159.377L127.261 157.097L127.82 153.094C126.578 152.742 124.874 152.681 123.698 154.424C122.068 156.839 120.847 155.787 120.045 154.187L119.511 157.971L118.51 165.129C118.022 168.584 114.792 171.02 111.334 170.537L96.9425 168.517Z" fill="#1E3A59"/>
</g>
<path d="M119.688 172.964C121.314 172.964 122.894 172.436 124.223 171.434C125.84 170.215 126.884 168.446 127.162 166.454L129.344 150.901C129.925 146.776 127.039 142.946 122.91 142.364L116.597 141.48L116.044 143.814C118.387 144.608 119.839 146.959 119.496 149.405L117.314 164.958C117.125 166.314 116.413 167.518 115.31 168.349C114.208 169.18 112.857 169.534 111.503 169.342L93.3114 166.9C93.1885 166.883 93.0634 166.866 92.9385 166.852L92.5082 166.792L92.5042 166.819C91.8363 166.794 91.2556 166.967 91.1407 167.823L90.9799 169.016L92.1794 169.179L118.629 172.889C118.983 172.939 119.337 172.964 119.688 172.964ZM120.672 144.484L122.575 144.75C125.387 145.147 127.354 147.755 126.958 150.566L124.776 166.12C124.587 167.475 123.875 168.679 122.772 169.51C121.67 170.341 120.318 170.695 118.965 170.503L116.849 170.206C118.416 168.99 119.427 167.249 119.7 165.292L121.882 149.74C122.148 147.844 121.68 145.986 120.672 144.484Z" fill="#1E3A59"/>
<path d="M108.057 155.858C107.98 156.434 108.164 161.189 108.164 161.189C108.164 161.189 109.636 161.387 111.443 161.63C113.701 161.933 115.846 159.842 116.234 156.958C116.621 154.074 115.105 151.49 112.848 151.187C111.324 150.982 109.568 150.746 109.568 150.746C109.568 150.746 108.183 154.921 108.057 155.858Z" fill="#22A7F0"/>
<path d="M108.057 155.858C107.98 156.434 108.164 161.189 108.164 161.189C108.164 161.189 109.636 161.387 111.443 161.63C113.701 161.933 115.846 159.842 116.234 156.958C116.621 154.074 115.105 151.49 112.848 151.187C111.324 150.982 109.568 150.746 109.568 150.746C109.568 150.746 108.183 154.921 108.057 155.858Z" fill="#0056A8"/>
<path d="M111.888 162.39C113.021 162.39 114.127 161.911 115.05 161.012C116.071 160.016 116.748 158.611 116.958 157.055C117.398 153.777 115.598 150.82 112.945 150.463L110.656 150.155C109.727 150.031 108.85 150.585 108.563 151.474C107.82 153.779 107.407 155.221 107.334 155.761C107.317 155.892 107.264 156.292 107.399 160.204C107.431 161.146 108.134 161.921 109.069 162.047L111.347 162.353C111.527 162.377 111.708 162.39 111.888 162.39ZM110.398 151.598C110.418 151.598 110.44 151.599 110.461 151.602L112.751 151.91C114.606 152.16 115.844 154.38 115.51 156.861C115.345 158.094 114.819 159.197 114.031 159.966C113.29 160.689 112.404 161.02 111.541 160.906L109.264 160.6C109.036 160.569 108.866 160.381 108.858 160.154C108.734 156.567 108.773 156.027 108.782 155.955C108.839 155.527 109.277 154.019 109.953 151.922C110.016 151.727 110.197 151.598 110.398 151.598Z" fill="#1E3A59"/>
<path d="M108.153 161.183C105.895 160.88 104.379 158.296 104.767 155.412C105.154 152.528 107.299 150.436 109.557 150.74C111.815 151.044 113.331 153.628 112.943 156.512C112.555 159.395 110.411 161.487 108.153 161.183Z" fill="#07C7FF"/>
<g opacity="0.7">
<path d="M112.955 156.518C112.926 156.736 112.888 156.945 112.839 157.151C112.713 154.804 111.33 152.886 109.404 152.627C107.313 152.345 105.325 154.116 104.73 156.665C104.706 156.26 104.723 155.841 104.78 155.417C105.168 152.532 107.311 150.443 109.57 150.745C111.829 151.048 113.343 153.634 112.955 156.518Z" fill="white"/>
</g>
<path d="M112.956 156.518C112.568 159.399 110.424 161.492 108.166 161.189C105.907 160.883 104.393 158.301 104.781 155.417C104.841 154.962 104.946 154.525 105.088 154.118C105.423 156.143 106.72 157.717 108.452 157.95C110.351 158.207 112.174 156.766 112.934 154.58C113.033 155.192 113.045 155.846 112.956 156.518Z" fill="#0056A8"/>
<path d="M108.609 161.98C109.75 161.98 110.864 161.499 111.793 160.593C112.818 159.593 113.499 158.181 113.709 156.619C114.152 153.324 112.34 150.351 109.67 149.992C106.998 149.63 104.467 152.021 104.024 155.316C103.814 156.879 104.098 158.42 104.823 159.656C105.584 160.952 106.735 161.765 108.063 161.943C108.245 161.968 108.427 161.98 108.609 161.98ZM109.129 151.478C109.241 151.478 109.354 151.485 109.467 151.5C111.306 151.747 112.532 153.953 112.2 156.416C112.036 157.643 111.513 158.739 110.73 159.503C109.996 160.219 109.121 160.549 108.266 160.435C107.411 160.32 106.654 159.77 106.136 158.886C105.582 157.942 105.368 156.746 105.533 155.519C105.844 153.208 107.417 151.478 109.129 151.478Z" fill="#1E3A59"/>
<path d="M98.6738 169.661C99.1262 169.661 99.5167 169.322 99.5701 168.862L100.488 160.97C100.736 158.834 99.9034 156.731 98.2596 155.345C97.0517 154.326 96.4584 152.783 96.6726 151.217L98.1905 140.121C98.2582 139.626 97.9121 139.171 97.4176 139.103C96.9256 139.039 96.4675 139.382 96.3999 139.876L94.8821 150.973C94.5836 153.155 95.4108 155.306 97.0944 156.726C98.2736 157.72 98.8712 159.229 98.6928 160.761L97.7752 168.653C97.7178 169.149 98.0727 169.597 98.5684 169.655C98.6038 169.659 98.6389 169.661 98.6738 169.661Z" fill="#1E3A59"/>
<path d="M129.39 155.306C129.39 155.306 124.057 154.747 123.275 159.267C122.492 163.788 127.942 165.316 127.942 165.316C127.942 165.316 147.019 169.557 160.966 166.14C166.911 162.197 161.56 156.65 161.56 156.65C161.56 156.65 145.073 158.839 129.39 155.306Z" fill="white"/>
<g opacity="0.3">
<path d="M127.945 165.315C127.945 165.315 147.021 169.556 160.965 166.14C163.613 164.383 164.021 162.307 163.657 160.547C163.236 161.074 162.669 161.588 161.927 162.08C147.982 165.497 128.903 161.256 128.903 161.256C128.903 161.256 124.973 160.153 124.27 157.056C123.798 157.606 123.439 158.329 123.277 159.268C122.494 163.787 127.945 165.315 127.945 165.315Z" fill="#1E3A59"/>
</g>
<path d="M148.188 168.497C152.549 168.497 157.079 168.137 161.207 167.125L161.378 167.083L161.526 166.986C163.463 165.7 164.549 164.108 164.752 162.252C165.116 158.918 162.405 156.065 162.29 155.946L161.934 155.577L161.426 155.644C161.263 155.666 144.928 157.767 129.612 154.316L129.495 154.297C127.326 154.072 123.021 154.779 122.274 159.094C121.532 163.384 125.478 165.679 127.668 166.293L127.722 166.306C128.278 166.43 137.742 168.496 148.188 168.497ZM160.548 165.197C147.258 168.381 129.05 164.518 128.192 164.332C127.802 164.216 123.675 162.899 124.274 159.44C124.853 156.092 128.707 156.272 129.233 156.311C143.288 159.463 158.127 158.058 161.142 157.721C161.732 158.462 162.937 160.222 162.733 162.04C162.601 163.223 161.866 164.284 160.548 165.197Z" fill="#1E3A59"/>
<path d="M126.6 172.478C126.6 172.823 126.61 173.168 126.631 173.518C127.645 191.149 146.418 192.798 154.028 188.612C155.337 187.891 156.428 187.115 157.316 186.293C160.117 183.711 160.989 180.667 160.73 177.465C160.599 175.76 160.142 174.005 159.482 172.249L162.785 170.337L168.072 167.267L168.234 167.176C168.234 167.176 168.229 167.085 168.214 166.912C168.199 166.795 168.184 166.643 168.163 166.46C168.153 166.359 168.138 166.252 168.123 166.136C168.031 165.39 167.864 164.279 167.575 162.939C167.529 162.711 167.473 162.478 167.418 162.239C167.352 161.95 167.275 161.651 167.199 161.341C167.103 160.981 167.007 160.611 166.895 160.235C166.707 159.581 166.489 158.896 166.246 158.201C166.185 158.023 166.119 157.851 166.058 157.673C165.992 157.495 165.926 157.323 165.855 157.14C165.784 156.968 165.718 156.785 165.642 156.608C165.571 156.43 165.495 156.247 165.419 156.07C165.342 155.897 165.266 155.72 165.19 155.547C165.109 155.37 165.028 155.192 164.947 155.02C164.865 154.842 164.779 154.67 164.693 154.492C164.607 154.314 164.52 154.142 164.429 153.964C164.338 153.792 164.247 153.619 164.15 153.442C164.054 153.264 163.957 153.092 163.856 152.914C163.759 152.742 163.658 152.569 163.551 152.397C163.45 152.224 163.343 152.052 163.232 151.879C163.115 151.686 162.988 151.493 162.856 151.301C162.755 151.148 162.658 151.001 162.552 150.859C162.116 150.23 161.639 149.611 161.126 149.023C161.004 148.881 160.883 148.739 160.751 148.602C160.593 148.424 160.431 148.246 160.259 148.074C160.152 147.962 160.04 147.851 159.929 147.744C159.848 147.658 159.766 147.577 159.68 147.506C159.533 147.358 159.381 147.221 159.229 147.085C159.071 146.943 158.909 146.8 158.742 146.664C156.59 144.857 153.957 143.431 150.73 142.696C150.73 142.696 149.883 143.142 148.503 143.98C148.386 144.05 148.27 144.122 148.148 144.198C147.904 144.345 147.646 144.507 147.377 144.68C146.575 145.187 145.662 145.786 144.678 146.476C144.566 146.552 144.449 146.633 144.333 146.714C144.216 146.796 144.094 146.882 143.972 146.973C143.516 147.303 143.044 147.648 142.562 148.008C141.126 149.089 139.609 150.317 138.102 151.676C137.93 151.828 137.762 151.981 137.595 152.138C136.971 152.716 136.347 153.315 135.733 153.939C135.601 154.076 135.464 154.213 135.327 154.355C134.596 155.121 133.881 155.918 133.196 156.74C132.744 157.283 132.308 157.836 131.887 158.404C131.791 158.531 131.694 158.663 131.603 158.795C131.41 159.053 131.227 159.317 131.045 159.581C130.953 159.718 130.862 159.85 130.776 159.982C130.197 160.854 129.665 161.752 129.183 162.671C129.071 162.884 128.965 163.097 128.858 163.31C128.721 163.594 128.584 163.883 128.457 164.173C128.361 164.386 128.269 164.599 128.183 164.817C127.98 165.304 127.798 165.791 127.635 166.288C127.554 166.532 127.478 166.78 127.402 167.029C127.402 167.029 127.402 167.034 127.402 167.039C127.255 167.536 127.128 168.039 127.021 168.551C126.981 168.739 126.945 168.927 126.91 169.109C126.905 169.119 126.905 169.13 126.905 169.145C126.879 169.267 126.859 169.388 126.839 169.51C126.798 169.769 126.763 170.032 126.732 170.291C126.707 170.489 126.686 170.687 126.671 170.885C126.651 171.093 126.636 171.301 126.626 171.514V171.57C126.621 171.651 126.615 171.732 126.61 171.818C126.605 172.036 126.6 172.255 126.6 172.478Z" fill="white"/>
<path d="M145.361 192.057C149.021 192.057 152.401 191.243 154.76 189.945C156.15 189.18 157.357 188.327 158.348 187.41C161.257 184.728 162.569 181.34 162.246 177.342C162.138 175.952 161.838 174.5 161.333 172.935L168.978 168.502C169.482 168.219 169.782 167.67 169.752 167.093C169.752 167.093 169.747 166.984 169.728 166.777C169.727 166.757 169.724 166.737 169.722 166.717C169.713 166.648 169.704 166.565 169.694 166.469L169.674 166.292C169.667 166.217 169.655 166.122 169.641 166.021L169.63 165.94C169.543 165.225 169.372 164.057 169.061 162.618C169.023 162.427 168.972 162.208 168.92 161.986L168.898 161.892C168.847 161.67 168.788 161.432 168.728 161.189L168.675 160.977C168.577 160.589 168.471 160.206 168.354 159.807C168.158 159.124 167.93 158.411 167.68 157.697C167.65 157.608 167.615 157.511 167.579 157.415L167.495 157.178C167.414 156.958 167.346 156.779 167.271 156.588L167.181 156.359C167.135 156.242 167.089 156.125 167.039 156.009C166.977 155.853 166.896 155.658 166.816 155.469L166.58 154.931C166.489 154.732 166.405 154.548 166.322 154.37C166.264 154.245 166.197 154.106 166.128 153.966L166.061 153.828C165.969 153.639 165.878 153.456 165.781 153.268C165.679 153.075 165.585 152.898 165.486 152.716C165.384 152.527 165.282 152.345 165.175 152.157C165.076 151.98 164.963 151.788 164.844 151.596C164.749 151.434 164.631 151.242 164.507 151.051C164.402 150.875 164.259 150.658 164.111 150.441L164.084 150.4C163.985 150.252 163.889 150.109 163.786 149.97C163.306 149.281 162.797 148.626 162.272 148.023C162.135 147.863 162.006 147.713 161.868 147.569C161.697 147.377 161.52 147.184 161.333 146.998C161.243 146.903 161.126 146.785 161.007 146.67C160.927 146.586 160.826 146.485 160.707 146.382C160.555 146.233 160.4 146.092 160.243 145.952C160.071 145.796 159.89 145.637 159.702 145.484C157.209 143.39 154.298 141.948 151.067 141.211C150.713 141.13 150.341 141.179 150.019 141.349C149.983 141.368 149.115 141.826 147.712 142.678L147.342 142.905C147.104 143.048 146.834 143.218 146.553 143.398C145.589 144.008 144.687 144.608 143.802 145.229L143.461 145.465C143.33 145.556 143.194 145.652 143.057 145.754C142.619 146.065 142.135 146.42 141.641 146.794C140.029 148.008 138.493 149.271 137.081 150.546C136.909 150.697 136.729 150.861 136.549 151.03C135.853 151.675 135.227 152.28 134.645 152.871L134.229 153.299C133.445 154.12 132.706 154.947 132.025 155.764C131.533 156.356 131.075 156.939 130.661 157.499C130.568 157.62 130.464 157.763 130.364 157.907C130.166 158.173 129.978 158.443 129.791 158.715L129.501 159.147C128.897 160.058 128.334 161.008 127.833 161.963C127.716 162.185 127.605 162.407 127.495 162.629C127.34 162.95 127.195 163.255 127.061 163.561C126.962 163.781 126.861 164.016 126.765 164.258C126.568 164.737 126.372 165.263 126.191 165.802C126.104 166.063 126.024 166.323 125.944 166.584C125.933 166.62 125.923 166.657 125.915 166.695C125.766 167.208 125.637 167.727 125.53 168.238C125.495 168.398 125.462 168.568 125.43 168.735L125.413 168.82H125.415C125.411 168.836 125.408 168.853 125.405 168.871C125.379 169 125.357 169.13 125.335 169.26C125.289 169.551 125.251 169.835 125.218 170.113C125.192 170.321 125.169 170.544 125.152 170.767C125.131 170.969 125.115 171.202 125.103 171.441C125.102 171.465 125.102 171.489 125.102 171.513L125.089 171.727C125.088 171.745 125.087 171.765 125.087 171.784C125.081 172.032 125.076 172.252 125.076 172.478C125.076 172.852 125.087 173.226 125.109 173.606C125.63 182.655 130.466 187.169 134.432 189.362C137.871 191.264 141.752 192.057 145.361 192.057ZM166.614 166.352L158.718 170.932C158.074 171.305 157.794 172.088 158.056 172.785C158.711 174.529 159.1 176.143 159.211 177.583C159.459 180.647 158.501 183.128 156.282 185.174C155.47 185.925 154.465 186.633 153.293 187.278C149.265 189.493 141.661 189.882 135.905 186.698C131.18 184.084 128.497 179.496 128.148 173.43C128.13 173.109 128.12 172.793 128.12 172.478C128.12 172.276 128.125 172.079 128.129 171.882L128.143 171.666C128.145 171.634 128.146 171.602 128.146 171.569V171.551C128.155 171.376 128.167 171.204 128.184 171.033C128.2 170.829 128.218 170.657 128.24 170.484C128.27 170.229 128.303 169.985 128.34 169.746C128.355 169.658 128.372 169.555 128.393 169.453C128.399 169.423 128.404 169.394 128.409 169.364L128.419 169.312C128.447 169.167 128.475 169.02 128.507 168.873C128.606 168.402 128.724 167.933 128.86 167.467C128.868 167.442 128.875 167.417 128.881 167.392C128.945 167.182 129.009 166.973 129.078 166.768C129.236 166.297 129.409 165.833 129.589 165.395C129.674 165.18 129.756 164.99 129.842 164.799C129.969 164.51 130.098 164.238 130.227 163.97C130.32 163.786 130.422 163.581 130.529 163.377C130.982 162.514 131.491 161.654 132.042 160.822L132.308 160.426C132.467 160.197 132.639 159.948 132.821 159.704C132.832 159.689 132.843 159.674 132.854 159.658C132.932 159.545 133.014 159.433 133.096 159.325C133.489 158.794 133.911 158.258 134.364 157.712C135.001 156.949 135.695 156.172 136.426 155.405L136.827 154.995C137.364 154.449 137.957 153.875 138.627 153.254C138.791 153.099 138.947 152.959 139.106 152.818C140.466 151.591 141.932 150.386 143.476 149.223C143.949 148.865 144.408 148.529 144.853 148.213C144.99 148.11 145.098 148.034 145.2 147.963L145.534 147.732C146.395 147.129 147.258 146.554 148.189 145.966C148.453 145.796 148.701 145.641 148.933 145.5L149.291 145.28C150.002 144.849 150.57 144.523 150.942 144.314C153.477 144.976 155.769 146.156 157.761 147.829C157.925 147.963 158.067 148.088 158.206 148.214C158.342 148.335 158.474 148.454 158.602 148.582C158.637 148.617 158.674 148.65 158.712 148.681C158.75 148.712 158.784 148.75 158.82 148.788C158.838 148.807 158.856 148.826 158.876 148.844C158.97 148.935 159.064 149.029 159.154 149.123C159.331 149.3 159.472 149.455 159.609 149.61C159.623 149.627 159.639 149.643 159.654 149.659C159.76 149.768 159.857 149.883 159.955 149.996C160.434 150.547 160.879 151.121 161.3 151.727C161.31 151.742 161.321 151.757 161.332 151.771C161.409 151.874 161.478 151.98 161.55 152.088L161.589 152.146C161.713 152.328 161.825 152.497 161.927 152.666C162.052 152.86 162.147 153.014 162.237 153.167C162.349 153.349 162.439 153.502 162.524 153.655C162.629 153.838 162.72 154.001 162.811 154.168C162.904 154.339 162.993 154.507 163.082 154.675C163.16 154.828 163.241 154.99 163.322 155.157L163.394 155.304C163.45 155.42 163.507 155.534 163.56 155.651C163.647 155.835 163.725 156.007 163.804 156.179L164.024 156.684C164.089 156.836 164.161 157.007 164.227 157.174C164.277 157.291 164.311 157.378 164.344 157.464C164.378 157.551 164.412 157.636 164.446 157.72C164.503 157.867 164.566 158.032 164.629 158.202L164.804 158.694C165.039 159.364 165.248 160.02 165.43 160.655C165.539 161.025 165.635 161.372 165.722 161.715L165.773 161.922C165.829 162.146 165.883 162.365 165.932 162.577L165.956 162.681C166.001 162.87 166.044 163.055 166.081 163.237C166.372 164.588 166.529 165.658 166.611 166.321L166.614 166.352Z" fill="#1E3A59"/>
<path d="M158.887 170.848L150.685 175.97L160.073 173.651C160.899 173.447 161.404 172.612 161.2 171.785C160.97 170.78 159.748 170.291 158.887 170.848Z" fill="#1E3A59"/>
<g opacity="0.25">
<path d="M126.6 172.478C126.6 172.823 126.61 173.168 126.631 173.518C127.645 191.149 146.418 192.798 154.028 188.612C155.337 187.891 156.428 187.115 157.316 186.293C160.117 183.711 160.989 180.666 160.73 177.465C160.599 175.76 160.142 174.005 159.482 172.249L162.785 170.337L168.072 167.267L168.234 167.176C168.234 167.176 168.229 167.084 168.214 166.912C168.199 166.795 168.184 166.643 168.163 166.46C168.153 166.359 168.138 166.252 168.123 166.136C168.031 165.39 167.864 164.279 167.575 162.939C167.529 162.711 167.473 162.478 167.418 162.239C167.352 161.95 167.275 161.651 167.199 161.341C167.103 160.981 167.007 160.611 166.895 160.235C166.707 159.581 166.489 158.896 166.246 158.201C166.185 158.023 166.119 157.85 166.058 157.673C165.992 157.495 165.926 157.323 165.855 157.14C165.784 156.968 165.718 156.785 165.642 156.607C165.571 156.43 165.495 156.247 165.419 156.07C165.419 156.07 151.928 165.4 147.417 175.04C147.417 175.04 149.878 176.192 153.886 174.614C153.993 174.568 154.104 174.522 154.216 174.477C147.427 195.081 120.837 175.04 131.887 158.404C131.791 158.53 131.694 158.662 131.603 158.794C131.41 159.053 131.227 159.317 131.045 159.581C130.953 159.718 130.862 159.85 130.776 159.982C130.197 160.854 129.665 161.752 129.183 162.671C129.071 162.884 128.965 163.097 128.858 163.31C128.721 163.594 128.584 163.883 128.457 164.172C128.361 164.385 128.269 164.598 128.183 164.817C127.98 165.304 127.798 165.791 127.635 166.288C127.554 166.532 127.478 166.78 127.402 167.029C127.402 167.029 127.402 167.034 127.402 167.039C127.255 167.536 127.128 168.038 127.021 168.551C126.981 168.739 126.945 168.926 126.91 169.109C126.905 169.119 126.905 169.129 126.905 169.144C126.879 169.266 126.859 169.388 126.839 169.51C126.798 169.768 126.763 170.032 126.732 170.291C126.707 170.489 126.686 170.687 126.671 170.885C126.651 171.093 126.636 171.301 126.626 171.514V171.57C126.621 171.651 126.615 171.732 126.61 171.818C126.605 172.036 126.6 172.254 126.6 172.478Z" fill="#1E3A59"/>
</g>
<path d="M151.424 144.049C155.418 141.505 159.53 139.066 163.962 137.326C160.399 137.888 156.897 138.956 153.471 140.106C152.32 140.498 151.19 140.897 150.033 141.342C149.244 141.645 148.85 142.531 149.153 143.32C149.488 144.224 150.627 144.587 151.424 144.049Z" fill="#1E3A59"/>
<path d="M139.583 250C145.134 250 150.138 246.598 152.153 243.316C154.73 239.115 155.795 225.257 154.117 217.749C152.322 209.723 143.584 207.578 143.213 207.491C142.395 207.297 141.575 207.805 141.383 208.623C141.19 209.44 141.696 210.258 142.512 210.452C142.584 210.47 149.772 212.268 151.146 218.413C152.72 225.456 151.526 238.517 149.558 241.723C147.599 244.915 141.672 248.396 136.076 246.333C130.707 244.356 130.319 238.944 130.305 238.714C130.275 238.222 130.008 237.768 129.59 237.507L123.605 233.778C122.892 233.332 121.953 233.551 121.508 234.264C121.063 234.978 121.282 235.917 121.995 236.361L127.361 239.705C127.689 241.754 129.096 247.006 135.024 249.19C136.551 249.753 138.087 250 139.583 250Z" fill="#1E3A59"/>
<path d="M130.308 238.775C129.835 233.771 129.575 228.638 130.614 223.666C129.062 227.206 128.31 231.099 127.729 234.921C127.542 236.215 127.38 237.486 127.265 238.823C127.192 239.665 127.815 240.407 128.657 240.48C129.61 240.574 130.431 239.722 130.308 238.775Z" fill="#371A45"/>
<path d="M155.652 202.176C158.046 202.177 160.239 201.498 162.211 200.141C173.337 192.485 172.91 165.404 172.886 164.256C172.869 163.415 172.178 162.744 171.333 162.765C170.493 162.782 169.826 163.478 169.842 164.318C169.848 164.583 170.266 190.906 160.484 197.634C157.775 199.497 154.541 199.623 150.596 198.02C149.817 197.704 148.929 198.078 148.613 198.857C148.296 199.636 148.671 200.524 149.45 200.841C151.642 201.731 153.713 202.176 155.652 202.176Z" fill="#1E3A59"/>
<g opacity="0.25">
<path d="M86.9275 153.731H86.0802C86.0802 153.731 86.0142 154.086 85.9128 154.669C85.9584 154.634 86.0041 154.593 86.0447 154.558C86.618 154.05 86.9275 153.731 86.9275 153.731Z" fill="#371A45"/>
</g>
<g opacity="0.25">
<path d="M74.078 240.49C83.652 250.541 109.253 248.268 117.204 241.338C125.149 234.402 129.208 222.733 144.094 206.837C148.686 201.936 152.257 196.401 155.007 191.099C155.053 190.297 155.083 189.881 155.083 189.881C155.083 189.881 148.194 192.291 141.725 190.261L128.442 180.951C128.442 180.951 129.025 181.799 129.7 183.265C131.278 186.679 133.358 193.453 129.7 200.652C124.474 210.936 114.073 228.73 114.073 228.73C114.073 228.73 108.366 241.125 85.9148 236.178C70.0851 232.692 77.0207 225.483 82.485 221.535C73.9309 223.291 66.9902 233.052 74.078 240.49Z" fill="#1E3A59"/>
</g>
<g opacity="0.25">
<path d="M123.11 235.264L128.787 238.8C128.787 238.8 129.127 245.396 135.55 247.76C141.979 250.13 148.574 246.238 150.857 242.519C151.999 240.667 152.841 236.365 153.201 231.631C142.313 236.522 135.383 234.412 138.305 214.903C138.346 214.645 138.386 214.386 138.427 214.122L128.782 226.349L125.322 231.793L123.11 235.264Z" fill="#1E3A59"/>
</g>
<g opacity="0.25">
<path d="M168.234 187.386C168.234 187.386 159.818 189.74 160.098 182.469L156.781 187.48L151.195 199.056C151.195 199.056 154.637 203.767 160.696 199.297C166.754 194.828 166.93 191.468 166.93 191.468" fill="#1E3A59"/>
</g>
<g opacity="0.25">
<path d="M155.083 121.006C126.601 137.326 89.3895 135.499 87.9443 119.146C88.7898 118.723 95.8239 115.359 95.8239 115.359C110.891 124.976 129.302 129.073 155.083 121.006Z" fill="#1E3A59"/>
</g>
<g opacity="0.25">
<path d="M165.418 156.07L167.843 166.283L168.071 167.267L168.234 167.176C168.234 167.176 168.229 167.085 168.213 166.912C168.198 166.796 168.183 166.643 168.163 166.461C168.152 166.359 168.137 166.253 168.122 166.136C172.166 164.02 175.185 161.798 177.427 159.672C182.668 154.715 184.545 147.151 182.419 140.255C181.501 137.272 180.283 134.659 178.873 132.366C179.999 149.393 165.418 156.07 165.418 156.07Z" fill="#1E3A59"/>
</g>
</svg>
