<svg width="289" height="245" viewBox="0 0 289 245" fill="none" xmlns="http://www.w3.org/2000/svg">
<g clip-path="url(#clip0_855_18)">
<path d="M2.35901 64.4821L2.3591 64.4818C6.17082 48.9291 21.6442 39.5023 36.8852 43.3661L36.8853 43.3662C52.1392 47.2323 61.4582 62.9606 57.6426 78.5209C53.8291 94.0716 38.3558 103.498 23.1099 99.6329C7.86142 95.7667 -1.45829 80.0403 2.35901 64.4821ZM37.2537 41.9124L37.2538 41.9121L37.2537 41.9124Z" fill="#F7931A" stroke="#1E3A59" stroke-width="3"/>
<path d="M43.2274 67.1547C43.8246 63.0963 40.7852 60.9146 36.6293 59.4591L37.9774 53.9615L34.6859 53.1275L33.3734 58.4803C32.5081 58.2611 31.6193 58.0542 30.7362 57.8493L32.0581 52.4613L28.7684 51.6273L27.4193 57.123C26.7031 56.9572 25.9999 56.7933 25.3174 56.6207L25.3212 56.6036L20.7818 55.4513L19.9062 59.0255C19.9062 59.0255 22.3484 59.5945 22.2968 59.6298C23.6299 59.9681 23.8709 60.865 23.8306 61.576L22.2949 67.839C22.3868 67.8629 22.5059 67.8972 22.6371 67.9505C22.5274 67.9229 22.4102 67.8924 22.2893 67.8628L20.1368 76.6364C19.9737 77.0481 19.5602 77.6657 18.6284 77.4313C18.6612 77.4799 16.2359 76.8241 16.2359 76.8241L14.6018 80.6547L18.8852 81.7404C19.6821 81.9434 20.4631 82.1559 21.2318 82.3561L19.8696 87.9166L23.1574 88.7506L24.5065 83.2491C25.4046 83.497 26.2765 83.7257 27.1296 83.9411L25.7852 89.4168L29.0768 90.2508L30.439 84.7008C36.0518 85.7806 40.2724 85.3451 42.049 80.1839C43.4806 76.0283 41.9777 73.6312 39.0246 72.068C41.1752 71.5638 42.7952 70.1256 43.2274 67.1547ZM35.7068 77.8764C34.6896 82.032 27.8074 79.7855 25.5762 79.2222L27.3837 71.8555C29.6149 72.4216 36.7699 73.5425 35.7068 77.8764ZM36.7249 67.0946C35.7968 70.8747 30.0687 68.9542 28.2106 68.4833L29.8493 61.8019C31.7074 62.2728 37.6915 63.1516 36.7249 67.0946Z" fill="white"/>
</g>
<path d="M286.785 72.5C286.785 88.1215 274.121 100.785 258.5 100.785C242.879 100.785 230.215 88.1215 230.215 72.5C230.215 56.8785 242.879 44.2148 258.5 44.2148C274.121 44.2148 286.785 56.8785 286.785 72.5Z" fill="url(#paint0_linear_855_18)" stroke="#1E3A59" stroke-width="3"/>
<path d="M258.488 89.4212H247.29C245.821 89.4212 244.545 88.6311 243.943 87.353C243.341 86.0749 243.558 84.6109 244.497 83.542L253.744 73.201C253.744 73.201 253.744 73.1545 253.744 73.1313L244.497 62.7903C243.533 61.7214 243.317 60.2574 243.943 58.9793C244.569 57.7012 245.845 56.9111 247.29 56.9111H258.488L261.835 58.6307L258.488 60.4201H247.266C247.266 60.4201 247.242 60.4665 247.242 60.4898C247.242 60.4898 247.242 60.4898 247.242 60.513L256.489 70.854C257.669 72.1785 257.669 74.177 256.489 75.5016L247.242 85.8425C247.242 85.8425 247.242 85.8425 247.242 85.8658C247.242 85.8658 247.242 85.9355 247.266 85.9355C247.266 85.9355 247.266 85.9355 247.29 85.9355H258.488V89.4444V89.4212Z" fill="white"/>
<path d="M263.256 73.201C263.256 73.201 263.256 73.1545 263.256 73.1313L272.503 62.7903C273.467 61.7214 273.683 60.2574 273.057 58.9793C272.431 57.7012 271.155 56.9111 269.71 56.9111H258.512L261.859 58.6307L258.512 60.3968H269.734C269.734 60.3968 269.758 60.4433 269.758 60.4665C269.758 60.4665 269.758 60.4665 269.758 60.4898L260.511 70.8307C259.331 72.1553 259.331 74.1538 260.511 75.4783L269.758 85.8193C269.758 85.8193 269.758 85.8193 269.758 85.8425C269.758 85.8425 269.758 85.9123 269.734 85.9123C269.734 85.9123 269.734 85.9123 269.71 85.9123H258.488L255.117 87.7248L258.488 89.398H269.686C271.155 89.398 272.431 88.6079 273.033 87.3298C273.635 86.0517 273.418 84.5877 272.479 83.5187L263.232 73.1778L263.256 73.201Z" fill="white"/>
<path d="M199.227 202.929H92.6172L94.4422 119.77C94.4422 112.757 100.128 107.071 107.141 107.071H188.353C195.367 107.071 201.052 112.757 201.052 119.77L199.227 202.929Z" fill="white"/>
<path d="M200.65 204.383H91.1309L92.9888 119.738C92.9883 111.967 99.337 105.618 107.141 105.618H188.353C196.157 105.618 202.506 111.967 202.506 119.771L200.65 204.383ZM94.1036 201.476H197.805L199.599 119.738C199.598 113.57 194.554 108.525 188.353 108.525H107.141C100.941 108.525 95.8961 113.57 95.8961 119.771L94.1036 201.476Z" fill="#1E3A59"/>
<path d="M192.125 169.197V188.282C224.569 195.66 235.423 232.693 174.514 240.294C163.253 243.479 152.801 244.309 144.629 238.469C141.395 241.161 137.393 242.425 132.813 242.603C129.172 242.749 125.581 241.846 122.301 240.258C117.907 238.127 112.802 236.859 107.176 236.193C101.268 235.495 95.5326 233.638 90.5139 230.444C66.1867 214.954 76.1466 187.11 101.696 189.806V169.882C88.4607 179.44 75.7862 179.125 63.8735 165.242L82.7303 141.444C87.7946 130.535 95.1722 122.738 104.516 117.582C110.155 114.466 116.506 112.312 123.491 111.017L174.4 107.805C179.049 109.671 183.515 111.774 187.672 114.26C196.852 119.735 204.562 127.067 209.567 137.794L233.598 158.781C224.706 173.486 211.141 177.551 192.125 169.197Z" fill="white"/>
<g opacity="0.2">
<path d="M187.672 114.26C176.736 125.416 161.355 132.36 144.324 132.36C129.058 132.36 115.115 126.775 104.516 117.582C110.155 114.466 116.506 112.312 123.491 111.017L174.4 107.805C179.049 109.671 183.515 111.774 187.672 114.26Z" fill="#1E3A59"/>
</g>
<g opacity="0.2">
<path d="M191.811 172.418L191.136 165.443C190.895 162.95 188.8 161.049 186.296 161.049H180.218V158.007C180.218 153.051 176.202 149.034 171.247 149.034H121.37C116.415 149.034 112.399 153.051 112.399 158.007V161.049H106.929C104.425 161.049 102.33 162.95 102.089 165.443L101.414 172.418C101.27 173.905 102.439 175.192 103.933 175.192H112.399V183.101C112.399 188.056 116.415 192.073 121.37 192.073H171.247C176.202 192.073 180.218 188.056 180.218 183.101V175.192H189.292C190.786 175.192 191.955 173.905 191.811 172.418Z" fill="#1E3A59"/>
</g>
<path d="M159.153 244.247C153.484 244.247 148.779 242.929 144.687 240.269C141.501 242.601 137.531 243.875 132.869 244.058C129.16 244.203 125.384 243.366 121.667 241.566C117.635 239.612 112.839 238.327 107.004 237.637C100.565 236.873 94.7537 234.866 89.7336 231.67C77.9095 224.142 72.611 212.572 76.2351 202.195C79.4693 192.936 88.7961 187.566 100.241 188.227V172.63C94.7469 176.144 89.4279 177.9 84.3072 177.901C76.6672 177.902 69.4671 173.995 62.7703 166.19L61.9893 165.28L81.4858 140.673C89.4113 123.716 103.454 113.259 123.227 109.588L123.401 109.567L174.636 106.332L174.941 106.454C193.204 113.786 204.263 123.183 210.755 136.898L235.474 158.487L234.842 159.532C228.638 169.791 220.286 174.935 209.904 174.936C204.925 174.936 199.481 173.754 193.581 171.387V187.137C209.418 191.128 220.384 202.23 219.806 213.857C219.482 220.372 215.607 226.309 208.599 231.029C200.784 236.291 189.414 239.89 174.803 241.725C168.849 243.403 163.693 244.247 159.153 244.247ZM144.562 236.635L145.475 237.288C152.21 242.099 161.043 242.595 174.118 238.897L174.334 238.853C200.367 235.603 216.281 226.205 216.902 213.713C217.423 203.224 206.868 193.126 191.805 189.701L190.673 189.444V166.972L192.712 167.867C210.19 175.547 222.96 172.668 231.71 159.061L208.381 138.686L208.251 138.407C202.149 125.336 191.629 116.343 174.162 109.275L123.672 112.463C104.6 116.026 91.6377 125.706 84.0508 142.054L83.9781 142.21L83.8716 142.345L65.767 165.195C76.3547 176.954 87.8384 178.097 100.843 168.703L103.149 167.038V191.42L101.542 191.25C90.7594 190.114 81.9031 194.786 78.9808 203.154C75.8178 212.21 80.6516 222.44 91.2954 229.217C95.9439 232.176 101.344 234.037 107.347 234.748C113.508 235.478 118.607 236.852 122.935 238.948C126.217 240.538 129.52 241.279 132.755 241.152C137.26 240.975 140.84 239.732 143.7 237.353L144.562 236.635Z" fill="#1E3A59"/>
<path d="M103.111 139.617L103.973 169.988C104.009 171.251 103.015 172.304 101.751 172.34C100.366 172.392 99.2374 171.148 99.4158 169.775L103.111 139.617Z" fill="#1E3A59"/>
<path d="M186.324 136.88C190.823 147.038 193.42 158.047 194.408 169.149C194.522 170.407 193.596 171.519 192.338 171.634C191.081 171.749 189.968 170.823 189.853 169.565C190.066 164.058 190.027 158.523 189.426 152.997C188.86 147.58 187.831 142.181 186.324 136.88Z" fill="#1E3A59"/>
<path d="M192.127 196.192C189.109 197.423 185.952 198.013 182.784 198.631C179.696 199.267 176.645 200.042 173.644 200.983C167.613 202.877 161.837 205.372 156.13 208.109C156.127 208.111 155.309 208.522 155.305 208.524C153.122 206.958 150.787 205.537 148.333 204.537C143.03 202.246 135.618 202.012 134.326 208.896C133.351 214.207 135.728 220.3 138.056 225.066C140.231 229.446 142.896 233.619 145.804 237.617C146.276 238.265 146.133 239.173 145.485 239.645C144.836 240.118 143.927 239.974 143.455 239.325C140.479 235.231 137.73 230.94 135.452 226.352C132.83 220.949 130.567 214.986 131.368 208.832C132.954 199.538 142.119 198.695 149.431 201.848C151.873 202.852 154.14 204.166 156.264 205.651L154.728 205.565C157.495 203.834 160.401 202.312 163.403 200.996C170.82 197.736 184.306 193.692 192.127 196.192Z" fill="#1E3A59"/>
<path d="M100.374 200.146C103.626 198.549 107.517 199.66 110.228 201.861L109.556 201.475L133.184 207.54C135.019 208.066 134.35 210.777 132.461 210.357L108.833 204.292L108.428 204.188C108.427 204.184 108.159 203.907 108.157 203.903C106.46 201.347 103.513 199.63 100.374 200.146Z" fill="#1E3A59"/>
<path d="M156.865 207.055C155.545 212.265 156.044 217.854 157.861 222.959C156.506 220.548 155.418 217.945 154.739 215.187C154.055 212.427 153.793 209.516 153.991 206.605C154.222 204.521 157.281 204.995 156.865 207.055Z" fill="#1E3A59"/>
<path d="M101.693 236.644C101.009 236.644 100.399 236.16 100.267 235.463C97.9265 223.213 100.464 212.274 108.024 202.02C108.5 201.375 109.41 201.236 110.057 201.713C110.703 202.19 110.841 203.1 110.364 203.747C103.312 213.311 100.943 223.507 103.123 234.918C103.273 235.706 102.756 236.468 101.967 236.618C101.875 236.636 101.783 236.644 101.693 236.644Z" fill="#1E3A59"/>
<path d="M190.597 238.667C190.586 238.667 190.575 238.667 190.563 238.667C189.761 238.649 189.124 237.983 189.143 237.18C189.544 219.646 185.466 207.223 176.677 199.202C176.084 198.661 176.042 197.741 176.583 197.148C177.123 196.555 178.044 196.512 178.637 197.054C188.084 205.675 192.472 218.823 192.05 237.247C192.032 238.038 191.385 238.667 190.597 238.667Z" fill="#1E3A59"/>
<g opacity="0.2">
<path d="M107.193 201.225C132.458 200.485 161.67 199.62 184.14 196.91C171.709 197.894 162.044 200.713 156.492 206.264C146.063 200.584 136.737 197.759 132.823 208.949L107.193 201.225Z" fill="#1E3A59"/>
</g>
<g opacity="0.2">
<path d="M229.085 154.84C220.334 164.406 208.17 166.199 192.125 159.15V169.197C211.141 177.551 224.705 173.486 233.598 158.781L229.085 154.84Z" fill="#1E3A59"/>
</g>
<g opacity="0.2">
<path d="M101.696 169.882V159.834C90.0794 168.224 78.8948 169.004 68.2782 159.683L63.8735 165.242C75.7862 179.125 88.4607 179.44 101.696 169.882Z" fill="#1E3A59"/>
</g>
<g opacity="0.2">
<path d="M174.514 230.247C163.253 233.432 152.801 234.262 144.629 228.422C138.78 220.895 136.791 212.213 136.814 202.929C131.734 210.776 131.485 219.885 139.785 231.227C137.655 232.032 135.321 232.458 132.813 232.556C129.172 232.702 125.581 231.798 122.301 230.211C117.907 228.08 112.802 226.812 107.176 226.145C101.268 225.447 95.5326 223.59 90.5139 220.397C83.0238 215.628 78.7884 209.687 77.2531 203.828C74.9112 212.303 78.5958 222.856 90.5139 230.444C95.5326 233.638 101.268 235.495 107.176 236.193C112.802 236.859 117.907 238.127 122.301 240.258C125.581 241.846 129.172 242.749 132.813 242.603C137.393 242.425 141.395 241.161 144.629 238.469C152.801 244.309 163.253 243.479 174.514 240.294C210.757 235.772 221.59 220.828 217.586 207.912C214.431 217.71 201.535 226.875 174.514 230.247Z" fill="#1E3A59"/>
</g>
<path d="M209.417 137.716C211.542 149.596 219.862 156.088 231.545 159.654L240.143 147.118C242.579 143.566 245.842 140.674 249.615 138.596C261.716 131.931 264.691 122.857 257.613 117.369C255.676 115.868 253.198 115.263 250.771 115.609C245.766 116.321 241.388 116.319 238.159 115.008C236.56 114.359 235.385 112.941 234.98 111.264C231.996 98.9 224.217 100.933 223.208 112.77C223.096 114.081 222.668 115.354 221.899 116.422C218.934 120.539 217.052 124.765 216.548 129.111C216.379 130.576 215.697 131.933 214.613 132.932L209.417 137.716Z" fill="white"/>
<g opacity="0.2">
<path d="M258.522 118.155C257.086 121.879 253.347 125.731 247.401 129.002C243.661 131.06 240.417 133.912 238.002 137.432L232.148 145.969C230.436 148.465 227.202 149.453 224.413 148.277C218.308 145.703 213.45 142.044 210.375 136.834L209.417 137.716C211.542 149.596 219.862 156.088 231.545 159.654L240.143 147.118C242.586 143.555 245.866 140.665 249.649 138.577C261.163 132.222 264.384 123.687 258.522 118.155Z" fill="#1E3A59"/>
</g>
<path d="M233.053 162.268L232.033 161.957C218.504 157.828 210.936 150.28 208.898 138.885L208.758 138.099L214.54 132.775C215.362 132.018 215.886 130.982 216.017 129.857C216.528 125.448 218.417 120.949 221.631 116.485C222.218 115.67 222.578 114.658 222.672 113.559C223.228 107.03 225.894 102.636 229.465 102.365C232.879 102.102 235.812 105.646 237.306 111.836C237.607 113.085 238.472 114.108 239.618 114.573C242.315 115.667 246.194 115.833 251.478 115.082C254.32 114.677 257.212 115.425 259.416 117.133C262.506 119.528 263.997 122.609 263.728 126.044C263.321 131.259 258.764 136.632 251.228 140.782C247.612 142.774 244.509 145.565 242.254 148.853L233.053 162.268ZM211.911 139.149C213.887 148.658 220.428 155.118 231.868 158.855L239.856 147.208C242.366 143.548 245.813 140.445 249.826 138.235C256.489 134.565 260.499 130.039 260.83 125.817C261.021 123.371 259.946 121.222 257.635 119.431C256.049 118.202 253.956 117.666 251.888 117.961C246.082 118.788 241.711 118.56 238.524 117.267C236.512 116.451 235 114.675 234.479 112.518C233.232 107.35 231.162 105.147 229.685 105.264C227.991 105.393 226.033 108.368 225.569 113.806C225.431 115.429 224.885 116.942 223.991 118.184C221.07 122.241 219.358 126.281 218.905 130.191C218.694 132.008 217.844 133.685 216.51 134.913L211.911 139.149Z" fill="#1E3A59"/>
<path d="M239.301 126.472C239.147 126.472 238.99 126.447 238.836 126.395C238.075 126.137 237.666 125.312 237.924 124.552C238.796 121.973 236.748 117.744 234.63 113.947C234.239 113.246 234.49 112.36 235.191 111.969C235.894 111.579 236.779 111.829 237.17 112.531C239.72 117.103 241.911 121.838 240.678 125.483C240.474 126.089 239.908 126.472 239.301 126.472Z" fill="#1E3A59"/>
<path d="M233.294 129.123C234.601 122.457 243.085 122.594 246.373 127.679C243.912 127.496 241.72 126.828 239.428 126.864C237.111 126.863 235.395 127.864 233.294 129.123Z" fill="#1E3A59"/>
<path d="M84.1864 139.719C83.0048 151.729 75.2226 158.857 63.857 163.333L54.2978 151.514C51.5893 148.165 48.108 145.539 44.1833 143.766C31.5941 138.075 27.9124 129.264 34.5362 123.236C36.349 121.586 38.7716 120.788 41.218 120.941C46.2638 121.256 50.6276 120.909 53.7438 119.347C55.2861 118.575 56.3458 117.069 56.617 115.365C58.617 102.804 66.5318 104.217 68.4713 115.938C68.6862 117.236 69.2134 118.471 70.0642 119.475C73.3451 123.346 75.5539 127.41 76.3987 131.703C76.6834 133.15 77.4697 134.448 78.6296 135.359L84.1864 139.719Z" fill="white"/>
<g opacity="0.2">
<path d="M33.6915 124.09C35.4168 127.69 39.4485 131.235 45.633 134.027C49.5238 135.784 52.9829 138.371 55.6675 141.69L62.1768 149.738C64.0803 152.091 67.3825 152.821 70.0701 151.429C75.9533 148.382 80.5073 144.351 83.1621 138.915L84.1863 139.719C83.0048 151.729 75.2226 158.857 63.857 163.333L54.2978 151.514C51.5808 148.155 48.0833 145.532 44.1479 143.749C32.168 138.322 28.2844 130.067 33.6915 124.09Z" fill="#1E3A59"/>
</g>
<path d="M62.5596 166.058L52.3297 153.41C49.823 150.31 46.5094 147.773 42.7471 146.072C34.9067 142.528 29.9414 137.532 29.1234 132.365C28.5852 128.962 29.8286 125.773 32.7199 123.142C34.7819 121.265 37.608 120.296 40.4712 120.471C45.7992 120.805 49.6532 120.332 52.2548 119.029C53.3606 118.475 54.1417 117.387 54.3431 116.118C55.3448 109.829 57.9877 106.069 61.4131 106.058C61.4181 106.058 61.4225 106.058 61.4274 106.058C65.0016 106.058 67.9997 110.226 69.0677 116.682C69.2482 117.77 69.6866 118.75 70.3357 119.516C73.8922 123.712 76.1301 128.048 76.9879 132.404C77.2066 133.515 77.8109 134.507 78.6894 135.196L84.8737 140.049L84.7953 140.843C83.6623 152.364 76.7134 160.484 63.5521 165.667L62.5596 166.058ZM39.7948 123.358C37.8847 123.358 36.0428 124.05 34.6767 125.292C32.5145 127.261 31.6122 129.487 31.9954 131.91C32.6575 136.093 37.0127 140.289 43.9447 143.422C48.1186 145.309 51.7998 148.13 54.5903 151.581L63.472 162.563C74.581 157.934 80.5924 150.979 81.8133 141.344L76.8948 137.484C75.4681 136.365 74.4879 134.76 74.1346 132.965C73.3741 129.102 71.3494 125.209 68.1174 121.396C67.1287 120.229 66.4653 118.764 66.1993 117.157C65.309 111.778 63.1253 108.966 61.4269 108.966C61.4251 108.966 61.4238 108.966 61.422 108.966C59.9302 108.971 58.051 111.325 57.215 116.575C56.8662 118.767 55.4992 120.656 53.5575 121.629C50.4835 123.169 46.1448 123.741 40.2893 123.374C40.1246 123.363 39.9593 123.358 39.7948 123.358Z" fill="#1E3A59"/>
<path d="M53.3932 130.834C52.8291 130.834 52.2923 130.504 52.0561 129.953C50.5399 126.416 52.3502 121.524 54.5329 116.764C54.8675 116.034 55.7305 115.714 56.4603 116.048C57.1902 116.383 57.5105 117.246 57.1759 117.976C55.3639 121.928 53.6561 126.305 54.7285 128.807C55.0449 129.545 54.7032 130.4 53.9653 130.716C53.7785 130.796 53.5843 130.834 53.3932 130.834Z" fill="#1E3A59"/>
<path d="M59.7061 133.035C57.5132 131.946 55.7224 131.083 53.4126 131.267C51.1235 131.412 48.9945 132.25 46.5537 132.626C49.433 127.295 57.8798 126.496 59.7061 133.035Z" fill="#1E3A59"/>
<path d="M112.692 169.882H104.225C102.731 169.882 101.562 168.594 101.706 167.107L102.381 160.132C102.622 157.64 104.717 155.738 107.221 155.738H112.692V169.882Z" fill="white"/>
<g opacity="0.2">
<path d="M102.092 163.119L101.706 167.107C101.562 168.594 102.731 169.882 104.225 169.882H112.692V164.293H104.225C103.322 164.293 102.539 163.82 102.092 163.119Z" fill="#1E3A59"/>
</g>
<path d="M180.521 169.882H189.596C191.09 169.882 192.259 168.594 192.115 167.107L191.44 160.132C191.199 157.64 189.104 155.738 186.6 155.738H180.521V169.882Z" fill="white"/>
<g opacity="0.2">
<path d="M191.729 163.119C191.282 163.82 190.499 164.293 189.596 164.293H180.521V169.882H189.596C191.09 169.882 192.259 168.594 192.115 167.107L191.729 163.119Z" fill="#1E3A59"/>
</g>
<path d="M112.692 152.696V177.79C112.692 182.746 116.709 186.763 121.665 186.763H171.548C176.503 186.763 180.521 182.746 180.521 177.79V152.696C180.521 147.741 176.503 143.724 171.548 143.724H121.665C116.709 143.723 112.692 147.741 112.692 152.696Z" fill="white"/>
<g opacity="0.2">
<path d="M162.271 169.199C166.974 169.199 170.787 165.785 170.787 161.574C170.787 157.363 166.974 153.95 162.271 153.95C157.567 153.95 153.754 157.363 153.754 161.574C153.754 165.785 157.567 169.199 162.271 169.199Z" fill="black"/>
</g>
<path d="M169.637 159.926C170.269 156.029 167.623 152.358 163.726 151.725C159.83 151.093 156.158 153.739 155.526 157.636C154.893 161.533 157.54 165.204 161.436 165.837C165.333 166.469 169.005 163.823 169.637 159.926Z" fill="#00AAFF"/>
<path d="M169.637 159.926C170.269 156.029 167.623 152.358 163.726 151.725C159.83 151.093 156.158 153.739 155.526 157.636C154.893 161.533 157.54 165.204 161.436 165.837C165.333 166.469 169.005 163.823 169.637 159.926Z" fill="#00AAFF"/>
<g opacity="0.2">
<path d="M162.575 162.81C159.163 162.81 156.315 160.418 155.603 157.221C155.491 157.723 155.427 158.244 155.427 158.78C155.427 162.727 158.627 165.927 162.575 165.927C166.522 165.927 169.723 162.727 169.723 158.78C169.723 158.244 169.659 157.723 169.547 157.221C168.835 160.418 165.986 162.81 162.575 162.81Z" fill="black"/>
</g>
<g opacity="0.2">
<path d="M171.548 174.672H121.665C116.709 174.672 112.692 170.655 112.692 165.699V177.79C112.692 182.746 116.709 186.763 121.665 186.763H171.548C176.503 186.763 180.521 182.746 180.521 177.79V165.699C180.521 170.655 176.503 174.672 171.548 174.672Z" fill="#1E3A59"/>
</g>
<path d="M171.548 188.217H121.665C115.915 188.217 111.238 183.539 111.238 177.79V152.696C111.238 146.947 115.915 142.27 121.665 142.27H171.548C177.297 142.27 181.975 146.947 181.975 152.696V177.79C181.975 183.539 177.297 188.217 171.548 188.217ZM121.665 145.177C117.519 145.177 114.146 148.55 114.146 152.696V177.79C114.146 181.936 117.519 185.309 121.665 185.309H171.548C175.694 185.309 179.067 181.936 179.067 177.79V152.696C179.067 148.55 175.694 145.177 171.548 145.177H121.665Z" fill="#1E3A59"/>
<path d="M153.754 188.132C152.998 188.132 152.386 187.519 152.386 186.763V171.329L132.948 164.947C132.386 164.762 132.006 164.237 132.006 163.646V143.724C132.006 142.967 132.619 142.355 133.375 142.355C134.131 142.355 134.744 142.967 134.744 143.724V162.655L154.181 169.037C154.743 169.222 155.123 169.747 155.123 170.338V186.763C155.123 187.519 154.51 188.132 153.754 188.132Z" fill="#1E3A59"/>
<path d="M162.575 167.296C157.879 167.296 154.059 163.475 154.059 158.78C154.059 154.084 157.879 150.263 162.575 150.263C167.271 150.263 171.092 154.084 171.092 158.78C171.092 163.475 167.271 167.296 162.575 167.296ZM162.575 153C159.388 153 156.796 155.593 156.796 158.78C156.796 161.966 159.388 164.559 162.575 164.559C165.762 164.559 168.354 161.966 168.354 158.78C168.354 155.593 165.762 153 162.575 153Z" fill="#1E3A59"/>
<path d="M114.146 171.335H104.225C103.104 171.335 102.028 170.86 101.275 170.03C100.522 169.199 100.151 168.083 100.259 166.967L100.934 159.992C101.249 156.738 103.952 154.284 107.221 154.284H114.146L114.146 171.335ZM107.221 157.192C105.457 157.192 103.998 158.516 103.828 160.272L103.154 167.247C103.124 167.553 103.221 167.847 103.428 168.075C103.635 168.303 103.918 168.428 104.225 168.428H111.238V157.192H107.221Z" fill="#1E3A59"/>
<path d="M189.596 171.335H179.067V154.284H186.6C189.869 154.284 192.572 156.738 192.887 159.993L193.562 166.967C193.67 168.083 193.299 169.2 192.546 170.03C191.793 170.86 190.717 171.335 189.596 171.335ZM181.975 168.428H189.596C189.904 168.428 190.187 168.303 190.393 168.075C190.6 167.847 190.697 167.553 190.668 167.247L189.993 160.272C189.823 158.516 188.364 157.192 186.6 157.192H181.975V168.428Z" fill="#1E3A59"/>
<g opacity="0.7">
<path d="M162.575 157.477C163.919 157.477 165.008 156.699 165.008 155.738C165.008 154.777 163.919 153.999 162.575 153.999C161.231 153.999 160.142 154.777 160.142 155.738C160.142 156.699 161.231 157.477 162.575 157.477Z" fill="white"/>
</g>
<path d="M201.501 46.0851C201.501 46.0851 214.735 51.1024 216.095 53.5525C218.617 58.0946 218.148 84.7918 211.173 91.7522C208.442 94.4776 188.374 97.0244 188.374 97.0244L201.501 46.0851Z" fill="white"/>
<g opacity="0.2">
<path d="M188.374 97.0251C188.374 97.0251 208.442 94.4771 211.172 91.7509C213.894 89.0357 215.628 83.3073 216.573 77.0663C216.351 77.2662 209.263 83.3836 195.124 70.9489C195.117 70.9416 195.106 70.9344 195.099 70.9271L188.374 97.0251Z" fill="#1E3A59"/>
</g>
<path d="M144.129 73.9492V74.177L143.984 74.0652L144.129 73.9492Z" fill="#D8D8D8"/>
<path d="M143.984 74.0652L143.839 74.177V73.9492L143.984 74.0652Z" fill="#D8D8D8"/>
<path d="M100.275 97.0251C100.275 97.0251 80.2074 94.4771 77.4776 91.7509C74.7552 89.0357 73.0214 83.3073 72.0763 77.0663C72.0727 77.0627 72.0727 77.0627 72.0727 77.0627C70.5933 67.3214 71.0185 56.3225 72.5561 53.5528C73.9155 51.103 87.1498 46.0833 87.1498 46.0833L93.5507 70.9271L100.275 97.0251Z" fill="white"/>
<g opacity="0.2">
<path d="M100.275 97.0251C100.275 97.0251 80.2072 94.4771 77.4775 91.7509C74.7551 89.0357 73.0212 83.3073 72.0762 77.0663C72.2979 77.2662 79.3857 83.3836 93.5251 70.9489C93.5324 70.9416 93.5433 70.9344 93.5506 70.9271L100.275 97.0251Z" fill="#1E3A59"/>
</g>
<path d="M186.432 98.7365L200.498 44.1501L202.016 44.7255C206.145 46.291 215.906 50.2157 217.367 52.8468C220.161 57.8812 219.806 85.1916 212.2 92.7815C209.266 95.7092 191.991 98.0313 188.557 98.4668L186.432 98.7365ZM202.501 48.0318L190.32 95.2995C199.351 94.049 208.766 92.1002 210.146 90.723C216.589 84.2946 217.083 58.3277 214.824 54.2584C214.146 53.142 208.182 50.2791 202.501 48.0318Z" fill="#1E3A59"/>
<path d="M102.219 98.7365L100.093 98.4668C96.6598 98.0313 79.3844 95.7093 76.4508 92.7813C68.8448 85.192 68.4896 57.8814 71.2846 52.8469C72.7456 50.2158 82.5063 46.291 86.6349 44.7256L88.1534 44.1502L102.219 98.7365ZM86.1505 48.0318C80.4692 50.2792 74.5055 53.1423 73.8252 54.2613C71.568 58.3278 72.0626 84.2948 78.5048 90.723C79.8852 92.1007 89.2998 94.0495 98.3307 95.2995L86.1505 48.0318Z" fill="#1E3A59"/>
<path d="M144.32 124.177C178.209 124.177 205.681 96.7048 205.681 62.8162C205.681 28.9276 178.209 1.45541 144.32 1.45541C110.431 1.45541 82.9592 28.9276 82.9592 62.8162C82.9592 96.7048 110.431 124.177 144.32 124.177Z" fill="white"/>
<g opacity="0.2">
<path d="M205.682 62.8149C205.682 96.7037 178.211 124.175 144.322 124.175C110.433 124.175 82.9573 96.7038 82.9573 62.8149C82.9573 59.2368 83.2629 55.7284 83.8547 52.3206C88.833 81.208 114.011 103.183 144.322 103.183C174.632 103.183 199.806 81.208 204.785 52.3206C205.377 55.7284 205.682 59.2368 205.682 62.8149Z" fill="#1E3A59"/>
</g>
<path d="M144.32 125.631C109.684 125.631 81.5056 97.4525 81.5056 62.8161C81.5056 28.1801 109.684 0.00164795 144.32 0.00164795C178.956 0.00164795 207.135 28.1801 207.135 62.8161C207.135 97.4525 178.956 125.631 144.32 125.631ZM144.32 2.90932C111.287 2.90932 84.4133 29.7834 84.4133 62.8161C84.4133 95.8489 111.287 122.723 144.32 122.723C177.353 122.723 204.227 95.849 204.227 62.8161C204.227 29.7833 177.353 2.90932 144.32 2.90932Z" fill="#1E3A59"/>
<path d="M144.32 125.631C109.684 125.631 81.5056 97.4525 81.5056 62.8161C81.5056 28.1801 109.684 0.00164795 144.32 0.00164795C178.956 0.00164795 207.135 28.1801 207.135 62.8161C207.135 97.4525 178.956 125.631 144.32 125.631ZM144.32 2.90932C111.287 2.90932 84.4133 29.7834 84.4133 62.8161C84.4133 95.8489 111.287 122.723 144.32 122.723C177.353 122.723 204.227 95.849 204.227 62.8161C204.227 29.7833 177.353 2.90932 144.32 2.90932Z" fill="#1E3A59"/>
<path d="M144.32 125.631C109.684 125.631 81.5056 97.4525 81.5056 62.8161C81.5056 28.1801 109.684 0.00164795 144.32 0.00164795C178.956 0.00164795 207.135 28.1801 207.135 62.8161C207.135 97.4525 178.956 125.631 144.32 125.631ZM144.32 2.90932C111.287 2.90932 84.4133 29.7834 84.4133 62.8161C84.4133 95.8489 111.287 122.723 144.32 122.723C177.353 122.723 204.227 95.849 204.227 62.8161C204.227 29.7833 177.353 2.90932 144.32 2.90932Z" fill="#1E3A59"/>
<path d="M144.319 125.63C115.697 125.63 90.7129 106.323 83.5279 78.6652C83.5168 78.632 83.5066 78.5984 83.4976 78.5643C82.1757 73.4611 81.5051 68.1628 81.5051 62.8161C81.5051 60.4478 81.6383 58.0807 81.9017 55.7808C85.4385 23.9838 112.272 0.00247192 144.319 0.00247192C176.375 0.00247192 203.211 23.9912 206.742 55.8024C207.001 58.107 207.132 60.4674 207.132 62.8161C207.132 68.1562 206.464 73.454 205.146 78.5627C205.137 78.5975 205.127 78.6318 205.115 78.6652C197.925 106.323 172.939 125.63 144.319 125.63ZM86.3225 77.8583C93.1484 104.275 116.995 122.722 144.319 122.722C171.639 122.722 195.488 104.273 202.321 77.8587C202.33 77.819 202.342 77.7801 202.355 77.7418C203.596 72.8995 204.225 67.8783 204.225 62.8161C204.225 60.5754 204.1 58.3243 203.852 56.1253C200.485 25.787 174.891 2.91023 144.319 2.91023C113.756 2.91023 88.1643 25.7798 84.7911 56.1067C84.5398 58.302 84.4128 60.5578 84.4128 62.8161C84.4128 67.8839 85.0437 72.9046 86.2882 77.7405C86.301 77.7793 86.3126 77.8184 86.3225 77.8583Z" fill="#1E3A59"/>
<path d="M203.543 48.1779C202.978 48.1779 202.443 47.8457 202.208 47.2988C192.512 24.7885 169.789 10.2433 144.32 10.2433C118.867 10.2433 96.1486 24.7755 86.4426 47.266C86.1405 47.9664 85.3461 48.3131 84.6283 48.0624C83.9078 47.811 83.5047 47.0455 83.7047 46.3092C91.1018 19.043 116.027 0 144.32 0C172.629 0 197.559 19.057 204.946 46.3437C205.146 47.08 204.742 47.8452 204.022 48.0963C203.864 48.1516 203.702 48.1779 203.543 48.1779ZM144.32 7.33565C163.543 7.33565 181.275 15.2727 193.473 28.5556C182.495 12.8499 164.289 2.90776 144.32 2.90776C124.361 2.90776 106.158 12.8454 95.1792 28.5419C107.378 15.2685 125.107 7.33565 144.32 7.33565Z" fill="#1E3A59"/>
<path d="M205.677 62.8177C205.677 68.1287 205.004 73.2882 203.737 78.2011C203.737 78.2011 203.731 78.2011 203.731 78.2068C193.087 98.7721 170.48 116.467 144.317 116.467C118.155 116.467 95.5535 98.7721 84.909 78.2068C84.909 78.2011 84.9034 78.2011 84.9034 78.2011C83.6304 73.2883 82.9573 68.1287 82.9573 62.8177C82.9573 60.4958 83.0862 58.2021 83.3442 55.9476C91.6221 33.0435 115.788 16.4711 144.317 16.4711C172.852 16.4711 197.023 33.0547 205.296 55.9644C205.548 58.2133 205.677 60.5014 205.677 62.8177Z" fill="#0056A8"/>
<g opacity="0.35">
<path d="M205.68 62.8192C205.68 68.1302 205.007 73.2899 203.739 78.2026C203.739 78.2026 203.733 78.2026 203.733 78.2083C193.089 98.7738 170.482 116.468 144.32 116.468C118.157 116.468 95.5561 98.7738 84.9115 78.2083C84.9115 78.2026 84.906 78.2026 84.906 78.2026C84.1488 75.2752 83.6049 72.2636 83.2852 69.179C97.0422 84.6353 117.047 95.8798 139.317 95.8798C167.689 95.8798 192.399 77.6306 205.186 55.6686C205.225 55.7697 205.264 55.865 205.298 55.9659C205.551 58.2149 205.68 60.5031 205.68 62.8192Z" fill="#111A28"/>
</g>
<g opacity="0.5">
<path d="M196.371 61.0738C197.326 55.12 194.602 49.7328 190.288 49.0411C185.974 48.3495 181.702 52.6153 180.748 58.5691C179.793 64.5229 182.517 69.9102 186.831 70.6019C191.145 71.2935 195.417 67.0277 196.371 61.0738Z" fill="white"/>
</g>
<g opacity="0.5">
<path d="M183.431 82.9255C184.243 80.2796 183.06 77.57 180.79 76.8734C178.519 76.1768 176.02 77.757 175.209 80.4029C174.397 83.0487 175.579 85.7583 177.85 86.4549C180.121 87.1515 182.619 85.5713 183.431 82.9255Z" fill="white"/>
</g>
<g opacity="0.5">
<path d="M97.1572 82.8066C97.1572 82.8066 86.8396 52.1309 103.228 39.4916C119.617 26.8522 143.555 26.417 143.027 27.9635C143.027 27.9635 116.656 34.9157 106.712 56.0757C99.0435 72.3927 97.1572 82.8066 97.1572 82.8066Z" fill="white"/>
</g>
<defs>
<linearGradient id="paint0_linear_855_18" x1="242.366" y1="50.1611" x2="277.116" y2="94.8389" gradientUnits="userSpaceOnUse">
<stop offset="0.394929" stop-color="#6ADDFF"/>
<stop offset="0.878969" stop-color="#06C6FF"/>
</linearGradient>
<clipPath id="clip0_855_18">
<rect width="60" height="61" fill="white" transform="translate(0 41)"/>
</clipPath>
</defs>
</svg>
