<svg width="6000" height="1280" viewBox="0 0 6000 1280" fill="none" xmlns="http://www.w3.org/2000/svg">
<rect width="6000" height="1280" fill="url(#paint0_linear_495_8577)"/>
<path d="M5998.54 911.959C5785.91 911.959 5563.43 878.595 5336.77 812.69C5225.82 780.424 5122.74 743.45 5023.06 707.692C4945.91 680.021 4866.15 651.407 4783.31 625.188C4552.27 552.066 4336.89 513.001 4124.88 505.759C3839.63 495.999 3571.39 544.235 3312.09 590.87C3090.28 630.763 2860.92 672.013 2616.94 678.68C2244.5 688.899 1897.49 618.548 1607.15 548.424C1560 537.035 1512.18 525.193 1465.93 513.741C1213.5 451.225 952.482 386.584 656.968 359.612C446.492 340.397 0 381.696 0 381.696V376.797C0 376.797 448.699 336.029 659.805 355.294C957.331 382.451 1219.24 447.312 1472.51 510.035C1518.74 521.48 1566.53 533.316 1613.62 544.69C1902.3 614.415 2247.01 684.319 2616.08 674.248C2857.79 667.642 3086.11 626.576 3306.92 586.865C3567.68 539.964 3837.27 491.487 4125.97 501.331C4340.49 508.659 4558.03 548.063 4791 621.797C4874.13 648.106 4954.03 676.769 5031.3 704.488C5130.76 740.165 5233.62 777.058 5344.09 809.183C5569.11 874.613 5765.69 904.084 6000 907.511C6000 909.248 6000 911.958 6000 911.958C6000 911.958 5999.03 911.959 5998.54 911.959Z" fill="#B5F6FF"/>
<path d="M1177.19 739.58C1112.05 739.58 1046.47 737.768 980.779 733.79C798.116 722.727 624.033 695.489 455.682 669.148C425.175 664.376 394.68 659.606 364.176 654.932C247.158 637.01 0 609.839 0 609.839V605.292C0 605.292 250.342 632.692 368.687 650.82C399.24 655.497 429.745 660.271 460.274 665.05C627.999 691.289 801.42 718.422 982.689 729.401C1446.5 757.497 1908.49 676.476 2215.62 613.088C2307.63 594.102 2400.22 573.8 2489.77 554.167C2769.79 492.774 3059.34 429.291 3375.92 395.925C3876.66 343.147 4442.06 371.265 4888.3 471.135C5002.07 496.598 5109.92 526.791 5214.2 555.99C5289.78 577.147 5367.92 599.024 5447.65 618.915C5647.61 668.795 6000 704.663 6000 704.663V709.141C6000 709.141 5643.14 673.025 5441.04 622.609C5361.04 602.652 5282.76 580.739 5207.06 559.545C5103.01 530.416 4995.42 500.292 4882.18 474.947C4438.68 375.698 3876.8 347.75 3379.15 400.201C3064.04 433.415 2775.17 496.75 2495.79 558C2406.18 577.647 2313.52 597.963 2221.39 616.978C1956.08 671.735 1575.66 739.575 1177.19 739.58Z" fill="#05BAFF"/>
<path d="M2238.85 1050.17C2117.76 1050.17 2002.37 1041.82 1897.03 1024.77C1613.59 978.885 1429.11 877.223 1286.04 783.824C1264.34 769.666 1242.94 755.365 1221.51 741.035C1097.25 657.992 968.762 572.122 774.183 510.252C561.355 442.578 0 417.752 0 417.752V413.312C0 413.312 566.941 438.516 781.901 506.866C978.107 569.258 1107.13 655.481 1231.9 738.867C1253.31 753.183 1274.7 767.471 1296.36 781.619C1438.47 874.379 1621.52 975.326 1901.77 1020.69C2230.97 1073.98 2660.85 1041.1 3051.64 932.73C3225.05 884.64 3381.61 826.842 3533.03 770.946C3670.21 720.304 3812.06 667.938 3966.33 622.8C4151.49 568.621 4634.48 449.323 5119.15 511.609C5287.83 533.283 5432.95 574.736 5573.3 614.822L5591.35 619.974C5723.28 657.609 6000 713.097 6000 713.097V717.833C6000 717.833 5718.07 661.717 5584.12 623.508L5566.07 618.354C5426.48 578.482 5282.12 537.251 5115.27 515.81C4636.21 454.243 4157.32 572.568 3973.68 626.298C3819.94 671.281 3678.34 723.556 3541.4 774.107C3389.69 830.112 3232.83 888.022 3058.73 936.298C2789.13 1011.06 2500.76 1050.16 2238.85 1050.17Z" fill="#0096F9"/>
<path d="M3101.33 974.247C2561.79 974.256 2097.85 826.701 1792.32 714C1738.63 694.197 1684.27 673.64 1631.7 653.759C1316.6 534.601 990.782 411.387 569.011 356.257C385.843 332.315 0 327.917 0 327.917V323.885C0 323.885 391.92 328.402 572.941 352.063C997.316 407.534 1324.13 531.119 1640.17 650.637C1692.72 670.509 1747.05 691.057 1800.69 710.841C2114.63 826.64 2596.52 979.438 3153.99 969.329C3438.82 964.173 3729.62 917.827 4069.19 823.481C4160.91 797.994 4251.51 770.635 4339.14 744.177C4510.36 692.474 4687.42 639.012 4881.02 597.05C5078.72 554.206 5468.21 488.83 5855.7 532.48C5905.48 538.087 6000 553.784 6000 553.784V558.738C6000 558.738 5903.24 542.474 5852.26 536.732C5469.08 493.57 5083.03 558.408 4887 600.895C4694.19 642.683 4517.5 696.036 4346.62 747.631C4258.91 774.117 4168.21 801.507 4076.3 827.042C3734.75 921.943 3441.86 968.566 3154.57 973.768C3136.75 974.089 3118.99 974.247 3101.33 974.247Z" fill="#75E2FF"/>
<defs>
<linearGradient id="paint0_linear_495_8577" x1="3000" y1="0" x2="2990.78" y2="1279.93" gradientUnits="userSpaceOnUse">
<stop stop-color="#07C7FF"/>
<stop offset="1" stop-color="#0294C8"/>
</linearGradient>
</defs>
</svg>
