<svg width="299" height="390" viewBox="0 0 299 390" fill="none" xmlns="http://www.w3.org/2000/svg">
<path d="M63.5477 186.339C50.6704 198.925 44.2851 251.627 51.5914 281.582C58.8971 311.537 112.915 306.746 143.507 301.72C174.098 296.693 164.856 227.245 162.006 208.691C157.555 179.718 82.6291 167.69 63.5477 186.339Z" fill="white"/>
<g opacity="0.25">
<path d="M143.51 301.72C112.919 306.746 58.9031 311.533 51.5912 281.58C50.6378 277.656 49.9131 273.346 49.4141 268.785C58.7752 274.34 69.8158 266.848 70.1687 258.506C71.3037 231.688 76.2408 212.927 81.8718 200.001C88.3878 185.043 104.626 176.644 120.564 180.137C141.325 184.687 159.863 194.716 162.005 208.693C164.86 227.244 174.102 296.693 143.51 301.72Z" fill="#1E3A59"/>
</g>
<path d="M102.854 308.443C76.4942 308.443 53.5864 302.285 48.7088 282.284C40.9885 250.633 47.908 197.474 61.4741 184.216C74.4735 171.511 108.499 172.317 132.569 180.353C151.661 186.725 163.157 196.629 164.942 208.239C167.036 221.877 169.313 242.004 168.262 260.446C166.727 287.383 158.561 302.255 143.989 304.649C130.672 306.837 116.313 308.443 102.854 308.443ZM96.0054 180.327C82.5916 180.327 71.121 183.089 65.6244 188.461C53.675 200.14 47.4245 251.962 54.4773 280.877C61.0998 308.034 112.799 303.755 143.027 298.791C170.013 294.356 162.131 229.051 159.073 209.141C157.664 199.976 147.319 191.535 130.689 185.984C119.307 182.184 107.002 180.327 96.0054 180.327Z" fill="#1E3A59"/>
<path d="M73.2738 236.931L58.9246 233.289C55.6817 232.466 52.443 234.667 52.0328 237.988C50.6217 249.413 49.2232 272.894 60.9577 276.12C75.179 280.029 77.9104 263.858 77.4694 242.193C77.419 239.697 75.6934 237.546 73.2738 236.931Z" fill="white"/>
<g opacity="0.25">
<path d="M77.4311 242.161C77.9239 263.825 75.2275 280.007 60.9985 276.126C55.1542 274.539 52.5522 267.917 51.5898 260.261C53.0017 262.302 54.8355 263.785 57.2147 264.431C69.9535 267.9 73.4537 255.293 73.6809 237.057C75.8676 237.789 77.3857 239.827 77.4311 242.161Z" fill="#1E3A59"/>
</g>
<path d="M64.9661 279.675C63.4781 279.675 61.897 279.448 60.2256 278.993C46.5905 275.278 47.37 251.502 49.0483 237.659C49.3423 235.235 50.6659 233.052 52.6796 231.668C54.6995 230.28 57.2209 229.827 59.5998 230.424L73.9577 234.033C77.6709 234.967 80.3232 238.283 80.4089 242.098C80.8582 261.975 78.4815 272.464 72.4629 277.171C70.3311 278.838 67.8202 279.675 64.9661 279.675ZM57.5057 236.101C56.9883 236.101 56.4837 236.257 56.0419 236.561C55.423 236.986 55.0328 237.63 54.9426 238.373C53.0683 253.829 53.8827 271.111 61.7862 273.264C64.7956 274.085 67.0927 273.832 68.8057 272.494C75.0471 267.613 74.6151 248.509 74.4734 242.231C74.4477 241.079 73.6393 240.075 72.5089 239.791L58.1526 236.182C57.937 236.128 57.7202 236.101 57.5057 236.101Z" fill="#1E3A59"/>
<path d="M61.0913 188.087C62.8707 188.483 64.5829 188.902 66.317 189.343C68.044 189.784 69.7647 190.246 71.4805 190.731C74.9093 191.706 78.3185 192.773 81.6755 194.043C82.3989 194.318 82.763 195.125 82.4896 195.849C82.2373 196.514 81.5343 196.876 80.8612 196.718L80.8486 196.714C77.4785 195.927 74.0483 195.333 70.602 194.83C68.8784 194.583 67.1508 194.357 65.4209 194.153C63.6974 193.951 61.9461 193.762 60.2512 193.614L60.2393 193.614C58.6974 193.479 57.5562 192.121 57.6904 190.579C57.8246 189.037 59.1832 187.897 60.7251 188.03C60.8439 188.041 60.9766 188.062 61.0913 188.087Z" fill="#371B45"/>
<path d="M292.77 172.08C288.479 191.565 278.792 209.024 265.764 215.608C254.093 221.513 246.523 223.407 226.954 225.308C216.709 226.301 206.645 225.875 197.803 224.868C180.449 222.897 167.821 218.704 167.821 218.704L165.871 201.909L164.78 192.509L161.949 168.145C161.949 168.145 171.93 170.088 184.888 171.073C193.827 171.758 204.184 171.989 213.647 170.808C225.116 169.389 235.278 165.908 240.066 158.682C250.054 143.586 239.178 124.736 250.613 115.021C260.495 106.613 291.142 116.419 294.273 136.764C295.999 147.996 295.356 160.401 292.77 172.08Z" fill="white"/>
<g opacity="0.25">
<path d="M292.771 172.08C288.48 191.566 278.793 209.024 265.766 215.608C254.094 221.514 246.525 223.408 226.956 225.309C216.71 226.301 206.646 225.875 197.804 224.868C180.451 222.897 167.822 218.704 167.822 218.704L165.872 201.909L164.781 192.509L192.221 190.853C192.221 190.853 220.443 220.801 259.685 204.3C275.104 197.821 285.699 184.863 292.771 172.08Z" fill="#1E3A59"/>
</g>
<path d="M214.927 228.841C209.296 228.841 203.459 228.5 197.466 227.818C180.006 225.835 167.412 221.697 166.883 221.522L165.089 220.925L158.531 164.457L162.515 165.232C162.613 165.251 172.495 167.154 185.111 168.114C195.865 168.938 205.34 168.853 213.279 167.863C225.67 166.33 233.849 162.69 237.589 157.043C241.921 150.497 241.875 142.936 241.831 135.623C241.781 127.29 241.729 118.672 248.689 112.76C253.979 108.259 264.017 107.817 274.26 111.632C284.079 115.29 295.264 123.694 297.206 136.313C301.709 165.594 290.454 206.449 267.103 218.258C255.044 224.359 247.22 226.323 227.24 228.264C223.267 228.649 219.155 228.841 214.927 228.841ZM170.544 216.435C174.573 217.621 185.03 220.431 198.136 221.92C208.218 223.066 217.817 223.212 226.667 222.354C245.754 220.501 253.164 218.657 264.423 212.96L264.424 212.959C283.15 203.489 295.978 167.387 291.337 137.215C289.786 127.137 280.428 120.266 272.187 117.196C264.181 114.213 256.1 114.25 252.534 117.283C247.683 121.405 247.723 127.977 247.768 135.588C247.815 143.406 247.869 152.267 242.541 160.321C237.797 167.48 228.198 172 214.01 173.755C205.682 174.795 195.807 174.888 184.66 174.034C176.449 173.41 169.475 172.417 165.355 171.752L170.544 216.435Z" fill="#1E3A59"/>
<path d="M161.13 290.006C155.979 323.162 138.834 351.237 94.7406 358.4C94.7406 358.4 95.0978 358.981 95.6141 359.973C96.7603 362.168 98.6893 366.362 99.3253 370.806C100.465 378.585 97.655 387.126 79.819 387.028C59.7605 386.916 48.4871 371.155 45.1533 354.11C42.7211 341.655 44.5312 328.509 50.2554 320.289C58.9009 307.863 74.689 305.774 88.0661 295.38C91.2537 292.906 94.3002 289.957 97.089 286.288C99.4938 283.121 101.716 279.396 103.715 275.35C108.202 266.251 111.535 255.536 113.164 245.898L162.877 256.878C163.205 268.095 162.793 279.312 161.13 290.006Z" fill="white"/>
<g opacity="0.25">
<path d="M94.7398 358.401C94.7398 358.401 95.0969 358.981 95.6133 359.974C88.4845 358.765 75.8203 355.305 65.791 345.514C65.791 345.514 100.24 353.802 115.294 333.024C127.798 315.761 96.375 320.786 88.065 295.381C91.2526 292.907 94.2992 289.957 97.0878 286.288C99.4927 283.122 101.715 279.397 103.713 275.35C124.093 275.49 155.894 287.91 161.128 290.007C155.978 323.162 138.834 351.237 94.7398 358.401Z" fill="#1E3A59"/>
</g>
<g opacity="0.25">
<path d="M79.8218 387.028C59.7633 386.916 48.4899 371.156 45.1562 354.11C51.2507 364.063 63.9497 378.963 84.9169 377.712C93.2129 377.216 97.3225 374.106 99.3283 370.807C100.467 378.585 97.6578 387.127 79.8218 387.028Z" fill="#1E3A59"/>
</g>
<path d="M80.1164 390C80.0126 390 79.9103 390 79.8065 389.999C65.7108 389.923 54.1493 382.56 47.2526 369.267C38.9406 353.248 39.1906 330.988 47.8208 318.59C53.3916 310.589 61.4028 306.677 69.8837 302.534C78.6011 298.277 87.6145 293.875 94.7287 284.495C101.695 275.311 107.784 259.966 110.239 245.402C110.512 243.786 112.046 242.697 113.66 242.969C115.276 243.242 116.367 244.774 116.094 246.39C113.451 262.064 107.077 278.04 99.4595 288.084C91.4908 298.59 81.396 303.52 72.4894 307.869C64.3835 311.828 57.383 315.247 52.694 321.982C45.2123 332.729 45.1374 352.298 52.5227 366.533C56.648 374.484 64.7365 383.98 79.8383 384.063C79.9361 384.063 80.0331 384.063 80.1301 384.063C88.2337 384.063 93.3901 382.204 95.4585 378.535C98.6571 372.86 94.2015 363.2 92.2151 359.957L89.9058 356.186L94.2682 355.473C140.812 347.905 161.67 316.602 159.909 256.963C159.861 255.324 161.15 253.956 162.788 253.908C164.458 253.858 165.796 255.149 165.844 256.787C167.633 317.394 145.837 351.403 99.2392 360.611C101.526 365.598 104.513 374.543 100.639 381.436C97.4442 387.12 90.5399 390 80.1164 390Z" fill="#1E3A59"/>
<path d="M133.494 338.954C121.301 338.954 109.195 333.018 98.0894 321.497C88.1333 311.17 82.53 300.14 82.2966 299.675C81.7442 298.577 82.186 297.239 83.2845 296.686C84.3778 296.132 85.7203 296.574 86.2742 297.673C86.4902 298.1 108.205 340.363 140.24 333.812C141.448 333.565 142.62 334.344 142.867 335.547C143.113 336.752 142.337 337.929 141.132 338.175C138.588 338.696 136.039 338.954 133.494 338.954Z" fill="#1E3A59"/>
<path d="M66.8863 344.636C67.249 345.016 67.748 345.48 68.2205 345.882C68.7056 346.291 69.1998 346.698 69.7203 347.074C70.2341 347.46 70.7582 347.83 71.3019 348.177C71.8296 348.544 72.3901 348.868 72.9437 349.197C75.1704 350.503 77.5298 351.575 79.9452 352.482C81.1724 352.892 82.3802 353.338 83.6369 353.654C84.2623 353.818 84.8726 354.023 85.5071 354.152L87.4004 354.566C88.0266 354.719 88.666 354.817 89.3056 354.915L91.2178 355.221C92.5003 355.382 93.7918 355.488 95.073 355.626L95.2499 355.645C96.7882 355.811 97.9001 357.192 97.7338 358.73C97.5674 360.267 96.1863 361.379 94.6488 361.214C94.5726 361.205 94.4915 361.192 94.4168 361.179C93.0357 360.911 91.6534 360.673 90.2828 360.378L88.2372 359.868C87.5557 359.703 86.8758 359.534 86.2075 359.311L84.1961 358.685C83.5244 358.484 82.8738 358.205 82.2133 357.969C80.8882 357.508 79.6098 356.911 78.3252 356.35C75.7889 355.139 73.335 353.756 71.0398 352.128C70.4688 351.718 69.895 351.314 69.3506 350.864C68.7935 350.435 68.2547 349.98 67.7277 349.508C67.1944 349.047 66.6864 348.55 66.1845 348.045C65.6757 347.524 65.22 347.036 64.709 346.39C64.231 345.786 64.3337 344.908 64.939 344.43C65.5072 343.98 66.3179 344.044 66.8099 344.556L66.8863 344.636Z" fill="#1E3A59"/>
<path d="M195.58 276.657C194.881 278.286 194.147 279.796 193.392 281.186C192.799 282.284 192.176 283.325 191.519 284.331C180.518 301.273 161.851 305.592 148.341 307.332C134.034 309.185 85.0691 304.544 79.387 270.633C79.3591 270.472 79.3311 270.311 79.3102 270.151C78.4085 264.538 78.2129 259.248 78.5204 254.062C78.5553 253.44 78.6044 252.818 78.6532 252.196C79.2683 244.766 80.8688 237.491 82.8676 229.712C85.6492 218.9 89.1927 207.123 91.8835 192.635C92.0303 191.873 92.1701 191.112 92.3028 190.336C93.4559 183.815 94.4282 176.735 95.0774 168.956C95.1544 168.069 95.2242 167.174 95.287 166.266C95.8881 158.053 96.1257 149.066 95.8461 139.141L176.989 154.894L182.161 165.49L184.886 171.074L190.366 182.312L192.043 190.056L192.218 190.853C193.511 197.549 195.866 209.409 196.628 215.217C197.068 218.586 197.46 221.801 197.802 224.869C200.654 250.288 200.206 265.852 195.58 276.657Z" fill="white"/>
<g opacity="0.26">
<path d="M190.904 285.267C179.826 301.433 161.598 305.619 148.347 307.331C134.789 309.086 90.0939 305.011 80.6309 275.706C98.9904 297.819 138.836 301.013 152.325 299.273C163.912 297.777 178.749 294.654 190.904 285.267Z" fill="#371B45"/>
</g>
<path d="M193.584 190.562C196.056 197.826 197.754 205.294 199.059 212.836C199.701 216.61 200.192 220.412 200.66 224.218C201.122 228.026 201.5 231.848 201.775 235.686C202.324 243.36 202.512 251.097 201.933 258.88C201.648 262.769 201.124 266.671 200.299 270.558C199.443 274.441 198.253 278.32 196.332 282.03C195.371 283.851 194.347 285.56 193.176 287.224C192.029 288.891 190.763 290.481 189.397 291.979C188.043 293.489 186.583 294.904 185.038 296.212C183.495 297.522 181.885 298.753 180.195 299.853C173.446 304.308 165.807 307.037 158.149 308.677C156.232 309.091 154.307 309.442 152.383 309.742C151.42 309.894 150.458 310.032 149.497 310.159C149.025 310.223 148.535 310.287 148.007 310.345C147.495 310.397 146.987 310.442 146.483 310.477C142.463 310.747 138.56 310.609 134.658 310.303C126.875 309.649 119.17 308.206 111.691 305.79C104.242 303.358 96.9458 299.928 90.676 294.803C87.5561 292.244 84.7276 289.245 82.4429 285.833C80.1561 282.427 78.4241 278.619 77.394 274.65C77.141 273.658 76.9098 272.66 76.7343 271.654C76.5414 270.646 76.4401 269.695 76.2877 268.713C76.1304 267.74 76.0396 266.758 75.9494 265.776C75.8509 264.794 75.7538 263.814 75.7223 262.827C75.4965 258.891 75.5721 254.935 75.9543 251.033C76.6993 243.218 78.4465 235.642 80.3651 228.252C82.2941 220.856 84.3411 213.577 86.1044 206.254C87.8698 198.934 89.3599 191.572 90.4893 184.153C92.725 169.312 93.4534 154.259 93.0479 139.219V139.213C93.0067 137.669 94.2242 136.385 95.7673 136.343C97.3112 136.302 98.5958 137.518 98.6371 139.062C99.0509 154.38 98.3092 169.784 96.0176 184.987C94.8623 192.585 93.3352 200.122 91.5398 207.565C89.7464 215.009 87.6804 222.354 85.7779 229.654C83.8797 236.953 82.2177 244.235 81.5217 251.553C81.1625 255.209 81.096 258.87 81.305 262.513C81.3324 263.426 81.4239 264.334 81.5147 265.242C81.5986 266.15 81.6804 267.06 81.8286 267.962C81.967 268.854 82.0675 269.794 82.2388 270.65C82.3918 271.513 82.5938 272.366 82.8118 273.212C83.7037 276.592 85.1742 279.789 87.1283 282.68C89.0824 285.573 91.5238 288.156 94.2795 290.4C99.8106 294.895 106.499 298.055 113.464 300.296C120.451 302.526 127.777 303.875 135.124 304.463C138.791 304.739 142.5 304.847 146.058 304.592C146.502 304.559 146.94 304.519 147.372 304.473C147.788 304.426 148.239 304.367 148.707 304.301C149.627 304.177 150.545 304.041 151.458 303.894C153.283 303.601 155.094 303.264 156.885 302.87C164.04 301.303 170.951 298.804 176.898 294.861C178.391 293.89 179.8 292.806 181.15 291.658C182.503 290.513 183.773 289.277 184.952 287.958C186.143 286.65 187.248 285.262 188.25 283.8C189.266 282.36 190.192 280.801 191.001 279.264C191.788 277.744 192.453 276.122 193.02 274.443C193.574 272.758 194.043 271.024 194.452 269.264C195.229 265.728 195.751 262.09 196.046 258.409C196.651 251.044 196.533 243.554 196.05 236.081C195.576 228.602 194.663 221.13 193.592 213.675C192.609 206.203 191.481 198.742 190.848 191.139V191.133C190.783 190.358 191.359 189.677 192.134 189.613C192.791 189.558 193.381 189.965 193.584 190.562Z" fill="#1E3A59"/>
<path d="M211.207 240.848C211.597 246.222 207.556 250.896 202.182 251.287C196.807 251.676 192.133 247.636 191.743 242.26C191.353 236.885 195.394 232.212 200.768 231.821C206.144 231.431 210.817 235.472 211.207 240.848Z" fill="white"/>
<g opacity="0.25">
<path d="M211.209 240.847C211.599 246.221 207.561 250.899 202.187 251.289C196.811 251.68 192.133 247.635 191.743 242.259C191.635 240.774 191.865 239.335 192.377 238.031C194.178 241.205 197.7 243.242 201.582 242.96C205.464 242.679 208.655 240.154 209.971 236.754C210.666 237.971 211.101 239.362 211.209 240.847Z" fill="#1E3A59"/>
</g>
<path d="M201.46 253.539C198.584 253.539 195.835 252.519 193.638 250.619C191.217 248.526 189.755 245.614 189.524 242.421C189.046 235.831 194.018 230.08 200.609 229.601C207.217 229.124 212.95 234.096 213.429 240.687C213.908 247.277 208.935 253.028 202.345 253.507C202.049 253.529 201.754 253.539 201.46 253.539ZM201.482 234.023C201.299 234.023 201.117 234.029 200.932 234.042C196.789 234.343 193.664 237.957 193.965 242.099C194.111 244.106 195.029 245.936 196.551 247.251C198.072 248.567 200.015 249.211 202.023 249.066C206.164 248.764 209.288 245.151 208.988 241.009C208.7 237.052 205.388 234.023 201.482 234.023Z" fill="#1E3A59"/>
<g opacity="0.35">
<path d="M201.332 248.411C199.609 237.465 199.241 227.31 199.656 218.266C199.906 223.487 200.43 228.964 201.329 234.664C202.377 241.35 202.726 248.333 202.139 255.195C201.956 252.914 201.68 250.646 201.332 248.411Z" fill="#371B45"/>
</g>
<path d="M192.04 267.356L141.097 270.237C135.067 270.581 129.85 265.925 129.507 259.888L127.975 232.779C127.676 227.495 131.209 222.841 136.145 221.536C136.843 221.346 137.572 221.234 138.324 221.19L189.259 218.307C195.296 217.964 200.513 222.62 200.849 228.657L202.067 250.128L202.389 255.766C202.731 261.803 198.068 267.013 192.04 267.356Z" fill="white"/>
<path d="M80.0274 235.712C80.0274 235.712 73.5255 238.03 73.7437 246.576C73.915 253.272 77.0292 256.039 77.0292 256.039C77.0292 256.039 99.687 263.566 128.72 255.793C128.72 255.793 134.17 253.371 134.538 245.396C134.678 242.35 132.816 237.726 128.544 236.74C128.544 236.74 102.125 242.123 80.0274 235.712Z" fill="white"/>
<path d="M192.04 267.356L141.097 270.237C135.067 270.581 129.85 265.925 129.507 259.888L127.975 232.779C127.676 227.495 131.209 222.841 136.145 221.536C136.843 221.346 137.572 221.234 138.324 221.19L189.259 218.307C195.296 217.964 200.513 222.62 200.849 228.657L202.067 250.128L202.389 255.766C202.731 261.803 198.068 267.013 192.04 267.356Z" fill="white"/>
<path d="M80.0274 235.712C80.0274 235.712 73.5255 238.03 73.7437 246.576C73.915 253.272 77.0292 256.039 77.0292 256.039C77.0292 256.039 99.687 263.566 128.72 255.793C128.72 255.793 134.17 253.371 134.538 245.396C134.678 242.35 132.816 237.726 128.544 236.74C128.544 236.74 102.125 242.123 80.0274 235.712Z" fill="white"/>
<g opacity="0.25">
<path d="M195.205 238.157L196.421 259.63L196.741 265.261C196.758 265.505 196.762 265.749 196.757 265.988C196.172 267.661 195.544 269.218 194.888 270.658C194.371 271.793 193.822 272.876 193.237 273.925C191.428 275.613 189.044 276.702 186.392 276.851L135.45 279.734C129.42 280.082 124.2 275.42 123.858 269.384L123.61 264.994C123.274 265.2 123.07 265.291 123.07 265.291C118.345 266.558 113.788 267.42 109.476 267.972C97.3503 269.52 87.1183 268.654 80.3159 267.543C79.2172 267.366 78.21 267.183 77.3008 267.002C77.8207 262.076 78.1983 256.914 78.4141 251.547C78.4833 249.811 78.5364 248.056 78.5741 246.274C79.2785 246.436 79.9823 246.583 80.6855 246.716C99.7006 250.372 119.731 246.846 122.559 246.306L122.329 242.279C122.032 236.99 125.562 232.338 130.495 231.036C131.197 230.847 131.924 230.734 132.678 230.689L183.614 227.807C189.65 227.466 194.87 232.12 195.205 238.157Z" fill="#1E3A59"/>
</g>
<g opacity="0.25">
<path d="M79.6211 249.009L83.3658 229.844C83.3658 229.844 91.3249 230.693 98.5396 243.52C105.755 256.347 96.5666 259.74 96.5666 259.74L79.6211 249.009Z" fill="#1E3A59"/>
</g>
<path d="M192.04 267.356L141.097 270.237C135.067 270.581 129.85 265.925 129.507 259.888L127.975 232.779C127.676 227.495 131.209 222.841 136.145 221.536C136.843 221.346 137.572 221.234 138.324 221.19L189.259 218.307C195.296 217.964 200.513 222.62 200.849 228.657L202.067 250.128L202.389 255.766C202.731 261.803 198.068 267.013 192.04 267.356Z" fill="white"/>
<g opacity="0.25">
<path d="M192.037 267.355L141.094 270.236C135.065 270.58 129.848 265.924 129.505 259.887L127.973 232.778C127.673 227.494 131.207 222.84 136.142 221.535C139.144 223.292 141.051 224.418 141.051 224.418C144.762 246.038 151.573 256.538 178.619 255.451C190.293 254.979 197.556 252.783 202.066 250.127L202.386 255.765C202.73 261.802 198.067 267.012 192.037 267.355Z" fill="#1E3A59"/>
</g>
<path d="M140.475 272.483C133.527 272.483 127.687 267.037 127.289 260.015L125.756 232.902C125.557 229.391 126.745 226.004 129.101 223.365C131.457 220.725 134.689 219.162 138.201 218.964L189.139 216.081C192.654 215.882 196.038 217.07 198.678 219.426C201.317 221.783 202.88 225.015 203.078 228.527L204.613 255.639C204.813 259.151 203.624 262.539 201.268 265.178C198.911 267.817 195.679 269.38 192.168 269.578L141.228 272.462C140.976 272.476 140.724 272.483 140.475 272.483ZM189.893 220.512C189.726 220.512 189.559 220.517 189.392 220.527L138.452 223.41C136.129 223.541 133.987 224.579 132.423 226.33C130.859 228.082 130.07 230.327 130.202 232.65L131.735 259.764C132.008 264.585 136.133 268.275 140.977 268.016L191.916 265.132C194.241 265.001 196.382 263.964 197.946 262.212C199.51 260.46 200.299 258.215 200.168 255.891L198.633 228.778C198.501 226.454 197.464 224.312 195.712 222.748C194.086 221.297 192.036 220.512 189.893 220.512Z" fill="#1E3A59"/>
<path d="M194.072 267.039C193.419 267.213 192.745 267.318 192.039 267.355L141.096 270.237C136.677 270.486 132.696 268.058 130.751 264.356C130.042 263.011 129.602 261.499 129.514 259.888L128.828 247.845L128.602 243.872L127.975 232.778C127.632 226.742 132.294 221.532 138.323 221.189L149.331 220.569C144.312 221.813 140.701 226.504 141 231.843L141.824 246.487L142.532 258.959C142.875 264.988 148.093 269.651 154.122 269.309L194.072 267.039Z" fill="white"/>
<g opacity="0.25">
<path d="M194.07 267.039C193.417 267.214 192.743 267.319 192.037 267.356L141.094 270.238C135.064 270.581 129.847 265.925 129.512 259.889L128.6 243.872C130.041 246.629 132.54 249.973 136.244 250.129C138.276 250.219 140.182 248.653 141.822 246.487L142.53 258.96C142.873 264.989 148.091 269.652 154.12 269.309L194.07 267.039Z" fill="#1E3A59"/>
</g>
<path d="M140.461 272.483C137.227 272.483 134.139 271.304 131.691 269.118C129.05 266.76 127.487 263.528 127.29 260.016L125.756 232.903C125.341 225.632 130.923 219.378 138.199 218.962L149.205 218.341L149.867 222.725C145.782 223.74 142.989 227.523 143.226 231.719L144.761 258.831C144.89 261.156 145.927 263.297 147.679 264.862C149.432 266.427 151.672 267.22 153.996 267.083L193.951 264.817L194.638 269.195C193.826 269.406 192.99 269.535 192.154 269.578L141.224 272.461C140.969 272.476 140.715 272.483 140.461 272.483ZM141.454 223.239L138.452 223.408C133.628 223.683 129.926 227.83 130.202 232.65L131.736 259.766C131.867 262.09 132.904 264.231 134.656 265.796C136.408 267.36 138.654 268.153 140.971 268.016L144.328 267.825C141.921 265.503 140.501 262.418 140.315 259.081L138.781 231.971C138.598 228.74 139.605 225.672 141.454 223.239Z" fill="#1E3A59"/>
<path d="M161.868 244.484C161.919 245.487 160.921 253.654 160.921 253.654C160.921 253.654 158.357 253.784 155.207 253.945C151.273 254.144 147.876 250.233 147.621 245.208C147.366 240.184 150.348 235.948 154.282 235.748C156.937 235.613 159.996 235.457 159.996 235.457C159.996 235.457 161.785 242.85 161.868 244.484Z" fill="#3BA1DA"/>
<g opacity="0.35">
<path d="M161.87 244.485C161.921 245.488 160.923 253.654 160.923 253.654C160.923 253.654 158.359 253.785 155.209 253.945C151.275 254.145 147.878 250.234 147.623 245.209C147.368 240.184 150.35 235.948 154.284 235.748C156.939 235.613 159.998 235.458 159.998 235.458C159.998 235.458 161.787 242.851 161.87 244.485Z" fill="#0056A8"/>
</g>
<path d="M154.909 255.436C152.677 255.436 150.56 254.407 148.912 252.509C147.262 250.61 146.276 248.043 146.136 245.283C145.84 239.449 149.459 234.507 154.205 234.265L158.195 234.063C159.891 233.971 161.446 235.129 161.839 236.806C162.793 240.9 163.3 243.458 163.349 244.409C163.36 244.642 163.396 245.358 162.6 252.094C162.397 253.819 160.987 255.137 159.248 255.226L155.28 255.427C155.157 255.433 155.033 255.436 154.909 255.436ZM158.375 237.027C158.365 237.027 158.354 237.027 158.345 237.028L154.355 237.23C151.245 237.388 148.888 240.934 149.102 245.133C149.208 247.233 149.937 249.162 151.153 250.562C152.281 251.859 153.677 252.542 155.13 252.462L159.098 252.26C159.385 252.246 159.618 252.029 159.652 251.746C160.21 247.024 160.395 244.923 160.383 244.557C160.369 244.279 160.222 242.951 158.948 237.482C158.885 237.215 158.647 237.027 158.375 237.027Z" fill="#1E3A59"/>
<path d="M167.58 244.195C167.836 249.219 164.854 253.455 160.92 253.655C156.985 253.855 153.589 249.944 153.334 244.919C153.078 239.894 156.061 235.659 159.994 235.459C163.928 235.259 167.325 239.17 167.58 244.195Z" fill="#07C7FF"/>
<g opacity="0.7">
<path d="M167.527 246.071C166.64 241.974 163.621 239.021 160.191 239.197C156.747 239.373 154.04 242.628 153.583 246.805C153.451 246.201 153.368 245.569 153.335 244.919C153.085 239.893 156.068 235.659 160.001 235.459C163.935 235.26 167.33 239.166 167.586 244.192C167.62 244.836 167.598 245.465 167.527 246.071Z" fill="white"/>
</g>
<g opacity="0.35">
<path d="M160.918 253.649C156.984 253.855 153.582 249.942 153.327 244.917C153.271 243.762 153.381 242.653 153.636 241.617C154.835 244.981 157.555 247.27 160.586 247.112C163.617 246.954 166.083 244.413 166.935 240.952C167.296 241.946 167.522 243.042 167.577 244.19C167.835 249.216 164.852 253.451 160.918 253.649Z" fill="#0056A8"/>
</g>
<path d="M160.623 255.146C158.39 255.146 156.272 254.116 154.624 252.218C152.975 250.32 151.989 247.754 151.849 244.993C151.709 242.233 152.429 239.581 153.877 237.524C155.404 235.356 157.549 234.096 159.917 233.975C162.286 233.859 164.548 234.892 166.286 236.894C167.935 238.793 168.92 241.359 169.061 244.119C169.201 246.878 168.481 249.531 167.033 251.588C165.506 253.756 163.361 255.016 160.993 255.137C160.87 255.143 160.746 255.146 160.623 255.146ZM160.279 236.935C160.208 236.935 160.138 236.937 160.067 236.94C158.631 237.013 157.294 237.828 156.305 239.233C155.237 240.75 154.707 242.742 154.815 244.842C154.922 246.943 155.65 248.871 156.866 250.272C157.992 251.569 159.379 252.249 160.843 252.171C162.28 252.098 163.616 251.284 164.606 249.878C165.674 248.362 166.203 246.37 166.096 244.269C165.989 242.169 165.261 240.241 164.044 238.84C162.972 237.606 161.642 236.935 160.279 236.935Z" fill="#1E3A59"/>
<path d="M176.19 270.282C174.995 270.282 174.006 269.333 173.966 268.129L173.514 254.398C173.385 250.457 175.226 246.742 178.439 244.46C180.479 243.01 181.618 240.652 181.485 238.152L180.458 218.812C180.393 217.584 181.335 216.536 182.563 216.471C183.764 216.396 184.839 217.347 184.905 218.576L185.933 237.916C186.145 241.948 184.309 245.751 181.019 248.089C179.026 249.505 177.885 251.808 177.965 254.251L178.417 267.982C178.458 269.211 177.494 270.24 176.265 270.28C176.24 270.281 176.215 270.282 176.19 270.282Z" fill="#1E3A59"/>
<path d="M80.0274 235.712C80.0274 235.712 73.5255 238.03 73.7437 246.576C73.915 253.272 77.0292 256.039 77.0292 256.039C77.0292 256.039 99.687 263.566 128.72 255.793C128.72 255.793 134.17 253.371 134.538 245.396C134.678 242.35 132.816 237.726 128.544 236.74C128.544 236.74 102.125 242.123 80.0274 235.712Z" fill="white"/>
<g opacity="0.25">
<path d="M134.532 245.398C134.167 253.368 128.716 255.792 128.716 255.792C99.6835 263.564 77.0221 256.036 77.0221 256.036C77.0221 256.036 73.9099 253.274 73.7394 246.575C73.6897 244.546 74.0148 242.87 74.5495 241.487C75.3735 245.998 77.5309 247.909 77.5309 247.909C77.5309 247.909 100.192 255.437 129.224 247.665C129.224 247.665 132.357 246.271 134.024 242.126C134.418 243.262 134.575 244.414 134.532 245.398Z" fill="#1E3A59"/>
</g>
<path d="M101.836 261.562C86.8526 261.562 76.9475 258.358 76.3262 258.152L75.8913 258.007L75.5488 257.703C75.1564 257.354 71.7076 254.079 71.516 246.632C71.2606 236.589 78.9514 233.731 79.2786 233.615L79.9559 233.373L80.6469 233.574C101.941 239.751 127.84 234.61 128.099 234.557L128.572 234.461L129.044 234.57C134.654 235.864 136.934 241.74 136.761 245.498C136.333 254.74 129.897 257.705 129.623 257.826L129.294 257.943C119.135 260.663 109.773 261.562 101.836 261.562ZM78.2519 254.084C81.7529 255.102 102.414 260.467 127.927 253.699C128.609 253.326 132.041 251.16 132.312 245.292C132.41 243.16 131.122 239.917 128.454 239.025C124.521 239.768 100.924 243.805 80.2172 238.081C78.9013 238.811 75.8298 241.101 75.9676 246.518C76.0813 250.949 77.6064 253.288 78.2519 254.084Z" fill="#1E3A59"/>
<path d="M242.092 324.245C236.501 357.967 179.456 368.947 168.665 355.556C156.889 340.949 160.467 318.032 152.08 314.901C137.299 309.379 98.7191 320.744 82.8889 281.724C81.6517 278.684 80.5616 275.336 79.625 271.653L121.587 273.729C139.801 264.482 169.973 252.965 193.595 269.773C206.763 279.138 210.893 304.124 209.733 317.347C209.551 319.416 209.244 321.191 208.818 322.582C208.818 322.582 246.628 296.89 242.092 324.245Z" fill="white"/>
<g opacity="0.25">
<path d="M242.092 324.245C236.501 357.968 179.456 368.947 168.665 355.556C156.889 340.949 160.467 318.032 152.08 314.901C137.299 309.38 98.7189 320.744 82.8887 281.724C88.7036 289.44 100.529 300.706 120.56 301.86C144.113 303.215 158.915 296.185 166.198 305.452C172.23 313.119 168.085 333.185 178.443 337.79C187.857 341.977 205.861 321.855 209.733 317.347C209.551 319.416 209.243 321.191 208.818 322.582C208.818 322.582 246.628 296.89 242.092 324.245Z" fill="#1E3A59"/>
</g>
<path d="M120.958 272.48C125.855 269.764 130.928 267.325 136.16 265.207C141.406 263.13 146.825 261.396 152.416 260.222C158.004 259.055 163.78 258.467 169.589 258.804C175.386 259.122 181.225 260.336 186.652 262.666C189.368 263.813 191.975 265.235 194.409 266.895C194.716 267.102 195.023 267.293 195.331 267.514L196.265 268.223C196.904 268.682 197.455 269.224 198.04 269.733C198.616 270.252 199.128 270.821 199.672 271.365C200.17 271.941 200.678 272.512 201.153 273.103C203.038 275.478 204.585 278.04 205.896 280.678C207.21 283.316 208.279 286.039 209.152 288.806C210.902 294.339 211.991 300.008 212.54 305.741C212.787 308.61 212.884 311.498 212.791 314.416C212.741 315.875 212.646 317.341 212.452 318.83C212.25 320.321 211.996 321.815 211.495 323.398L207.251 320.267L207.255 320.264C209.765 318.595 212.237 317.124 214.823 315.698C217.398 314.286 220.041 312.971 222.801 311.817C225.567 310.678 228.435 309.667 231.603 309.127C233.194 308.875 234.87 308.736 236.683 308.958C237.59 309.079 238.529 309.297 239.464 309.68C240.396 310.058 241.323 310.62 242.1 311.354C242.882 312.081 243.505 312.95 243.964 313.841C244.43 314.738 244.696 315.642 244.909 316.53C245.281 318.298 245.31 319.972 245.213 321.571C244.994 324.741 244.336 327.76 243.289 330.701C241.2 336.57 237.55 341.747 233.168 345.921C228.781 350.122 223.72 353.452 218.39 356.088C213.054 358.733 207.426 360.69 201.654 362.039C195.876 363.363 189.938 364.097 183.886 363.851C180.86 363.702 177.8 363.323 174.742 362.394C173.216 361.924 171.688 361.31 170.21 360.44C169.469 360.019 168.752 359.493 168.061 358.919C167.723 358.616 167.385 358.307 167.069 357.966C166.755 357.618 166.431 357.251 166.224 356.96C162.354 352.035 160.044 346.255 158.472 340.566C157.68 337.71 157.056 334.849 156.479 332.032C155.894 329.221 155.367 326.428 154.664 323.834C154.309 322.544 153.907 321.301 153.413 320.233C152.921 319.171 152.327 318.301 151.743 317.881C151.59 317.796 151.459 317.665 151.297 317.619C151.208 317.584 151.175 317.546 151.046 317.501L150.614 317.366L149.748 317.088L148.818 316.873C147.579 316.582 146.241 316.4 144.894 316.237C142.18 315.934 139.353 315.792 136.503 315.634C133.649 315.48 130.759 315.318 127.854 315.07C122.046 314.552 116.14 313.671 110.41 311.804C104.682 309.978 99.1817 307.068 94.5012 303.135C89.8618 299.158 86.0445 294.284 83.2202 288.987C80.3848 283.685 78.3901 278.047 76.9175 272.344C76.5318 270.848 77.4305 269.323 78.9255 268.938C80.4205 268.551 81.9454 269.451 82.3313 270.946L82.3369 270.968C83.7214 276.329 85.5798 281.543 88.142 286.334C90.6978 291.126 94.0694 295.389 98.1076 298.863C102.191 302.286 106.973 304.837 112.135 306.485C117.291 308.168 122.771 309.005 128.34 309.5C131.131 309.739 133.952 309.897 136.807 310.052C139.664 310.21 142.552 310.351 145.521 310.681C147.011 310.861 148.512 311.062 150.057 311.421L151.215 311.693L152.394 312.065L152.981 312.256C153.189 312.329 153.471 312.466 153.708 312.575C154.219 312.789 154.653 313.105 155.098 313.409C156.818 314.716 157.764 316.37 158.481 317.874C159.186 319.404 159.651 320.895 160.056 322.36C160.848 325.286 161.374 328.12 161.955 330.904C162.526 333.688 163.122 336.416 163.86 339.071C165.321 344.369 167.395 349.408 170.622 353.509C170.83 353.8 170.99 353.96 171.15 354.146C171.32 354.329 171.513 354.501 171.704 354.677C172.116 355.011 172.548 355.344 173.054 355.626C174.04 356.209 175.178 356.68 176.382 357.049C178.801 357.787 181.457 358.136 184.136 358.265C189.519 358.488 195.036 357.824 200.393 356.591C205.753 355.34 210.997 353.514 215.909 351.077C220.821 348.651 225.415 345.607 229.294 341.89C233.177 338.189 236.269 333.744 238.023 328.822C238.9 326.381 239.46 323.757 239.633 321.224C239.713 319.973 239.666 318.764 239.448 317.731C239.323 317.233 239.185 316.755 238.984 316.382C238.785 316.005 238.561 315.701 238.297 315.452C237.789 314.957 236.997 314.647 235.971 314.504C234.941 314.374 233.737 314.447 232.508 314.645C230.032 315.062 227.461 315.938 224.95 316.979C222.432 318.031 219.948 319.264 217.511 320.601C215.089 321.933 212.647 323.394 210.396 324.89L210.394 324.891L203.952 329.438L206.15 321.76C206.458 320.682 206.648 319.422 206.778 318.157C206.921 316.89 206.986 315.58 207.008 314.264C207.048 311.628 206.917 308.956 206.643 306.297C206.122 300.975 205.089 295.674 203.475 290.618C201.84 285.586 199.701 280.7 196.602 276.691C196.214 276.194 195.803 275.725 195.402 275.242C194.967 274.803 194.558 274.327 194.106 273.912C193.646 273.508 193.216 273.059 192.725 272.706L192.009 272.143C191.757 271.957 191.474 271.776 191.209 271.592C189.08 270.084 186.787 268.829 184.419 267.749C179.688 265.554 174.518 264.314 169.243 263.873C163.959 263.403 158.579 263.835 153.252 264.673C147.921 265.549 142.654 266.998 137.484 268.77C132.296 270.512 127.233 272.669 122.223 274.973C121.522 275.297 120.691 274.992 120.366 274.291C120.057 273.623 120.327 272.833 120.958 272.48Z" fill="#1E3A59"/>
<path d="M241.258 308.175C241.258 308.175 236.173 292.546 218.483 295.119C202.085 297.504 196.613 315.703 192.592 320.85" fill="white"/>
<path d="M238.601 309.04L238.465 308.722L238.286 308.33C238.16 308.065 238.023 307.799 237.882 307.534C237.597 307.004 237.292 306.478 236.964 305.969C236.307 304.951 235.563 303.992 234.737 303.133C233.101 301.395 231.167 300.032 229.028 299.131C226.889 298.224 224.526 297.822 222.093 297.811C221.486 297.797 220.869 297.852 220.255 297.881C219.644 297.959 219.006 297.987 218.416 298.101C217.208 298.257 216.04 298.581 214.889 298.956C210.292 300.515 206.336 303.871 203.087 307.998C201.437 310.049 199.951 312.291 198.493 314.609L196.272 318.131C195.512 319.322 194.742 320.527 193.695 321.71C193.183 322.289 192.299 322.343 191.72 321.831C191.205 321.374 191.105 320.622 191.452 320.055L191.492 319.989C192.121 318.957 192.699 317.724 193.278 316.488C193.857 315.247 194.417 313.966 195.03 312.697C196.247 310.155 197.607 307.618 199.233 305.188C200.042 303.972 200.933 302.793 201.899 301.658C202.865 300.522 203.898 299.421 205.053 298.427C206.203 297.43 207.42 296.485 208.743 295.673C210.065 294.864 211.463 294.155 212.927 293.601C214.391 293.06 215.898 292.598 217.435 292.338C218.961 292.045 220.474 291.909 222.037 291.875C225.143 291.811 228.375 292.307 231.352 293.574C234.34 294.803 237.004 296.772 239.11 299.128C240.166 300.308 241.088 301.584 241.89 302.925C242.288 303.597 242.667 304.28 243 304.993C243.163 305.351 243.322 305.712 243.473 306.084L243.692 306.653C243.768 306.858 243.825 307.019 243.918 307.31C244.39 308.777 243.583 310.349 242.116 310.82C240.739 311.264 239.269 310.579 238.704 309.279L238.601 309.04Z" fill="#1E3A59"/>
<path d="M168.662 355.556C170.901 359.176 173.352 361.827 176.011 362.735C189.483 367.32 222.397 357.617 237.367 334.612C243.783 324.745 244.228 315.417 241.255 308.174C233.657 301.458 219.969 301.386 208.778 318.974C193.791 342.532 183.199 352.819 168.662 355.556Z" fill="#B2B2B2"/>
<g opacity="0.35">
<path d="M168.658 355.557C170.898 359.177 173.348 361.829 176.007 362.736C189.479 367.321 222.393 357.619 237.363 334.613C240.285 330.116 241.968 325.735 242.655 321.609C236.731 336.658 222.286 345.422 210.066 344.712C201.67 344.224 197.076 340.24 198.114 334.397C188.174 347.256 179.518 353.511 168.658 355.557Z" fill="#1E3A59"/>
</g>
<path d="M183.773 366.78C180.446 366.78 177.484 366.371 175.057 365.545C171.897 364.467 168.981 361.711 166.139 357.117L163.863 353.439L168.114 352.638C181.309 350.154 191.295 340.928 206.275 317.381C213.876 305.435 222.018 302.003 227.511 301.229C233.277 300.415 238.859 302.092 243.222 305.949L243.741 306.407L244.003 307.046C247.704 316.063 246.232 326.428 239.857 336.23C226.816 356.271 200.63 366.78 183.773 366.78ZM173.652 357.392C175.049 358.977 176.174 359.653 176.971 359.924C188.585 363.876 220.28 355.43 234.88 332.993C239.999 325.121 241.367 316.971 238.766 309.956C235.809 307.583 232.131 306.572 228.339 307.109C224.084 307.709 217.671 310.531 211.284 320.568C196.897 343.184 186.545 353.483 173.652 357.392Z" fill="#1E3A59"/>
<path d="M103.543 169.516L97.7566 195.774L93.7582 213.91L89.5935 232.815C87.5311 231.425 85.2736 230.341 82.8693 229.712C82.6324 229.65 82.3941 229.593 82.1502 229.538C63.4468 225.413 53.6279 249.121 53.6279 249.121C53.6279 249.121 61.6437 254.223 62.5312 260.73C62.6856 261.855 62.6291 262.875 62.4263 263.791C61.4905 268.159 57.339 270.165 57.339 270.165C57.339 270.165 58.0099 276.993 55.8426 284.206C51.7616 297.772 19.4926 294.242 13.0143 290.342C11.2174 289.259 8.87616 285.059 6.89132 278.789C1.71245 262.47 -1.08314 232.172 14.3486 206.725C27.5795 184.905 48.581 175.449 66.879 171.528C78.0957 169.11 88.2997 168.782 95.0799 168.956C100.342 169.082 103.543 169.516 103.543 169.516Z" fill="white"/>
<g opacity="0.25">
<path d="M89.5913 232.814C87.5295 231.423 85.272 230.34 82.8678 229.711C82.6302 229.648 82.3925 229.592 82.148 229.536C63.4452 225.412 53.6256 249.12 53.6256 249.12C48.3558 245.296 46.5177 238.266 49.2784 232.366C52.3382 225.81 58.6499 218.285 71.6559 215.091C82.3025 212.477 91.9501 222.109 89.5913 232.814Z" fill="#1E3A59"/>
</g>
<g opacity="0.25">
<path d="M57.3297 270.163C57.3297 270.163 58.0006 276.992 55.8341 284.204C51.7525 297.77 19.4841 294.24 13.0052 290.341C11.2091 289.257 8.86781 285.058 6.88281 278.788C11.0483 281.318 17.5411 283.68 27.144 283.526C44.1084 283.251 50.5468 277.769 52.1816 270.765C52.7085 268.509 54.5481 266.754 56.8299 266.351C58.7065 266.019 60.8452 265.302 62.4177 263.789C61.4813 268.157 57.3297 270.163 57.3297 270.163Z" fill="#1E3A59"/>
</g>
<path d="M103.164 172.284C101.883 172.126 100.435 172.01 99.0525 171.92C97.6512 171.837 96.2464 171.771 94.8367 171.743C92.0202 171.684 89.1944 171.701 86.3757 171.845C80.7383 172.113 75.1185 172.761 69.5916 173.823C58.5601 175.984 47.8354 179.839 38.4764 185.879C33.8021 188.891 29.4892 192.44 25.6823 196.47C21.8656 200.493 18.5842 205.01 15.8012 209.816C13.0579 214.642 10.8285 219.777 9.2392 225.124C7.64149 230.465 6.56808 235.978 6.02501 241.553C5.51343 247.13 5.43228 252.764 5.89575 258.361C6.09979 261.16 6.4542 263.948 6.91193 266.713C7.36345 269.479 7.947 272.221 8.67596 274.909C9.40073 277.593 10.2617 280.239 11.3206 282.725C11.8539 283.955 12.4332 285.173 13.0866 286.204C13.2466 286.471 13.4074 286.732 13.5752 286.939C13.7394 287.159 13.9065 287.412 14.0539 287.541L14.2733 287.788C14.3334 287.839 14.3655 287.842 14.4033 287.882C14.4209 287.899 14.4376 287.918 14.453 287.938C14.4873 287.963 14.5537 287.992 14.6026 288.019L14.9185 288.188C15.9187 288.653 17.2088 289.054 18.4948 289.383C19.797 289.713 21.145 289.973 22.501 290.203C25.2226 290.637 27.995 290.92 30.7642 291.013C33.5304 291.107 36.3037 291.059 39.0077 290.756C41.7055 290.456 44.3704 289.949 46.7488 289.042C47.3596 288.838 47.9033 288.552 48.4723 288.303C48.9979 288.007 49.5445 287.734 50.0064 287.391C50.952 286.731 51.7858 285.992 52.3317 285.133C52.5889 284.696 52.86 284.269 53.0082 283.783L53.1472 283.432C53.1941 283.299 53.2374 283.121 53.2828 282.967C53.3738 282.649 53.4645 282.332 53.5399 282.007C53.8628 280.719 54.1095 279.401 54.2871 278.067C54.4632 276.733 54.5778 275.384 54.6169 274.034C54.64 273.36 54.6435 272.685 54.6295 272.017L54.5918 270.961C54.5421 269.782 55.0818 268.557 55.9861 267.798C56.098 267.702 56.214 267.612 56.3341 267.53L56.5236 267.406L56.6907 267.296C56.8004 267.217 56.9136 267.143 57.022 267.059C57.2393 266.895 57.4518 266.722 57.651 266.539C58.0501 266.175 58.4142 265.784 58.7049 265.368C59.2968 264.536 59.6658 263.648 59.7673 262.689C59.8406 262.214 59.8099 261.709 59.7624 261.197C59.6729 260.697 59.5891 260.204 59.3899 259.694C59.0285 258.679 58.4401 257.65 57.7062 256.664C56.9745 255.676 56.0897 254.737 55.1329 253.857C54.652 253.419 54.1566 252.991 53.6392 252.59C53.3806 252.391 53.1221 252.192 52.8592 252.005C52.609 251.822 52.3114 251.62 52.1171 251.493L52.0814 251.47C50.9282 250.721 50.511 249.266 51.0282 248.043C51.2629 247.486 51.4601 247.059 51.6871 246.587C51.9073 246.125 52.1365 245.675 52.3678 245.224C52.8326 244.327 53.3148 243.442 53.8335 242.576C54.8505 240.834 56.0184 239.176 57.2785 237.574C59.8175 234.394 62.9599 231.561 66.6954 229.533C68.5594 228.523 70.5883 227.762 72.6864 227.309C74.7859 226.854 76.956 226.772 79.0583 226.98L80.6239 227.195C81.1377 227.299 81.6457 227.421 82.1539 227.535C83.1742 227.759 84.1722 228.117 85.1249 228.523C87.0322 229.344 88.799 230.4 90.3744 231.659C90.9789 232.142 91.0782 233.024 90.5946 233.629C90.162 234.171 89.4079 234.307 88.8215 233.982L88.8076 233.974C87.2274 233.101 85.594 232.374 83.9139 231.91C83.071 231.685 82.2365 231.496 81.3796 231.393L80.0956 231.244L78.816 231.202C75.4116 231.218 72.1708 232.25 69.3214 234.068C66.4538 235.872 64.0077 238.415 61.8075 241.178C60.6976 242.559 59.6856 244.034 58.7337 245.553C58.255 246.31 57.8083 247.089 57.3779 247.871C57.1627 248.264 56.96 248.661 56.7636 249.057C56.5714 249.44 56.3673 249.877 56.2283 250.196L55.1387 246.745C55.5476 247.016 55.8426 247.227 56.1724 247.472C56.4946 247.708 56.8057 247.952 57.1152 248.197C57.7309 248.691 58.3298 249.206 58.9156 249.739C60.0821 250.813 61.1906 251.98 62.1808 253.312C63.1677 254.639 64.0532 256.127 64.6619 257.831C64.98 258.672 65.1742 259.603 65.3132 260.524C65.4098 261.446 65.4503 262.395 65.3196 263.351C65.1142 265.267 64.3328 267.13 63.241 268.636C62.6994 269.4 62.0753 270.073 61.4086 270.68C61.0753 270.984 60.7279 271.268 60.3693 271.539C60.191 271.674 60.0045 271.802 59.8192 271.931L59.5334 272.118L59.4622 272.164C59.4175 272.192 59.4901 272.147 59.4979 272.141C59.5426 272.11 59.588 272.076 59.6307 272.039C59.9823 271.747 60.2025 271.247 60.1814 270.79L60.2199 271.898C60.236 272.673 60.2318 273.442 60.2059 274.21C60.1604 275.746 60.0318 277.277 59.8299 278.805C59.6265 280.332 59.3427 281.856 58.9633 283.367C58.8746 283.746 58.7683 284.122 58.6608 284.499C58.6042 284.691 58.5622 284.865 58.493 285.073L58.2485 285.734C57.9508 286.626 57.4749 287.449 56.9829 288.238C55.9561 289.814 54.5786 291.024 53.1676 292.004C52.4595 292.514 51.7194 292.897 50.9807 293.3C50.2342 293.64 49.4871 294.012 48.7294 294.271C45.7031 295.417 42.6433 295.973 39.6122 296.315C36.5769 296.653 33.5612 296.703 30.56 296.601C27.5588 296.499 24.576 296.197 21.5972 295.72C20.1077 295.469 18.6199 295.182 17.1221 294.804C15.6159 294.409 14.1273 293.981 12.5052 293.232L11.8658 292.894C11.7567 292.833 11.659 292.786 11.5423 292.713L11.1628 292.438C10.9195 292.254 10.6512 292.052 10.445 291.861L9.92844 291.314C9.55806 290.938 9.32253 290.588 9.0555 290.23C8.77667 289.868 8.5571 289.516 8.34469 289.164C7.45777 287.752 6.80082 286.35 6.18513 284.935C4.98231 282.108 4.05833 279.248 3.2777 276.362C2.49568 273.476 1.87641 270.564 1.39758 267.633C0.912543 264.703 0.538603 261.757 0.322616 258.798C-0.165992 252.885 -0.0834502 246.931 0.461017 241.013C1.03621 235.097 2.17681 229.223 3.88919 223.503C5.59101 217.781 7.98549 212.251 10.946 207.044C13.9436 201.862 17.492 196.981 21.6252 192.625C25.7467 188.261 30.4154 184.422 35.4461 181.181C45.5242 174.678 56.9324 170.606 68.5287 168.334C74.3408 167.217 80.2213 166.541 86.1159 166.26C89.0633 166.11 92.016 166.092 94.9697 166.154C96.4472 166.183 97.9254 166.252 99.4056 166.339C100.903 166.44 102.335 166.548 103.918 166.744C105.451 166.934 106.539 168.329 106.35 169.862C106.16 171.394 104.764 172.482 103.232 172.293L103.164 172.284Z" fill="#1E3A59"/>
<g opacity="0.25">
<path d="M213.641 170.808C213.537 170.941 213.431 171.067 213.319 171.2C211.167 173.772 208.868 176.246 206.414 178.615C205.219 179.775 203.976 180.908 202.704 182.026C199.293 184.989 195.728 187.666 192.038 190.056C191.556 190.364 191.081 190.671 190.598 190.972C186.978 193.243 183.239 195.235 179.416 196.968C174.999 198.974 170.47 200.617 165.865 201.91C165.655 201.972 165.452 202.028 165.242 202.085C163.481 202.56 161.719 202.986 159.945 203.364C139.041 207.809 117.032 205.201 97.7495 195.773C95.7646 194.795 93.7999 193.754 91.8779 192.635C83.4771 187.764 75.7123 181.516 68.9259 173.912C68.2271 173.129 67.535 172.332 66.8711 171.528C78.0884 169.11 88.2924 168.782 95.0726 168.956C95.1488 168.069 95.2194 167.174 95.2816 166.266C95.8833 158.053 96.121 149.066 95.8407 139.141L176.984 154.894L182.155 165.49L184.882 171.074C193.82 171.759 204.178 171.99 213.641 170.808Z" fill="#1E3A59"/>
</g>
<path d="M239.031 112.88C236.196 128.263 229.456 143.025 218.915 155.628C216.764 158.197 214.466 160.673 212.008 163.044C210.815 164.202 209.573 165.334 208.301 166.451C204.45 169.798 200.402 172.779 196.196 175.4C192.575 177.668 188.832 179.663 185.011 181.395C180.397 183.488 175.655 185.187 170.838 186.507C169.079 186.982 167.314 187.41 165.542 187.791C133.081 194.696 97.9589 184.596 74.5211 158.34C39.9862 119.669 43.898 60.6017 83.2414 26.4092C90.8231 19.8291 99.1687 14.6334 107.949 10.8453C108.971 10.3924 110.01 9.96752 111.058 9.56487C113.85 8.46896 116.678 7.50943 119.535 6.68893C126.144 4.79284 132.91 3.62834 139.693 3.18255C146.473 2.72963 153.29 2.99745 159.997 3.97513C162.13 4.28546 164.251 4.66421 166.365 5.11992C169.532 5.80481 172.664 6.64067 175.762 7.65202C191.198 12.645 205.52 21.6356 217.021 34.5207C236.888 56.7648 244.028 85.7545 239.031 112.88Z" fill="white"/>
<path d="M145.517 190.196C118.542 190.196 92.4615 178.886 74.2974 158.538C57.6082 139.851 49.285 115.844 50.8608 90.941C52.4487 65.838 63.8784 42.8402 83.0442 26.1831C90.5243 19.6914 98.8636 14.4384 107.83 10.5702C108.8 10.1402 109.85 9.70762 110.95 9.28558C113.734 8.1923 116.596 7.22175 119.451 6.40125C126.017 4.51741 132.821 3.33399 139.672 2.88355C146.462 2.43125 153.313 2.6975 160.038 3.67907C162.203 3.99389 164.352 4.38025 166.427 4.82727C169.663 5.52737 172.835 6.38201 175.854 7.36729C191.792 12.5226 206.105 21.8429 217.243 34.3211C236.506 55.8886 244.554 84.5419 239.324 112.933C236.423 128.673 229.444 143.502 219.143 155.818C216.961 158.426 214.63 160.929 212.214 163.259C211.101 164.339 209.884 165.456 208.496 166.675C204.689 169.984 200.603 173.005 196.352 175.653C192.798 177.88 189.023 179.903 185.133 181.666C180.578 183.732 175.795 185.458 170.916 186.794C169.154 187.27 167.367 187.703 165.603 188.083C158.926 189.503 152.192 190.196 145.517 190.196ZM146.097 3.26742C143.966 3.26742 141.836 3.33787 139.711 3.48C132.902 3.92733 126.141 5.10362 119.617 6.97566C116.779 7.79089 113.936 8.75538 111.166 9.84261C110.073 10.262 109.032 10.6907 108.07 11.1177C99.156 14.9627 90.8699 20.1828 83.4359 26.6343C64.3921 43.1853 53.0351 66.0364 51.4569 90.9789C49.8916 115.721 58.1612 139.573 74.7427 158.141C97.2603 183.364 132.028 194.614 165.478 187.499C167.231 187.122 169.008 186.691 170.759 186.218C175.607 184.89 180.36 183.176 184.886 181.123C188.753 179.37 192.504 177.359 196.036 175.147C200.26 172.514 204.32 169.513 208.103 166.225C209.483 165.015 210.692 163.904 211.798 162.83C214.199 160.514 216.516 158.027 218.685 155.435C228.92 143.198 235.854 128.464 238.736 112.826C243.933 84.6171 235.936 56.1482 216.797 34.7194C205.73 22.3204 191.507 13.0591 175.67 7.93597C172.669 6.95643 169.516 6.10737 166.301 5.41193C164.24 4.96754 162.104 4.58351 159.952 4.27055C155.373 3.60226 150.734 3.26742 146.097 3.26742Z" fill="#371B45"/>
<g opacity="0.25">
<path d="M74.5166 158.338C97.9529 184.599 133.079 194.699 165.538 187.788C167.312 187.41 169.076 186.983 170.831 186.506C175.65 185.188 180.391 183.487 185.005 181.396C188.825 179.661 192.571 177.669 196.189 175.403C200.399 172.782 204.443 169.801 208.299 166.453C209.566 165.332 210.809 164.203 212.006 163.048C214.463 160.674 216.757 158.194 218.909 155.627C229.45 143.023 236.195 128.264 239.027 112.877C240.585 104.427 240.965 95.7895 240.147 87.2349C237.103 101.856 230.504 115.84 220.448 127.864C218.301 130.439 216.001 132.912 213.543 135.286C212.354 136.441 211.11 137.57 209.837 138.691C205.982 142.039 201.937 145.02 197.733 147.641C194.109 149.907 190.37 151.9 186.549 153.635C181.935 155.725 177.188 157.426 172.376 158.745C170.614 159.22 168.849 159.648 167.076 160.026C134.618 166.936 99.4974 156.837 76.0548 130.575C62.3752 115.26 54.7354 96.7433 52.933 77.8457C47.1434 105.58 54.131 135.515 74.5166 158.338Z" fill="#1E3A59"/>
</g>
<path d="M145.524 192.199C117.985 192.199 91.3548 180.65 72.8079 159.874C55.7597 140.784 47.2575 116.259 48.8667 90.8162C50.4888 65.1746 62.1623 41.6845 81.7358 24.6735C89.372 18.0462 97.8855 12.6833 107.041 8.73376C108.023 8.29806 109.106 7.85259 110.236 7.41813C113.066 6.30747 115.988 5.31645 118.903 4.47888C125.606 2.55563 132.552 1.34722 139.545 0.887781C146.472 0.424154 153.466 0.698335 160.332 1.6996C162.541 2.02079 164.735 2.41521 166.853 2.87201C170.157 3.58638 173.396 4.45917 176.48 5.46571C192.751 10.7285 207.366 20.2467 218.741 32.9898C238.418 55.0221 246.64 84.2936 241.298 113.298V113.298C238.334 129.377 231.206 144.525 220.684 157.105C218.455 159.767 216.075 162.323 213.609 164.702C212.476 165.801 211.235 166.941 209.822 168.182C205.928 171.567 201.756 174.65 197.415 177.355C193.79 179.626 189.936 181.692 185.965 183.492C181.314 185.602 176.431 187.363 171.449 188.727C169.647 189.214 167.826 189.656 166.028 190.042C159.212 191.492 152.339 192.199 145.524 192.199ZM146.103 5.27113C144.016 5.27113 141.93 5.3405 139.849 5.47952C133.181 5.91786 126.561 7.06947 120.174 8.9021C117.397 9.69995 114.613 10.644 111.902 11.7079C110.827 12.1208 109.818 12.5363 108.886 12.9497C100.143 16.7212 92.0313 21.8318 84.7536 28.1482C66.118 44.3441 55.0037 66.7037 53.4595 91.1067C51.9284 115.311 60.019 138.644 76.2407 156.809C98.2802 181.497 132.315 192.505 165.066 185.542C166.782 185.173 168.524 184.75 170.242 184.286C174.981 182.988 179.634 181.31 184.064 179.3C187.849 177.585 191.52 175.617 194.977 173.451C199.117 170.872 203.091 167.934 206.795 164.715C208.141 163.533 209.326 162.444 210.409 161.394C212.763 159.123 215.03 156.688 217.154 154.152C227.168 142.18 233.952 127.763 236.771 112.464C241.854 84.8688 234.032 57.0186 215.308 36.0545C204.477 23.9199 190.558 14.8563 175.058 9.8427C172.117 8.8824 169.032 8.05135 165.882 7.37018C163.867 6.93572 161.776 6.55993 159.669 6.25348C155.185 5.59962 150.642 5.27113 146.103 5.27113Z" fill="#371B45"/>
<path d="M145.522 192.866C117.794 192.866 90.9817 181.236 72.3077 160.317C55.1397 141.093 46.577 116.395 48.1983 90.7727C49.8317 64.9514 61.5856 41.2975 81.2955 24.1682C88.984 17.4955 97.5558 12.0961 106.775 8.11896C107.761 7.68186 108.854 7.23173 109.995 6.79355C112.84 5.67716 115.781 4.67946 118.716 3.83568C125.466 1.8991 132.458 0.682767 139.499 0.219916C146.472 -0.246038 153.514 0.029377 160.426 1.03732C162.649 1.36083 164.858 1.75789 166.992 2.21764C170.319 2.93744 173.579 3.81582 176.685 4.8295C193.066 10.1283 207.784 19.7124 219.237 32.5433C239.053 54.7305 247.332 84.2081 241.951 113.418C238.968 129.609 231.789 144.863 221.194 157.532C218.95 160.212 216.553 162.785 214.07 165.18C212.93 166.286 211.683 167.433 210.26 168.682C206.337 172.092 202.136 175.197 197.766 177.919C194.117 180.206 190.236 182.286 186.238 184.098C181.556 186.222 176.638 187.996 171.623 189.369C169.808 189.86 167.975 190.304 166.166 190.693C159.303 192.153 152.384 192.866 145.522 192.866ZM146.099 5.93783C144.027 5.93783 141.957 6.00641 139.891 6.14435C133.269 6.57958 126.697 7.72283 120.355 9.54273C117.598 10.3345 114.836 11.272 112.144 12.3285C111.075 12.7388 110.076 13.1501 109.154 13.559C100.468 17.3062 92.4145 22.3797 85.1882 28.651C66.6891 44.7287 55.6565 66.9243 54.1238 91.148C52.604 115.172 60.6341 138.332 76.7368 156.363C98.6165 180.873 132.406 191.805 164.925 184.888C166.628 184.522 168.359 184.102 170.065 183.641C174.768 182.353 179.387 180.686 183.785 178.691C187.544 176.988 191.189 175.034 194.62 172.884C198.731 170.323 202.677 167.406 206.355 164.21C207.69 163.038 208.867 161.956 209.941 160.914C212.28 158.658 214.532 156.24 216.639 153.722C226.58 141.838 233.313 127.529 236.113 112.342C241.158 84.951 233.393 57.3073 214.808 36.4983C204.055 24.4519 190.237 15.454 174.85 10.4767C171.929 9.52318 168.865 8.69818 165.739 8.02198C163.738 7.59047 161.662 7.21746 159.57 6.91318C155.118 6.26367 150.607 5.93783 146.099 5.93783Z" fill="#1E3A59"/>
<path d="M231.661 135.728C190.965 189.285 110.559 186.847 85.9161 125.398C69.1507 83.5918 97.785 34.9774 139.6 21.5228C170.034 11.7298 204.041 15.2802 232.193 57.64C232.193 57.64 241.71 78.3003 240.557 94.5017C239.405 110.704 235.51 126.279 235.51 126.279L231.661 135.728Z" fill="#0056A8"/>
<path opacity="0.35" d="M85.9177 125.397C110.558 186.845 190.966 189.282 231.661 135.73L232.439 133.814C177.763 162.992 108.506 147.657 82.4175 85.9897C79.8904 98.948 80.7464 112.496 85.9177 125.397Z" fill="#111A28"/>
<path d="M157.087 185.677C144.874 185.677 132.884 183.394 121.87 178.814C100.146 169.78 83.7903 152.857 74.5723 129.876C66.1066 108.768 67.2065 84.8719 77.671 62.5888C89.2946 37.8366 111.21 18.2405 136.296 10.1687C150.235 5.68281 163.595 4.091 176.006 5.43843L176.233 5.4631L176.45 5.53354C192.714 10.7942 207.319 20.3051 218.685 33.0379C238.347 55.0527 246.562 84.3011 241.223 113.283C238.263 129.349 231.14 144.485 220.626 157.056C218.399 159.716 216.021 162.269 213.556 164.646C212.424 165.746 211.185 166.884 209.772 168.124C205.88 171.506 201.712 174.588 197.375 177.29L197.067 177.45C184.15 182.928 170.485 185.677 157.087 185.677ZM167.313 9.42783C157.894 9.42783 147.957 11.0943 137.66 14.4078C113.728 22.1079 92.8092 40.8272 81.7015 64.482C71.7681 85.6347 70.7037 108.27 78.705 128.218C87.4678 150.064 102.986 166.138 123.58 174.703C145.53 183.831 171.613 183.361 195.168 173.418C199.253 170.862 203.18 167.953 206.842 164.77C208.191 163.587 209.377 162.497 210.46 161.446C212.816 159.174 215.086 156.737 217.211 154.198C227.233 142.216 234.022 127.788 236.844 112.476C241.932 84.858 234.102 56.9851 215.363 36.0037C204.573 23.9165 190.723 14.8733 175.298 9.84118C172.683 9.5653 170.018 9.42783 167.313 9.42783Z" fill="#1E3A59"/>
<path d="M157.636 175.691C153.814 175.691 149.984 175.437 146.165 174.922C117.686 171.077 95.0984 153.278 84.1945 126.088C76.6765 107.342 77.6545 86.1179 86.9493 66.3264C97.2766 44.3365 116.747 26.9269 139.033 19.7562C177.415 7.40604 209.278 19.8062 233.739 56.6127L233.878 56.8635C234.275 57.7245 243.582 78.1461 242.409 94.6329C241.258 110.809 237.351 126.571 237.311 126.728L237.229 126.978L233.287 136.654L233.139 136.85C214.454 161.44 186.307 175.691 157.636 175.691ZM166.369 18.8889C158.026 18.8889 149.29 20.3538 140.169 23.2884C118.845 30.1498 100.206 46.8283 90.3085 67.9038C81.4563 86.7533 80.5078 106.926 87.6386 124.707C98.0312 150.621 119.544 167.584 146.661 171.244C177.736 175.439 209.661 161.476 230.036 134.799L233.742 125.703C234.108 124.201 237.634 109.459 238.707 94.3693C239.767 79.4845 231.346 60.2839 230.565 58.5417C212.987 32.1519 191.471 18.8889 166.369 18.8889Z" fill="#1E3A59"/>
<path d="M44.6672 134.544C49.3912 152.366 64.0325 164.517 77.3731 161.682C90.7139 158.846 97.6979 142.099 92.9734 124.278C92.9462 124.166 92.9111 124.048 92.8776 123.936C88.0621 106.301 73.5145 94.3239 60.2675 97.1404C49.9622 99.3307 43.4505 109.823 43.1968 122.698C43.124 126.489 43.593 130.491 44.6672 134.544Z" fill="white"/>
<g opacity="0.25">
<path d="M44.6674 134.544C49.3913 152.365 64.0327 164.517 77.3733 161.681C90.714 158.846 97.6981 142.098 92.9735 124.278C92.9463 124.165 92.9113 124.047 92.8778 123.936C91.8957 126.077 90.0912 128.363 86.8371 128.413C81.1383 128.499 68.3797 119.106 68.3797 119.106C68.3797 119.106 57.4488 120.593 43.1967 122.698C43.1241 126.488 43.5932 130.491 44.6674 134.544Z" fill="#1E3A59"/>
</g>
<path d="M73.5131 165.052C60.0152 165.052 46.4013 152.676 41.7972 135.306H41.7964C38.8485 124.184 40.0379 113.118 45.0603 104.947C48.5795 99.2218 53.6239 95.5189 59.6493 94.2378C74.4913 91.0812 90.7297 104.218 95.8443 123.516C98.793 134.638 97.6036 145.703 92.5812 153.874C89.062 159.6 84.0178 163.303 77.9924 164.584C76.5096 164.899 75.0111 165.052 73.5131 165.052ZM47.5356 133.785C51.8541 150.072 64.9649 161.282 76.7574 158.776C81.154 157.842 84.8762 155.072 87.5226 150.766C91.6366 144.073 92.6017 134.454 90.1055 125.037C85.7885 108.749 72.6791 97.5425 60.8844 100.045C56.4879 100.98 52.7657 103.75 50.1192 108.056C46.0052 114.749 45.0401 124.367 47.5364 133.785L47.5356 133.785Z" fill="#1E3A59"/>
<path d="M46.4975 147.958C54.3706 160.008 67.6268 163.578 76.1073 155.929C84.5878 148.281 85.0805 132.313 77.2074 120.262C69.3349 108.211 56.0781 104.642 47.5976 112.29C39.117 119.938 38.6244 135.907 46.4975 147.958Z" fill="white"/>
<path d="M65.7195 160.269C64.9747 160.269 64.2178 160.219 63.4512 160.12C56.9385 159.274 50.6647 154.903 46.2371 148.127C38.2963 135.973 38.813 119.793 47.3895 112.059C50.9595 108.839 55.4083 107.469 60.2541 108.098C66.7659 108.944 73.0398 113.316 77.4668 120.092C85.4067 132.245 84.8901 148.425 76.3144 156.159C73.3095 158.869 69.6819 160.269 65.7195 160.269ZM57.9895 108.57C54.1793 108.57 50.6934 109.915 47.8046 112.519C39.4464 120.058 38.9759 135.879 46.7567 147.787C51.0852 154.412 57.1984 158.683 63.5308 159.505C68.1917 160.111 72.4671 158.794 75.8991 155.698C84.2573 148.16 84.7278 132.339 76.947 120.431C72.6193 113.807 66.506 109.536 60.1737 108.713C59.4357 108.617 58.7068 108.57 57.9895 108.57Z" fill="#371B45"/>
<g opacity="0.26">
<path d="M83.0748 140.183C83.0287 135.157 81.584 130.131 79.1672 125.688C78.295 137.16 69.7222 143.985 59.1848 141.133C52.3753 139.294 46.3137 133.829 42.5788 126.952C42.5194 127.675 42.4992 128.424 42.5048 129.186C42.6292 141.984 51.8121 154.82 63.0163 157.856C74.221 160.89 83.1978 152.973 83.0748 140.183Z" fill="#1E3A59"/>
</g>
<path d="M65.9265 162.994C55.1726 162.995 44.4013 152.706 40.4344 137.977C37.8888 128.526 38.8055 118.936 42.8877 112.323C45.5644 107.987 49.3723 105.205 53.8992 104.279C65.6833 101.874 78.3342 112.714 82.7111 128.963C85.2567 138.414 84.3392 148.004 80.2572 154.616C77.5797 158.953 73.7718 161.735 69.2449 162.66C68.1441 162.885 67.0356 162.994 65.9265 162.994ZM57.1356 109.892C56.4454 109.892 55.7619 109.959 55.0885 110.097C51.4473 110.841 49.1911 113.414 47.9395 115.442C44.7022 120.687 44.0392 128.534 46.1666 136.433H46.1674C49.6094 149.218 59.6328 158.565 68.0553 156.843C71.6965 156.099 73.9527 153.526 75.2051 151.498C78.4424 146.253 79.1054 138.406 76.978 130.507C73.8095 118.745 65.0711 109.892 57.1356 109.892Z" fill="#1E3A59"/>
<g opacity="0.5">
<path d="M123.236 47.1875C123.236 47.1875 162.991 37.1003 191.652 52.29C191.682 52.306 191.712 52.322 191.743 52.338C197.772 55.5394 202.807 60.2972 206.356 66.0713C211.05 73.707 213.148 79.6508 214.789 84.9549C219.773 101.087 219.045 109.577 219.045 109.577C225.728 98.2229 227.989 86.9517 223.972 73.4733C223.572 72.1461 223.111 70.7916 222.592 69.4164C222.474 69.099 222.349 68.7874 222.219 68.4746C222.225 68.47 222.22 68.4633 222.208 68.4572C220.959 65.745 219.18 62.2433 216.84 58.4599C209.786 47.0436 197.644 33.0467 179.539 30.339C145.686 25.276 121.365 45.9124 123.236 47.1875Z" fill="white"/>
</g>
<g opacity="0.5">
<path d="M118.191 94.596C118.468 102.631 113.023 109.355 106.03 109.615C99.0357 109.876 93.1405 103.574 92.8637 95.5396C92.5862 87.5049 98.0307 80.7802 105.025 80.5195C112.019 80.2594 117.915 86.5614 118.191 94.596Z" fill="white"/>
</g>
<g opacity="0.5">
<path d="M111.671 121.741C111.501 125.057 109.024 127.638 106.138 127.505C103.252 127.372 101.05 124.575 101.22 121.259C101.39 117.942 103.867 115.362 106.753 115.495C109.639 115.627 111.841 118.424 111.671 121.741Z" fill="white"/>
</g>
<path d="M254.714 112.851C254.714 112.851 246.426 114.944 244.5 124.92C242.34 136.104 246.054 140.238 254.113 143.45C260.978 146.187 271.989 153.418 279.568 149.546C284.395 147.08 284.463 140.418 289.041 140.484L253.271 117.76L254.714 112.851Z" fill="white"/>
<g opacity="0.25">
<path d="M289.041 140.482C284.463 140.419 284.394 147.08 279.571 149.547C271.988 153.419 260.98 146.185 254.11 143.453C246.828 140.545 243.096 136.89 244.038 127.944C245.954 131.25 249.364 133.388 254.047 135.254C261.966 138.413 274.665 146.751 283.407 142.285C284.183 141.888 284.851 141.401 285.441 140.853C286.432 139.932 287.899 139.755 289.041 140.482Z" fill="#1E3A59"/>
</g>
<path d="M255.397 115.562C255.428 115.556 255.323 115.591 255.274 115.61L255.066 115.691C254.926 115.742 254.773 115.818 254.626 115.881C254.329 116.023 254.026 116.169 253.735 116.345C253.145 116.675 252.585 117.067 252.048 117.481C250.991 118.335 250.088 119.354 249.364 120.495C248.65 121.644 248.14 122.929 247.754 124.274L247.51 125.305C247.424 125.644 247.381 126.058 247.315 126.431C247.171 127.199 247.104 127.949 247.021 128.699C246.906 130.179 246.885 131.634 247.117 132.923C247.359 134.21 247.791 135.316 248.485 136.28C249.177 137.244 250.17 138.093 251.382 138.841C252.608 139.594 253.949 140.223 255.469 140.868C257.143 141.579 258.664 142.345 260.177 143.087C261.683 143.826 263.159 144.558 264.628 145.237C266.098 145.918 267.567 146.53 269.037 147.036C270.499 147.544 271.965 147.946 273.393 148.13C274.82 148.309 276.194 148.289 277.45 147.959C277.758 147.866 278.07 147.775 278.364 147.645C278.678 147.536 278.896 147.368 279.183 147.248C279.685 146.905 280.202 146.547 280.664 146.01C281.629 144.999 282.439 143.607 283.549 142.118C284.101 141.385 284.775 140.583 285.747 139.948C286.708 139.298 287.966 139.012 289.06 139.087C289.83 139.14 290.41 139.807 290.357 140.577C290.31 141.246 289.8 141.772 289.161 141.863L289.019 141.883C288.43 141.967 288.011 142.171 287.618 142.525C287.219 142.872 286.843 143.426 286.471 144.087C285.707 145.384 285.027 147.042 283.823 148.613C283.257 149.413 282.486 150.156 281.653 150.826C280.748 151.458 279.832 151.951 278.858 152.299C276.906 152.996 274.86 153.189 272.945 153.056C269.094 152.796 265.668 151.581 262.447 150.274C259.226 148.981 256.172 147.39 253.275 146.248C251.685 145.623 249.938 144.895 248.29 143.9C246.634 142.912 244.964 141.603 243.659 139.853C242.341 138.115 241.516 136.011 241.16 133.995C240.796 131.967 240.839 130.034 240.979 128.171C241.07 127.248 241.171 126.325 241.343 125.443C241.429 124.989 241.476 124.564 241.594 124.088L241.945 122.67C242.49 120.792 243.263 118.934 244.387 117.261C245.508 115.592 246.907 114.104 248.504 112.894C249.314 112.305 250.145 111.745 251.048 111.302C251.491 111.068 251.955 110.868 252.428 110.673C252.671 110.581 252.901 110.485 253.16 110.402L253.547 110.276C253.699 110.232 253.793 110.2 254.028 110.141C255.525 109.763 257.044 110.67 257.422 112.167C257.801 113.664 256.895 115.184 255.397 115.562Z" fill="#1E3A59"/>
<path d="M244.144 133.331C244.144 133.331 258.001 136.551 258.433 144.336C258.628 147.852 258.001 151.75 248.856 149.959C239.713 148.167 238.151 135.37 244.144 133.331Z" fill="white"/>
<g opacity="0.25">
<path d="M248.853 149.959C242.52 148.714 239.822 142.194 240.759 137.63C241.843 140.838 244.401 143.78 248.44 144.57C255.01 145.856 257.184 144.214 257.812 141.879C258.161 142.641 258.379 143.459 258.427 144.332C258.623 147.855 257.994 151.748 248.853 149.959Z" fill="#1E3A59"/>
</g>
<path d="M252.921 153.382C251.558 153.382 250.021 153.212 248.29 152.873C241.465 151.535 237.988 145.454 237.646 140.37C237.328 135.642 239.505 131.776 243.192 130.521L243.994 130.248L244.82 130.44C246.46 130.821 260.861 134.445 261.401 144.172C261.477 145.53 261.677 149.137 259.01 151.459C257.53 152.748 255.548 153.382 252.921 153.382ZM244.52 136.495C243.755 137.204 243.481 138.654 243.57 139.971C243.772 142.96 245.662 146.308 249.431 147.046C253.881 147.917 254.998 147.08 255.11 146.982C255.328 146.792 255.568 146.208 255.473 144.501C255.26 140.652 248.573 137.654 244.52 136.495Z" fill="#1E3A59"/>
<path d="M152.081 317.127C151.985 317.127 151.889 317.121 151.792 317.108C150.572 316.95 149.712 315.833 149.87 314.614C150.056 313.181 154.613 279.363 171.142 267.55C176.213 263.925 181.888 262.719 188.01 263.966C189.216 264.212 189.993 265.388 189.748 266.592C189.503 267.797 188.332 268.573 187.122 268.33C182.195 267.326 177.817 268.255 173.735 271.17C158.781 281.852 154.329 314.855 154.286 315.188C154.14 316.309 153.183 317.127 152.081 317.127Z" fill="#1E3A59"/>
<path d="M242.253 226.379C241.834 226.379 241.408 226.289 241.003 226.101C216.063 214.498 219.447 170.78 219.604 168.925C219.741 167.291 221.175 166.083 222.809 166.216C224.443 166.353 225.656 167.788 225.52 169.422C225.485 169.835 222.322 210.861 243.508 220.718C244.994 221.41 245.638 223.176 244.947 224.662C244.444 225.743 243.372 226.379 242.253 226.379Z" fill="#1E3A59"/>
<path d="M64.3105 237.38C62.8398 237.38 61.5625 236.287 61.3701 234.79C56.854 199.748 21.4824 201.828 19.9799 201.935C18.3329 202.059 16.9259 200.821 16.8086 199.187C16.6911 197.554 17.9163 196.134 19.5497 196.014C19.9823 195.984 30.2444 195.288 41.2581 199.546C51.6081 203.546 64.5196 212.777 67.2584 234.031C67.4683 235.658 66.3197 237.146 64.6939 237.355C64.5651 237.372 64.4371 237.38 64.3105 237.38Z" fill="#1E3A59"/>
<path d="M201.849 358.508C188.629 358.508 180.773 352.493 180.337 352.149C179.37 351.389 179.203 349.99 179.963 349.023C180.72 348.058 182.117 347.889 183.084 348.645C183.626 349.066 196.022 358.392 216.211 351.57C217.378 351.179 218.64 351.801 219.034 352.966C219.428 354.131 218.802 355.395 217.637 355.788C211.775 357.769 206.482 358.508 201.849 358.508Z" fill="#1E3A59"/>
<path d="M218.752 343.666C206.706 343.666 195.398 340.157 194.705 339.938C193.532 339.567 192.882 338.317 193.252 337.145C193.623 335.972 194.874 335.325 196.045 335.691C196.281 335.766 219.74 343.032 233.659 336.441C234.77 335.915 236.098 336.39 236.624 337.5C237.151 338.612 236.677 339.939 235.565 340.466C230.525 342.852 224.553 343.666 218.752 343.666Z" fill="#1E3A59"/>
<path d="M229.043 325.302C218.06 325.302 209.055 319.562 208.519 319.213C207.488 318.543 207.196 317.163 207.866 316.133C208.536 315.102 209.914 314.81 210.944 315.478C211.109 315.585 227.697 326.1 241.769 317.246C242.811 316.591 244.185 316.904 244.839 317.945C245.494 318.986 245.181 320.36 244.14 321.015C239.095 324.189 233.876 325.302 229.043 325.302Z" fill="#1E3A59"/>
</svg>
