<svg width="296" height="400" viewBox="0 0 296 400" fill="none" xmlns="http://www.w3.org/2000/svg">
<path d="M204.716 280.894C199.895 279.338 195.081 276.704 190.561 272.828C176.203 260.519 173.109 201.818 173.109 201.818L173.175 201.733L199.481 166.487C199.481 166.487 201.478 169.285 204.65 173.909C207.895 178.652 212.368 185.305 217.183 192.826C228.323 210.252 241.275 232.335 244.947 246.016C251.601 270.805 227.975 288.389 204.716 280.894Z" fill="white"/>
<g opacity="0.25">
<path d="M246.024 256.263C244.776 275.363 224.612 287.305 204.716 280.894C199.895 279.337 195.081 276.703 190.561 272.828C176.203 260.519 173.109 201.818 173.109 201.818L173.175 201.732L178.686 194.35C179.98 210.087 184.288 248.939 195.658 258.686C200.177 262.562 219.76 267.864 224.802 268.361C237.299 269.595 238.576 266.483 246.024 256.263Z" fill="#0056A8"/>
</g>
<path d="M215.616 285.002C206.997 285.002 197.576 282.036 188.984 274.67C174.007 261.833 170.819 204.382 170.691 201.943C170.62 200.605 171.648 199.463 172.985 199.393C174.334 199.314 175.465 200.35 175.535 201.688C176.381 217.729 181.012 261.449 192.141 270.987C206.854 283.599 222.664 281.403 231.732 275.692C241.582 269.487 245.75 258.358 242.608 246.647C236 222.008 197.892 168.431 197.508 167.893C196.73 166.802 196.983 165.288 198.073 164.51C199.163 163.732 200.679 163.985 201.456 165.075C203.046 167.302 240.458 219.907 247.294 245.39C251.006 259.232 246.034 272.416 234.317 279.796C229.227 283.002 222.692 285.002 215.616 285.002Z" fill="#1E3A59"/>
<path d="M198.241 236.459C197.325 236.459 196.448 235.938 196.038 235.052C195.475 233.837 196.004 232.396 197.218 231.833C198.254 231.352 222.773 220.145 238.807 226.391C240.055 226.876 240.673 228.282 240.187 229.531C239.701 230.78 238.295 231.397 237.046 230.911C222.942 225.418 199.493 236.125 199.257 236.234C198.927 236.387 198.581 236.459 198.241 236.459Z" fill="#1E3A59"/>
<path d="M221.099 252.125C225.238 247.987 225.238 241.276 221.099 237.137C216.961 232.998 210.25 232.998 206.111 237.137C201.972 241.276 201.972 247.987 206.111 252.125C210.25 256.264 216.961 256.264 221.099 252.125Z" fill="white"/>
<g opacity="0.35">
<path d="M224.202 244.888C224.06 250.739 219.205 255.373 213.353 255.23C207.502 255.088 202.869 250.224 203.011 244.373C203.05 242.756 203.45 241.224 204.14 239.868C205.754 243.487 209.347 246.06 213.574 246.163C217.8 246.266 221.515 243.871 223.294 240.334C223.917 241.722 224.242 243.272 224.202 244.888Z" fill="#371A45"/>
</g>
<path d="M213.618 257.656C213.51 257.656 213.402 257.654 213.293 257.652C209.816 257.567 206.579 256.134 204.18 253.614C201.78 251.095 200.505 247.793 200.59 244.315C200.765 237.136 206.739 231.445 213.927 231.612C217.404 231.697 220.641 233.13 223.04 235.65C225.439 238.168 226.714 241.471 226.63 244.948C226.545 248.426 225.111 251.663 222.592 254.062C220.152 256.387 216.976 257.656 213.618 257.656ZM213.607 236.459C209.192 236.459 205.548 239.995 205.439 244.433C205.33 248.938 208.906 252.693 213.411 252.802C213.478 252.804 213.546 252.805 213.613 252.805C218.028 252.805 221.672 249.269 221.78 244.83C221.89 240.325 218.314 236.571 213.809 236.461C213.742 236.46 213.674 236.459 213.607 236.459Z" fill="#371A45"/>
<path d="M229.564 263.1L224.802 268.362L215.304 278.864C210.069 278.858 207.159 272.762 205.622 265.169C203.435 254.384 204.019 240.578 204.637 236.906C205.418 232.321 212.473 226.338 220.171 230.876C231.298 237.438 229.564 263.1 229.564 263.1Z" fill="white"/>
<g opacity="0.25">
<path d="M224.803 268.361L215.305 278.864C210.07 278.857 207.16 272.762 205.623 265.169C209.098 267.586 215.364 270.266 224.803 268.361Z" fill="#0056A8"/>
</g>
<path d="M229.16 263.073C228.507 258.885 227.913 254.767 227.119 250.761C226.294 246.778 225.363 242.835 223.78 239.389C222.989 237.682 222.061 236.086 220.913 234.834C220.617 234.535 220.334 234.215 220.013 233.964C219.855 233.834 219.71 233.681 219.543 233.567L219.046 233.222C218.721 232.982 218.316 232.822 217.958 232.608C217.776 232.494 217.585 232.426 217.393 232.359L216.822 232.139C215.291 231.595 213.678 231.647 212.159 232.134C210.62 232.587 209.232 233.659 208.233 234.916C207.761 235.559 207.388 236.247 207.194 236.881C207.164 237.037 207.125 237.178 207.084 237.339L206.994 238.016C206.94 238.491 206.897 238.985 206.857 239.484C206.72 241.49 206.677 243.549 206.678 245.599C206.7 249.705 206.866 253.818 207.219 257.878C207.396 259.907 207.635 261.922 207.931 263.911C208.242 265.897 208.645 267.85 209.138 269.738C209.636 271.622 210.254 273.441 211.157 275.019C211.584 275.844 212.158 276.503 212.812 277.124C213.483 277.736 214.319 278.129 215.302 278.462L215.36 278.481C215.574 278.553 215.688 278.785 215.616 278.999C215.567 279.145 215.442 279.245 215.301 279.27C215.022 279.319 214.736 279.354 214.442 279.39C214.296 279.405 214.145 279.432 213.998 279.433L213.554 279.397C213.258 279.364 212.943 279.358 212.646 279.291L211.765 279.021C210.609 278.595 209.552 277.869 208.699 277.029C206.956 275.334 205.806 273.269 204.923 271.201C204.044 269.119 203.47 266.977 203.004 264.839C202.527 262.701 202.203 260.552 201.955 258.405C201.479 254.109 201.36 249.815 201.487 245.526C201.55 243.379 201.665 241.24 201.87 239.062C201.922 238.515 201.979 237.964 202.053 237.397C202.088 237.116 202.141 236.808 202.185 236.515C202.262 236.166 202.356 235.799 202.452 235.445C202.893 234.074 203.58 232.923 204.371 231.89C205.2 230.899 206.115 229.994 207.17 229.269C207.687 228.897 208.242 228.57 208.8 228.256C209.386 227.987 209.953 227.676 210.581 227.494C210.89 227.392 211.196 227.283 211.509 227.194L212.471 226.996C213.108 226.836 213.773 226.849 214.427 226.792C215.081 226.788 215.74 226.842 216.389 226.907C217.022 227.04 217.681 227.121 218.292 227.319L219.204 227.627C219.51 227.729 219.814 227.834 220.09 227.982C220.652 228.27 221.232 228.502 221.774 228.855L222.588 229.381C222.859 229.559 223.094 229.772 223.347 229.967C223.863 230.354 224.292 230.809 224.739 231.252C226.475 233.063 227.661 235.17 228.574 237.286C229.023 238.352 229.396 239.426 229.72 240.507C230.016 241.593 230.282 242.678 230.494 243.764C230.905 245.94 231.158 248.116 231.221 250.289C231.317 252.457 231.241 254.618 231.048 256.76C230.854 258.904 230.523 261.027 229.966 263.127C229.908 263.347 229.682 263.478 229.463 263.42C229.3 263.377 229.186 263.242 229.161 263.086L229.16 263.073Z" fill="#1E3A59"/>
<path d="M133.166 170.819L125.115 261.291L121.791 298.656C121.791 298.656 80.4462 300.019 68.6474 283.716C64.284 277.673 62.2765 260.515 62.3537 241.767C62.4599 218.929 65.6503 193.72 71.4303 183.392C80.7083 166.812 118.941 168.537 133.166 170.819Z" fill="white"/>
<g opacity="0.25">
<path d="M125.115 261.292L121.791 298.657C121.791 298.657 80.4462 300.02 68.6474 283.717C64.284 277.674 62.2765 260.516 62.3537 241.768L88.0389 237.812C88.0389 237.812 96.9567 238.169 96.8216 266.542C96.789 274.482 108.82 277.792 117.985 271.656C121.307 269.428 123.553 265.722 125.115 261.292Z" fill="#0056A8"/>
</g>
<path d="M119.197 301.116C109.597 301.116 77.425 299.979 66.6857 285.137C60.9754 277.245 59.5065 254.327 60.0361 235.512C60.5618 216.822 63.2762 193.004 69.3161 182.207C79.4591 164.076 119.121 166.109 133.548 168.422C134.871 168.634 135.771 169.878 135.559 171.201C135.347 172.524 134.107 173.424 132.78 173.212C116.949 170.673 81.6412 170.111 73.5496 184.575C68.9267 192.839 65.5255 212.887 64.8851 235.648C64.2578 257.944 66.5607 276.689 70.6155 282.293C81.5202 297.363 121.314 296.244 121.715 296.233C123.05 296.164 124.174 297.239 124.218 298.577C124.262 299.916 123.213 301.037 121.874 301.081C121.64 301.089 120.692 301.116 119.197 301.116Z" fill="#1E3A59"/>
<path d="M64.8051 237.902L86.4898 240.14C88.4257 240.339 89.9844 241.816 90.2773 243.74C91.35 250.786 92.983 267.187 86.0137 272.394C80.229 276.716 71.0543 275.934 65.7967 271.226C59.9155 265.96 59.7741 249.915 60.0929 241.982C60.1921 239.516 62.3501 237.649 64.8051 237.902Z" fill="white"/>
<g opacity="0.25">
<path d="M90.2755 243.743C91.3519 250.786 92.9818 267.188 86.0116 272.393C80.2261 276.716 71.0536 275.934 65.7931 271.225C62.1789 267.984 60.733 260.667 60.2305 253.67C61.1122 257.184 62.57 260.057 64.4298 261.968C75.0855 272.915 83.6114 260.596 83.6114 260.596C83.6114 260.596 84.9455 263.682 86.0715 263.887C90.7799 264.74 90.2149 249.91 89.7446 242.243C90.0096 242.691 90.1944 243.196 90.2755 243.743Z" fill="#0056A8"/>
</g>
<path d="M76.8477 277.664C72.2553 277.664 67.5978 276.096 64.1774 273.033C57.9856 267.489 57.2198 253.034 57.6681 241.885C57.7419 240.044 58.5825 238.296 59.9742 237.09C61.3672 235.884 63.2185 235.298 65.0523 235.489H65.0526L86.737 237.727C89.7739 238.04 92.2149 240.363 92.6734 243.376C94.0559 252.452 95.2173 268.544 87.464 274.337C84.4771 276.569 80.685 277.664 76.8477 277.664ZM64.359 240.305C63.9143 240.305 63.4915 240.462 63.1508 240.756C62.7616 241.094 62.5356 241.564 62.5148 242.08C61.9574 255.953 63.7884 266.173 67.4133 269.419C71.9817 273.509 79.834 273.982 84.5608 270.451C88.6813 267.372 89.9215 257.523 87.878 244.106C87.7518 243.277 87.078 242.638 86.2389 242.552L64.5548 240.314H64.5551C64.4895 240.308 64.4237 240.305 64.359 240.305Z" fill="#1E3A59"/>
<path d="M83.1522 247.816C83.0892 250.445 83.2754 253.065 83.2699 255.713C83.2748 258.358 83.1584 261.036 82.6387 263.717C82.1181 266.381 81.1768 269.11 79.369 271.449C78.4718 272.611 77.3611 273.647 76.1071 274.47C74.854 275.297 73.4719 275.911 72.0575 276.35L72.0501 276.352C71.0095 276.675 69.9041 276.093 69.5813 275.052C69.2585 274.012 69.8405 272.906 70.8811 272.584C70.9601 272.559 71.0508 272.538 71.1302 272.524C73.3943 272.133 75.501 271.172 77.1391 269.514C78.79 267.871 79.9484 265.627 80.7326 263.226C81.5235 260.817 81.9689 258.245 82.2875 255.654C82.6186 253.062 82.7619 250.421 83.1522 247.816Z" fill="#1E3A59"/>
<path d="M83.9471 180.767C86.9419 180.821 89.9122 180.94 92.8948 181.097C95.8749 181.253 98.855 181.462 101.838 181.738C104.821 182.008 107.806 182.346 110.8 182.82C113.797 183.305 116.789 183.843 119.851 184.848C121.125 185.266 121.819 186.637 121.401 187.911C120.983 189.185 119.611 189.879 118.337 189.461C118.277 189.441 118.218 189.419 118.161 189.395L118.147 189.39C115.636 188.337 112.814 187.581 109.999 186.903C107.172 186.227 104.288 185.671 101.388 185.18C98.4878 184.682 95.5686 184.248 92.6398 183.865C89.7137 183.483 86.7681 183.135 83.8389 182.855L83.829 182.854C83.2542 182.799 82.8326 182.288 82.8876 181.714C82.9399 181.167 83.4077 180.759 83.9471 180.767Z" fill="#371A45"/>
<path d="M235.211 168.564V168.44C235.276 168.447 235.276 168.486 235.211 168.564Z" fill="white"/>
<path d="M235.211 168.564V168.44C235.276 168.447 235.276 168.486 235.211 168.564Z" fill="white"/>
<path d="M235.211 168.44C235.276 168.447 235.276 168.486 235.211 168.564V168.44Z" fill="white"/>
<path d="M239.615 379.984C239.793 395.459 222.938 396.451 202.288 396.464C187.515 396.47 176.435 393.981 170.917 389.232C161.873 381.455 164.185 337.526 154.385 257.478L205.92 252.795C205.92 252.795 208.928 268.835 212.127 291.666C214.971 311.962 217.966 337.631 219.142 362.171C219.142 362.171 237.678 367.215 239.477 378.362C239.563 378.887 239.609 379.426 239.615 379.984Z" fill="white"/>
<g opacity="0.25">
<path d="M239.615 379.984C239.793 395.459 222.938 396.451 202.288 396.464C187.515 396.47 176.435 393.981 170.917 389.232C161.873 381.455 164.185 337.526 154.385 257.478L205.92 252.795C205.92 252.795 208.928 268.835 212.127 291.666C200.823 299.85 190.74 303.667 180.159 315.884C167.482 330.511 170.326 380.641 194.806 383.886C214.196 386.454 231.549 385.915 239.477 378.362C239.563 378.887 239.609 379.426 239.615 379.984Z" fill="#0056A8"/>
</g>
<path d="M202.211 398.886C186.646 398.887 175.278 396.184 169.331 391.07C163.146 385.75 161.898 369.246 159.412 336.366C157.842 315.588 155.887 289.729 151.973 257.773C151.81 256.443 152.756 255.233 154.086 255.07C155.416 254.907 156.625 255.853 156.788 257.183C160.716 289.251 162.675 315.173 164.25 336C166.407 364.532 167.831 383.382 172.494 387.392C177.477 391.676 188.029 394.036 202.212 394.036C202.236 394.036 202.26 394.036 202.284 394.036C216.121 394.028 228.983 393.573 234.324 388.168C236.293 386.175 237.23 383.508 237.191 380.012C237.093 371.463 223.667 365.923 218.502 364.509L216.804 364.044L216.718 362.285C214.256 310.918 203.639 253.813 203.532 253.242C203.286 251.925 204.153 250.658 205.47 250.411C206.786 250.16 208.054 251.032 208.3 252.349C208.407 252.916 218.853 309.094 221.479 360.352C226.695 362.084 241.906 368.144 242.041 379.957C242.096 384.747 240.66 388.657 237.775 391.578C231.111 398.322 217.76 398.878 202.287 398.887C202.262 398.886 202.236 398.886 202.211 398.886Z" fill="#1E3A59"/>
<g opacity="0.35">
<path d="M153.162 262.487C153.041 261.316 152.908 260.12 152.768 258.911C152.907 260.12 153.035 261.316 153.162 262.487Z" fill="#371A45"/>
</g>
<g opacity="0.35">
<path d="M143.852 261.878C143.722 260.45 143.579 259.009 143.43 257.534C143.579 259.009 143.721 260.457 143.852 261.878Z" fill="#371A45"/>
</g>
<path d="M214.287 258.457C213.912 261.715 213.255 264.789 212.257 267.646C210.287 273.262 207.259 278.162 203.442 282.352C174.016 314.688 97.5676 305.434 95.1767 264.802C95.0913 263.409 95.0978 261.971 95.1964 260.493C95.5445 255.271 96.0305 249.747 96.5823 244.02C99.9387 209.451 105.955 167.335 101.069 138.611C111.4 148.943 180.821 153.469 181.235 146.947C181.668 140.51 126.113 113.133 150.292 116.969C168.092 120.732 194.142 124.095 199.226 138.611C199.534 141.81 201.038 145.935 202.109 148.858L206.7 194.153C209.689 215.96 216.408 240.066 214.287 258.457Z" fill="white"/>
<path d="M207.902 193.988C210.067 200.986 211.441 208.071 212.725 215.251C214.039 222.416 215.349 229.626 216.237 236.956C216.678 240.621 217.016 244.317 217.132 248.052C217.248 251.785 217.179 255.558 216.695 259.344C216.475 261.235 216.116 263.128 215.659 265.005L215.289 266.411C215.155 266.877 214.998 267.34 214.853 267.804C214.566 268.741 214.22 269.629 213.862 270.528C212.424 274.107 210.501 277.493 208.199 280.58C203.589 286.776 197.474 291.673 190.818 295.283C184.144 298.905 176.919 301.313 169.563 302.779C162.198 304.232 154.675 304.746 147.192 304.379C139.711 304.001 132.25 302.744 125.064 300.41C117.903 298.062 110.943 294.626 105.057 289.551C102.13 287.015 99.4905 284.061 97.4132 280.698C95.3248 277.347 93.8198 273.595 93.0424 269.705C92.6599 267.761 92.4333 265.788 92.3863 263.82C92.3666 262.836 92.3681 261.852 92.4275 260.875C92.4756 259.886 92.5537 259.026 92.6151 258.096C92.8824 254.441 93.1902 250.795 93.5332 247.159C94.2099 239.884 94.9888 232.636 95.7545 225.398C97.2903 210.923 98.8093 196.477 99.641 182.031C100.037 174.811 100.278 167.591 100.151 160.403C100.034 153.218 99.5494 146.056 98.3954 139.065L97.018 130.723L102.987 136.693C103.427 137.133 104.099 137.606 104.84 138.025C105.583 138.45 106.404 138.839 107.255 139.198C108.962 139.917 110.787 140.522 112.644 141.062C116.366 142.138 120.225 142.965 124.109 143.673C131.889 145.073 139.803 146.002 147.723 146.612C151.685 146.911 155.652 147.126 159.611 147.224C163.566 147.318 167.528 147.314 171.4 147.059C173.323 146.925 175.258 146.733 176.986 146.368C177.413 146.276 177.824 146.172 178.186 146.057C178.546 145.947 178.861 145.804 178.986 145.729C179.041 145.7 179.025 145.682 178.899 145.827C178.841 145.898 178.741 146.033 178.67 146.218C178.62 146.322 178.598 146.429 178.57 146.546C178.544 146.664 178.542 146.796 178.538 146.858C178.545 147.185 178.609 147.259 178.595 147.242C178.588 147.224 178.538 147.129 178.464 147.02C178.137 146.538 177.497 145.878 176.839 145.28C176.17 144.668 175.437 144.063 174.683 143.47C173.172 142.281 171.575 141.13 169.955 139.999C163.447 135.463 156.615 131.259 149.94 126.563C148.269 125.371 146.611 124.165 144.96 122.739C144.546 122.378 144.133 122.001 143.716 121.58C143.297 121.147 142.876 120.705 142.43 120.047C142.21 119.705 141.968 119.323 141.766 118.683C141.717 118.527 141.672 118.324 141.641 118.133C141.614 117.901 141.591 117.7 141.609 117.418C141.625 116.909 141.822 116.254 142.153 115.776C142.321 115.52 142.494 115.336 142.684 115.156C142.858 115 143.046 114.859 143.211 114.757C143.541 114.554 143.84 114.43 144.09 114.347C144.599 114.178 145.007 114.113 145.367 114.073C146.794 113.936 147.86 114.061 148.961 114.174C149.516 114.242 149.995 114.306 150.604 114.404C151.156 114.503 151.676 114.626 152.154 114.722L158.036 115.915C165.912 117.51 173.905 119.101 181.732 121.865C185.632 123.268 189.516 124.962 193.105 127.43C194.892 128.667 196.598 130.112 198.074 131.841C199.549 133.564 200.774 135.592 201.54 137.799L201.638 138.082L201.667 138.377C201.811 139.853 202.221 141.486 202.707 143.101C203.199 144.726 203.783 146.356 204.389 148.024C204.848 149.282 204.199 150.674 202.94 151.132C201.681 151.59 200.292 150.95 199.834 149.691C199.217 148.019 198.591 146.301 198.044 144.524C197.503 142.737 197.007 140.91 196.788 138.843L196.915 139.42C195.805 136.238 193.333 133.578 190.293 131.512C187.249 129.433 183.708 127.879 180.057 126.591C172.714 124.031 164.895 122.491 157.039 120.943L151.112 119.769C150.606 119.67 150.148 119.564 149.713 119.488C149.33 119.429 148.814 119.359 148.372 119.308C147.482 119.207 146.532 119.152 145.959 119.22C145.821 119.232 145.733 119.262 145.766 119.252C145.777 119.245 145.847 119.227 145.962 119.153C146.088 119.076 146.275 118.933 146.476 118.644C146.665 118.373 146.781 117.966 146.79 117.708C146.793 117.552 146.794 117.476 146.775 117.369C146.769 117.3 146.745 117.222 146.736 117.185C146.683 117.025 146.691 117.084 146.748 117.159C146.863 117.334 147.125 117.635 147.408 117.918C147.698 118.208 148.028 118.508 148.372 118.805C149.764 120 151.357 121.158 152.959 122.288C159.438 126.808 166.311 130.998 173.001 135.614C174.676 136.774 176.344 137.963 177.994 139.248C178.82 139.894 179.64 140.563 180.457 141.301C181.274 142.058 182.085 142.807 182.912 143.973C183.119 144.279 183.328 144.615 183.527 145.056C183.716 145.495 183.93 146.06 183.936 146.891C183.94 147.079 183.915 147.335 183.869 147.577C183.826 147.818 183.749 148.041 183.666 148.265C183.491 148.679 183.262 149.031 183.04 149.292C182.588 149.82 182.166 150.108 181.794 150.341C181.055 150.779 180.429 151.006 179.834 151.2C179.239 151.389 178.675 151.529 178.122 151.649C175.919 152.111 173.845 152.303 171.767 152.452C167.626 152.727 163.55 152.73 159.479 152.638C155.411 152.539 151.358 152.323 147.314 152.017C139.225 151.394 131.168 150.452 123.142 149.009C119.129 148.277 115.125 147.424 111.132 146.271C109.135 145.689 107.141 145.034 105.146 144.196C104.149 143.774 103.151 143.306 102.15 142.736C101.152 142.161 100.141 141.504 99.1518 140.529L103.743 138.157C104.965 145.536 105.461 152.941 105.586 160.309C105.719 167.68 105.477 175.022 105.079 182.338C104.244 196.967 102.722 211.493 101.193 225.974C100.431 233.214 99.6582 240.444 98.9901 247.666C98.6514 251.277 98.3486 254.886 98.0867 258.492C98.0284 259.378 97.9456 260.331 97.9073 261.16C97.8556 262 97.8568 262.837 97.8729 263.673C97.9131 265.344 98.1072 267 98.4263 268.626C99.0751 271.877 100.305 274.994 102.059 277.827C103.8 280.669 106.053 283.22 108.616 285.455C113.764 289.931 120.096 293.125 126.734 295.319C133.394 297.506 140.411 298.72 147.464 299.096C154.519 299.465 161.632 299 168.556 297.656C175.472 296.301 182.221 294.062 188.364 290.752C194.496 287.45 200.013 283.031 204.127 277.535C206.184 274.793 207.896 271.802 209.182 268.628C209.5 267.838 209.818 267.029 210.064 266.226C210.191 265.822 210.33 265.424 210.449 265.016L210.777 263.783C211.184 262.126 211.515 260.437 211.72 258.714C212.173 255.276 212.255 251.747 212.157 248.207C212.059 244.665 211.748 241.102 211.331 237.539C210.492 230.41 209.226 223.28 207.937 216.123C206.619 208.978 205.324 201.745 205.5 194.318C205.516 193.64 206.079 193.103 206.757 193.119C207.298 193.132 207.749 193.492 207.901 193.982L207.902 193.988Z" fill="#1E3A59"/>
<path d="M169.224 334.169C164.618 334.169 161.644 333.918 161.257 333.883C159.924 333.764 158.939 332.585 159.059 331.252C159.178 329.918 160.356 328.937 161.69 329.051C161.995 329.076 192.51 331.623 214.659 319.286C215.828 318.634 217.306 319.054 217.958 320.225C218.61 321.395 218.19 322.872 217.02 323.524C200.479 332.738 180.212 334.169 169.224 334.169Z" fill="#1E3A59"/>
<path d="M218.66 364.547C217.82 364.342 216.799 364.151 215.842 364.006C214.869 363.854 213.885 363.74 212.898 363.642C210.923 363.46 208.933 363.4 206.948 363.459C204.96 363.501 202.983 363.721 201.029 364.061C199.064 364.378 197.169 364.957 195.29 365.606L195.225 365.629C194.592 365.847 193.902 365.512 193.683 364.88C193.479 364.287 193.765 363.643 194.32 363.383C196.265 362.484 198.267 361.658 200.343 361.108C202.412 360.534 204.522 360.089 206.652 359.833C208.78 359.56 210.925 359.414 213.075 359.401C214.15 359.402 215.226 359.421 216.306 359.482C216.846 359.513 217.387 359.548 217.931 359.599C218.485 359.648 218.997 359.701 219.619 359.792C220.947 359.985 221.866 361.219 221.672 362.546C221.478 363.873 220.245 364.792 218.918 364.599C218.843 364.588 218.77 364.574 218.698 364.556L218.66 364.547Z" fill="#1E3A59"/>
<path d="M157.434 285.823C157.434 285.823 145.924 345.236 140.527 373.026C135.922 396.735 119.787 398.28 84.3599 396.956C71.897 396.491 62.3948 392.197 63.356 382C64.6471 368.302 83.9776 363.115 83.9776 363.115C83.9776 363.115 90.9287 294.011 95.6699 256.284L157.434 285.823Z" fill="white"/>
<g opacity="0.25">
<path d="M135.275 358.65C139.206 333.828 153.824 296.881 156.846 288.888C154.422 301.394 145.187 349.014 140.53 373.028C135.925 396.733 119.787 398.283 84.3575 396.956C71.8974 396.49 62.3931 392.194 63.3585 382C63.4571 380.949 63.6606 379.944 63.9629 378.992C66.7918 382.802 73.0916 384.626 79.1093 384.966C117.407 387.129 131.548 382.184 135.275 358.65Z" fill="#0056A8"/>
</g>
<path d="M158.626 286.053C157.923 295.09 156.375 303.964 154.685 312.81L149.628 339.351L144.571 365.891L143.307 372.527C143.104 373.608 142.869 374.805 142.597 375.951C142.324 377.108 142 378.261 141.63 379.408C140.888 381.7 139.92 383.974 138.625 386.115C137.337 388.256 135.705 390.253 133.785 391.924C131.868 393.6 129.686 394.933 127.428 395.94C125.169 396.955 122.839 397.669 120.515 398.203C115.857 399.265 111.213 399.659 106.624 399.86C102.031 400.051 97.4775 400.021 92.9437 399.922C90.6767 399.872 88.4146 399.802 86.1559 399.722L84.4626 399.66C83.8911 399.634 83.2909 399.612 82.7048 399.571C81.5265 399.501 80.3437 399.379 79.1601 399.225C76.7935 398.909 74.4133 398.413 72.0579 397.603C69.7171 396.771 67.3657 395.616 65.3126 393.818C64.2924 392.921 63.3624 391.857 62.6218 390.652C61.8823 389.447 61.3494 388.106 61.0409 386.747C60.7299 385.386 60.6377 384.013 60.6963 382.689C60.7503 381.372 60.9662 380.057 61.3156 378.781C62.0203 376.224 63.3246 373.891 64.9199 371.919C66.5191 369.939 68.3945 368.289 70.3736 366.877C72.3556 365.463 74.4595 364.3 76.6131 363.292C77.6915 362.791 78.7852 362.331 79.8954 361.912C80.4507 361.702 81.0101 361.503 81.5766 361.314C82.156 361.122 82.687 360.953 83.3476 360.773L83.3499 360.773L81.5653 362.872C83.3721 345.043 85.2298 327.226 87.1526 309.41C89.0825 291.595 91.0516 273.786 93.2645 255.981C93.4297 254.652 94.6413 253.708 95.9706 253.873C97.3 254.039 98.2437 255.25 98.0784 256.579L98.0777 256.586C95.8719 274.332 93.9036 292.131 91.9756 309.931C90.0544 327.732 88.1969 345.546 86.392 363.358L86.2256 365L84.6072 365.458L84.6063 365.458C84.1826 365.581 83.642 365.759 83.1561 365.93C82.6574 366.106 82.1593 366.293 81.6647 366.489C80.6749 366.882 79.6986 367.312 78.7432 367.776C76.8322 368.703 75.0066 369.776 73.3302 370.99C69.9837 373.405 67.2691 376.545 66.3244 380.152C65.8525 381.935 65.7634 383.905 66.1603 385.554C66.5484 387.224 67.456 388.649 68.8151 389.813C70.166 390.98 71.9236 391.866 73.8221 392.517C75.7274 393.17 77.7763 393.605 79.871 393.881C80.9199 394.016 81.9782 394.125 83.0477 394.186C83.5847 394.224 84.1098 394.242 84.6628 394.266L86.3444 394.326C88.5859 394.403 90.825 394.469 93.0598 394.516C97.5289 394.609 101.986 394.631 106.392 394.442C110.792 394.248 115.163 393.854 119.291 392.903C123.417 391.966 127.261 390.378 130.236 387.825C133.222 385.283 135.274 381.721 136.579 377.745C136.908 376.752 137.202 375.739 137.454 374.706C137.709 373.663 137.918 372.652 138.137 371.522L139.444 364.896L144.673 338.389L149.901 311.882C151.639 303.046 153.52 294.237 156.245 285.592C156.447 284.949 157.133 284.591 157.776 284.794C158.328 284.968 158.669 285.5 158.626 286.053Z" fill="#1E3A59"/>
<path d="M128.108 332.939C99.0531 332.939 87.3965 326.404 86.8171 326.068C85.6589 325.396 85.2652 323.911 85.9376 322.752C86.6085 321.598 88.0859 321.202 89.2437 321.868C89.4353 321.976 105.975 331.012 148.75 327.088C150.079 326.962 151.265 327.947 151.387 329.281C151.51 330.615 150.528 331.796 149.194 331.918C141.329 332.64 134.32 332.939 128.108 332.939Z" fill="#1E3A59"/>
<path d="M82.7672 360.691C84.519 360.414 86.1145 360.264 87.7833 360.139C89.4349 360.024 91.0861 359.962 92.7379 359.953C96.0403 359.932 99.3465 360.136 102.626 360.592C105.904 361.06 109.157 361.796 112.3 362.905C113.872 363.457 115.405 364.126 116.898 364.871C118.386 365.633 119.813 366.514 121.177 367.481C121.724 367.868 121.853 368.625 121.466 369.171C121.095 369.696 120.383 369.836 119.844 369.505L119.811 369.485C118.501 368.678 117.144 367.952 115.732 367.337C114.312 366.739 112.862 366.211 111.375 365.792C108.401 364.95 105.325 364.453 102.227 364.209C99.1258 363.975 96.0009 363.978 92.8905 364.195C91.3355 364.302 89.7839 364.458 88.2428 364.664C86.7206 364.871 85.1303 365.131 83.728 365.446L83.6781 365.457C82.37 365.75 81.0717 364.928 80.7782 363.62C80.4846 362.312 81.3072 361.013 82.6153 360.72C82.6637 360.709 82.7189 360.699 82.7672 360.691Z" fill="#1E3A59"/>
<g opacity="0.25">
<path d="M214.287 258.456C214.096 260.131 213.827 261.754 213.472 263.324C213.394 263.698 213.308 264.066 213.216 264.434C212.94 265.531 212.618 266.601 212.257 267.645C211.929 268.585 211.567 269.504 211.18 270.404C211.088 270.621 210.996 270.838 210.898 271.048C210.792 271.278 210.687 271.501 210.582 271.725C210.444 272.013 210.306 272.309 210.162 272.598C209.321 274.266 208.382 275.869 207.357 277.393C207.167 277.669 206.976 277.945 206.779 278.214C206.602 278.47 206.418 278.72 206.234 278.969C205.984 279.304 205.728 279.633 205.472 279.961C205.262 280.224 205.052 280.487 204.835 280.749C204.736 280.868 204.638 280.979 204.539 281.098C204.316 281.367 204.093 281.63 203.863 281.886C203.725 282.043 203.58 282.201 203.442 282.352C191.922 295.009 173.202 301.295 154.535 301.814L158.055 284.802C162.292 284.592 166.509 284.165 170.647 283.515L147.06 284.342C140.433 284.579 134.817 279.344 134.58 272.71L134.422 268.25C111.197 270.936 98.6645 266.371 95.1767 264.802C95.0913 263.409 95.0978 261.971 95.1964 260.493C95.5445 255.271 96.0305 249.747 96.5823 244.02C109.377 249.878 126.028 249.287 133.733 248.598L133.536 242.909C133.332 237.103 137.319 232.078 142.771 230.758C143.539 230.568 144.347 230.462 145.168 230.43L201.157 228.466C207.791 228.229 213.413 233.464 213.636 240.098L214.287 258.456Z" fill="#0056A8"/>
</g>
<path d="M204.463 271.992L148.469 273.957C141.842 274.192 136.224 268.959 135.989 262.323L134.945 232.526C134.741 226.717 138.73 221.692 144.179 220.375C144.95 220.183 145.753 220.077 146.579 220.046L202.565 218.08C209.2 217.846 214.818 223.079 215.044 229.715L215.877 253.315L216.097 259.512C216.332 266.147 211.09 271.757 204.463 271.992Z" fill="white"/>
<g opacity="0.25">
<path d="M204.463 271.991L148.469 273.957C141.842 274.192 136.224 268.958 135.989 262.323L134.945 232.526C134.741 226.716 138.73 221.691 144.179 220.375C147.432 222.375 149.499 223.655 149.499 223.655C153.065 247.477 152.636 265.246 189.661 261.483C202.425 260.185 210.864 256.124 215.877 253.314L216.097 259.512C216.332 266.147 211.09 271.757 204.463 271.991Z" fill="#0056A8"/>
</g>
<path d="M149.098 276.354C145.153 276.354 141.404 274.875 138.487 272.157C135.434 269.31 133.672 265.459 133.526 261.312L132.557 233.709C132.255 225.118 138.999 217.883 147.589 217.581L201.381 215.692C205.528 215.545 209.493 217.034 212.547 219.88C215.601 222.726 217.362 226.578 217.508 230.725L218.478 258.328C218.78 266.919 212.036 274.154 203.445 274.456L149.654 276.345C149.468 276.351 149.282 276.354 149.098 276.354ZM201.933 220.533C201.806 220.533 201.679 220.536 201.551 220.54L147.76 222.429C141.842 222.638 137.197 227.621 137.405 233.539L138.374 261.142C138.474 263.994 139.689 266.645 141.795 268.608C143.901 270.572 146.637 271.594 149.483 271.497L203.275 269.608C206.127 269.508 208.778 268.293 210.741 266.187C212.704 264.081 213.73 261.351 213.629 258.499L212.66 230.895C212.56 228.043 211.345 225.392 209.239 223.429C207.228 221.553 204.646 220.533 201.933 220.533Z" fill="#1E3A59"/>
<path d="M206.703 271.692C205.982 271.868 205.238 271.968 204.463 271.991L148.469 273.956C143.612 274.125 139.299 271.366 137.251 267.256C136.504 265.763 136.056 264.093 135.998 262.322L135.528 249.085L135.373 244.717L134.945 232.525C134.711 225.89 139.952 220.28 146.579 220.045L158.678 219.624C153.139 220.87 149.064 225.935 149.267 231.804L149.828 247.899L150.311 261.609C150.546 268.236 156.164 273.478 162.791 273.243L206.703 271.692Z" fill="white"/>
<g opacity="0.25">
<path d="M206.699 271.692C205.978 271.868 205.235 271.968 204.459 271.992L148.465 273.957C141.838 274.192 136.22 268.959 135.994 262.323L135.369 244.718C136.887 247.779 139.551 251.508 143.614 251.767C145.842 251.914 147.972 250.239 149.824 247.9L150.307 261.61C150.542 268.237 156.16 273.479 162.787 273.244L206.699 271.692Z" fill="#0056A8"/>
</g>
<path d="M148.031 276.392C144.37 276.392 140.889 275.019 138.178 272.492C135.339 269.845 133.702 266.264 133.57 262.409L132.523 232.61C132.238 224.629 138.506 217.904 146.494 217.618L158.59 217.196L159.209 221.986C154.691 223.006 151.529 227.101 151.691 231.722L152.738 261.523C152.826 264.083 153.916 266.464 155.807 268.226C157.697 269.989 160.144 270.918 162.702 270.818L206.619 269.271L207.266 274.055C206.374 274.266 205.456 274.388 204.535 274.416L148.554 276.383C148.379 276.39 148.205 276.392 148.031 276.392ZM150.006 222.35L146.665 222.466C141.352 222.656 137.182 227.13 137.371 232.439L138.418 262.242C138.506 264.801 139.596 267.181 141.487 268.943C143.377 270.706 145.825 271.636 148.382 271.535L152.116 271.404C149.513 268.798 148.017 265.37 147.89 261.691L146.843 231.893C146.718 228.332 147.905 224.979 150.006 222.35Z" fill="#1E3A59"/>
<path d="M171.874 246.174C171.906 247.276 170.618 256.219 170.618 256.219C170.618 256.219 167.8 256.302 164.339 256.403C160.015 256.53 156.379 252.157 156.217 246.634C156.054 241.112 159.428 236.532 163.752 236.405C166.669 236.32 170.031 236.221 170.031 236.221C170.031 236.221 171.821 244.379 171.874 246.174Z" fill="#22A7F0"/>
<g opacity="0.35">
<path d="M171.874 246.174C171.906 247.276 170.618 256.219 170.618 256.219C170.618 256.219 167.8 256.302 164.339 256.403C160.015 256.53 156.379 252.157 156.217 246.634C156.054 241.112 159.428 236.532 163.752 236.405C166.669 236.32 170.031 236.221 170.031 236.221C170.031 236.221 171.821 244.379 171.874 246.174Z" fill="#0056A8"/>
</g>
<path d="M164.157 258.224C158.94 258.224 154.585 253.107 154.397 246.687C154.205 240.171 158.377 234.742 163.696 234.586L171.483 234.357L171.806 235.83C172.111 237.22 173.636 244.249 173.69 246.12C173.725 247.288 172.724 254.343 172.417 256.478L172.199 257.992L164.391 258.221C164.313 258.223 164.235 258.224 164.157 258.224ZM168.57 238.083L163.803 238.222C160.489 238.32 157.901 242.069 158.033 246.58C158.166 251.09 160.99 254.683 164.284 254.584L169.032 254.445C169.565 250.652 170.055 246.848 170.054 246.221C170.022 245.2 169.224 241.162 168.57 238.083Z" fill="#1E3A59"/>
<path d="M170.642 256.217C174.966 256.09 178.339 251.51 178.177 245.988C178.014 240.465 174.377 236.091 170.054 236.218C165.73 236.346 162.356 240.926 162.519 246.448C162.681 251.971 166.318 256.345 170.642 256.217Z" fill="#07C7FF"/>
<g opacity="0.35">
<path d="M162.497 246.451C162.657 251.971 166.294 256.347 170.617 256.221C174.946 256.094 178.319 251.513 178.153 245.987C178.133 245.242 178.045 244.513 177.899 243.815C176.898 247.641 174.113 250.427 170.756 250.521C167.022 250.631 163.795 247.385 162.889 242.93C162.6 244.031 162.464 245.217 162.497 246.451Z" fill="#0056A8"/>
</g>
<path d="M162.496 246.452C162.505 246.828 162.534 247.198 162.581 247.562C163.313 243.21 166.292 239.921 169.944 239.816C173.972 239.701 177.411 243.49 177.978 248.481C178.116 247.677 178.174 246.846 178.151 245.987C177.991 240.468 174.354 236.092 170.031 236.218C165.709 236.351 162.336 240.926 162.496 246.452Z" fill="white"/>
<path d="M170.438 258.04C165.222 258.04 160.867 252.923 160.678 246.502C160.588 243.427 161.454 240.491 163.117 238.233C164.879 235.84 167.316 234.48 169.978 234.402C172.644 234.342 175.152 235.539 177.052 237.823C178.845 239.979 179.882 242.86 179.972 245.936C180.062 249.011 179.196 251.948 177.533 254.206C175.771 256.598 173.334 257.959 170.672 258.037C170.594 258.039 170.516 258.04 170.438 258.04ZM170.214 238.037C170.171 238.037 170.128 238.038 170.085 238.039C168.565 238.083 167.131 238.919 166.046 240.391C164.863 241.997 164.248 244.13 164.315 246.396C164.447 250.907 167.255 254.491 170.566 254.4C172.085 254.356 173.52 253.52 174.604 252.048C175.787 250.442 176.402 248.31 176.336 246.042C176.269 243.776 175.53 241.683 174.255 240.149C173.119 238.784 171.688 238.037 170.214 238.037Z" fill="#1E3A59"/>
<path d="M187.047 274.206C186.052 274.206 185.24 273.405 185.228 272.408L185.055 257.323C185.008 253.206 187.014 249.367 190.421 247.054C192.874 245.389 194.282 242.626 194.188 239.664L193.516 218.409C193.484 217.405 194.272 216.564 195.276 216.532C196.285 216.522 197.12 217.289 197.152 218.293L197.824 239.548C197.958 243.764 195.954 247.695 192.464 250.064C190.07 251.69 188.66 254.387 188.694 257.28L188.867 272.366C188.878 273.371 188.073 274.195 187.068 274.206C187.061 274.206 187.054 274.206 187.047 274.206Z" fill="#1E3A59"/>
<path d="M97.3466 233.338C97.3466 233.338 90.0145 234.305 89.7811 242.882C89.5299 252.109 95.5572 253.913 95.5572 253.913C95.5572 253.913 109.942 262.182 142.206 256.983C142.206 256.983 150.362 244.531 139.393 237.724C139.393 237.724 114.588 241.609 97.3466 233.338Z" fill="white"/>
<g opacity="0.25">
<path d="M142.203 256.985C109.94 262.181 95.5552 253.911 95.5552 253.911C95.5552 253.911 89.5255 252.105 89.7751 242.883C89.7948 242.161 89.8671 241.497 89.9788 240.88C91.6931 244.013 94.2811 244.788 94.2811 244.788C94.2811 244.788 107.107 252.162 135.707 248.609C139.47 248.142 142.61 245.425 143.454 241.728C143.462 241.693 143.47 241.658 143.478 241.622C147.806 248.427 142.203 256.985 142.203 256.985Z" fill="#0056A8"/>
</g>
<path d="M122.031 261.001C104.763 261.001 96.0531 256.782 94.6097 256.012C93.1914 255.471 87.2187 252.601 87.4852 242.819C87.6739 235.891 91.83 233.005 94.2906 231.901C95.9874 231.14 97.959 231.135 99.7 231.887C99.7003 231.887 99.7003 231.887 99.7003 231.887C113.594 237.885 132.078 236.297 137.411 235.669C139.267 235.447 141.136 235.994 142.542 237.163C147.777 241.512 148.855 248.255 145.499 255.665C144.534 257.795 142.572 259.269 140.248 259.606C133.358 260.608 127.296 261 122.031 261.001ZM96.9956 235.919C96.7091 235.919 96.4273 235.976 96.1694 236.092C93.5457 237.269 92.1684 239.574 92.0764 242.945C91.8755 250.328 96.1719 251.7 96.2156 251.713C96.3851 251.764 96.5479 251.834 96.7013 251.922C96.8246 251.991 110.275 259.321 139.589 255.061C140.354 254.95 141 254.467 141.315 253.77C143.065 249.906 144.189 244.502 139.607 240.696C139.164 240.329 138.56 240.159 137.949 240.23C132.329 240.894 112.824 242.556 97.88 236.103L97.8802 236.104C97.5942 235.98 97.2923 235.919 96.9956 235.919Z" fill="#1E3A59"/>
<path d="M129.489 166.638L121.929 179.466L102.605 212.249L102.007 213.267C101.173 212.623 100.339 211.973 99.5111 211.316C62.584 182.291 29.5257 145.015 25.3941 142.914C13.2493 136.739 3.31802 125.54 2.51659 118.676C0.999307 105.737 18.5565 85.7232 21.4268 82.5507C21.6829 82.2683 21.8208 82.1172 21.8208 82.1172C21.8208 82.1172 6.5955 60.7702 16.5859 53.7881C26.826 46.6351 51.1879 81.0138 52.8628 83.0697C55.9761 86.9121 63.5691 68.9084 74.1901 70.0316C86.8538 71.365 70.2688 98.6563 71.2147 101.612C72.3182 105.054 81.1722 117.074 96.5815 133.81C98.0199 135.367 99.5175 136.969 101.068 138.611C109.088 147.084 118.605 156.576 129.489 166.638Z" fill="white"/>
<g opacity="0.25">
<path d="M102.605 212.249L102.007 213.267C101.173 212.623 100.339 211.973 99.5111 211.316C62.584 182.291 29.5257 145.016 25.3941 142.914C13.2493 136.739 3.31802 125.54 2.51659 118.677C0.999307 105.737 18.5565 85.7233 21.4268 82.5508C30.5239 89.8745 51.8644 106.834 51.8644 106.834C51.8644 106.834 51.6675 166.264 102.605 212.249Z" fill="#0056A8"/>
</g>
<path d="M102.007 215.692C101.489 215.692 100.968 215.528 100.526 215.187C74.9171 195.409 50.9585 171.342 36.644 156.963C30.8949 151.188 25.4647 145.734 24.2835 145.069C11.9029 138.776 1.05038 127.059 0.104863 118.956C-1.41728 105.91 14.0596 87.232 18.7545 81.9039C16.0755 77.7718 9.57222 66.7095 10.9656 58.6223C11.4673 55.7103 12.8914 53.416 15.1986 51.8031C22.81 46.4819 35.4842 55.8625 53.9414 80.4829C54.041 80.6158 54.133 80.7383 54.2166 80.8501C55.0745 80.1561 56.4138 78.6823 57.4506 77.5415C61.5513 73.0295 67.1731 66.8515 74.4461 67.6181C77.7202 67.9631 79.3797 69.6673 80.1957 71.036C83.2647 76.1843 80.0595 84.9933 75.8859 95.1291C74.9592 97.3792 73.8216 100.143 73.628 101.149C75.6587 106.101 95.3371 131.755 131.136 164.855C132.12 165.764 132.18 167.299 131.271 168.282C130.361 169.266 128.827 169.326 127.843 168.417C92.0992 135.368 70.7916 108.247 68.9054 102.35C68.39 100.738 69.1441 98.7609 71.4003 93.2821C73.743 87.5923 78.1043 77.0016 76.0289 73.5199C75.7748 73.0941 75.3081 72.587 73.9371 72.4425C69.1066 71.9322 64.6325 76.852 61.0403 80.8043C58.2449 83.8806 56.2118 86.1035 53.7857 86.0346C52.7008 86.0042 51.7035 85.4947 50.9775 84.5996C50.8299 84.418 50.5161 84.0015 50.0596 83.3927C47.6599 80.1917 41.2855 71.6886 34.3231 64.7461C26.6824 57.1273 20.7252 53.8587 17.9773 55.7792C16.7543 56.634 16.0246 57.8325 15.7463 59.4429C14.6109 66.0175 21.1743 77.026 23.7989 80.7131C24.4673 81.6515 24.3833 82.9318 23.5977 83.7747C17.9829 89.7992 3.6822 107.763 4.92299 118.394C5.59134 124.123 14.6147 134.713 26.494 140.751C28.1588 141.598 31.6477 145.069 40.0813 153.541C54.3126 167.837 78.1317 191.763 103.491 211.347C104.551 212.166 104.747 213.689 103.928 214.75C103.45 215.368 102.733 215.692 102.007 215.692Z" fill="#1E3A59"/>
<path d="M19.7058 139.563C19.7058 139.563 15.7057 137.126 11.5611 133.166C6.72031 128.535 1.68238 121.822 2.62172 114.466C4.36223 100.83 21.8209 82.1167 21.8209 82.1167C26.9113 81.6306 33.7161 85.322 39.6145 90.4321C46.4718 96.3699 52.1008 104.219 52.4162 109.638C52.8496 117.139 37.8147 142.939 19.7058 139.563Z" fill="white"/>
<g opacity="0.25">
<path d="M19.7072 139.564C19.7072 139.564 15.707 137.127 11.5625 133.167C15.3918 132.378 20.5283 130.027 26.1114 123.892C37.6453 111.228 43.1364 101.763 39.6159 90.4331C46.4732 96.3709 52.1022 104.22 52.4175 109.639C52.851 117.14 37.8161 142.94 19.7072 139.564Z" fill="#0056A8"/>
</g>
<path d="M20.5718 137.296C20.8735 137.295 21.1613 137.313 21.4503 137.354C21.5684 137.382 21.7974 137.385 22.0032 137.393L22.6246 137.419C23.0383 137.458 23.4539 137.412 23.869 137.396L24.4918 137.365L25.1126 137.276C26.7679 137.051 28.4098 136.577 29.9918 135.887C33.1483 134.475 36.0742 132.338 38.6485 129.797C41.2295 127.26 43.5175 124.36 45.448 121.254C46.414 119.703 47.2954 118.099 48.0507 116.463C48.7976 114.833 49.4474 113.141 49.7977 111.549L49.9084 110.967C49.9435 110.775 49.9483 110.606 49.9733 110.425C50.0055 110.234 49.9878 110.1 49.9936 109.949C50.0085 109.812 49.9806 109.628 49.9593 109.449C49.9017 108.745 49.6851 107.967 49.4264 107.194C48.8758 105.636 48.0512 104.066 47.096 102.558C45.1697 99.5347 42.7465 96.722 40.108 94.1714C37.4627 91.625 34.5577 89.3192 31.4583 87.4959C29.9107 86.5885 28.3105 85.8059 26.6997 85.2496C25.0938 84.705 23.4696 84.4227 22.0529 84.5316L23.5958 83.7717C21.7153 85.8286 19.8522 88.0607 18.0854 90.2934C16.3172 92.5419 14.6364 94.8507 13.0366 97.2022C11.4617 99.5667 9.98365 101.983 8.68316 104.461C8.34787 105.077 8.07622 105.712 7.76875 106.336L7.31942 107.276C7.17506 107.59 7.0622 107.911 6.93163 108.228C6.6857 108.864 6.40907 109.497 6.18519 110.136L5.59885 112.058C5.48429 112.378 5.42812 112.697 5.37156 113.016L5.18784 113.971C5.13442 114.286 5.04283 114.616 5.01803 114.918L4.94296 115.82C4.90701 117.028 5.05175 118.251 5.35857 119.462C5.96249 121.891 7.22795 124.246 8.81584 126.418C10.3991 128.599 12.3109 130.61 14.3779 132.464C15.4124 133.392 16.489 134.281 17.5966 135.129C18.153 135.55 18.7126 135.967 19.2817 136.365L20.1367 136.952L20.5641 137.234L20.775 137.37L20.8768 137.434L20.9272 137.466C20.8669 137.426 20.6931 137.335 20.5718 137.296ZM18.8375 141.826C18.6774 141.764 18.4649 141.649 18.3663 141.585L18.3012 141.545L18.1719 141.463L17.923 141.303L17.4387 140.983L16.492 140.333C15.867 139.896 15.2579 139.443 14.6518 138.985C13.4459 138.061 12.2738 137.094 11.1387 136.076C8.87187 134.04 6.73833 131.809 4.89362 129.273C3.0543 126.748 1.47126 123.891 0.655011 120.651C0.246228 119.04 0.0394029 117.344 0.0947821 115.637L0.198459 114.361C0.237697 113.938 0.337171 113.559 0.405149 113.157L0.634802 111.966C0.709079 111.567 0.785187 111.17 0.912874 110.801C2.64118 104.697 5.72628 99.4742 9.01019 94.4954C12.3743 89.5445 15.9999 84.9194 20.0481 80.4624L20.0536 80.4564C20.4666 80.0018 21.0238 79.7483 21.5911 79.7025C24.0155 79.5118 26.2385 79.9809 28.2633 80.6576C30.2854 81.356 32.1478 82.2788 33.9127 83.3113C37.4364 85.388 40.584 87.9012 43.4718 90.6761C46.3493 93.4628 48.9857 96.5032 51.1932 99.9606C52.288 101.697 53.2779 103.539 54.0095 105.605C54.3591 106.649 54.6691 107.734 54.7838 108.946C54.8646 109.501 54.8624 110.256 54.8059 110.842C54.7717 111.138 54.7482 111.449 54.6987 111.73L54.541 112.564C54.0599 114.725 53.3022 116.632 52.4562 118.492C51.6018 120.343 50.6283 122.111 49.5646 123.82C47.4385 127.236 44.9394 130.413 42.0429 133.262C39.1534 136.106 35.7989 138.605 31.9333 140.333C29.9947 141.179 27.9147 141.791 25.7658 142.082L24.9602 142.193L24.1449 142.239C23.6008 142.263 23.0576 142.31 22.5118 142.269L21.694 142.234C21.4201 142.221 21.168 142.22 20.8123 142.163C20.1505 142.072 19.4871 141.959 18.8375 141.826Z" fill="#1E3A59"/>
<path d="M58.6444 177.71C57.7529 177.71 56.8947 177.216 56.4709 176.364C55.8747 175.164 56.3635 173.709 57.5624 173.112C57.8431 172.972 85.7376 158.858 95.2688 134.459C95.756 133.212 97.163 132.596 98.4108 133.082C99.6584 133.57 100.275 134.977 99.7876 136.225C89.5637 162.395 60.9345 176.854 59.7209 177.456C59.3746 177.629 59.0065 177.71 58.6444 177.71Z" fill="#1E3A59"/>
<path d="M88.2529 88.4632L92.5048 90.0773C93.2689 90.3675 94.1237 89.9831 94.4137 89.2189L113.871 37.9648C114.161 37.2006 113.777 36.3459 113.013 36.0559L108.761 34.4418C100.744 31.3983 91.7774 35.4302 88.7339 43.4472L79.2474 68.4365C76.204 76.4534 80.2358 85.4197 88.2529 88.4632Z" fill="white"/>
<path d="M93.0306 90.6211C92.7997 90.6211 92.5683 90.5791 92.346 90.4949L88.0941 88.8807C79.8598 85.7544 75.7038 76.5118 78.8295 68.2775L88.3162 43.288C89.8307 39.2991 92.8077 36.1385 96.699 34.3889C100.59 32.6386 104.93 32.5084 108.919 34.0232L113.171 35.6374C113.652 35.8203 114.034 36.1795 114.244 36.6488C114.456 37.1182 114.471 37.6417 114.288 38.1229L94.8311 89.377C94.6484 89.858 94.2894 90.2392 93.82 90.4504C93.5675 90.564 93.2994 90.6211 93.0306 90.6211ZM88.4112 88.0452L92.6631 89.6593C93.1945 89.8621 93.7937 89.593 93.9956 89.0602L113.453 37.8061C113.655 37.2736 113.387 36.6754 112.854 36.4729L108.602 34.8592C100.827 31.9069 92.1022 35.8316 89.1517 43.6054L79.6651 68.595C76.7136 76.3683 80.6374 85.0941 88.4112 88.0452Z" fill="#371A45"/>
<g opacity="0.25">
<path d="M83.7894 56.4775L80.7208 64.5558C76.866 74.7137 81.9748 86.0793 92.1364 89.9412C93.1042 90.3098 94.1889 89.8173 94.5576 88.8496L99.6598 75.4228C99.1555 75.9317 98.3823 76.1218 97.6691 75.8574L96.4725 75.3993C88.4422 72.3528 83.5638 64.6116 83.7894 56.4775Z" fill="#0056A8"/>
</g>
<path d="M93.0264 92.6604C92.5596 92.6604 92.085 92.5774 91.6231 92.4021L87.371 90.788C78.0853 87.2625 73.3982 76.8399 76.9235 67.5539L86.4101 42.5643C89.9354 33.2789 100.357 28.5916 109.644 32.1168L113.896 33.7309C115.941 34.5078 116.973 36.8032 116.196 38.8479L96.739 90.1018C96.1386 91.6844 94.6271 92.6604 93.0264 92.6604ZM89.1363 86.1386L92.4469 87.3955L111.19 38.0232L107.879 36.7663C104.623 35.5296 101.08 35.6353 97.9032 37.0646C94.7262 38.4932 92.2958 41.0733 91.0597 44.3296L81.5731 69.3192C79.0211 76.0412 82.4139 83.5863 89.1363 86.1386Z" fill="#1E3A59"/>
<path d="M283.262 100.686L279.01 99.0719C278.246 98.7817 277.391 99.1661 277.101 99.9302L257.644 151.184C257.354 151.949 257.738 152.803 258.502 153.093L262.754 154.707C270.771 157.751 279.737 153.719 282.781 145.702L292.267 120.713C295.311 112.696 291.279 103.73 283.262 100.686Z" fill="white"/>
<path d="M268.271 156.173C266.357 156.174 264.439 155.825 262.595 155.125L258.344 153.511C257.863 153.328 257.481 152.969 257.27 152.5C257.059 152.03 257.043 151.507 257.226 151.026L276.683 99.7716C276.866 99.2906 277.225 98.9094 277.695 98.6983C278.164 98.4865 278.688 98.4711 279.169 98.6544L283.421 100.268C291.655 103.394 295.811 112.637 292.685 120.871L283.199 145.861C281.684 149.849 278.707 153.01 274.816 154.76C272.723 155.701 270.499 156.173 268.271 156.173ZM278.484 99.4216C278.34 99.4216 278.196 99.4521 278.061 99.5129C277.809 99.6261 277.617 99.8304 277.519 100.089L258.062 151.343C257.963 151.601 257.972 151.881 258.085 152.133C258.198 152.385 258.402 152.578 258.661 152.675L262.912 154.289C266.678 155.72 270.775 155.597 274.449 153.945C278.123 152.293 280.933 149.309 282.363 145.543L291.85 120.554C293.279 116.788 293.157 112.691 291.505 109.017C289.853 105.344 286.869 102.533 283.103 101.104L278.851 99.4894C278.732 99.444 278.608 99.4216 278.484 99.4216Z" fill="#371A45"/>
<g opacity="0.25">
<path d="M263.103 136.799L257.785 150.814C257.416 151.781 257.908 152.866 258.876 153.235C264.21 155.257 269.88 154.814 274.619 152.46C278.899 150.335 282.422 146.647 284.254 141.823L287.01 134.564C281.708 139.838 273.598 141.834 266.147 139.008L264.304 138.308C263.632 138.051 263.201 137.462 263.103 136.799Z" fill="#0056A8"/>
</g>
<path d="M268.274 158.215C266.115 158.215 263.952 157.821 261.873 157.032L257.621 155.418C256.631 155.042 255.846 154.303 255.412 153.337C254.977 152.37 254.945 151.292 255.321 150.302L274.778 99.0478C275.154 98.0576 275.893 97.2725 276.86 96.8382C277.826 96.4031 278.905 96.371 279.895 96.7479L284.146 98.3616C288.645 100.069 292.209 103.426 294.182 107.815C296.155 112.203 296.302 117.097 294.594 121.595L285.107 146.585C283.4 151.083 280.043 154.647 275.654 156.621C273.294 157.682 270.787 158.215 268.274 158.215ZM260.328 151.126L263.638 152.383C266.895 153.619 270.438 153.513 273.614 152.085C276.791 150.656 279.221 148.076 280.458 144.819L289.944 119.83C292.496 113.108 289.103 105.563 282.381 103.011H282.381L279.071 101.754L260.328 151.126Z" fill="#1E3A59"/>
<g opacity="0.25">
<path d="M217.179 192.826C213.934 194.481 210.571 195.919 207.13 197.141C196.423 200.924 184.883 202.573 173.171 201.732C167.115 201.292 161.013 200.189 154.957 198.369C142.215 194.54 131.055 187.959 121.925 179.466C113.387 171.531 106.628 161.922 102.023 151.334C99.5865 145.731 97.7538 139.859 96.5781 133.809C98.0165 135.366 99.5141 136.969 101.064 138.611C100.834 136.653 100.565 134.762 100.256 132.942C99.1594 126.505 101.123 126.381 101.544 119.858C101.977 113.421 126.109 113.132 150.287 116.968C168.087 120.732 194.137 124.095 199.221 138.611C199.53 141.81 201.034 145.935 202.105 148.858L204.647 173.909C207.891 178.651 212.364 185.305 217.179 192.826Z" fill="#0056A8"/>
</g>
<path d="M185.75 186.645C236.601 186.645 277.824 145.422 277.824 94.5707C277.824 43.7196 236.601 2.49658 185.75 2.49658C134.899 2.49658 93.6758 43.7196 93.6758 94.5707C93.6758 145.422 134.899 186.645 185.75 186.645Z" fill="white"/>
<path d="M185.704 187.101C176.91 187.101 167.977 185.837 159.132 183.18C135.463 176.07 115.98 160.168 104.272 138.404C92.5635 116.641 90.0312 91.6202 97.1415 67.952C104.252 44.2839 120.153 24.8007 141.917 13.0925C163.681 1.38396 188.701 -1.14865 212.369 5.96194C261.228 20.6395 289.037 72.3304 274.359 121.19C262.339 161.204 225.489 187.101 185.704 187.101ZM185.63 2.89994C170.681 2.89994 155.876 6.59749 142.34 13.8793C120.786 25.4745 105.038 44.7694 97.997 68.2089C90.9556 91.6487 93.4635 116.428 105.059 137.981C116.654 159.535 135.949 175.283 159.388 182.324C168.145 184.955 176.998 186.207 185.704 186.208C225.108 186.209 261.598 160.563 273.504 120.933C288.039 72.5452 260.499 21.3533 212.112 6.8173C203.392 4.19781 194.486 2.89994 185.63 2.89994Z" fill="#371A45"/>
<g opacity="0.25">
<path d="M102.077 56.1284C100.317 59.947 98.809 63.9362 97.5627 68.0815C82.9396 116.783 110.558 168.122 159.256 182.756C207.958 197.379 259.296 169.761 273.93 121.063C274.352 119.663 274.74 118.251 275.088 116.851C256.248 157.991 209.488 179.975 164.927 166.591C117.63 152.378 90.2227 103.547 102.077 56.1284Z" fill="#0056A8"/>
</g>
<path d="M185.699 189.141C176.711 189.141 167.581 187.849 158.541 185.133C134.35 177.866 114.438 161.614 102.472 139.371C90.5051 117.127 87.9167 91.5549 95.1837 67.3647C110.185 17.4282 163.016 -10.9933 212.952 4.00779C262.888 19.009 291.31 71.8398 276.309 121.776C264.023 162.673 226.36 189.141 185.699 189.141ZM185.791 4.97391C147.265 4.97391 111.587 30.0471 99.9467 68.7956C93.062 91.7136 95.5141 115.941 106.851 137.015C118.189 158.088 137.054 173.485 159.971 180.37C168.533 182.942 177.189 184.167 185.701 184.167C224.228 184.169 259.906 159.094 271.546 120.345C285.758 73.0351 258.831 22.9831 211.521 8.77067C202.96 6.19869 194.304 4.97391 185.791 4.97391Z" fill="#1E3A59"/>
<path d="M97.1695 70.4294C91.7256 87.6048 92.247 105.318 97.6006 121.533C101.614 133.69 125.514 160.315 161.698 172.142C195.248 183.109 231.546 174.873 241.83 167.247C255.547 157.076 266.176 142.898 271.62 125.722C286.026 80.271 252.948 49.0517 204.773 33.7824C156.598 18.513 111.575 24.978 97.1695 70.4294Z" fill="#0056A8"/>
<path d="M196.615 179.985C185.252 179.985 172.971 178.444 160.924 174.506C122.54 161.959 99.202 134.321 95.2375 122.313C89.5222 105.002 89.3699 86.8013 94.7974 69.6782C101.874 47.3504 116.285 32.9718 137.63 26.9427C156.238 21.6864 179.715 23.2327 205.523 31.4118C231.331 39.5919 251.411 51.8521 263.594 66.8673C277.569 84.0911 281.066 104.145 273.989 126.473C268.562 143.596 257.953 158.387 243.31 169.244C236.24 174.487 218.069 179.984 196.615 179.985ZM161.368 28.8542C153.285 28.8542 145.777 29.8093 138.982 31.7287C119.349 37.2746 106.078 50.5482 99.5385 71.1808C94.4289 87.3003 94.5747 104.442 99.9601 120.754C103.534 131.58 126.222 157.93 162.469 169.779C195.174 180.469 230.553 172.513 240.347 165.25C254.145 155.019 264.139 141.09 269.248 124.971C286.962 69.0816 229.533 44.2394 204.02 36.1529C188.709 31.3001 174.302 28.8542 161.368 28.8542Z" fill="#1E3A59"/>
<g opacity="0.5">
<path d="M139.185 74.7291C140.33 65.8029 136.015 57.8939 129.547 57.0638C123.079 56.2337 116.907 62.7968 115.762 71.723C114.616 80.6492 118.931 88.5582 125.399 89.3883C131.867 90.2184 138.039 83.6552 139.185 74.7291Z" fill="white"/>
</g>
<g opacity="0.5">
<path d="M131.579 115.858C135.123 115.819 137.959 112.44 137.914 108.309C137.869 104.179 134.96 100.863 131.415 100.901C127.871 100.94 125.035 104.319 125.08 108.449C125.125 112.579 128.034 115.896 131.579 115.858Z" fill="white"/>
</g>
<g opacity="0.35">
<path d="M127.572 33.4058C113.684 40.2011 102.958 52.1743 97.1696 70.4284C91.7245 87.6072 92.2495 105.32 97.5964 121.534C101.612 133.691 125.515 160.316 161.697 172.147C174.472 176.327 187.643 177.716 199.631 177.412C155.465 161.921 126.402 129.329 121.425 114.252C114.629 93.6708 113.969 71.1877 120.88 49.3945C122.723 43.5682 124.974 38.25 127.572 33.4058Z" fill="#111A28"/>
</g>
<path d="M277.327 87.3639C276.355 87.3639 275.436 86.792 275.039 85.8395C275.032 85.8228 275.019 85.7911 275.012 85.7741L274.945 85.5787C267.2 59.612 242.584 38.3249 207.408 27.1752C172.425 16.0879 140.134 18.9153 118.814 34.9323L118.542 35.1364L118.226 35.26C116.958 35.7563 115.518 35.1424 115.007 33.8785C114.556 32.7627 114.967 31.5122 115.936 30.8743C138.557 13.9501 172.434 10.8745 208.91 22.4341C245.673 34.0868 271.475 56.5745 279.704 84.1357C280.083 85.3596 279.468 86.6941 278.262 87.1813C277.956 87.3052 277.639 87.3639 277.327 87.3639Z" fill="#1E3A59"/>
<g opacity="0.5">
<path d="M243.459 146.553C243.459 146.553 271.748 106.176 253.247 80.6496C234.745 55.1226 199.956 44.1755 200.063 46.6628C200.063 46.6628 235.598 68.1795 241.013 103.38C245.189 130.524 243.459 146.553 243.459 146.553Z" fill="white"/>
</g>
</svg>
