<svg width="6000" height="746" viewBox="0 0 6000 746" fill="none" xmlns="http://www.w3.org/2000/svg">
<rect width="6000" height="746" fill="#343434"/>
<rect y="-626" width="6000" height="746" fill="white"/>
<path d="M0 -566V60C0 60 913.745 0 1500 0C2086.25 0 3000 60 3000 60C3000 60 3913.75 120 4500 120C5086.25 120 6000 60 6000 60V-566C6000 -566 5086.25 -506 4500 -506C3913.75 -506 3000 -566 3000 -566C3000 -566 2086.25 -626 1500 -626C913.745 -626 0 -566 0 -566Z" fill="#F8F8F8"/>
<rect width="6000" height="746" fill="#F8F8F8"/>
<path d="M0 60V686C0 686 913.745 626 1500 626C2086.25 626 3000 686 3000 686C3000 686 3913.75 746 4500 746C5086.25 746 6000 686 6000 686V60C6000 60 5086.25 120 4500 120C3913.75 120 3000 60 3000 60C3000 60 2086.25 0 1500 0C913.745 0 0 60 0 60Z" fill="white"/>
</svg>
