<svg width="469" height="400" viewBox="0 0 469 400" fill="none" xmlns="http://www.w3.org/2000/svg">
<path d="M46.6402 156.481C45.7762 161.436 45.7762 166.391 46.6402 171.346C47.1229 174.113 49.4863 176.158 52.2959 176.158H117.835C120.77 176.158 123.238 173.938 123.537 171.018C124.026 166.249 124.066 161.49 123.573 156.741C123.273 153.847 120.792 151.669 117.883 151.669H52.2959C49.4863 151.669 47.1229 153.713 46.6402 156.481Z" fill="#66A669"/>
<g opacity="0.25">
<path d="M123.537 171.017C123.237 173.939 120.769 176.155 117.83 176.155H52.2954C49.4867 176.155 47.1244 174.118 46.6373 171.349C45.9635 167.469 45.8174 163.597 46.2071 159.717C46.3045 160.796 46.4506 161.876 46.6373 162.956C47.1244 165.724 49.4867 167.77 52.2954 167.77H117.83C120.769 167.77 123.237 165.554 123.537 162.631C123.643 161.576 123.732 160.513 123.789 159.457C124.032 163.305 123.935 167.161 123.537 171.017Z" fill="#1E3A59"/>
</g>
<g opacity="0.7">
<path d="M123.872 166.097C123.824 164.595 123.726 163.102 123.572 161.608C123.272 158.718 120.796 156.543 117.881 156.543H52.2977C49.489 156.543 47.1267 158.58 46.6396 161.348C46.3474 163.012 46.1607 164.677 46.0714 166.349C45.8765 163.061 46.0714 159.773 46.6396 156.478C47.1267 153.709 49.489 151.672 52.2977 151.672H117.881C120.796 151.672 123.272 153.847 123.572 156.737C123.897 159.855 123.994 162.972 123.872 166.097Z" fill="white"/>
</g>
<path d="M117.836 178.594H52.2967C48.3198 178.594 44.9325 175.721 44.242 171.765C43.3334 166.555 43.3334 161.273 44.242 156.063C44.9325 152.106 48.3198 149.234 52.2967 149.234H117.884C122.08 149.234 125.568 152.353 125.996 156.491C126.49 161.249 126.478 166.22 125.961 171.266C125.533 175.443 122.04 178.594 117.836 178.594ZM49.0405 156.9C48.2288 161.554 48.2288 166.273 49.0405 170.928C49.3227 172.547 50.6922 173.723 52.2967 173.723H117.836C119.533 173.723 120.943 172.453 121.116 170.77C121.599 166.055 121.611 161.42 121.152 156.993C120.981 155.346 119.577 154.105 117.884 154.105H52.2967C50.6922 154.105 49.3227 155.28 49.0405 156.9Z" fill="#1E3A59"/>
<path d="M96.1881 176.158C88.3409 178.684 80.4936 178.684 72.6465 176.158V151.669C80.1761 149.563 88.0601 149.807 96.1881 151.669V176.158Z" fill="#DADEE0"/>
<g opacity="0.25">
<path d="M96.1901 164.929V176.156C88.3401 178.68 80.4902 178.68 72.6484 176.156V164.929C80.4904 167.453 88.3401 167.453 96.1901 164.929Z" fill="#1E3A59"/>
</g>
<path d="M84.4171 180.481C80.235 180.481 76.0532 179.813 71.9003 178.476C70.8935 178.153 70.2109 177.215 70.2109 176.158V151.669C70.2109 150.577 70.9383 149.618 71.9902 149.324C79.5237 147.217 87.617 147.207 96.7316 149.296C97.8382 149.548 98.6231 150.534 98.6231 151.669V176.158C98.6231 177.216 97.9405 178.153 96.9338 178.476C92.781 179.813 88.5992 180.481 84.4171 180.481ZM75.0816 174.341C81.2841 176.028 87.5501 176.028 93.7526 174.341V153.639C86.9385 152.291 80.7954 152.266 75.0816 153.564V174.341Z" fill="#1E3A59"/>
<path d="M47.8871 161.546C47.2268 161.546 46.6845 161.018 46.6702 160.355C46.6556 159.682 47.1886 159.126 47.8609 159.111L72.6202 158.569C73.3226 158.55 73.8494 159.089 73.864 159.76C73.8786 160.433 73.3456 160.99 72.6733 161.005L47.914 161.546C47.9049 161.546 47.8958 161.546 47.8871 161.546Z" fill="#1E3A59"/>
<path d="M72.6482 168.04C72.5904 168.04 72.5321 168.036 72.473 168.028C71.3976 167.941 57.2137 167.987 47.8944 168.04C47.892 168.04 47.8897 168.04 47.8876 168.04C47.2181 168.04 46.6738 167.5 46.6699 166.83C46.666 166.157 47.2082 165.609 47.8808 165.605C58.9231 165.543 72.2259 165.496 72.8859 165.629C73.5455 165.761 73.9727 166.402 73.8407 167.062C73.7252 167.641 73.2166 168.04 72.6482 168.04Z" fill="#1E3A59"/>
<path d="M121.625 161.587C121.616 161.587 121.607 161.587 121.598 161.587L94.941 161.004C94.2687 160.989 93.7357 160.433 93.7503 159.76C93.7646 159.097 94.3068 158.569 94.9672 158.569C94.9759 158.569 94.985 158.569 94.9941 158.569L121.651 159.152C122.323 159.167 122.856 159.723 122.842 160.396C122.828 161.059 122.285 161.587 121.625 161.587Z" fill="#1E3A59"/>
<path d="M94.9666 168.04C94.3982 168.04 93.8897 167.641 93.7739 167.062C93.6419 166.402 94.0693 165.761 94.7287 165.628C95.3876 165.495 109.722 165.542 121.631 165.605C122.304 165.608 122.846 166.156 122.843 166.829C122.839 167.499 122.295 168.04 121.625 168.04C121.623 168.04 121.621 168.04 121.619 168.04C111.553 167.987 96.2508 167.942 95.1387 168.028C95.0811 168.036 95.0233 168.04 94.9666 168.04Z" fill="#1E3A59"/>
<path d="M388.953 80.8487C388.089 85.8035 388.089 90.7582 388.953 95.7132C389.435 98.481 391.799 100.525 394.608 100.525H460.147C463.083 100.525 465.55 98.3054 465.85 95.3852C466.339 90.6167 466.378 85.8572 465.886 81.1083C465.586 78.2146 463.105 76.0366 460.196 76.0366H394.608C391.799 76.0365 389.435 78.0809 388.953 80.8487Z" fill="#66A669"/>
<g opacity="0.25">
<path d="M465.848 95.3843C465.547 98.3067 463.08 100.523 460.141 100.523H394.606C391.797 100.523 389.435 98.4855 388.948 95.7171C388.274 91.8368 388.128 87.9646 388.518 84.0843C388.615 85.164 388.761 86.2436 388.948 87.3235C389.435 90.0916 391.797 92.1373 394.606 92.1373H460.141C463.08 92.1373 465.547 89.9212 465.848 86.9988C465.953 85.9434 466.043 84.8802 466.099 83.8247C466.343 87.6724 466.246 91.5283 465.848 95.3843Z" fill="#1E3A59"/>
</g>
<g opacity="0.7">
<path d="M466.181 90.4649C466.132 88.9631 466.035 87.4694 465.881 85.9757C465.58 83.0858 463.104 80.9102 460.19 80.9102H394.606C391.798 80.9102 389.435 82.9478 388.948 85.716C388.656 87.3801 388.469 89.0443 388.38 90.7165C388.185 87.4288 388.38 84.1411 388.948 80.8453C389.435 78.0771 391.798 76.0396 394.606 76.0396H460.19C463.104 76.0396 465.58 78.2151 465.881 81.1051C466.205 84.2223 466.303 87.3395 466.181 90.4649Z" fill="white"/>
</g>
<path d="M460.147 102.961H394.608C390.63 102.961 387.243 100.089 386.553 96.1315C385.644 90.9224 385.644 85.6395 386.553 80.4303C387.243 76.4736 390.63 73.6016 394.608 73.6016H460.195C464.391 73.6016 467.878 76.7211 468.307 80.8569C468.801 85.6166 468.788 90.5879 468.271 95.6339C467.843 99.8107 464.351 102.961 460.147 102.961ZM391.351 81.2674C390.539 85.9208 390.539 90.6408 391.351 95.2943C391.633 96.9146 393.003 98.0904 394.608 98.0904H460.147C461.844 98.0904 463.254 96.8204 463.426 95.1374C463.909 90.4229 463.922 85.7869 463.463 81.3594C463.292 79.7136 461.887 78.4722 460.195 78.4722H394.608C393.003 78.4721 391.634 79.6477 391.351 81.2674Z" fill="#1E3A59"/>
<path d="M438.497 100.525C430.65 103.051 422.802 103.051 414.955 100.525V76.0366C422.485 73.9303 430.369 74.174 438.497 76.0366V100.525Z" fill="#DADEE0"/>
<g opacity="0.25">
<path d="M438.503 89.2959V100.523C430.653 103.047 422.803 103.047 414.961 100.523V89.2959C422.803 91.8205 430.653 91.8205 438.503 89.2959Z" fill="#1E3A59"/>
</g>
<path d="M426.728 104.849C422.546 104.849 418.364 104.18 414.211 102.844C413.204 102.52 412.521 101.583 412.521 100.526V76.0368C412.521 74.9443 413.249 73.9859 414.301 73.6919C421.836 71.5832 429.929 71.5745 439.043 73.6633C440.149 73.9171 440.934 74.9016 440.934 76.0368V100.526C440.934 101.583 440.251 102.52 439.244 102.844C435.092 104.18 430.91 104.849 426.728 104.849ZM417.392 98.7089C423.595 100.394 429.861 100.394 436.063 98.7089V78.0069C429.249 76.6591 423.108 76.6346 417.392 77.9315V98.7089Z" fill="#1E3A59"/>
<path d="M390.196 85.913C389.535 85.913 388.993 85.385 388.979 84.7223C388.964 84.0491 389.497 83.4927 390.17 83.4776L414.929 82.937C415.62 82.9425 416.158 83.4562 416.173 84.1277C416.187 84.8009 415.654 85.3573 414.982 85.3724L390.223 85.913C390.214 85.913 390.204 85.913 390.196 85.913Z" fill="#1E3A59"/>
<path d="M414.957 92.4072C414.899 92.4072 414.841 92.4033 414.782 92.3945C413.71 92.3098 399.524 92.3557 390.203 92.4072C390.201 92.4072 390.198 92.4072 390.196 92.4072C389.527 92.4072 388.982 91.8665 388.979 91.1966C388.975 90.5235 389.517 89.9759 390.189 89.9718C401.232 89.9091 414.534 89.864 415.193 89.9955C415.853 90.1264 416.281 90.7677 416.15 91.4272C416.035 92.0068 415.526 92.4072 414.957 92.4072Z" fill="#1E3A59"/>
<path d="M463.936 85.955C463.927 85.955 463.918 85.955 463.909 85.955L437.252 85.3724C436.579 85.3573 436.046 84.8007 436.061 84.1277C436.075 83.4562 436.607 82.9417 437.305 82.937L463.962 83.5197C464.634 83.5348 465.167 84.0914 465.152 84.7643C465.138 85.4271 464.596 85.955 463.936 85.955Z" fill="#1E3A59"/>
<path d="M437.275 92.4071C436.706 92.4071 436.198 92.0068 436.082 91.4273C435.951 90.7677 436.379 90.1264 437.039 89.9957C437.698 89.8648 452.032 89.9109 463.94 89.972C464.613 89.9752 465.155 90.5237 465.151 91.196C465.148 91.8667 464.603 92.4073 463.934 92.4073C463.932 92.4073 463.93 92.4073 463.927 92.4073C453.861 92.3558 438.555 92.3099 437.447 92.3955C437.389 92.4033 437.332 92.4071 437.275 92.4071Z" fill="#1E3A59"/>
<path d="M46.6402 183.288C45.7762 188.243 45.7762 193.197 46.6402 198.152C47.1229 200.92 49.4863 202.964 52.2959 202.964H117.835C120.77 202.964 123.238 200.744 123.537 197.824C124.026 193.056 124.066 188.296 123.573 183.547C123.273 180.654 120.792 178.476 117.883 178.476H52.2959C49.4863 178.476 47.1229 180.52 46.6402 183.288Z" fill="#66A669"/>
<g opacity="0.25">
<path d="M123.537 197.823C123.237 200.745 120.769 202.962 117.83 202.962H52.2954C49.4867 202.962 47.1244 200.924 46.6373 198.156C45.9635 194.276 45.8174 190.403 46.2071 186.523C46.3045 187.603 46.4506 188.682 46.6373 189.762C47.1244 192.53 49.4867 194.576 52.2954 194.576H117.83C120.769 194.576 123.237 192.36 123.537 189.438C123.643 188.382 123.732 187.319 123.789 186.264C124.032 190.111 123.935 193.967 123.537 197.823Z" fill="#1E3A59"/>
</g>
<g opacity="0.7">
<path d="M123.872 192.903C123.824 191.401 123.726 189.907 123.572 188.414C123.272 185.524 120.796 183.348 117.881 183.348H52.2977C49.489 183.348 47.1267 185.386 46.6396 188.154C46.3474 189.818 46.1607 191.482 46.0714 193.155C45.8765 189.867 46.0714 186.579 46.6396 183.283C47.1267 180.515 49.489 178.478 52.2977 178.478H117.881C120.796 178.478 123.272 180.653 123.572 183.543C123.897 186.66 123.994 189.778 123.872 192.903Z" fill="white"/>
</g>
<path d="M117.836 205.399H52.2967C48.3198 205.399 44.9325 202.527 44.242 198.57C43.3334 193.36 43.3334 188.078 44.242 182.868C44.9325 178.912 48.3198 176.04 52.2967 176.04H117.884C122.08 176.04 125.568 179.159 125.996 183.296C126.49 188.055 126.478 193.026 125.961 198.072C125.533 202.249 122.04 205.399 117.836 205.399ZM49.0405 183.706C48.2288 188.36 48.2288 193.079 49.0405 197.733C49.3227 199.353 50.6922 200.529 52.2967 200.529H117.836C119.533 200.529 120.943 199.26 121.116 197.576C121.599 192.861 121.611 188.226 121.152 183.799C120.981 182.152 119.577 180.911 117.884 180.911H52.2967C50.6922 180.91 49.3227 182.086 49.0405 183.706Z" fill="#1E3A59"/>
<path d="M96.1881 202.964C88.3409 205.49 80.4936 205.49 72.6465 202.964V178.476C80.1761 176.369 88.0601 176.613 96.1881 178.476V202.964Z" fill="#DADEE0"/>
<g opacity="0.25">
<path d="M96.1881 191.734V202.961C88.3382 205.486 80.4883 205.486 72.6465 202.961V191.734C80.4884 194.259 88.3382 194.259 96.1881 191.734Z" fill="#1E3A59"/>
</g>
<path d="M84.4171 207.286C80.235 207.286 76.0532 206.618 71.9003 205.282C70.8935 204.958 70.2109 204.021 70.2109 202.964V178.475C70.2109 177.382 70.9383 176.424 71.9902 176.13C79.5237 174.022 87.617 174.011 96.7316 176.101C97.8382 176.354 98.6231 177.339 98.6231 178.475V202.964C98.6231 204.021 97.9405 204.958 96.9338 205.282C92.781 206.618 88.5992 207.286 84.4171 207.286ZM75.0816 201.147C81.2841 202.834 87.5501 202.834 93.7526 201.147V180.445C86.9385 179.097 80.7954 179.072 75.0816 180.369V201.147Z" fill="#1E3A59"/>
<path d="M47.8871 188.351C47.2268 188.351 46.6845 187.823 46.6702 187.161C46.6556 186.487 47.1886 185.931 47.8609 185.916L72.6202 185.375C73.3226 185.373 73.8494 185.893 73.864 186.565C73.8786 187.238 73.3456 187.795 72.6733 187.81L47.914 188.351C47.9049 188.351 47.8958 188.351 47.8871 188.351Z" fill="#1E3A59"/>
<path d="M72.6482 194.846C72.5904 194.846 72.5321 194.842 72.473 194.833C71.3976 194.746 57.2137 194.792 47.8944 194.846C47.892 194.846 47.8897 194.846 47.8876 194.846C47.2181 194.846 46.6738 194.305 46.6699 193.635C46.666 192.962 47.2082 192.414 47.8808 192.41C58.9231 192.348 72.2259 192.301 72.8859 192.434C73.5455 192.566 73.9727 193.208 73.8407 193.867C73.7252 194.446 73.2166 194.846 72.6482 194.846Z" fill="#1E3A59"/>
<path d="M121.625 188.393C121.616 188.393 121.607 188.393 121.598 188.393L94.941 187.81C94.2687 187.795 93.7357 187.238 93.7503 186.565C93.7646 185.902 94.3068 185.375 94.9672 185.375C94.9759 185.375 94.985 185.375 94.9941 185.375L121.651 185.957C122.323 185.972 122.856 186.529 122.842 187.202C122.828 187.865 122.285 188.393 121.625 188.393Z" fill="#1E3A59"/>
<path d="M94.9666 194.846C94.3982 194.846 93.8897 194.446 93.7739 193.868C93.6419 193.208 94.0693 192.567 94.7287 192.434C95.3876 192.301 109.722 192.349 121.631 192.411C122.304 192.414 122.846 192.962 122.843 193.635C122.839 194.305 122.295 194.846 121.625 194.846C121.623 194.846 121.621 194.846 121.619 194.846C111.553 194.793 96.2508 194.748 95.1387 194.834C95.0811 194.842 95.0233 194.846 94.9666 194.846Z" fill="#1E3A59"/>
<path d="M388.953 106.428C388.089 111.383 388.089 116.338 388.953 121.293C389.435 124.061 391.799 126.105 394.608 126.105H460.147C463.083 126.105 465.55 123.885 465.85 120.965C466.339 116.196 466.378 111.437 465.886 106.688C465.586 103.794 463.105 101.616 460.196 101.616H394.608C391.799 101.616 389.435 103.661 388.953 106.428Z" fill="#66A669"/>
<g opacity="0.25">
<path d="M465.848 120.964C465.547 123.886 463.08 126.102 460.141 126.102H394.606C391.797 126.102 389.435 124.065 388.948 121.297C388.274 117.416 388.128 113.544 388.518 109.664C388.615 110.744 388.761 111.823 388.948 112.903C389.435 115.671 391.797 117.717 394.606 117.717H460.141C463.08 117.717 465.547 115.501 465.848 112.578C465.953 111.523 466.043 110.46 466.099 109.404C466.343 113.252 466.246 117.108 465.848 120.964Z" fill="#1E3A59"/>
</g>
<g opacity="0.7">
<path d="M466.181 116.044C466.132 114.543 466.035 113.049 465.881 111.555C465.58 108.665 463.104 106.49 460.19 106.49H394.606C391.798 106.49 389.435 108.527 388.948 111.296C388.656 112.96 388.469 114.624 388.38 116.296C388.185 113.008 388.38 109.721 388.948 106.425C389.435 103.657 391.798 101.619 394.606 101.619H460.19C463.104 101.619 465.58 103.795 465.881 106.685C466.205 109.802 466.303 112.919 466.181 116.044Z" fill="white"/>
</g>
<path d="M460.147 128.541H394.608C390.63 128.541 387.243 125.669 386.553 121.711C385.644 116.502 385.644 111.219 386.553 106.01C387.243 102.053 390.63 99.1812 394.608 99.1812H460.195C464.391 99.1812 467.878 102.301 468.307 106.437C468.801 111.196 468.788 116.168 468.271 121.214C467.843 125.39 464.351 128.541 460.147 128.541ZM391.351 106.847C390.539 111.501 390.539 116.221 391.351 120.874C391.633 122.494 393.003 123.67 394.608 123.67H460.147C461.844 123.67 463.254 122.401 463.426 120.717C463.909 116.003 463.922 111.367 463.463 106.939C463.292 105.293 461.887 104.052 460.195 104.052H394.608C393.003 104.052 391.634 105.227 391.351 106.847Z" fill="#1E3A59"/>
<path d="M438.497 126.105C430.65 128.631 422.802 128.631 414.955 126.105V101.617C422.485 99.5104 430.369 99.7541 438.497 101.617V126.105Z" fill="#DADEE0"/>
<g opacity="0.25">
<path d="M438.503 114.875V126.102C430.653 128.627 422.803 128.627 414.961 126.102V114.875C422.803 117.4 430.653 117.4 438.503 114.875Z" fill="#1E3A59"/>
</g>
<path d="M426.728 130.428C422.546 130.428 418.364 129.76 414.211 128.424C413.204 128.1 412.521 127.163 412.521 126.106V101.617C412.521 100.524 413.249 99.5657 414.301 99.2717C421.836 97.1638 429.929 97.1543 439.043 99.2431C440.149 99.4969 440.934 100.481 440.934 101.617V126.106C440.934 127.163 440.251 128.1 439.244 128.424C435.092 129.76 430.91 130.428 426.728 130.428ZM417.392 124.288C423.595 125.974 429.861 125.974 436.063 124.288V103.586C429.249 102.239 423.108 102.214 417.392 103.511V124.288Z" fill="#1E3A59"/>
<path d="M390.196 111.493C389.535 111.493 388.993 110.965 388.979 110.303C388.964 109.63 389.497 109.073 390.17 109.058L414.929 108.517C415.62 108.489 416.158 109.036 416.173 109.707C416.187 110.381 415.654 110.937 414.982 110.952L390.223 111.493C390.214 111.493 390.204 111.493 390.196 111.493Z" fill="#1E3A59"/>
<path d="M414.957 117.988C414.899 117.988 414.841 117.984 414.782 117.975C413.706 117.889 399.522 117.936 390.203 117.988C390.201 117.988 390.198 117.988 390.196 117.988C389.527 117.988 388.982 117.447 388.979 116.778C388.975 116.105 389.517 115.557 390.189 115.553C401.233 115.491 414.535 115.443 415.194 115.576C415.854 115.709 416.281 116.35 416.149 117.01C416.034 117.589 415.525 117.988 414.957 117.988Z" fill="#1E3A59"/>
<path d="M463.936 111.535C463.927 111.535 463.918 111.535 463.909 111.535L437.252 110.952C436.579 110.937 436.046 110.381 436.061 109.707C436.075 109.036 436.607 108.489 437.305 108.517L463.962 109.099C464.634 109.114 465.167 109.671 465.152 110.344C465.138 111.007 464.596 111.535 463.936 111.535Z" fill="#1E3A59"/>
<path d="M437.275 117.988C436.707 117.988 436.198 117.588 436.083 117.009C435.951 116.35 436.378 115.708 437.037 115.576C437.696 115.444 452.03 115.491 463.94 115.552C464.613 115.556 465.155 116.104 465.151 116.776C465.148 117.447 464.603 117.988 463.934 117.988C463.932 117.988 463.929 117.988 463.927 117.988C453.862 117.935 438.559 117.89 437.447 117.976C437.39 117.984 437.332 117.988 437.275 117.988Z" fill="#1E3A59"/>
<path d="M388.953 131.335C388.089 136.29 388.089 141.245 388.953 146.2C389.435 148.967 391.799 151.012 394.608 151.012H460.147C463.083 151.012 465.55 148.792 465.85 145.872C466.339 141.103 466.378 136.344 465.886 131.595C465.586 128.701 463.105 126.523 460.196 126.523H394.608C391.799 126.523 389.435 128.567 388.953 131.335Z" fill="#66A669"/>
<g opacity="0.25">
<path d="M465.848 145.871C465.547 148.794 463.08 151.01 460.141 151.01H394.606C391.797 151.01 389.435 148.972 388.948 146.204C388.274 142.324 388.128 138.451 388.518 134.571C388.615 135.651 388.761 136.73 388.948 137.81C389.435 140.578 391.797 142.624 394.606 142.624H460.141C463.08 142.624 465.547 140.408 465.848 137.486C465.953 136.43 466.043 135.367 466.099 134.312C466.343 138.159 466.246 142.015 465.848 145.871Z" fill="#1E3A59"/>
</g>
<g opacity="0.7">
<path d="M466.181 140.951C466.132 139.449 466.035 137.955 465.881 136.462C465.58 133.572 463.104 131.396 460.19 131.396H394.606C391.798 131.396 389.435 133.434 388.948 136.202C388.656 137.866 388.469 139.53 388.38 141.202C388.185 137.915 388.38 134.627 388.948 131.331C389.435 128.563 391.798 126.525 394.606 126.525H460.19C463.104 126.525 465.58 128.701 465.881 131.591C466.205 134.708 466.303 137.826 466.181 140.951Z" fill="white"/>
</g>
<path d="M460.147 153.447H394.608C390.63 153.447 387.243 150.575 386.553 146.618C385.644 141.409 385.644 136.126 386.553 130.916C387.243 126.96 390.63 124.087 394.608 124.087H460.195C464.391 124.087 467.878 127.207 468.307 131.343C468.801 136.103 468.789 141.075 468.271 146.12C467.843 150.297 464.351 153.447 460.147 153.447ZM391.351 131.754C390.539 136.408 390.539 141.128 391.351 145.781C391.633 147.401 393.003 148.577 394.608 148.577H460.147C461.844 148.577 463.254 147.307 463.426 145.623C463.909 140.909 463.922 136.274 463.463 131.846C463.292 130.2 461.887 128.958 460.195 128.958H394.608C393.003 128.958 391.634 130.134 391.351 131.754Z" fill="#1E3A59"/>
<path d="M438.497 151.012C430.65 153.537 422.802 153.537 414.955 151.012V126.523C422.485 124.417 430.369 124.66 438.497 126.523V151.012Z" fill="#DADEE0"/>
<g opacity="0.25">
<path d="M438.503 139.782V151.009C430.653 153.534 422.803 153.534 414.961 151.009V139.782C422.803 142.307 430.653 142.307 438.503 139.782Z" fill="#1E3A59"/>
</g>
<path d="M426.728 155.334C422.546 155.334 418.364 154.666 414.211 153.329C413.204 153.006 412.521 152.069 412.521 151.011V126.522C412.521 125.43 413.249 124.472 414.301 124.178C421.835 122.07 429.927 122.059 439.042 124.149C440.149 124.402 440.934 125.387 440.934 126.522V151.011C440.934 152.069 440.251 153.006 439.244 153.329C435.092 154.666 430.91 155.334 426.728 155.334ZM417.392 149.194C423.595 150.882 429.861 150.882 436.063 149.194V128.492C429.249 127.145 423.106 127.119 417.392 128.417V149.194Z" fill="#1E3A59"/>
<path d="M390.196 136.4C389.535 136.4 388.993 135.872 388.979 135.209C388.964 134.536 389.497 133.979 390.17 133.964L414.929 133.423C415.62 133.428 416.158 133.942 416.173 134.614C416.187 135.287 415.654 135.843 414.982 135.858L390.223 136.4C390.214 136.4 390.204 136.4 390.196 136.4Z" fill="#1E3A59"/>
<path d="M414.957 142.894C414.899 142.894 414.841 142.89 414.782 142.881C413.706 142.795 399.522 142.841 390.203 142.894C390.201 142.894 390.198 142.894 390.196 142.894C389.527 142.894 388.982 142.353 388.979 141.683C388.975 141.01 389.517 140.462 390.189 140.458C401.232 140.396 414.534 140.349 415.194 140.482C415.854 140.614 416.281 141.256 416.149 141.915C416.034 142.494 415.525 142.894 414.957 142.894Z" fill="#1E3A59"/>
<path d="M463.936 136.441C463.927 136.441 463.918 136.441 463.909 136.441L437.252 135.858C436.579 135.843 436.046 135.287 436.061 134.614C436.075 133.942 436.607 133.428 437.305 133.423L463.962 134.006C464.634 134.021 465.167 134.577 465.152 135.25C465.138 135.913 464.596 136.441 463.936 136.441Z" fill="#1E3A59"/>
<path d="M437.275 142.894C436.707 142.894 436.198 142.495 436.083 141.916C435.951 141.257 436.378 140.615 437.037 140.483C437.696 140.35 452.031 140.397 463.94 140.459C464.613 140.462 465.155 141.011 465.151 141.683C465.148 142.354 464.603 142.895 463.934 142.895C463.932 142.895 463.929 142.895 463.927 142.895C453.862 142.842 438.559 142.796 437.447 142.883C437.39 142.891 437.332 142.894 437.275 142.894Z" fill="#1E3A59"/>
<path d="M388.953 159.208C388.089 164.162 388.089 169.117 388.953 174.072C389.435 176.84 391.799 178.884 394.608 178.884H460.147C463.083 178.884 465.55 176.664 465.85 173.744C466.339 168.976 466.378 164.216 465.886 159.467C465.586 156.574 463.105 154.396 460.196 154.396H394.608C391.799 154.395 389.435 156.44 388.953 159.208Z" fill="#66A669"/>
<g opacity="0.25">
<path d="M465.848 173.743C465.547 176.665 463.08 178.881 460.141 178.881H394.606C391.797 178.881 389.435 176.844 388.948 174.076C388.274 170.195 388.128 166.323 388.518 162.443C388.615 163.522 388.761 164.602 388.948 165.682C389.435 168.45 391.797 170.496 394.606 170.496H460.141C463.08 170.496 465.547 168.28 465.848 165.357C465.953 164.302 466.043 163.239 466.099 162.183C466.343 166.031 466.246 169.887 465.848 173.743Z" fill="#1E3A59"/>
</g>
<g opacity="0.7">
<path d="M466.181 168.823C466.132 167.321 466.035 165.828 465.881 164.334C465.58 161.444 463.104 159.269 460.19 159.269H394.606C391.798 159.269 389.435 161.306 388.948 164.074C388.656 165.739 388.469 167.403 388.38 169.075C388.185 165.787 388.38 162.5 388.948 159.204C389.435 156.436 391.798 154.398 394.606 154.398H460.19C463.104 154.398 465.58 156.574 465.881 159.463C466.205 162.581 466.303 165.698 466.181 168.823Z" fill="white"/>
</g>
<path d="M460.147 181.319H394.608C390.63 181.319 387.243 178.447 386.553 174.49C385.644 169.281 385.644 163.998 386.553 158.789C387.243 154.832 390.63 151.959 394.608 151.959H460.195C464.391 151.959 467.878 155.079 468.307 159.215C468.801 163.975 468.789 168.947 468.271 173.992C467.843 178.169 464.351 181.319 460.147 181.319ZM394.608 156.83C393.003 156.83 391.633 158.006 391.351 159.626C390.539 164.28 390.539 169 391.351 173.653C391.633 175.273 393.003 176.449 394.608 176.449H460.147C461.844 176.449 463.254 175.179 463.426 173.496C463.909 168.781 463.922 164.146 463.463 159.718C463.292 158.072 461.887 156.83 460.195 156.83H394.608V156.83Z" fill="#1E3A59"/>
<path d="M438.497 178.885C430.65 181.41 422.802 181.41 414.955 178.885V154.396C422.485 152.29 430.369 152.533 438.497 154.396V178.885Z" fill="#DADEE0"/>
<g opacity="0.25">
<path d="M438.503 167.655V178.882C430.653 181.406 422.803 181.406 414.961 178.882V167.655C422.803 170.179 430.653 170.179 438.503 167.655Z" fill="#1E3A59"/>
</g>
<path d="M426.728 183.207C422.546 183.207 418.364 182.539 414.211 181.202C413.204 180.879 412.521 179.942 412.521 178.884V154.395C412.521 153.303 413.249 152.345 414.301 152.05C421.837 149.944 429.93 149.933 439.042 152.022C440.149 152.275 440.934 153.26 440.934 154.395V178.884C440.934 179.942 440.251 180.879 439.244 181.202C435.092 182.539 430.91 183.207 426.728 183.207ZM417.392 177.067C423.595 178.755 429.861 178.755 436.063 177.067V156.365C429.25 155.018 423.107 154.994 417.392 156.29V177.067Z" fill="#1E3A59"/>
<path d="M390.196 164.272C389.535 164.272 388.993 163.744 388.979 163.081C388.964 162.408 389.497 161.852 390.17 161.837L414.929 161.295C415.62 161.286 416.158 161.813 416.173 162.486C416.187 163.159 415.654 163.715 414.982 163.73L390.223 164.272C390.214 164.272 390.204 164.272 390.196 164.272Z" fill="#1E3A59"/>
<path d="M414.957 170.766C414.899 170.766 414.841 170.762 414.782 170.753C413.706 170.667 399.522 170.713 390.203 170.766C390.201 170.766 390.198 170.766 390.196 170.766C389.527 170.766 388.982 170.225 388.979 169.556C388.975 168.882 389.517 168.335 390.189 168.331C401.233 168.269 414.535 168.222 415.194 168.354C415.854 168.487 416.281 169.128 416.149 169.788C416.034 170.367 415.525 170.766 414.957 170.766Z" fill="#1E3A59"/>
<path d="M463.936 164.313C463.927 164.313 463.918 164.313 463.909 164.313L437.252 163.73C436.579 163.715 436.046 163.159 436.061 162.486C436.075 161.813 436.607 161.285 437.305 161.295L463.962 161.878C464.634 161.893 465.167 162.449 465.152 163.122C465.138 163.785 464.596 164.313 463.936 164.313Z" fill="#1E3A59"/>
<path d="M437.275 170.766C436.707 170.766 436.198 170.367 436.083 169.788C435.951 169.128 436.378 168.487 437.037 168.355C437.696 168.222 452.03 168.27 463.94 168.331C464.613 168.334 465.155 168.883 465.151 169.555C465.148 170.226 464.603 170.766 463.934 170.766C463.932 170.766 463.929 170.766 463.927 170.766C453.862 170.713 438.559 170.668 437.447 170.754C437.39 170.762 437.332 170.766 437.275 170.766Z" fill="#1E3A59"/>
<path d="M162.425 390.602H158.501C152.598 390.602 147.812 385.817 147.812 379.914H173.113C173.113 385.817 168.327 390.602 162.425 390.602Z" fill="#B3B9BC"/>
<path d="M162.422 393.037H158.499C151.262 393.037 145.375 387.15 145.375 379.913C145.375 378.568 146.465 377.478 147.81 377.478H173.111C174.456 377.478 175.546 378.568 175.546 379.913C175.546 387.15 169.659 393.037 162.422 393.037ZM150.612 382.349C151.654 385.715 154.796 388.167 158.499 388.167H162.422C166.126 388.167 169.267 385.715 170.309 382.349H150.612Z" fill="#1E3A59"/>
<path d="M186.706 219.587V363.816C186.706 372.705 179.497 379.913 170.608 379.913H18.5292C13.0497 379.913 8.2034 377.17 5.30534 372.981C3.48696 370.375 2.43164 367.217 2.43164 363.816V219.587C2.43164 210.698 9.64025 203.489 18.5292 203.489H170.608C179.497 203.489 186.706 210.698 186.706 219.587Z" fill="#C1D0D6"/>
<g opacity="0.25">
<path d="M186.711 256.198V363.816C186.711 372.705 179.502 379.913 170.613 379.913H18.5344C13.0549 379.913 8.2086 377.17 5.31055 372.981C167.285 368.759 173.114 240.782 173.114 240.782L186.711 256.198Z" fill="#1E3A59"/>
</g>
<g opacity="0.7">
<path d="M183.743 210.284C182.842 210.073 181.892 209.959 180.926 209.959H20.997C14.2755 209.959 8.82034 215.406 8.82034 222.128V374.214C8.82034 375.124 8.91776 376.009 9.11259 376.861C5.06181 373.947 2.43164 369.19 2.43164 363.816V219.587C2.43164 210.698 9.64025 203.489 18.5292 203.489H170.608C176.031 203.489 180.828 206.168 183.743 210.284Z" fill="white"/>
</g>
<path d="M170.609 382.349H18.5354C8.31474 382.349 0 374.033 0 363.813V219.587C0 209.366 8.31474 201.051 18.5354 201.051H170.609C180.83 201.051 189.145 209.366 189.145 219.587V363.813C189.145 374.033 180.829 382.349 170.609 382.349ZM18.5354 205.922C11.0006 205.922 4.87068 212.052 4.87068 219.587V363.813C4.87068 371.348 11.0006 377.478 18.5354 377.478H170.609C178.144 377.478 184.274 371.348 184.274 363.813V219.587C184.274 212.052 178.144 205.922 170.609 205.922H18.5354Z" fill="#1E3A59"/>
<path d="M176.158 226.833L193.104 197.263L177.274 184.575L161.909 206.266L160.328 216.204L169.349 218.147L172.911 223.123" fill="#66A669"/>
<g opacity="0.7">
<path d="M193.108 197.262L190.965 200.997L178.066 190.654L162.699 212.345L162.025 216.566L160.328 216.201L161.911 206.265L177.278 184.574L193.108 197.262Z" fill="white"/>
</g>
<path d="M166.98 368.278H22.1622C18.045 368.278 14.6953 364.928 14.6953 360.811V222.588C14.6953 218.471 18.045 215.122 22.1622 215.122H166.98C171.097 215.122 174.447 218.471 174.447 222.588V360.811C174.447 364.928 171.097 368.278 166.98 368.278ZM22.1622 219.992C20.7306 219.992 19.566 221.157 19.566 222.588V360.811C19.566 362.242 20.7306 363.407 22.1622 363.407H166.98C168.411 363.407 169.576 362.242 169.576 360.811V222.588C169.576 221.157 168.411 219.992 166.98 219.992H22.1622Z" fill="#1E3A59"/>
<g opacity="0.25">
<path d="M172.016 222.59V228.946C172.016 226.17 169.76 223.913 166.983 223.913H22.1619C19.3857 223.913 17.1289 226.17 17.1289 228.946V222.59C17.1289 219.806 19.3857 217.557 22.1619 217.557H166.983C169.76 217.557 172.016 219.806 172.016 222.59Z" fill="#1E3A59"/>
</g>
<path d="M17.8073 269.917H16.4544C13.2414 269.917 10.6367 267.313 10.6367 264.1V250.976C10.6367 247.763 13.2414 245.158 16.4544 245.158H17.8073C21.0204 245.158 23.625 247.763 23.625 250.976V264.1C23.625 267.313 21.0204 269.917 17.8073 269.917Z" fill="#07C7FF"/>
<g opacity="0.25">
<path d="M23.6252 255.979V264.096C23.6252 267.311 21.0194 269.917 17.8047 269.917H16.4572C13.2425 269.917 10.6367 267.311 10.6367 264.096V255.979C10.6367 259.193 13.2425 261.799 16.4572 261.799H17.8047C21.0194 261.799 23.6252 259.193 23.6252 255.979Z" fill="#1E3A59"/>
</g>
<g opacity="0.7">
<path d="M23.6252 250.979V256.255C23.6252 253.041 21.0194 250.435 17.8047 250.435H16.4572C13.2425 250.435 10.6367 253.041 10.6367 256.255V250.979C10.6367 247.764 13.2425 245.158 16.4572 245.158H17.8047C21.0194 245.158 23.6252 247.764 23.6252 250.979Z" fill="white"/>
</g>
<path d="M17.8069 272.758H16.4542C11.6795 272.758 7.79492 268.874 7.79492 264.099V250.976C7.79492 246.201 11.6795 242.316 16.4542 242.316H17.8069C22.5813 242.316 26.4659 246.201 26.4659 250.976V264.099C26.4659 268.874 22.5813 272.758 17.8069 272.758ZM16.4542 247.999C14.8128 247.999 13.4774 249.334 13.4774 250.976V264.099C13.4774 265.741 14.8128 267.076 16.4542 267.076H17.8069C19.4479 267.076 20.7834 265.741 20.7834 264.099V250.976C20.7834 249.334 19.448 247.999 17.8069 247.999H16.4542Z" fill="#1E3A59"/>
<path d="M17.8073 341.626H16.4544C13.2414 341.626 10.6367 339.022 10.6367 335.809V322.685C10.6367 319.472 13.2414 316.867 16.4544 316.867H17.8073C21.0204 316.867 23.625 319.472 23.625 322.685V335.809C23.625 339.022 21.0204 341.626 17.8073 341.626Z" fill="#07C7FF"/>
<g opacity="0.25">
<path d="M23.6252 327.688V335.806C23.6252 339.02 21.0194 341.626 17.8047 341.626H16.4572C13.2425 341.626 10.6367 339.02 10.6367 335.806V327.688C10.6367 330.903 13.2425 333.508 16.4572 333.508H17.8047C21.0194 333.508 23.6252 330.903 23.6252 327.688Z" fill="#1E3A59"/>
</g>
<g opacity="0.25">
<path d="M71.0325 333.235C88.5175 333.235 102.692 319.061 102.692 301.576C102.692 284.091 88.5175 269.917 71.0325 269.917C53.5475 269.917 39.373 284.091 39.373 301.576C39.373 319.061 53.5475 333.235 71.0325 333.235Z" fill="#1E3A59"/>
</g>
<g opacity="0.7">
<path d="M23.6252 322.687V327.964C23.6252 324.749 21.0194 322.143 17.8047 322.143H16.4572C13.2425 322.143 10.6367 324.749 10.6367 327.964V322.687C10.6367 319.473 13.2425 316.867 16.4572 316.867H17.8047C21.0194 316.867 23.6252 319.473 23.6252 322.687Z" fill="white"/>
</g>
<path d="M17.8069 344.468H16.4542C11.6795 344.468 7.79492 340.583 7.79492 335.808V322.685C7.79492 317.91 11.6795 314.026 16.4542 314.026H17.8069C22.5813 314.026 26.4659 317.91 26.4659 322.685V335.808C26.4659 340.583 22.5813 344.468 17.8069 344.468ZM16.4542 319.708C14.8128 319.708 13.4774 321.043 13.4774 322.685V335.808C13.4774 337.45 14.8128 338.785 16.4542 338.785H17.8069C19.4479 338.785 20.7834 337.45 20.7834 335.808V322.685C20.7834 321.043 19.448 319.708 17.8069 319.708H16.4542Z" fill="#1E3A59"/>
<path d="M64.1321 324.915C81.6171 324.915 95.7915 310.741 95.7915 293.256C95.7915 275.771 81.6171 261.596 64.1321 261.596C46.6471 261.596 32.4727 275.771 32.4727 293.256C32.4727 310.741 46.6471 324.915 64.1321 324.915Z" fill="#07C7FF"/>
<g opacity="0.25">
<path d="M95.7917 293.255C95.7917 310.741 81.618 324.915 64.1323 324.915C51.2006 324.915 40.0874 317.162 35.168 306.057C40.9722 312.689 49.4959 316.87 58.9937 316.87C76.4794 316.87 90.6531 302.696 90.6531 285.21C90.6531 280.648 89.6871 276.313 87.9418 272.393C92.8368 277.961 95.7917 285.259 95.7917 293.255Z" fill="#1E3A59"/>
</g>
<g opacity="0.7">
<path d="M89.6544 274.512C83.9314 268.797 76.0084 265.249 67.2818 265.249C49.796 265.249 35.6224 279.423 35.6224 296.909C35.6224 303.931 37.9035 310.425 41.7757 315.677C36.0283 309.946 32.4727 302.015 32.4727 293.256C32.4727 275.77 46.6463 261.596 64.1321 261.596C74.604 261.596 83.8908 266.678 89.6544 274.512Z" fill="white"/>
</g>
<path d="M64.1299 327.351C45.3301 327.351 30.0352 312.056 30.0352 293.256C30.0352 274.456 45.3301 259.161 64.1299 259.161C82.9296 259.161 98.2247 274.456 98.2247 293.256C98.2247 312.056 82.9296 327.351 64.1299 327.351ZM64.1299 264.032C48.0156 264.032 34.9058 277.142 34.9058 293.256C34.9058 309.37 48.0156 322.48 64.1299 322.48C80.2442 322.48 93.354 309.37 93.354 293.256C93.354 277.142 80.2442 264.032 64.1299 264.032Z" fill="#1E3A59"/>
<path d="M64.1297 314.362C52.4917 314.362 43.0234 304.894 43.0234 293.256C43.0234 281.617 52.4917 272.149 64.1297 272.149C75.7677 272.149 85.236 281.617 85.236 293.256C85.236 304.894 75.7677 314.362 64.1297 314.362ZM64.1297 276.208C54.7296 276.208 47.0823 283.856 47.0823 293.256C47.0823 302.655 54.7296 310.303 64.1297 310.303C73.5298 310.303 81.1771 302.655 81.1771 293.256C81.1771 283.856 73.5298 276.208 64.1297 276.208Z" fill="#1E3A59"/>
<g opacity="0.25">
<path d="M64.1318 299.233C67.433 299.233 70.1092 296.557 70.1092 293.256C70.1092 289.955 67.433 287.278 64.1318 287.278C60.8305 287.278 58.1543 289.955 58.1543 293.256C58.1543 296.557 60.8305 299.233 64.1318 299.233Z" fill="#1E3A59"/>
</g>
<path d="M67.65 261.619L65.2146 267.628L62.7793 261.619H67.65Z" fill="#1E3A59"/>
<path d="M65.2146 318.884L67.65 324.892H62.7793L65.2146 318.884Z" fill="#1E3A59"/>
<path d="M95.7705 295.623L89.7617 293.188L95.7705 290.752V295.623Z" fill="#1E3A59"/>
<path d="M38.501 293.188L32.4922 295.623V290.752L38.501 293.188Z" fill="#1E3A59"/>
<path d="M88.2247 273.014L82.2539 275.54L84.7807 269.569L88.2247 273.014Z" fill="#1E3A59"/>
<path d="M46.006 311.716L43.4792 317.686L40.0352 314.242L46.006 311.716Z" fill="#1E3A59"/>
<g opacity="0.25">
<path d="M149.618 290.098C149.562 292.53 148.558 294.726 146.963 296.337C146.082 297.227 145.537 298.395 145.537 299.647V313.408C145.537 314.633 144.544 315.626 143.319 315.626H137.608C136.383 315.626 135.39 314.633 135.39 313.408V299.708C135.39 298.422 134.832 297.223 133.932 296.305C132.309 294.649 131.307 292.385 131.307 289.884C131.307 284.708 135.601 280.527 140.822 280.727C145.752 280.915 149.731 285.166 149.618 290.098Z" fill="#1E3A59"/>
</g>
<path d="M84.7807 317.348L82.2539 311.376L88.2247 313.903L84.7807 317.348Z" fill="#1E3A59"/>
<path d="M46.006 275.066L40.0352 272.539L43.4792 269.095L46.006 275.066Z" fill="#1E3A59"/>
<path d="M145.153 285.481C145.097 287.913 144.094 290.11 142.499 291.721C141.617 292.611 141.072 293.778 141.072 295.03V308.791C141.072 310.016 140.079 311.009 138.854 311.009H133.143C131.918 311.009 130.925 310.016 130.925 308.791V295.092C130.925 293.805 130.367 292.607 129.467 291.688C127.844 290.033 126.842 287.768 126.842 285.268C126.842 280.091 131.137 275.91 136.357 276.11C141.287 276.299 145.266 280.549 145.153 285.481Z" fill="#07C7FF"/>
<g opacity="0.7">
<path d="M130.495 287.744C130.495 290.244 131.493 292.509 133.117 294.165C134.018 295.082 134.578 296.275 134.578 297.566V311.009H133.141C131.915 311.009 130.925 310.019 130.925 308.793V295.09C130.925 293.808 130.365 292.606 129.464 291.689C127.84 290.033 126.842 287.768 126.842 285.268C126.842 280.089 131.136 275.908 136.356 276.111C138.88 276.208 141.153 277.361 142.753 279.131C141.892 278.814 140.967 278.627 140.009 278.587C134.789 278.384 130.495 282.564 130.495 287.744Z" fill="white"/>
</g>
<path d="M138.85 313.038H133.139C130.797 313.038 128.892 311.133 128.892 308.791V295.091C128.892 294.39 128.58 293.686 128.014 293.109C125.947 291.001 124.809 288.216 124.809 285.267C124.809 282.195 126.028 279.33 128.242 277.199C130.453 275.072 133.352 273.961 136.431 274.082C142.496 274.314 147.317 279.448 147.178 285.527C147.112 288.397 145.961 291.104 143.937 293.148C143.396 293.694 143.098 294.362 143.098 295.03V308.791C143.098 311.133 141.192 313.038 138.85 313.038ZM135.993 278.132C134.141 278.132 132.398 278.833 131.057 280.123C129.645 281.482 128.867 283.309 128.867 285.267C128.867 287.147 129.594 288.922 130.912 290.267C132.226 291.607 132.951 293.32 132.951 295.091V308.791C132.951 308.895 133.035 308.98 133.139 308.98H138.85C138.954 308.98 139.039 308.895 139.039 308.791V295.03C139.039 293.286 139.754 291.603 141.053 290.292C142.344 288.988 143.079 287.263 143.12 285.435V285.434C143.208 281.624 140.073 278.282 136.276 278.137C136.181 278.134 136.087 278.132 135.993 278.132Z" fill="#1E3A59"/>
<path d="M98.7656 365.842L102.689 392.902L127.99 389.655L122.443 365.842H98.7656Z" fill="#66A669"/>
<path d="M122.441 365.842L124.079 372.874L136.242 388.978L151.801 376.801L142.195 365.842H122.441Z" fill="#66A669"/>
<path d="M136.178 376.057C138.42 376.057 140.237 374.24 140.237 371.998C140.237 369.757 138.42 367.939 136.178 367.939C133.936 367.939 132.119 369.757 132.119 371.998C132.119 374.24 133.936 376.057 136.178 376.057Z" fill="#5B8C4A"/>
<path d="M102.688 395.337C101.496 395.337 100.457 394.461 100.281 393.251L96.3573 366.192C96.2558 365.492 96.4631 364.783 96.9257 364.249C97.3882 363.714 98.0606 363.407 98.7673 363.407H122.444C123.576 363.407 124.559 364.187 124.816 365.29L130.363 389.102C130.519 389.772 130.384 390.478 129.991 391.044C129.599 391.609 128.984 391.982 128.301 392.07L103.001 395.317C102.896 395.33 102.791 395.337 102.688 395.337ZM101.581 368.278L104.757 390.181L125.008 387.582L120.511 368.278H101.581Z" fill="#1E3A59"/>
<path d="M136.243 391.413C136.138 391.413 136.033 391.406 135.928 391.393C135.28 391.308 134.694 390.967 134.3 390.445L122.138 374.341C121.933 374.07 121.787 373.758 121.709 373.426L120.071 366.395C119.903 365.671 120.074 364.91 120.536 364.328C120.998 363.746 121.7 363.407 122.443 363.407H142.197C142.898 363.407 143.566 363.71 144.028 364.237L153.634 375.196C154.076 375.699 154.29 376.362 154.227 377.029C154.165 377.695 153.831 378.306 153.304 378.719L137.745 390.895C137.314 391.232 136.784 391.413 136.243 391.413ZM126.336 371.818L136.694 385.533L148.274 376.47L141.093 368.278H125.511L126.336 371.818Z" fill="#1E3A59"/>
<path d="M112.739 380.928C114.98 380.928 116.797 379.111 116.797 376.869C116.797 374.627 114.98 372.81 112.739 372.81C110.497 372.81 108.68 374.627 108.68 376.869C108.68 379.111 110.497 380.928 112.739 380.928Z" fill="#5B8C4A"/>
<path d="M135.973 183.462C135.973 183.462 135.568 204.366 130.291 217.557H158.906C158.906 217.557 165.142 201.119 162.43 185.695L135.973 183.462Z" fill="#66A669"/>
<g opacity="0.7">
<path d="M162.957 189.892L139.724 187.935C139.724 187.935 139.399 204.601 135.568 217.557H130.291C135.568 204.366 135.973 183.462 135.973 183.462L162.429 185.695C162.673 187.091 162.843 188.487 162.957 189.892Z" fill="white"/>
</g>
<path d="M158.906 219.992H130.291C129.483 219.992 128.727 219.591 128.274 218.922C127.821 218.253 127.73 217.403 128.03 216.653C133.083 204.02 133.535 183.619 133.539 183.415C133.552 182.742 133.843 182.104 134.343 181.653C134.843 181.203 135.504 180.979 136.179 181.036L162.635 183.268C163.737 183.361 164.637 184.184 164.829 185.273C167.625 201.173 161.448 217.724 161.184 218.421C160.824 219.367 159.918 219.992 158.906 219.992ZM133.747 215.122H157.165C158.5 210.975 161.761 199.29 160.311 187.96L138.313 186.104C138.05 191.599 137.095 204.68 133.747 215.122Z" fill="#1E3A59"/>
<path d="M147.997 211.785C150.94 211.785 153.325 208.74 153.325 204.983C153.325 201.227 150.94 198.181 147.997 198.181C145.055 198.181 142.67 201.227 142.67 204.983C142.67 208.74 145.055 211.785 147.997 211.785Z" fill="#5B8C4A"/>
<path d="M176.155 229.268C175.745 229.268 175.328 229.164 174.947 228.945C173.78 228.277 173.376 226.789 174.045 225.622L189.954 197.859L177.767 188.092L163.896 207.674C163.118 208.772 161.598 209.032 160.501 208.254C159.403 207.476 159.143 205.957 159.921 204.859L175.286 183.167C175.674 182.62 176.271 182.256 176.935 182.163C177.6 182.07 178.273 182.255 178.797 182.675L194.626 195.362C195.563 196.112 195.813 197.433 195.216 198.473L178.27 228.042C177.821 228.828 177 229.267 176.155 229.268Z" fill="#1E3A59"/>
<path d="M178.625 211.205C180.939 209.527 181.456 206.292 179.779 203.978C178.101 201.663 174.866 201.147 172.552 202.824C170.237 204.501 169.721 207.737 171.398 210.051C173.075 212.365 176.311 212.882 178.625 211.205Z" fill="#5B8C4A"/>
<path d="M33.1452 390.602H29.2216C23.3185 390.602 18.5332 385.817 18.5332 379.914H43.8336C43.8336 385.817 39.0482 390.602 33.1452 390.602Z" fill="#B3B9BC"/>
<path d="M33.1489 393.037H29.2256C21.9889 393.037 16.1016 387.15 16.1016 379.913C16.1016 378.568 17.1919 377.478 18.5369 377.478H43.8376C45.1826 377.478 46.273 378.568 46.273 379.913C46.273 387.15 40.3856 393.037 33.1489 393.037ZM21.3388 382.349C22.3805 385.715 25.5223 388.167 29.2256 388.167H33.1489C36.8523 388.167 39.994 385.715 41.0357 382.349H21.3388Z" fill="#1E3A59"/>
<g opacity="0.25">
<path d="M122.443 370.984C121.767 371.187 101.069 381.725 101.069 381.725C101.069 381.725 99.1385 366.925 99.5444 366.925C99.9502 366.925 122.443 365.842 122.443 365.842L142.264 366.925C142.264 366.925 144.091 369.766 143.685 369.766C143.279 369.766 127.99 375.55 127.99 375.55" fill="#1E3A59"/>
</g>
<path d="M215.392 167.498C215.392 167.498 178.397 170.722 189.956 213.769L220.533 186.195" fill="white"/>
<path d="M189.951 216.205C188.877 216.205 187.893 215.487 187.601 214.401C183.629 199.612 184.749 187.638 190.928 178.812C199.498 166.57 214.541 165.127 215.177 165.072C216.521 164.96 217.698 165.947 217.815 167.286C217.931 168.625 216.942 169.804 215.604 169.923C215.445 169.938 202.12 171.274 194.891 181.644C189.601 189.232 188.731 199.828 192.305 213.137C192.654 214.436 191.884 215.772 190.584 216.121C190.373 216.178 190.161 216.205 189.951 216.205Z" fill="#1E3A59"/>
<path d="M228.633 319.089C193.031 333.557 194.487 262.859 194.487 262.859L213.255 276.269L230.545 313.144" fill="white"/>
<path d="M272.192 376.115L271.696 376.423L262.613 382.081C262.613 382.081 262.069 392.634 251.792 396.417C241.506 400.208 230.953 393.982 227.3 388.032C225.474 385.069 224.126 378.185 223.55 370.611C222.965 363.004 223.168 354.692 224.459 348.928C227.032 337.433 240.086 334.356 240.086 334.356L247.384 343.846L268.157 370.87L272.192 376.115Z" fill="white"/>
<path d="M455.813 180.622C455.756 181.434 455.691 182.221 455.618 183C452.923 210.154 435.576 216.649 411.977 214.311C411.977 214.311 400.815 232.982 375.853 250.638C354.966 265.42 336.628 252.188 331.205 247.472C331.132 247.415 331.059 247.35 330.994 247.293C330.077 246.481 329.581 245.97 329.581 245.97C330.799 258.35 328.77 270.056 328.77 270.056C352.855 294.133 352.043 309.021 352.043 309.021C352.612 325.184 342.172 337.255 326.968 347.556C326.627 347.792 326.278 348.019 325.928 348.254L328.096 354.481C330.953 353.831 333.876 353.872 336.693 354.456C350.379 357.265 361.484 372.884 350.144 384.784C334.826 400.866 293.863 397.229 281.143 386.14C268.43 375.043 261.936 356.372 238.118 330.939C230.772 323.097 225.057 314.241 220.657 305.758C219.301 303.144 218.075 300.57 216.963 298.07C214.674 292.932 212.88 288.109 211.5 283.945C209.876 279.058 208.821 275.072 208.212 272.54C207.75 270.599 207.547 269.512 207.547 269.512C204.86 268.392 202.392 267.231 200.119 266.053C199.965 265.98 199.818 265.899 199.672 265.818C193.202 262.433 188.372 258.877 184.784 255.476C176.399 247.545 173.395 235.441 176.796 224.409C178.266 219.636 180.214 215.455 182.471 211.786C195.687 190.241 219.447 186.442 219.447 186.442C219.447 186.442 270.524 174.533 302.184 180.622C333.843 186.71 357.588 205.787 357.588 205.787C392.9 182.042 405.28 178.998 405.28 178.998L455.813 180.622Z" fill="white"/>
<g opacity="0.25">
<path d="M455.619 183C452.924 210.154 435.576 216.648 411.978 214.31C411.978 214.31 400.816 232.981 375.853 250.637C354.682 265.615 336.133 251.831 330.994 247.293C330.873 245.913 330.946 244.687 331.23 243.688C333.414 236.001 327.252 230.538 327.252 230.538L316.212 232.234L315.303 226.487C324.411 227.152 319.483 212.354 319.321 211.867C344.535 247.894 375.862 226.828 407.919 198.886C431.866 210.048 452.161 181.839 452.161 181.839L455.619 183Z" fill="#1E3A59"/>
</g>
<g opacity="0.25">
<path d="M326.966 347.556L308.718 316.87C336.351 323.429 328.566 294.676 322.274 283.498C315.983 272.32 313.548 270.623 313.548 270.623C313.548 270.623 314.968 279.05 291.833 282.703C268.697 286.356 267.682 276.265 267.682 276.265L286.15 274.991C298.725 273.213 285.249 266.451 285.249 266.451L266.107 266.581L259.15 254.42C280.776 258 300.153 253.86 315.618 236.261L316.787 245.97H329.58C330.798 258.349 328.769 270.055 328.769 270.055C352.854 294.133 352.042 309.021 352.042 309.021C352.611 325.183 342.171 337.254 326.966 347.556Z" fill="#1E3A59"/>
</g>
<path d="M316.39 398.099C301.446 398.099 286.588 394.115 279.546 387.972C273.339 382.557 268.738 375.679 262.912 366.972C256.649 357.613 248.856 345.965 236.344 332.6C214.588 309.359 206.884 278.058 205.416 271.252C196.256 267.298 188.755 262.589 183.108 257.245C174.179 248.794 170.788 235.624 174.469 223.692C184.61 190.816 216.857 184.433 218.961 184.053C221.836 183.387 271.108 172.165 302.645 178.229C330.503 183.587 352.032 198.561 357.687 202.789C391.848 179.96 404.185 176.759 404.7 176.633C404.916 176.58 405.14 176.558 405.36 176.564L455.893 178.187C456.553 178.208 457.176 178.496 457.619 178.985C458.062 179.474 458.288 180.122 458.245 180.78C457.397 193.72 453.386 203.319 446.322 209.309C438.865 215.634 428.031 218.115 413.237 216.87C410.197 221.492 398.856 237.351 377.261 252.625C357.841 266.361 340.338 257.302 332.368 251.473C332.608 259.514 331.766 266.451 331.367 269.21C354.139 292.347 354.515 307.325 354.479 309.012C354.984 324.078 346.826 336.895 328.846 349.225L329.718 351.731C339.305 350.581 349.73 355.84 354.688 364.583C358.909 372.028 357.872 380.208 351.911 386.463C344.064 394.698 330.19 398.098 316.39 398.099ZM219.837 188.843C218.537 189.056 188.64 194.275 179.123 225.127C175.985 235.302 178.863 246.52 186.456 253.707C191.916 258.875 199.328 263.436 208.485 267.264C209.24 267.579 209.787 268.255 209.939 269.06C210.005 269.413 216.872 304.673 239.9 329.272C252.683 342.926 260.599 354.757 266.96 364.264C272.585 372.671 277.028 379.312 282.747 384.301C288.543 389.357 301.392 392.938 314.722 393.215C329.7 393.519 341.967 389.84 348.385 383.104C354.497 376.689 352.303 370.251 350.45 366.985C346.729 360.422 337.553 354.839 328.631 356.853C327.423 357.123 326.201 356.447 325.794 355.277L323.63 349.053C323.264 348.003 323.657 346.839 324.583 346.224C342.144 334.574 350.095 322.779 349.608 309.104C349.605 309.031 349.606 308.958 349.61 308.885C349.614 308.769 349.83 294.554 327.049 271.774C326.489 271.214 326.237 270.417 326.371 269.637C326.391 269.522 328.328 258.092 327.159 246.208C327.058 245.173 327.623 244.188 328.567 243.755C329.512 243.321 330.628 243.536 331.344 244.287C332.156 245.132 351.543 264.848 374.448 248.648C398.645 231.533 409.779 213.241 409.889 213.058C410.373 212.25 411.284 211.796 412.218 211.886C426.399 213.291 436.524 211.232 443.172 205.594C448.83 200.795 452.114 193.381 453.175 182.972L405.586 181.443C403.578 182.067 390.426 186.641 358.948 207.806C358.063 208.402 356.895 208.351 356.064 207.685C355.831 207.498 332.384 188.908 301.725 183.012C270.943 177.093 220.509 188.691 220.004 188.81C219.949 188.823 219.893 188.835 219.837 188.843Z" fill="#1E3A59"/>
<path d="M328.474 356.883C319.865 359.387 311.037 362.099 303.714 367.455L301.856 368.827L300.099 370.341L299.21 371.107L298.389 371.941L296.707 373.622C297.216 372.609 297.842 371.452 298.394 370.442C299.505 368.769 300.688 367.124 302.058 365.616C307.581 359.605 314.892 355.136 322.778 352.983C324.388 352.556 326.018 352.215 327.717 352.071C330.731 351.863 331.391 356.158 328.474 356.883Z" fill="#1E3A59"/>
<path d="M287.166 290.82C292.233 292.812 296.364 296.365 299.976 300.32L295.149 301.739C296.171 297.213 297.851 292.748 301.034 289.264C301.74 293.79 301.408 298.304 300.695 302.766C300.396 304.972 297.452 305.879 295.954 304.272C292.189 300.405 288.86 296.037 287.166 290.82Z" fill="#1E3A59"/>
<path d="M323.696 349.22C313.13 324.787 295.379 302.161 295.201 301.935L299.025 298.917C299.207 299.147 317.341 322.255 328.166 347.287L323.696 349.22Z" fill="#1E3A59"/>
<path d="M252.979 351.928C252.551 339.657 260.482 327.065 273.184 319.846C286.455 312.304 301.229 312.592 313.719 320.635L311.082 324.73C300.168 317.702 287.233 317.467 275.591 324.081C264.618 330.317 257.487 341.439 257.847 351.758L252.979 351.928Z" fill="#1E3A59"/>
<path d="M375.853 253.074C375.449 253.074 375.039 252.973 374.662 252.761C345.952 236.629 355.166 205.385 355.262 205.071C355.657 203.785 357.02 203.061 358.305 203.459C359.59 203.854 360.312 205.215 359.919 206.499C359.573 207.638 351.81 234.334 377.048 248.515C378.221 249.174 378.637 250.658 377.978 251.831C377.531 252.626 376.704 253.073 375.853 253.074Z" fill="#1E3A59"/>
<path d="M327.153 245.808C326.734 237.11 325.012 228.553 321.819 220.406C319.426 214.162 316.24 208.1 312.747 202.4C311.532 200.498 310.253 198.631 309.018 196.722C313.564 201.785 317.874 207.225 321.363 213.084C326.154 220.98 329.965 229.687 331.629 238.846C332.032 241.287 332.229 243.627 332.013 246.133C331.618 249.212 327.148 248.905 327.153 245.808Z" fill="#1E3A59"/>
<path d="M261.465 200.51C316.162 200.51 360.502 156.17 360.502 101.473C360.502 46.7765 316.162 2.43604 261.465 2.43604C206.768 2.43604 162.428 46.7765 162.428 101.473C162.428 156.17 206.768 200.51 261.465 200.51Z" fill="white"/>
<g opacity="0.25">
<path d="M359.221 117.414C351.599 164.53 310.734 200.508 261.467 200.508C206.769 200.508 162.43 156.169 162.43 101.471C162.43 84.8781 166.513 69.2351 173.73 55.4917C172.885 60.679 172.447 66.0043 172.447 71.4351C172.447 126.133 216.786 170.472 271.484 170.472C309.581 170.472 342.653 148.96 359.221 117.414Z" fill="#1E3A59"/>
</g>
<path d="M345.467 153.944C313.526 207.092 213.271 194.103 193.383 144.585L182.457 107.581C190.542 37.0239 276.455 -15.8478 338.441 39.1555C362.461 76.0587 369.925 114 345.467 153.944Z" fill="#0056A8"/>
<g opacity="0.7">
<path opacity="0.35" d="M360.505 106.032C360.107 121.715 355.439 137.659 345.471 153.943C313.527 207.09 213.272 194.102 193.384 144.583L182.457 107.582C183.155 101.478 184.438 95.5032 186.24 89.7231C201.144 125.539 236.481 150.72 277.703 150.72C312.334 150.72 342.808 132.95 360.505 106.032Z" fill="#111A28"/>
</g>
<path d="M261.465 202.945C205.513 202.945 159.992 157.424 159.992 101.472C159.992 45.5207 205.513 0 261.465 0C317.417 0 362.937 45.5207 362.937 101.472C362.937 157.424 317.417 202.945 261.465 202.945ZM261.465 4.87068C208.198 4.87068 164.863 48.2058 164.863 101.472C164.863 154.739 208.198 198.074 261.465 198.074C314.731 198.074 358.066 154.739 358.066 101.472C358.066 48.2058 314.731 4.87068 261.465 4.87068Z" fill="#1E3A59"/>
<path d="M182.315 163.374C195.006 160.547 202.436 145.425 198.911 129.598C195.386 113.771 182.24 103.232 169.549 106.058C156.858 108.885 149.428 124.007 152.953 139.834C156.478 155.661 169.624 166.2 182.315 163.374Z" fill="white"/>
<g opacity="0.25">
<path d="M182.311 163.361C169.623 166.194 156.48 155.649 152.949 139.827C151.536 133.479 151.885 127.245 153.631 121.863C157.949 136.223 170.337 145.469 182.311 142.799C189.917 141.11 195.632 135.005 198.23 126.985C198.49 127.837 198.717 128.706 198.912 129.591C202.435 145.413 195.007 160.536 182.311 163.361Z" fill="#1E3A59"/>
</g>
<path d="M178.109 166.263C172.754 166.263 167.406 164.286 162.671 160.49C156.694 155.699 152.398 148.548 150.573 140.355C148.748 132.161 149.603 123.864 152.981 116.989C156.448 109.932 162.143 105.204 169.016 103.673C175.89 102.144 183.052 104.007 189.187 108.924C195.162 113.716 199.459 120.867 201.284 129.059C203.109 137.253 202.254 145.551 198.876 152.426C195.409 159.482 189.714 164.211 182.841 165.742C181.274 166.09 179.691 166.263 178.109 166.263ZM173.722 108.027C172.499 108.027 171.279 108.159 170.075 108.428C164.673 109.63 160.155 113.434 157.353 119.136C154.461 125.02 153.742 132.18 155.327 139.296C156.912 146.412 160.602 152.589 165.717 156.69C170.675 160.664 176.38 162.193 181.782 160.987C187.184 159.784 191.702 155.981 194.504 150.278C197.396 144.394 198.115 137.234 196.53 130.118C194.945 123.003 191.255 116.826 186.14 112.725C182.288 109.637 177.984 108.027 173.722 108.027Z" fill="#1E3A59"/>
<path d="M171.1 158.093C167.275 158.093 163.454 156.606 160.079 153.758C155.978 150.297 153.006 145.186 151.709 139.366C148.971 127.071 154.655 115.305 164.379 113.138C174.103 110.972 184.244 119.213 186.983 131.51C188.279 137.329 187.757 143.218 185.513 148.093C183.147 153.231 179.17 156.656 174.313 157.738C173.248 157.975 172.174 158.093 171.1 158.093ZM167.588 118.468C166.929 118.468 166.27 118.538 165.615 118.684C158.948 120.17 155.198 128.893 157.256 138.131C158.283 142.743 160.588 146.752 163.744 149.415C166.68 151.893 169.993 152.88 173.078 152.191C176.162 151.504 178.745 149.205 180.351 145.716C182.079 141.964 182.464 137.357 181.437 132.745C179.582 124.416 173.628 118.468 167.588 118.468Z" fill="#1E3A59"/>
<path d="M173.499 108.036C173.39 108.036 173.279 108.029 173.167 108.014C171.835 107.832 170.902 106.604 171.083 105.272C175.577 72.3122 189.753 45.5496 212.079 27.8776C234.493 10.1351 263.722 2.68389 296.598 6.33219C297.935 6.48042 298.899 7.6838 298.75 9.02129C298.602 10.3578 297.393 11.3258 296.061 11.1728C231.887 4.05953 184.728 41.2491 175.909 105.93C175.743 107.151 174.698 108.036 173.499 108.036Z" fill="#1E3A59"/>
<g opacity="0.5">
<path d="M277.878 33.5351C315.866 32.7212 338.085 51.9474 346.979 87.6373C347.854 91.1492 343.369 93.4029 341.064 90.6129C323.18 68.9717 302.79 50.6167 276.72 40.067C273.315 38.6889 274.206 33.6138 277.878 33.5351Z" fill="white"/>
</g>
<g opacity="0.5">
<path d="M219.157 111.707C225.994 111.707 231.537 104.62 231.537 95.8776C231.537 87.1351 225.994 80.0479 219.157 80.0479C212.32 80.0479 206.777 87.1351 206.777 95.8776C206.777 104.62 212.32 111.707 219.157 111.707Z" fill="white"/>
</g>
<g opacity="0.5">
<path d="M219.004 136.365C222.731 136.365 225.752 133.343 225.752 129.617C225.752 125.89 222.731 122.869 219.004 122.869C215.277 122.869 212.256 125.89 212.256 129.617C212.256 133.343 215.277 136.365 219.004 136.365Z" fill="white"/>
</g>
<path d="M325.352 268.153L278.595 274.713C273.062 275.491 267.894 271.598 267.115 266.057L263.626 241.175C262.946 236.324 265.848 231.763 270.299 230.182C270.929 229.953 271.592 229.793 272.282 229.695L319.031 223.136C324.572 222.357 329.74 226.251 330.511 231.792L333.28 251.498L334.008 256.673C334.786 262.214 330.885 267.375 325.352 268.153Z" fill="white"/>
<path d="M325.352 268.153L278.595 274.713C273.062 275.491 267.894 271.598 267.115 266.057L263.626 241.175C262.946 236.324 265.848 231.763 270.299 230.182C270.929 229.953 271.592 229.793 272.282 229.695L319.031 223.136C324.572 222.357 329.74 226.251 330.511 231.792L333.28 251.498L334.008 256.673C334.786 262.214 330.885 267.375 325.352 268.153Z" fill="white"/>
<path d="M325.352 268.153L278.595 274.713C273.062 275.491 267.894 271.598 267.115 266.057L263.626 241.175C262.946 236.324 265.848 231.763 270.299 230.182C270.929 229.953 271.592 229.793 272.282 229.695L319.031 223.136C324.572 222.357 329.74 226.251 330.511 231.792L333.28 251.498L334.008 256.673C334.786 262.214 330.885 267.375 325.352 268.153Z" fill="white"/>
<g opacity="0.3">
<path d="M325.42 268.147L278.664 274.706C273.13 275.484 267.962 271.591 267.184 266.05L263.694 241.169C263.014 236.318 265.916 231.757 270.367 230.175C273.27 231.566 275.114 232.458 275.114 232.458C280.193 252.111 287.277 261.272 312.135 258.197C322.864 256.868 329.393 254.287 333.348 251.492L334.076 256.667C334.855 262.207 330.954 267.369 325.42 268.147Z" fill="#1E3A59"/>
</g>
<path d="M276.537 276.94C274.07 276.94 271.676 276.141 269.663 274.623C267.215 272.777 265.633 270.098 265.21 267.08L261.511 240.718C261.087 237.7 261.87 234.689 263.716 232.241C265.562 229.793 268.24 228.211 271.259 227.788L319.489 221.021C322.507 220.597 325.518 221.38 327.966 223.225C330.414 225.071 331.995 227.75 332.418 230.768L336.117 257.13C336.541 260.149 335.758 263.16 333.912 265.608C332.067 268.056 329.388 269.637 326.369 270.061L278.14 276.827C277.604 276.903 277.069 276.94 276.537 276.94ZM321.083 224.968C320.741 224.968 320.397 224.992 320.052 225.04L271.823 231.807C269.878 232.08 268.15 233.102 266.957 234.684C265.764 236.266 265.257 238.209 265.53 240.154L269.229 266.515C269.502 268.461 270.524 270.189 272.106 271.382C273.688 272.574 275.631 273.082 277.576 272.808H277.576L325.806 266.041C327.75 265.768 329.478 264.747 330.671 263.164C331.864 261.582 332.371 259.639 332.098 257.694L328.399 231.333C328.126 229.388 327.104 227.659 325.522 226.466C324.22 225.485 322.673 224.968 321.083 224.968Z" fill="#1E3A59"/>
<path d="M308.788 270.3L308.719 270.491L278.592 274.716C274.535 275.28 270.68 273.346 268.604 270.081C267.845 268.899 267.325 267.541 267.12 266.058L265.565 255.005L265.052 251.357L264.157 244.952L263.626 241.178C262.85 235.635 266.744 230.475 272.279 229.696L282.382 228.283C277.849 229.814 274.88 234.417 275.563 239.313L276.597 246.699L277.45 252.755L279.052 264.208C279.833 269.736 285.001 273.632 290.533 272.861L308.788 270.3Z" fill="white"/>
<g opacity="0.3">
<path d="M313.56 269.627L313.491 269.817L278.591 274.715C274.534 275.279 270.679 273.345 268.603 270.08C267.844 268.898 267.324 267.54 267.119 266.057L265.564 255.004L265.051 251.356L264.156 244.951C266.143 244.387 268.869 244.289 270.751 247.078C273.359 250.942 275.312 249.259 276.596 246.698L277.449 252.754L279.051 264.207C279.833 269.735 285 273.631 290.533 272.86L313.56 269.627Z" fill="#1E3A59"/>
</g>
<path d="M277.166 276.742C274.564 276.742 272.037 275.898 269.91 274.294C267.323 272.344 265.654 269.514 265.208 266.326L261.717 241.442C260.787 234.842 265.405 228.714 272.011 227.783L282.111 226.368L282.997 230.102C279.247 231.372 276.924 235.135 277.474 239.049L280.965 263.932C281.268 266.102 282.406 268.029 284.17 269.359C285.934 270.688 288.096 271.254 290.263 270.948L319.369 267.039C319.566 267.012 319.766 266.985 319.966 266.963L320.654 266.866L320.66 266.91C321.729 266.87 322.658 267.148 322.842 268.517L323.099 270.426L321.18 270.686L278.861 276.623C278.294 276.703 277.728 276.742 277.166 276.742ZM275.592 231.174L272.548 231.601C268.048 232.235 264.901 236.409 265.534 240.905L269.026 265.792C269.329 267.96 270.467 269.886 272.231 271.216C273.995 272.545 276.158 273.112 278.324 272.805L281.709 272.33C279.202 270.384 277.584 267.598 277.147 264.466L273.655 239.584C273.23 236.55 273.979 233.578 275.592 231.174Z" fill="#1E3A59"/>
<path d="M295.777 249.373C295.901 250.294 295.606 257.902 295.606 257.902C295.606 257.902 293.251 258.218 290.359 258.607C286.746 259.093 283.315 255.746 282.694 251.132C282.074 246.518 284.5 242.384 288.112 241.898C290.55 241.571 293.359 241.193 293.359 241.193C293.359 241.193 295.575 247.873 295.777 249.373Z" fill="#22A7F0"/>
<path d="M295.777 249.373C295.901 250.294 295.606 257.902 295.606 257.902C295.606 257.902 293.251 258.218 290.359 258.607C286.746 259.093 283.315 255.746 282.694 251.132C282.074 246.518 284.5 242.384 288.112 241.898C290.55 241.571 293.359 241.193 293.359 241.193C293.359 241.193 295.575 247.873 295.777 249.373Z" fill="#0056A8"/>
<path d="M289.648 259.823C287.834 259.823 286.065 259.058 284.588 257.619C282.955 256.025 281.871 253.777 281.536 251.288C280.831 246.043 283.711 241.312 287.956 240.741L291.619 240.249C293.105 240.049 294.508 240.936 294.967 242.359C296.156 246.046 296.817 248.354 296.934 249.218C296.962 249.427 297.047 250.067 296.83 256.326C296.779 257.833 295.654 259.074 294.157 259.275L290.514 259.765C290.225 259.803 289.936 259.823 289.648 259.823ZM292.032 242.557C291.999 242.557 291.965 242.559 291.931 242.563L288.267 243.056C285.299 243.455 283.318 247.008 283.852 250.977C284.117 252.951 284.958 254.715 286.22 255.946C287.404 257.102 288.822 257.632 290.202 257.45L293.846 256.96C294.21 256.91 294.483 256.61 294.496 256.245C294.694 250.507 294.632 249.643 294.618 249.528C294.526 248.843 293.825 246.43 292.744 243.075C292.643 242.763 292.353 242.557 292.032 242.557Z" fill="#1E3A59"/>
<path d="M295.625 257.894C299.237 257.408 301.663 253.273 301.042 248.659C300.422 244.045 296.99 240.698 293.377 241.184C289.765 241.67 287.339 245.804 287.96 250.419C288.58 255.033 292.012 258.379 295.625 257.894Z" fill="#07C7FF"/>
<g opacity="0.7">
<path d="M287.941 250.429C287.987 250.777 288.049 251.112 288.126 251.441C288.328 247.687 290.541 244.618 293.623 244.202C296.968 243.752 300.15 246.585 301.101 250.664C301.14 250.015 301.113 249.346 301.021 248.667C300.4 244.052 296.971 240.708 293.357 241.193C289.743 241.677 287.32 245.814 287.941 250.429Z" fill="white"/>
</g>
<path d="M287.94 250.429C288.56 255.039 291.99 258.387 295.604 257.903C299.218 257.414 301.641 253.282 301.02 248.667C300.924 247.94 300.756 247.24 300.528 246.589C299.993 249.829 297.918 252.347 295.147 252.72C292.107 253.132 289.19 250.825 287.976 247.329C287.817 248.308 287.797 249.354 287.94 250.429Z" fill="#0056A8"/>
<path d="M294.894 259.167C293.068 259.167 291.286 258.398 289.8 256.948C288.159 255.348 287.07 253.089 286.734 250.59C286.025 245.318 288.924 240.561 293.196 239.986C297.471 239.408 301.521 243.234 302.23 248.505C302.566 251.006 302.112 253.472 300.952 255.45C299.735 257.524 297.893 258.823 295.767 259.108C295.476 259.148 295.185 259.167 294.894 259.167ZM294.062 242.364C293.882 242.364 293.702 242.376 293.521 242.4C290.579 242.795 288.618 246.324 289.148 250.265C289.411 252.228 290.247 253.983 291.501 255.205C292.675 256.35 294.075 256.879 295.442 256.696C296.811 256.512 298.021 255.632 298.851 254.217C299.737 252.707 300.08 250.793 299.816 248.831C299.319 245.132 296.801 242.364 294.062 242.364Z" fill="#1E3A59"/>
<path d="M310.79 271.458C310.066 271.458 309.441 270.916 309.356 270.179L307.888 257.552C307.49 254.134 308.823 250.77 311.453 248.552C313.385 246.921 314.335 244.452 313.992 241.948L311.563 224.193C311.455 223.402 312.009 222.674 312.8 222.565C313.587 222.462 314.32 223.011 314.428 223.802L316.857 241.556C317.334 245.048 316.011 248.489 313.317 250.762C311.43 252.353 310.474 254.766 310.759 257.217L312.228 269.845C312.32 270.638 311.752 271.356 310.958 271.448C310.902 271.455 310.846 271.458 310.79 271.458Z" fill="#1E3A59"/>
<path d="M261.645 248.489C261.645 248.489 270.178 247.595 271.43 254.827C272.681 262.06 263.961 264.505 263.961 264.505C263.961 264.505 233.438 271.292 211.124 265.824C201.612 259.515 210.173 250.64 210.173 250.64C210.173 250.64 236.552 254.143 261.645 248.489Z" fill="white"/>
<g opacity="0.3">
<path d="M263.957 264.505C263.957 264.505 233.436 271.29 211.124 265.823C206.888 263.013 206.235 259.692 206.817 256.875C207.492 257.719 208.399 258.541 209.586 259.328C231.897 264.795 262.424 258.009 262.424 258.009C262.424 258.009 268.711 256.245 269.837 251.29C270.592 252.17 271.166 253.327 271.426 254.83C272.679 262.059 263.957 264.505 263.957 264.505Z" fill="#1E3A59"/>
</g>
<path d="M231.567 269.595C224.59 269.595 217.342 269.019 210.738 267.401L210.463 267.333L210.227 267.177C207.127 265.121 205.39 262.573 205.066 259.604C204.483 254.269 208.82 249.705 209.005 249.513L209.574 248.923L210.387 249.031C210.648 249.066 236.784 252.428 261.289 246.905L261.476 246.875C264.947 246.515 271.835 247.646 273.03 254.551C274.218 261.414 267.904 265.087 264.4 266.069L264.314 266.09C263.424 266.288 248.281 269.594 231.567 269.595ZM211.792 264.315C233.056 269.41 262.188 263.229 263.56 262.931C264.186 262.745 270.788 260.638 269.83 255.104C268.903 249.748 262.738 250.035 261.896 250.097C239.408 255.14 215.666 252.893 210.842 252.354C209.896 253.539 207.97 256.354 208.295 259.264C208.506 261.157 209.683 262.855 211.792 264.315Z" fill="#1E3A59"/>
<path d="M266.107 275.964C266.107 276.516 266.091 277.069 266.058 277.629C264.435 305.838 234.399 308.476 222.222 301.779C220.128 300.626 218.382 299.384 216.962 298.069C212.481 293.937 211.084 289.067 211.498 283.944C211.709 281.217 212.44 278.408 213.495 275.599L208.211 272.539L199.752 267.627L199.492 267.481C199.492 267.481 199.5 267.335 199.525 267.059C199.549 266.873 199.573 266.629 199.606 266.337C199.622 266.174 199.646 266.004 199.671 265.817C199.817 264.624 200.085 262.846 200.548 260.703C200.621 260.338 200.71 259.964 200.799 259.583C200.905 259.12 201.026 258.641 201.148 258.146C201.302 257.57 201.457 256.977 201.635 256.376C201.936 255.329 202.285 254.233 202.674 253.121C202.772 252.837 202.877 252.561 202.975 252.277C203.08 251.993 203.186 251.717 203.299 251.425C203.413 251.149 203.519 250.856 203.64 250.572C203.754 250.288 203.876 249.996 203.998 249.712C204.119 249.436 204.241 249.152 204.363 248.876C204.493 248.592 204.623 248.307 204.753 248.031C204.882 247.747 205.02 247.471 205.158 247.187C205.296 246.903 205.434 246.627 205.581 246.343C205.727 246.067 205.873 245.791 206.027 245.507C206.181 245.223 206.335 244.947 206.498 244.663C206.652 244.387 206.814 244.111 206.985 243.835C207.147 243.559 207.318 243.283 207.496 243.007C207.683 242.698 207.886 242.39 208.097 242.081C208.259 241.838 208.414 241.602 208.584 241.375C209.282 240.368 210.045 239.378 210.865 238.436C211.06 238.209 211.255 237.982 211.466 237.763C211.718 237.478 211.977 237.194 212.253 236.918C212.424 236.74 212.602 236.561 212.781 236.391C212.911 236.253 213.041 236.123 213.179 236.009C213.414 235.774 213.658 235.554 213.901 235.335C214.153 235.108 214.413 234.881 214.681 234.662C218.123 231.772 222.336 229.49 227.499 228.313C227.499 228.313 228.854 229.028 231.062 230.367C231.249 230.481 231.436 230.595 231.631 230.716C232.02 230.952 232.434 231.212 232.864 231.488C234.147 232.299 235.608 233.257 237.183 234.361C237.362 234.483 237.548 234.613 237.735 234.743C237.922 234.873 238.117 235.011 238.312 235.157C239.042 235.685 239.797 236.236 240.568 236.813C242.866 238.542 245.293 240.506 247.704 242.682C247.98 242.926 248.248 243.169 248.516 243.421C249.514 244.346 250.513 245.304 251.495 246.303C251.706 246.522 251.925 246.741 252.144 246.968C253.313 248.194 254.458 249.468 255.554 250.784C256.276 251.652 256.974 252.537 257.648 253.446C257.802 253.649 257.957 253.86 258.103 254.071C258.411 254.485 258.703 254.907 258.996 255.33C259.142 255.549 259.288 255.76 259.426 255.971C260.351 257.367 261.204 258.804 261.975 260.273C262.153 260.614 262.324 260.955 262.494 261.296C262.714 261.751 262.933 262.213 263.136 262.676C263.29 263.017 263.436 263.358 263.574 263.707C263.899 264.486 264.191 265.266 264.451 266.061C264.581 266.451 264.702 266.849 264.824 267.246C264.824 267.246 264.824 267.255 264.824 267.263C265.06 268.058 265.263 268.862 265.433 269.682C265.498 269.982 265.555 270.283 265.612 270.575C265.62 270.591 265.62 270.607 265.62 270.631C265.66 270.826 265.693 271.021 265.725 271.216C265.79 271.63 265.847 272.052 265.896 272.466C265.936 272.783 265.969 273.099 265.993 273.416C266.026 273.749 266.05 274.081 266.066 274.423V274.512C266.074 274.642 266.082 274.771 266.091 274.909C266.099 275.258 266.107 275.607 266.107 275.964Z" fill="white"/>
<path d="M236.089 307.29C230.233 307.29 224.826 305.988 221.052 303.913C218.828 302.689 216.897 301.323 215.311 299.855C210.656 295.564 208.557 290.143 209.074 283.747C209.247 281.524 209.726 279.2 210.535 276.696L198.303 269.604C197.496 269.15 197.016 268.273 197.064 267.348C197.064 267.348 197.073 267.174 197.102 266.842C197.105 266.811 197.109 266.779 197.113 266.746C197.127 266.636 197.141 266.504 197.157 266.351L197.189 266.067C197.201 265.947 197.22 265.795 197.241 265.634L197.259 265.503C197.399 264.359 197.673 262.492 198.17 260.189C198.231 259.883 198.312 259.533 198.396 259.177L198.431 259.027C198.512 258.672 198.606 258.292 198.703 257.902L198.787 257.562C198.944 256.942 199.114 256.33 199.301 255.691C199.615 254.598 199.979 253.457 200.38 252.315C200.428 252.173 200.484 252.018 200.541 251.863L200.675 251.485C200.804 251.133 200.914 250.845 201.033 250.541L201.179 250.174C201.251 249.988 201.325 249.8 201.405 249.614C201.504 249.364 201.634 249.053 201.763 248.751L202.14 247.889C202.285 247.57 202.419 247.276 202.553 246.992C202.645 246.792 202.753 246.569 202.863 246.345L202.971 246.124C203.118 245.822 203.263 245.529 203.418 245.229C203.581 244.92 203.731 244.637 203.889 244.346C204.053 244.043 204.216 243.752 204.388 243.451C204.546 243.168 204.727 242.861 204.917 242.553C205.069 242.294 205.258 241.987 205.456 241.681C205.625 241.399 205.853 241.053 206.09 240.705L206.134 240.64C206.291 240.403 206.445 240.174 206.611 239.952C207.378 238.849 208.192 237.801 209.032 236.836C209.252 236.581 209.459 236.341 209.679 236.111C209.953 235.802 210.235 235.495 210.535 235.196C210.678 235.044 210.866 234.856 211.057 234.672C211.185 234.538 211.346 234.375 211.536 234.211C211.779 233.972 212.028 233.747 212.278 233.522C212.553 233.273 212.844 233.019 213.144 232.775C217.133 229.425 221.79 227.117 226.961 225.938C227.527 225.807 228.123 225.887 228.638 226.158C228.695 226.189 230.084 226.922 232.329 228.285L232.92 228.647C233.301 228.877 233.734 229.149 234.183 229.437C235.725 230.413 237.169 231.373 238.585 232.367L239.13 232.743C239.34 232.889 239.558 233.044 239.776 233.207C240.477 233.705 241.251 234.272 242.043 234.871C244.621 236.812 247.078 238.833 249.339 240.873C249.614 241.115 249.902 241.377 250.189 241.647C251.303 242.679 252.304 243.647 253.235 244.594L253.902 245.278C255.155 246.592 256.338 247.916 257.428 249.223C258.215 250.169 258.948 251.102 259.61 251.998C259.758 252.192 259.925 252.42 260.085 252.651C260.402 253.076 260.702 253.509 261.003 253.944L261.466 254.634C262.433 256.093 263.333 257.613 264.135 259.14C264.322 259.496 264.499 259.851 264.676 260.206C264.924 260.719 265.156 261.208 265.37 261.698C265.529 262.049 265.691 262.426 265.843 262.813C266.158 263.579 266.472 264.421 266.762 265.282C266.902 265.7 267.03 266.117 267.157 266.533C267.175 266.592 267.191 266.651 267.204 266.711C267.441 267.533 267.649 268.363 267.82 269.18C267.876 269.437 267.929 269.709 267.98 269.976L268.006 270.111H268.004C268.01 270.138 268.015 270.165 268.02 270.193C268.062 270.4 268.097 270.607 268.131 270.815C268.205 271.282 268.266 271.735 268.318 272.181C268.36 272.513 268.397 272.87 268.425 273.227C268.457 273.55 268.484 273.923 268.502 274.306C268.504 274.344 268.505 274.383 268.505 274.421L268.525 274.762C268.527 274.792 268.529 274.823 268.529 274.854C268.538 275.251 268.546 275.603 268.546 275.964C268.546 276.563 268.529 277.162 268.493 277.769C267.66 292.247 259.922 299.47 253.577 302.98C248.074 306.023 241.864 307.29 236.089 307.29ZM202.085 266.163L214.719 273.491C215.749 274.088 216.197 275.341 215.778 276.456C214.73 279.245 214.108 281.828 213.93 284.132C213.533 289.035 215.067 293.005 218.616 296.278C219.915 297.48 221.523 298.612 223.4 299.645C229.843 303.189 242.011 303.81 251.219 298.717C258.78 294.535 263.072 287.194 263.63 277.488C263.66 276.975 263.675 276.469 263.675 275.964C263.675 275.641 263.668 275.326 263.66 275.011L263.64 274.666C263.636 274.615 263.634 274.562 263.634 274.511V274.481C263.62 274.201 263.6 273.926 263.573 273.652C263.547 273.326 263.519 273.051 263.484 272.774C263.435 272.366 263.383 271.976 263.323 271.593C263.3 271.452 263.273 271.288 263.239 271.125C263.229 271.077 263.221 271.031 263.214 270.983L263.198 270.898C263.153 270.668 263.108 270.431 263.056 270.196C262.898 269.443 262.709 268.692 262.491 267.947C262.479 267.907 262.468 267.867 262.459 267.826C262.356 267.491 262.253 267.156 262.143 266.828C261.889 266.075 261.613 265.333 261.325 264.632C261.189 264.288 261.058 263.983 260.92 263.679C260.717 263.217 260.511 262.781 260.304 262.352C260.156 262.057 259.993 261.73 259.822 261.403C259.096 260.022 258.281 258.646 257.4 257.315L256.974 256.682C256.72 256.315 256.445 255.917 256.154 255.527C256.136 255.502 256.118 255.478 256.101 255.452C255.977 255.272 255.846 255.093 255.714 254.92C255.086 254.071 254.41 253.212 253.685 252.339C252.666 251.118 251.556 249.875 250.385 248.648L249.745 247.992C248.885 247.117 247.937 246.2 246.864 245.206C246.601 244.959 246.353 244.734 246.097 244.509C243.922 242.546 241.577 240.617 239.107 238.757C238.35 238.183 237.614 237.646 236.903 237.14C236.683 236.976 236.511 236.854 236.347 236.74L235.813 236.372C234.436 235.406 233.054 234.486 231.565 233.545C231.142 233.273 230.747 233.025 230.374 232.799L229.802 232.448C228.664 231.758 227.756 231.237 227.16 230.902C223.104 231.961 219.437 233.85 216.25 236.526C215.988 236.74 215.76 236.941 215.538 237.141C215.32 237.336 215.109 237.527 214.904 237.731C214.848 237.787 214.79 237.84 214.728 237.89C214.668 237.94 214.614 238 214.556 238.06C214.527 238.091 214.497 238.121 214.467 238.151C214.316 238.295 214.165 238.446 214.021 238.596C213.738 238.88 213.513 239.128 213.293 239.375C213.27 239.402 213.246 239.429 213.221 239.454C213.052 239.629 212.896 239.812 212.74 239.994C211.973 240.875 211.261 241.793 210.588 242.763C210.571 242.787 210.554 242.81 210.536 242.834C210.414 242.998 210.303 243.167 210.187 243.341L210.126 243.433C209.926 243.724 209.748 243.995 209.584 244.265C209.384 244.577 209.232 244.822 209.088 245.067C208.909 245.358 208.765 245.602 208.628 245.847C208.461 246.14 208.316 246.401 208.17 246.669C208.021 246.943 207.879 247.212 207.737 247.48C207.612 247.724 207.482 247.983 207.352 248.251L207.238 248.486C207.147 248.671 207.057 248.855 206.971 249.042C206.833 249.336 206.707 249.611 206.581 249.886L206.229 250.694C206.125 250.937 206.011 251.211 205.904 251.478C205.824 251.666 205.77 251.805 205.716 251.943C205.663 252.081 205.609 252.218 205.554 252.352C205.463 252.587 205.362 252.851 205.261 253.123L204.981 253.911C204.606 254.982 204.27 256.031 203.979 257.047C203.805 257.64 203.651 258.195 203.512 258.743L203.43 259.075C203.341 259.434 203.254 259.783 203.177 260.123L203.138 260.29C203.067 260.592 202.997 260.888 202.939 261.179C202.472 263.341 202.221 265.052 202.091 266.113L202.085 266.163Z" fill="#1E3A59"/>
<path d="M214.449 273.356L227.571 281.552L212.551 277.842C211.229 277.515 210.422 276.179 210.748 274.856C211.115 273.248 213.071 272.465 214.449 273.356Z" fill="#1E3A59"/>
<g opacity="0.25">
<path d="M266.107 275.964C266.107 276.516 266.091 277.068 266.058 277.628C264.435 305.838 234.399 308.476 222.222 301.779C220.128 300.626 218.382 299.384 216.962 298.069C212.481 293.937 211.084 289.066 211.498 283.944C211.709 281.216 212.44 278.408 213.495 275.599L208.211 272.538L199.752 267.627L199.492 267.481C199.492 267.481 199.5 267.335 199.525 267.059C199.549 266.872 199.573 266.629 199.606 266.336C199.622 266.174 199.646 266.004 199.671 265.817C199.817 264.624 200.085 262.846 200.548 260.703C200.621 260.337 200.71 259.964 200.799 259.583C200.905 259.12 201.026 258.641 201.148 258.146C201.302 257.569 201.457 256.977 201.635 256.376C201.936 255.329 202.285 254.233 202.674 253.121C202.772 252.837 202.877 252.561 202.975 252.277C203.08 251.993 203.186 251.717 203.299 251.424C203.413 251.148 203.519 250.856 203.64 250.572C203.754 250.288 203.876 249.996 203.998 249.711C203.998 249.711 225.583 264.64 232.799 280.064C232.799 280.064 228.862 281.907 222.449 279.382C222.279 279.309 222.1 279.236 221.922 279.163C232.783 312.129 275.329 280.064 257.648 253.446C257.802 253.649 257.957 253.86 258.103 254.071C258.411 254.485 258.703 254.907 258.996 255.329C259.142 255.548 259.288 255.759 259.426 255.97C260.351 257.367 261.204 258.804 261.975 260.273C262.153 260.614 262.324 260.955 262.494 261.296C262.714 261.75 262.933 262.213 263.136 262.676C263.29 263.017 263.436 263.357 263.574 263.707C263.899 264.486 264.191 265.265 264.451 266.061C264.581 266.45 264.702 266.848 264.824 267.246C264.824 267.246 264.824 267.254 264.824 267.262C265.06 268.058 265.263 268.861 265.433 269.681C265.498 269.982 265.555 270.282 265.612 270.574C265.62 270.591 265.62 270.607 265.62 270.631C265.66 270.826 265.693 271.021 265.725 271.216C265.79 271.629 265.847 272.052 265.896 272.466C265.936 272.782 265.969 273.099 265.993 273.416C266.026 273.748 266.05 274.081 266.066 274.422V274.511C266.074 274.641 266.082 274.771 266.091 274.909C266.099 275.258 266.107 275.607 266.107 275.964Z" fill="#1E3A59"/>
</g>
<path d="M226.389 230.479C219.999 226.408 213.419 222.506 206.328 219.722C212.03 220.621 217.632 222.331 223.114 224.169C224.955 224.797 226.764 225.435 228.615 226.147C229.878 226.633 230.508 228.05 230.023 229.313C229.487 230.759 227.665 231.34 226.389 230.479Z" fill="#1E3A59"/>
<path d="M245.335 400C236.452 400 228.446 394.557 225.223 389.305C221.099 382.584 219.395 360.411 222.081 348.399C224.951 335.557 238.932 332.125 239.526 331.985C240.836 331.675 242.147 332.488 242.455 333.797C242.762 335.104 241.954 336.413 240.648 336.724C240.533 336.752 229.032 339.629 226.834 349.461C224.315 360.729 226.226 381.627 229.375 386.757C232.509 391.865 241.991 397.433 250.945 394.134C259.536 390.97 260.157 382.31 260.18 381.943C260.227 381.155 260.654 380.428 261.323 380.011L270.9 374.044C272.041 373.332 273.543 373.682 274.255 374.823C274.966 375.964 274.617 377.467 273.475 378.178L264.889 383.528C264.365 386.806 262.113 395.21 252.629 398.705C250.185 399.604 247.728 400 245.335 400Z" fill="#1E3A59"/>
<path d="M260.174 382.04C260.931 374.034 261.347 365.821 259.686 357.866C262.169 363.53 263.372 369.758 264.302 375.874C264.6 377.943 264.859 379.978 265.044 382.118C265.161 383.465 264.163 384.651 262.816 384.767C261.291 384.918 259.978 383.556 260.174 382.04Z" fill="#371A45"/>
<path d="M219.626 323.482C215.795 323.483 212.286 322.396 209.131 320.225C191.329 307.976 192.013 264.647 192.051 262.809C192.079 261.464 193.183 260.39 194.536 260.424C195.88 260.452 196.948 261.564 196.921 262.909C196.912 263.333 196.244 305.45 211.894 316.214C216.228 319.195 221.403 319.397 227.715 316.833C228.961 316.326 230.382 316.925 230.888 318.172C231.395 319.418 230.795 320.838 229.549 321.345C226.042 322.77 222.728 323.482 219.626 323.482Z" fill="#1E3A59"/>
<g opacity="0.25">
<path d="M329.584 245.969H330.94C330.94 245.969 331.045 246.537 331.208 247.471C331.134 247.414 331.061 247.349 330.996 247.292C330.079 246.48 329.584 245.969 329.584 245.969Z" fill="#371A45"/>
</g>
<g opacity="0.25">
<path d="M350.144 384.784C334.826 400.866 293.863 397.229 281.143 386.14C268.43 375.043 261.936 356.372 238.118 330.939C230.772 323.097 225.057 314.241 220.657 305.758C220.584 304.475 220.535 303.809 220.535 303.809C220.535 303.809 231.559 307.665 241.909 304.418L263.162 289.522C263.162 289.522 262.228 290.878 261.148 293.224C258.624 298.687 255.296 309.524 261.148 321.043C269.51 337.498 286.151 365.967 286.151 365.967C286.151 365.967 295.284 385.799 331.205 377.884C356.533 372.307 345.436 360.772 336.693 354.456C350.379 357.265 361.484 372.883 350.144 384.784Z" fill="#1E3A59"/>
</g>
<g opacity="0.25">
<path d="M271.692 376.422L262.608 382.08C262.608 382.08 262.064 392.633 251.787 396.416C241.502 400.207 230.948 393.981 227.295 388.031C225.469 385.068 224.121 378.184 223.545 370.61C240.966 378.435 252.055 375.058 247.379 343.845C247.314 343.431 247.249 343.017 247.184 342.595L262.616 362.159L268.152 370.869L271.692 376.422Z" fill="#1E3A59"/>
</g>
<g opacity="0.25">
<path d="M199.494 299.818C199.494 299.818 212.96 303.584 212.511 291.951L217.818 299.967L226.756 318.489C226.756 318.489 221.248 326.027 211.555 318.876C201.862 311.724 201.58 306.349 201.58 306.349" fill="#1E3A59"/>
</g>
<g opacity="0.25">
<path d="M220.535 193.61C266.107 219.722 325.646 216.798 327.958 190.633C326.605 189.957 315.351 184.575 315.351 184.575C291.244 199.962 261.786 206.517 220.535 193.61Z" fill="#1E3A59"/>
</g>
<g opacity="0.25">
<path d="M203.999 249.712L200.119 266.053L199.754 267.628L199.494 267.482C199.494 267.482 199.502 267.336 199.526 267.06C199.551 266.873 199.575 266.629 199.607 266.337C199.624 266.175 199.648 266.004 199.672 265.818C193.202 262.432 188.372 258.877 184.784 255.475C176.399 247.544 173.395 235.441 176.796 224.409C178.266 219.636 180.214 215.455 182.471 211.786C180.669 239.029 203.999 249.712 203.999 249.712Z" fill="#1E3A59"/>
</g>
</svg>
