<svg width="6000" height="746" viewBox="0 0 6000 746" fill="none" xmlns="http://www.w3.org/2000/svg">
<rect width="6000" height="746" fill="#343434"/>
<rect width="6000" height="746" fill="white"/>
<path d="M0 60V686C0 686 913.745 626 1500 626C2086.25 626 3000 686 3000 686C3000 686 3913.75 746 4500 746C5086.25 746 6000 686 6000 686V60C6000 60 5086.25 120 4500 120C3913.75 120 3000 60 3000 60C3000 60 2086.25 0 1500 0C913.745 0 0 60 0 60Z" fill="#F8F8F8"/>
<rect y="626" width="6000" height="746" fill="#F8F8F8"/>
<path d="M0 686V1312C0 1312 913.745 1252 1500 1252C2086.25 1252 3000 1312 3000 1312C3000 1312 3913.75 1372 4500 1372C5086.25 1372 6000 1312 6000 1312V686C6000 686 5086.25 746 4500 746C3913.75 746 3000 686 3000 686C3000 686 2086.25 626 1500 626C913.745 626 0 686 0 686Z" fill="white"/>
</svg>
