<svg width="160" height="160" viewBox="0 0 160 160" fill="none" xmlns="http://www.w3.org/2000/svg">
<g clip-path="url(#clip0_429_116)">
<path d="M80 160C124.183 160 160 124.183 160 80C160 35.8172 124.183 0 80 0C35.8172 0 0 35.8172 0 80C0 124.183 35.8172 160 80 160Z" fill="url(#paint0_linear_429_116)"/>
<path fill-rule="evenodd" clip-rule="evenodd" d="M33.7201 59.2687C21.8393 65.1347 15.7187 72.6517 15.7187 80C15.7187 87.3483 21.8393 94.8653 33.7201 100.731C45.4026 106.499 61.7608 110.156 80 110.156C98.2392 110.156 114.597 106.499 126.28 100.731C138.161 94.8653 144.281 87.3483 144.281 80C144.281 72.6517 138.161 65.1347 126.28 59.2687C114.597 53.5005 98.2392 49.8438 80 49.8438C61.7608 49.8438 45.4026 53.5005 33.7201 59.2687ZM30.9531 53.6645C43.6669 47.3872 61.0117 43.5938 80 43.5938C98.9882 43.5938 116.333 47.3872 129.047 53.6645C141.562 59.8439 150.531 68.9676 150.531 80C150.531 91.0324 141.562 100.156 129.047 106.335C116.333 112.613 98.9882 116.406 80 116.406C61.0117 116.406 43.6669 112.613 30.9531 106.335C18.4376 100.156 9.46875 91.0324 9.46875 80C9.46875 68.9676 18.4376 59.8439 30.9531 53.6645Z" fill="url(#paint1_linear_429_116)"/>
<path fill-rule="evenodd" clip-rule="evenodd" d="M92.1617 129.232C104.099 134.983 113.79 135.178 119.581 130.654C125.371 126.13 127.526 116.679 124.834 103.705C122.187 90.9485 114.998 75.8068 103.769 61.4343C92.5397 47.0617 79.5871 36.4227 67.8494 30.7681C55.9125 25.0174 46.2209 24.8223 40.4304 29.3463C34.6399 33.8703 32.4847 43.3212 35.1767 56.2948C37.8238 69.0518 45.0133 84.1935 56.2423 98.566C67.4714 112.939 80.424 123.578 92.1617 129.232ZM89.4491 134.863C76.6752 128.709 63.0075 117.377 51.3173 102.414C39.6271 87.451 31.9379 71.4478 29.0571 57.5646C26.2213 43.898 27.889 31.2135 36.5826 24.4213C45.2762 17.6291 57.9873 19.0796 70.562 25.1375C83.3358 31.2913 97.0035 42.6236 108.694 57.5864C120.384 72.5492 128.073 88.5525 130.954 102.436C133.79 116.102 132.122 128.787 123.428 135.579C114.735 142.371 102.024 140.921 89.4491 134.863Z" fill="url(#paint2_linear_429_116)"/>
<path fill-rule="evenodd" clip-rule="evenodd" d="M124.829 56.2898C127.521 43.3163 125.366 33.8654 119.575 29.3414C113.785 24.8174 104.093 25.0125 92.1563 30.7631C80.4186 36.4178 67.466 47.0568 56.2369 61.4293C45.0079 75.8019 37.8184 90.9436 35.1713 103.701C32.4793 116.674 34.6346 126.125 40.425 130.649C46.2155 135.173 55.9071 134.978 67.844 129.227C79.5817 123.573 92.5343 112.934 103.763 98.5611C114.992 84.1885 122.182 69.0469 124.829 56.2898ZM130.949 57.5597C128.068 71.4428 120.379 87.4461 108.688 102.409C96.9982 117.372 83.3304 128.704 70.5566 134.858C57.982 140.916 45.2708 142.366 36.5772 135.574C27.8836 128.782 26.2159 116.097 29.0517 102.431C31.9325 88.5476 39.6217 72.5443 51.3119 57.5815C63.0021 42.6187 76.6699 31.2864 89.4437 25.1325C102.018 19.0747 114.73 17.6242 123.423 24.4164C132.117 31.2085 133.784 43.893 130.949 57.5597Z" fill="url(#paint3_linear_429_116)"/>
<path d="M79.0496 97.475H67.081C65.5109 97.475 64.1468 96.625 63.5033 95.25C62.8598 93.875 63.0915 92.3 64.0953 91.15L73.9791 80.025C73.9791 80.025 73.9791 79.975 73.9791 79.95L64.0953 68.825C63.0657 67.675 62.8341 66.1 63.5033 64.725C64.1725 63.35 65.5367 62.5 67.081 62.5H79.0496L82.6273 64.35L79.0496 66.275H67.0553C67.0553 66.275 67.0295 66.325 67.0295 66.35C67.0295 66.35 67.0295 66.35 67.0295 66.375L76.9133 77.5C78.1745 78.925 78.1745 81.075 76.9133 82.5L67.0295 93.625C67.0295 93.625 67.0295 93.625 67.0295 93.65C67.0295 93.65 67.0295 93.725 67.0553 93.725C67.0553 93.725 67.0553 93.725 67.081 93.725H79.0496V97.5V97.475Z" fill="#1E50D7"/>
<path d="M84.1459 80.025C84.1459 80.025 84.1459 79.975 84.1459 79.95L94.0297 68.825C95.0593 67.675 95.2909 66.1 94.6217 64.725C93.9525 63.35 92.5883 62.5 91.044 62.5H79.0754L82.6531 64.35L79.0754 66.25H91.0697C91.0697 66.25 91.0955 66.3 91.0955 66.325C91.0955 66.325 91.0955 66.325 91.0955 66.35L81.2117 77.475C79.9505 78.9 79.9505 81.05 81.2117 82.475L91.0955 93.6C91.0955 93.6 91.0955 93.6 91.0955 93.625C91.0955 93.625 91.0955 93.7 91.0697 93.7C91.0697 93.7 91.0697 93.7 91.044 93.7H79.0496L75.4462 95.65L79.0496 97.45H91.0182C92.5883 97.45 93.9525 96.6 94.596 95.225C95.2394 93.85 95.0078 92.275 94.004 91.125L84.1202 80L84.1459 80.025Z" fill="#069BFE"/>
</g>
<defs>
<linearGradient id="paint0_linear_429_116" x1="80" y1="0" x2="80" y2="160" gradientUnits="userSpaceOnUse">
<stop stop-color="#424242"/>
<stop offset="1" stop-color="#111111"/>
</linearGradient>
<linearGradient id="paint1_linear_429_116" x1="80" y1="46.7188" x2="80" y2="113.281" gradientUnits="userSpaceOnUse">
<stop stop-color="#059AFD"/>
<stop offset="1" stop-color="#1D4FD7"/>
</linearGradient>
<linearGradient id="paint2_linear_429_116" x1="53.7798" y1="100.49" x2="106.231" y2="59.5104" gradientUnits="userSpaceOnUse">
<stop stop-color="#059AFD"/>
<stop offset="1" stop-color="#1D4FD7"/>
</linearGradient>
<linearGradient id="paint3_linear_429_116" x1="106.226" y1="100.485" x2="53.7744" y2="59.5054" gradientUnits="userSpaceOnUse">
<stop stop-color="#059AFD"/>
<stop offset="1" stop-color="#1D4FD7"/>
</linearGradient>
<clipPath id="clip0_429_116">
<rect width="160" height="160" fill="white"/>
</clipPath>
</defs>
</svg>
