<svg width="160" height="160" viewBox="0 0 160 160" fill="none" xmlns="http://www.w3.org/2000/svg">
<circle cx="80" cy="80" r="80" fill="#121212"/>
<path d="M135.297 96.5099C132.447 96.5099 130.212 95.6849 128.592 94.0349C127.002 92.3549 126.207 90.1499 126.207 87.4199C126.207 84.9899 126.687 82.8599 127.647 81.0299C128.607 79.1999 129.852 77.7899 131.382 76.7999C132.912 75.8099 134.517 75.3149 136.197 75.3149C137.847 75.3149 139.122 75.8099 140.022 76.7999C140.952 77.7599 141.417 79.0049 141.417 80.5349C141.417 81.7949 141.132 82.8599 140.562 83.7299C140.022 84.5999 139.302 85.0349 138.402 85.0349C137.832 85.0349 137.367 84.8999 137.007 84.6299C136.677 84.3599 136.512 83.9849 136.512 83.5049C136.512 83.2949 136.542 83.0549 136.602 82.7849C136.662 82.5149 136.707 82.3199 136.737 82.1999C136.887 81.7499 136.962 81.3299 136.962 80.9399C136.962 80.5499 136.857 80.2499 136.647 80.0399C136.467 79.8299 136.197 79.7249 135.837 79.7249C135.147 79.7249 134.502 80.0399 133.902 80.6699C133.302 81.2699 132.822 82.0949 132.462 83.1449C132.102 84.1949 131.922 85.3499 131.922 86.6099C131.922 88.3199 132.267 89.6249 132.957 90.5249C133.677 91.3949 134.682 91.8299 135.972 91.8299C136.992 91.8299 137.922 91.5299 138.762 90.9299C139.632 90.3299 140.487 89.4449 141.327 88.2749C141.687 87.8249 142.092 87.5999 142.542 87.5999C142.932 87.5999 143.232 87.7799 143.442 88.1399C143.682 88.4999 143.802 88.9949 143.802 89.6249C143.802 90.7049 143.547 91.6349 143.037 92.4149C142.227 93.6749 141.162 94.6799 139.842 95.4299C138.522 96.1499 137.007 96.5099 135.297 96.5099Z" fill="white"/>
<path d="M121.653 72.3452C120.393 72.3452 119.448 72.0602 118.818 71.4902C118.188 70.8902 117.873 70.0652 117.873 69.0152C117.873 67.9652 118.278 67.0952 119.088 66.4052C119.928 65.6852 120.963 65.3252 122.193 65.3252C123.303 65.3252 124.203 65.5952 124.893 66.1352C125.583 66.6752 125.928 67.4402 125.928 68.4302C125.928 69.6302 125.538 70.5902 124.758 71.3102C123.978 72.0002 122.943 72.3452 121.653 72.3452ZM121.293 96.5102C119.343 96.5102 117.918 95.8202 117.018 94.4402C116.148 93.0602 115.713 91.2302 115.713 88.9502C115.713 87.6002 115.878 85.8752 116.208 83.7752C116.568 81.6452 117.018 79.6652 117.558 77.8352C117.828 76.8752 118.188 76.2152 118.638 75.8552C119.088 75.4952 119.808 75.3152 120.798 75.3152C122.328 75.3152 123.093 75.8252 123.093 76.8452C123.093 77.5952 122.808 79.3352 122.238 82.0652C121.518 85.3652 121.158 87.6002 121.158 88.7702C121.158 89.6702 121.278 90.3602 121.518 90.8402C121.758 91.3202 122.163 91.5602 122.733 91.5602C123.273 91.5602 123.948 91.1852 124.758 90.4352C125.568 89.6852 126.648 88.5002 127.998 86.8802C128.358 86.4602 128.763 86.2502 129.213 86.2502C129.603 86.2502 129.903 86.4302 130.113 86.7902C130.353 87.1502 130.473 87.6452 130.473 88.2752C130.473 89.4752 130.188 90.4052 129.618 91.0652C126.648 94.6952 123.873 96.5102 121.293 96.5102Z" fill="white"/>
<path d="M117.655 86.3401C118.045 86.3401 118.345 86.5351 118.555 86.9251C118.795 87.2851 118.915 87.7501 118.915 88.3201C118.915 89.0101 118.81 89.5501 118.6 89.9401C118.39 90.3301 118.06 90.6751 117.61 90.9751C115.03 92.7151 113.14 94.0051 111.94 94.8451L109.06 96.7801C107.92 102.99 106.42 107.865 104.56 111.405C102.73 114.975 100.39 116.76 97.5402 116.76C96.0102 116.76 94.7652 116.28 93.8052 115.32C92.8452 114.39 92.3652 113.16 92.3652 111.63C92.3652 109.5 93.2052 107.205 94.8852 104.745C96.5652 102.315 99.7152 99.3151 104.335 95.7451L104.605 93.9901C104.095 94.8001 103.42 95.4301 102.58 95.8801C101.77 96.3001 100.96 96.5101 100.15 96.5101C98.2902 96.5101 96.8052 95.8351 95.6952 94.4851C94.5852 93.1351 94.0302 91.3651 94.0302 89.1751C94.0302 86.7751 94.5852 84.5101 95.6952 82.3801C96.8052 80.2201 98.2752 78.4951 100.105 77.2051C101.965 75.8851 103.93 75.2251 106 75.2251C106.66 75.2251 107.095 75.3601 107.305 75.6301C107.545 75.8701 107.74 76.3201 107.89 76.9801C108.46 76.8601 109.12 76.8001 109.87 76.8001C110.62 76.8001 111.145 76.9201 111.445 77.1601C111.775 77.3701 111.94 77.8051 111.94 78.4651C111.94 78.8251 111.925 79.1101 111.895 79.3201C111.775 80.2501 111.4 82.6051 110.77 86.3851C110.65 87.1051 110.515 87.9001 110.365 88.7701C110.245 89.6101 110.11 90.5101 109.96 91.4701C112.27 89.6701 114.49 88.0801 116.62 86.7001C117.01 86.4601 117.355 86.3401 117.655 86.3401ZM101.77 91.9651C102.46 91.9651 103.12 91.5451 103.75 90.7051C104.38 89.8651 104.83 88.6651 105.1 87.1051L106.54 79.4101C105.31 79.4401 104.17 79.9201 103.12 80.8501C102.07 81.7501 101.23 82.9501 100.6 84.4501C99.9702 85.9501 99.6552 87.5401 99.6552 89.2201C99.6552 90.1501 99.8352 90.8401 100.195 91.2901C100.585 91.7401 101.11 91.9651 101.77 91.9651ZM98.0352 112.395C98.7852 112.395 99.6252 111.495 100.555 109.695C101.515 107.895 102.43 105.03 103.3 101.1C100.99 103.08 99.3252 104.865 98.3052 106.455C97.2852 108.045 96.7752 109.44 96.7752 110.64C96.7752 111.15 96.8652 111.57 97.0452 111.9C97.2552 112.23 97.5852 112.395 98.0352 112.395Z" fill="white"/>
<path d="M78.9169 96.5101C77.0569 96.5101 75.5719 95.8351 74.4619 94.4851C73.3519 93.1351 72.7969 91.3651 72.7969 89.1751C72.7969 86.7751 73.3519 84.5101 74.4619 82.3801C75.5719 80.2201 77.0419 78.4951 78.8719 77.2051C80.7319 75.8851 82.6969 75.2251 84.7669 75.2251C85.4269 75.2251 85.8619 75.3601 86.0719 75.6301C86.3119 75.8701 86.5069 76.3201 86.6569 76.9801C87.2869 76.8601 87.9469 76.8001 88.6369 76.8001C90.1069 76.8001 90.8419 77.3251 90.8419 78.3751C90.8419 79.0051 90.6169 80.5051 90.1669 82.8751C89.4769 86.3251 89.1319 88.7251 89.1319 90.0751C89.1319 90.5251 89.2369 90.8851 89.4469 91.1551C89.6869 91.4251 89.9869 91.5601 90.3469 91.5601C90.9169 91.5601 91.6069 91.2001 92.4169 90.4801C93.2269 89.7301 94.3219 88.5301 95.7019 86.8801C96.0619 86.4601 96.4669 86.2501 96.9169 86.2501C97.3069 86.2501 97.6069 86.4301 97.8169 86.7901C98.0569 87.1501 98.1769 87.6451 98.1769 88.2751C98.1769 89.4751 97.8919 90.4051 97.3219 91.0651C96.0919 92.5951 94.7869 93.8851 93.4069 94.9351C92.0269 95.9851 90.6919 96.5101 89.4019 96.5101C88.4119 96.5101 87.4969 96.1801 86.6569 95.5201C85.8469 94.8301 85.2319 93.9001 84.8119 92.7301C83.2519 95.2501 81.2869 96.5101 78.9169 96.5101ZM80.5369 91.9651C81.1969 91.9651 81.8269 91.5751 82.4269 90.7951C83.0269 90.0151 83.4619 88.9801 83.7319 87.6901L85.3969 79.4101C84.1369 79.4401 82.9669 79.9201 81.8869 80.8501C80.8369 81.7501 79.9969 82.9501 79.3669 84.4501C78.7369 85.9501 78.4219 87.5401 78.4219 89.2201C78.4219 90.1501 78.6019 90.8401 78.9619 91.2901C79.3519 91.7401 79.8769 91.9651 80.5369 91.9651Z" fill="white"/>
<path d="M26.11 96.51C25 96.51 24.205 96.27 23.725 95.79C23.245 95.28 23.005 94.335 23.005 92.955C23.005 92.025 23.095 90.84 23.275 89.4C23.485 87.93 23.815 85.92 24.265 83.37C25.045 78.66 25.66 74.58 26.11 71.13C26.38 68.97 26.515 67.17 26.515 65.73C26.515 64.38 26.02 63.705 25.03 63.705C24.25 63.705 23.305 64.11 22.195 64.92C21.115 65.7 19.915 66.96 18.595 68.7C18.175 69.27 17.71 69.555 17.2 69.555C16.78 69.555 16.405 69.36 16.075 68.97C15.775 68.55 15.625 68.085 15.625 67.575C15.625 67.095 15.715 66.615 15.895 66.135C16.105 65.625 16.435 65.055 16.885 64.425C18.325 62.415 19.93 60.87 21.7 59.79C23.47 58.68 25.24 58.125 27.01 58.125C28.66 58.125 29.92 58.65 30.79 59.7C31.69 60.75 32.14 62.28 32.14 64.29C32.14 65.1 32.065 66.06 31.915 67.17C31.765 68.25 31.63 69.135 31.51 69.825C31.39 70.515 31.3 70.995 31.24 71.265C32.95 66.375 34.87 62.97 37 61.05C39.13 59.1 41.47 58.125 44.02 58.125C45.97 58.125 47.5 58.815 48.61 60.195C49.75 61.575 50.32 63.525 50.32 66.045C50.32 67.035 50.185 68.265 49.915 69.735C51.415 65.595 53.17 62.625 55.18 60.825C57.19 59.025 59.5 58.125 62.11 58.125C64.21 58.125 65.815 58.8 66.925 60.15C68.065 61.5 68.635 63.39 68.635 65.82C68.635 67.14 68.44 68.745 68.05 70.635L65.305 83.505C65.005 85.005 64.855 86.295 64.855 87.375C64.855 88.635 65.14 89.58 65.71 90.21C66.31 90.84 67.135 91.155 68.185 91.155C69.175 91.155 70.135 90.825 71.065 90.165C72.025 89.505 73.15 88.41 74.44 86.88C74.8 86.46 75.205 86.25 75.655 86.25C76.045 86.25 76.345 86.43 76.555 86.79C76.795 87.15 76.915 87.645 76.915 88.275C76.915 89.445 76.63 90.375 76.06 91.065C74.5 92.955 72.955 94.335 71.425 95.205C69.895 96.075 68.29 96.51 66.61 96.51C64.06 96.51 62.065 95.76 60.625 94.26C59.185 92.73 58.465 90.69 58.465 88.14C58.465 86.37 58.825 83.805 59.545 80.445L61.345 72.21C61.405 71.94 61.51 71.46 61.66 70.77C61.81 70.08 61.93 69.435 62.02 68.835C62.11 68.205 62.155 67.59 62.155 66.99C62.155 65.94 61.945 65.16 61.525 64.65C61.135 64.11 60.565 63.84 59.815 63.84C58.405 63.84 56.92 64.755 55.36 66.585C53.83 68.385 52.36 71.385 50.95 75.585C49.57 79.785 48.445 85.245 47.575 91.965C47.365 93.765 46.99 94.98 46.45 95.61C45.94 96.21 45.1 96.51 43.93 96.51C42.91 96.51 42.16 96.27 41.68 95.79C41.23 95.31 41.005 94.41 41.005 93.09C41.005 91.86 41.17 90.255 41.5 88.275C41.83 86.265 42.25 83.91 42.76 81.21C44.14 73.95 44.83 69.27 44.83 67.17C44.83 66.03 44.605 65.19 44.155 64.65C43.735 64.11 43.09 63.84 42.22 63.84C40.75 63.84 39.235 64.68 37.675 66.36C36.115 68.01 34.585 70.965 33.085 75.225C31.615 79.455 30.385 85.185 29.395 92.415C29.185 93.945 28.87 95.01 28.45 95.61C28.06 96.21 27.28 96.51 26.11 96.51Z" fill="white"/>
</svg>
