<svg width="160" height="160" viewBox="0 0 160 160" fill="none" xmlns="http://www.w3.org/2000/svg">
<path d="M159 80C159 123.63 123.63 159 80 159C36.3695 159 1 123.63 1 80C1 36.3695 36.3695 1 80 1C123.63 1 159 36.3695 159 80Z" fill="url(#paint0_linear_732_1102)"/>
<path fill-rule="evenodd" clip-rule="evenodd" d="M80 152.5C120.041 152.5 152.5 120.041 152.5 80C152.5 39.9594 120.041 7.5 80 7.5C39.9594 7.5 7.5 39.9594 7.5 80C7.5 120.041 39.9594 152.5 80 152.5ZM80 160C124.183 160 160 124.183 160 80C160 35.8172 124.183 0 80 0C35.8172 0 0 35.8172 0 80C0 124.183 35.8172 160 80 160Z" fill="#F8F8F8"/>
<path d="M79.9682 124.384H50.5968C46.7438 124.384 43.3961 122.311 41.817 118.959C40.2379 115.607 40.8064 111.767 43.2698 108.963L67.5248 81.839C67.5248 81.839 67.5248 81.717 67.5248 81.6561L43.2698 54.5323C40.7432 51.7285 40.1748 47.8885 41.817 44.5361C43.4593 41.1837 46.807 39.1113 50.5968 39.1113H79.9682L88.748 43.6218L79.9682 48.3151H50.5337C50.5337 48.3151 50.4705 48.437 50.4705 48.498C50.4705 48.498 50.4705 48.498 50.4705 48.5589L74.7256 75.6828C77.8206 79.1571 77.8206 84.3989 74.7256 87.8732L50.4705 114.997C50.4705 114.997 50.4705 114.997 50.4705 115.058C50.4705 115.058 50.4705 115.241 50.5337 115.241C50.5337 115.241 50.5337 115.241 50.5968 115.241H79.9682V124.445V124.384Z" fill="white"/>
<path d="M92.4747 81.839C92.4747 81.839 92.4747 81.717 92.4747 81.6561L116.73 54.5323C119.256 51.7285 119.825 47.8885 118.183 44.5361C116.54 41.1837 113.193 39.1113 109.403 39.1113H80.0314L88.8112 43.6218L80.0314 48.2542H109.466C109.466 48.2542 109.529 48.3761 109.529 48.437C109.529 48.437 109.529 48.437 109.529 48.498L85.274 75.6218C82.1789 79.0961 82.1789 84.338 85.274 87.8123L109.529 114.936C109.529 114.936 109.529 114.936 109.529 114.997C109.529 114.997 109.529 115.18 109.466 115.18C109.466 115.18 109.466 115.18 109.403 115.18H79.9682L71.1252 119.934L79.9682 124.323H109.34C113.193 124.323 116.54 122.25 118.119 118.898C119.698 115.546 119.13 111.706 116.667 108.902L92.4115 81.778L92.4747 81.839Z" fill="white"/>
<defs>
<linearGradient id="paint0_linear_732_1102" x1="37.2083" y1="20.75" x2="129.375" y2="139.25" gradientUnits="userSpaceOnUse">
<stop offset="0.394929" stop-color="#6ADDFF"/>
<stop offset="0.878969" stop-color="#06C6FF"/>
</linearGradient>
</defs>
</svg>
