<svg width="338" height="400" viewBox="0 0 338 400" fill="none" xmlns="http://www.w3.org/2000/svg">
<g opacity="0.2">
<path d="M176.964 400C246.57 400 302.997 396.158 302.997 391.418C302.997 386.678 246.57 382.835 176.964 382.835C107.358 382.835 50.9316 386.678 50.9316 391.418C50.9316 396.158 107.358 400 176.964 400Z" fill="#1E3A59"/>
</g>
<path d="M335.284 232.43C335.284 248.376 324.655 289.75 274.77 283.174C222.074 276.222 210.23 189.904 210.23 189.904C210.23 189.904 210.23 189.897 210.243 189.885C210.243 189.872 210.25 189.866 210.256 189.853C210.3 189.745 210.428 189.471 210.638 189.058C211.286 187.805 212.717 185.273 215.109 182.188C217.354 179.294 220.452 175.923 224.554 172.68C224.554 172.68 224.573 172.667 224.605 172.641C224.637 172.616 224.688 172.578 224.751 172.527C231.977 166.853 242.275 161.6 256.458 160.035C261.96 159.424 268.047 159.367 274.77 160.06C277.283 160.315 279.738 160.747 282.136 161.333C282.333 161.383 282.536 161.434 282.74 161.485C299.214 165.702 312.793 177.316 322.009 191.373C330.488 204.266 335.284 219.226 335.284 232.43Z" fill="#C7A17A"/>
<path d="M306.62 217.709L290.422 219.593C289.656 219.682 289.275 220.568 289.736 221.185L297.116 231.064C297.336 231.359 297.377 231.752 297.22 232.086L292.3 242.614C291.968 243.323 292.544 244.121 293.321 244.031L309.408 242.159C310.186 242.069 310.563 241.16 310.077 240.546L302.871 231.428C302.643 231.139 302.592 230.748 302.739 230.41L307.653 219.101C307.96 218.394 307.386 217.62 306.62 217.709Z" stroke="#F8F8F8" stroke-width="6"/>
<g opacity="0.3">
<path d="M323.029 267.125C329.236 256.707 331.195 245.163 331.195 238.306C331.195 225.102 326.4 210.142 317.921 197.249C316.732 195.436 315.472 193.662 314.137 191.944C314.073 192.065 313.99 192.18 313.901 192.288C311.942 194.667 306.441 193.376 301.613 189.407C296.785 185.431 294.464 180.279 296.423 177.901C296.925 177.29 297.663 176.921 298.56 176.781C292.562 172.494 285.89 169.212 278.652 167.361C278.448 167.31 278.244 167.259 278.047 167.209C275.649 166.623 273.194 166.191 270.682 165.936C263.959 165.243 257.872 165.3 252.37 165.911C238.186 167.476 227.889 172.729 220.663 178.403C220.6 178.454 220.549 178.492 220.517 178.517C220.485 178.543 220.466 178.556 220.466 178.556C216.707 181.532 213.788 184.611 211.6 187.333C212.388 185.991 213.546 184.21 215.111 182.187C217.356 179.293 220.453 175.922 224.556 172.679C224.556 172.679 224.575 172.666 224.607 172.64C224.639 172.615 224.689 172.577 224.753 172.526C231.979 166.852 242.276 161.599 256.46 160.034C261.962 159.423 268.049 159.366 274.772 160.059C277.284 160.314 279.739 160.746 282.137 161.331C282.334 161.382 282.538 161.433 282.741 161.484C299.215 165.701 312.795 177.315 322.011 191.372C330.489 204.265 335.285 219.224 335.285 232.429C335.285 240.608 332.493 255.473 323.029 267.125Z" fill="white"/>
</g>
<g opacity="0.2">
<path d="M335.284 232.43C335.284 248.376 324.655 289.751 274.77 283.174C222.074 276.222 210.23 189.904 210.23 189.904C210.23 189.904 210.23 189.898 210.243 189.885C210.243 189.872 210.25 189.866 210.256 189.853C210.3 189.745 210.428 189.472 210.638 189.058C211.286 187.774 212.724 185.134 215.001 182.106C215.039 182.138 215.071 182.17 215.109 182.189C218.194 184.587 223.479 184.479 225.089 179.53C224.974 182.723 224.86 185.916 224.745 189.109C229.471 189.135 234.203 188.002 238.42 185.865C237.65 187.271 237.625 189.326 238.649 190.661C240.405 192.951 243.515 193.587 246.294 194.369C246.65 194.471 247 194.573 247.35 194.687C262.354 199.426 277.287 211.399 278.451 227.116C279.259 237.979 272.69 253.076 280.176 260.989C286.893 268.081 298.864 266.86 307.272 261.879C323.44 252.313 331.067 231.788 328.732 213.139C327.785 205.526 325.412 198.23 322.009 191.374C330.488 204.266 335.284 219.226 335.284 232.43Z" fill="#1E3A59"/>
</g>
<path d="M285.088 286.423C281.676 286.423 278.127 286.18 274.439 285.694C251.949 282.727 233.262 265.173 220.397 234.928C210.826 212.427 207.832 191.148 207.709 190.253C207.645 189.787 207.712 189.314 207.9 188.884C208.067 188.505 212.098 179.498 222.442 171.112C231.923 163.425 248.742 154.829 275.031 157.527C292.235 159.293 308.398 169.011 320.543 184.891C331.368 199.044 337.831 216.817 337.831 232.431C337.831 242.081 333.958 261.809 319.442 274.535C310.424 282.442 298.899 286.423 285.088 286.423ZM212.863 190.31C213.486 194.291 216.779 213.458 225.12 233.031C233.571 252.861 249.102 277.219 275.104 280.649C292.204 282.906 305.992 279.561 316.088 270.709C329.235 259.183 332.742 241.225 332.742 232.431C332.742 202.284 307.84 166.01 274.512 162.589C254.904 160.575 238.531 164.718 225.847 174.902C217.869 181.308 213.931 188.231 212.863 190.31Z" fill="#1E3A59"/>
<path d="M271.54 176.801V275.547C271.54 276.342 271.496 277.131 271.394 277.907C270.713 283.695 267.52 288.72 262.928 291.862C259.761 294.031 255.925 295.296 251.791 295.296H232.652V176.801H271.54Z" fill="white"/>
<g opacity="0.2">
<path d="M271.54 176.801V224.097C261.065 213.431 247.326 205.906 232.652 203.108V176.801H271.54Z" fill="#1E3A59"/>
</g>
<path d="M252.988 297.816C252.568 297.816 252.146 297.804 251.719 297.779H232.652C231.281 297.779 230.17 296.668 230.17 295.298V176.8C230.17 175.43 231.281 174.318 232.652 174.318H271.543C272.913 174.318 274.025 175.43 274.025 176.8V275.547C274.025 275.602 274.023 275.657 274.019 275.712C273.156 288.732 264.404 297.815 252.988 297.816ZM235.134 292.816H251.793C251.844 292.816 251.895 292.817 251.946 292.82C261.291 293.398 268.313 286.263 269.061 275.464V179.282H235.134V292.816Z" fill="#1E3A59"/>
<g opacity="0.2">
<path d="M271.394 277.907C270.713 283.695 267.52 288.72 262.928 291.862C259.761 294.031 255.925 295.296 251.791 295.296H232.652V176.801H245.609C246.817 186.392 247.173 199.991 247.173 199.991V264.719C247.173 272.002 253.078 277.907 260.361 277.907H271.394Z" fill="#1E3A59"/>
</g>
<path d="M232.657 260.848V375.642C232.657 375.744 232.657 375.846 232.651 375.947C232.492 382.867 226.831 388.42 219.879 388.42H178.657C171.596 388.42 166.031 382.747 165.885 375.947C165.866 375.229 165.91 374.497 166.018 373.759C166.572 370.019 167.742 366.044 170 362.45C172.691 358.151 176.926 354.398 183.497 352.235V289.063C183.497 289.063 182.721 289.788 181.322 291.086C172.888 298.903 141.823 327.411 122.462 341.346C117.92 344.609 114.028 347.077 111.216 348.286C110.275 348.686 109.455 348.954 108.774 349.062C108.634 349.081 108.488 349.1 108.342 349.119C98.381 350.219 78.0912 336.837 69.1483 319.371C66.4515 314.111 64.7851 308.475 64.7405 302.757C64.6832 295.608 67.3419 291.067 71.2091 288.529C75.5978 285.635 81.5385 285.317 86.8176 286.678C97.287 289.369 105.187 291.41 105.187 291.41L130.228 266.369C130.228 266.369 118.512 246.741 125.903 213.011L56.2556 165.632C48.3559 160.251 42.5169 152.237 40.2081 142.963C38.4781 136.03 38.4781 127.819 43.2548 119.69C43.5982 119.105 43.9671 118.526 44.3616 117.941C58.4691 97.0916 71.349 117.941 71.349 117.941C71.349 117.941 81.3668 94.6366 88.3187 135.115C88.3187 135.115 99.9583 144.102 121.31 153.598C136.881 160.531 157.616 167.725 182.772 171.916C204.435 175.523 224.306 185.979 238.585 198.096C247.54 205.69 254.308 213.94 257.94 221.56C257.978 221.636 258.016 221.719 258.048 221.795C259.524 224.937 260.465 227.965 260.808 230.795C263.321 251.651 246.765 262.076 232.657 260.848Z" fill="white"/>
<g opacity="0.2">
<path d="M141.724 200.682C143.345 194.095 150.629 190.69 156.742 193.632C189.309 209.305 219.222 204.712 238.587 198.097C224.307 185.98 204.437 175.523 182.774 171.917C157.618 167.726 136.883 160.532 121.312 153.599C131.693 174.875 142.143 183.474 142.143 183.474L133.55 191.953C133.55 191.953 78.7099 159.648 60.0038 145.655C51.8179 139.536 46.5133 129.359 43.2567 119.691C38.48 127.82 38.48 136.031 40.2101 142.964C42.5189 152.238 48.3578 160.252 56.2575 165.633L125.905 213.012C120.453 237.892 125.395 255.087 128.364 262.403L128.363 262.406C128.366 262.413 128.37 262.419 128.373 262.426C129.425 265.014 130.23 266.37 130.23 266.37L129.791 266.809L132.865 269.21C141.562 279.7 157.802 289.542 172.78 289.542C190.998 289.542 195.451 276.592 195.451 276.592C152.183 283.065 140.343 257.748 137.435 248.105C135.673 230.373 138.842 212.401 141.724 200.682Z" fill="#1E3A59"/>
</g>
<path d="M219.88 390.966H178.657C170.39 390.966 163.519 384.253 163.342 376.003C163.319 375.154 163.373 374.271 163.502 373.391C165.162 362.177 171.18 354.284 180.953 350.45V294.891C170.256 304.745 141.949 330.455 123.949 343.413C118.888 347.049 115.052 349.407 112.222 350.624C111.042 351.126 110.048 351.436 109.175 351.576C109.154 351.579 109.132 351.582 109.11 351.585L108.674 351.643C101.683 352.412 91.0131 347.41 81.4362 338.899C69.3033 328.116 62.291 314.951 62.1966 302.779C62.1222 293.425 66.2977 288.71 69.8134 286.403C74.479 283.326 80.9095 282.528 87.4533 284.215C95.2954 286.231 101.696 287.884 104.414 288.586L127.108 265.892C124.425 260.331 117.359 242.151 123.061 214.156L54.8251 167.737C46.2274 161.88 40.1603 153.301 37.7397 143.579C35.2764 133.692 36.7956 124.587 42.2547 116.517C46.9954 109.51 52.2733 106.029 57.8965 106.134C63.7267 106.255 68.3557 110.292 71.0184 113.32C72.6778 110.92 75.2689 108.365 78.6191 108.762C83.9861 109.398 87.7097 117.092 90.65 133.672C96.0854 137.585 129.728 160.509 183.19 169.408C202.508 172.621 221.909 181.413 237.819 194.164C252.471 205.908 262.01 219.488 263.335 230.491C264.807 242.715 260.138 250.426 255.962 254.743C250.62 260.266 243.016 263.433 235.202 263.493V375.643C235.202 375.779 235.2 375.914 235.193 376.05C234.981 384.278 228.12 390.966 219.88 390.966ZM183.498 286.52C183.84 286.52 184.184 286.589 184.509 286.73C185.44 287.133 186.042 288.051 186.042 289.064V352.237C186.042 353.335 185.336 354.31 184.293 354.653C175.314 357.607 170.012 364.161 168.536 374.133C168.45 374.72 168.414 375.309 168.429 375.88C168.547 381.399 173.136 385.877 178.657 385.877H219.88C225.393 385.877 229.981 381.397 230.108 375.89C230.109 375.855 230.11 375.82 230.112 375.786C230.115 375.739 230.114 375.691 230.114 375.643V260.849C230.114 260.136 230.413 259.456 230.939 258.974C231.465 258.492 232.17 258.249 232.879 258.315C240.017 258.933 247.462 256.212 252.306 251.206C257.192 246.154 259.259 239.202 258.283 231.101C257.131 221.533 248.071 208.902 234.637 198.135C219.396 185.919 200.829 177.5 182.355 174.427C122.761 164.508 88.2066 138.243 86.7649 137.129C86.2601 136.74 85.9204 136.175 85.8124 135.546C82.206 114.548 78.1898 113.835 78.0208 113.815C76.8894 113.668 74.7334 116.514 73.6875 118.947C73.3126 119.819 72.4839 120.41 71.5374 120.479C70.5929 120.551 69.6845 120.087 69.1856 119.28C69.1388 119.204 64.1653 111.341 57.7761 111.221C53.9613 111.145 50.1759 113.892 46.4698 119.368C41.8544 126.191 40.5786 133.923 42.678 142.349C44.7963 150.858 50.127 158.379 57.6891 163.53L127.335 210.909C128.194 211.493 128.612 212.542 128.389 213.557C121.33 245.772 132.305 264.883 132.417 265.072C133.007 266.071 132.849 267.349 132.028 268.169L106.984 293.213C106.347 293.85 105.42 294.102 104.548 293.877C104.547 293.877 96.6518 291.833 86.1854 289.143C81.1055 287.834 76.0313 288.399 72.6105 290.654C69.0303 293.004 67.2404 297.069 67.2856 302.738C67.3684 313.474 73.7583 325.267 84.8168 335.095C93.1036 342.46 102.662 347.191 108.063 346.591L108.401 346.546C108.717 346.493 109.284 346.345 110.221 345.946C112.666 344.895 116.288 342.651 120.978 339.282C143.15 323.321 181.375 287.567 181.759 287.208C182.239 286.757 182.864 286.52 183.498 286.52Z" fill="#1E3A59"/>
<path d="M72.5597 120.18C72.2672 120.32 71.8193 120.574 71.4437 120.804C71.0505 121.045 70.6622 121.298 70.2811 121.57C69.5121 122.102 68.7821 122.695 68.0743 123.313C66.6714 124.563 65.4299 125.985 64.4049 127.542C64.1671 127.941 63.8721 128.316 63.6745 128.736L63.0368 129.981C62.8445 130.405 62.6994 130.847 62.5243 131.281C62.4434 131.501 62.3478 131.716 62.2772 131.939L62.104 132.618C61.5413 134.418 61.4817 136.331 61.4815 138.25V138.387C61.4814 139.149 60.8634 139.767 60.1013 139.766C59.3883 139.766 58.8012 139.219 58.7286 138.525C58.509 136.354 58.3817 134.106 58.8341 131.904L58.969 131.073C59.0279 130.799 59.1129 130.533 59.1844 130.261C59.3403 129.724 59.4723 129.173 59.6549 128.642L60.2763 127.074C60.4741 126.544 60.7689 126.068 61.0143 125.56C62.065 123.576 63.3874 121.742 64.9076 120.105C65.6745 119.293 66.4737 118.51 67.3316 117.786C67.7556 117.419 68.1964 117.067 68.6512 116.726C69.1226 116.376 69.5395 116.072 70.1397 115.704C71.3395 114.969 72.9081 115.345 73.6436 116.545C74.3791 117.744 74.0027 119.313 72.803 120.049C72.7284 120.094 72.6522 120.136 72.5752 120.173L72.5597 120.18Z" fill="#1E3A59"/>
<path d="M184.168 291.517C183.799 291.606 183.569 291.638 183.283 291.692C183.005 291.745 182.751 291.77 182.485 291.81C181.954 291.892 181.439 291.927 180.92 291.976C180.4 292.034 179.889 292.041 179.375 292.066C178.861 292.093 178.349 292.11 177.84 292.097L176.312 292.084L174.794 291.993C173.781 291.953 172.782 291.815 171.781 291.698C167.786 291.185 163.902 290.189 160.147 288.902L157.366 287.847C156.899 287.681 156.446 287.484 155.998 287.273L154.649 286.66L153.302 286.046L152.63 285.737L151.978 285.388L149.375 283.995C148.495 283.553 147.673 283.015 146.838 282.499L144.341 280.946C142.723 279.844 141.147 278.683 139.554 277.557C139.019 277.178 138.892 276.438 139.271 275.903C139.635 275.388 140.334 275.251 140.862 275.578L140.939 275.625C142.554 276.629 144.146 277.665 145.771 278.638L148.267 279.993C149.099 280.442 149.918 280.914 150.787 281.286L153.353 282.473L153.994 282.769L154.651 283.025L155.966 283.532L157.28 284.04C157.715 284.215 158.155 284.377 158.605 284.506L161.283 285.346C164.88 286.347 168.544 287.056 172.217 287.309C173.136 287.362 174.052 287.436 174.966 287.416L176.336 287.419L177.696 287.35C178.151 287.336 178.6 287.293 179.046 287.243C179.492 287.195 179.944 287.164 180.378 287.087C180.815 287.019 181.26 286.964 181.677 286.871C181.884 286.828 182.109 286.792 182.302 286.742C182.486 286.696 182.73 286.641 182.828 286.608C184.159 286.152 185.608 286.862 186.064 288.193C186.52 289.525 185.81 290.974 184.479 291.43C184.405 291.455 184.332 291.477 184.258 291.495L184.168 291.517Z" fill="#1E3A59"/>
<path d="M123.689 212.339C124.259 210.666 124.86 209.159 125.508 207.609L126.505 205.323L127.56 203.066C128.994 200.073 130.591 197.162 132.315 194.329C133.158 192.902 134.09 191.528 135.003 190.144C135.471 189.46 135.966 188.793 136.446 188.117L137.172 187.107L137.939 186.125L139.477 184.168L141.105 182.281L141.921 181.341L142.783 180.44L144.507 178.641C145.069 178.054 146 178.034 146.587 178.596C147.157 179.143 147.192 180.038 146.677 180.626L146.62 180.691L145.046 182.484L144.259 183.379L143.517 184.314L142.038 186.185L140.645 188.125L139.951 189.096L139.297 190.096C138.864 190.765 138.418 191.424 137.997 192.1C137.179 193.468 136.341 194.822 135.59 196.229C134.054 199.021 132.639 201.882 131.389 204.812L130.473 207.016L129.616 209.239C129.07 210.712 128.538 212.255 128.12 213.68L128.103 213.737C127.743 214.965 126.457 215.668 125.229 215.308C124.002 214.948 123.299 213.661 123.659 212.433C123.667 212.404 123.679 212.367 123.689 212.339Z" fill="#1E3A59"/>
<path d="M89.2413 190.379C89.2327 190.379 89.2243 190.379 89.2159 190.379C87.9384 190.365 86.9138 189.321 86.9259 188.044C86.9358 186.985 87.4176 161.929 109.091 146.529C110.133 145.788 111.578 146.033 112.319 147.075C113.06 148.117 112.815 149.562 111.773 150.303C92.0709 164.302 91.5584 187.854 91.5556 188.091C91.5399 189.359 90.5068 190.379 89.2413 190.379Z" fill="#1E3A59"/>
<path d="M148.958 322.335C147.741 322.335 146.721 321.385 146.649 320.154C145.897 307.132 140.795 296.55 131.488 288.702C124.472 282.786 117.554 280.708 117.485 280.688C116.26 280.328 115.556 279.043 115.913 277.818C116.272 276.592 117.553 275.887 118.779 276.243C119.093 276.333 126.562 278.549 134.313 285.028C141.476 291.017 150.233 301.925 151.272 319.886C151.345 321.163 150.371 322.257 149.094 322.331C149.049 322.334 149.003 322.335 148.958 322.335Z" fill="#1E3A59"/>
<path d="M209.189 324.808C194.436 324.808 183.105 318.809 182.397 318.426C181.272 317.817 180.855 316.412 181.463 315.288C182.072 314.163 183.476 313.745 184.601 314.354C184.94 314.535 209.014 327.161 231.513 314.377C232.625 313.745 234.038 314.134 234.669 315.247C235.301 316.358 234.912 317.771 233.8 318.403C225.346 323.207 216.81 324.808 209.189 324.808Z" fill="#1E3A59"/>
<path d="M219.882 390.965H178.66C170.392 390.965 163.522 384.253 163.344 376.002C163.33 375.318 163.591 374.657 164.07 374.168C164.548 373.679 165.204 373.403 165.888 373.403H232.654C233.339 373.403 233.995 373.679 234.473 374.169C234.952 374.659 235.213 375.321 235.197 376.006C235.008 384.254 228.137 390.965 219.882 390.965ZM168.831 378.492C170.073 382.741 174.039 385.877 178.66 385.877H219.882C224.494 385.877 228.459 382.741 229.706 378.492H168.831Z" fill="#1E3A59"/>
<path d="M107.204 351.72C100.244 351.72 90.3654 346.833 81.4365 338.898C69.3036 328.115 62.2912 314.95 62.1973 302.778C62.1969 298.615 64.6144 295.217 68.6639 293.668C75.5005 291.052 88.5661 293.667 102.89 309.646C113.497 321.478 118.934 333.849 117.434 342.738C116.832 346.305 115.062 349.066 112.449 350.512C112.449 350.512 112.448 350.513 112.448 350.513C111.438 351.071 110.31 351.432 109.096 351.586L108.674 351.642C108.201 351.694 107.71 351.72 107.204 351.72ZM74.0257 297.824C72.6932 297.824 71.5041 298.029 70.4821 298.42C69.024 298.978 67.2855 300.183 67.2855 302.758C67.3683 313.473 73.7582 325.266 84.8167 335.094C93.1034 342.459 102.662 347.19 108.063 346.59L108.439 346.54C109.035 346.464 109.536 346.308 109.986 346.06C111.56 345.188 112.176 343.311 112.416 341.891C113.378 336.197 110.384 325.629 99.1016 313.043C89.4058 302.227 80.1908 297.824 74.0257 297.824Z" fill="#1E3A59"/>
<path d="M107.205 351.721C100.245 351.721 90.3664 346.834 81.4375 338.899C69.3046 328.116 62.2922 314.951 62.1983 302.779C62.1236 293.425 66.299 288.71 69.8146 286.403C70.022 286.267 70.2481 286.162 70.4859 286.091C79.6377 283.371 96.0019 288.195 110.303 305.212C121.559 318.613 126.902 331.963 124.96 341.838C124.835 342.473 124.474 343.036 123.948 343.414C118.889 347.049 115.054 349.407 112.223 350.624C111.043 351.126 110.049 351.436 109.177 351.576C109.155 351.579 109.133 351.582 109.111 351.585L108.675 351.643C108.202 351.695 107.711 351.721 107.205 351.721ZM72.2966 290.868C68.9279 293.244 67.2426 297.235 67.2862 302.738C67.3693 313.474 73.7591 325.267 84.8178 335.095C93.1046 342.46 102.663 347.191 108.064 346.591L108.402 346.546C108.718 346.493 109.285 346.344 110.222 345.946C112.516 344.959 115.847 342.923 120.125 339.892C121.189 331.693 116.129 320.059 106.407 308.485C94.3372 294.122 80.2238 288.794 72.2966 290.868Z" fill="#1E3A59"/>
<path d="M106.361 289.155C107.224 289.681 107.931 290.168 108.677 290.706C109.413 291.234 110.128 291.782 110.829 292.348C112.231 293.479 113.569 294.689 114.836 295.974C116.094 297.271 117.262 298.667 118.321 300.147C119.359 301.648 120.247 303.266 120.937 304.973C121.194 305.609 120.887 306.334 120.25 306.591C119.665 306.827 119.005 306.586 118.703 306.05L118.673 305.996C117.885 304.599 116.941 303.296 115.862 302.092C114.757 300.904 113.565 299.795 112.287 298.775C111 297.764 109.653 296.825 108.258 295.964C107.56 295.533 106.851 295.12 106.134 294.733C105.432 294.348 104.661 293.958 104.012 293.669L103.996 293.662C102.71 293.089 102.131 291.582 102.703 290.295C103.276 289.009 104.783 288.43 106.07 289.002C106.167 289.046 106.272 289.102 106.361 289.155Z" fill="#1E3A59"/>
<path d="M182.993 349.743C183.467 349.666 183.815 349.628 184.216 349.585C184.604 349.545 184.987 349.511 185.37 349.484C186.136 349.426 186.898 349.396 187.659 349.379C189.18 349.351 190.698 349.395 192.21 349.515C195.232 349.757 198.24 350.288 201.145 351.204C202.597 351.655 204.025 352.198 205.402 352.855C206.782 353.5 208.12 354.242 209.379 355.101C211.926 356.778 214.139 358.924 215.986 361.299C216.385 361.813 216.292 362.554 215.778 362.954C215.29 363.333 214.599 363.269 214.188 362.822L214.166 362.798C212.303 360.764 210.171 359.001 207.78 357.687C206.599 357.01 205.354 356.445 204.08 355.967C202.809 355.48 201.497 355.096 200.167 354.797C197.508 354.183 194.765 353.92 192.028 353.917C190.659 353.917 189.289 353.986 187.931 354.119C187.253 354.188 186.576 354.268 185.909 354.372C185.576 354.423 185.244 354.478 184.918 354.539C184.605 354.597 184.24 354.67 184.006 354.729C182.642 355.075 181.257 354.25 180.911 352.886C180.565 351.523 181.39 350.137 182.753 349.791C182.825 349.773 182.897 349.758 182.968 349.746L182.993 349.743Z" fill="#1E3A59"/>
<path d="M67.7496 318.871C66.3788 318.871 65.2676 317.76 65.2676 316.39C65.2676 315.023 66.3719 313.915 67.7365 313.908C69.5378 313.85 88.8417 310.804 100.599 308.895C101.955 308.678 103.227 309.595 103.446 310.948C103.666 312.301 102.747 313.575 101.394 313.795C94.0575 314.986 69.9485 318.871 67.7496 318.871Z" fill="#1E3A59"/>
<path d="M80.2744 336.796C79.1024 336.796 78.06 335.963 77.8374 334.769C77.5863 333.422 78.4749 332.126 79.8223 331.875C95.8516 328.885 111.922 326.177 112.083 326.15C113.434 325.923 114.715 326.834 114.942 328.185C115.169 329.537 114.258 330.817 112.906 331.045C112.746 331.071 96.7172 333.773 80.732 336.753C80.5786 336.783 80.4254 336.796 80.2744 336.796Z" fill="#1E3A59"/>
<path d="M186.219 228.403L178.866 259.881C177.937 263.856 173.969 266.324 169.999 265.395L156.363 262.209L117.214 253.062C113.239 252.134 110.771 248.165 111.699 244.196L119.052 212.711C119.981 208.749 123.931 206.287 127.9 207.197L167.074 216.35C167.08 216.35 167.086 216.35 167.093 216.356L180.711 219.536C184.68 220.465 187.147 224.434 186.219 228.403Z" fill="white"/>
<g opacity="0.2">
<path d="M186.219 228.403L178.866 259.881C177.938 263.856 173.969 266.324 170 265.395L156.363 262.209L117.214 253.062C113.36 252.159 110.924 248.406 111.624 244.565L144.692 252.293L158.328 255.48C162.297 256.408 166.266 253.94 167.195 249.965L174.548 218.487C174.579 218.366 174.605 218.239 174.624 218.118L180.711 219.536C184.68 220.465 187.148 224.434 186.219 228.403Z" fill="#1E3A59"/>
</g>
<path d="M171.699 268.314C170.928 268.314 170.15 268.225 169.38 268.045L116.596 255.712C113.966 255.098 111.733 253.497 110.308 251.206C108.882 248.913 108.436 246.204 109.05 243.576L116.403 212.092C117.669 206.69 123.101 203.306 128.508 204.545L167.694 213.7C167.723 213.707 167.751 213.714 167.78 213.721L181.33 216.886C186.756 218.156 190.137 223.6 188.87 229.021L181.517 260.499C180.902 263.129 179.302 265.363 177.011 266.788C175.39 267.796 173.561 268.314 171.699 268.314ZM126.247 209.729C124.134 209.729 122.206 211.186 121.702 213.332L114.35 244.815C114.067 246.027 114.272 247.275 114.929 248.332C115.587 249.39 116.619 250.128 117.834 250.412L170.619 262.745C171.831 263.029 173.08 262.823 174.137 262.166C175.194 261.508 175.933 260.477 176.217 259.262L183.57 227.783C183.57 227.783 183.57 227.783 183.57 227.782C184.155 225.282 182.594 222.772 180.091 222.186L166.475 219.005C166.443 218.998 166.411 218.99 166.38 218.982L127.281 209.846C126.935 209.767 126.589 209.729 126.247 209.729Z" fill="#1E3A59"/>
<path d="M158.063 265.127C157.291 265.127 156.514 265.039 155.743 264.858L116.596 255.712C113.966 255.098 111.733 253.497 110.308 251.206C108.882 248.913 108.436 246.204 109.05 243.576L116.403 212.092C117.669 206.69 123.101 203.306 128.508 204.545L167.694 213.7C167.727 213.708 167.761 213.716 167.794 213.725C173.16 215.036 176.493 220.451 175.233 225.835L167.88 257.319C167.265 259.947 165.664 262.179 163.373 263.602C161.753 264.609 159.924 265.127 158.063 265.127ZM126.247 209.729C124.134 209.729 122.206 211.186 121.702 213.332L114.35 244.815C114.067 246.027 114.272 247.275 114.929 248.332C115.587 249.39 116.619 250.128 117.834 250.412L156.983 259.559C158.195 259.843 159.444 259.637 160.501 258.979C161.558 258.323 162.297 257.293 162.58 256.08L169.933 224.597C169.933 224.597 169.933 224.596 169.933 224.595C170.517 222.102 168.963 219.594 166.468 219.004C166.438 218.997 166.409 218.99 166.38 218.982L127.281 209.846C126.935 209.767 126.589 209.729 126.247 209.729Z" fill="#1E3A59"/>
<path d="M216.976 255.679C196.377 255.679 179.025 248.565 178.012 248.142C175.653 247.156 174.539 244.444 175.525 242.084C176.511 239.725 179.221 238.612 181.582 239.597C182.09 239.808 213.571 252.587 239.642 242.527C242.029 241.604 244.708 242.794 245.629 245.179C246.55 247.564 245.362 250.244 242.977 251.166C234.366 254.489 225.398 255.679 216.976 255.679Z" fill="white"/>
<path d="M216.975 257.994C195.822 257.994 177.872 250.593 177.118 250.278C173.585 248.801 171.912 244.725 173.389 241.192C174.864 237.66 178.938 235.985 182.473 237.461C182.775 237.587 213.606 250.092 238.808 240.367C240.539 239.699 242.427 239.745 244.123 240.496C245.818 241.248 247.12 242.615 247.788 244.346C249.167 247.918 247.382 251.946 243.81 253.326C235.783 256.423 226.754 257.994 216.975 257.994ZM179.8 241.556C178.891 241.556 178.031 242.091 177.661 242.977C177.168 244.155 177.726 245.514 178.904 246.006C179.623 246.306 196.74 253.364 216.975 253.364C226.182 253.364 234.65 251.898 242.142 249.006C243.333 248.546 243.928 247.203 243.469 246.013C243.246 245.435 242.812 244.979 242.247 244.729C241.682 244.479 241.053 244.465 240.475 244.686C213.548 255.078 181.022 241.872 180.697 241.737C180.403 241.614 180.099 241.556 179.8 241.556Z" fill="#1E3A59"/>
<path d="M245.939 255.678L232.658 260.849C232.658 260.849 213.03 256.963 202.809 229.568C202.809 229.568 184.007 219.633 188.498 203.401C188.771 202.403 189.096 201.474 189.465 200.616C195.036 187.494 210.231 189.905 210.231 189.905C210.231 189.905 219.162 204.629 231.024 200.132C231.024 200.132 238.383 205.443 234.7 215.257C234.7 215.257 246.505 223.787 250.767 234.676C253.343 241.265 253.165 248.72 245.939 255.678Z" fill="white"/>
<path d="M234.423 263.42C233.728 263.42 233.104 263.408 232.578 263.392C232.439 263.388 232.299 263.372 232.162 263.345C231.313 263.177 211.444 258.948 200.76 231.344C193.545 227.192 182.219 216.56 186.044 202.722C190.073 188.148 203.887 186.322 210.629 187.394C211.368 187.512 212.017 187.948 212.405 188.587C212.482 188.712 220.4 201.437 230.118 197.75C230.918 197.446 231.818 197.566 232.51 198.067C235.412 200.163 239.939 206.157 237.622 214.499C239.895 216.686 244.815 221.784 248.673 228.332C255.709 240.278 255.729 251.173 248.731 259.841C246.242 262.925 238.886 263.42 234.423 263.42ZM232.974 258.313C238.269 258.439 243.851 257.659 244.774 256.642C258.392 239.77 233.279 217.395 233.024 217.171C232.229 216.473 231.947 215.355 232.319 214.364C234.538 208.447 231.907 204.593 230.408 203.003C219.411 206.025 211.186 195.776 208.77 192.311C205.259 192.066 194.211 192.278 190.948 204.078C187.066 218.12 203.306 226.952 203.999 227.321C204.548 227.613 204.974 228.098 205.191 228.68C214.297 253.083 231.069 257.846 232.974 258.313Z" fill="#1E3A59"/>
<path d="M144.352 259.17C144.23 259.17 144.105 259.158 143.98 259.132C142.968 258.928 142.313 257.942 142.518 256.93L145.828 240.535C146.227 238.559 147.334 236.801 148.943 235.585L153.472 232.165C154.322 231.523 154.92 230.596 155.154 229.556L158.724 213.704C158.951 212.697 159.952 212.065 160.959 212.291C161.966 212.518 162.599 213.518 162.372 214.525L158.802 230.378C158.373 232.28 157.281 233.975 155.725 235.149L151.196 238.568C150.317 239.233 149.711 240.194 149.493 241.276L146.183 257.67C146.004 258.557 145.224 259.17 144.352 259.17Z" fill="#1E3A59"/>
<path d="M140.957 233.274C140.146 237.484 136.723 240.357 133.306 239.698L127.533 238.586L130.468 223.354L136.241 224.466C139.658 225.124 141.768 229.069 140.957 233.274Z" fill="#168BD7"/>
<g opacity="0.7">
<path d="M141.084 230.545C140.242 228.83 138.813 227.578 137.013 227.231L131.244 226.119L128.796 238.828L127.533 238.585L130.469 223.352L136.243 224.464C138.899 224.976 140.768 227.481 141.084 230.545Z" fill="white"/>
</g>
<path d="M140.961 233.276C140.149 237.485 136.723 240.356 133.308 239.697L127.533 238.585L130.469 223.352L133.576 223.95L132.136 231.421L137.905 232.533C139.002 232.744 140.104 232.589 141.113 232.144C141.083 232.517 141.034 232.893 140.961 233.276Z" fill="#059FE1"/>
<path d="M134.305 241.348C133.875 241.348 133.443 241.307 133.013 241.224L127.241 240.113C126.836 240.034 126.479 239.799 126.248 239.457C126.017 239.116 125.93 238.697 126.009 238.292L128.944 223.059C129.022 222.654 129.257 222.297 129.599 222.066C129.94 221.835 130.359 221.75 130.764 221.826L136.537 222.939C138.658 223.348 140.441 224.721 141.557 226.806C142.615 228.783 142.945 231.184 142.485 233.567C142.026 235.953 140.827 238.061 139.11 239.502C137.667 240.713 135.998 241.348 134.305 241.348ZM129.356 237.354L133.601 238.171C134.786 238.4 136.032 238.026 137.111 237.121C138.283 236.137 139.107 234.666 139.433 232.98C139.757 231.295 139.538 229.623 138.816 228.273C138.15 227.03 137.132 226.22 135.949 225.992L131.702 225.174L129.356 237.354Z" fill="#1E3A59"/>
<path d="M135.165 232.165C135.976 227.958 133.867 224.015 130.455 223.358C127.043 222.701 123.62 225.578 122.809 229.784C121.999 233.99 124.108 237.933 127.52 238.591C130.932 239.248 134.355 236.371 135.165 232.165Z" fill="#07C7FF"/>
<g opacity="0.7">
<path d="M135.179 232.161C135.091 232.618 134.97 233.062 134.822 233.49C134.994 229.832 132.991 226.639 129.947 226.052C126.908 225.466 123.862 227.687 122.662 231.147C122.684 230.695 122.737 230.237 122.825 229.78C123.635 225.576 127.056 222.699 130.466 223.356C133.882 224.014 135.989 227.957 135.179 232.161Z" fill="white"/>
</g>
<path d="M135.18 232.161C134.369 236.371 130.948 239.248 127.532 238.589C124.122 237.932 122.015 233.99 122.826 229.78C122.876 229.523 122.935 229.274 123.006 229.033C123.54 231.701 125.298 233.799 127.702 234.262C130.912 234.881 134.126 232.378 135.17 228.587C135.405 229.704 135.419 230.921 135.18 232.161Z" fill="#059FE1"/>
<path d="M128.5 240.235C128.082 240.235 127.66 240.196 127.239 240.115C122.99 239.296 120.324 234.528 121.295 229.487C121.755 227.103 122.953 224.996 124.669 223.554C126.479 222.032 128.642 221.421 130.762 221.828C132.882 222.237 134.663 223.609 135.778 225.694C136.835 227.671 137.164 230.072 136.705 232.456C135.83 236.997 132.298 240.235 128.5 240.235ZM129.49 224.816C128.522 224.816 127.542 225.201 126.669 225.934C125.497 226.918 124.673 228.389 124.348 230.075C123.701 233.432 125.262 236.567 127.827 237.061C130.395 237.559 133.005 235.225 133.652 231.868C133.977 230.183 133.758 228.51 133.036 227.16C132.372 225.918 131.355 225.109 130.174 224.881C129.948 224.837 129.719 224.816 129.49 224.816Z" fill="#1E3A59"/>
<path d="M243.932 165.215C243.932 165.215 271.309 169.239 275.908 166.652C279.425 164.675 282.822 160.153 285.819 154.601C292.822 141.608 297.6 122.976 296.441 118.129C295.913 115.911 290.179 110.952 285.617 107.296C282.518 104.807 279.961 102.923 279.961 102.923L243.932 165.215Z" fill="white"/>
<path d="M243.932 165.215C243.932 165.215 271.309 169.239 275.908 166.652C279.425 164.675 282.822 160.153 285.819 154.601C283.39 154.746 279.851 154.235 278.08 150.505C275.596 145.282 290.05 121.91 285.617 107.296C282.518 104.807 279.961 102.923 279.961 102.923L243.932 165.215Z" fill="#D8D8D8"/>
<path d="M268.666 170.372C260.508 170.372 249.291 168.896 243.512 168.046L239.336 167.433L279.081 98.7207L281.657 100.617C287.795 105.136 298.24 113.333 299.227 117.464C300.389 122.324 297.273 134.368 293.886 143.501C291.029 151.206 285.077 164.782 277.311 169.148C275.726 170.039 272.54 170.372 268.666 170.372ZM248.542 162.959C260.05 164.456 272.269 165.285 274.511 164.15C284.973 158.269 294.919 124.57 293.668 118.851C292.935 117.116 286.876 111.806 280.82 107.156L248.542 162.959Z" fill="#1E3A59"/>
<path d="M194.116 118.537L194.033 118.837L193.883 118.637L194.116 118.537Z" fill="#D8D8D8"/>
<path d="M193.886 118.638L193.654 118.732L193.738 118.432L193.886 118.638Z" fill="#D8D8D8"/>
<path d="M127.851 132.813C127.851 132.813 102.347 122.076 99.7526 117.482C97.7684 113.969 97.2041 108.341 97.516 102.039C98.2542 87.2978 103.817 68.8853 107.319 65.3392C108.92 63.7153 116.393 62.4424 122.189 61.6777C126.129 61.154 129.292 60.8662 129.292 60.8662L127.851 132.813Z" fill="white"/>
<path d="M127.851 132.813C127.851 132.813 102.347 122.076 99.7526 117.482C97.7684 113.969 97.2041 108.341 97.516 102.039C99.5185 103.422 102.811 104.817 106.258 102.544C111.087 99.3624 110.828 71.8833 122.189 61.6777C126.129 61.154 129.292 60.8662 129.292 60.8662L127.851 132.813Z" fill="#D8D8D8"/>
<path d="M130.632 137.09L126.741 135.453C118.802 132.11 100.036 123.806 97.2584 118.89C92.8759 111.133 94.8159 96.4364 96.3623 88.3664C98.1959 78.7992 101.768 66.8827 105.278 63.3273C108.262 60.3047 121.443 58.702 129.034 58.0156L132.22 57.7275L130.632 137.09ZM109.316 67.3925C105.284 71.6374 96.3388 105.616 102.246 116.072C103.572 118.197 114.454 123.816 125.074 128.496L126.364 64.0431C118.774 64.8855 110.84 66.29 109.316 67.3925Z" fill="#1E3A59"/>
<path d="M198.465 187.877C244.823 187.877 282.404 150.297 282.404 103.939C282.404 57.5814 244.823 20.001 198.465 20.001C152.108 20.001 114.527 57.5814 114.527 103.939C114.527 150.297 152.108 187.877 198.465 187.877Z" fill="white"/>
<path d="M198.595 189.714C190.855 189.714 183.071 188.656 175.413 186.519C153.355 180.362 135.016 165.984 123.772 146.033C112.529 126.082 109.728 102.947 115.885 80.8889C122.042 58.8309 136.42 40.4911 156.371 29.2478C176.322 18.0042 199.457 15.2031 221.515 21.3602C243.572 27.5171 261.912 41.8954 273.156 61.8466C284.399 81.7974 287.2 104.933 281.043 126.99C274.886 149.048 260.508 167.388 240.557 178.631C227.532 185.971 213.148 189.714 198.595 189.714ZM198.338 21.763C184.395 21.763 170.616 25.3479 158.136 32.3807C139.022 43.1524 125.247 60.7233 119.348 81.8558C113.449 102.988 116.133 125.153 126.905 144.267C137.677 163.381 155.247 177.156 176.38 183.055C197.513 188.954 219.677 186.271 238.791 175.499C257.905 164.727 271.681 147.156 277.579 126.024C283.478 104.891 280.795 82.7263 270.023 63.6122C259.251 44.4982 241.68 30.723 220.548 24.8243C213.213 22.7764 205.752 21.763 198.338 21.763Z" fill="#371A45"/>
<path d="M198.465 187.877C244.823 187.877 282.404 150.297 282.404 103.939C282.404 57.5814 244.823 20.001 198.465 20.001C152.108 20.001 114.527 57.5814 114.527 103.939C114.527 150.297 152.108 187.877 198.465 187.877Z" fill="white"/>
<path d="M198.595 189.714C190.855 189.714 183.071 188.656 175.413 186.519C153.355 180.362 135.016 165.984 123.772 146.033C112.529 126.082 109.728 102.947 115.885 80.8889C122.042 58.8309 136.42 40.4911 156.371 29.2478C176.322 18.0042 199.457 15.2031 221.515 21.3602C243.572 27.5171 261.912 41.8954 273.156 61.8466C284.399 81.7974 287.2 104.933 281.043 126.99C274.886 149.048 260.508 167.388 240.557 178.631C227.532 185.971 213.148 189.714 198.595 189.714ZM198.338 21.763C184.395 21.763 170.616 25.3479 158.136 32.3807C139.022 43.1524 125.247 60.7233 119.348 81.8558C113.449 102.988 116.133 125.153 126.905 144.267C137.677 163.381 155.247 177.156 176.38 183.055C197.513 188.954 219.677 186.271 238.791 175.499C257.905 164.727 271.681 147.156 277.579 126.024C283.478 104.891 280.795 82.7263 270.023 63.6122C259.251 44.4982 241.68 30.723 220.548 24.8243C213.213 22.7764 205.752 21.763 198.338 21.763Z" fill="#371A45"/>
<path d="M198.464 187.876C244.821 187.876 282.402 150.296 282.402 103.938C282.402 57.5804 244.821 20 198.464 20C152.106 20 114.525 57.5804 114.525 103.938C114.525 150.296 152.106 187.876 198.464 187.876Z" fill="white"/>
<path d="M198.597 190.78C190.761 190.78 182.88 189.709 175.127 187.545C152.795 181.311 134.227 166.754 122.843 146.555C111.46 126.356 108.624 102.933 114.858 80.6013C121.092 58.2693 135.648 39.7012 155.848 28.3181C176.047 16.9343 199.47 14.0992 221.802 20.3325C244.134 26.5661 262.701 41.1228 274.085 61.3221C285.468 81.5213 288.304 104.944 282.07 127.276C275.837 149.608 261.28 168.176 241.081 179.559C227.894 186.991 213.331 190.78 198.597 190.78ZM198.34 22.8287C184.578 22.8287 170.978 26.3673 158.66 33.3087C139.794 43.9406 126.198 61.2833 120.376 82.1416C114.554 103 117.202 124.877 127.834 143.743C138.466 162.609 155.809 176.205 176.667 182.027C197.524 187.849 219.402 185.201 238.268 174.569C257.134 163.937 270.731 146.594 276.553 125.736C282.375 104.878 279.726 83.0009 269.094 64.1347C258.462 45.2687 241.12 31.6724 220.262 25.8502C213.022 23.8292 205.658 22.8287 198.34 22.8287Z" fill="#1E3A59"/>
<path d="M279.31 126.506C266.846 171.158 220.551 197.248 175.899 184.784C131.247 172.321 105.152 126.023 117.616 81.3717C118.365 78.6866 119.238 76.0656 120.226 73.5176C112.806 115.548 138.376 157.151 180.343 168.865C222.31 180.58 265.725 158.233 281.146 118.436C280.671 121.127 280.06 123.821 279.31 126.506Z" fill="#D8D8D8"/>
<path d="M198.595 189.714C190.855 189.714 183.071 188.656 175.413 186.519C153.355 180.362 135.016 165.984 123.772 146.033C112.529 126.082 109.728 102.947 115.885 80.8889C122.042 58.8309 136.42 40.4911 156.371 29.2478C176.322 18.0042 199.457 15.2031 221.515 21.3602C243.572 27.5171 261.912 41.8954 273.156 61.8466C284.399 81.7974 287.2 104.933 281.043 126.99C274.886 149.048 260.508 167.388 240.557 178.631C227.532 185.971 213.148 189.714 198.595 189.714ZM198.338 21.763C184.395 21.763 170.616 25.3479 158.136 32.3807C139.022 43.1524 125.247 60.7233 119.348 81.8558C113.449 102.988 116.133 125.153 126.905 144.267C137.677 163.381 155.247 177.156 176.38 183.055C197.513 188.954 219.677 186.271 238.791 175.499C257.905 164.727 271.681 147.156 277.579 126.024C283.478 104.891 280.795 82.7263 270.023 63.6122C259.251 44.4982 241.68 30.723 220.548 24.8243C213.213 22.7764 205.752 21.763 198.338 21.763Z" fill="#371A45"/>
<path d="M198.501 190.226C190.787 190.227 182.98 189.189 175.266 187.036C137.406 176.469 111.486 141.709 112.188 102.473C112.185 102.42 112.184 102.367 112.185 102.313C112.32 95.0743 113.39 87.8173 115.364 80.7439C116.239 77.6092 117.29 74.5267 118.487 71.5824C134.907 30.8244 179.262 9.00796 221.657 20.842C264.064 32.6795 290.708 74.3248 283.632 117.712C283.123 120.86 282.425 124.031 281.559 127.135C279.587 134.198 276.746 140.96 273.116 147.232C273.089 147.279 273.06 147.326 273.029 147.371C257.321 174.383 228.645 190.226 198.501 190.226ZM116.864 102.412C116.135 139.579 140.668 172.526 176.523 182.534C212.369 192.54 250.414 177.073 269.05 144.916C269.08 144.863 269.112 144.811 269.146 144.761C272.543 138.866 275.205 132.514 277.057 125.878C277.877 122.942 278.537 119.942 279.019 116.963C285.711 75.9266 260.51 36.5402 220.4 25.3441C180.301 14.151 138.351 34.783 122.82 73.3361C121.686 76.1235 120.694 79.0361 119.866 82.0005C118.012 88.6452 117.001 95.4582 116.861 102.253C116.864 102.306 116.864 102.359 116.864 102.412Z" fill="#1E3A59"/>
<path d="M282.412 106.314C281.519 106.314 280.753 105.654 280.631 104.757C276.125 71.4567 251.482 43.8733 217.85 34.4856C184.24 25.1041 148.885 35.9211 127.777 62.0435C127.184 62.7774 126.126 62.9284 125.351 62.3889C124.577 61.8497 124.351 60.804 124.833 59.9935C144.564 26.8625 184.323 10.9752 221.515 21.3565C258.732 31.7451 284.514 65.9474 284.211 104.53C284.204 105.473 283.469 106.251 282.527 106.31C282.489 106.313 282.45 106.314 282.412 106.314ZM193.655 27.5569C201.997 27.5569 210.458 28.6883 218.817 31.0217C245.067 38.3488 266.058 56.3396 276.905 79.518C268.765 53.4731 247.874 32.4479 220.548 24.8204C193.235 17.1965 164.482 24.3559 144.03 42.4089C158.531 32.7348 175.815 27.5569 193.655 27.5569Z" fill="#1E3A59"/>
<path d="M279.306 126.506C277.352 133.504 274.568 140.055 271.091 146.061C271.091 146.061 271.084 146.059 271.082 146.067C249.493 169.248 213.199 184.249 178.728 174.626C144.257 165.004 120.986 133.377 114.525 102.366C114.527 102.359 114.52 102.357 114.52 102.357C114.649 95.4156 115.66 88.3699 117.613 81.3723C118.467 78.313 119.481 75.3384 120.65 72.4627C139.98 45.3292 177.915 32.3816 215.505 42.8741C253.102 53.3686 278.85 84.1087 281.324 117.336C280.829 120.392 280.157 123.454 279.306 126.506Z" fill="#0056A8"/>
<g opacity="0.35">
<path d="M279.307 126.51C277.354 133.508 274.57 140.058 271.093 146.065C271.093 146.065 271.086 146.063 271.084 146.07C249.495 169.252 213.201 184.251 178.73 174.629C144.26 165.007 120.988 133.381 114.527 102.37C114.529 102.362 114.521 102.36 114.521 102.36C114.6 98.2248 114.991 94.0566 115.705 89.875C128.146 115.299 150.368 137.472 179.711 145.663C217.093 156.098 256.362 141.141 281.287 116.907C281.302 117.054 281.318 117.195 281.325 117.34C280.831 120.396 280.159 123.458 279.307 126.51Z" fill="#111A28"/>
</g>
<path d="M200.559 179.377C192.951 179.377 185.46 178.374 178.246 176.36C161.701 171.742 146.66 161.823 134.748 147.677C123.957 134.861 116.16 118.939 112.786 102.833C112.742 102.67 112.72 102.499 112.723 102.325C112.857 95.1315 113.92 87.9201 115.882 80.8903C116.752 77.7756 117.796 74.7128 118.985 71.7872C119.038 71.6575 119.105 71.5348 119.186 71.4211C129.018 57.6207 143.367 47.3945 160.683 41.8478C178.299 36.2052 197.423 35.9615 215.989 41.1438C234.558 46.3271 250.795 56.4442 262.943 70.4014C274.883 84.1198 281.86 100.304 283.118 117.204C283.128 117.345 283.123 117.486 283.1 117.625C282.593 120.755 281.9 123.907 281.039 126.991C279.079 134.011 276.256 140.73 272.648 146.964C272.56 147.116 272.452 147.251 272.33 147.368C261.103 159.397 246.185 168.979 230.314 174.353C220.434 177.698 210.399 179.377 200.559 179.377ZM116.323 102.175C122.248 130.321 143.966 163.058 179.213 172.896C214.464 182.736 249.999 165.981 269.645 144.974C273.049 139.056 275.717 132.681 277.575 126.024C278.381 123.137 279.034 120.189 279.516 117.26C276.929 83.8389 251.038 54.6604 215.023 44.6073C179.017 34.5558 141.761 46.1008 122.238 73.3363C121.132 76.0769 120.16 78.9423 119.346 81.8568C117.485 88.5237 116.468 95.358 116.323 102.175Z" fill="#1E3A59"/>
<g opacity="0.5">
<path d="M267.908 118.209C271.442 110.529 269.795 102.228 264.23 99.6674C258.665 97.1069 251.289 101.257 247.755 108.937C244.222 116.617 245.869 124.918 251.434 127.479C256.999 130.039 264.375 125.889 267.908 118.209Z" fill="white"/>
</g>
<g opacity="0.5">
<path d="M242.179 142.809C244.273 139.542 243.697 135.438 240.893 133.641C238.09 131.845 234.12 133.037 232.027 136.304C229.933 139.571 230.509 143.676 233.313 145.472C236.116 147.269 240.086 146.076 242.179 142.809Z" fill="white"/>
</g>
<g opacity="0.5">
<path d="M128.105 111.473C128.105 111.473 125.707 65.6284 152.918 54.6101C180.129 43.5919 213 52.1266 211.688 54.0379C211.688 54.0379 173.009 53.4795 151.353 78.5965C134.653 97.9648 128.105 111.473 128.105 111.473Z" fill="white"/>
</g>
<path d="M282.74 161.485L281.894 168.303L275.998 215.803C275.998 215.803 275.794 215.46 275.406 214.856C273.282 211.535 265.668 200.392 256.783 196.334C256.783 196.334 252.731 194.833 247.35 194.687C242.332 194.547 236.156 195.59 231.023 200.131C231.023 200.131 218.06 205.442 210.23 189.904C210.23 189.904 210.23 189.897 210.243 189.885C210.243 189.872 210.25 189.866 210.256 189.853C210.3 189.745 210.428 189.471 210.638 189.058C211.108 188.123 211.992 186.482 213.315 184.491C213.811 183.741 214.377 182.939 215.001 182.106C217.303 179.04 220.471 175.567 224.554 172.68C224.554 172.68 224.573 172.667 224.605 172.642C224.637 172.616 224.688 172.578 224.751 172.527C224.783 172.502 224.809 172.483 224.84 172.463C226.825 171.007 238.999 162.528 256.458 160.035C264.135 158.941 272.83 159.005 282.136 161.333C282.333 161.383 282.536 161.434 282.74 161.485Z" fill="#C7A17A"/>
<g opacity="0.3">
<path d="M282.742 161.485L281.896 168.304C280.827 167.954 279.746 167.642 278.652 167.362C278.448 167.311 278.245 167.261 278.047 167.21C275.65 166.625 273.194 166.192 270.682 165.938C263.959 165.244 257.872 165.302 252.37 165.912C238.186 167.477 227.889 172.731 220.663 178.404C220.6 178.455 220.549 178.493 220.517 178.519C220.485 178.544 220.466 178.557 220.466 178.557C216.707 181.533 213.788 184.612 211.6 187.334C212.388 185.992 213.546 184.211 215.111 182.188C217.356 179.294 220.453 175.923 224.556 172.68C224.556 172.68 224.575 172.667 224.607 172.641C224.638 172.616 224.689 172.578 224.753 172.527C224.785 172.502 224.81 172.482 224.842 172.463C232.061 166.809 242.333 161.593 256.46 160.035C261.962 159.424 268.049 159.367 274.772 160.06C277.284 160.315 279.739 160.747 282.137 161.333C282.334 161.383 282.538 161.434 282.742 161.485Z" fill="white"/>
</g>
<path d="M274.839 216.461C273.559 214.646 272.178 212.799 270.725 211.076C269.282 209.334 267.771 207.662 266.195 206.086C263.043 202.973 259.547 200.152 255.783 198.7C253.679 197.897 251.665 197.201 249.635 196.845C247.615 196.468 245.611 196.405 243.653 196.694C239.737 197.271 236.033 199.3 232.711 202.035L232.71 202.036L232.644 202.092C232.446 202.26 232.218 202.393 231.988 202.485C231.742 202.582 231.62 202.622 231.45 202.68L230.985 202.824C230.679 202.914 230.377 202.992 230.074 203.063C229.469 203.201 228.864 203.315 228.254 203.391C227.037 203.553 225.802 203.586 224.569 203.503C222.104 203.337 219.642 202.644 217.455 201.47C215.265 200.297 213.364 198.693 211.813 196.885C210.248 195.081 208.99 193.095 207.959 191.048L207.943 191.016C207.595 190.323 207.608 189.534 207.903 188.878C208.134 188.372 208.328 187.984 208.548 187.559C208.762 187.144 208.984 186.737 209.21 186.334C209.66 185.528 210.135 184.742 210.625 183.966C211.611 182.418 212.68 180.928 213.814 179.485C216.112 176.632 218.698 173.94 221.634 171.693L222.723 170.874L223.259 170.471L223.836 170.055C224.596 169.519 225.355 169.017 226.125 168.533C227.663 167.564 229.23 166.664 230.825 165.819C234.011 164.124 237.315 162.669 240.697 161.421C247.469 158.953 254.596 157.374 261.829 156.94C269.06 156.494 276.364 157.224 283.381 159.022C284.742 159.371 285.563 160.758 285.214 162.119C284.865 163.48 283.478 164.3 282.117 163.952L282.1 163.947C275.594 162.283 268.846 161.606 262.139 162.019C255.431 162.421 248.787 163.889 242.448 166.199C239.283 167.367 236.183 168.731 233.208 170.315C231.719 171.104 230.257 171.943 228.843 172.835C227.407 173.719 226.12 174.671 224.774 175.697C222.161 177.693 219.878 180.075 217.799 182.65C216.778 183.951 215.809 185.299 214.92 186.695C214.479 187.395 214.051 188.102 213.65 188.82C213.449 189.178 213.253 189.537 213.068 189.897C212.885 190.246 212.693 190.64 212.56 190.929L212.503 188.759C213.384 190.511 214.431 192.14 215.656 193.55C216.873 194.97 218.287 196.141 219.851 196.982C221.415 197.819 223.137 198.304 224.916 198.427C225.804 198.486 226.707 198.465 227.598 198.345C228.044 198.291 228.486 198.205 228.918 198.108C229.133 198.058 229.346 198.002 229.55 197.943L229.847 197.851L230.059 197.777L229.338 198.226L229.338 198.225C231.137 196.516 233.174 194.994 235.433 193.743C237.704 192.521 240.227 191.619 242.859 191.245C245.487 190.857 248.175 191.016 250.693 191.546C253.211 192.092 255.575 192.982 257.744 193.951C260.143 195.027 262.272 196.441 264.161 198.04C266.055 199.636 267.758 201.379 269.31 203.219C272.42 206.908 275.003 210.86 277.159 215.145C277.49 215.803 277.225 216.605 276.566 216.936C275.968 217.238 275.251 217.046 274.876 216.514L274.839 216.461Z" fill="#1E3A59"/>
<path d="M220.645 198.366C221.526 197.496 222.345 196.782 223.212 196.033C224.073 195.303 224.945 194.593 225.83 193.905C227.598 192.526 229.42 191.234 231.29 190.027C232.214 189.41 233.178 188.85 234.121 188.273C235.092 187.733 236.037 187.164 237.028 186.67C238.972 185.623 240.997 184.742 243.015 183.908C241.189 185.12 239.401 186.356 237.724 187.735C236.867 188.395 236.062 189.125 235.239 189.819C234.443 190.552 233.635 191.26 232.871 192.021C231.323 193.513 229.845 195.07 228.447 196.682C227.747 197.487 227.067 198.306 226.407 199.134C225.763 199.953 225.092 200.829 224.56 201.616C223.77 202.786 222.18 203.094 221.01 202.304C219.84 201.513 219.533 199.924 220.323 198.754C220.416 198.616 220.531 198.48 220.645 198.366Z" fill="#1E3A59"/>
<path d="M212.662 194.002C213.941 192.536 215.195 191.265 216.513 189.974C217.822 188.696 219.16 187.459 220.534 186.27C221.905 185.077 223.302 183.923 224.736 182.824C226.158 181.713 227.634 180.675 229.112 179.664C227.91 180.998 226.733 182.337 225.626 183.733C224.507 185.117 223.442 186.538 222.417 187.98C221.39 189.42 220.411 190.889 219.477 192.377C218.553 193.852 217.629 195.402 216.873 196.858L216.868 196.868C216.216 198.125 214.669 198.615 213.412 197.962C212.156 197.31 211.666 195.763 212.318 194.507C212.412 194.325 212.534 194.15 212.662 194.002Z" fill="#1E3A59"/>
<g opacity="0.2">
<path d="M181.437 291.086C173.003 298.903 141.938 327.411 122.577 341.347C118.036 344.609 114.143 347.077 111.332 348.286C110.391 348.686 109.57 348.954 108.889 349.062C108.75 349.081 108.603 349.1 108.457 349.119C98.4964 350.219 78.2065 336.837 69.2637 319.371C89.7316 334.929 111.62 326.447 111.62 326.447L147.231 300.922C151.548 297.828 152.501 291.8 149.349 287.525L142.257 277.907C150.748 285.762 174.173 289.954 181.437 291.086Z" fill="#1E3A59"/>
</g>
<g opacity="0.2">
<path d="M232.673 365.091V375.643C232.673 375.745 232.673 375.846 232.667 375.948C232.508 382.868 226.847 388.421 219.895 388.421H178.673C171.612 388.421 166.047 382.747 165.901 375.948C165.882 375.229 165.926 374.498 166.034 373.76C166.588 370.02 167.758 366.045 170.016 362.451C196.183 377.977 221.523 370.084 232.673 365.091Z" fill="#1E3A59"/>
</g>
<g opacity="0.2">
<path d="M232.658 260.848C232.658 260.848 213.03 256.962 202.809 229.567C202.809 229.567 184.007 219.632 188.498 203.4C188.771 202.401 189.096 201.473 189.465 200.614C193.201 207.059 200.697 216.146 213.564 217.229C218.465 217.642 222.919 220.229 225.517 224.406C229.487 230.791 237.061 238.392 249.686 235.018C250.061 234.916 250.423 234.808 250.767 234.675C250.907 234.63 251.047 234.579 251.18 234.528C256.606 232.417 258.31 227.544 258.05 221.795C259.525 224.937 260.467 227.964 260.81 230.795C263.322 251.651 246.766 262.075 232.658 260.848Z" fill="#1E3A59"/>
</g>
<g opacity="0.2">
<path d="M275.408 214.856C273.284 211.536 265.67 200.392 256.785 196.335C256.785 196.335 252.733 194.833 247.352 194.687C242.334 194.547 236.158 195.59 231.025 200.132C231.025 200.132 218.062 205.443 210.232 189.904C210.232 189.904 210.232 189.898 210.245 189.885C210.245 189.872 210.251 189.866 210.258 189.853C210.302 189.745 210.43 189.472 210.639 189.058C211.11 188.123 211.994 186.482 213.317 184.491C213.864 185.223 214.532 185.846 215.264 186.266C218.997 188.416 224.435 186.215 225.752 182.157C225.173 184.581 226.623 187.373 228.996 188.212C231.502 189.096 234.593 187.634 235.496 185.134C236.368 187.685 239.02 189.255 241.66 189.809C244.299 190.369 247.034 190.133 249.725 190.292C257.192 190.738 264.417 194.382 269.207 200.125C272.667 204.279 274.823 209.482 275.408 214.856Z" fill="#1E3A59"/>
</g>
<path d="M80.792 55.9303L78.4786 60.6331C77.9789 61.6491 76.5196 62.0795 74.4852 61.9931C73.0939 61.9396 71.4448 61.6317 69.6436 61.1001C67.8937 60.5795 66.003 59.8409 64.0852 58.8976C63.1035 58.4148 62.1701 57.9059 61.2962 57.3768C59.0945 56.0599 57.2562 54.6381 55.9474 53.2785C54.1661 51.4383 53.3556 49.7283 53.9312 48.5583L56.2446 43.8555L80.792 55.9303Z" fill="#6ADDFF"/>
<g opacity="0.3">
<path d="M65.6674 48.4911L61.2961 57.3774C59.0944 56.0605 57.2561 54.6387 55.9473 53.2791L59.7374 45.5742L65.6674 48.4911Z" fill="white"/>
</g>
<g opacity="0.2">
<path d="M78.1142 54.614L74.4842 61.9936C73.0928 61.94 71.4438 61.6322 69.6426 61.1006L73.8622 52.5225L78.1142 54.614Z" fill="#00004F"/>
</g>
<path d="M74.9629 63.4516C71.7071 63.4516 67.3973 62.1537 63.4411 60.2076C60.0212 58.5255 57.0194 56.46 54.9885 54.3916C51.9308 51.2775 52.0138 49.1505 52.6219 47.9147L54.9352 43.2118C55.106 42.8646 55.4077 42.5992 55.7742 42.4745C56.1407 42.3495 56.5419 42.3756 56.8885 42.5464L81.4358 54.6213C82.1592 54.9769 82.4571 55.8517 82.1012 56.5747L79.7879 61.2775C79.0376 62.8032 77.2628 63.4516 74.9629 63.4516ZM56.91 45.8094L55.2407 49.2027C55.0785 49.5326 55.432 50.6776 57.0709 52.3468C58.8773 54.1864 61.597 56.0479 64.7291 57.5889C71.9648 61.1477 76.7287 60.8847 77.1694 59.9896L78.8384 56.5962L56.91 45.8094Z" fill="#371A45"/>
<path d="M80.7903 55.9339C81.9592 53.5578 77.4113 48.9283 70.6323 45.5935C63.8533 42.2588 57.4103 41.4817 56.2414 43.8578C55.0725 46.2339 59.6205 50.8635 66.3995 54.1982C73.1785 57.5329 79.6215 58.31 80.7903 55.9339Z" fill="#6ADDFF"/>
<g opacity="0.2">
<path d="M80.7915 55.9294C79.6237 58.3037 73.1786 57.5292 66.3982 54.194C59.8861 50.9906 55.4314 46.5878 56.138 44.1426C57.9292 46.179 61.0044 48.429 64.7598 50.2763C71.5402 53.6116 77.9796 54.3832 79.1474 52.0089C79.1924 51.9176 79.2315 51.8235 79.2508 51.7266C80.6923 53.3642 81.311 54.8736 80.7915 55.9294Z" fill="#00004F"/>
</g>
<path d="M77.2777 58.7478C74.0225 58.7478 69.7131 57.4499 65.7574 55.504C59.007 52.1837 53.1216 46.8948 54.9336 43.2105C56.7462 39.5262 64.5278 40.9605 71.2779 44.2804C74.7006 45.9637 77.7037 48.0295 79.7349 50.0966C82.7932 53.2102 82.7102 55.3378 82.1019 56.5742C82.1019 56.5745 82.1019 56.5745 82.1019 56.5745C81.3513 58.0998 79.5776 58.7478 77.2777 58.7478ZM59.6962 43.9261C58.4592 43.9261 57.7141 44.1698 57.5523 44.4985C57.1123 45.3936 59.811 49.3269 67.0454 52.8854C74.2798 56.4436 79.0425 56.1812 79.4831 55.2861V55.2864C79.6453 54.9562 79.2921 53.8108 77.6529 52.1422C75.8463 50.3033 73.125 48.4414 69.9901 46.8992C65.4135 44.6482 61.826 43.9261 59.6962 43.9261Z" fill="#371A45"/>
<path d="M9.91992 16.3805L12.2333 21.0833C12.733 22.0993 14.1923 22.5297 16.2267 22.4433C17.6181 22.3897 19.267 22.0819 21.0682 21.5503C22.8181 21.0297 24.7089 20.2911 26.6266 19.3478C27.6083 18.8649 28.5417 18.3561 29.4156 17.827C31.6173 16.5101 33.4556 15.0883 34.7644 13.7287C36.5457 11.8885 37.3562 10.1785 36.7806 9.00848L34.4673 4.30566L9.91992 16.3805Z" fill="#6ADDFF"/>
<g opacity="0.3">
<path d="M25.0449 8.9403L29.4161 17.8266C31.6179 16.5097 33.4562 15.088 34.765 13.7283L30.9749 6.02344L25.0449 8.9403Z" fill="white"/>
</g>
<g opacity="0.2">
<path d="M12.5957 15.0642L16.2258 22.4438C17.6172 22.3902 19.2661 22.0824 21.0673 21.5508L16.8477 12.9727L12.5957 15.0642Z" fill="#00004F"/>
</g>
<path d="M15.7212 23.9199C12.6976 23.9199 11.4407 22.7776 10.9245 21.7275L8.61083 17.0247C8.44002 16.6771 8.41398 16.2762 8.53895 15.91C8.66353 15.5435 8.9287 15.2419 9.27629 15.0711L33.8236 2.99612C34.5466 2.6399 35.4214 2.93808 35.777 3.66146L38.0906 8.36427C39.9031 12.0492 34.0196 17.3377 27.2711 20.6572C23.849 22.3408 20.379 23.4587 17.5005 23.8054C16.8483 23.8839 16.2568 23.9199 15.7212 23.9199ZM11.8739 17.0458L13.5433 20.4393C13.7057 20.7692 14.8274 21.1876 17.1514 20.9077C19.7117 20.5995 22.8486 19.5804 25.9832 18.0385C33.2152 14.4809 35.9123 10.548 35.472 9.65253L33.8024 6.25905L11.8739 17.0458Z" fill="#371A45"/>
<path d="M24.31 14.6428C31.089 11.3081 35.6369 6.67852 34.4681 4.3024C33.2992 1.92629 26.8562 2.70339 20.0772 6.03812C13.2982 9.37284 8.75028 14.0024 9.91914 16.3785C11.088 18.7546 17.531 17.9775 24.31 14.6428Z" fill="#6ADDFF"/>
<g opacity="0.2">
<path d="M9.92002 16.3807C11.0879 18.7549 17.533 17.9805 24.3133 14.6452C30.8255 11.4418 35.2801 7.03907 34.5735 4.59375C32.7824 6.63014 29.707 8.88015 25.9516 10.7274C19.1712 14.0628 12.7319 14.8344 11.564 12.4601C11.519 12.3687 11.4799 12.2746 11.4606 12.1777C10.0192 13.8156 9.40061 15.3248 9.92002 16.3807Z" fill="#00004F"/>
</g>
<path d="M13.408 19.2172C10.3849 19.2172 9.12803 18.0746 8.61141 17.0238C6.79917 13.3398 12.6846 8.05063 19.4347 4.73004C26.1855 1.40971 33.9675 -0.0248405 35.7793 3.6601C37.5916 7.34377 31.7062 12.6333 24.956 15.9539C21.5333 17.6375 18.0639 18.7556 15.1869 19.1024C14.5349 19.1813 13.9434 19.2172 13.408 19.2172ZM31.0167 4.37572C28.8869 4.37572 25.2999 5.09758 20.723 7.34885C13.4886 10.9079 10.7899 14.8409 11.2301 15.736C11.3925 16.0655 12.514 16.4856 14.8376 16.2051C17.3967 15.8966 20.5326 14.8771 23.6678 13.3352C30.9021 9.77613 33.6008 5.84317 33.1606 4.9481C32.9987 4.61943 32.2531 4.37572 31.0167 4.37572Z" fill="#371A45"/>
<path d="M2.29297 82.6524L4.7976 87.7442C5.3386 88.8441 6.91869 89.3102 9.12132 89.2167C10.6278 89.1588 12.4131 88.8255 14.3632 88.2499C16.2579 87.6863 18.305 86.8866 20.3812 85.8653C21.4441 85.3424 22.4547 84.7915 23.4008 84.2188C25.7847 82.7929 27.775 81.2537 29.192 79.7815C31.1206 77.7892 31.998 75.9377 31.375 74.6709L28.8703 69.5791L2.29297 82.6524Z" fill="#6ADDFF"/>
<g opacity="0.3">
<path d="M18.668 74.5976L23.4006 84.2189C25.7845 82.793 27.7748 81.2538 29.1918 79.7816L25.0883 71.4395L18.668 74.5976Z" fill="white"/>
</g>
<g opacity="0.2">
<path d="M5.19141 81.2264L9.1217 89.2163C10.6281 89.1584 12.4135 88.825 14.3636 88.2494L9.79504 78.9619L5.19141 81.2264Z" fill="#00004F"/>
</g>
<path d="M8.60211 90.7949C6.1112 90.7949 4.19101 90.0932 3.37836 88.4416L0.873475 83.3493C0.488421 82.5664 0.810867 81.6196 1.59406 81.2342L28.1713 68.1609C28.9539 67.7754 29.9014 68.0976 30.2862 68.8811L32.7911 73.973C34.7534 77.9625 28.3836 83.6884 21.077 87.2825C16.7943 89.3894 12.127 90.7949 8.60211 90.7949ZM4.40653 83.3723L6.21382 87.0467C6.69069 88.015 11.8478 88.3008 19.6825 84.4472C27.5124 80.5954 30.4325 76.3372 29.9557 75.3677L28.1484 71.6935L4.40653 83.3723Z" fill="#371A45"/>
<path d="M17.8725 80.7702C25.2121 77.1597 30.1361 72.1473 28.8706 69.5746C27.605 67.002 20.6292 67.8433 13.2896 71.4538C5.94994 75.0643 1.02592 80.0768 2.29147 82.6494C3.55701 85.2221 10.5329 84.3808 17.8725 80.7702Z" fill="#6ADDFF"/>
<g opacity="0.2">
<path d="M2.29247 82.6513C3.55698 85.222 10.5351 84.3834 17.8761 80.7723C24.9267 77.304 29.7499 72.537 28.9848 69.8896C27.0455 72.0944 23.7158 74.5305 19.6499 76.5306C12.3088 80.1416 5.33696 80.9771 4.07246 78.4066C4.02382 78.3078 3.9814 78.2058 3.96044 78.101C2.39978 79.874 1.73013 81.5082 2.29247 82.6513Z" fill="#00004F"/>
</g>
<path d="M6.09662 85.7029C3.60596 85.7029 1.68589 85.0012 0.873496 83.3499C0.873496 83.3497 0.873117 83.3496 0.873117 83.3496C-1.0886 79.3605 5.28359 73.6343 12.5921 70.0391C19.9 66.4435 28.3256 64.8898 30.2882 68.8805C32.2506 72.8694 25.8784 78.5959 18.5696 82.1911C14.2873 84.2974 9.62103 85.7029 6.09662 85.7029ZM3.70895 81.955C4.18646 82.9248 9.34316 83.2082 17.1751 79.3552C25.0078 75.5025 27.9298 71.2443 27.4529 70.2751C26.9775 69.3067 21.8193 69.0219 13.9868 72.8746C6.15402 76.7275 3.23208 80.9857 3.70895 81.955Z" fill="#371A45"/>
</svg>
