<svg width="160" height="160" viewBox="0 0 160 160" fill="none" xmlns="http://www.w3.org/2000/svg">
<circle cx="80" cy="80" r="80" fill="#F8F8F8"/>
<g opacity="0.2">
<path d="M82.39 141.221C107.139 141.221 127.202 137.599 127.202 133.132C127.202 128.665 107.139 125.044 82.39 125.044C57.6411 125.044 37.5781 128.665 37.5781 133.132C37.5781 137.599 57.6411 141.221 82.39 141.221Z" fill="#1E3A59"/>
</g>
<path d="M107.529 113.047H53.668L54.59 68.6841C54.59 64.9427 57.4624 61.9097 61.0056 61.9097H102.035C105.579 61.9097 108.451 64.9427 108.451 68.6841L107.529 113.047Z" fill="white"/>
<g opacity="0.2">
<path d="M107.529 113.047H53.668L54.59 68.6841C54.59 64.9427 57.4624 61.9097 61.0056 61.9097H102.035C105.579 61.9097 108.451 64.9427 108.451 68.6841L107.529 113.047Z" fill="#1E3A59"/>
</g>
<path d="M107.524 113.927H53.6635C53.4268 113.927 53.2002 113.832 53.0345 113.663C52.869 113.494 52.7785 113.265 52.7834 113.029L53.7055 68.6659C53.7052 64.4632 56.9782 61.0293 61.0012 61.0293H102.031C106.054 61.0293 109.327 64.4633 109.327 68.6843L108.405 113.065C108.395 113.544 108.003 113.927 107.524 113.927ZM54.5623 112.167H106.662L107.566 68.6659C107.566 65.4341 105.083 62.79 102.031 62.79H61.0012C57.949 62.79 55.4658 65.4341 55.4658 68.6843L54.5623 112.167Z" fill="#1E3A59"/>
<path d="M122.832 91.7169C122.815 92.025 122.779 92.3353 122.727 92.6435C122.271 95.3241 120.504 97.9057 117.988 99.2856C114.049 101.449 108.978 100.468 106.031 96.8823V107.064C112.75 108.591 117.731 112.504 119.41 116.954V116.956C119.5 117.19 119.579 117.425 119.648 117.663C119.67 117.738 119.692 117.813 119.711 117.887C119.755 118.05 119.795 118.215 119.83 118.38C119.846 118.457 119.861 118.537 119.877 118.616C119.892 118.697 119.905 118.779 119.918 118.86C119.921 118.862 119.921 118.867 119.921 118.871C119.936 118.968 119.949 119.065 119.96 119.162C119.969 119.225 119.976 119.292 119.982 119.358C119.987 119.397 119.991 119.435 119.995 119.472C120 119.512 120.002 119.551 120.004 119.589C120.009 119.646 120.013 119.703 120.015 119.76C120.026 119.939 120.031 120.117 120.031 120.295C120.031 120.385 120.028 120.476 120.024 120.568C120.02 120.652 120.015 120.735 120.011 120.819C120.004 120.916 119.998 121.013 119.987 121.107C119.98 121.184 119.971 121.259 119.96 121.334C119.956 121.382 119.949 121.429 119.94 121.477C119.934 121.523 119.927 121.567 119.921 121.611C119.914 121.657 119.907 121.706 119.896 121.752C119.883 121.827 119.87 121.9 119.855 121.972C119.835 122.069 119.813 122.164 119.791 122.261C119.767 122.355 119.742 122.452 119.716 122.547C119.689 122.644 119.661 122.738 119.632 122.835C119.542 123.121 119.436 123.407 119.315 123.691C119.26 123.817 119.203 123.942 119.144 124.067C119.069 124.226 118.987 124.382 118.902 124.538C118.798 124.726 118.69 124.91 118.574 125.095C118.49 125.227 118.404 125.357 118.312 125.487C118.085 125.817 117.832 126.143 117.555 126.466C117.478 126.554 117.398 126.645 117.317 126.735C117.154 126.913 116.985 127.089 116.806 127.265C116.63 127.439 116.445 127.613 116.252 127.785C116.058 127.956 115.856 128.128 115.646 128.298C115.332 128.548 114.999 128.797 114.65 129.044C114.561 129.105 114.471 129.165 114.381 129.226C114.291 129.288 114.198 129.347 114.106 129.407C114.016 129.466 113.921 129.526 113.826 129.585C113.001 130.104 112.09 130.6 111.084 131.066C110.972 131.119 110.86 131.17 110.745 131.22C110.626 131.273 110.507 131.326 110.386 131.379C110.268 131.432 110.144 131.484 110.021 131.535C109.858 131.605 109.691 131.674 109.524 131.74C109.222 131.859 108.916 131.977 108.602 132.092C108.516 132.125 108.428 132.156 108.342 132.189C108.293 132.204 108.245 132.222 108.197 132.239C108.012 132.303 107.825 132.369 107.635 132.433C107.525 132.47 107.415 132.506 107.303 132.543C106.843 132.695 106.368 132.84 105.879 132.981C105.633 133.054 105.379 133.124 105.124 133.192C104.741 133.296 104.349 133.397 103.949 133.496C103.828 133.525 103.707 133.555 103.584 133.584C103.005 133.72 102.411 133.853 101.796 133.976C101.339 134.068 100.872 134.158 100.395 134.244C100.155 134.288 99.9103 134.33 99.6638 134.372C99.4702 134.403 99.2743 134.436 99.0763 134.467C98.2883 134.592 97.474 134.706 96.6355 134.812C90.6293 136.511 85.0523 136.954 80.6924 133.837C80.6396 133.881 80.5846 133.925 80.5295 133.969C80.3644 134.099 80.1972 134.222 80.0255 134.341C79.7988 134.497 79.5633 134.64 79.3235 134.775C79.2024 134.841 79.0813 134.905 78.9581 134.966C78.804 135.041 78.6478 135.114 78.4893 135.182C78.4101 135.217 78.3309 135.25 78.2494 135.281C77.9941 135.382 77.7322 135.475 77.4637 135.554C77.4109 135.569 77.3581 135.585 77.3031 135.6C77.204 135.629 77.1028 135.657 77.0015 135.682C76.8717 135.715 76.7419 135.745 76.6098 135.774C76.5064 135.796 76.4007 135.818 76.2929 135.836C76.2246 135.849 76.1542 135.862 76.0838 135.873C75.8593 135.91 75.6304 135.941 75.3993 135.968C75.3135 135.979 75.2277 135.985 75.1397 135.994C75.0846 135.999 75.0274 136.005 74.9702 136.007C74.902 136.014 74.8337 136.018 74.7633 136.023C74.6401 136.032 74.5146 136.038 74.3892 136.043C72.4459 136.12 70.531 135.638 68.7814 134.79C66.4353 133.655 63.7128 132.977 60.713 132.622C57.5613 132.248 54.5 131.26 51.8237 129.554C51.52 129.361 51.2272 129.165 50.9434 128.965C50.8576 128.905 50.7739 128.843 50.6903 128.782C50.5868 128.709 50.4856 128.634 50.3866 128.557C50.2897 128.485 50.1929 128.41 50.0983 128.335C50.0586 128.304 50.019 128.273 49.9794 128.24C49.8562 128.144 49.7329 128.042 49.6141 127.943C49.4798 127.831 49.3478 127.719 49.2201 127.604C49.1233 127.521 49.0286 127.435 48.9362 127.347C48.8416 127.261 48.7513 127.175 48.6611 127.085C48.6523 127.081 48.6435 127.072 48.6347 127.061C48.5841 127.015 48.5334 126.966 48.485 126.916C48.3662 126.801 48.2517 126.684 48.1395 126.566C47.7654 126.174 47.4221 125.775 47.1095 125.37C47.0325 125.274 46.9577 125.177 46.8872 125.08C46.8653 125.051 46.8433 125.023 46.8256 124.994C46.7508 124.895 46.6782 124.794 46.6099 124.693C46.5945 124.673 46.5813 124.653 46.5703 124.633C46.4976 124.532 46.4294 124.429 46.3656 124.325C46.3414 124.294 46.3216 124.263 46.304 124.23C46.2335 124.123 46.1675 124.015 46.1037 123.905C46.0244 123.775 45.9518 123.645 45.8792 123.515C45.8308 123.429 45.7846 123.343 45.7384 123.255C45.6767 123.137 45.6151 123.018 45.5579 122.899C45.4346 122.648 45.3246 122.395 45.2234 122.144C45.1199 121.893 45.0275 121.64 44.9461 121.385C44.8624 121.132 44.7898 120.881 44.726 120.628C44.4333 119.479 44.3364 118.334 44.4244 117.232C44.4244 117.201 44.4288 117.17 44.4311 117.137C44.442 117.016 44.4531 116.895 44.4684 116.774C44.486 116.637 44.5058 116.503 44.5279 116.369C44.5499 116.237 44.5741 116.103 44.6005 115.971C44.6291 115.838 44.6599 115.709 44.6907 115.577C44.7237 115.447 44.759 115.317 44.7985 115.189C44.836 115.062 44.8756 114.934 44.9196 114.808V114.806C46.4316 110.38 51.1106 107.171 57.788 107.876V97.2477C54.621 99.0986 51.7775 99.9702 49.8297 100.41C49.8275 100.413 49.8253 100.413 49.8231 100.413C47.532 100.932 45.5248 101.361 43.051 100.727C42.4744 100.58 41.9418 100.393 41.4576 100.182C40.3352 99.6995 39.468 99.1031 38.8672 98.6255C39.9544 97.2962 41.1341 95.7138 42.3005 93.8672C43.0796 92.6369 43.8521 91.2878 44.5894 89.822C46.0112 86.9961 46.9884 84.3551 47.6728 82.075C52.0019 72.7477 59.5091 67.6836 69.4174 65.8458L96.5738 64.1313C99.4943 65.267 103.399 67.1311 107.481 70.2079C110.901 72.7873 113.47 75.4812 115.327 77.7569C115.981 78.5536 116.657 79.3305 117.348 80.0942C119.56 82.5482 120.801 84.8855 121.51 86.5207C122.352 88.4662 122.933 89.8505 122.832 91.7169Z" fill="white"/>
<g opacity="0.2">
<path d="M106.107 98.8108L105.747 95.0897C105.618 93.7601 104.501 92.7455 103.165 92.7455H99.9229V91.1229C99.9229 88.4793 97.7801 86.3362 95.1367 86.3362H68.5292C65.8859 86.3362 63.7431 88.4793 63.7431 91.1229V92.7455H60.8251C59.4894 92.7455 58.3721 93.7601 58.2434 95.0897L57.8834 98.8108C57.8066 99.604 58.43 100.291 59.2269 100.291H63.7431V104.51C63.7431 107.153 65.8859 109.296 68.5292 109.296H95.1367C97.78 109.296 99.9229 107.153 99.9229 104.51V100.291H104.764C105.56 100.291 106.184 99.604 106.107 98.8108Z" fill="#371A45"/>
</g>
<path d="M58.7827 81.3127L59.1263 97.5094C59.1392 98.1184 58.656 98.6226 58.047 98.6355C57.3846 98.6549 56.8478 98.0633 56.9279 97.4065L58.7827 81.3127Z" fill="#371A45"/>
<path d="M103.178 79.8518C105.54 85.2807 106.885 91.1525 107.374 97.069C107.425 97.6757 106.974 98.2092 106.368 98.2604C105.761 98.3116 105.227 97.8612 105.176 97.2545C105.412 91.4015 104.844 85.5054 103.178 79.8518Z" fill="#371A45"/>
<g opacity="0.2">
<path d="M57.583 90.8171V97.3097C56.3417 98.1218 53.5378 99.7769 49.6247 100.472C49.6225 100.475 49.6203 100.475 49.6181 100.475C48.3746 100.697 47.0166 100.82 45.5618 100.789C43.9816 100.756 42.5379 100.545 41.2525 100.243C40.1301 99.7615 39.2629 99.1651 38.6621 98.6875C39.7493 97.3582 40.929 95.7757 42.0954 93.9292C43.1585 94.1339 44.3183 94.2704 45.5618 94.2968C51.5922 94.4244 55.9478 91.8868 57.583 90.8171Z" fill="#1E3A59"/>
<path d="M96.4313 128.38C90.4255 130.079 84.8493 130.521 80.489 127.406C78.7636 128.842 76.6293 129.516 74.1848 129.612C72.2418 129.688 70.3271 129.207 68.5772 128.359C66.2328 127.223 63.51 126.546 60.5084 126.191C57.3569 125.818 54.2973 124.828 51.6203 123.124C47.8724 120.738 45.6527 117.802 44.7154 114.868C43.142 119.475 45.001 125.403 51.6203 129.617C54.2973 131.322 57.3569 132.311 60.5084 132.684C63.51 133.04 66.2328 133.717 68.5772 134.852C70.3272 135.7 72.2418 136.181 74.1848 136.105C76.6293 136.009 78.7636 135.335 80.489 133.9C84.8493 137.015 90.4255 136.572 96.4313 134.873C116.313 132.391 121.86 124.032 119.208 117.015C117.227 122.032 110.338 126.644 96.4313 128.38Z" fill="#1E3A59"/>
<path d="M122.522 92.7055C122.066 95.3861 120.299 97.9677 117.783 99.3477C113.844 101.511 108.773 100.53 105.826 96.9443V91.4246C106.482 92.0914 110.375 95.9165 116.045 95.2409C118.714 94.9217 120.818 93.7179 122.33 92.492C122.394 92.5624 122.458 92.635 122.522 92.7055Z" fill="#1E3A59"/>
</g>
<path d="M88.2371 137.086C85.2202 137.086 82.7108 136.39 80.525 134.986C78.818 136.216 76.7011 136.887 74.2214 136.985C72.2207 137.066 70.1936 136.613 68.1954 135.645C66.0551 134.608 63.5074 133.926 60.4067 133.558C56.9558 133.15 53.8412 132.074 51.1493 130.36C44.7991 126.317 41.9558 120.097 43.9057 114.513C45.6364 109.558 50.6027 106.673 56.706 106.985V98.8003C54.4988 99.9463 52.1872 100.797 49.8156 101.333C47.6249 101.829 45.3597 102.342 42.6315 101.642C41.0096 101.226 39.4914 100.464 38.119 99.3778C37.934 99.2313 37.8156 99.0165 37.7902 98.782C37.7649 98.5472 37.8349 98.3122 37.9845 98.1297C40.167 95.4651 42.0567 92.558 43.6013 89.4885C44.8252 87.0563 45.8432 84.4981 46.6271 81.8849C46.6391 81.8446 46.6541 81.8054 46.6718 81.767C50.9078 72.6396 58.4382 67.0123 69.0539 65.0417C69.0888 65.0353 69.1239 65.031 69.1592 65.0289L96.3167 63.3141C96.4439 63.305 96.572 63.3258 96.6912 63.3721C100.665 64.9168 104.406 67.0012 107.81 69.5674C110.771 71.7997 113.462 74.3884 115.808 77.2611C116.387 77.9697 117.038 78.724 117.799 79.5669C119.623 81.5894 121.075 83.8322 122.116 86.2327C122.959 88.1781 123.624 89.7146 123.509 91.8265C123.325 95.1983 121.245 98.4537 118.21 100.12C114.497 102.158 109.958 101.66 106.709 99.0484V106.433C115.163 108.592 121.009 114.541 120.7 120.774C120.578 123.222 119.434 126.812 114.675 130.016C110.494 132.832 104.416 134.757 96.6083 135.738C93.4254 136.635 90.6665 137.086 88.2371 137.086ZM80.491 133.019C80.6698 133.019 80.849 133.074 81.0025 133.183C84.5674 135.73 89.2524 135.989 96.1935 134.026C96.2363 134.014 96.28 134.005 96.3241 134C110.158 132.273 118.613 127.296 118.941 120.687C119.217 115.142 113.62 109.8 105.634 107.985C105.233 107.894 104.949 107.537 104.949 107.126V96.9449C104.949 96.5733 105.182 96.2416 105.532 96.1162C105.882 95.9908 106.273 96.099 106.509 96.3858C109.184 99.6391 113.749 100.56 117.363 98.5763C119.838 97.2173 121.602 94.4662 121.751 91.7305C121.839 90.1122 121.358 88.913 120.5 86.9327C119.536 84.7078 118.187 82.6264 116.491 80.7461C115.711 79.8816 115.042 79.1058 114.445 78.3747C112.187 75.6111 109.598 73.1207 106.75 70.9731C103.527 68.5432 99.9895 66.5623 96.2332 65.0834L69.3234 66.7826C59.21 68.673 52.3303 73.7995 48.2952 82.4517C47.4843 85.1418 46.4345 87.7752 45.1743 90.2798C43.7107 93.1883 41.9484 95.9566 39.9289 98.5203C40.9095 99.1776 41.9623 99.6526 43.069 99.9364C45.3854 100.531 47.2584 100.107 49.4271 99.6161C52.1018 99.0107 54.6975 97.9788 57.142 96.5494C57.4142 96.3901 57.7509 96.3892 58.0245 96.5458C58.298 96.7028 58.4667 96.994 58.4667 97.3094V107.938C58.4667 108.187 58.3608 108.425 58.1753 108.592C57.9899 108.759 57.7416 108.838 57.4941 108.813C51.7902 108.211 47.1104 110.677 45.5679 115.094C43.8974 119.878 46.4594 125.287 52.095 128.875C54.5617 130.445 57.4278 131.433 60.6138 131.81C63.9123 132.201 66.6434 132.937 68.9629 134.06C70.6979 134.9 72.4434 135.292 74.1523 135.226C76.5314 135.132 78.4206 134.477 79.9278 133.223C80.0903 133.088 80.2903 133.019 80.491 133.019Z" fill="#1E3A59"/>
<path d="M105.827 111.345C104.238 112.075 102.554 112.416 100.859 112.753C99.2174 113.098 97.5967 113.519 96.0026 114.025C92.7944 115.031 89.7207 116.363 86.6721 117.795C86.3749 117.967 85.9984 117.955 85.7419 117.743C83.2329 115.959 78.46 113.665 75.9387 116.303C73.7496 119.019 75.6985 123.88 77.068 126.704C78.228 129.033 79.6514 131.252 81.1994 133.382C81.4856 133.775 81.3989 134.326 81.0056 134.612C80.6127 134.897 80.0628 134.81 79.7774 134.417C78.1876 132.228 76.7143 129.937 75.4918 127.483C74.0055 124.359 72.5864 120.763 73.4986 117.232C74.7911 112.847 79.5534 112.732 83.0899 114.264C84.4024 114.802 85.6182 115.508 86.7553 116.306L85.8252 116.254C87.2971 115.317 88.8482 114.499 90.4524 113.793C94.3018 112.068 101.813 109.83 105.827 111.345Z" fill="#1E3A59"/>
<path d="M56.8789 113.455C58.6168 112.559 60.7297 113.133 62.2103 114.296L61.8034 114.062L74.4085 117.298C75.5204 117.617 75.1131 119.258 73.9708 119.003L61.3657 115.768C61.2055 115.731 61.0633 115.648 60.9587 115.534C60.083 114.152 58.5615 113.216 56.8789 113.455Z" fill="#1E3A59"/>
<path d="M86.897 117.123C86.2302 119.923 86.5358 122.909 87.5422 125.624C86.8367 124.331 86.2763 122.938 85.9338 121.469C85.5894 120.002 85.4694 118.462 85.5912 116.926C85.6172 116.559 85.9377 116.283 86.3043 116.312C86.7045 116.341 86.9905 116.733 86.897 117.123Z" fill="#1E3A59"/>
<path d="M57.5815 133.03C57.1675 133.03 56.7984 132.736 56.7178 132.314C55.4637 125.749 56.8235 119.887 60.875 114.392C61.1635 114.001 61.7147 113.918 62.1059 114.206C62.4973 114.495 62.5806 115.046 62.2919 115.437C58.5479 120.515 57.2903 125.927 58.4473 131.984C58.5385 132.462 58.2252 132.923 57.7477 133.014C57.6919 133.025 57.6363 133.03 57.5815 133.03Z" fill="#1E3A59"/>
<path d="M105.006 134.109C105 134.109 104.993 134.109 104.986 134.109C104.5 134.098 104.115 133.694 104.126 133.208C104.339 123.887 102.175 117.285 97.5096 113.028C97.1504 112.7 97.125 112.144 97.4527 111.785C97.7805 111.425 98.3373 111.4 98.6964 111.727C103.76 116.348 106.112 123.388 105.886 133.249C105.875 133.728 105.483 134.109 105.006 134.109Z" fill="#1E3A59"/>
<g opacity="0.2">
<path d="M57.5879 111.343C92.1632 110.928 101.547 111.24 101.563 111.728C101.572 111.975 99.1809 112.124 95.186 113.323C91.7411 114.357 88.9239 115.625 86.814 116.718C83.7109 113.681 79.6704 113.1 76.8625 114.593C75.7427 115.188 74.8287 116.317 74.1873 118.15C71.2004 117.961 66.5069 117.218 61.7145 114.369C60.082 113.398 58.7149 112.348 57.5879 111.343Z" fill="#1E3A59"/>
</g>
<path d="M108.48 80.7725C111.599 81.4167 115.16 83.3243 116.805 86.1412C116.996 86.3871 116.736 86.7097 116.468 86.531C113.898 84.5891 110.931 83.3099 107.883 82.429C106.731 82.0108 107.291 80.415 108.48 80.7725Z" fill="#1E3A59"/>
<g opacity="0.2">
<path d="M103.9 67.7855C98.0659 73.7365 89.8611 77.441 80.7752 77.441C72.6312 77.441 65.1931 74.4618 59.5391 69.5575C62.5474 67.8951 65.9355 66.7463 69.6618 66.055L96.8197 64.3416C99.2999 65.337 101.683 66.4591 103.9 67.7855Z" fill="#1E3A59"/>
</g>
<path d="M111.753 101.24C111.594 101.24 111.433 101.197 111.288 101.107C110.876 100.85 110.749 100.307 111.006 99.8941C113.823 95.3668 114.806 89.4661 113.509 84.8609C113.377 84.3927 113.65 83.9067 114.118 83.7749C114.586 83.6431 115.072 83.9157 115.204 84.3836C116.65 89.5209 115.615 95.8208 112.501 100.824C112.334 101.092 112.047 101.24 111.753 101.24Z" fill="#1E3A59"/>
<path d="M54.9962 94.7629C54.7753 94.7629 54.5542 94.6804 54.3831 94.5142C51.4655 91.6818 48.1179 90.713 44.1486 91.5523C43.6736 91.6531 43.2057 91.3489 43.1052 90.8732C43.0046 90.3975 43.3086 89.9303 43.7843 89.8296C48.3075 88.8737 52.2859 90.0243 55.6096 93.251C55.9584 93.5896 55.9667 94.1469 55.628 94.4958C55.4554 94.6735 55.226 94.7629 54.9962 94.7629Z" fill="#1E3A59"/>
<path d="M44.1647 113.984C49.4117 113.984 53.6653 110.19 53.6653 105.51C53.6653 100.83 49.4117 97.0369 44.1647 97.0369C38.9176 97.0369 34.6641 100.83 34.6641 105.51C34.6641 110.19 38.9176 113.984 44.1647 113.984Z" fill="#C0BECC"/>
<g opacity="0.2">
<path d="M44.1647 111.856C49.4117 111.856 53.6653 108.062 53.6653 103.383C53.6653 98.7031 49.4117 94.9094 44.1647 94.9094C38.9176 94.9094 34.6641 98.7031 34.6641 103.383C34.6641 108.062 38.9176 111.856 44.1647 111.856Z" fill="black"/>
</g>
<path d="M44.1584 114.864C38.4343 114.864 33.7773 110.668 33.7773 105.51C33.7773 100.352 38.4343 96.1562 44.1584 96.1562C49.8825 96.1562 54.5393 100.352 54.5393 105.51C54.5393 110.668 49.8825 114.864 44.1584 114.864ZM44.1584 97.917C39.4051 97.917 35.538 101.323 35.538 105.51C35.538 109.697 39.405 113.103 44.1584 113.103C48.9116 113.103 52.7786 109.697 52.7786 105.51C52.7786 101.323 48.9116 97.917 44.1584 97.917Z" fill="#1E3A59"/>
<path d="M36.3045 111.156C36.0616 111.156 35.8197 111.056 35.6459 110.86C35.3231 110.497 35.3561 109.94 35.7197 109.617C41.2673 104.693 47.5899 104.704 52.6323 109.647C52.9795 109.987 52.9852 110.545 52.6447 110.892C52.3045 111.239 51.7467 111.245 51.3999 110.904C47.0272 106.618 41.7381 106.629 36.8887 110.934C36.7209 111.083 36.5123 111.156 36.3045 111.156Z" fill="#1E3A59"/>
<path d="M44.164 114.864C44.1567 114.864 44.1494 114.864 44.1421 114.864C43.6561 114.852 43.2716 114.448 43.2835 113.962L43.4585 106.774C43.4704 106.288 43.8809 105.907 44.3601 105.915C44.846 105.927 45.2305 106.331 45.2187 106.817L45.0437 114.005C45.0319 114.484 44.6402 114.864 44.164 114.864Z" fill="#1E3A59"/>
<path d="M37.2042 96.7602C42.2714 92.0986 50.74 94.291 53.6657 99.8981L54.8805 103.058C55.2585 104.041 54.6959 105.17 53.6643 105.383C53.6088 105.394 53.5521 105.404 53.4944 105.411C52.4306 105.551 51.4237 104.897 51.0196 103.903C50.4487 102.498 49.7588 101.306 48.8043 100.586C48.4305 100.304 47.9054 100.348 47.575 100.68C46.3178 101.943 46.3469 103.779 47.2093 105.987C47.4595 107.238 47.1092 108.166 46.5086 108.683C45.6463 109.426 44.3009 109.107 43.7994 108.085C42.8026 106.055 43.5766 103.748 42.0128 102.465C41.9663 102.427 41.9189 102.391 41.8707 102.358C41.1434 101.86 40.1576 101.968 39.4972 102.552C39.17 102.841 38.8089 103.193 38.4425 103.612C37.3083 104.911 37.1965 105.628 36.4691 105.834C35.5238 106.101 33.5961 105.425 33.6846 104.259C33.8172 102.512 34.3667 100.988 35.1996 99.4145C35.7215 98.4284 36.3831 97.5155 37.2042 96.7602Z" fill="white"/>
<g opacity="0.2">
<path d="M47.0972 105.7C46.9852 105.854 46.857 105.989 46.7148 106.104C45.7909 106.847 44.3493 106.528 43.8119 105.506C42.7439 103.475 43.5732 101.168 41.8976 99.8852C41.8478 99.8471 41.7971 99.8117 41.7454 99.7787C40.9662 99.2808 39.91 99.3883 39.2024 99.9719C38.8517 100.261 38.4648 100.613 38.0723 101.032C36.857 102.331 36.7372 103.049 35.9578 103.254C35.4019 103.401 34.5295 103.263 33.8706 102.916C33.7798 103.352 33.7138 103.797 33.6787 104.259C33.5902 105.425 35.5179 106.1 36.4632 105.833C37.1907 105.628 37.3024 104.91 38.4367 103.612C38.803 103.193 39.1641 102.841 39.4914 102.551C40.1517 101.968 41.1375 101.86 41.8648 102.358C41.9131 102.391 41.9605 102.426 42.0069 102.465C43.5707 103.747 42.7968 106.055 43.7935 108.085C44.2951 109.107 45.6405 109.426 46.5028 108.683C47.1033 108.166 47.4536 107.238 47.2034 105.987C47.1658 105.89 47.1317 105.795 47.0972 105.7Z" fill="black"/>
<path d="M54.7374 102.696C54.626 102.742 54.5085 102.779 54.3835 102.803C54.324 102.814 54.2632 102.824 54.2014 102.832C53.0615 102.972 51.9827 102.317 51.5498 101.323C50.9381 99.9186 50.1989 98.7266 49.1762 98.0061C48.7757 97.7239 48.2131 97.7681 47.859 98.1C46.8932 99.0057 46.6389 100.207 46.9112 101.628C47.0693 101.284 47.2854 100.966 47.5709 100.679C47.9013 100.347 48.4264 100.303 48.8002 100.585C49.7547 101.306 50.4446 102.498 51.0155 103.902C51.4195 104.896 52.4264 105.551 53.4902 105.411C53.5479 105.403 53.6047 105.394 53.6602 105.382C54.6917 105.169 55.2544 104.04 54.8764 103.057L54.7374 102.696Z" fill="black"/>
</g>
<path d="M45.409 109.971C45.2327 109.971 45.0545 109.953 44.8766 109.916C44.0563 109.749 43.3747 109.223 43.0067 108.473C42.5178 107.477 42.4003 106.457 42.2968 105.557C42.1613 104.38 42.0481 103.634 41.4519 103.145C41.4255 103.124 41.3981 103.103 41.3704 103.084C40.9956 102.828 40.4517 102.881 40.0778 103.211C39.7322 103.516 39.4042 103.846 39.1031 104.191C38.6917 104.662 38.4213 105.057 38.204 105.374C37.8019 105.962 37.4546 106.469 36.7059 106.681C35.7793 106.943 34.4568 106.63 33.6299 105.953C33.0474 105.477 32.7542 104.852 32.8043 104.193C32.9355 102.466 33.4334 100.865 34.4191 99.0025C35.0205 97.8661 35.7562 96.8936 36.6057 96.112C39.0552 93.8587 42.4649 92.9163 45.9604 93.5279C49.662 94.1751 52.8332 96.4041 54.4437 99.4908C54.4592 99.5203 54.473 99.5508 54.4848 99.582L55.6996 102.741C55.9801 103.471 55.9259 104.282 55.551 104.969C55.19 105.629 54.5664 106.095 53.8402 106.245C53.7645 106.26 53.6878 106.273 53.6099 106.283C52.1692 106.474 50.7691 105.63 50.2016 104.234C49.6141 102.789 48.9828 101.825 48.2715 101.288C48.2515 101.273 48.2185 101.279 48.1964 101.3C47.2903 102.211 47.2348 103.639 48.0269 105.667C48.0456 105.715 48.06 105.764 48.0701 105.814C48.361 107.269 48.0004 108.558 47.0806 109.35C46.6103 109.756 46.0209 109.971 45.409 109.971ZM40.8258 101.158C41.3654 101.158 41.9018 101.314 42.3656 101.631C42.4347 101.679 42.5022 101.73 42.5684 101.784C43.746 102.75 43.9053 104.134 44.0459 105.356C44.1375 106.151 44.2322 106.974 44.5872 107.697C44.713 107.954 44.947 108.134 45.2292 108.191C45.3796 108.222 45.6713 108.24 45.9314 108.016C46.3439 107.661 46.4974 107.013 46.357 106.23C45.3323 103.559 45.5312 101.482 46.9485 100.058C47.5883 99.4155 48.613 99.3401 49.332 99.8825C50.3177 100.627 51.1123 101.799 51.8327 103.571C52.0987 104.225 52.7339 104.622 53.3772 104.538C53.4114 104.534 53.4482 104.528 53.4842 104.52C53.7838 104.458 53.9396 104.246 54.0059 104.125C54.1324 103.893 54.1509 103.619 54.0563 103.373L52.86 100.262C51.513 97.7181 48.758 95.8043 45.6572 95.2624C42.7056 94.7459 39.8409 95.5283 37.7977 97.4077C37.096 98.0533 36.4827 98.8669 35.9752 99.8258C35.1083 101.464 34.6718 102.852 34.5599 104.326C34.5526 104.422 34.6867 104.543 34.7447 104.59C35.174 104.942 35.9278 105.07 36.2273 104.986C36.3463 104.952 36.4404 104.834 36.7513 104.38C36.9818 104.043 37.2976 103.581 37.7772 103.033C38.1278 102.631 38.5097 102.247 38.9117 101.892C39.4611 101.406 40.1459 101.158 40.8258 101.158Z" fill="#1E3A59"/>
<path d="M107.845 52.6996L107.313 52.6974C107.041 52.6964 106.821 52.4751 106.822 52.2032L106.884 36.5948C106.885 36.3229 107.107 36.1034 107.379 36.1045L107.911 36.1066C110.764 36.118 113.067 38.4395 113.055 41.2919L113.031 47.5554C113.019 50.4078 110.698 52.7109 107.845 52.6996Z" fill="white"/>
<path d="M107.866 52.8537C107.859 52.8537 107.852 52.8537 107.845 52.8537L107.312 52.8516C107.139 52.8509 106.977 52.783 106.856 52.6604C106.734 52.5378 106.667 52.3752 106.668 52.2024L106.73 36.5942C106.732 36.2385 107.021 35.9502 107.377 35.9502C107.378 35.9502 107.378 35.9502 107.379 35.9502L107.912 35.9524C109.332 35.958 110.666 36.5166 111.667 37.5252C112.667 38.5338 113.215 39.8717 113.21 41.2924L113.185 47.5558C113.179 48.9767 112.62 50.3102 111.612 51.3108C110.608 52.3062 109.279 52.8536 107.866 52.8537ZM107.377 36.2586C107.287 36.2586 107.202 36.2933 107.139 36.3566C107.074 36.4203 107.039 36.505 107.039 36.5953L106.976 52.2037C106.976 52.2941 107.011 52.3791 107.074 52.4432C107.138 52.5073 107.223 52.5429 107.313 52.5431L107.846 52.5453C107.853 52.5453 107.86 52.5453 107.866 52.5453C109.197 52.5453 110.449 52.0296 111.395 51.0919C112.345 50.1493 112.871 48.8931 112.876 47.5547L112.901 41.2913C112.907 39.9529 112.39 38.6926 111.448 37.7424C110.505 36.7923 109.249 36.2661 107.911 36.2608L107.378 36.2586C107.378 36.2586 107.377 36.2586 107.377 36.2586Z" fill="#371A45"/>
<g opacity="0.25">
<path d="M113.043 44.5879L113.033 47.0694C113.02 50.1892 110.481 52.7098 107.359 52.6985C107.061 52.6976 106.821 52.4539 106.822 52.1566L106.837 48.032C106.92 48.2203 107.108 48.3509 107.326 48.3535L107.694 48.3539C110.16 48.3642 112.265 46.7915 113.043 44.5879Z" fill="#1E3A59"/>
</g>
<path d="M107.868 53.5579C107.859 53.5579 107.851 53.5579 107.843 53.5579L107.31 53.5558C106.949 53.5544 106.611 53.4124 106.357 53.1564C106.103 52.9002 105.963 52.5603 105.965 52.1995L106.027 36.5913C106.028 36.2306 106.17 35.892 106.426 35.6379C106.681 35.3851 107.019 35.2461 107.378 35.2461C107.379 35.2461 107.381 35.2461 107.383 35.2461L107.916 35.2483C109.524 35.2547 111.034 35.8872 112.168 37.0294C113.301 38.1715 113.921 39.6865 113.915 41.2953L113.89 47.5587C113.883 49.1676 113.251 50.6776 112.109 51.8106C110.972 52.938 109.467 53.5579 107.868 53.5579ZM107.683 51.8407L107.85 51.8412C107.855 51.8413 107.861 51.8413 107.867 51.8413C109.011 51.8413 110.087 51.3981 110.9 50.5921C111.716 49.7819 112.168 48.7023 112.173 47.5519L112.198 41.2885C112.203 40.1382 111.759 39.055 110.949 38.2384C110.139 37.4217 109.059 36.9695 107.909 36.965L107.742 36.9642L107.683 51.8407Z" fill="#1E3A59"/>
<path d="M55.7259 35.8987L56.2586 35.9008C56.5305 35.9019 56.75 36.1232 56.7489 36.3951L56.6868 52.0035C56.6857 52.2754 56.4644 52.4949 56.1925 52.4938L55.6599 52.4917C52.8075 52.4803 50.5043 50.1588 50.5157 47.3064L50.5406 41.0429C50.552 38.1905 52.8735 35.8874 55.7259 35.8987Z" fill="white"/>
<path d="M56.1947 52.648C56.1937 52.648 56.1927 52.648 56.1918 52.648L55.6592 52.6459C54.2385 52.6402 52.9049 52.0816 51.9044 51.073C50.9038 50.0645 50.3558 48.7266 50.3614 47.3058L50.3864 41.0424C50.392 39.6216 50.9506 38.2881 51.9592 37.2875C52.9677 36.2868 54.305 35.7466 55.7264 35.7446L56.259 35.7467C56.4317 35.7474 56.5938 35.8153 56.7155 35.9379C56.8371 36.0606 56.9037 36.2231 56.9031 36.3958L56.8409 52.004C56.8403 52.1767 56.7724 52.3388 56.6498 52.4605C56.5278 52.5815 56.3663 52.648 56.1947 52.648ZM55.7047 36.0529C54.374 36.0529 53.1217 36.5686 52.1765 37.5064C51.2263 38.449 50.7001 39.7051 50.6948 41.0435L50.6698 47.3069C50.6645 48.6453 51.1807 49.9056 52.1233 50.8558C53.0659 51.8059 54.3221 52.3321 55.6604 52.3374L56.1931 52.3395C56.1936 52.3395 56.1941 52.3395 56.1946 52.3395C56.2844 52.3395 56.3688 52.3048 56.4326 52.2415C56.4967 52.1779 56.5322 52.0931 56.5325 52.0029L56.5946 36.3946C56.5954 36.2081 56.4443 36.0558 56.2579 36.0551L55.7253 36.053C55.7184 36.0529 55.7115 36.0529 55.7047 36.0529Z" fill="#371A45"/>
<g opacity="0.25">
<path d="M56.7067 47.6529L56.6891 51.9572C56.6882 52.2546 56.4445 52.4947 56.1471 52.4939C54.5091 52.4866 53.0349 51.784 52.0069 50.665C51.0785 49.6545 50.5139 48.303 50.5196 46.8212L50.5283 44.5918C51.4065 46.5513 53.3749 47.9218 55.6631 47.9314L56.2293 47.9335C56.4361 47.9338 56.6122 47.8203 56.7067 47.6529Z" fill="#371A45"/>
</g>
<path d="M56.1937 53.3522C56.1918 53.3522 56.1899 53.3522 56.1879 53.3522L55.6555 53.3501C52.3344 53.3369 49.6432 50.6242 49.6563 47.3031L49.6813 41.0395C49.6877 39.4308 50.3202 37.9207 51.4623 36.7876C52.5986 35.6604 54.1039 35.0405 55.7035 35.0405C55.7118 35.0405 55.7201 35.0405 55.7283 35.0405L56.2609 35.0426C56.6217 35.0441 56.9603 35.186 57.2143 35.4421C57.4684 35.6982 57.6075 36.0379 57.6062 36.3986L57.544 52.007C57.5426 52.3676 57.4007 52.7063 57.1447 52.9604C56.8899 53.2132 56.5525 53.3522 56.1937 53.3522ZM56.1947 51.6356H56.1949C56.1949 51.6356 56.1948 51.6356 56.1947 51.6356ZM55.7039 36.7571C54.5601 36.7571 53.4839 37.2004 52.6714 38.0063C51.8547 38.8165 51.4025 39.8962 51.398 41.0465L51.373 47.3099C51.3684 48.4603 51.812 49.5435 52.6222 50.36C53.4324 51.1767 54.512 51.629 55.6624 51.6334L55.829 51.6341L55.8882 36.7578L55.7215 36.7572C55.7156 36.7571 55.7096 36.7571 55.7039 36.7571Z" fill="#1E3A59"/>
<path d="M81.7878 70.7394C96.3903 70.7394 108.228 58.9017 108.228 44.2993C108.228 29.6968 96.3903 17.8591 81.7878 17.8591C67.1853 17.8591 55.3477 29.6968 55.3477 44.2993C55.3477 58.9017 67.1853 70.7394 81.7878 70.7394Z" fill="white"/>
<path d="M81.8292 70.8952C81.1538 70.8952 80.4761 70.8699 79.7955 70.8188C72.7119 70.2868 66.2594 67.028 61.6268 61.643C56.9941 56.2578 54.7358 49.3911 55.2679 42.3073C55.7999 35.2237 59.0586 28.7712 64.4437 24.1386C69.8288 19.5059 76.695 17.2472 83.7794 17.7797C90.863 18.3117 97.3155 21.5704 101.948 26.9556C106.581 32.3407 108.839 39.2075 108.307 46.2913C107.775 53.3749 104.516 59.8273 99.1312 64.46C94.2633 68.6476 88.1841 70.8952 81.8292 70.8952ZM81.7463 18.0116C75.4646 18.0116 69.4564 20.2331 64.6448 24.3724C59.3221 28.9513 56.1013 35.3289 55.5753 42.3305C55.0495 49.332 57.2815 56.1192 61.8605 61.4419C66.4395 66.7646 72.8171 69.9854 79.8186 70.5113C86.8187 71.0377 93.6073 68.8052 98.93 64.2262C104.253 59.6473 107.474 53.2697 107.999 46.2681C108.525 39.2666 106.293 32.4794 101.714 27.1567C97.1353 21.834 90.7577 18.6131 83.7561 18.0872C83.084 18.0367 82.4134 18.0116 81.7463 18.0116Z" fill="#371A45"/>
<g opacity="0.35">
<path d="M108.177 42.6111C108.255 43.8159 108.249 45.0406 108.156 46.2801C107.06 60.841 94.3701 71.7585 79.809 70.6662C65.2481 69.5705 54.3307 56.8802 55.423 42.3191C55.4541 41.9004 55.4954 41.482 55.5464 41.0708C56.3599 54.039 66.6303 64.7477 79.9535 65.7488C94.0958 66.81 106.471 56.5429 108.177 42.6111Z" fill="#1E3A59"/>
</g>
<path d="M81.8333 71.5994C81.14 71.5994 80.4442 71.5734 79.7457 71.5209C72.4745 70.9748 65.8513 67.6298 61.0959 62.1021C56.3406 56.5745 54.0225 49.5258 54.5687 42.2547C55.696 27.2445 68.8265 15.9507 83.835 17.0775C98.8451 18.205 110.14 31.3339 109.012 46.3439C108.466 53.6152 105.121 60.2384 99.5932 64.9938C94.5966 69.2923 88.3564 71.5994 81.8333 71.5994ZM81.7721 18.7166C68.5283 18.7166 57.2882 28.9652 56.2805 42.3832C55.7686 49.1972 57.9409 55.8026 62.3972 60.9826C66.8536 66.1628 73.0603 69.2975 79.8743 69.8092C86.6883 70.3195 93.2936 68.1488 98.4738 63.6924C103.654 59.2362 106.788 53.0294 107.3 46.2153C108.357 32.1491 97.7727 19.8458 83.7064 18.7892C83.0582 18.7406 82.4119 18.7166 81.7721 18.7166Z" fill="#1E3A59"/>
<path d="M108.02 46.9506C107.71 52.1153 105.746 56.8096 102.641 60.605C100.313 63.4505 91.1648 68.1261 80.2473 67.5702C70.1245 67.0547 61.2426 61.1087 59.2712 58.0057C56.6418 53.8666 55.2527 48.9712 55.5622 43.8066C56.3814 30.1394 68.4633 25.1773 82.9496 26.0455C97.4359 26.9137 108.839 33.2834 108.02 46.9506Z" fill="#0056A8"/>
<g opacity="0.5">
<path d="M102.893 45.3872C103.505 42.8767 102.526 40.482 100.707 40.0386C98.888 39.5952 96.9172 41.2709 96.3053 43.7814C95.6933 46.292 96.672 48.6866 98.4912 49.13C100.31 49.5734 102.281 47.8977 102.893 45.3872Z" fill="white"/>
</g>
<g opacity="0.5">
<path d="M96.6167 54.2658C97.0541 53.1633 96.6417 51.9652 95.6956 51.5898C94.7495 51.2144 93.6279 51.8039 93.1905 52.9063C92.7531 54.0088 93.1654 55.2069 94.1115 55.5823C95.0576 55.9577 96.1792 55.3682 96.6167 54.2658Z" fill="white"/>
</g>
<g opacity="0.35">
<path d="M103.682 33.8945C106.705 37.1463 108.347 41.4605 108.018 46.9498C107.709 52.1155 105.744 56.8095 102.641 60.6051C100.312 63.4504 91.1632 68.1258 80.2459 67.571C76.391 67.3758 72.7174 66.3918 69.5352 65.0757C82.9696 65.4717 94.1167 59.7282 97.0035 56.1991C100.945 51.3821 103.437 45.4232 103.829 38.8696C103.935 37.1181 103.879 35.4606 103.682 33.8945Z" fill="#111A28"/>
</g>
<path d="M106.477 35.6877C106.267 35.6877 106.056 35.6103 105.891 35.4541L105.811 35.3788L105.749 35.2826C101.709 28.8335 93.3855 24.7746 82.9133 24.1467C72.3853 23.5152 63.6381 26.6667 58.9175 32.7911L58.8617 32.8564C58.5361 33.2011 57.9913 33.2181 57.6468 32.8928C57.3158 32.5803 57.2869 32.0686 57.5733 31.7233C62.6498 25.154 71.9204 21.7685 83.0161 22.4331C94.0398 23.0941 102.851 27.4391 107.193 34.354C107.408 34.6794 107.381 35.1223 107.102 35.4178C106.933 35.597 106.705 35.6877 106.477 35.6877Z" fill="#1E3A59"/>
<g opacity="0.5">
<path d="M60.9642 52.2901C60.9642 52.2901 57.5393 38.5536 65.1277 33.6163C72.716 28.6789 83.1688 29.3272 82.8842 29.983C82.8842 29.983 71.1428 32.0911 66.0661 40.9693C62.1512 47.8154 60.9642 52.2901 60.9642 52.2901Z" fill="white"/>
</g>
<path d="M55.8465 74.0814L50.1387 49.2424L113.609 49.366L108.563 74.2742L55.8465 74.0814Z" fill="url(#paint0_linear_771_8446)"/>
<path d="M105.938 111.55H58.4647C57.7687 111.55 57.1992 110.981 57.1992 110.285V108.061C57.1992 107.365 57.7687 106.796 58.4647 106.796H105.938C106.634 106.796 107.204 107.365 107.204 108.061V110.285C107.204 110.981 106.634 111.55 105.938 111.55Z" fill="#BFD4E6"/>
<g opacity="0.2">
<path d="M107.003 107.341V107.949C107.003 108.633 106.483 109.192 105.848 109.192H58.1531C57.7579 109.192 57.4076 108.975 57.1992 108.647V110.308C57.1992 110.991 57.7189 111.55 58.3539 111.55H106.049C106.684 111.55 107.204 110.991 107.204 110.308V108.039C107.204 107.78 107.129 107.54 107.003 107.341Z" fill="#1E3A59"/>
</g>
<path d="M110.57 77.4556L108.122 103.589C108.046 104.401 107.696 105.158 107.138 105.711L106.046 106.796H58.3507L57.2582 105.711C56.7 105.158 56.3505 104.401 56.2742 103.589L53.8262 77.4556C53.78 76.9477 53.8122 76.4312 53.9588 75.9472C54.3062 74.804 55.1135 74.1773 56.214 73.8812C56.2642 73.8683 56.3124 73.8553 56.3626 73.8445C56.728 73.7624 57.1016 73.7322 57.4751 73.7322H106.921C107.345 73.7322 107.771 73.7711 108.182 73.8813C109.283 74.1774 110.09 74.8041 110.438 75.9472C110.444 75.9645 110.448 75.9839 110.452 76.0013C110.586 76.4702 110.614 76.9672 110.57 77.4556Z" fill="#BFD4E6"/>
<g opacity="0.7">
<path d="M57.9163 105.426L55.4683 79.2925C55.4221 78.7847 55.4543 78.2682 55.6008 77.7841C55.9483 76.6409 56.7555 76.0142 57.8561 75.7182C57.9063 75.7052 57.9545 75.6922 58.0047 75.6814C58.3701 75.5993 58.7437 75.569 59.1172 75.569H108.563C108.987 75.569 109.413 75.608 109.824 75.7182C110.04 75.7763 110.241 75.8513 110.434 75.9363C110.084 74.8004 109.279 74.1763 108.182 73.8813C107.771 73.7711 107.345 73.7322 106.921 73.7322H57.4751C57.1016 73.7322 56.728 73.7625 56.3626 73.8445C56.3124 73.8553 56.2642 73.8683 56.214 73.8812C55.1135 74.1773 54.3062 74.804 53.9588 75.9472C53.8122 76.4312 53.78 76.9477 53.8262 77.4556L56.2742 103.589C56.3505 104.401 56.7 105.158 57.2582 105.711L58.3226 106.768C58.1024 106.359 57.9611 105.903 57.9163 105.426Z" fill="white"/>
</g>
<path d="M105.938 112.431H58.4642C57.281 112.431 56.3184 111.468 56.3184 110.285V108.062C56.3184 106.878 57.281 105.916 58.4642 105.916H105.938C107.121 105.916 108.083 106.878 108.083 108.062V110.285C108.083 111.468 107.121 112.431 105.938 112.431ZM58.4642 107.676C58.2554 107.676 58.079 107.853 58.079 108.062V110.285C58.079 110.494 58.2554 110.67 58.4642 110.67H105.938C106.146 110.67 106.323 110.494 106.323 110.285V108.062C106.323 107.853 106.146 107.676 105.938 107.676H58.4642Z" fill="#1E3A59"/>
<path d="M106.047 107.676H58.3522C58.1197 107.676 57.8968 107.584 57.7318 107.421L56.6394 106.336C55.9352 105.636 55.4949 104.69 55.3995 103.672L52.952 77.537C52.8903 76.8786 52.9464 76.2581 53.1184 75.6922C53.5341 74.3255 54.4996 73.4304 55.9883 73.032C56.4396 72.911 56.9264 72.8521 57.4761 72.8521H106.923C107.473 72.8521 107.96 72.911 108.411 73.032C109.899 73.4304 110.865 74.3255 111.281 75.692C111.453 76.2581 111.509 76.8786 111.447 77.537L109 103.672C108.904 104.69 108.464 105.636 107.76 106.336L106.667 107.421C106.503 107.584 106.28 107.676 106.047 107.676ZM58.7151 105.916H105.684L106.519 105.087C106.931 104.677 107.19 104.116 107.247 103.508L109.694 77.3729C109.734 76.9435 109.702 76.5503 109.596 76.2043C109.36 75.4269 108.854 74.973 107.956 74.7325C107.654 74.6518 107.317 74.6126 106.923 74.6126H57.4761C57.0825 74.6126 56.7449 74.6518 56.4441 74.7325C55.5454 74.973 55.0394 75.4269 54.8031 76.2043C54.6979 76.5503 54.665 76.9435 54.7052 77.3729L57.1527 103.508C57.2097 104.116 57.4682 104.677 57.8803 105.087L58.7151 105.916Z" fill="#1E3A59"/>
<g opacity="0.2">
<path d="M110.57 77.4553L108.122 103.589C108.046 104.401 107.696 105.158 107.138 105.711L106.046 106.796H58.3507L57.2582 105.711C56.7 105.158 56.3505 104.401 56.2742 103.589L53.8262 77.4553C53.78 76.9475 53.8122 76.4309 53.9588 75.9469C54.3062 74.8037 55.1135 74.177 56.214 73.881C56.2642 73.868 56.3124 73.855 56.3626 73.8442L57.2843 73.9804C55.8706 74.2484 55.5593 76.2624 55.6115 77.8076C55.7601 82.2485 56.1518 86.683 56.7863 91.0742C57.1679 93.7171 57.69 96.4703 59.2765 98.5276C61.5598 101.49 65.4196 102.273 68.9521 102.865C76.2057 104.081 83.8911 105.246 90.6728 102.227C94.2755 100.622 97.3682 97.9268 100.16 94.9986C105.124 89.797 109.456 83.2728 110.452 76.001C110.586 76.4699 110.614 76.9669 110.57 77.4553Z" fill="#1E3A59"/>
</g>
<circle cx="82" cy="92" r="6.5" fill="url(#paint1_linear_771_8446)" stroke="#1E3A59"/>
<path d="M83.5928 89.1428H80.4072C80.0134 89.1428 79.7742 89.5769 79.9845 89.9098L81.1865 91.8129C81.2922 91.9803 81.2892 92.1944 81.1788 92.3588L80.0234 94.0782C79.8002 94.4104 80.0382 94.8571 80.4384 94.8571H83.5616C83.9618 94.8571 84.1998 94.4104 83.9766 94.0782L82.8212 92.3588C82.7108 92.1944 82.7078 91.9803 82.8135 91.8129L84.0155 89.9098C84.2258 89.5769 83.9866 89.1428 83.5928 89.1428Z" stroke="white"/>
<defs>
<linearGradient id="paint0_linear_771_8446" x1="78.39" y1="49.7869" x2="78.1979" y2="94.2398" gradientUnits="userSpaceOnUse">
<stop stop-color="white" stop-opacity="0"/>
<stop offset="0.932" stop-color="#CDEEFF"/>
</linearGradient>
<linearGradient id="paint1_linear_771_8446" x1="78.2083" y1="86.75" x2="86.375" y2="97.25" gradientUnits="userSpaceOnUse">
<stop offset="0.394929" stop-color="#6ADDFF"/>
<stop offset="0.878969" stop-color="#06C6FF"/>
</linearGradient>
</defs>
</svg>
