<svg width="80" height="120" viewBox="0 0 80 120" fill="none" xmlns="http://www.w3.org/2000/svg">
<path d="M60.0877 92.0468H15.6772C13.2818 92.0468 11.3398 90.1049 11.3398 87.7095V50.8466C11.3398 48.4512 13.2817 46.5093 15.6772 46.5093H60.0877C62.4832 46.5093 64.4251 48.4512 64.4251 50.8466V87.7095C64.425 90.1049 62.4832 92.0468 60.0877 92.0468Z" fill="white"/>
<path d="M60.0882 93.04H15.6776C12.7382 93.04 10.3467 90.6485 10.3467 87.7089V50.8461C10.3467 47.9066 12.7382 45.5151 15.6776 45.5151H60.0882C63.0277 45.5151 65.4192 47.9066 65.4192 50.8461V87.7089C65.4192 90.6485 63.0277 93.04 60.0882 93.04ZM15.6776 47.5025C13.8339 47.5025 12.334 49.0024 12.334 50.8461V87.7089C12.334 89.5527 13.8339 91.0527 15.6776 91.0527H60.0882C61.9319 91.0527 63.4318 89.5527 63.4318 87.7089V50.8461C63.4318 49.0024 61.932 47.5025 60.0882 47.5025H15.6776Z" fill="#1E3A59"/>
<path d="M63.5429 116.344C57.3541 118.331 43.6768 113.135 43.6768 113.135C43.6768 113.135 42.494 116.878 38.7303 118.407C34.9666 119.935 29.2362 119.17 28.0901 113.059C28.0901 113.059 11.2061 117.873 7.15588 107.404C5.73704 103.739 6.39026 100.138 7.84121 97.007C9.59701 93.202 12.5264 90.0916 14.3395 88.3976C15.3664 87.4395 15.9417 86.0964 15.9417 84.6935V81.2163L59.8823 85.7456C59.8823 85.7456 63.1738 89.4658 66.2362 93.9538V93.9561C67.8086 96.2574 69.3191 98.7582 70.2933 101.062C73.17 107.863 69.7317 114.356 63.5429 116.344Z" fill="white"/>
<path d="M35.2624 120C33.7717 120 32.3246 119.665 31.1064 119C29.295 118.01 28.0306 116.354 27.412 114.175C25.8816 114.53 22.6597 115.154 19.1218 115.073C12.5349 114.927 8.10157 112.389 6.30104 107.735C2.94639 99.0636 10.3681 90.8543 13.7146 87.7273C14.5479 86.9488 15.0259 85.8434 15.0259 84.6945V81.2164C15.0259 80.7101 15.4363 80.2996 15.9427 80.2996C16.4491 80.2996 16.8596 80.7101 16.8596 81.2164V84.6945C16.8596 86.3495 16.1696 87.9433 14.9665 89.0673C11.8922 91.9399 5.06002 99.4449 8.01126 107.074C11.716 116.65 27.6792 112.222 27.8398 112.177C28.0877 112.106 28.3541 112.143 28.5735 112.279C28.7929 112.414 28.9449 112.636 28.9924 112.889C29.3897 115.008 30.3966 116.523 31.9854 117.39C34.1269 118.56 36.6959 118.243 38.3856 117.557C41.6839 116.218 42.7937 112.889 42.8045 112.855C42.8818 112.617 43.0542 112.418 43.2806 112.31C43.507 112.201 43.7685 112.188 44.0033 112.278C44.1161 112.32 53.5984 115.887 60.0536 115.887C61.2551 115.887 62.3511 115.764 63.2629 115.471C66.1143 114.555 68.3359 112.631 69.5185 110.053C70.7203 107.432 70.6956 104.366 69.4492 101.42C66.665 94.8387 59.2706 86.4366 59.1963 86.3525C58.8609 85.9732 58.8964 85.3938 59.2758 85.0583C59.655 84.723 60.2344 84.7583 60.5699 85.1377C60.8815 85.49 68.2363 93.8464 71.138 100.706C72.5875 104.132 72.6043 107.723 71.1853 110.817C69.7855 113.869 67.1709 116.142 63.8234 117.217C58.2394 119.009 47.3161 115.409 44.1887 114.297C43.5633 115.612 42.0555 118.046 39.0756 119.256C37.851 119.753 36.5406 120 35.2624 120Z" fill="#1E3A59"/>
<path d="M50.8502 116.289C50.6531 116.289 50.4545 116.225 50.287 116.095C49.8877 115.783 49.8165 115.207 50.1278 114.808C53.6911 110.239 54.5111 104.068 54.6905 101.999C47.0276 99.8454 41.9248 98.4836 40.2621 98.0436L37.5523 101.608C37.2457 102.01 36.6705 102.089 36.2675 101.783C35.8644 101.476 35.7861 100.901 36.0926 100.498L39.1732 96.446C39.3973 96.1514 39.7761 96.0195 40.1346 96.1139C40.1926 96.1289 46.0381 97.6569 55.9033 100.435C56.3085 100.549 56.5839 100.925 56.5712 101.345C56.5607 101.693 56.2603 109.926 51.5739 115.936C51.3931 116.167 51.123 116.289 50.8502 116.289Z" fill="#1E3A59"/>
<path d="M55.9913 100.465L60.641 103.278L55.3202 102.171C54.8173 102.066 54.4944 101.574 54.599 101.071C54.7037 100.568 55.1962 100.245 55.6992 100.35C55.8041 100.372 55.9043 100.412 55.9913 100.465Z" fill="#1E3A59"/>
<path d="M78.2897 68.5909C78.1888 70.4178 77.7945 72.0452 77.2032 73.4824C76.9923 73.9936 76.7585 74.4818 76.5018 74.9471L9.635 71.2338L1.43597 68.1898C0.979821 66.4776 0.8354 64.5178 1.19756 62.299C2.95563 51.5007 18.2741 49.0022 18.2741 49.0022L51.6204 51.0331C56.5646 50.4921 64.39 52.5344 70.29 56.3417C70.2923 56.344 70.2923 56.344 70.2946 56.344C75.0554 59.4177 78.5624 63.6422 78.2897 68.5909Z" fill="white"/>
<path d="M76.5629 75.0579L76.4958 75.0541L9.61284 71.3396L9.59771 71.3341L1.34672 68.2709L1.33248 68.2174C0.834838 66.3495 0.753874 64.3524 1.09185 62.2819C2.00734 56.6586 6.63075 53.3177 10.3481 51.5052C14.3652 49.5465 18.2183 48.903 18.2569 48.8968L18.2686 48.8948L18.2805 48.8956L51.6269 50.9265C56.797 50.359 64.6641 52.5918 70.325 56.2371H70.3259L70.3525 56.2541C75.7851 59.7616 78.6417 64.1451 78.3964 68.5969C78.3005 70.3339 77.9323 71.9913 77.3019 73.5231C77.0906 74.0353 76.8529 74.5318 76.5953 74.999L76.5629 75.0579ZM9.65708 71.128L76.4403 74.8367C76.6817 74.3938 76.9049 73.9248 77.1043 73.4415C77.7254 71.9323 78.0883 70.2982 78.1827 68.5851C78.4234 64.2206 75.611 59.9121 70.2629 56.4509H70.2502L70.2241 56.4265C64.5992 52.7996 56.7817 50.575 51.632 51.1395L18.2797 49.1098C18.0436 49.15 14.3174 49.8069 10.4373 51.6996C6.76732 53.4899 2.20357 56.7851 1.303 62.3162C0.973231 64.3371 1.04797 66.2857 1.52515 68.109L9.65708 71.128Z" fill="#1E3A59"/>
<g opacity="0.3">
<path d="M27.6208 56.8095C27.6208 56.8095 46.2631 70.695 61.5505 52.3368L57.8131 50.9473" fill="#1E3A59"/>
</g>
<path d="M17.0288 65.8201C17.2679 65.005 17.5224 64.2249 17.7905 63.4371C18.0587 62.6524 18.3414 61.8737 18.638 61.1013C18.9363 60.3294 19.2536 59.5652 19.5873 58.8103C19.9266 58.0574 20.2883 57.3156 20.6799 56.5945C20.1751 58.1572 19.8172 59.75 19.5202 61.3512C19.3743 62.1524 19.2432 62.9554 19.1274 63.7598C19.0129 64.5611 18.908 65.3761 18.8299 66.1646L18.8293 66.1702C18.7792 66.6764 18.3281 67.0462 17.8219 66.996C17.3156 66.946 16.9459 66.4948 16.996 65.9886C17.0016 65.9322 17.0137 65.8727 17.0288 65.8201Z" fill="#1E3A59"/>
<path d="M58.2885 66.1643C58.2104 65.3758 58.1055 64.5609 57.991 63.7595C57.8752 62.9552 57.7441 62.1522 57.5982 61.3509C57.3011 59.7497 56.9433 58.1569 56.4385 56.5942C56.8301 57.3154 57.1918 58.0571 57.5311 58.8101C57.8648 59.5649 58.1821 60.3291 58.4804 61.101C58.777 61.8735 59.0597 62.6522 59.3279 63.4368C59.596 64.2246 59.8505 65.0048 60.0896 65.8198C60.2328 66.3079 59.9532 66.8198 59.465 66.9631C58.9769 67.1062 58.4651 66.8266 58.3218 66.3385C58.3059 66.2841 58.2952 66.2295 58.2894 66.175L58.2885 66.1643Z" fill="#1E3A59"/>
<path d="M53.1072 67.8059C53.0808 67.8059 53.0543 67.805 53.0277 67.8026C52.5233 67.7593 52.1493 67.3152 52.1926 66.8107C52.4261 64.0884 50.8413 63.6232 50.4085 63.5474H27.9025C25.9925 63.7333 25.9527 66.4154 25.9519 66.5301C25.9485 67.0342 25.5388 67.4424 25.035 67.4424C25.0341 67.4424 25.0331 67.4424 25.032 67.4424C24.5268 67.4408 24.1182 67.0322 24.1182 66.5271C24.1182 64.9663 24.8852 61.9521 27.7879 61.7166C27.8126 61.7146 27.8373 61.7136 27.862 61.7136H50.478C50.5131 61.7136 50.5481 61.7156 50.583 61.7197C51.9141 61.8731 54.3455 63.1673 54.0196 66.9675C53.9786 67.4453 53.578 67.8059 53.1072 67.8059Z" fill="#1E3A59"/>
<path d="M76.5001 75.8641C76.3507 75.8641 76.1992 75.8276 76.0591 75.7506C75.6154 75.5065 75.4535 74.9491 75.6975 74.5053C76.69 72.7 77.2539 70.6931 77.3733 68.5401C77.5418 65.4895 76.158 62.5501 73.2601 59.8037C67.4803 54.326 57.4551 51.318 51.7192 51.9443C51.2131 51.9986 50.7631 51.6357 50.7081 51.1325C50.6531 50.6292 51.0166 50.1765 51.5199 50.1215C57.6648 49.4501 68.3727 52.6457 74.5214 58.4727C77.7818 61.5626 79.4011 65.0788 79.2043 68.6414C79.0694 71.0711 78.4302 73.341 77.3043 75.3888C77.1374 75.6923 76.8237 75.8641 76.5001 75.8641Z" fill="#1E3A59"/>
<path d="M59.1887 62.6318V90.3669C59.1887 90.3669 49.5479 93.0786 42.9052 97.2296C42.8571 97.2595 42.809 97.2893 42.7608 97.319C42.5591 97.5322 42.3414 97.7133 42.1121 97.8669C40.6085 98.8823 38.6281 98.6645 37.6424 97.319C31.8158 94.0871 25.8241 91.7422 19.649 90.4036L19.4519 86.5413L19.429 86.0852L19.2066 81.7049L18.2737 63.3951C18.2737 63.3951 29.7276 65.0844 36.3221 68.6648C36.5995 68.8138 36.8676 68.9697 37.1267 69.1255H42.3413C42.3413 69.1255 49.3622 64.6099 57.4168 62.9481C58.0037 62.8267 58.595 62.7189 59.1887 62.6318Z" fill="#2E83FF"/>
<g opacity="0.5">
<path d="M57.4168 63.1496C49.3622 64.8114 42.3413 69.3269 42.3413 69.3269H37.1267C36.8676 69.171 36.5995 69.0151 36.3221 68.8661C29.7276 65.2858 18.2737 63.5965 18.2737 63.5965L18.358 65.2502C19.7258 65.4628 30.1032 67.1569 36.2544 70.4966C36.5317 70.6456 36.7999 70.8015 37.059 70.9573H42.2736C42.2736 70.9573 49.2945 66.4418 57.3491 64.78C57.9359 64.6585 58.5272 64.5508 59.1209 64.4637V90.5877C59.1652 90.5749 59.1887 90.5683 59.1887 90.5683V62.8333C58.595 62.9203 58.0036 63.028 57.4168 63.1496Z" fill="white"/>
</g>
<path d="M55.4535 79.3442C55.4346 79.5178 55.4048 79.6913 55.3649 79.8639C55.2729 80.2601 55.1251 80.6503 54.9173 81.0237C53.7204 83.1777 51.0043 83.9534 48.8504 82.7565C47.1354 81.8036 46.2942 79.8872 46.6267 78.0585C46.7119 77.5905 46.8738 77.1286 47.1176 76.6896C47.2313 76.4851 47.3588 76.293 47.4982 76.1139C47.8252 75.6929 48.2179 75.3435 48.6535 75.0723C48.7534 75.0097 48.8557 74.9514 48.9599 74.8976C49.5208 74.6066 50.1384 74.437 50.7697 74.4017C50.7754 74.4016 50.7809 74.401 50.7865 74.4008C50.8252 74.3987 50.8637 74.3971 50.9027 74.3962C50.9797 74.394 51.0568 74.394 51.134 74.3958C51.6578 74.409 52.185 74.5151 52.6908 74.7209C52.8579 74.7884 53.023 74.8673 53.1845 74.9569C53.2193 74.9765 53.2537 74.9959 53.2878 75.0163C53.3084 75.0282 53.3288 75.0407 53.3489 75.0534C53.5951 75.2039 53.8218 75.375 54.028 75.5633C55.0873 76.5291 55.6066 77.9449 55.4535 79.3442Z" fill="#99A4C4"/>
<path d="M55.4535 79.3442C55.4346 79.5178 55.4048 79.6913 55.3649 79.8639C55.2729 80.2601 55.1251 80.6503 54.9173 81.0237C53.7204 83.1777 51.0043 83.9534 48.8504 82.7565C47.1354 81.8036 46.2942 79.8872 46.6267 78.0585C46.7119 77.5905 46.8738 77.1286 47.1176 76.6896C47.2313 76.4851 47.3588 76.293 47.4982 76.1139C47.8252 75.6929 48.2179 75.3435 48.6535 75.0723C48.7534 75.0097 48.8557 74.9514 48.9599 74.8976C49.5208 74.6066 50.1384 74.437 50.7697 74.4017C50.7754 74.4016 50.7809 74.401 50.7865 74.4008C50.8252 74.3987 50.8637 74.3971 50.9027 74.3962C50.9797 74.394 51.0568 74.394 51.134 74.3958C51.6578 74.409 52.185 74.5151 52.6908 74.7209C52.8579 74.7884 53.023 74.8673 53.1845 74.9569C53.2193 74.9765 53.2537 74.9959 53.2878 75.0163C53.3084 75.0282 53.3288 75.0407 53.3489 75.0534C53.5951 75.2039 53.8218 75.375 54.028 75.5633C55.0873 76.5291 55.6066 77.9449 55.4535 79.3442Z" fill="#FFDE52"/>
<path d="M55.0459 80.0312C54.9616 80.3002 54.849 80.5646 54.7066 80.8206C53.5741 82.8587 51.0041 83.5928 48.966 82.4602C47.9814 81.9131 47.301 81.0303 46.9888 80.0339C47.3828 80.481 47.8586 80.8694 48.4092 81.1755C50.6576 82.4249 53.4148 81.8878 55.0459 80.0312Z" fill="#F2A83D"/>
<path d="M49.5943 75.3748C49.2944 75.3871 49.0581 75.6045 49.0664 75.8604C49.0747 76.1163 49.3244 76.3138 49.6243 76.3015C49.9241 76.2892 50.1605 76.0718 50.1522 75.8159C50.1439 75.56 49.8941 75.3625 49.5943 75.3748Z" fill="#F2A83D"/>
<path d="M49.5887 75.696C49.3823 75.7863 49.2784 75.993 49.3566 76.1576C49.4348 76.3221 49.6654 76.3823 49.8719 76.292C50.0783 76.2017 50.1822 75.995 50.104 75.8305C50.0258 75.6659 49.7951 75.6057 49.5887 75.696Z" fill="#FFDE52"/>
<g opacity="0.7">
<path d="M46.7488 78.3167C46.834 77.8487 46.9959 77.3868 47.2396 76.9478C47.3534 76.7433 47.4809 76.5513 47.6203 76.3721C47.9473 75.9512 48.34 75.6017 48.7756 75.3305C48.8755 75.268 48.9778 75.2097 49.0819 75.1558C49.6428 74.8648 50.2605 74.6953 50.8918 74.66C50.8975 74.6598 50.9031 74.6593 50.9086 74.6591C50.9473 74.657 50.9858 74.6553 51.0248 74.6545C51.1018 74.6523 51.1789 74.6523 51.2561 74.6541C51.7799 74.6673 52.3071 74.7734 52.8129 74.9791C52.98 75.0467 53.1451 75.1255 53.3066 75.2152C53.3414 75.2348 53.3758 75.2543 53.4099 75.2746C53.4305 75.2865 53.4509 75.299 53.471 75.3116C53.7172 75.4621 53.9438 75.6333 54.1501 75.8216C54.547 76.1835 54.8681 76.6085 55.1064 77.0723C54.8606 76.5081 54.4975 75.9916 54.028 75.5635C53.8217 75.3752 53.5951 75.2041 53.3489 75.0536C53.3288 75.041 53.3085 75.0285 53.2878 75.0165C53.2537 74.9962 53.2193 74.9768 53.1845 74.9572C53.023 74.8675 52.8579 74.7887 52.6908 74.7211C52.185 74.5154 51.6578 74.4093 51.1339 74.3961C51.0567 74.3943 50.9797 74.3943 50.9027 74.3964C50.8636 74.3973 50.8252 74.3989 50.7865 74.4011C50.7809 74.4012 50.7754 74.4018 50.7697 74.402C50.1384 74.4373 49.5208 74.6068 48.9598 74.8978C48.8557 74.9517 48.7534 75.0099 48.6535 75.0725C48.218 75.3437 47.8252 75.6932 47.4982 76.1141C47.3587 76.2933 47.2313 76.4854 47.1175 76.6898C46.8738 77.1288 46.7119 77.5908 46.6267 78.0588C46.4495 79.0332 46.6056 80.0324 47.0495 80.8975C46.7004 80.0948 46.589 79.1956 46.7488 78.3167Z" fill="white"/>
</g>
<path d="M49.6259 76.3535C49.3911 76.3888 49.1105 76.2774 49.0013 76.0246C48.9468 75.9011 48.9544 75.7532 49.0095 75.6305C49.0669 75.508 49.1673 75.4128 49.2821 75.353C49.5122 75.2349 49.8043 75.2481 50.0114 75.405C50.1142 75.4809 50.1927 75.5955 50.2156 75.7227C50.2382 75.8493 50.2035 75.9817 50.1279 76.076C50.1197 76.087 50.1042 76.0893 50.0932 76.0811C50.0835 76.0739 50.081 76.0601 50.0861 76.0495C50.1915 75.852 50.1083 75.6169 49.9341 75.516C49.7639 75.4095 49.5328 75.4058 49.3585 75.4994C49.1809 75.5883 49.073 75.789 49.137 75.9724C49.1977 76.1569 49.4073 76.2806 49.6233 76.2922C49.6404 76.2931 49.6534 76.3077 49.6525 76.3246C49.6518 76.3394 49.6401 76.3514 49.6259 76.3535Z" fill="#1E3A59"/>
<path d="M50.3809 75.4487C50.4652 75.5466 50.518 75.674 50.5337 75.8071C50.547 75.941 50.5171 76.0785 50.4574 76.1999C50.3351 76.4453 50.0892 76.6063 49.832 76.666C49.5738 76.7248 49.2908 76.6904 49.0649 76.5483C48.9531 76.4779 48.8532 76.3856 48.7852 76.2718C48.7199 76.1572 48.6827 76.026 48.6901 75.8975C48.691 75.8839 48.7027 75.8734 48.7164 75.8742C48.7285 75.8749 48.7381 75.8843 48.7396 75.8959C48.77 76.1338 48.9289 76.3289 49.1317 76.4309C49.3342 76.5347 49.5745 76.5586 49.7943 76.5053C50.0127 76.4529 50.2167 76.3222 50.3296 76.1305C50.4461 75.9417 50.4499 75.6893 50.3305 75.4839C50.322 75.4692 50.327 75.4503 50.3417 75.4418C50.3548 75.4342 50.3715 75.4377 50.3809 75.4487Z" fill="#1E3A59"/>
<path d="M47.7924 77.1964C48.063 77.2145 48.32 77.39 48.4585 77.6344C48.5978 77.8796 48.624 78.1766 48.5613 78.4452C48.4929 78.7128 48.3447 78.9601 48.1305 79.132C47.9197 79.3048 47.6447 79.4045 47.3782 79.3769C47.3612 79.3751 47.3487 79.3598 47.3505 79.3427C47.352 79.328 47.3642 79.3166 47.3783 79.3149C47.6248 79.2857 47.8485 79.1706 48.0187 79.0053C48.1867 78.8389 48.3147 78.6282 48.3612 78.3979C48.416 78.1715 48.3988 77.9272 48.2978 77.7194C48.201 77.5113 48.0126 77.3443 47.7782 77.2718C47.7578 77.2655 47.7464 77.2439 47.7527 77.2234C47.7581 77.206 47.7749 77.1952 47.7924 77.1964Z" fill="#1E3A59"/>
<path d="M46.8699 78.1426C46.7907 78.5355 47.0058 78.9123 47.3506 78.9845C47.6953 79.0565 48.039 78.7965 48.1183 78.4037C48.1976 78.0108 47.9824 77.6339 47.6377 77.5618C47.2929 77.4897 46.9492 77.7498 46.8699 78.1426Z" fill="#F2A83D"/>
<path d="M47.4814 78.9378C47.7082 78.9404 47.9389 78.7861 48.0573 78.5267C48.215 78.1812 48.114 77.78 47.8318 77.6305C47.7919 77.6094 47.7506 77.5945 47.7085 77.5854C47.542 77.6533 47.3927 77.7958 47.3022 77.9937C47.1421 78.3446 47.2241 78.7478 47.4814 78.9378Z" fill="#FFDE52"/>
<path d="M46.8754 77.995C46.9297 77.8538 47.0299 77.7286 47.1576 77.6362C47.2876 77.548 47.4497 77.4956 47.6168 77.5089C47.699 77.5171 47.7819 77.5447 47.857 77.5809C47.9312 77.6211 47.9978 77.6766 48.0508 77.7425C48.1557 77.8755 48.2081 78.0435 48.2045 78.2073C48.1936 78.5339 47.9962 78.8443 47.6983 78.973C47.5512 79.0358 47.3803 79.0546 47.2263 79.0051C47.074 78.9545 46.945 78.8424 46.8833 78.7029C46.8759 78.6875 46.8824 78.6689 46.8979 78.6615C46.9115 78.655 46.9281 78.66 46.9367 78.6718C47.0969 78.9022 47.4059 78.9464 47.6257 78.8205C47.8476 78.7004 48.0022 78.4534 47.999 78.2045C47.9985 78.082 47.9668 77.9593 47.8949 77.8645C47.8589 77.8178 47.8143 77.7784 47.7632 77.749C47.7388 77.7315 47.7088 77.7267 47.6813 77.7161C47.6534 77.7065 47.6264 77.6926 47.596 77.6894C47.3536 77.6491 47.0898 77.8002 46.944 78.0297C46.9325 78.0476 46.9087 78.0529 46.8907 78.0415C46.8749 78.0314 46.8689 78.0118 46.8754 77.995Z" fill="#1E3A59"/>
<path d="M52.7945 78.0726C52.8628 78.4179 52.7691 78.798 52.5436 79.0851C52.3176 79.3724 51.9658 79.5532 51.603 79.5871C51.2394 79.6175 50.8695 79.5133 50.5802 79.2999C50.4365 79.1924 50.3113 79.0621 50.2123 78.915C50.1176 78.7653 50.0457 78.6014 50.0118 78.4302C50.0085 78.4134 50.0195 78.3971 50.0362 78.3937C50.0514 78.3908 50.0661 78.3995 50.0714 78.4134C50.1895 78.7249 50.4054 78.9879 50.6758 79.1607C50.9468 79.3292 51.2695 79.4208 51.5837 79.3825C51.8967 79.3548 52.1968 79.2069 52.4037 78.9689C52.5092 78.852 52.5906 78.7122 52.6411 78.5604C52.6963 78.4094 52.7217 78.2463 52.7181 78.0809C52.7177 78.0596 52.7345 78.042 52.7558 78.0415C52.7749 78.0411 52.791 78.0547 52.7945 78.0726Z" fill="#1E3A59"/>
<path d="M51.5838 78.9698C52.0468 78.8395 52.3136 78.3485 52.1798 77.873C52.046 77.3975 51.5622 77.1177 51.0993 77.248C50.6363 77.3783 50.3695 77.8693 50.5033 78.3448C50.6371 78.8203 51.1209 79.1001 51.5838 78.9698Z" fill="#F2A83D"/>
<path d="M50.5754 78.3861C50.6586 78.6919 50.9336 78.9365 51.2932 78.986C51.772 79.0518 52.2197 78.7468 52.2933 78.3047C52.3038 78.2423 52.3062 78.1804 52.301 78.1201C52.1554 77.9251 51.9258 77.7848 51.6514 77.7469C51.1651 77.6801 50.7077 77.9603 50.5754 78.3861Z" fill="#FFDE52"/>
<path d="M51.486 77.1904C51.6865 77.2111 51.88 77.3036 52.0339 77.4416C52.185 77.5827 52.2955 77.7722 52.3361 77.9815C52.3484 78.0335 52.3476 78.0871 52.3477 78.1408C52.3454 78.1942 52.3523 78.2485 52.3392 78.301C52.3213 78.4065 52.2864 78.511 52.2307 78.6041C52.1211 78.7904 51.9442 78.939 51.7381 79.0058C51.3251 79.1428 50.8479 78.9795 50.6043 78.6348C50.4808 78.466 50.4085 78.2583 50.4133 78.0502C50.4197 77.8437 50.4967 77.6388 50.6372 77.494C50.6488 77.4815 50.6685 77.4809 50.681 77.4926C50.6924 77.5033 50.6936 77.5209 50.6849 77.5333C50.4649 77.8391 50.5071 78.2657 50.7377 78.5312C50.9591 78.8037 51.3492 78.9298 51.6717 78.8113C51.8318 78.7562 51.9724 78.6475 52.0602 78.5032C52.1052 78.4317 52.1338 78.3506 52.1497 78.2671C52.1618 78.2257 52.1548 78.1822 52.158 78.1398C52.1581 78.0971 52.1651 78.054 52.1567 78.0111C52.1131 77.666 51.8308 77.3585 51.4722 77.266C51.4517 77.2608 51.4393 77.2397 51.4446 77.2191C51.4495 77.2003 51.4674 77.1884 51.486 77.1904Z" fill="#1E3A59"/>
<path d="M50.4556 80.6387C50.9997 80.8604 51.4005 81.2292 51.5487 81.6432C51.6365 81.8885 51.6388 82.1416 51.5365 82.3715C51.2615 82.9893 50.3356 83.2052 49.4684 82.8538C49.1248 82.7146 48.8419 82.5072 48.6428 82.2691C48.3392 81.9063 48.2215 81.494 48.3875 81.121C48.4791 80.9151 48.6431 80.7539 48.853 80.6434C48.853 80.6434 49.4834 80.2426 50.4556 80.6387Z" fill="#FFDE52"/>
<path d="M48.4226 81.1374C48.27 81.544 48.4719 81.9723 48.7606 82.2661C49.0494 82.569 49.4392 82.7723 49.8478 82.8667C50.2537 82.9657 50.6992 82.9458 51.0657 82.7569C51.2473 82.6617 51.3995 82.5144 51.4862 82.328C51.5724 82.1429 51.5945 81.922 51.54 81.7177C51.5353 81.7012 51.5449 81.6841 51.5614 81.6795C51.5766 81.6752 51.5924 81.6833 51.5984 81.6973C51.687 81.9102 51.6819 82.1556 51.604 82.3776C51.5211 82.5994 51.3494 82.7825 51.149 82.903C50.7403 83.1459 50.2462 83.161 49.8018 83.0669C49.3564 82.9619 48.9342 82.7354 48.6263 82.3889C48.4765 82.2146 48.3519 82.0136 48.2884 81.7874C48.2287 81.5619 48.2425 81.3098 48.3525 81.1062C48.3623 81.0874 48.3854 81.08 48.4043 81.0897C48.4216 81.0986 48.429 81.1195 48.4226 81.1374Z" fill="#1E3A59"/>
<path d="M51.2054 82.0767C51.3376 81.5773 50.8876 81.0251 50.2005 80.8432C49.5134 80.6614 48.8492 80.9189 48.7171 81.4183C48.5849 81.9177 49.0348 82.4699 49.722 82.6517C50.4091 82.8336 51.0733 82.5761 51.2054 82.0767Z" fill="#F2A83D"/>
<path d="M51.0903 82.2095C51.1573 81.8356 50.7308 81.4463 50.1377 81.3401C49.5446 81.2338 49.0096 81.4509 48.9426 81.8248C48.8756 82.1988 49.3021 82.5881 49.8952 82.6943C50.4883 82.8005 51.0234 82.5835 51.0903 82.2095Z" fill="#FFDE52"/>
<path d="M50.7881 82.55C50.9871 82.4321 51.1286 82.234 51.1417 82.0161C51.1632 81.7996 51.0648 81.5837 50.9227 81.4144C50.635 81.0715 50.1781 80.8694 49.7304 80.8596C49.5076 80.8554 49.2787 80.8978 49.0984 81.0161C48.9169 81.1303 48.7999 81.3255 48.796 81.5387C48.7896 81.7539 48.8974 81.9678 49.0432 82.1413C49.19 82.3187 49.386 82.4543 49.5977 82.5589C49.6132 82.5661 49.6199 82.5846 49.6126 82.6001C49.6059 82.6144 49.5891 82.6209 49.5745 82.6162C49.3432 82.5366 49.1258 82.4065 48.9478 82.2282C48.776 82.0481 48.6362 81.812 48.6271 81.5404C48.6111 81.2683 48.7691 80.9997 48.9925 80.8564C49.2146 80.7059 49.4794 80.6544 49.734 80.6541C49.9906 80.6586 50.2414 80.7241 50.4701 80.8328C50.6976 80.942 50.911 81.0948 51.0654 81.3018C51.2183 81.5047 51.3248 81.7665 51.285 82.0335C51.2446 82.2991 51.0542 82.5207 50.8238 82.6179L50.8226 82.6185C50.8031 82.6268 50.7805 82.6176 50.7722 82.598C50.7647 82.58 50.7718 82.5596 50.7881 82.55Z" fill="#1E3A59"/>
<path d="M51.0205 74.3943C51.0581 74.3943 51.0956 74.3948 51.1332 74.3957C51.657 74.4089 52.1844 74.515 52.6901 74.7208C52.8572 74.7883 53.0223 74.867 53.1839 74.9568C53.2186 74.9763 53.2531 74.9957 53.2872 75.0161C53.3077 75.0281 53.3281 75.0407 53.3482 75.0531C54.8589 75.977 55.6357 77.6723 55.4528 79.344C55.4339 79.5177 55.4041 79.6912 55.3642 79.8638C55.2723 80.26 55.1244 80.6503 54.9167 81.0236C54.1012 82.4911 52.5803 83.3189 51.0127 83.3189C50.2795 83.3189 49.5361 83.1378 48.8497 82.7565C47.1347 81.8035 46.2935 79.8871 46.6262 78.0585C46.7114 77.5903 46.8732 77.1284 47.1169 76.6895C47.4978 76.0046 48.032 75.459 48.653 75.0721C48.7528 75.0096 48.855 74.9513 48.9592 74.8973C49.5201 74.6065 50.1377 74.4369 50.7691 74.4016C50.7747 74.4013 50.7803 74.4009 50.7858 74.4006C50.8245 74.3986 50.8632 74.397 50.9021 74.396C50.9415 74.3948 50.981 74.3943 51.0205 74.3943ZM51.0205 73.8533C50.9762 73.8533 50.9318 73.8539 50.8874 73.855C50.8442 73.8562 50.8004 73.858 50.7568 73.8603L50.7546 73.8605L50.744 73.8611C50.0369 73.9007 49.3353 74.0928 48.7101 74.4171C48.5922 74.4782 48.4763 74.5443 48.3656 74.6137C47.6518 75.0583 47.056 75.6854 46.644 76.4266C46.3767 76.908 46.1915 77.4244 46.0938 77.9616C45.7101 80.0706 46.712 82.1877 48.5868 83.2295C49.3293 83.6419 50.168 83.8599 51.0126 83.8599C52.8303 83.8599 54.5074 82.8738 55.3896 81.2864C55.6171 80.8773 55.786 80.4398 55.8912 79.986C55.9361 79.7923 55.9695 79.5962 55.9906 79.4028C56.2004 77.4852 55.274 75.5967 53.6304 74.5915C53.6096 74.5786 53.5853 74.5638 53.5608 74.5495C53.5261 74.5287 53.4873 74.5066 53.4481 74.4847C53.268 74.3846 53.0815 74.2954 52.8928 74.2191C52.3365 73.9928 51.7486 73.8701 51.1469 73.8549C51.1044 73.8539 51.0624 73.8533 51.0205 73.8533Z" fill="#1E3A59"/>
<path d="M53.976 76.594C54.1922 76.2478 53.9813 75.7258 53.5049 75.4283C53.0285 75.1307 52.467 75.1701 52.2507 75.5164C52.0345 75.8626 52.2453 76.3845 52.7218 76.6821C53.1982 76.9797 53.7597 76.9402 53.976 76.594Z" fill="#F2A83D"/>
<path d="M53.9116 76.2479C54.0511 75.978 53.8171 75.5798 53.389 75.3586C52.9609 75.1373 52.5007 75.1768 52.3612 75.4468C52.2217 75.7167 52.4557 76.1149 52.8838 76.3361C53.3119 76.5574 53.7721 76.5179 53.9116 76.2479Z" fill="#FFDE52"/>
<path d="M52.6707 75.2581C52.4954 75.3036 52.3479 75.4195 52.2915 75.5769C52.2282 75.7309 52.2527 75.9119 52.3204 76.0692C52.4564 76.388 52.7504 76.6433 53.0801 76.7526C53.244 76.8072 53.4228 76.8284 53.5814 76.7831C53.7399 76.7408 53.8674 76.6269 53.9203 76.4733C53.9751 76.3185 53.9461 76.135 53.8789 75.9715C53.8126 75.8044 53.6985 75.6563 53.5658 75.5262C53.5533 75.5144 53.5527 75.4948 53.5644 75.4824C53.575 75.4711 53.5925 75.4699 53.6049 75.4782C53.7638 75.5903 53.8998 75.7394 53.9957 75.9166C54.0858 76.0941 54.1388 76.3083 54.0821 76.5214C54.0309 76.7372 53.8426 76.9092 53.6354 76.9669C53.4273 77.0306 53.2116 77.0075 53.0159 76.9479C52.82 76.8839 52.6439 76.7735 52.4947 76.6362C52.3468 76.4984 52.2191 76.331 52.1509 76.1347C52.0827 75.9421 52.064 75.7148 52.1596 75.518C52.2563 75.3229 52.4575 75.1992 52.6565 75.1826L52.6578 75.1825C52.679 75.1807 52.6976 75.1965 52.6993 75.2177C52.7009 75.2366 52.6884 75.2535 52.6707 75.2581Z" fill="#1E3A59"/>
<path d="M53.287 80.54C53.3523 80.7069 53.4742 80.8348 53.6251 80.9137C53.8986 81.0565 54.2151 80.9874 54.5031 80.7756C54.6922 80.6366 54.862 80.4332 54.9833 80.1806C55.2894 79.5432 55.1705 78.8347 54.7176 78.598C54.5491 78.51 54.3581 78.4997 54.1689 78.5543C53.8496 78.6465 53.5517 78.9308 53.3595 79.3311C53.3595 79.3311 53.0357 79.8972 53.287 80.54Z" fill="#FFDE52"/>
<path d="M53.6446 80.8795C53.9028 80.9865 54.1814 80.8987 54.3977 80.7416C54.6167 80.5839 54.7908 80.3638 54.9012 80.114C55.0221 79.869 55.0764 79.5928 55.0613 79.3227C55.0448 79.0551 54.9378 78.7822 54.705 78.6253C54.6906 78.6159 54.6866 78.5966 54.696 78.5823C54.7042 78.5698 54.7202 78.5653 54.7336 78.5705C54.8756 78.6276 54.9931 78.7401 55.0776 78.8696C55.1598 79.0018 55.2076 79.1523 55.2307 79.3044C55.2747 79.6105 55.2112 79.922 55.0887 80.2009C54.9586 80.4756 54.761 80.7283 54.4957 80.8901C54.3638 80.9692 54.2166 81.0308 54.0592 81.0489C53.9026 81.0643 53.7377 81.0329 53.6091 80.9475C53.5912 80.9361 53.5859 80.9122 53.5974 80.8943C53.6075 80.8785 53.6278 80.8728 53.6446 80.8795Z" fill="#1E3A59"/>
<path d="M54.8358 79.9759C55.0055 79.4663 54.8428 78.9532 54.4724 78.8298C54.102 78.7065 53.6642 79.0197 53.4945 79.5293C53.3248 80.039 53.4875 80.5521 53.8579 80.6754C54.2283 80.7988 54.6661 80.4856 54.8358 79.9759Z" fill="#F2A83D"/>
<path d="M54.8836 79.8643C54.9932 79.4167 54.8533 78.9978 54.571 78.9287C54.2888 78.8596 53.9711 79.1664 53.8615 79.6141C53.7519 80.0617 53.8919 80.4806 54.1741 80.5497C54.4564 80.6188 54.774 80.3119 54.8836 79.8643Z" fill="#FFDE52"/>
<path d="M54.8076 79.1736C54.7254 79.0216 54.5852 78.9116 54.4271 78.8951C54.2708 78.8712 54.1091 78.9345 53.9788 79.0326C53.7144 79.2299 53.5436 79.5597 53.5162 79.8894C53.5021 80.0533 53.5225 80.2235 53.5996 80.3598C53.6738 80.4967 53.8068 80.5886 53.9601 80.6036C54.1151 80.6201 54.2787 80.5527 54.4154 80.454C54.5559 80.3556 54.6679 80.2168 54.7596 80.0647C54.7681 80.0498 54.7871 80.0447 54.802 80.0533C54.8153 80.0609 54.8205 80.0776 54.8154 80.0915C54.7473 80.2648 54.6394 80.4252 54.4961 80.5548C54.3511 80.6789 54.1635 80.7769 53.9513 80.7723C53.7379 80.7734 53.5343 80.636 53.4335 80.4554C53.3269 80.2754 53.2998 80.0688 53.3113 79.8728C53.3269 79.6756 53.3903 79.4865 53.4848 79.3166C53.5801 79.1478 53.7074 78.9909 53.8753 78.8833C54.0398 78.7765 54.248 78.7079 54.4534 78.7532C54.6575 78.7999 54.8181 78.9602 54.8777 79.1422L54.8781 79.1433C54.8847 79.1636 54.8737 79.1853 54.8535 79.1919C54.8355 79.1978 54.8163 79.1897 54.8076 79.1736Z" fill="#1E3A59"/>
<path d="M26.4861 85.4325C26.1258 85.4325 25.8494 85.1502 25.8288 84.7611C25.8042 84.315 25.7826 83.8668 25.7611 83.4186L25.7468 83.1268C25.7408 83.127 25.7346 83.127 25.7286 83.127C25.4391 83.127 25.2655 82.9513 25.1467 82.7983C25.0747 82.7051 25.0029 82.6116 24.9303 82.5162C24.8673 82.5646 24.804 82.6119 24.7398 82.6576C24.6241 82.7411 24.4902 82.7858 24.354 82.7858C24.2323 82.7858 24.1135 82.7514 24.001 82.6837C23.745 82.5326 23.623 82.2347 23.7064 81.9606C23.7445 81.827 23.8317 81.6889 23.9439 81.5867C23.9989 81.5366 24.0553 81.4908 24.112 81.447C24.0768 81.4012 24.042 81.3556 24.0074 81.31L23.9882 81.2836C23.9823 81.2754 23.9765 81.2666 23.9698 81.2588C23.758 81.0345 23.6763 80.7824 23.7283 80.5351L22.2242 80.0483C21.9774 79.965 21.8026 79.7938 21.7417 79.5774C21.6814 79.3628 21.7401 79.1281 21.9031 78.9334C22.2951 78.4628 22.8345 77.8658 23.5287 77.4286C24.1621 77.0308 24.7773 76.8376 25.41 76.8376C25.4562 76.8376 25.5027 76.8386 25.5494 76.8407C25.8326 76.855 26.0804 76.9054 26.3053 76.9942L26.4074 76.8973C26.614 76.7006 26.8277 76.4972 27.059 76.3116C27.8337 75.6877 28.7499 75.3377 29.8595 75.2421C30.0431 75.2262 30.23 75.2183 30.415 75.2183C30.988 75.2183 31.577 75.2953 32.1653 75.4473C32.2523 75.4692 32.3316 75.501 32.4017 75.529C32.4313 75.541 32.461 75.553 32.4909 75.5637C32.5493 75.5846 32.6005 75.6214 32.6391 75.6699C32.6558 75.6911 32.7129 75.7671 32.726 75.7835C32.759 75.8253 32.7817 75.8746 32.7918 75.9271C32.8647 76.3055 32.8239 76.6616 32.7843 77.0061L32.7785 77.057C32.6684 78.0291 32.3723 78.9086 31.8983 79.6711C31.5192 80.2819 31.0335 80.7828 30.455 81.1597C30.3266 81.243 30.1971 81.3229 30.0676 81.4027C29.9898 81.4507 29.9119 81.4988 29.8345 81.5474C29.9166 82.3251 29.6754 83.0468 29.1003 83.7526C28.7113 84.2271 28.2073 84.6287 27.5589 84.9813C27.3287 85.1061 27.0874 85.2278 26.8204 85.3538C26.7107 85.406 26.598 85.4325 26.4861 85.4325ZM27.119 83.6849C27.4184 83.5003 27.656 83.3181 27.8604 83.1187C28.1585 82.8252 28.3446 82.543 28.4439 82.233L27.0721 82.7662C27.0879 83.069 27.1034 83.3752 27.119 83.6849ZM27.4611 79.0663C27.6126 79.0663 27.7562 79.1182 27.8763 79.2165C28.0384 79.3485 28.13 79.5409 28.1264 79.7439C28.1229 79.9526 28.0199 80.1489 27.844 80.2825C27.4719 80.5686 27.0971 80.8554 26.7223 81.1421C26.4878 81.3216 26.2532 81.501 26.0188 81.6806C27.3226 81.2809 28.3006 80.8795 29.1697 80.389C29.5994 80.1464 29.9282 79.9121 30.2039 79.6515C30.5383 79.3333 30.8119 78.9324 31.0377 78.4289C30.9804 78.3558 30.9233 78.281 30.8662 78.2062L30.7573 78.0641C30.3893 77.5818 30.023 77.102 29.653 76.6229C29.3455 76.6669 29.0428 76.7475 28.7437 76.8641C28.2966 77.0374 27.8804 77.3244 27.3934 77.7948C26.943 78.2265 26.5387 78.6942 26.1907 79.1861C25.8796 79.6245 25.575 80.0799 25.2805 80.5205L25.2301 80.5958L25.8253 80.1398C26.2266 79.8316 26.6282 79.5243 27.031 79.2171C27.1627 79.118 27.3109 79.0663 27.4611 79.0663ZM24.4106 79.3469C24.6983 78.9559 24.9828 78.5687 25.2662 78.1824C25.1717 78.1904 25.0786 78.2068 24.9916 78.2308C24.4375 78.3832 23.9879 78.708 23.5919 79.0801L24.4106 79.3469ZM31.4355 76.9571C31.4485 76.8592 31.4585 76.7627 31.4658 76.6667L31.188 76.6332L31.4355 76.9571Z" fill="white"/>
<path d="M32.4485 77.0191C32.4872 76.679 32.5322 76.3353 32.4656 75.9895C32.4359 75.952 32.4085 75.9136 32.3788 75.876C32.2802 75.8406 32.1845 75.7942 32.0822 75.7685C31.3613 75.5822 30.6304 75.5085 29.8878 75.5724C28.9196 75.6559 28.0309 75.9546 27.2667 76.5701C26.9901 76.7921 26.7376 77.0429 26.4795 77.286C26.4102 77.3521 26.357 77.3794 26.2598 77.3351C26.0311 77.231 25.7846 77.1847 25.5343 77.1721C24.863 77.1416 24.264 77.3585 23.7054 77.7092C23.0999 78.0906 22.612 78.6004 22.1576 79.1462C21.964 79.3773 22.0393 79.6352 22.3272 79.7323C22.5089 79.7917 22.6908 79.8499 22.8726 79.9092C23.308 80.0502 23.7425 80.1899 24.1767 80.3308C24.1759 80.3443 24.1771 80.3514 24.1749 80.3579C24.1713 80.3665 24.1676 80.3762 24.1618 80.3845C23.9805 80.6175 24.0245 80.833 24.2155 81.0354C24.2361 81.0579 24.2538 81.0845 24.2717 81.1089C24.3718 81.2404 24.4739 81.3735 24.58 81.5104C24.4353 81.6222 24.2931 81.7172 24.1674 81.8318C24.1038 81.8896 24.0478 81.9737 24.0238 82.0568C23.983 82.1911 24.0525 82.3283 24.1721 82.3988C24.2987 82.475 24.4293 82.4719 24.5472 82.3869C24.6968 82.2804 24.8398 82.165 24.9921 82.0486C25.1359 82.2381 25.2721 82.4174 25.4087 82.5944C25.5655 82.7961 25.6734 82.8306 25.9164 82.7634C25.9607 82.7495 26.0044 82.7401 26.0565 82.7274C26.0601 82.7793 26.0641 82.821 26.0662 82.8601C26.0971 83.4882 26.1256 84.117 26.1602 84.7433C26.1759 85.0402 26.4105 85.1806 26.6786 85.0532C26.9208 84.939 27.1628 84.8179 27.4002 84.6893C27.9474 84.3916 28.4453 84.0271 28.8427 83.5424C29.3399 82.9324 29.615 82.2512 29.4863 81.4462C29.4808 81.4146 29.5072 81.3603 29.5348 81.344C29.7789 81.1867 30.0294 81.0395 30.2736 80.8811C30.8256 80.5213 31.2694 80.0539 31.6162 79.4953C32.088 78.7366 32.3483 77.9036 32.4485 77.0191ZM24.5358 79.7365C24.033 79.5728 23.5117 79.4029 22.9763 79.2286C23.5296 78.6406 24.115 78.1272 24.9035 77.9104C25.2441 77.8168 25.638 77.8248 25.8703 77.9192C25.429 78.5217 24.9866 79.1241 24.5358 79.7365ZM28.7643 82.3205C28.6366 82.7283 28.3925 83.0602 28.0921 83.3563C27.7187 83.7202 27.284 83.9914 26.8139 84.2391C26.7857 83.6617 26.7567 83.0968 26.7282 82.5433C27.4389 82.2669 28.1337 81.9971 28.8323 81.7257C28.8592 81.9181 28.8262 82.1221 28.7643 82.3205ZM31.3885 78.4542C31.1598 78.994 30.8597 79.4854 30.4319 79.8924C30.1017 80.2045 29.7271 80.4552 29.3328 80.6777C28.2634 81.2814 27.1171 81.6978 25.9452 82.0497C25.8879 82.0661 25.853 82.0632 25.8152 82.0107C25.7334 81.8945 25.6419 81.7825 25.5552 81.6678C25.5494 81.6612 25.5475 81.6507 25.5392 81.63C25.5691 81.606 25.6012 81.5823 25.6335 81.5575C26.3023 81.044 26.9743 80.5322 27.6432 80.0177C27.8366 79.8711 27.8449 79.6189 27.6659 79.4732C27.5409 79.371 27.3763 79.3724 27.2321 79.4808C26.8296 79.7878 26.4282 80.0949 26.0267 80.4031C25.7273 80.632 25.4303 80.8601 25.1193 81.0986C25.0124 80.9592 24.9094 80.8318 24.8166 80.6979C24.8008 80.6738 24.8167 80.6135 24.8384 80.5836C25.1949 80.0517 25.5483 79.517 25.9194 78.9941C26.2865 78.4751 26.7035 77.9957 27.1626 77.5558C27.5929 77.14 28.0592 76.773 28.6231 76.5543C28.9845 76.4136 29.3574 76.318 29.7427 76.2767C29.7777 76.2717 29.8284 76.3068 29.8532 76.339C30.2449 76.8456 30.632 77.3527 31.02 77.861C31.1365 78.0121 31.2514 78.1665 31.3716 78.3158C31.4071 78.3611 31.4116 78.3995 31.3885 78.4542ZM31.6208 77.746C31.2338 77.239 30.856 76.7459 30.4774 76.2504C30.478 76.2391 30.4811 76.2259 30.483 76.2136C30.9237 76.2663 31.3654 76.3204 31.8117 76.3739C31.8032 76.8544 31.7323 77.2947 31.6208 77.746Z" fill="#1E3A59"/>
<path d="M31.3719 78.3157C31.2517 78.1663 31.1369 78.012 31.0203 77.8609C30.6323 77.3526 30.2452 76.8455 29.8535 76.3389C29.8287 76.3067 29.778 76.2716 29.743 76.2766C29.3578 76.3179 28.9848 76.4135 28.6234 76.5542C28.0596 76.7729 27.5932 77.1399 27.1629 77.5557C26.7039 77.9956 26.2868 78.4751 25.9197 78.994C25.5486 79.5169 25.1952 80.0516 24.8387 80.5835C24.8171 80.6133 24.8011 80.6737 24.8169 80.6978C24.9098 80.8317 25.0127 80.9591 25.1196 81.0985C25.4307 80.86 25.7277 80.6319 26.027 80.403C26.4286 80.0948 26.8299 79.7876 27.2324 79.4807C27.3766 79.3723 27.5412 79.3708 27.6663 79.473C27.8452 79.6188 27.8369 79.871 27.6435 80.0176C26.9746 80.5321 26.3026 81.0439 25.6338 81.5574C25.6016 81.5822 25.5695 81.6059 25.5396 81.6299C25.5479 81.6506 25.5497 81.6611 25.5555 81.6677C25.6421 81.7824 25.7337 81.8944 25.8156 82.0106C25.8533 82.0631 25.8883 82.0661 25.9455 82.0496C27.1174 81.6977 28.2636 81.2813 29.3331 80.6776C29.7274 80.4551 30.102 80.2044 30.4322 79.8923C30.86 79.4853 31.1602 78.9939 31.3888 78.4541C31.4118 78.3994 31.4073 78.361 31.3719 78.3157ZM30.198 79.0898C29.6867 79.4751 28.9634 79.3809 28.5793 78.8766C28.1928 78.3731 28.2904 77.6503 28.7968 77.2597C29.2941 76.8768 30.0178 76.9756 30.4054 77.4794C30.7889 77.9801 30.6954 78.7138 30.198 79.0898Z" fill="white"/>
<path d="M31.622 77.7453C31.2347 77.239 30.8569 76.7452 30.4785 76.25C30.4797 76.2382 30.4823 76.2259 30.4839 76.2131C30.9247 76.2665 31.3665 76.3202 31.8134 76.3736C31.8049 76.8536 31.7333 77.2942 31.622 77.7453Z" fill="#DB2C2C"/>
<path d="M25.8709 77.9197C25.4289 78.5215 24.9865 79.1243 24.5362 79.7374C24.0326 79.5727 23.5115 79.4033 22.9763 79.2293C23.5301 78.6406 24.1152 78.127 24.9038 77.9109C25.2442 77.8167 25.6376 77.8248 25.8709 77.9197Z" fill="#DB2C2C"/>
<path d="M28.0917 83.3562C27.7184 83.7201 27.2842 83.9918 26.8137 84.2388C26.7852 83.6617 26.7566 83.0969 26.7283 82.5431C27.439 82.2669 28.1336 81.9975 28.8331 81.7251C28.8598 81.918 28.8261 82.1215 28.7647 82.3209C28.6371 82.7286 28.393 83.0603 28.0917 83.3562Z" fill="#DB2C2C"/>
<path d="M30.4066 77.4796C30.019 76.9759 29.2952 76.8771 28.7979 77.2599C28.2915 77.6505 28.194 78.3733 28.5804 78.8769C28.9645 79.3811 29.6878 79.4754 30.1992 79.09C30.6965 78.714 30.7901 77.9803 30.4066 77.4796ZM29.8546 78.6647C29.5955 78.8609 29.2151 78.8092 29.0133 78.5505C28.8046 78.2838 28.8614 77.8917 29.1377 77.6867C29.3965 77.4928 29.7841 77.549 29.979 77.809C30.1826 78.0794 30.1265 78.4591 29.8546 78.6647Z" fill="#1E3A59"/>
<path d="M29.8525 78.6646C29.5935 78.8607 29.2131 78.8091 29.0109 78.55C28.8031 78.2837 28.8595 77.8918 29.1356 77.6868C29.3948 77.4932 29.7821 77.549 29.9768 77.8086C30.1803 78.0793 30.1251 78.4594 29.8525 78.6646Z" fill="#22A7F0"/>
<path d="M37.3562 69.125L41.9333 69.3399L42.4522 97.6896L40.714 98.298L38.889 97.8635L37.6427 97.3185L37.3562 69.125Z" fill="#FEBC04"/>
<g opacity="0.3">
<path d="M59.1874 62.8398V90.3663C59.1874 90.3663 49.4068 93.1169 42.7595 97.3184C42.5578 97.5316 42.3401 97.7127 42.1108 97.8663V93.5753C53.1522 90.5039 57.2643 79.105 57.4156 62.9476L59.1874 62.8398Z" fill="#1E3A59"/>
</g>
<path d="M40.0837 99.4184C39.9899 99.4184 39.8961 99.4155 39.8021 99.4093C38.7003 99.3384 37.7037 98.839 37.0347 98.03C31.2443 94.8361 25.3302 92.5719 19.4543 91.2995C19.0495 91.2119 18.7537 90.8637 18.7327 90.45L17.3574 63.4408C17.3435 63.1665 17.4531 62.9004 17.6565 62.7156C17.8596 62.5309 18.1343 62.447 18.4069 62.487C18.9162 62.5622 30.8261 64.3519 37.3791 68.2077H42.0766C43.4936 67.3302 50.9152 62.9288 59.0537 61.723C59.3178 61.6839 59.5854 61.7617 59.7871 61.9358C59.989 62.11 60.105 62.3634 60.105 62.63V90.3651C60.105 90.7758 59.8318 91.1364 59.4364 91.2476C59.3402 91.2746 49.7944 93.9873 43.3411 98.0363C42.4534 98.9243 41.2849 99.4184 40.0837 99.4184ZM20.5285 89.6603C26.4083 91.0077 32.312 93.3126 38.0866 96.5164C38.2025 96.5807 38.3031 96.6694 38.3814 96.7762C38.7306 97.2527 39.277 97.5381 39.9201 97.5793C40.7125 97.6319 41.5073 97.3049 42.0971 96.6858C42.149 96.6313 42.2074 96.5833 42.271 96.5432C48.0252 92.9054 55.9269 90.3823 58.2712 89.6783V63.7122C50.2039 65.2032 42.9124 69.847 42.8365 69.8957C42.6886 69.9909 42.5165 70.0415 42.3406 70.0415H37.126C36.9582 70.0415 36.7937 69.9955 36.6502 69.9084C31.565 66.8209 22.4073 65.0316 19.2466 64.4833L20.5285 89.6603Z" fill="#1E3A59"/>
<path d="M42.1112 98.2359C42.109 98.2359 42.1069 98.2359 42.1046 98.2357C41.6615 98.2322 41.3053 97.8702 41.3089 97.4271L41.5381 69.1191C41.5416 68.6783 41.9001 68.3232 42.3402 68.3232C42.3424 68.3232 42.3445 68.3232 42.3468 68.3234C42.7899 68.327 43.1461 68.689 43.1425 69.1321L42.9133 97.4401C42.9098 97.8809 42.5512 98.2359 42.1112 98.2359Z" fill="#1E3A59"/>
<path d="M37.9847 98.2349C37.5499 98.2349 37.1927 97.8874 37.183 97.4504L36.5527 69.1423C36.5428 68.6994 36.8939 68.3323 37.3369 68.3225C37.3429 68.3225 37.349 68.3223 37.3551 68.3223C37.7899 68.3223 38.1471 68.6698 38.1568 69.1068L38.7871 97.4148C38.797 97.8578 38.4459 98.2248 38.003 98.2347C37.9969 98.2347 37.9908 98.2349 37.9847 98.2349Z" fill="#1E3A59"/>
<path d="M76.5005 74.9468C73.1311 81.1035 66.2362 83.2788 66.2362 83.2788C66.2362 83.2788 65.8924 84.7114 61.2783 85.6282C57.4252 86.3938 53.7921 83.4026 53.4047 79.1552C53.4024 79.1552 53.4024 79.1529 53.4024 79.1529C53.3245 78.3163 53.3749 77.4315 53.572 76.5169C54.7754 70.9584 59.1878 71.9899 59.1878 71.9899V67.1763L63.371 69.1247C65.8351 66.6033 68.9868 64.4258 68.9868 64.4258C71.0772 64.4281 73.8301 66.5162 75.3888 69.331C76.3355 71.0364 76.8443 73.0099 76.5005 74.9468Z" fill="white"/>
<path d="M60.0648 85.8555C58.7028 85.8555 57.3734 85.4096 56.2268 84.5525C54.5894 83.3286 53.5292 81.4046 53.3078 79.2622H53.2979L53.2957 79.1528C53.2152 78.2954 53.2729 77.3975 53.4677 76.4945C53.8764 74.6063 54.6953 73.2621 55.9014 72.4992C57.2491 71.647 58.6505 71.7891 59.0811 71.8606V67.0085L63.3478 68.9959C65.7832 66.5184 68.8949 64.3595 68.9262 64.3379L68.9537 64.3188L68.9871 64.3189C71.1255 64.3212 73.918 66.4536 75.4825 69.2792C76.2197 70.6072 77.0131 72.672 76.6059 74.9656L76.5944 74.9982C73.396 80.8422 66.961 83.1465 66.3198 83.3637C66.2003 83.6552 65.455 84.9074 61.2992 85.7332C60.8877 85.815 60.4747 85.8555 60.0648 85.8555ZM53.5009 79.0482H53.5026L53.5115 79.1456C53.7049 81.2666 54.7413 83.175 56.355 84.3811C57.7975 85.4591 59.5384 85.8648 61.2577 85.5235C65.7131 84.638 66.1291 83.2662 66.1328 83.2526L66.148 83.1959L66.2043 83.1768C66.2728 83.1553 73.0861 80.9457 76.3984 74.911C76.7876 72.6858 76.0141 70.6774 75.2955 69.383C73.7738 66.6349 71.0827 64.5575 69.0203 64.533C68.7045 64.754 65.7547 66.8387 63.4477 69.1997L63.3947 69.2538L59.295 67.3443V72.1247L59.1637 72.0942C59.1476 72.0901 57.5191 71.7274 56.0131 72.6817C54.8586 73.4131 54.0726 74.7111 53.6768 76.5397C53.4938 77.3885 53.4346 78.2319 53.5009 79.0482Z" fill="#1E3A59"/>
<path d="M60.0906 86.6627C58.1628 86.6627 56.2734 85.8697 54.8474 84.4192C52.8338 82.3712 52.0222 79.3448 52.6763 76.3236C53.1327 74.2154 54.0722 72.6986 55.4686 71.8153C56.4753 71.1785 57.5145 71.0142 58.2713 71.0009V67.1769C58.2713 66.8637 58.4313 66.572 58.6954 66.4038C58.9596 66.2355 59.2914 66.2138 59.5754 66.3457L63.177 68.0234C65.5811 65.6735 68.3423 63.7574 68.466 63.672C68.7053 63.5065 69.0093 63.4647 69.2847 63.5592C74.9967 65.5189 77.8082 69.4794 77.4154 75.0124C77.406 75.1439 77.3684 75.2718 77.3051 75.3876C74.208 81.0465 68.3917 83.4752 66.8731 84.0293C66.3921 84.7245 65.0726 85.8097 61.4574 86.5282C61.0033 86.6185 60.5459 86.6627 60.0906 86.6627ZM58.3753 72.833C57.8727 72.833 57.1289 72.9278 56.4286 73.378C55.474 73.9916 54.8145 75.1132 54.4685 76.7116C53.9456 79.1271 54.576 81.5279 56.1549 83.1337C57.5029 84.505 59.3053 85.0865 61.0998 84.7297C64.6034 84.0336 65.3028 83.0816 65.3728 82.9718C65.4685 82.703 65.685 82.4922 65.9607 82.4051C66.0246 82.3847 72.419 80.2961 75.5989 74.6825C75.851 70.19 73.7323 67.1654 69.1292 65.4509C68.2305 66.1016 65.906 67.8434 64.027 69.7662C63.7551 70.0445 63.337 70.1205 62.9842 69.9566L60.105 68.6156V71.9906C60.105 72.2704 59.9772 72.535 59.758 72.709C59.5387 72.8828 59.2516 72.9469 58.9794 72.8834C58.9765 72.8827 58.7391 72.833 58.3753 72.833ZM65.3459 83.062C65.3458 83.0624 65.3457 83.063 65.3455 83.0634C65.3457 83.063 65.3458 83.0624 65.3459 83.062Z" fill="#1E3A59"/>
<path d="M68.4069 63.7162L71.5896 62.2988L69.5674 65.136C69.2627 65.5635 68.6693 65.663 68.2419 65.3583C67.8144 65.0537 67.7149 64.4602 68.0196 64.0329C68.121 63.8904 68.2582 63.783 68.4069 63.7162Z" fill="#1E3A59"/>
<path d="M63.7919 68.3103C63.902 68.3815 63.9125 68.4051 63.9588 68.4472C63.9958 68.485 64.0264 68.5205 64.0581 68.557C64.1162 68.6281 64.1683 68.6987 64.2138 68.7683C64.3065 68.9079 64.3809 69.0461 64.4466 69.1836C64.5774 69.4585 64.6683 69.7313 64.7389 70.0016C64.8124 70.2707 64.8572 70.5395 64.8958 70.8029L64.938 71.198L64.9615 71.5892L64.7249 71.2823L64.4777 70.9908C64.3063 70.8043 64.1345 70.6253 63.9504 70.4694C63.7693 70.3117 63.5808 70.1718 63.3919 70.0663C63.2978 70.0137 63.2042 69.9686 63.1157 69.9381C63.0712 69.9221 63.0294 69.9115 62.9908 69.9046C62.9732 69.9035 62.9546 69.9012 62.9409 69.903C62.9362 69.9098 62.8953 69.8986 62.9509 69.9399C62.5009 69.7077 62.3244 69.1545 62.5566 68.7046C62.7889 68.2547 63.3419 68.078 63.7919 68.3103Z" fill="#1E3A59"/>
<path d="M65.3776 82.96C65.4597 82.8446 65.5512 82.6859 65.6356 82.5423C65.7204 82.3937 65.8041 82.2428 65.885 82.0896C66.0473 81.7832 66.202 81.4693 66.3459 81.1488C66.6369 80.5085 66.888 79.8433 67.0967 79.1531C67.1928 79.8666 67.2427 80.5985 67.2433 81.3363C67.2452 81.7058 67.2343 82.0766 67.2122 82.45C67.2014 82.6367 67.1868 82.8239 67.1696 83.0125C67.1496 83.2051 67.1339 83.3818 67.0968 83.5979L67.0842 83.6708C66.9953 84.1868 66.505 84.533 65.989 84.4442C65.473 84.3553 65.1267 83.865 65.2156 83.3489C65.2403 83.2054 65.2989 83.0715 65.3776 82.96Z" fill="#1E3A59"/>
<path d="M23.0113 75.9258C23.0113 79.5153 19.2109 81.8098 19.2109 81.8098C12.8135 83.6824 9.63433 77.7595 9.63433 77.7595C9.63433 77.7595 5.56345 75.8983 3.00997 71.8045C2.35213 70.7501 1.79516 69.5467 1.4353 68.1898C4.44716 62.2256 9.25611 60.6601 10.879 60.291C12.7562 62.5694 14.7963 65.5882 14.7963 65.5882C17.242 64.6874 18.3514 64.9235 18.3514 64.9235L18.6265 70.3468C18.6265 70.3468 20.3777 71.1399 21.6682 72.6321C22.4177 73.5007 23.0113 74.6055 23.0113 75.9258Z" fill="white"/>
<path d="M16.7771 83.0929C12.2504 83.0929 9.64211 79.4945 8.98885 78.4649C7.70056 77.8089 2.21484 74.6906 0.548376 68.4258C0.490625 68.2084 0.514607 67.9776 0.615996 67.7767C3.75302 61.5646 8.69548 59.8473 10.6748 59.3972C11.013 59.3207 11.3654 59.4408 11.5858 59.7082C12.993 61.4161 14.4665 63.4987 15.1566 64.4944C17.2688 63.8183 18.3338 63.9828 18.5414 64.0269C18.9478 64.1134 19.2453 64.4623 19.2663 64.8773L19.5145 69.7728C20.7794 70.4715 23.9273 72.5497 23.9273 75.926C23.9273 79.9863 19.8572 82.4902 19.684 82.5948C19.6164 82.6357 19.5437 82.6675 19.4677 82.6898C18.5061 82.9712 17.6092 83.0929 16.7771 83.0929ZM2.41511 68.2902C4.17221 74.194 9.9555 76.8987 10.0148 76.926C10.1969 77.0092 10.3467 77.1497 10.4414 77.3261C10.5561 77.537 13.3236 82.4902 18.8285 80.9653C19.3687 80.6059 22.0936 78.6575 22.0936 75.926C22.0936 72.9772 18.2841 71.1989 18.2456 71.1812C17.9346 71.039 17.7272 70.7347 17.7099 70.3933L17.4791 65.8421C16.9747 65.8974 16.1926 66.0509 15.1123 66.4488C14.7164 66.5943 14.272 66.4513 14.0357 66.1018C14.017 66.074 12.2581 63.4765 10.5385 61.3277C8.79711 61.8399 4.97289 63.4724 2.41511 68.2902Z" fill="#1E3A59"/>
<path d="M9.97053 60.4177C10.0656 60.0059 10.0571 59.5126 9.95585 59.0156C9.90534 58.7665 9.83259 58.5156 9.73726 58.2689C9.64121 58.0223 9.52535 57.7796 9.37183 57.5493C9.62431 57.6628 9.86793 57.8155 10.0991 57.9873C10.3303 58.1601 10.5505 58.3546 10.7575 58.5706C11.1696 59.0033 11.5378 59.5222 11.7866 60.1639L9.97053 60.4177Z" fill="#1E3A59"/>
<path d="M1.43481 69.1842C0.995441 69.1842 0.593686 68.8908 0.47519 68.4461C-0.0548059 66.4564 -0.141999 64.3344 0.216319 62.1394C0.989131 57.3923 4.35822 53.4394 9.95911 50.7086C14.0923 48.6932 17.9514 48.0485 18.1136 48.0221C18.6556 47.9331 19.166 48.3012 19.2542 48.8427C19.3426 49.3844 18.9751 49.8951 18.4335 49.9833C18.288 50.0073 3.79906 52.5005 2.17769 62.4591C1.86491 64.3757 1.93815 66.2178 2.3956 67.9347C2.53678 68.4649 2.22141 69.0093 1.69121 69.1505C1.60556 69.1734 1.51945 69.1842 1.43481 69.1842Z" fill="#1E3A59"/>
<path d="M15.1263 66.4439C15.0723 66.4453 14.9798 66.4638 14.902 66.4789C14.8204 66.4948 14.738 66.5137 14.6549 66.5333C14.4888 66.5727 14.3226 66.6193 14.1558 66.6689C13.8231 66.7705 13.4936 66.8933 13.1695 67.0359C12.8435 67.1767 12.5288 67.3446 12.2211 67.5341C11.9099 67.7212 11.6239 67.9462 11.3398 68.19C11.5002 67.8562 11.6807 67.5176 11.9021 67.205C12.12 66.8894 12.3615 66.5827 12.6271 66.2967C12.8914 66.0086 13.1744 65.7331 13.4755 65.4738C13.6268 65.345 13.7812 65.2179 13.9421 65.0958C14.0227 65.0348 14.1042 64.9739 14.1888 64.9147C14.2767 64.8536 14.3515 64.7996 14.4667 64.7329L15.1263 66.4439Z" fill="#1E3A59"/>
<path d="M18.235 71.1761C18.0244 70.9949 17.7703 70.8058 17.5276 70.629C17.2809 70.4507 17.0284 70.2782 16.77 70.1132C16.2517 69.7863 15.7151 69.4839 15.1208 69.2681C15.7487 69.1791 16.4053 69.1924 17.0538 69.2413C17.3785 69.2672 17.7032 69.3033 18.0281 69.3479C18.3567 69.3949 18.6694 69.4415 19.0161 69.517L19.0575 69.5261C19.5706 69.6379 19.896 70.1445 19.7841 70.6576C19.6723 71.1708 19.1656 71.4961 18.6525 71.3842C18.494 71.3496 18.3503 71.2745 18.235 71.1761Z" fill="#1E3A59"/>
<path d="M8.73486 77.9354C8.73591 77.5301 8.7512 77.151 8.7694 76.7617C8.78849 76.3752 8.81429 75.9897 8.84641 75.6057C8.91216 74.8382 9.0053 74.0723 9.15506 73.3274C9.31121 74.0707 9.5222 74.7904 9.75721 75.5007C9.87558 75.8556 9.99953 76.2077 10.1294 76.5568C10.2589 76.903 10.3951 77.2582 10.5346 77.5838L8.73486 77.9354Z" fill="#1E3A59"/>
<path d="M66.2742 22.3564C66.2742 22.3564 72.6795 24.7364 73.3439 25.9148C74.5758 28.0996 74.4352 40.9897 71.0899 44.3723C69.7801 45.6968 60.1001 46.9905 60.1001 46.9905L66.2742 22.3564Z" fill="white"/>
<path d="M60.1001 46.9919C60.1001 46.9919 69.7801 45.6976 71.0892 44.3728C72.3948 43.0532 73.2136 40.2822 73.6498 37.2662C73.5434 37.3635 70.1412 40.3394 63.2754 34.3815C63.2718 34.378 63.2665 34.3746 63.263 34.3711L60.1001 46.9919Z" fill="#E2E2E2"/>
<path d="M38.6643 35.9927L38.6651 36.1026L38.5947 36.0491L38.6643 35.9927Z" fill="#D8D8D8"/>
<path d="M38.5948 36.0492L38.5251 36.1036L38.5244 35.9937L38.5948 36.0492Z" fill="#D8D8D8"/>
<path d="M17.5664 47.2731C17.5664 47.2731 7.87012 46.1072 6.54357 44.7998C5.22054 43.4977 4.36523 40.7377 3.88902 37.7278C3.88724 37.7261 3.88724 37.7261 3.88724 37.7261C3.14189 33.028 3.31203 27.7167 4.04545 26.3746C4.6939 25.1876 11.067 22.7219 11.067 22.7219L14.2366 34.6953L17.5664 47.2731Z" fill="white"/>
<path d="M17.568 47.2731C17.568 47.2731 7.87172 46.1072 6.54517 44.7998C5.22214 43.4977 4.36683 40.7377 3.89062 37.7278C3.99828 37.8236 7.43968 40.7542 14.226 34.7059C14.2295 34.7024 14.2348 34.6988 14.2382 34.6953L17.568 47.2731Z" fill="#D8D8D8"/>
<path d="M60.0986 47.9848C59.8178 47.9848 59.5474 47.8656 59.3576 47.6531C59.1382 47.4074 59.0547 47.069 59.1348 46.7495L65.3089 22.1155C65.3776 21.8415 65.5598 21.6096 65.8098 21.478C66.0598 21.3462 66.354 21.3275 66.6188 21.4256C69.1383 22.3618 73.4745 24.1266 74.208 25.4275C75.0723 26.9603 75.1844 31.3453 74.9226 34.7708C74.7019 37.6598 74.0022 42.8398 71.7951 45.0717C70.3975 46.485 63.242 47.5736 60.2303 47.9761C60.1864 47.9819 60.1423 47.9848 60.0986 47.9848ZM66.964 23.6862L61.4217 45.7995C65.4882 45.1882 69.7369 44.2778 70.3837 43.6725C71.6492 42.3929 72.6058 39.0078 72.9411 34.6193C73.2632 30.4019 72.8856 27.1654 72.4856 26.4195C72.0723 25.9014 69.4837 24.6803 66.964 23.6862Z" fill="#1E3A59"/>
<path d="M17.5676 48.2669C17.5282 48.2669 17.4886 48.2645 17.4489 48.2598C14.4322 47.8972 7.2629 46.9034 5.84674 45.5088C3.61028 43.3064 2.84191 38.1361 2.583 35.2502C2.27592 31.8285 2.32983 27.4424 3.17374 25.8983C3.88998 24.5878 8.20246 22.7657 10.7093 21.7963C10.973 21.6945 11.2674 21.7095 11.519 21.8378C11.7708 21.9661 11.9559 22.1956 12.0283 22.4687L18.528 47.0188C18.6123 47.3373 18.5334 47.6767 18.3173 47.9252C18.1273 48.1437 17.8531 48.2669 17.5676 48.2669ZM4.90912 26.8673C4.51914 27.6186 4.18431 30.8598 4.56237 35.0727C4.95563 39.4564 5.9571 42.8284 7.24119 44.0929C7.89441 44.688 12.1547 45.5419 16.2287 46.0992L10.3941 24.0613C7.8879 25.0886 5.31553 26.3439 4.90912 26.8673Z" fill="#1E3A59"/>
<path d="M38.7213 60.241C55.0821 60.241 68.3452 46.9779 68.3452 30.6171C68.3452 14.2562 55.0821 0.993164 38.7213 0.993164C22.3605 0.993164 9.09741 14.2562 9.09741 30.6171C9.09741 46.9779 22.3605 60.241 38.7213 60.241Z" fill="white"/>
<path d="M68.3462 30.4207C68.4545 46.7813 55.2799 60.1316 38.9193 60.24C22.5587 60.3483 9.20642 47.1737 9.09808 30.8131C9.08663 29.0857 9.22297 27.391 9.49777 25.7438C11.9935 39.6739 24.2189 50.2023 38.8521 50.1054C53.4854 50.0085 65.5683 39.3191 67.8794 25.3572C68.176 27.0005 68.3347 28.6933 68.3462 30.4207Z" fill="#D8D8D8"/>
<path d="M38.7191 60.9531C22.0843 60.9531 8.49805 47.4779 8.38764 30.8186C8.27687 14.0919 21.7949 0.393605 38.5215 0.282914C38.5903 0.282429 38.6595 0.282227 38.7282 0.282227C46.7542 0.282227 54.3118 3.38233 60.0303 9.02561C65.7978 14.7171 69.0035 22.314 69.0573 30.4167C69.168 47.1434 55.65 60.8417 38.9234 60.9524C38.8559 60.9529 38.7864 60.9531 38.7191 60.9531ZM38.7256 1.70531C38.6605 1.70531 38.5961 1.70551 38.531 1.70592C22.5889 1.81147 9.70508 14.8671 9.81064 30.8092C9.86188 38.5318 12.9173 45.7722 18.4141 51.1968C23.911 56.6213 31.2002 59.5779 38.9139 59.5294C46.6365 59.4783 53.8769 56.4228 59.3015 50.926C64.7261 45.429 67.6854 38.1487 67.6342 30.4262C67.5289 14.5493 54.5786 1.70531 38.7256 1.70531Z" fill="#1E3A59"/>
<path d="M38.7191 60.9531C22.0843 60.9531 8.49805 47.4779 8.38764 30.8186C8.27687 14.0919 21.7949 0.393605 38.5215 0.282914C38.5903 0.282429 38.6595 0.282227 38.7282 0.282227C46.7542 0.282227 54.3118 3.38233 60.0303 9.02561C65.7978 14.7171 69.0035 22.314 69.0573 30.4167C69.168 47.1434 55.65 60.8417 38.9234 60.9524C38.8559 60.9529 38.7864 60.9531 38.7191 60.9531ZM38.7256 1.70531C38.6605 1.70531 38.5961 1.70551 38.531 1.70592C22.5889 1.81147 9.70508 14.8671 9.81064 30.8092C9.86188 38.5318 12.9173 45.7722 18.4141 51.1968C23.911 56.6213 31.2002 59.5779 38.9139 59.5294C46.6365 59.4783 53.8769 56.4228 59.3015 50.926C64.7261 45.429 67.6854 38.1487 67.6342 30.4262C67.5289 14.5493 54.5786 1.70531 38.7256 1.70531Z" fill="#1E3A59"/>
<path d="M38.7191 60.9531C22.0843 60.9531 8.49805 47.4779 8.38764 30.8186C8.27687 14.0919 21.7949 0.393605 38.5215 0.282914C38.5903 0.282429 38.6595 0.282227 38.7282 0.282227C46.7542 0.282227 54.3118 3.38233 60.0303 9.02561C65.7978 14.7171 69.0035 22.314 69.0573 30.4167C69.168 47.1434 55.65 60.8417 38.9234 60.9524C38.8559 60.9529 38.7864 60.9531 38.7191 60.9531ZM38.7256 1.70531C38.6605 1.70531 38.5961 1.70551 38.531 1.70592C22.5889 1.81147 9.70508 14.8671 9.81064 30.8092C9.86188 38.5318 12.9173 45.7722 18.4141 51.1968C23.911 56.6213 31.2002 59.5779 38.9139 59.5294C46.6365 59.4783 53.8769 56.4228 59.3015 50.926C64.7261 45.429 67.6854 38.1487 67.6342 30.4262C67.5289 14.5493 54.5786 1.70531 38.7256 1.70531Z" fill="#1E3A59"/>
<path d="M38.7181 61.2342C24.8557 61.2346 12.7212 51.9344 9.14387 38.5479C9.13744 38.5286 9.13162 38.509 9.1264 38.4893C8.46537 36.0064 8.12145 33.426 8.10418 30.8199C8.09658 29.6652 8.15405 28.5108 8.27481 27.3889C9.89606 11.8798 22.8979 0.104058 38.5179 0.00068745C38.5866 0.000202142 38.6565 0 38.7251 0C54.2594 0 67.3084 11.5714 69.1243 26.9974C69.2579 28.1197 69.3296 29.2698 69.3371 30.4143C69.3543 33.0166 69.0457 35.601 68.4197 38.0955C68.4145 38.1166 68.4085 38.1373 68.4019 38.1577C64.982 51.6551 52.8689 61.141 38.9235 61.2336C38.8552 61.234 38.7862 61.2342 38.7181 61.2342ZM11.0534 37.9959C14.4014 50.5951 25.8646 59.3301 38.9102 59.2463C51.9651 59.1598 63.3025 50.2711 66.4859 37.6286C66.4919 37.6031 66.4989 37.5781 66.5068 37.5534C67.0822 35.2392 67.3658 32.8421 67.3499 30.4275C67.3428 29.3568 67.2757 28.2814 67.1507 27.2311C65.4529 12.8074 53.2496 1.98729 38.7248 1.98729C38.6599 1.98729 38.5962 1.9875 38.5311 1.9879C23.925 2.08468 11.7672 13.0949 10.251 27.5987C10.138 28.6489 10.0844 29.7273 10.0916 30.8068C10.1076 33.2252 10.4239 35.6188 11.0319 37.922C11.04 37.9462 11.0472 37.9709 11.0534 37.9959Z" fill="#1E3A59"/>
<path d="M10.0849 23.7324C10.0084 23.7324 9.93079 23.72 9.85468 23.694C9.50142 23.5732 9.30168 23.1999 9.39704 22.8389C12.8822 9.6478 24.8585 0.371755 38.5213 0.281205C38.588 0.28072 38.6563 0.280518 38.723 0.280518C52.3123 0.280518 64.3112 9.37833 67.9476 22.4678C68.0477 22.8275 67.8526 23.2033 67.5009 23.3286C67.149 23.4541 66.7603 23.2859 66.6105 22.9441C61.8592 12.1113 50.84 5.16037 38.5543 5.24566C26.2702 5.32703 15.3524 12.4131 10.74 23.2984C10.6258 23.568 10.3632 23.7324 10.0849 23.7324ZM38.723 1.70364C38.6586 1.70364 38.5951 1.70384 38.5307 1.70425C28.9486 1.76774 20.2369 6.57136 14.9796 14.1135C20.8256 7.72813 29.318 3.88372 38.5448 3.8227C38.6186 3.82221 38.6944 3.82189 38.7681 3.82189C47.9138 3.82189 56.3676 7.5461 62.2493 13.8058C56.9293 6.38067 48.2342 1.70364 38.723 1.70364Z" fill="#1E3A59"/>
<path d="M68.3434 30.4217C68.3604 32.9857 68.052 35.4787 67.4559 37.8545C67.4559 37.8545 67.4531 37.8545 67.4531 37.8572C62.3801 47.8197 51.5227 56.4346 38.8922 56.5183C26.2617 56.6019 15.2939 48.1315 10.0893 38.2372C10.0893 38.2344 10.0865 38.2344 10.0865 38.2344C9.45627 35.8667 9.11482 33.378 9.09783 30.814C9.09039 29.6931 9.14536 28.5853 9.26268 27.4961C13.1858 16.4121 24.7994 8.3342 38.5725 8.24297C52.3482 8.15173 64.0706 16.0805 68.1374 27.1142C68.2664 28.1992 68.336 29.3034 68.3434 30.4217Z" fill="#0056A8"/>
<g opacity="0.35">
<path d="M68.3443 30.4226C68.3613 32.9867 68.0529 35.4797 67.4567 37.8555C67.4567 37.8555 67.454 37.8556 67.454 37.8583C62.3809 47.8207 51.5236 56.4352 38.8931 56.5189C26.2627 56.6025 15.2948 48.1326 10.0901 38.2382C10.0901 38.2355 10.0875 38.2355 10.0875 38.2355C9.71258 36.8246 9.44032 35.3724 9.27612 33.8843C15.9671 41.3022 25.6607 46.6668 36.4122 46.5956C50.1094 46.5049 61.9804 37.6156 68.0832 26.9722C68.1025 27.0208 68.1217 27.0667 68.1383 27.1153C68.2673 28.2002 68.3369 29.3044 68.3443 30.4226Z" fill="#111A28"/>
</g>
<g opacity="0.5">
<path d="M63.992 30.2979C64.4359 27.4079 63.098 24.8043 61.0039 24.4827C58.9097 24.1611 56.8522 26.2432 56.4084 29.1332C55.9645 32.0232 57.3024 34.6267 59.3966 34.9483C61.4907 35.2699 63.5482 33.1879 63.992 30.2979Z" fill="white"/>
</g>
<g opacity="0.5">
<path d="M57.7847 40.9177C58.1697 39.632 57.5874 38.3219 56.4841 37.9914C55.3808 37.661 54.1742 38.4354 53.7892 39.7211C53.4042 41.0068 53.9865 42.3169 55.0898 42.6474C56.1931 42.9778 57.3997 42.2034 57.7847 40.9177Z" fill="white"/>
</g>
<g opacity="0.5">
<path d="M15.9001 41.3521C15.9001 41.3521 10.4196 25.4083 18.9132 18.7678C27.4068 12.1273 39.875 11.818 39.6049 12.6254C39.6049 12.6254 25.8923 16.3378 20.785 27.3947C16.8467 35.9209 15.9001 41.3521 15.9001 41.3521Z" fill="white"/>
</g>
<path d="M35.5019 68.5904C35.1221 68.5904 34.8142 68.2826 34.8142 67.9028V62.6308C34.8142 62.251 35.1222 61.9431 35.5019 61.9431C35.8816 61.9431 36.1896 62.2511 36.1896 62.6308V67.9028C36.1896 68.2826 35.8816 68.5904 35.5019 68.5904Z" fill="#1E3A59"/>
<g opacity="0.3">
<path d="M76.4464 74.4516C73.0769 80.6084 66.1821 82.7836 66.1821 82.7836C66.1821 82.7836 65.8382 84.2162 61.2241 85.1331C57.371 85.8986 53.7379 82.9074 53.3506 78.66C56.9951 84.285 64.8962 82.0776 65.8955 75.8109C72.1233 71.9142 74.1084 67.7883 74.1084 67.7883L75.3346 68.8358C76.2813 70.5412 76.7902 72.5147 76.4464 74.4516Z" fill="#1E3A59"/>
</g>
<g opacity="0.3">
<path d="M42.9055 96.755C42.8574 96.7848 42.8092 96.8146 42.7611 96.8444C42.5594 97.0576 42.3416 97.2386 42.1124 97.3922C40.6087 98.4077 38.6283 98.1899 37.6427 96.8444C31.816 93.6124 25.8243 91.2676 19.6493 89.929L19.4521 86.0667C37.2485 92.7873 35.5041 68.793 35.5041 68.793L36.3224 68.1902C36.5998 68.3392 36.8679 68.495 37.127 68.6509H37.4273C37.5602 70.9591 37.8765 76.4557 38.3303 84.3911C38.9423 95.0863 42.1124 83.9327 42.1124 83.9327L42.9055 96.755Z" fill="#1E3A59"/>
</g>
<g opacity="0.3">
<path d="M23.266 75.6213C23.266 79.2108 19.4657 81.5053 19.4657 81.5053C13.0682 83.378 9.88902 77.455 9.88902 77.455C9.88902 77.455 5.81813 75.5938 3.26465 71.5C8.65811 75.9239 9.88671 71.9722 9.88671 71.9722C13.3273 79.612 22.1956 80.2606 21.9228 72.3275C22.6724 73.1962 23.266 74.301 23.266 75.6213Z" fill="#1E3A59"/>
</g>
<g opacity="0.3">
<path d="M19.4284 86.0846L19.2061 81.7043C20.0496 81.1107 20.6249 80.7004 20.6799 80.6477C20.9091 80.4322 22.6741 77.7595 22.6741 77.7595L23.011 75.9258C23.011 75.9258 26.243 82.2201 19.4284 86.0846Z" fill="#1E3A59"/>
</g>
<g opacity="0.3">
<path d="M14.988 65.9922C17.2839 67.1644 17.7386 68.3366 16.3521 69.5088H18.2734L17.5927 65.2664" fill="#1E3A59"/>
</g>
<g opacity="0.3">
<path d="M78.2883 68.5912C78.1874 70.418 77.7932 72.0455 77.2018 73.4827L76.1863 71.234L74.1624 68.2841C74.1624 68.2841 76.9153 61.6712 70.2932 56.3442C75.054 59.4179 78.561 63.6424 78.2883 68.5912Z" fill="#1E3A59"/>
</g>
<g opacity="0.3">
<path d="M57.3137 58.886C57.3137 58.886 63.8823 68.2022 69.2713 64.194L64.1665 68.6644L59.1883 67.1768L59.8759 63.9678" fill="#1E3A59"/>
</g>
<g opacity="0.3">
<path d="M19.9036 58.5959C19.9036 58.5959 15.0069 59.2008 12.6575 61.842L14.2246 64.7598L17.2418 64.4261L18.9084 61.8421" fill="#1E3A59"/>
</g>
<path d="M39.7901 118.8C39.7608 118.8 39.7314 118.799 39.7017 118.796C39.1977 118.748 38.8281 118.3 38.8763 117.796C39.5292 110.968 37.167 101.402 34.3975 99.4212C32.8901 99.4384 25.3553 99.5697 19.0948 100.489C18.9296 102.18 18.7474 107.139 21.1645 113.845C21.3362 114.322 21.0892 114.847 20.6129 115.019C20.1366 115.191 19.6112 114.944 19.4394 114.467C16.2616 105.651 17.3263 99.7621 17.3733 99.5156C17.4455 99.1359 17.7484 98.8421 18.1302 98.7814C25.3366 97.6377 34.5666 97.5854 34.6589 97.585C34.6603 97.585 34.6616 97.585 34.6629 97.585C34.8247 97.585 34.9836 97.6278 35.1235 97.709C38.9581 99.937 41.3958 110.712 40.7017 117.97C40.6563 118.445 40.2571 118.8 39.7901 118.8Z" fill="#1E3A59"/>
<path d="M18.3168 100.603L14.1863 99.8783L18.2312 98.7713C18.7316 98.6344 19.2484 98.9291 19.3854 99.4296C19.5224 99.9301 19.2277 100.447 18.7271 100.584C18.5904 100.621 18.4479 100.626 18.3168 100.603Z" fill="#1E3A59"/>
<path d="M27.2882 112.616C27.5142 112.361 27.7467 112.079 27.9727 111.804C28.1998 111.526 28.425 111.246 28.6482 110.963C29.0942 110.397 29.5327 109.822 29.9635 109.238C29.8114 109.947 29.6478 110.656 29.4722 111.365C29.384 111.72 29.2928 112.074 29.198 112.429C29.1016 112.785 29.0075 113.133 28.8949 113.5L28.8906 113.514C28.7385 114.01 28.2129 114.289 27.7168 114.137C27.2207 113.985 26.9419 113.459 27.094 112.963C27.1342 112.832 27.2035 112.713 27.2882 112.616Z" fill="#1E3A59"/>
<path d="M24.6642 99.7288C24.4197 99.5528 24.2182 99.3901 24.0053 99.2153C23.7958 99.0431 23.5918 98.8665 23.3906 98.6882C22.9892 98.33 22.6036 97.9576 22.2338 97.5728C21.8624 97.1904 21.514 96.7861 21.1835 96.3734C20.8523 95.9613 20.5545 95.5241 20.2791 95.0833C20.6725 95.427 21.0736 95.7498 21.4981 96.0399C21.9217 96.3303 22.3522 96.6034 22.798 96.8501C23.2419 97.0988 23.6932 97.3299 24.1509 97.5422C24.3802 97.6473 24.6099 97.7497 24.8409 97.8455C25.0678 97.9399 25.3117 98.0374 25.5203 98.1072L24.6642 99.7288Z" fill="#1E3A59"/>
<path d="M42.7822 112.943C42.9355 112.579 43.0853 112.182 43.2274 111.794C43.3703 111.404 43.5074 111.01 43.6381 110.612C43.9015 109.818 44.1381 109.012 44.3473 108.193C44.4431 109.032 44.5097 109.882 44.5466 110.736C44.5661 111.163 44.5784 111.591 44.5839 112.021C44.5888 112.454 44.5908 112.875 44.5754 113.326L42.7822 112.943Z" fill="#1E3A59"/>
<path d="M50.6226 98.9745C50.6003 98.9759 50.6332 98.9842 50.6468 98.9902C50.6613 98.9975 50.6888 99.0018 50.7099 99.0079C50.7535 99.021 50.8043 99.0288 50.8551 99.0376C50.9559 99.0551 51.0651 99.066 51.1747 99.0703C51.2852 99.0749 51.3977 99.0772 51.5117 99.0677C51.6265 99.0662 51.7407 99.0488 51.8568 99.0329C52.3209 98.9653 52.7891 98.8067 53.242 98.5837L53.578 98.4024C53.6891 98.3385 53.7927 98.2622 53.902 98.1917C54.1257 98.056 54.3185 97.8783 54.5288 97.7147C54.7315 97.5433 54.916 97.3499 55.1141 97.1645L55.6541 96.5544L55.3001 97.2984C55.1596 97.5345 55.0293 97.783 54.874 98.0164C54.7101 98.2429 54.5599 98.4869 54.3669 98.6983C54.2732 98.8063 54.184 98.9208 54.0837 99.0252L53.7717 99.3321C53.3388 99.7276 52.8419 100.082 52.2745 100.343C52.1323 100.407 51.9889 100.473 51.8374 100.522C51.6887 100.578 51.5341 100.622 51.3763 100.662C51.2182 100.702 51.0569 100.734 50.8876 100.756C50.8031 100.767 50.7188 100.779 50.6273 100.782C50.5809 100.785 50.5406 100.789 50.488 100.788C50.4343 100.787 50.3996 100.791 50.3105 100.782L50.6226 98.9745Z" fill="#1E3A59"/>
<g opacity="0.3">
<path d="M6.39446 102.37C6.47118 103.494 6.71214 104.637 7.15708 105.786C11.2073 116.254 28.0913 111.441 28.0913 111.441C29.2374 117.552 34.9678 118.317 38.7315 116.788C42.4952 115.26 43.678 111.517 43.678 111.517C43.678 111.517 57.3553 116.713 63.5441 114.726C67.9531 113.31 70.9635 109.606 71.2918 105.135C71.199 103.813 70.8793 102.444 70.2945 101.061C69.3204 98.7578 67.8098 96.2571 66.2374 93.9558C71.3008 107.67 65.0065 113.059 53.406 109.238L44.9204 107.461C44.9204 107.461 41.2529 115.77 38.8462 105.341L37.6703 102.888C39.5912 116.744 32.5817 116.712 29.3016 110.663L30.3079 108.435C19.7274 108.607 6.12107 112.678 7.8425 97.0067C6.90048 99.0395 6.2955 101.271 6.37477 103.589C6.36073 103.179 6.36765 102.773 6.39446 102.37Z" fill="#1E3A59"/>
</g>
<g opacity="0.3">
<path d="M63.0857 90.4997C55.3497 92.9637 54.6067 98.7455 59.3868 102.785L47.0225 98.9187C51.4345 98.5143 55.246 97.6352 53.406 92.2897L59.1891 90.3659L59.5902 86.5457L60.7936 86.9468" fill="#1E3A59"/>
</g>
<g opacity="0.3">
<path d="M15.2927 99.8991C17.5758 99.1469 19.5071 97.9126 19.4507 93.9558C19.4507 93.9558 23.3726 98.0703 30.3637 97.8663L20.2782 99.4016" fill="#1E3A59"/>
</g>
</svg>
