<svg width="161" height="161" viewBox="0 0 161 161" fill="none" xmlns="http://www.w3.org/2000/svg">
<circle cx="80.3955" cy="80.1504" r="77.5" fill="white" stroke="black" stroke-width="5"/>
<path d="M67.3743 118.95H93.8158C99.216 118.95 103.594 114.572 103.594 109.172V84.8395C103.594 79.4393 99.216 75.0615 93.8158 75.0615H67.3743C61.9741 75.0615 57.5963 79.4393 57.5963 84.8395V109.172C57.5963 114.572 61.9741 118.95 67.3743 118.95Z" fill="white"/>
<path d="M67.3745 119.702H93.816C99.623 119.702 104.347 114.978 104.347 109.171V84.8388C104.347 79.0319 99.623 74.3076 93.816 74.3076H67.3745C61.5675 74.3076 56.8433 79.0319 56.8433 84.8388V109.171C56.8433 114.978 61.5675 119.702 67.3745 119.702ZM93.816 75.814C98.7923 75.814 102.841 79.8625 102.841 84.8388V109.171C102.841 114.148 98.7923 118.196 93.816 118.196H67.3745C62.3982 118.196 58.3498 114.148 58.3498 109.171V84.8388C58.3498 79.8625 62.3982 75.814 67.3745 75.814H93.816Z" fill="#1E3A59"/>
<path d="M96.6118 79.5654C103.212 83.9075 109.388 90.4793 110.983 96.7731C111.313 98.0755 111.022 99.4544 110.231 100.541C107.486 104.315 104.169 107.973 100.489 111.556L97.5812 99.5353L100.489 96.6271L96.224 90.8107L96.6118 79.5654Z" fill="black"/>
<path d="M100.489 112.137C100.638 112.137 100.785 112.08 100.895 111.972C104.909 108.063 108.117 104.435 110.701 100.883C111.607 99.6368 111.915 98.0867 111.546 96.6298C109.767 89.6084 102.83 82.9599 96.9308 79.0791C96.755 78.9636 96.5307 78.9518 96.344 79.0484C96.1572 79.1449 96.0371 79.3348 96.03 79.545L95.6423 90.7902C95.6377 90.9207 95.6772 91.0489 95.7545 91.1542L99.7249 96.5683L97.1693 99.1237C97.0261 99.267 96.9676 99.4746 97.0154 99.6718L99.9237 111.693C99.9728 111.896 100.127 112.057 100.328 112.115C100.381 112.13 100.435 112.137 100.489 112.137ZM97.1563 80.635C102.667 84.4534 108.806 90.5522 110.418 96.9155C110.703 98.0364 110.463 99.2329 109.76 100.198C107.373 103.48 104.441 106.831 100.813 110.422L98.2229 99.7154L100.9 97.038C101.103 96.835 101.128 96.5143 100.958 96.2828L96.8119 90.6288L97.1563 80.635Z" fill="#1E3A59"/>
<path d="M100.333 97.6052L102.822 95.3096C102.939 95.2015 102.947 95.0188 102.839 94.9016C102.742 94.7966 102.585 94.7797 102.469 94.8549L102.428 94.8819L99.5439 96.75C99.2723 96.9259 99.1948 97.2887 99.3707 97.5602C99.5466 97.8318 99.9094 97.9093 100.181 97.7334C100.208 97.7156 100.234 97.696 100.257 97.6747L100.333 97.6052Z" fill="#1E3A59"/>
<g opacity="0.2">
<path d="M99.0248 87.9941C99.4651 89.9855 100.289 91.8913 101.438 93.5764C101.73 94.0056 102.053 94.4444 102.122 94.9594C102.219 95.6872 101.654 96.472 100.92 96.5072C100.367 96.5337 99.8655 96.1731 99.5091 95.7497C98.7258 94.8196 98.4342 93.5538 98.463 92.3382C98.4918 91.1225 98.8123 89.935 99.1306 88.7614" fill="#371A45"/>
</g>
<g opacity="0.2">
<path d="M109.807 94.197C109.975 95.678 109.543 97.1841 108.802 98.4771C108.061 99.7702 107.024 100.87 105.92 101.872C104.92 102.78 103.798 103.646 102.471 103.894C101.143 104.143 99.5766 103.584 99.0766 102.329C99.5003 105.055 100.353 107.714 101.594 110.177C104.556 107.817 106.923 104.807 109.261 101.828C110.236 100.584 111.26 99.2064 111.245 97.6257C111.234 96.3133 110.502 95.1297 109.795 94.0239" fill="#371A45"/>
</g>
<path d="M64.7226 79.5654C58.1226 83.9075 51.9465 90.4793 50.3515 96.7731C50.0215 98.0755 50.3128 99.4544 51.1031 100.541C53.8487 104.315 57.1655 107.973 60.8449 111.556L63.7532 99.5353L60.8449 96.6271L65.1104 90.8107L64.7226 79.5654Z" fill="black"/>
<path d="M60.8449 112.137C60.8987 112.137 60.9528 112.13 61.006 112.115C61.2068 112.057 61.3611 111.896 61.4102 111.693L64.3184 99.6717C64.3663 99.4746 64.3078 99.267 64.1645 99.1236L61.6089 96.5683L65.5794 91.1542C65.6566 91.0489 65.6961 90.9206 65.6915 90.7902L65.3037 79.545C65.2965 79.3348 65.1764 79.1449 64.9896 79.0483C64.8028 78.9518 64.5782 78.9636 64.4028 79.079C58.5041 82.9599 51.5671 89.6083 49.7876 96.6298C49.4185 98.0867 49.7265 99.6368 50.6326 100.883C53.2175 104.436 56.4254 108.063 60.439 111.972C60.5492 112.08 60.6954 112.137 60.8449 112.137ZM63.111 99.7154L60.5207 110.422C56.8937 106.832 53.9611 103.48 51.5734 100.198C50.8713 99.2329 50.6313 98.0363 50.9152 96.9155C52.528 90.5522 58.6667 84.4534 64.1774 80.635L64.522 90.6288L60.3758 96.2828C60.206 96.5143 60.2307 96.8351 60.4335 97.0381L63.111 99.7154Z" fill="#1E3A59"/>
<path d="M61.7897 96.75L59.3001 94.4544C59.1829 94.3463 59.0002 94.3537 58.8921 94.4709C58.7953 94.5758 58.7911 94.7333 58.8755 94.8426L58.9058 94.882L61.001 97.6052C61.1983 97.8617 61.5662 97.9096 61.8226 97.7123C62.0791 97.515 62.127 97.1471 61.9297 96.8907C61.9098 96.8648 61.8881 96.841 61.865 96.8194L61.7897 96.75Z" fill="#1E3A59"/>
<g opacity="0.2">
<path d="M62.3093 87.9941C61.869 89.9855 61.0453 91.8913 59.8965 93.5764C59.6039 94.0056 59.2807 94.4444 59.2121 94.9594C59.1153 95.6872 59.6806 96.472 60.414 96.5072C60.9668 96.5337 61.4686 96.1731 61.8251 95.7497C62.6083 94.8196 62.8999 93.5538 62.8711 92.3382C62.8423 91.1225 62.5218 89.935 62.2035 88.7614" fill="#371A45"/>
</g>
<g opacity="0.2">
<path d="M51.5274 94.197C51.3597 95.678 51.7915 97.1841 52.5326 98.4771C53.2738 99.7702 54.3105 100.87 55.4141 101.872C56.4142 102.78 57.5361 103.646 58.8636 103.894C60.1911 104.143 61.7578 103.584 62.2578 102.329C61.8341 105.055 60.9811 107.714 59.74 110.177C56.778 107.817 54.4116 104.807 52.0739 101.828C51.0982 100.584 50.0746 99.2064 50.0889 97.6257C50.1008 96.3133 50.8322 95.1297 51.5392 94.0239" fill="#371A45"/>
</g>
<path d="M86.4559 132.354C86.5792 132.354 86.7041 132.32 86.8163 132.25C90.1521 130.154 95.0264 131.084 95.0751 131.094C95.4438 131.167 95.7998 130.928 95.8723 130.56C95.9449 130.192 95.7056 129.835 95.338 129.763C95.1168 129.719 89.8812 128.722 86.0943 131.1C85.7769 131.3 85.6813 131.719 85.8806 132.036C86.0095 132.241 86.2302 132.354 86.4559 132.354Z" fill="#371A45"/>
<path d="M61.2846 135.858C61.2947 135.959 61.0643 139.835 71.4089 139.447C75.7941 139.283 78.7769 138.444 79.8438 136.137C80.8017 134.069 80.6643 125.98 80.6643 125.98V112.972H80.6784V125.98C80.6784 125.98 80.541 134.069 81.4968 136.137C82.5638 138.444 85.0595 139.283 89.4447 139.447C99.7893 139.835 100.048 135.959 100.056 135.858C100.43 132.149 95.2061 130.428 95.2061 130.428C95.2061 130.428 97.6412 121.174 98.4798 113.293C98.8173 110.112 98.9386 106.887 98.8961 103.696C98.8698 101.609 98.7749 99.5375 98.6253 97.5025C98.3323 93.4912 97.8331 89.6294 97.2492 86.097C96.6692 82.5848 96.0064 79.3979 95.3799 76.7123C94.9232 74.7541 94.4867 73.0606 94.1189 71.7027C93.4804 69.3605 93.0418 68.0146 93.0418 68.0146H68.3008C68.3008 68.0146 68.02 68.8755 67.5814 70.4174C67.0601 72.2543 66.3144 75.0572 65.5525 78.5249C64.4128 83.7023 63.2386 90.3649 62.7173 97.5045C62.7052 97.6864 62.691 97.8683 62.6789 98.0502C62.5516 99.9114 62.4687 101.801 62.4445 103.704C62.4021 106.891 62.5233 110.117 62.8608 113.293C63.6994 121.174 66.1346 130.428 66.1346 130.428C66.1346 130.428 60.9107 132.15 61.2846 135.858Z" fill="white"/>
<path d="M65.2019 79.4091C64.5815 81.4754 64.0838 83.5733 63.6444 85.6845C63.2061 87.7961 62.8568 89.9268 62.5749 92.0676L62.4659 92.87C62.4311 93.1377 62.4041 93.4064 62.3728 93.6746L62.1945 95.285C62.0939 96.3608 61.9989 97.4372 61.9351 98.5165C61.8546 99.5944 61.8169 100.676 61.7724 101.756L61.7445 103.379C61.7412 103.649 61.7335 103.919 61.7337 104.19L61.7408 105.001C61.7542 109.326 62.1031 113.671 62.8095 117.935C63.1557 120.068 63.5626 122.187 64.0091 124.297C64.4577 126.408 64.9388 128.502 65.4791 130.601L65.923 129.784C65.6206 129.889 65.3695 129.994 65.1016 130.112C64.8387 130.23 64.5805 130.357 64.3263 130.493C63.818 130.765 63.3253 131.075 62.8597 131.437C62.3948 131.798 61.9554 132.213 61.5806 132.703C61.2018 133.187 60.9035 133.764 60.7305 134.386C60.6563 134.7 60.596 135.022 60.5934 135.345C60.5825 135.507 60.5948 135.666 60.6039 135.825L60.6075 135.885C60.6085 135.903 60.6106 135.93 60.6094 135.931C60.6093 135.94 60.6081 135.936 60.6095 135.957L60.6152 136.03C60.6209 136.129 60.638 136.219 60.6555 136.31C60.8022 137.033 61.2175 137.604 61.6798 138.048L62.0425 138.361C62.1687 138.452 62.2995 138.533 62.4286 138.619C62.6835 138.804 62.9595 138.912 63.2276 139.051C63.7714 139.291 64.3262 139.483 64.884 139.614L65.302 139.723L65.7212 139.798L66.5599 139.943L67.3978 140.029C67.677 140.056 67.9569 140.093 68.2348 140.097L69.0698 140.13C69.3481 140.142 69.6268 140.156 69.9031 140.147C70.4569 140.137 71.0109 140.136 71.5645 140.119C72.67 140.073 73.7818 139.984 74.8968 139.794C75.4541 139.703 76.0118 139.57 76.5666 139.41C77.1209 139.24 77.6708 139.023 78.2032 138.741C78.7317 138.449 79.2376 138.077 79.6643 137.61C79.8821 137.38 80.0643 137.117 80.2329 136.848L80.4573 136.428C80.5171 136.276 80.5729 136.122 80.6285 135.969C80.8075 135.376 80.9075 134.816 80.9833 134.258C81.0212 133.98 81.0595 133.701 81.0839 133.425C81.1124 133.148 81.1413 132.871 81.16 132.596C81.3295 130.392 81.3621 128.206 81.3432 126.015L81.3426 112.972L80.6641 113.651H80.6776L79.9991 112.972L79.9988 125.996C79.9793 128.182 80.0119 130.366 80.1794 132.566C80.1982 132.841 80.2256 133.117 80.2546 133.394C80.2792 133.669 80.3154 133.947 80.354 134.225C80.4268 134.781 80.5303 135.343 80.6993 135.93L80.8687 136.389C80.9341 136.533 81.0094 136.666 81.0804 136.804C81.236 137.072 81.4063 137.337 81.6118 137.575C82.0129 138.058 82.5064 138.458 83.0317 138.767C84.0937 139.378 85.2356 139.658 86.3484 139.847C87.4664 140.024 88.5752 140.1 89.6798 140.129C91.8835 140.199 94.1245 140.117 96.345 139.543C97.4461 139.241 98.563 138.807 99.5263 137.995L99.8656 137.656C99.9798 137.546 100.072 137.403 100.174 137.276C100.277 137.15 100.353 136.991 100.44 136.848C100.48 136.773 100.512 136.69 100.548 136.611L100.599 136.49L100.64 136.359L100.679 136.228C100.69 136.181 100.699 136.131 100.709 136.083C100.719 136.035 100.726 135.984 100.731 135.932L100.739 135.811C100.749 135.652 100.759 135.494 100.748 135.332C100.744 135.009 100.684 134.688 100.608 134.375C100.434 133.755 100.135 133.179 99.7559 132.697C99.3813 132.208 98.942 131.795 98.4778 131.433C98.0127 131.073 97.5207 130.763 97.0132 130.491C96.7592 130.356 96.5014 130.229 96.2389 130.112C95.9715 129.993 95.7207 129.888 95.4187 129.784L95.8625 130.601C96.4099 128.475 96.8964 126.353 97.35 124.215C97.8008 122.078 98.2135 119.931 98.558 117.769C98.7283 116.688 98.8872 115.604 99.02 114.515C99.1607 113.426 99.2459 112.332 99.3458 111.238C99.3937 110.692 99.4139 110.144 99.4493 109.596C99.4819 109.049 99.5163 108.501 99.5256 107.953L99.5726 106.309L99.5767 104.666L99.5769 103.844L99.5569 103.023C99.5419 102.475 99.5338 101.927 99.5131 101.38C99.4587 100.287 99.4165 99.1926 99.331 98.1016C99.1905 95.9172 98.9841 93.7382 98.7268 91.5662C98.4698 89.3938 98.1166 87.2343 97.6773 85.0939C97.2334 82.9545 96.7077 80.832 96.0014 78.7565C95.9609 78.6374 95.8315 78.5737 95.7124 78.6143C95.6107 78.6489 95.5494 78.7487 95.559 78.8513C95.7633 81.0292 96.0758 83.1758 96.3823 85.3208C96.6961 87.4643 97.009 89.6047 97.2903 91.7488C97.4425 92.8196 97.5607 93.8939 97.6883 94.9676C97.7912 96.0433 97.9034 97.1187 97.9751 98.1968C98.0636 99.274 98.1022 100.353 98.1569 101.432C98.1773 101.972 98.1852 102.511 98.2 103.051L98.2198 103.86L98.2196 104.67L98.2156 106.288L98.1693 107.905C98.1604 108.445 98.1264 108.983 98.0943 109.521C98.0595 110.059 98.0398 110.598 97.9926 111.134C97.8944 112.207 97.8111 113.281 97.6729 114.35C97.5425 115.419 97.3859 116.488 97.218 117.555C96.8779 119.689 96.4692 121.815 96.0222 123.934C95.5736 126.05 95.0873 128.169 94.5501 130.256L94.3931 130.866L94.994 131.073C95.2052 131.146 95.4567 131.249 95.6852 131.351C95.9184 131.455 96.1481 131.568 96.373 131.688C96.8227 131.928 97.2525 132.2 97.6453 132.505C98.4325 133.11 99.0653 133.875 99.2974 134.728C99.3466 134.942 99.3907 135.158 99.3915 135.379C99.4005 135.489 99.3916 135.601 99.3851 135.713L99.3808 135.796C99.3792 135.811 99.3775 135.827 99.3725 135.846L99.3617 135.9L99.3413 135.964L99.3228 136.028L99.293 136.094C99.272 136.138 99.2578 136.183 99.2334 136.227L99.155 136.359C99.1306 136.404 99.1051 136.448 99.0687 136.489C98.998 136.571 98.9472 136.664 98.8642 136.74L98.6276 136.978C97.9233 137.573 96.9752 137.969 95.991 138.233C93.9993 138.75 91.8495 138.844 89.7212 138.773C88.656 138.745 87.5931 138.67 86.5658 138.507C85.5445 138.336 84.5438 138.075 83.717 137.596C83.308 137.354 82.9479 137.059 82.6552 136.707C82.5042 136.535 82.3808 136.339 82.2637 136.139C82.2121 136.036 82.1521 135.932 82.1053 135.83L81.9943 135.524C81.8647 135.068 81.765 134.559 81.6984 134.039C81.6623 133.779 81.6282 133.519 81.6046 133.253C81.5769 132.99 81.5506 132.726 81.5324 132.459C81.3698 130.328 81.3364 128.165 81.356 126.009L81.3564 112.972V112.293H80.6778H80.6642H79.9855L79.9856 112.972L79.9862 126.029C80.0052 128.186 79.9717 130.354 79.8073 132.488C79.7892 132.755 79.7614 133.019 79.7343 133.283C79.7108 133.549 79.6747 133.809 79.6395 134.069C79.5707 134.589 79.4724 135.102 79.3379 135.549L79.2266 135.856L79.0662 136.155C78.9445 136.344 78.8189 136.532 78.6603 136.696C78.3532 137.032 77.976 137.316 77.5531 137.55C77.1231 137.776 76.6593 137.962 76.1736 138.111C75.684 138.252 75.1825 138.373 74.666 138.456C73.6366 138.633 72.5759 138.719 71.509 138.763C70.9758 138.779 70.442 138.78 69.9086 138.789C69.6411 138.799 69.3765 138.785 69.1115 138.774L68.3166 138.742C68.0502 138.739 67.7905 138.703 67.5284 138.678L66.7436 138.598L65.9751 138.465L65.5915 138.397L65.2203 138.299C64.2306 138.057 63.2729 137.666 62.6119 137.062C62.2951 136.76 62.055 136.399 61.9873 136.048C61.9791 136.005 61.9691 135.962 61.9685 135.925L61.9654 135.897L61.9622 135.821L61.9573 135.723C61.9517 135.611 61.9407 135.498 61.95 135.388C61.9495 135.167 61.9944 134.951 62.042 134.736C62.2731 133.881 62.9044 133.114 63.693 132.508C64.0861 132.203 64.5165 131.93 64.9668 131.689C65.192 131.569 65.4221 131.456 65.6555 131.351C65.8843 131.249 66.1362 131.146 66.3478 131.073L66.9486 130.866L66.7917 130.256C66.2614 128.196 65.7805 126.105 65.3368 124.015C64.8942 121.924 64.4911 119.825 64.1493 117.719C63.8083 115.611 63.5327 113.502 63.3727 111.381C63.2205 109.259 63.1209 107.131 63.1459 105.001L63.1476 104.202C63.1505 103.936 63.161 103.669 63.1673 103.403L63.2125 101.806C63.2719 100.741 63.3017 99.6762 63.3865 98.613C63.5271 96.4855 63.7336 94.3614 63.9713 92.2397C64.0828 91.1779 64.2308 90.1201 64.3561 89.0588L64.5706 87.47C64.634 86.9389 64.713 86.41 64.7858 85.88C65.0708 83.7586 65.3839 81.6388 65.6447 79.5022C65.66 79.3777 65.5714 79.2645 65.447 79.2492C65.3355 79.2354 65.2331 79.3052 65.2019 79.4091Z" fill="#1E3A59"/>
<path d="M87.2988 112.643C87.2988 112.643 84.6109 113.844 80.6714 113.844C76.7318 113.844 74.0302 112.643 74.0302 112.643C74.0302 112.643 75.8154 111.233 80.6714 111.233C85.5273 111.233 87.2988 112.643 87.2988 112.643Z" fill="white"/>
<g opacity="0.3">
<path d="M61.2851 135.882C61.2949 135.981 61.5497 139.832 71.8293 139.447C76.1868 139.283 78.665 138.449 79.7264 136.156C80.0981 135.351 80.3041 133.626 80.4161 131.826L80.5119 126.022L80.6758 131.826C80.7878 133.626 80.9939 135.351 81.3656 136.156C82.427 138.449 84.9052 139.283 89.2627 139.447C99.5423 139.832 99.7971 135.981 99.8068 135.882C99.8604 135.348 99.7971 134.854 99.651 134.403C99.2794 135.015 98.1693 135.896 94.9105 136.344C89.6214 137.07 83.9412 136.424 82.9771 132.907C82.2517 130.26 81.0572 117.135 85.0772 115.418C91.293 112.761 93.5748 110.626 91.8464 110.282C90.9684 110.106 88.6539 110.835 80.546 110.835C72.4381 110.835 70.1236 110.106 69.2456 110.282C67.5172 110.626 69.799 112.761 76.0148 115.418C80.0348 117.135 78.8403 130.26 78.1148 132.907C77.1508 136.424 71.4706 137.07 66.1815 136.344C62.9227 135.896 61.8126 135.015 61.441 134.403C61.2949 134.854 61.2316 135.348 61.2851 135.882Z" fill="#1E3A59"/>
</g>
<path d="M66.2667 131.094C66.5848 131.009 66.9556 130.931 67.3092 130.871C67.6673 130.808 68.0295 130.758 68.3932 130.719C69.1208 130.641 69.8555 130.613 70.5912 130.636C71.3276 130.659 72.0595 130.758 72.785 130.914C73.5097 131.077 74.2094 131.34 74.8867 131.675C74.2699 131.244 73.6008 130.868 72.8858 130.59C72.1707 130.319 71.4273 130.101 70.668 129.962C69.9091 129.822 69.1383 129.736 68.363 129.701C67.9753 129.685 67.5865 129.679 67.1964 129.689C67.0014 129.692 66.8057 129.7 66.6094 129.711C66.4098 129.724 66.2224 129.737 66.0039 129.762C65.6306 129.807 65.3638 130.145 65.408 130.518C65.4522 130.892 65.7907 131.158 66.1639 131.114C66.1956 131.11 66.2266 131.105 66.2566 131.097L66.2667 131.094Z" fill="#1E3A59"/>
<path d="M95.2605 129.762C95.0421 129.737 94.8546 129.724 94.6551 129.711C94.4588 129.7 94.2631 129.692 94.0681 129.689C93.6779 129.679 93.2891 129.685 92.9015 129.701C92.1262 129.736 91.3553 129.822 90.5965 129.962C89.8372 130.101 89.0938 130.319 88.3786 130.59C87.6636 130.868 86.9945 131.244 86.3777 131.675C87.055 131.34 87.7547 131.077 88.4795 130.914C89.2049 130.758 89.9369 130.659 90.6732 130.636C91.409 130.613 92.1436 130.641 92.8713 130.719C93.235 130.758 93.5972 130.808 93.9552 130.871C94.3088 130.931 94.6797 131.009 94.9977 131.094L95.0042 131.096C95.3672 131.193 95.7405 130.978 95.8379 130.615C95.9353 130.252 95.72 129.878 95.3569 129.781C95.3261 129.773 95.2913 129.766 95.2605 129.762Z" fill="#1E3A59"/>
<path d="M89.4097 120.407C92.1979 120.407 95.2807 119.923 98.1041 118.409C98.3699 118.266 98.4697 117.935 98.327 117.669C98.1847 117.404 97.8541 117.304 97.5878 117.446C90.3718 121.317 80.9482 117.905 80.8537 117.87C80.5714 117.765 80.2568 117.91 80.1522 118.192C80.0474 118.475 80.1913 118.789 80.474 118.894C80.7289 118.989 84.637 120.407 89.4097 120.407Z" fill="#371A45"/>
<path d="M71.925 120.407C76.6983 120.407 80.6059 118.989 80.8607 118.894C81.1434 118.789 81.2874 118.475 81.1826 118.192C81.0779 117.91 80.7633 117.765 80.481 117.87C80.3867 117.905 70.9629 121.318 63.747 117.446C63.4803 117.304 63.1499 117.404 63.0077 117.669C62.865 117.935 62.9649 118.266 63.2306 118.409C66.0535 119.923 69.137 120.407 71.925 120.407Z" fill="#371A45"/>
<path d="M88.293 112.539C86.9698 112.777 85.6812 112.947 84.3938 113.074C83.1072 113.196 81.8268 113.26 80.5466 113.263C79.2665 113.257 77.9861 113.193 76.6995 113.07C75.4121 112.943 74.1234 112.773 72.7992 112.539C73.074 112.737 73.3693 112.903 73.6683 113.061C73.9677 113.218 74.2755 113.359 74.5879 113.487C75.2133 113.743 75.858 113.955 76.5147 114.121C77.8283 114.451 79.1869 114.616 80.5461 114.62C81.9054 114.615 83.264 114.451 84.5778 114.121C85.2344 113.955 85.8793 113.744 86.5046 113.487C86.8172 113.359 87.1248 113.218 87.4241 113.061C87.7231 112.903 88.0183 112.737 88.293 112.539Z" fill="#371A45"/>
<path d="M57.4472 115.239C63.5196 119.718 70.7572 122.109 79.162 122.413L80.6724 120.147L80.7131 120.087L82.2642 122.413C90.669 122.109 97.9066 119.718 103.979 115.239C103.919 115.144 103.861 115.051 103.805 114.956C98.7558 106.802 97.5421 97.697 99.132 87.902L97.1932 78.9834L64.0392 78.7896L62.2943 87.902C63.9016 97.8114 62.6413 107.013 57.4472 115.239Z" fill="black"/>
<path d="M92.3462 77.0444L88.6624 88.4835L80.8091 94.474L74.7029 89.8407L69.6619 78.2077L92.3462 77.0444Z" fill="white"/>
<g opacity="0.25">
<path d="M92.3462 77.0444L88.6624 88.4835L80.8091 94.474L74.7029 89.8407L69.6619 78.2077L92.3462 77.0444Z" fill="#1E3A59"/>
</g>
<path d="M84.6874 81.6009L81.9731 85.4785H79.6465L76.3505 81.2131L79.4526 79.856L84.8813 80.0498L84.6874 81.6009Z" fill="#6ADDFF"/>
<path d="M81.9732 85.4785L84.106 91.6828L80.6161 94.3971L77.5119 91.5075L79.6467 85.4785H81.9732Z" fill="#6ADDFF"/>
<path d="M79.6467 85.9634H81.9733C82.1315 85.9634 82.2797 85.8861 82.3703 85.7566L85.0846 81.879C85.13 81.8142 85.1587 81.7395 85.1684 81.6611L85.3625 80.1101C85.3794 79.9751 85.3387 79.8393 85.2507 79.7357C85.1624 79.6321 85.0347 79.5705 84.8989 79.5656L79.4702 79.3716C79.3981 79.368 79.3253 79.3829 79.2587 79.4119L76.1565 80.7691C76.0196 80.829 75.918 80.9485 75.881 81.0933C75.844 81.2379 75.8759 81.3916 75.9671 81.5096L79.2632 85.775C79.3549 85.8938 79.4967 85.9634 79.6467 85.9634ZM81.721 84.9939H79.8846L77.1139 81.4084L79.5459 80.3444L84.3348 80.5155L84.2216 81.4216L81.721 84.9939Z" fill="#1E3A59"/>
<g opacity="0.2">
<path d="M57.564 114.956C58.3376 115.53 59.1383 116.067 59.974 116.552C62.6127 118.082 65.6256 119.075 68.6735 118.964C71.7213 118.854 74.7924 117.547 76.6692 115.143C78.2552 113.111 78.8891 110.48 79.0384 107.907C79.2943 103.481 78.2086 98.9863 75.9615 95.163C74.2534 92.2586 71.8803 89.7498 69.0845 87.8691L70.8721 88.8967C73.0513 89.9883 75.2306 91.0798 77.4098 92.1714C78.5731 92.753 79.8081 93.4045 80.4189 94.5523C80.5313 94.7639 80.6172 94.9849 80.6842 95.212C80.7513 94.9849 80.8372 94.7639 80.9496 94.5523C81.5604 93.4045 82.7954 92.753 83.9587 92.1714C86.1379 91.0798 88.3172 89.9883 90.4964 88.8967L92.284 87.8691C89.4883 89.7498 87.1151 92.2586 85.407 95.163C83.1599 98.9863 82.0742 103.481 82.3301 107.907C82.4794 110.48 83.1134 113.111 84.6994 115.143C86.5761 117.547 89.6473 118.854 92.6951 118.964C95.7429 119.075 98.7558 118.082 101.395 116.552C102.23 116.067 103.031 115.53 103.805 114.956C103.861 115.052 103.919 115.145 103.979 115.24C97.9066 119.718 90.669 122.109 82.2642 122.413L80.7131 120.087L80.699 120.107C80.6978 120.12 80.6973 120.134 80.6961 120.147L80.6842 120.129L80.6724 120.147C80.6712 120.134 80.6707 120.12 80.6695 120.107L80.6554 120.087L79.1043 122.413C70.6995 122.109 63.4619 119.718 57.3895 115.24C57.4496 115.145 57.5077 115.051 57.564 114.956Z" fill="#1E3A59"/>
</g>
<path d="M80.6163 94.8817C80.7212 94.8817 80.8262 94.8479 80.9139 94.7796L84.4036 92.0652C84.5672 91.9381 84.6318 91.721 84.5645 91.525L82.4319 85.3208C82.3646 85.1251 82.1803 84.9937 81.9734 84.9937H79.6468C79.4414 84.9937 79.2584 85.123 79.1899 85.3166L77.0551 91.3455C76.9907 91.5275 77.0404 91.7305 77.1818 91.8621L80.2861 94.7518C80.3787 94.838 80.4974 94.8817 80.6163 94.8817ZM83.5351 91.5126L80.6444 93.761L78.0751 91.3693L79.9894 85.9631H81.6275L83.5351 91.5126Z" fill="#1E3A59"/>
<path d="M90.8779 78.8042L84.6881 84.7033L81.586 79.4685L90.8779 78.8042Z" fill="white"/>
<path d="M84.6873 85.1879C84.8111 85.1879 84.931 85.1405 85.0216 85.054L91.2114 79.1548C91.3595 79.0138 91.4031 78.7949 91.3205 78.6079C91.2379 78.4208 91.0432 78.3064 90.8425 78.3205L81.5506 78.9848C81.3831 78.9968 81.2336 79.0947 81.1558 79.2435C81.0779 79.3923 81.0826 79.5709 81.1681 79.7153L84.2702 84.9502C84.3456 85.0773 84.4747 85.163 84.6209 85.1833C84.6432 85.1863 84.6653 85.1879 84.6873 85.1879ZM89.5664 79.3836L84.7938 83.9321L82.4021 79.8958L89.5664 79.3836Z" fill="#1E3A59"/>
<path d="M70.7281 78.8042L76.9179 84.7033L80.02 79.4685L70.7281 78.8042Z" fill="white"/>
<path d="M76.9181 85.1878C76.9402 85.1878 76.9622 85.1863 76.9845 85.1832C77.1307 85.163 77.2598 85.0772 77.3352 84.9502L80.4372 79.7153C80.5228 79.5709 80.5275 79.3923 80.4496 79.2434C80.3718 79.0947 80.2223 78.9968 80.0548 78.9848L70.7628 78.3205C70.5617 78.3065 70.3679 78.4208 70.2849 78.6079C70.2023 78.7949 70.2459 79.0138 70.3939 79.1548L76.5838 85.054C76.6744 85.1405 76.7944 85.1878 76.9181 85.1878ZM79.2033 79.8958L76.8116 83.9321L72.039 79.3836L79.2033 79.8958Z" fill="#1E3A59"/>
<path d="M99.0354 84.5089L96.7088 81.6007C97.4979 80.6352 98.8396 80.1544 100.393 79.8558C99.2564 78.6285 97.7655 77.5757 96.0283 76.6451C95.2081 76.203 94.3318 75.7881 93.4128 75.3965L90.3339 76.013C90.0121 78.3803 89.4692 80.6022 88.715 82.6865C87.0341 87.3222 84.3042 91.2696 80.6165 94.5909C86.592 90.9652 92.7342 87.6072 99.0354 84.5089Z" fill="black"/>
<path d="M80.6168 95.1727C80.7199 95.1728 80.8242 95.1453 80.9182 95.0883C86.8099 91.513 92.9917 88.1293 99.2918 85.0311C99.45 84.9532 99.5643 84.8078 99.6028 84.6357C99.6412 84.4637 99.5995 84.2835 99.4893 84.1457L97.4821 81.6368C98.1118 81.0876 99.0875 80.6987 100.502 80.4272C100.71 80.3872 100.879 80.2381 100.945 80.0373C101.011 79.8366 100.963 79.6159 100.819 79.4609C99.2401 77.7541 96.892 76.2498 93.641 74.8616C93.5328 74.8155 93.4131 74.8032 93.2984 74.8263L90.2202 75.4429C89.9771 75.4916 89.7915 75.6891 89.758 75.9348C88.7663 83.2235 85.5598 89.355 80.2271 94.1589C80.004 94.3597 79.9705 94.6972 80.1497 94.9381C80.2632 95.0907 80.4384 95.1727 80.6168 95.1727ZM98.1291 84.3077C93.3438 86.679 88.6292 89.2131 84.0611 91.8686C87.7031 87.5387 89.9817 82.3888 90.8524 76.5027L93.3493 76.0025C95.8852 77.0991 97.8212 78.2584 99.2289 79.5262C98.1751 79.8163 97.0143 80.3088 96.2584 81.2325C96.0846 81.4449 96.0829 81.7499 96.2543 81.9643L98.1291 84.3077Z" fill="#1E3A59"/>
<g opacity="0.25">
<path d="M88.7146 82.6865C91.6499 81.4107 94.2092 79.2799 96.0278 76.6451C95.2077 76.203 94.3314 75.7881 93.4123 75.3965L90.3335 76.013C90.0116 78.3803 89.4688 80.6022 88.7146 82.6865Z" fill="#371A45"/>
</g>
<path d="M62.1973 84.5089L64.524 81.6007C63.7348 80.6352 62.3932 80.1544 60.8402 79.8558C61.9763 78.6285 63.4673 77.5757 65.2045 76.6451C66.0246 76.203 66.901 75.7881 67.82 75.3965L70.8988 76.013C71.2207 78.3803 71.7636 80.6022 72.5177 82.6865C74.1987 87.3222 76.9285 91.2696 80.6162 94.5909C74.6407 90.9652 68.4985 87.6072 62.1973 84.5089Z" fill="black"/>
<path d="M80.6163 95.1727C80.7946 95.1727 80.9699 95.0907 81.0834 94.938C81.2624 94.6972 81.2288 94.3597 81.0059 94.1588C75.6732 89.355 72.4665 83.2236 71.4748 75.9347C71.4413 75.6891 71.2558 75.4915 71.0127 75.4428L67.9345 74.8262C67.8199 74.8033 67.7002 74.8155 67.5919 74.8616C64.3408 76.2498 61.9927 77.7542 60.4134 79.4608C60.27 79.6159 60.2218 79.8365 60.2878 80.0373C60.3537 80.2381 60.5232 80.3872 60.7308 80.4271C62.1454 80.6986 63.1211 81.0876 63.7507 81.6368L61.7435 84.1457C61.6334 84.2835 61.5916 84.4637 61.6301 84.6357C61.6685 84.8078 61.7829 84.9532 61.941 85.0311C68.2408 88.1291 74.4226 91.5129 80.3149 95.0882C80.4089 95.1453 80.5131 95.1727 80.6163 95.1727ZM70.3804 76.5026C71.2511 82.3888 73.5298 87.5387 77.1718 91.8686C72.6037 89.2131 67.8889 86.6789 63.1038 84.3077L64.9786 81.9642C65.15 81.7499 65.1483 81.4449 64.9746 81.2325C64.2186 80.3088 63.0579 79.8163 62.004 79.5262C63.4117 78.2584 65.3477 77.0991 67.8836 76.0024L70.3804 76.5026Z" fill="#1E3A59"/>
<g opacity="0.25">
<path d="M72.5176 82.6865C69.5822 81.4107 67.0229 79.2799 65.2043 76.6451C66.0245 76.203 66.9008 75.7881 67.8198 75.3965L70.8987 76.013C71.2205 78.3803 71.7634 80.6022 72.5176 82.6865Z" fill="#371A45"/>
</g>
<path d="M52.311 58.9375C52.6318 58.9564 52.9056 58.7017 52.9225 58.3687L53.8044 41.0001C53.8213 40.6671 53.5749 40.3818 53.2541 40.3629C49.8886 40.1647 47.0165 42.8362 46.8391 46.3299L46.5384 52.2527C46.361 55.7464 48.9455 58.7392 52.311 58.9375Z" fill="white"/>
<path d="M52.3448 59.1055C52.525 59.1055 52.6971 59.0394 52.8339 58.9169C52.9879 58.7791 53.0785 58.5874 53.0892 58.3772L53.9711 41.0086C53.9926 40.5849 53.6755 40.2205 53.2639 40.1963C51.6337 40.0999 50.0574 40.6556 48.8247 41.76C47.527 42.9227 46.7626 44.5427 46.6723 46.3215L46.3716 52.2443C46.1899 55.8234 48.8501 58.9006 52.3012 59.1042C52.3158 59.1051 52.3303 59.1055 52.3448 59.1055ZM52.9029 40.5196C53.0164 40.5196 53.1302 40.523 53.2444 40.5297C53.4735 40.5431 53.6499 40.7505 53.6375 40.9917L52.7556 58.3603C52.7495 58.4808 52.6982 58.5902 52.6111 58.6682C52.5303 58.7406 52.4283 58.777 52.3207 58.7708C49.0518 58.5784 46.5327 55.6582 46.7052 52.2612L47.0058 46.3385C47.0915 44.6493 47.8166 43.1115 49.0474 42.0087C50.1269 41.0417 51.4848 40.5196 52.9029 40.5196Z" fill="#371A45"/>
<g opacity="0.25">
<path d="M46.6792 49.4751L46.5376 52.2529C46.3607 55.7454 48.945 58.7389 52.3111 58.9384C52.6318 58.9577 52.9055 58.7012 52.9228 58.3684L53.1587 53.7512C53.0579 53.9564 52.8476 54.0898 52.612 54.0778L52.2153 54.0533C49.5557 53.8973 47.3825 51.9941 46.6792 49.4751Z" fill="#1E3A59"/>
</g>
<path d="M52.3452 59.6173C52.6514 59.6173 52.9436 59.5055 53.1749 59.2983C53.4313 59.0686 53.5821 58.7509 53.5997 58.4034L54.4817 41.0348C54.5176 40.3316 53.9844 39.7264 53.2937 39.6858C51.5271 39.5822 49.8178 40.183 48.4829 41.3793C47.083 42.6337 46.2584 44.3798 46.1611 46.2959L45.8605 52.2186C45.6644 56.0772 48.5403 59.3952 52.2708 59.6152C52.2956 59.6166 52.3204 59.6173 52.3452 59.6173ZM52.35 58.2603C52.3502 58.2603 52.3504 58.2603 52.3505 58.2604V58.2603C52.3504 58.2603 52.3502 58.2603 52.35 58.2603ZM53.1227 41.0361L52.2485 58.2533C49.3086 58.0231 47.0592 55.3693 47.2157 52.2874L47.5164 46.3646C47.5953 44.8127 48.2602 43.4011 49.3886 42.39C50.429 41.458 51.7496 40.9775 53.1227 41.0361Z" fill="#1E3A59"/>
<path d="M108.481 43.6152C108.16 43.5963 107.886 43.851 107.869 44.184L106.988 61.5526C106.971 61.8856 107.217 62.1709 107.538 62.1898C110.903 62.388 113.776 59.7165 113.953 56.2228L114.254 50.3C114.431 46.8063 111.846 43.8135 108.481 43.6152Z" fill="white"/>
<path d="M107.889 62.367C109.39 62.367 110.826 61.8152 111.967 60.7926C113.265 59.63 114.029 58.01 114.119 56.2311L114.42 50.3084C114.602 46.7294 111.941 43.6521 108.49 43.4484C108.293 43.4375 108.105 43.5033 107.957 43.6358C107.803 43.7737 107.713 43.9654 107.702 44.1755L106.82 61.544C106.799 61.9677 107.116 62.3322 107.528 62.3564C107.648 62.3635 107.769 62.367 107.889 62.367ZM108.471 43.7818C111.74 43.9744 114.259 46.8946 114.086 50.2915L113.786 56.2142C113.7 57.9034 112.975 59.4412 111.744 60.544C110.578 61.5884 109.09 62.1135 107.547 62.023C107.318 62.0096 107.142 61.8022 107.154 61.561L108.036 44.1924C108.042 44.072 108.093 43.9626 108.18 43.8846C108.261 43.8121 108.366 43.7757 108.471 43.7819L108.471 43.7818Z" fill="#371A45"/>
<g opacity="0.25">
<path d="M107.23 56.734L106.986 61.5524C106.969 61.8853 107.217 62.1705 107.538 62.1899C109.304 62.2931 110.937 61.6069 112.113 60.4244C113.176 59.3566 113.867 57.8825 113.952 56.2237L114.079 53.728C113.012 55.8613 110.806 57.2614 108.339 57.1165L107.728 57.0805C107.505 57.0668 107.322 56.9278 107.23 56.734Z" fill="#1E3A59"/>
</g>
<path d="M107.89 62.8786C109.517 62.8787 111.073 62.281 112.309 61.1736C113.708 59.9192 114.533 58.1731 114.63 56.257L114.931 50.3343C115.127 46.4758 112.251 43.1579 108.521 42.9378C108.191 42.9181 107.866 43.0304 107.616 43.2547C107.36 43.4844 107.209 43.8022 107.191 44.1495L106.31 61.5181C106.274 62.2213 106.807 62.8265 107.498 62.8671C107.629 62.8748 107.76 62.8786 107.89 62.8786ZM108.543 44.2995C111.483 44.5298 113.732 47.1836 113.576 50.2655L113.275 56.1882C113.196 57.7402 112.531 59.1517 111.403 60.1629C110.362 61.095 109.041 61.5756 107.669 61.5168L108.543 44.2995ZM108.441 44.2924V44.2925C108.441 44.2925 108.441 44.2925 108.441 44.2925C108.441 44.2926 108.441 44.2926 108.441 44.2924Z" fill="#1E3A59"/>
<path d="M51.8869 52.7889C51.0174 36.4376 63.0761 22.5036 78.8207 21.6664C94.5654 20.8292 108.034 33.4058 108.903 49.7571C109.773 66.1084 97.714 80.0425 81.9694 80.8797C66.2247 81.7169 52.7563 69.1402 51.8869 52.7889Z" fill="white"/>
<path d="M80.5008 81.0882C80.6403 81.0882 80.7783 81.0872 80.9184 81.0851C88.3855 80.9741 95.4067 77.908 100.688 72.4517C106.261 66.6951 109.25 59.023 109.106 50.8487C108.818 34.5577 95.9277 21.4639 80.2838 21.4639C80.1443 21.4639 80.0065 21.4649 79.8666 21.467C72.3992 21.5781 65.378 24.6441 60.0964 30.1005C54.5239 35.8572 51.5346 43.5292 51.6789 51.7035C51.9664 67.9945 64.8567 81.0882 80.5008 81.0882ZM80.2838 21.7978C95.7475 21.7978 108.487 34.7446 108.772 50.8546C108.915 58.9396 105.959 66.5271 100.448 72.2194C95.229 77.6115 88.2912 80.6414 80.9133 80.7511C80.7759 80.7532 80.638 80.7541 80.5008 80.7543C65.0369 80.7545 52.2972 67.8077 52.0129 51.6976C51.8702 43.6127 54.8261 36.0252 60.3363 30.3328C65.5559 24.9407 72.4936 21.9107 79.8714 21.801C80.0089 21.7989 80.1466 21.7978 80.2838 21.7978Z" fill="#371A45"/>
<g opacity="0.25">
<path d="M52.047 47.5933C51.8889 48.9363 51.821 50.3073 51.8453 51.7009C52.1365 68.0713 65.1508 81.1521 80.9161 80.9192C96.6815 80.6827 109.228 67.2221 108.94 50.8518C108.932 50.381 108.913 49.91 108.883 49.4463C107.213 63.9044 95.4861 75.1911 81.061 75.4061C65.7491 75.6326 53.0344 63.3011 52.047 47.5933Z" fill="#1E3A59"/>
</g>
<path d="M80.5006 81.6001C80.6428 81.6001 80.7833 81.599 80.926 81.5969C88.5301 81.4839 95.6791 78.3625 101.056 72.8078C106.724 66.9528 109.764 59.1512 109.617 50.84C109.325 34.2702 96.2058 20.9526 80.2841 20.9526C80.1419 20.9526 80.0016 20.9537 79.8589 20.9558C72.2547 21.0688 65.1057 24.1903 59.7289 29.745C54.0612 35.6001 51.0206 43.4017 51.1674 51.7128C51.46 68.2826 64.5787 81.6001 80.5006 81.6001ZM80.2838 22.3098C95.4695 22.3098 107.981 35.0327 108.26 50.8639C108.401 58.8119 105.496 66.2699 100.081 71.8639C94.9566 77.1576 88.1467 80.1323 80.9058 80.2399C80.7708 80.2419 80.6356 80.2429 80.501 80.2429C65.315 80.2431 52.8039 67.5201 52.5245 51.6889C52.384 43.7409 55.289 36.283 60.7039 30.6889C65.8282 25.3952 72.6381 22.4205 79.8791 22.3128C80.0141 22.3108 80.1491 22.3098 80.2838 22.3098Z" fill="#1E3A59"/>
<path d="M51.9507 52.4608C51.9687 58.2619 53.7991 63.6491 56.9147 68.1078C59.2504 71.4504 68.8277 77.305 80.632 77.4248C91.5771 77.5359 101.516 71.485 103.831 68.1462C106.919 63.6926 108.716 58.3084 108.698 52.5073C108.65 37.1558 95.928 30.7814 80.2569 30.7686C64.5859 30.7557 51.903 37.1094 51.9507 52.4608Z" fill="#0056A8"/>
<path d="M80.9353 78.054C87.0703 78.054 92.3554 76.2105 95.7313 74.6489C99.626 72.8472 103.008 70.4351 104.347 68.5038C107.622 63.7805 109.343 58.2483 109.326 52.5052C109.302 45.031 106.397 39.2649 100.69 35.3673C95.6934 31.9548 88.6277 30.1474 80.2571 30.1406C80.2407 30.1406 80.2242 30.1406 80.2078 30.1406C69.9468 30.1406 61.8943 32.7762 56.918 37.764C53.1864 41.504 51.3039 46.4494 51.3225 52.4625C51.3403 58.2049 53.096 63.7393 56.3996 68.4672C58.6917 71.7472 68.1507 77.9258 80.6252 78.0525C80.7286 78.0535 80.8325 78.054 80.9353 78.054ZM80.2076 31.3963C80.224 31.3963 80.2396 31.3963 80.256 31.3963C88.3734 31.4029 95.1945 33.1346 99.982 36.4042C105.327 40.0547 108.048 45.4731 108.07 52.5091C108.087 57.9939 106.443 63.2774 103.315 67.7883C101.095 70.9899 91.3565 76.9128 80.6381 76.7969C68.767 76.6764 59.5242 70.7464 57.4289 67.748C54.2726 63.2309 52.5953 57.9439 52.5782 52.4587C52.5605 46.7915 54.3198 42.1459 57.807 38.6508C62.5423 33.9046 70.2881 31.3963 80.2076 31.3963Z" fill="#1E3A59"/>
<g opacity="0.5">
<path d="M57.5571 50.9935C57.0766 48.1376 58.3042 45.5504 60.299 45.2148C62.2938 44.8792 64.3004 46.9223 64.7809 49.7782C65.2614 52.6341 64.0338 55.2213 62.0389 55.5569C60.0441 55.8925 58.0375 53.8494 57.5571 50.9935Z" fill="white"/>
</g>
<g opacity="0.5">
<path d="M63.7585 61.3098C63.4082 60.0297 63.9852 58.7563 65.0475 58.4655C66.1098 58.1748 67.2549 58.9768 67.6053 60.2569C67.9557 61.537 67.3786 62.8104 66.3164 63.1012C65.2541 63.3919 64.1089 62.5899 63.7585 61.3098Z" fill="white"/>
</g>
<g opacity="0.35">
<path d="M57.4242 38.1436C53.9663 41.5774 51.9321 46.294 51.9505 52.4596C51.9685 58.2619 53.7999 63.6488 56.9133 68.1076C59.2498 71.4502 68.828 77.3045 80.632 77.4255C84.8 77.469 88.8207 76.6174 92.332 75.3608C77.8239 74.8909 66.1571 67.7054 63.2605 63.5596C59.306 57.9008 56.9832 51.0625 56.9614 43.7014C56.954 41.734 57.1155 39.8828 57.4242 38.1436Z" fill="#111A28"/>
</g>
<path d="M106.52 39.9939C106.649 39.9939 106.779 39.9513 106.886 39.8633C107.126 39.6673 107.17 39.3218 106.991 39.0745C101.987 31.4752 92.2994 27.112 80.4068 27.1021C80.3938 27.1021 80.3804 27.1021 80.3673 27.1021C68.5732 27.1021 58.9275 31.306 53.8917 38.6408C53.7266 38.8504 53.7227 39.1539 53.8987 39.369C54.1025 39.6175 54.4682 39.6543 54.717 39.4509C54.728 39.4418 54.7428 39.4289 54.7532 39.419L54.7977 39.3766L54.8325 39.3257C59.6424 32.2958 68.9486 28.2654 80.3672 28.2654C80.3805 28.2654 80.3924 28.2654 80.4057 28.2654C91.9085 28.275 101.248 32.4539 106.03 39.7305L106.066 39.7794C106.182 39.9205 106.35 39.9939 106.52 39.9939Z" fill="#1E3A59"/>
<g opacity="0.5">
<path d="M102.354 61.6343C102.354 61.6343 106.886 46.4938 99.0071 40.4524C91.1278 34.411 79.8188 34.4261 80.0856 35.1794C80.0856 35.1794 92.6154 38.3368 97.546 48.6178C101.348 56.5457 102.354 61.6343 102.354 61.6343Z" fill="white"/>
</g>
<path d="M62.1107 87.9318C62.1258 88.5267 62.1665 89.1155 62.2054 89.7034C62.2247 89.9973 62.2325 90.2922 62.2465 90.586L62.2963 91.4657L62.3595 93.2235C62.3827 93.8084 62.3721 94.3939 62.3881 94.9781C62.3995 97.3162 62.2154 99.6495 61.8305 101.945C61.4343 104.238 60.8533 106.499 60.024 108.671L59.3652 110.285L58.637 111.87L57.8296 113.416L56.9555 114.929L56.9441 114.949C56.7944 115.208 56.8667 115.534 57.1021 115.707C60.2668 118.045 63.8248 119.849 67.5696 121.044C71.3151 122.245 75.23 122.849 79.1412 122.994C79.3499 123.002 79.5378 122.897 79.6461 122.736L81.1972 120.409H80.2293L81.7803 122.736C81.8961 122.91 82.0908 123.001 82.2854 122.994C86.1965 122.849 90.1114 122.245 93.857 121.044C97.6017 119.849 101.16 118.045 104.324 115.707C104.565 115.529 104.629 115.201 104.482 114.948L104.471 114.929L103.587 113.422L102.772 111.878L102.035 110.297L101.37 108.684C100.535 106.511 99.9419 104.25 99.5372 101.955C99.1378 99.657 98.965 97.3181 98.9737 94.9771C98.9705 92.6344 99.1247 90.2904 99.3178 87.932C99.3266 87.8282 99.2495 87.737 99.1457 87.7282C99.0518 87.7203 98.9681 87.7831 98.9465 87.8719C98.3864 90.1879 98.0828 92.569 98.0029 94.9613C97.9342 97.3538 98.0682 99.7585 98.4283 102.135C98.7812 104.513 99.4008 106.854 100.245 109.11L100.923 110.785L101.697 112.417L102.55 114.008L103.487 115.55L103.634 114.771C100.57 117.034 97.1317 118.778 93.5018 119.936C89.8715 121.101 86.0645 121.69 82.2433 121.832L82.7483 122.09L81.1972 119.764C81.0191 119.497 80.6579 119.424 80.3906 119.602C80.3255 119.646 80.2705 119.703 80.2293 119.764L78.6782 122.09L79.1832 121.832C75.3621 121.69 71.5549 121.101 67.9247 119.936C64.2948 118.778 60.8568 117.034 57.7926 114.771L57.9392 115.55L58.886 114.013L59.7478 112.426L60.5294 110.796C60.7636 110.241 60.9863 109.68 61.2149 109.123C62.0643 106.867 62.6957 104.525 63.0571 102.145C63.4317 99.7659 63.5543 97.3558 63.4884 94.9602C63.46 94.3616 63.4355 93.7627 63.3893 93.1661L63.2958 92.2732C63.261 91.9761 63.24 91.6777 63.1901 91.3825C63.0974 90.7915 63.003 90.2015 62.8916 89.6152C62.7611 89.0315 62.6325 88.4487 62.4781 87.8721C62.4514 87.7723 62.3489 87.7131 62.2491 87.7398C62.164 87.7626 62.1083 87.8407 62.1105 87.925L62.1107 87.9318Z" fill="#1E3A59"/>
<path d="M80.6159 117.954C80.8836 117.954 81.1006 117.737 81.1006 117.469V96.3358C81.1006 96.0682 80.8836 95.8511 80.6159 95.8511C80.3481 95.8511 80.1311 96.0682 80.1311 96.3358V117.469C80.1311 117.737 80.3481 117.954 80.6159 117.954Z" fill="#1E3A59"/>
<path d="M79.1003 100.795H82.3262C82.6668 100.795 82.9429 100.519 82.9429 100.179V98.6978C82.9429 98.3572 82.6668 98.0811 82.3262 98.0811H79.1003C78.7597 98.0811 78.4836 98.3572 78.4836 98.6978V100.179C78.4836 100.519 78.7597 100.795 79.1003 100.795Z" fill="#06C6FF"/>
<path d="M79.1001 101.28H82.3259C82.9331 101.28 83.4272 100.786 83.4272 100.179V98.6977C83.4272 98.0903 82.9331 97.5962 82.3259 97.5962H79.1001C78.4927 97.5962 77.9986 98.0903 77.9986 98.6977V100.179C77.9986 100.786 78.4927 101.28 79.1001 101.28ZM82.3259 98.5657C82.3986 98.5657 82.4577 98.6249 82.4577 98.6977V100.179C82.4577 100.251 82.3985 100.311 82.3259 100.311H79.1001C79.0273 100.311 78.9681 100.251 78.9681 100.179V98.6977C78.9681 98.6249 79.0273 98.5657 79.1001 98.5657H82.3259Z" fill="#1E3A59"/>
<path d="M79.1003 107.193H82.3262C82.6668 107.193 82.9429 106.917 82.9429 106.577V105.096C82.9429 104.755 82.6668 104.479 82.3262 104.479H79.1003C78.7597 104.479 78.4836 104.755 78.4836 105.096V106.577C78.4836 106.917 78.7597 107.193 79.1003 107.193Z" fill="#06C6FF"/>
<path d="M79.1001 107.678H82.3259C82.9331 107.678 83.4272 107.184 83.4272 106.577V105.096C83.4272 104.489 82.9331 103.995 82.3259 103.995H79.1001C78.4927 103.995 77.9986 104.489 77.9986 105.096V106.577C77.9986 107.184 78.4927 107.678 79.1001 107.678ZM82.3259 104.964C82.3986 104.964 82.4577 105.023 82.4577 105.096V106.577C82.4577 106.65 82.3985 106.709 82.3259 106.709H79.1001C79.0273 106.709 78.9681 106.65 78.9681 106.577V105.096C78.9681 105.023 79.0273 104.964 79.1001 104.964H82.3259Z" fill="#1E3A59"/>
<path d="M79.1003 114.367H82.3262C82.6668 114.367 82.9429 114.091 82.9429 113.75V112.27C82.9429 111.929 82.6668 111.653 82.3262 111.653H79.1003C78.7597 111.653 78.4836 111.929 78.4836 112.27V113.75C78.4836 114.091 78.7597 114.367 79.1003 114.367Z" fill="#06C6FF"/>
<path d="M79.1001 114.852H82.3259C82.9331 114.852 83.4272 114.358 83.4272 113.75V112.269C83.4272 111.662 82.9331 111.168 82.3259 111.168H79.1001C78.4927 111.168 77.9986 111.662 77.9986 112.269V113.75C77.9986 114.358 78.4927 114.852 79.1001 114.852ZM82.3259 112.137C82.3986 112.137 82.4577 112.197 82.4577 112.269V113.75C82.4577 113.823 82.3985 113.882 82.3259 113.882H79.1001C79.0273 113.882 78.9681 113.823 78.9681 113.75V112.269C78.9681 112.197 79.0273 112.137 79.1001 112.137H82.3259Z" fill="#1E3A59"/>
<path d="M97.2427 108.211C96.4275 108.382 95.6191 108.546 94.8066 108.683C94.3996 108.746 93.9942 108.816 93.5857 108.867C93.1787 108.926 92.77 108.974 92.3608 109.017C91.5428 109.108 90.7209 109.168 89.8964 109.219C89.0716 109.268 88.2442 109.297 87.4111 109.339C87.3108 109.344 87.2333 109.43 87.2381 109.53C87.2424 109.618 87.3094 109.689 87.3938 109.701C88.2273 109.822 89.0694 109.876 89.9126 109.883C90.7561 109.893 91.6009 109.847 92.4415 109.757C92.8617 109.71 93.2802 109.648 93.6975 109.579C94.1132 109.501 94.5286 109.42 94.9386 109.315C95.7594 109.111 96.5669 108.849 97.3382 108.503C97.4162 108.468 97.4511 108.377 97.4161 108.299C97.3858 108.231 97.3124 108.196 97.2427 108.211Z" fill="#1E3A59"/>
<path d="M64.0882 108.503C64.8595 108.848 65.667 109.11 66.4878 109.314C66.8978 109.419 67.3132 109.5 67.7289 109.579C68.1461 109.648 68.5647 109.71 68.9848 109.757C69.8255 109.847 70.6703 109.893 71.5138 109.883C72.357 109.875 73.199 109.822 74.0326 109.701C74.132 109.686 74.201 109.594 74.1866 109.495C74.1739 109.407 74.1004 109.343 74.0153 109.339C73.1822 109.297 72.3548 109.267 71.5299 109.219C70.7055 109.168 69.8836 109.108 69.0655 109.017C68.6564 108.974 68.2477 108.926 67.8406 108.867C67.4322 108.816 67.0268 108.746 66.6198 108.682C65.8073 108.545 64.9988 108.382 64.1836 108.21C64.1002 108.193 64.0179 108.246 64.0001 108.329C63.9847 108.402 64.0232 108.474 64.0882 108.503Z" fill="#1E3A59"/>
<g opacity="0.25">
<path d="M95.0469 86.2773C94.0891 86.7407 93.1662 87.272 92.2841 87.8691L95.0469 86.2773Z" fill="#371A45"/>
</g>
<g opacity="0.2">
<path d="M62.3603 91.3726C62.4901 91.4327 62.6181 91.4948 62.7461 91.5588L62.3622 89.0654C62.4048 89.8312 62.4087 90.6029 62.3603 91.3726Z" fill="#371A45"/>
</g>
<g opacity="0.2">
<path d="M62.2265 91.3066C62.2672 91.3803 62.3099 91.452 62.3507 91.5237C62.3545 91.4734 62.3584 91.4229 62.3604 91.3725C62.3157 91.3493 62.2711 91.328 62.2265 91.3066Z" fill="#371A45"/>
</g>
</svg>
