<svg width="334" height="400" viewBox="0 0 334 400" fill="none" xmlns="http://www.w3.org/2000/svg">
<path d="M267.897 279.811C267.584 289.837 257.244 291.404 256.775 291.717C256.305 292.03 142.416 300.96 126.75 300.02C125.522 299.945 124.382 299.851 123.316 299.732C121.086 299.481 119.193 299.143 117.583 298.754C112.419 297.513 108.691 293.021 108.453 287.719L108.277 283.853L107.525 267.053L267.364 259.916C267.364 259.916 268.21 269.785 267.897 279.811Z" fill="#FCFCFC"/>
<path d="M129.809 302.596C128.507 302.596 127.428 302.573 126.601 302.523C122.872 302.299 119.548 301.829 116.719 301.126C110.659 299.62 106.23 294.154 105.947 287.833L105.024 267.169C104.962 265.787 106.033 264.615 107.416 264.553C108.778 264.49 109.97 265.563 110.032 266.946L110.956 287.609C111.14 291.729 114.007 295.286 117.929 296.261C120.46 296.891 123.479 297.314 126.901 297.519C141.786 298.415 249.153 290.17 256.121 289.285C256.28 289.233 256.452 289.184 256.65 289.128C262.385 287.515 265.246 284.442 265.393 279.734C265.697 269.98 264.878 260.225 264.87 260.127C264.752 258.748 265.775 257.535 267.154 257.417C268.543 257.303 269.747 258.322 269.865 259.701C269.899 260.11 270.718 269.835 270.403 279.891C270.251 284.759 267.977 291.15 258.007 293.954C257.872 293.993 257.764 294.021 257.691 294.046C257.697 294.043 257.717 294.037 257.746 294.025C256.862 294.338 254.151 294.558 238.661 295.779C226.043 296.774 211.091 297.89 197.638 298.84C172.611 300.608 141.803 302.596 129.809 302.596Z" fill="#1E3A59"/>
<path d="M131.346 150.789L118.195 151.101C110.869 151.275 104.876 156.989 104.353 164.298L101.791 200.09L100.144 246.387V261.411C100.144 264.305 102.384 266.705 105.271 266.904L119.858 267.908L266.438 260.051C269.427 259.89 271.74 257.373 271.647 254.382L270.424 215.019C270.322 211.754 267.86 209.049 264.619 208.643L261.689 208.275L259.277 186.307L183.46 180.805L171.271 164.387" fill="#FCFCFC"/>
<path d="M119.857 270.413C119.799 270.413 119.742 270.411 119.685 270.408L105.098 269.403C100.913 269.115 97.6357 265.604 97.6357 261.409V246.385C97.6357 246.356 97.6364 246.326 97.6376 246.296L99.285 200C99.2856 199.97 99.2875 199.94 99.2893 199.91L101.653 166.893C102.386 156.667 110.666 148.771 120.916 148.528L131.286 148.282C132.663 148.257 133.818 149.344 133.851 150.728C133.884 152.112 132.788 153.26 131.404 153.293L121.035 153.54C113.383 153.721 107.2 159.616 106.654 167.251L104.293 200.223L102.649 246.43V261.409C102.649 262.98 103.876 264.294 105.442 264.401L119.876 265.396L266.303 257.546C267.918 257.459 269.191 256.074 269.14 254.458L267.918 215.095C267.854 213.051 266.335 211.382 264.306 211.128L261.376 210.76C260.224 210.616 259.322 209.7 259.196 208.547L257.012 188.655L183.278 183.303C182.55 183.25 181.882 182.883 181.447 182.297L169.258 165.879C168.433 164.768 168.665 163.198 169.776 162.373C170.886 161.547 172.457 161.779 173.283 162.891L184.787 178.386L259.457 183.806C260.664 183.893 261.635 184.83 261.768 186.032L263.963 206.032L264.93 206.154C269.424 206.717 272.787 210.412 272.928 214.939L274.151 254.302C274.285 258.62 270.885 262.32 266.571 262.552L119.991 270.41C119.946 270.412 119.902 270.413 119.857 270.413Z" fill="#1E3A59"/>
<path d="M328.995 112.975C320.065 131.931 309.256 131.304 309.256 131.304C309.256 131.304 278.52 187.7 251.513 203.992C251.513 203.992 254.583 256.315 255.21 280.754C255.799 303.688 264.941 355.322 266.063 361.588C266.138 362.002 266.176 362.215 266.176 362.215C266.176 362.215 272.179 362.108 277.148 366.081C281.353 369.433 284.812 375.712 283.264 387.436C282.788 391.027 280.087 393.922 276.528 394.592C266.94 396.391 245.823 399.01 218.834 394.279C215.927 393.771 213.74 391.346 213.552 388.401C212.775 376.257 210.5 345.233 207.167 335.896C203.257 324.931 194.929 309.559 193.907 307.68C193.838 307.554 193.801 307.492 193.801 307.492C193.795 307.88 193.788 308.262 193.782 308.651C193.331 333.804 194.86 358.586 198.143 383.044C199.071 389.961 193.989 396.234 187.027 396.742C170.609 397.938 144.999 397.45 133.263 397.049C131.684 396.998 130.324 395.927 129.904 394.404C128.858 390.576 127.51 383.181 130.6 377.398C132.824 373.218 137.361 369.878 145.971 369.314C128.927 333.76 119.026 292.672 116.519 245.87C116.519 245.87 84.1418 252.242 80.382 230.624C76.6223 209.005 114.846 162.322 136.778 158.249C146.566 156.432 162.025 158.324 176.143 160.981C193.65 164.271 209.09 168.732 209.09 168.732C221.698 165.505 233.591 159.508 243.962 150.898C256.281 140.685 266.458 126.786 273.144 109.479C278.501 97.153 279.466 77.9407 300.22 83.1605C300.22 83.1605 307.953 73.5481 317.766 80.3407C317.766 80.3407 320.855 82.4399 324.082 86.1307C324.082 86.1307 324.082 86.1307 324.082 86.137C329.095 91.8706 334.428 101.445 328.995 112.975Z" fill="#FCFCFC"/>
<path d="M160.232 399.999C146.963 399.999 135.237 399.624 133.179 399.554C130.485 399.463 128.197 397.66 127.485 395.068C126.167 390.262 124.672 381.197 129.464 374.469C132.187 370.644 136.467 368.218 142.214 367.231C126.256 332.768 116.828 292.944 114.169 248.765C108.389 249.492 95.0923 250.308 86.1727 244.177C81.6664 241.08 78.8869 236.664 77.9109 231.052C76.0561 220.387 83.1852 203.656 96.9813 186.296C107.442 173.134 123.268 158.207 136.318 155.783C157.455 151.857 202.815 164.346 209.122 166.131C237.052 158.757 259.51 137.815 270.807 108.576C270.819 108.544 270.833 108.512 270.846 108.481C271.833 106.208 272.665 103.686 273.547 101.016C277.135 90.142 281.578 76.68 299.35 80.3852C303.113 76.6194 310.818 72.4873 319.192 78.2759C319.393 78.4124 340.991 93.3874 331.26 114.042C323.7 130.091 314.533 133.134 310.799 133.69C306.157 142.019 279.152 189.172 254.1 205.33C254.604 214.046 257.152 258.794 257.714 280.688C258.264 302.15 266.508 349.737 268.299 359.855C271.292 360.233 276.772 361.562 280.916 366.205C285.353 371.176 286.977 378.429 285.746 387.763C285.127 392.451 281.607 396.184 276.988 397.053C266.744 398.979 245.509 401.501 218.399 396.749C214.337 396.038 211.314 392.671 211.05 388.563C210.419 378.739 208.103 345.969 204.807 336.738C202.651 330.705 199.091 323.225 196.21 317.508C196.23 339.107 197.711 360.994 200.625 382.71C201.167 386.752 200.05 390.72 197.479 393.884C194.913 397.043 191.264 398.945 187.206 399.241C179.256 399.821 169.376 399.999 160.232 399.999ZM116.514 243.364C117.068 243.364 117.612 243.548 118.055 243.894C118.627 244.34 118.979 245.012 119.018 245.736C121.482 291.723 131.309 332.936 148.227 368.232C148.586 368.982 148.55 369.862 148.13 370.58C147.71 371.298 146.961 371.761 146.13 371.816C140.128 372.21 135.894 374.08 133.547 377.376C129.823 382.606 131.448 390.563 132.319 393.741C132.446 394.204 132.86 394.527 133.348 394.544C136.798 394.661 167.614 395.644 186.841 394.241C189.507 394.047 191.903 392.797 193.589 390.722C195.279 388.643 196.013 386.034 195.656 383.376C192.259 358.058 190.791 332.509 191.293 307.438C191.316 306.303 192.098 305.326 193.2 305.054C194.301 304.783 195.448 305.286 195.995 306.28C196.375 306.97 205.33 323.301 209.527 335.052C212.948 344.629 215.231 375.439 216.053 388.241C216.168 390.032 217.489 391.5 219.265 391.811C245.594 396.425 266.152 393.989 276.062 392.126C278.547 391.658 280.441 389.641 280.776 387.106C281.805 379.313 280.606 373.418 277.213 369.583C272.898 364.708 266.233 364.703 266.208 364.719C266.2 364.72 266.192 364.72 266.184 364.72C264.974 364.72 263.924 363.854 263.708 362.66C263.284 360.324 253.327 305.168 252.702 280.816C252.084 256.698 249.04 204.66 249.01 204.138C248.955 203.208 249.42 202.325 250.217 201.844C276.343 186.085 306.749 130.661 307.053 130.103C307.517 129.251 308.421 128.742 309.4 128.8C309.401 128.799 318.734 128.872 326.726 111.906C334.65 95.0833 316.542 82.5356 316.358 82.4107C308.73 77.1362 302.816 83.9421 302.167 84.7358C301.552 85.4872 300.549 85.8238 299.609 85.5873C285.119 81.9429 281.962 91.5093 278.307 102.586C277.435 105.228 276.534 107.959 275.466 110.428C263.484 141.402 239.52 163.535 209.712 171.157C209.279 171.267 208.826 171.261 208.395 171.136C207.897 170.993 158.329 156.795 137.234 160.711C127.602 162.5 113.342 173.767 100.906 189.415C88.3721 205.186 81.2848 221.192 82.8494 230.192C83.5954 234.482 85.6081 237.702 89.0025 240.039C98.681 246.7 115.86 243.444 116.033 243.41C116.192 243.379 116.353 243.364 116.514 243.364Z" fill="#1E3A59"/>
<path d="M94.4419 70.7617L84.9953 75.4999C79.4622 78.2752 76.2 84.1622 76.7803 90.325L79.4629 118.815C80.1228 125.824 85.5648 131.433 92.5505 132.304L105.276 133.89" fill="white"/>
<path d="M251.512 55.9707L261.677 58.8622C267.631 60.5558 271.934 65.7305 272.515 71.8933L275.197 100.383C275.857 107.392 271.558 113.918 264.857 116.078L252.652 120.012" fill="white"/>
<g opacity="0.25">
<path d="M105.276 133.887L92.548 132.303C85.5694 131.431 80.1229 125.82 79.4631 118.812L77.9404 102.641C78.6003 109.648 84.0467 115.26 91.0253 116.132L102.478 117.56L105.276 133.887Z" fill="#1E3A59"/>
</g>
<g opacity="0.25">
<path d="M273.671 84.2109L275.193 100.383C275.853 107.39 271.558 113.919 264.857 116.079L252.648 120.011L252.356 103.439L263.334 99.9072C270.035 97.7474 274.33 91.2188 273.671 84.2109Z" fill="#1E3A59"/>
</g>
<path d="M174.955 175.722C222.784 175.722 261.558 136.948 261.558 89.1188C261.558 41.2892 222.784 2.51562 174.955 2.51562C127.125 2.51562 88.3516 41.2892 88.3516 89.1188C88.3516 136.948 127.125 175.722 174.955 175.722Z" fill="white"/>
<g opacity="0.25">
<path d="M183.075 175.339C163.322 177.198 144.502 172.269 128.909 162.467C138.066 164.719 147.745 165.495 157.656 164.56C205.271 160.077 240.242 117.84 235.759 70.2193C233.13 42.352 217.574 18.812 195.572 4.9834C230.398 13.5086 257.629 43.2834 261.178 80.9986C265.661 128.619 230.695 170.856 183.075 175.339Z" fill="#1E3A59"/>
</g>
<path d="M261.441 83.8279C265.01 121.728 229.304 156.09 181.682 160.574C138.264 164.663 99.9337 142.505 90.8131 109.827C89.9248 106.67 89.3128 103.41 88.9978 100.065C85.4292 62.1653 121.136 27.8122 168.759 23.3281C204.542 19.9587 236.866 34.4173 252.24 57.8882L252.241 57.8977C257.329 65.6645 260.555 74.4168 261.441 83.8279Z" fill="#0056A8"/>
<g opacity="0.7">
<path d="M261.442 83.8278C265.01 121.728 229.305 156.09 181.682 160.574C138.264 164.663 99.9341 142.505 90.8135 109.827C91.37 108.955 91.6968 108.476 91.6968 108.476C138.038 170.365 256.739 131.067 252.242 57.8975C257.329 65.6643 260.556 74.4166 261.442 83.8278Z" fill="#111A28"/>
</g>
<path d="M174.796 178.236C154.116 178.236 134.26 171.112 118.129 157.757C99.7949 142.579 88.4685 121.169 86.2374 97.4714C81.6313 48.5526 117.682 5.00691 166.601 0.400475C190.299 -1.82855 213.447 5.29966 231.78 20.4784C250.115 35.6572 261.441 57.067 263.672 80.7643C265.903 104.462 258.773 127.609 243.595 145.944C228.415 164.278 207.006 175.604 183.308 177.835C180.46 178.103 177.62 178.236 174.796 178.236ZM175.105 5.01305C172.438 5.01305 169.76 5.13812 167.071 5.39153C120.904 9.73879 86.8813 50.8349 91.2285 97.0015C93.3342 119.366 104.023 139.571 121.326 153.896C136.548 166.498 155.29 173.222 174.804 173.223C177.472 173.223 180.15 173.098 182.838 172.844C205.203 170.739 225.408 160.05 239.733 142.747C254.057 125.444 260.787 103.599 258.681 81.2344C256.576 58.8702 245.887 38.6647 228.584 24.3399C213.362 11.7376 194.619 5.01305 175.105 5.01305Z" fill="#1E3A59"/>
<path d="M88.5976 98.4661C87.2575 98.4661 86.1132 97.4459 85.9852 96.085C84.0791 75.8421 91.5875 55.9619 107.128 40.1065C122.551 24.3703 144.068 14.4778 167.717 12.2511C216.683 7.63717 259.74 37.7408 263.66 79.3552C263.796 80.7997 262.735 82.081 261.291 82.2169C259.852 82.3536 258.565 81.2929 258.429 79.8477C254.782 41.1185 214.326 13.1433 168.209 17.4819C145.795 19.5925 125.436 28.9335 110.88 43.7842C96.4408 58.5162 89.4574 76.9154 91.2162 95.5923C91.352 97.0368 90.2915 98.3181 88.8474 98.4539C88.7634 98.4622 88.6802 98.4661 88.5976 98.4661Z" fill="#1E3A59"/>
<path d="M105.278 136.396C105.175 136.396 105.07 136.39 104.965 136.376L92.2388 134.79C84.0223 133.765 77.742 127.292 76.9661 119.049L74.2834 90.5589C73.6012 83.3124 77.3645 76.5214 83.8706 73.2582L93.3171 68.5203C94.5532 67.8979 96.0611 68.3995 96.6809 69.6368C97.3014 70.8741 96.8015 72.3804 95.5642 73.0009L86.1177 77.7392C81.4737 80.0685 78.7873 84.9163 79.2745 90.0889L81.9572 118.579C82.511 124.463 86.994 129.084 92.8594 129.815L105.585 131.402C106.959 131.573 107.933 132.826 107.763 134.199C107.604 135.468 106.524 136.396 105.278 136.396Z" fill="#1E3A59"/>
<path d="M252.651 122.52C251.593 122.52 250.609 121.844 250.267 120.782C249.842 119.464 250.565 118.052 251.883 117.627L264.089 113.693C269.715 111.88 273.257 106.503 272.702 100.619L270.02 72.1291C269.532 66.956 265.989 62.6951 260.992 61.2736L250.826 58.3822C249.495 58.0037 248.722 56.6174 249.101 55.2858C249.48 53.9539 250.865 53.1805 252.198 53.5607L262.364 56.4521C269.364 58.4434 274.328 64.4124 275.01 71.659L277.693 100.149C278.47 108.392 273.508 115.924 265.627 118.464L253.421 122.398C253.166 122.481 252.906 122.52 252.651 122.52Z" fill="#1E3A59"/>
<g opacity="0.5">
<path d="M227.283 125.755C234.869 87.298 218.698 58.6274 182.071 38.3828C244.369 49.3472 260.091 97.5015 227.283 125.755Z" fill="white"/>
</g>
<g opacity="0.5">
<path d="M120.807 98.2138C121.219 103.027 122.371 110.016 125.434 117.578C127.008 121.465 125.257 125.908 121.461 127.692C118.067 129.287 114.009 128.29 111.762 125.288C106.092 117.714 102.093 108.385 102.585 98.4705C102.862 92.8712 108.191 88.9072 113.667 90.1092C117.562 90.9642 120.466 94.2409 120.807 98.2138Z" fill="white"/>
</g>
<g opacity="0.5">
<path d="M127.656 59.441C129.736 61.5672 130.195 64.7966 128.791 67.4183L125.096 74.3183C123.512 77.2762 120.009 78.6396 116.842 77.531L116.33 77.3519C112.416 75.9816 110.6 71.4506 112.537 67.7828C113.704 65.5714 115.254 62.9802 117.27 60.2043C119.749 56.7917 124.707 56.4256 127.656 59.441Z" fill="white"/>
</g>
<path d="M106.612 142.162L106.405 144.274L106.023 148.115C105.534 153.052 102.426 157.364 97.8706 159.325C94.9506 160.585 92.018 161.8 89.0791 162.972C74.9362 168.624 60.5364 173.311 45.9048 177.071C41.2552 178.268 36.5806 179.371 31.8872 180.38C29.2992 180.937 26.6361 180.943 24.092 180.392C22.0617 179.966 20.1067 179.189 18.3208 178.061C0.248995 166.656 -3.57968 126.465 13.3767 109.722C17.738 105.41 23.998 103.656 30.0199 104.828C34.0741 105.617 38.1158 106.501 42.1325 107.491C58.2555 111.451 74.0652 117.003 89.5867 124.034L89.5929 124.04C92.7574 125.462 95.9093 126.954 99.0487 128.508C104.162 131.039 107.176 136.485 106.612 142.162Z" fill="#07C7FF"/>
<g opacity="0.6">
<path d="M106.611 142.162L106.442 143.904C105.659 139.743 102.97 136.09 99.0477 134.147C95.9084 132.593 92.7565 131.102 89.592 129.679L89.5857 129.673C74.0643 122.642 58.2546 117.091 42.1316 113.13C38.1149 112.14 34.0732 111.257 30.0189 110.467C23.9971 109.295 17.7371 111.05 13.3758 115.361C6.52682 122.122 3.07413 132.694 2.5791 143.666C1.99007 130.789 5.3613 117.636 13.3758 109.722C17.7371 105.41 23.9971 103.656 30.0189 104.828C34.0732 105.617 38.1149 106.501 42.1316 107.491C58.2546 111.451 74.0643 117.003 89.5857 124.034L89.592 124.04C92.7565 125.462 95.9084 126.954 99.0477 128.508C104.161 131.039 107.175 136.485 106.611 142.162Z" fill="white"/>
</g>
<path d="M106.612 142.162L106.023 148.115C105.534 153.053 102.426 157.364 97.8706 159.325C94.9506 160.585 92.018 161.8 89.0791 162.972C99.8382 151.969 97.0999 129.567 89.5929 124.04C92.7574 125.462 95.9093 126.954 99.0487 128.508C104.162 131.039 107.176 136.485 106.612 142.162Z" fill="#F6F6F6"/>
<path d="M27.9742 183.301C24.0762 183.301 20.2289 182.229 16.9807 180.179C8.17928 174.624 1.9742 162.546 0.381953 147.872C-1.36081 131.802 2.94234 116.501 11.6128 107.938C16.5089 103.103 23.5683 101.019 30.4966 102.363C53.7967 106.884 77.2339 114.924 100.157 126.262C106.173 129.237 109.77 135.726 109.108 142.409L108.518 148.359C107.937 154.228 104.237 159.313 98.8628 161.628C77.6133 170.784 55.2575 177.917 32.4157 182.83C30.9482 183.145 29.457 183.301 27.9742 183.301ZM19.6561 175.94C23.042 178.076 27.3096 178.802 31.3618 177.929C53.8854 173.085 75.9285 166.051 96.8788 157.025C100.579 155.43 103.128 151.92 103.529 147.865L104.119 141.915C104.577 137.296 102.091 132.812 97.9343 130.756C75.4126 119.616 52.402 111.72 29.5417 107.285C24.2393 106.257 18.8537 107.834 15.1349 111.505C7.5267 119.018 3.78351 132.746 5.36599 147.332C6.77313 160.302 12.2487 171.264 19.6561 175.94Z" fill="#1E3A59"/>
<path d="M45.9016 179.266C45.3637 179.266 44.8252 179.07 44.4017 178.672C43.5181 177.844 43.4741 176.456 44.3026 175.572C52.2315 167.119 56.2887 151.099 54.399 135.709C52.8997 123.497 47.9944 113.882 40.9419 109.331C39.9243 108.674 39.6311 107.317 40.2883 106.299C40.9449 105.281 42.3022 104.99 43.3199 105.645C51.4697 110.904 57.0946 121.667 58.753 135.174C60.8244 152.043 56.4081 169.078 47.502 178.573C47.0704 179.033 46.4866 179.266 45.9016 179.266Z" fill="#1E3A59"/>
<path d="M67.5352 164.506C76.3086 158.652 85.4942 164.384 85.4942 164.384L85.248 172.811L80.798 175.583" fill="#07C7FF"/>
<path d="M24.5853 170.627C32.4296 170.627 38.7887 158.096 38.7887 142.638C38.7887 127.18 32.4296 114.648 24.5853 114.648C16.7409 114.648 10.3818 127.18 10.3818 142.638C10.3818 158.096 16.7409 170.627 24.5853 170.627Z" fill="#F6F6F6"/>
<g opacity="0.6">
<path d="M39.9317 146.629C39.9317 162.088 33.5715 174.621 25.7262 174.621C20.0113 174.621 15.0924 167.972 12.8428 158.391C15.3994 165.779 19.7043 170.623 24.5857 170.623C32.431 170.623 38.7912 158.097 38.7912 142.638C38.7912 138.458 38.3275 134.485 37.4816 130.92C39.0294 135.394 39.9317 140.802 39.9317 146.629Z" fill="white"/>
</g>
<path d="M89.079 165.167C88.5258 165.167 87.9726 164.959 87.5462 164.542C86.6797 163.695 86.6637 162.307 87.5107 161.441C92.2238 156.619 94.6092 148.556 93.8914 139.874C93.3577 133.426 91.1535 127.899 88.275 125.792C87.2978 125.077 87.0855 123.705 87.8008 122.727C88.5162 121.749 89.887 121.537 90.866 122.253C94.7849 125.121 97.6194 131.735 98.2625 139.513C99.0838 149.444 96.237 158.788 90.6476 164.507C90.2178 164.946 89.6487 165.167 89.079 165.167Z" fill="#1E3A59"/>
<path d="M36.8318 128.466L28.6374 130.266C24.2116 131.238 21.0586 135.159 21.0586 139.69V142.628C21.0586 146.881 23.8424 150.632 27.9126 151.864L37.3959 154.733" fill="#07C7FF"/>
<g opacity="0.6">
<path d="M36.9247 132.539L31.1159 133.817C26.6857 134.788 23.5338 138.711 23.5338 143.242V146.18C23.5338 147.446 23.7781 148.662 24.2356 149.784C22.2617 147.991 21.0586 145.422 21.0586 142.628V139.689C21.0586 135.158 24.2168 131.235 28.6407 130.264L36.837 128.466L36.9247 132.539Z" fill="white"/>
</g>
<path d="M24.5844 172.818C15.39 172.818 8.1875 159.56 8.1875 142.635C8.1875 125.711 15.39 112.453 24.5844 112.453C33.7787 112.453 40.9806 125.711 40.9806 142.635C40.9806 159.56 33.7788 172.818 24.5844 172.818ZM24.5844 116.839C18.7838 116.839 12.5739 127.205 12.5739 142.635C12.5739 158.066 18.7838 168.432 24.5844 168.432C30.3843 168.432 36.5942 158.066 36.5942 142.635C36.5942 127.205 30.3844 116.839 24.5844 116.839Z" fill="#1E3A59"/>
<path d="M37.3984 156.925C37.1879 156.925 36.9743 156.894 36.7627 156.83L27.2795 153.96C22.2476 152.438 18.8672 147.883 18.8672 142.626V139.688C18.8672 134.169 22.7793 129.305 28.1687 128.121L36.3631 126.321C37.5503 126.06 38.716 126.811 38.9762 127.993C39.2356 129.176 38.4873 130.346 37.3043 130.606L29.1098 132.406C25.7167 133.151 23.2535 136.213 23.2535 139.688V142.626C23.2535 145.936 25.3818 148.803 28.5499 149.762L38.0331 152.632C39.1927 152.983 39.848 154.207 39.4969 155.367C39.2104 156.314 38.3401 156.925 37.3984 156.925Z" fill="#1E3A59"/>
<path d="M26.3265 129.316C26.5145 129.384 26.6273 129.438 26.7434 129.493C26.8649 129.548 26.98 129.604 27.0846 129.663C27.3006 129.78 27.518 129.894 27.7161 130.026C28.1273 130.27 28.5051 130.559 28.8789 130.843C29.6021 131.45 30.2794 132.109 30.8194 132.882C31.9353 134.398 32.5362 136.224 32.6364 137.969C32.644 138.407 32.6552 138.841 32.6508 139.268L32.4812 140.527C32.4444 140.946 32.3258 141.344 32.211 141.74L31.8768 142.918C31.5611 143.667 31.2678 144.414 30.9297 145.13L29.7817 147.203L30.4138 144.945C30.573 144.185 30.6801 143.42 30.8076 142.674L30.8546 141.543C30.8739 141.17 30.897 140.799 30.8391 140.434L30.7337 139.353L30.473 138.329C30.0642 137.001 29.3323 135.881 28.3628 135.07C27.8933 134.651 27.3334 134.334 26.777 134.055C26.4843 133.933 26.2017 133.805 25.9051 133.718C25.7598 133.663 25.6146 133.632 25.4722 133.595C25.3989 133.574 25.3318 133.561 25.2692 133.551C25.2021 133.538 25.1319 133.526 25.1328 133.538L26.3265 129.316Z" fill="#1E3A59"/>
<path d="M85.2498 175.317C85.2253 175.317 85.2001 175.317 85.1751 175.316C83.7915 175.276 82.7028 174.121 82.7433 172.738L82.944 165.877C80.4522 164.741 74.5764 162.821 68.9276 166.591C67.7747 167.359 66.2186 167.049 65.4512 165.898C64.6826 164.746 64.9935 163.19 66.1445 162.421C76.1503 155.745 86.3917 161.989 86.8218 162.257C87.5782 162.729 88.0267 163.566 88.0004 164.457L87.7537 172.884C87.714 174.243 86.6003 175.317 85.2498 175.317Z" fill="#1E3A59"/>
<g opacity="0.25">
<path d="M36.9245 127.125C36.9245 127.125 9.57236 133.809 15.6819 159.501C15.6819 159.501 3.76156 148.613 15.6747 120.846C15.6747 120.846 25.4259 103.992 36.9245 127.125Z" fill="#1E3A59"/>
</g>
<g opacity="0.25">
<path d="M106.405 144.274L106.023 148.116C105.534 153.053 102.426 157.365 97.8706 159.326C94.9505 160.585 92.0179 161.801 89.0791 162.973C87.8822 163.449 86.6916 163.919 85.4885 164.383C85.194 164.201 76.1643 158.749 67.5357 164.508L72.8934 168.982C63.9891 172.046 54.9908 174.735 45.9047 177.072C41.2552 178.269 36.5806 179.372 31.8872 180.38C29.2992 180.938 26.636 180.944 24.092 180.393L23.6533 178.82C23.6533 178.82 43.4483 181.226 46.3997 151.481C46.7507 147.965 49.7459 145.315 53.2738 145.459L95.9531 147.207C95.9531 147.207 103.109 148.379 106.405 144.274Z" fill="#1E3A59"/>
</g>
<path d="M111.206 207.437C109.22 217.588 103.674 224.706 95.4591 229.538C90.7281 232.332 85.1073 234.369 78.7784 235.791L65.9389 212.606C65.9389 212.606 63.9337 211.535 61.4084 208.815C61.1765 208.571 60.9447 208.308 60.7003 208.032C58.67 205.688 56.3954 202.311 54.5657 197.636C53.3312 194.478 52.2973 190.725 51.6769 186.288C50.4801 177.697 52.5918 172.339 55.4179 169.006C59.1338 164.632 65.2935 163.297 70.6824 165.277C76.3095 167.345 79.1418 170.76 80.1256 174.752C80.5016 176.256 80.6081 177.854 80.4953 179.489C91.3234 158.71 105.153 175.842 98.3604 197.411L111.206 207.437Z" fill="#F6F6F6"/>
<path d="M78.9825 186.306C78.9825 186.306 80.6074 193.6 87.187 195.062V203.808C87.187 207.785 83.8333 210.938 79.8639 210.693L77.0591 210.52C73.2936 210.288 70.4133 207.073 70.594 203.305L70.7481 200.089" fill="#07C7FF"/>
<path d="M78.7774 238.301C77.881 238.301 77.0334 237.817 76.5855 237.008L64.064 214.403C61.3722 212.655 51.7874 205.22 49.194 186.637C48.0675 178.561 49.5177 172.085 53.5046 167.389C57.7979 162.333 65.047 160.541 71.5482 162.93C77.9331 165.278 80.8 169.159 82.0588 172.534C87.2456 166.397 92.1 167.352 94.2289 168.234C100.755 170.937 105.096 182.371 101.245 196.485L112.748 205.463C113.492 206.044 113.847 206.994 113.666 207.92C110.554 223.819 99.3226 233.736 79.3288 238.239C79.1452 238.28 78.9604 238.301 78.7774 238.301ZM65.6771 166.894C62.4601 166.894 59.3833 168.21 57.326 170.633C54.3043 174.193 53.2382 179.345 54.1591 185.944C56.7452 204.478 66.7081 210.172 67.131 210.406C67.5441 210.634 67.8996 210.982 68.1278 211.394L80.049 232.915C96.1221 228.886 105.427 220.86 108.421 208.445L96.8179 199.389C95.9936 198.746 95.6553 197.658 95.9692 196.66C99.8128 184.449 96.4288 174.571 92.3105 172.866C89.5244 171.71 86.0449 174.458 82.9453 180.219C82.1124 189.102 75.8731 198.54 71.0125 203.501C70.0439 204.49 68.4577 204.507 67.4682 203.538C66.4793 202.569 66.4629 200.982 67.4315 199.993C71.6226 195.715 77.3938 187.14 77.9892 179.618C77.9801 179.433 77.9911 179.245 78.0241 179.058C78.078 177.854 77.9929 176.682 77.7407 175.561C76.9116 171.883 74.32 169.291 69.818 167.635C68.4584 167.135 67.0545 166.894 65.6771 166.894Z" fill="#1E3A59"/>
<path d="M80.2795 213.213C80.0891 213.213 79.8983 213.207 79.7074 213.195L76.9023 213.022C71.7969 212.707 67.8432 208.294 68.0879 203.185L68.2421 199.969C68.3081 198.586 69.4726 197.523 70.8655 197.585C72.2484 197.652 73.3157 198.826 73.249 200.209L73.0949 203.425C72.9811 205.811 74.8273 207.871 77.2108 208.019L80.016 208.192C81.2399 208.263 82.4025 207.847 83.2947 207.008C84.1869 206.169 84.6783 205.033 84.6783 203.808V196.9C78.267 194.304 76.6069 187.181 76.5334 186.851C76.2324 185.5 77.0836 184.16 78.4347 183.859C79.7841 183.559 81.1187 184.405 81.4241 185.75C81.4853 186.01 82.8376 191.528 87.7289 192.615C88.8756 192.87 89.6914 193.887 89.6914 195.062V203.808C89.6914 206.392 88.6113 208.89 86.729 210.66C84.9852 212.299 82.6617 213.213 80.2795 213.213Z" fill="#1E3A59"/>
<path d="M85.5186 193.816L92.9299 190.57L88.8532 197.559L85.5186 193.816Z" fill="#1E3A59"/>
<g opacity="0.25">
<path d="M21.5664 145.708C21.5664 145.708 29.8801 150.366 31.6935 139.314L38.7421 140.374L37.1646 155.641L27.9149 151.861" fill="#371A45"/>
</g>
<g opacity="0.25">
<path d="M95.4559 229.538C90.7249 232.333 85.1041 234.369 78.7752 235.792L65.9357 212.607C65.9357 212.607 63.9305 211.535 61.4052 208.816C61.1734 208.571 60.9415 208.308 60.6971 208.032C58.6669 205.689 56.3922 202.311 54.5625 197.637C75.8552 187.936 75.1596 168.73 75.1596 168.73L80.1225 174.752C80.4044 176.601 80.3919 178.449 80.0034 180.455C79.2389 184.459 77.0081 189.089 72.7032 195.688C72.1706 196.502 71.638 197.286 71.0991 198.038C70.3471 199.09 69.5952 200.074 68.8495 200.995L70.5915 203.301L72.9351 208.816L81.2692 210.633L95.4559 229.538Z" fill="#1E3A59"/>
</g>
<g opacity="0.25">
<path d="M81.2719 179.867C82.1052 180.964 93.7154 191.224 99.3461 179.279L100.59 189.58C100.59 189.58 97.2224 196.943 96.9874 197.099C96.7524 197.256 86.5787 195.432 86.2565 195.063C85.9343 194.694 81.1303 190.938 80.8962 190.572C80.6621 190.207 80.3193 185.429 80.3193 185.429" fill="#1E3A59"/>
</g>
<path d="M225.34 226.026L251.724 224.977C254.67 224.86 257.243 226.954 257.728 229.862L259.197 238.672C259.752 242.005 257.378 245.114 254.017 245.456L225.34 248.375" fill="#FCFCFC"/>
<path d="M149.307 228.742C148.018 228.903 127.331 229.686 117.947 230.036C115.396 230.13 113.381 232.225 113.381 234.777V246.444C113.381 249.108 115.573 251.25 118.236 251.188L149.307 250.465" fill="#FCFCFC"/>
<path d="M225.336 250.883C224.065 250.883 222.977 249.921 222.845 248.63C222.705 247.253 223.708 246.023 225.085 245.883L253.762 242.963C254.691 242.869 255.515 242.408 256.082 241.665C256.649 240.923 256.877 240.007 256.723 239.085L255.255 230.276C254.978 228.617 253.498 227.414 251.822 227.483L225.438 228.531C224.049 228.586 222.889 227.509 222.834 226.126C222.779 224.743 223.856 223.577 225.239 223.522L251.623 222.474C255.849 222.315 259.508 225.306 260.199 229.451L261.668 238.261C262.046 240.53 261.462 242.879 260.067 244.707C258.671 246.535 256.558 247.718 254.27 247.951L225.593 250.87C225.506 250.879 225.421 250.883 225.336 250.883Z" fill="#1E3A59"/>
<path d="M118.124 253.696C116.22 253.696 114.428 252.967 113.061 251.631C111.652 250.255 110.877 248.413 110.877 246.444V234.778C110.877 230.86 113.943 227.677 117.857 227.531C136.342 226.843 147.988 226.366 149.009 226.254C150.375 226.11 151.625 227.086 151.785 228.454C151.944 229.821 150.987 231.06 149.62 231.23C148.597 231.358 137.973 231.799 118.043 232.541C116.835 232.586 115.89 233.568 115.89 234.778V246.444C115.89 247.052 116.129 247.621 116.564 248.045C117 248.471 117.605 248.709 118.181 248.682L149.252 247.96C150.621 247.935 151.783 249.023 151.816 250.407C151.848 251.791 150.752 252.939 149.368 252.971L118.297 253.694C118.24 253.695 118.182 253.696 118.124 253.696Z" fill="#1E3A59"/>
<path d="M231.608 252.498C231.903 259.773 226.245 265.901 218.97 266.189L160.568 268.527C153.299 268.821 147.165 263.163 146.877 255.888L146.356 242.948L145.542 222.532C145.254 215.257 150.912 209.129 158.181 208.841L216.582 206.503C218.412 206.428 220.173 206.735 221.783 207.343C226.57 209.16 230.054 213.697 230.274 219.142L231.608 252.498Z" fill="#FCFCFC"/>
<path d="M160.036 271.045C151.674 271.046 144.71 264.417 144.372 255.988L143.038 222.631C142.693 213.99 149.442 206.679 158.083 206.334L216.484 203.998C225.138 203.645 232.437 210.4 232.783 219.042L234.117 252.399C234.462 261.04 227.713 268.351 219.073 268.697L160.671 271.033C160.459 271.041 160.246 271.045 160.036 271.045ZM217.117 208.998C216.973 208.998 216.829 209.001 216.685 209.006L158.283 211.342C152.404 211.577 147.812 216.552 148.047 222.431L149.381 255.788C149.617 261.667 154.611 266.239 160.47 266.024L218.872 263.688C224.751 263.453 229.343 258.478 229.108 252.599L227.774 219.242C227.544 213.508 222.805 208.998 217.117 208.998Z" fill="#1E3A59"/>
<path d="M187.323 268.742C186.112 268.742 185.13 267.761 185.13 266.549V247.306C185.13 243.987 186.633 240.914 189.253 238.876L197.739 232.276C199.283 231.075 200.169 229.264 200.169 227.308V208.273C200.169 207.062 201.151 206.08 202.362 206.08C203.573 206.08 204.555 207.062 204.555 208.273V227.308C204.555 230.627 203.052 233.7 200.432 235.738L191.946 242.338C190.402 243.539 189.516 245.35 189.516 247.306V266.549C189.516 267.761 188.534 268.742 187.323 268.742Z" fill="#1E3A59"/>
<path d="M164.743 241.227C169.508 241.227 173.37 237.04 173.37 231.874C173.37 226.709 169.508 222.521 164.743 222.521C159.978 222.521 156.115 226.709 156.115 231.874C156.115 237.04 159.978 241.227 164.743 241.227Z" fill="#07C7FF"/>
<path d="M164.742 243.083C158.963 243.083 154.262 238.056 154.262 231.877C154.262 225.698 158.963 220.671 164.742 220.671C170.521 220.671 175.222 225.698 175.222 231.877C175.222 238.056 170.521 243.083 164.742 243.083ZM164.742 224.377C161.006 224.377 157.968 227.741 157.968 231.877C157.968 236.013 161.006 239.377 164.742 239.377C168.478 239.377 171.517 236.013 171.517 231.877C171.517 227.741 168.478 224.377 164.742 224.377Z" fill="#1E3A59"/>
<path d="M154.529 296.628C161.299 299.231 168.054 301.444 174.945 302.656C181.821 303.899 188.775 304.188 195.651 303.499C202.529 302.817 209.317 301.176 215.944 298.848C222.587 296.536 229.039 293.526 235.573 290.361C230.214 295.253 224.091 299.346 217.441 302.494C210.793 305.629 203.565 307.762 196.14 308.486C188.722 309.23 181.149 308.539 174.041 306.478C166.927 304.421 160.285 301.046 154.529 296.628Z" fill="#1E3A59"/>
<path d="M128.909 180.803C127.644 184.855 126.634 188.947 125.729 193.05C125.506 194.076 125.273 195.098 125.077 196.129C124.871 197.158 124.654 198.181 124.482 199.216C124.3 200.248 124.089 201.271 123.92 202.304L123.424 205.399C122.8 209.53 122.274 213.664 121.874 217.804C121.751 218.835 121.62 219.865 121.538 220.902L121.199 223.998C120.959 226.061 120.784 228.13 120.451 230.192L120.434 230.293C120.213 231.661 118.924 232.591 117.556 232.369C116.318 232.169 115.44 231.095 115.447 229.88C115.468 225.587 115.858 221.3 116.588 217.071L117.164 213.906C117.38 212.855 117.627 211.81 117.861 210.765C118.087 209.717 118.351 208.678 118.62 207.641C118.895 206.604 119.13 205.561 119.436 204.534C120.591 200.41 121.942 196.347 123.489 192.369C125.054 188.4 126.779 184.486 128.909 180.803Z" fill="#1E3A59"/>
<path d="M237.871 171.719C239.822 174.08 241.544 176.638 243.158 179.262C244.76 181.894 246.255 184.607 247.591 187.404C248.913 190.205 250.172 193.058 251.222 195.994C251.79 197.45 252.247 198.942 252.742 200.428C253.224 201.918 253.615 203.434 254.056 204.944C254.446 206.278 253.681 207.675 252.347 208.065C251.014 208.455 249.617 207.69 249.227 206.356C249.196 206.25 249.172 206.144 249.155 206.038L249.134 205.892C248.913 204.422 248.742 202.935 248.479 201.463C248.204 199.995 247.966 198.512 247.615 197.055C246.999 194.115 246.17 191.22 245.265 188.338C244.346 185.459 243.259 182.629 242.048 179.843C240.824 177.063 239.48 174.321 237.871 171.719Z" fill="#1E3A59"/>
<path d="M297.61 153.293C297.558 153.293 297.506 153.292 297.453 153.288C271.838 151.709 261.551 130.787 261.126 129.897C260.528 128.648 261.057 127.151 262.306 126.555C263.553 125.957 265.05 126.485 265.647 127.732C266.042 128.548 275.179 146.892 297.762 148.285C299.144 148.37 300.194 149.559 300.109 150.941C300.027 152.27 298.924 153.293 297.61 153.293Z" fill="#1E3A59"/>
<path d="M301.205 80.8507C301.684 81.0506 301.911 81.1722 302.231 81.3386C302.517 81.4983 302.808 81.6594 303.068 81.841C303.341 82.0146 303.601 82.199 303.85 82.3926C304.109 82.5783 304.353 82.7788 304.585 82.9909C305.069 83.3976 305.498 83.8527 305.931 84.3057C306.331 84.7833 306.741 85.2576 307.084 85.7747C308.517 87.8057 309.465 90.1235 309.943 92.4568C310.169 93.6232 310.355 94.7946 310.384 95.9571L310.431 96.8285L310.422 97.6735C310.407 98.2384 310.43 98.7938 310.374 99.3659C310.226 101.627 309.865 103.936 308.998 106.204L308.66 107.049L308.233 107.878C308.099 108.154 307.933 108.424 307.752 108.689C307.57 108.953 307.42 109.224 307.208 109.475C306.439 110.503 305.404 111.427 304.176 112.055C302.949 112.69 301.499 112.952 300.13 112.777C298.677 112.589 297.476 111.902 296.524 111.095C295.568 110.272 294.859 109.276 294.315 108.235C293.778 107.19 293.389 106.087 293.218 104.96C293.03 103.84 292.976 102.708 293.116 101.609C293.204 100.505 293.522 99.4469 293.862 98.4305C293.916 98.2661 294.094 98.1773 294.259 98.2324C294.404 98.2807 294.49 98.4247 294.471 98.5706L294.468 98.5868C294.201 100.631 294.34 102.682 295.001 104.502C295.653 106.305 296.799 107.926 298.25 108.833C298.961 109.284 299.731 109.542 300.381 109.515C301.105 109.495 301.778 109.247 302.371 108.846C303.575 108.048 304.378 106.504 304.832 104.798C305.304 103.087 305.437 101.179 305.37 99.2561C305.325 97.2966 305.111 95.4228 304.69 93.6699C304.246 91.9151 303.549 90.2937 302.599 88.8732C302.131 88.1583 301.588 87.5024 300.994 86.9129C300.847 86.7613 300.696 86.6181 300.54 86.4829C300.388 86.3389 300.232 86.2051 300.071 86.0826C299.912 85.9494 299.754 85.8392 299.598 85.7174C299.466 85.6184 299.237 85.4801 299.239 85.462L299.633 81.7811C299.7 81.1552 300.262 80.7023 300.888 80.7693C300.998 80.7809 301.108 80.8105 301.205 80.8507Z" fill="#1E3A59"/>
<path d="M310.239 98.1758C310.233 98.2373 310.287 98.4351 310.321 98.5734L310.453 99.0408C310.55 99.3555 310.661 99.6709 310.78 99.9845C311.021 100.611 311.309 101.223 311.637 101.81C312.294 102.983 313.126 104.057 314.176 104.888C315.218 105.734 316.5 106.303 317.922 106.53C319.343 106.739 320.871 106.611 322.361 106.238C321.028 106.995 319.54 107.573 317.912 107.784C317.099 107.876 316.259 107.871 315.415 107.758C314.572 107.643 313.74 107.399 312.939 107.068C311.332 106.403 309.902 105.351 308.682 104.135C308.07 103.525 307.503 102.872 306.983 102.181C306.724 101.834 306.474 101.48 306.234 101.112L305.883 100.545C305.763 100.335 305.666 100.183 305.527 99.8885L310.239 98.1758Z" fill="#1E3A59"/>
<path d="M162.357 355.011C160.519 355.011 158.647 354.933 156.742 354.777C144.973 353.814 136.193 350.253 135.824 350.102C134.544 349.576 133.932 348.112 134.458 346.831C134.983 345.552 136.446 344.938 137.727 345.464V345.464C138.059 345.6 171.169 358.806 192.602 339.26C193.625 338.327 195.21 338.4 196.144 339.423C197.076 340.446 197.003 342.031 195.98 342.964C187.283 350.895 175.742 355.011 162.357 355.011Z" fill="#1E3A59"/>
<path d="M224.807 351.045C215.937 351.045 209.48 349.39 208.891 349.233C207.553 348.878 206.757 347.505 207.112 346.167C207.467 344.83 208.841 344.035 210.176 344.387C210.476 344.467 240.473 352.089 259.782 332.886C260.763 331.909 262.351 331.914 263.326 332.896C264.302 333.877 264.298 335.464 263.316 336.44C251.338 348.354 236.112 351.045 224.807 351.045Z" fill="#1E3A59"/>
<path d="M266.173 364.717C266.083 364.694 265.839 364.678 265.65 364.668C265.452 364.653 265.237 364.654 265.027 364.647C264.604 364.644 264.172 364.643 263.736 364.666C262.864 364.696 261.978 364.779 261.092 364.889C259.316 365.11 257.535 365.472 255.762 365.926C253.999 366.409 252.233 366.964 250.507 367.648C249.63 367.964 248.793 368.367 247.927 368.725C247.077 369.112 246.241 369.533 245.391 369.939C246.126 369.359 246.855 368.757 247.608 368.186C248.377 367.642 249.125 367.049 249.925 366.539C251.496 365.464 253.149 364.498 254.852 363.59C256.568 362.71 258.344 361.907 260.197 361.237C261.125 360.902 262.067 360.592 263.042 360.335C263.526 360.198 264.021 360.085 264.526 359.974C264.781 359.923 265.03 359.867 265.298 359.824C265.575 359.778 265.797 359.736 266.174 359.704L266.606 359.668C268.021 359.547 269.265 360.597 269.385 362.012C269.506 363.427 268.456 364.671 267.041 364.791C266.745 364.817 266.446 364.787 266.173 364.717Z" fill="#1E3A59"/>
<path d="M146.562 366.881L156.201 371.822L145.37 371.75C143.947 371.741 142.801 370.58 142.811 369.157C142.82 367.734 143.981 366.588 145.404 366.598C145.817 366.6 146.217 366.706 146.562 366.881Z" fill="#1E3A59"/>
<path d="M251.901 213.331C250.787 213.331 249.771 212.584 249.477 211.456C249.128 210.117 249.93 208.748 251.27 208.399L261.053 205.847C262.395 205.496 263.762 206.3 264.111 207.64C264.46 208.979 263.658 210.348 262.319 210.698L252.535 213.249C252.323 213.305 252.11 213.331 251.901 213.331Z" fill="#1E3A59"/>
<g opacity="0.25">
<path d="M104.101 222.451C104.101 222.451 113.066 222.476 120.744 208.272L117.948 226.079L116.098 231.092L114.218 235.792L112.422 246.433C112.422 246.433 91.8163 252.397 83.2002 235.792C83.2002 235.792 93.6713 236.526 104.101 222.451Z" fill="#1E3A59"/>
</g>
<g opacity="0.25">
<path d="M328.992 112.973C320.063 131.928 309.253 131.302 309.253 131.302C309.253 131.302 278.517 187.698 251.51 203.99C251.51 203.99 252.074 213.596 252.77 226.492C254.443 226.906 256.792 227.539 256.792 227.539C256.792 227.539 258.284 233.222 258.647 235.378C259.004 237.527 259.117 242.465 257.739 243.58C256.561 244.539 255.151 246.394 253.785 246.156C254.405 258.801 254.975 271.69 255.207 280.751C255.796 303.686 264.939 355.32 266.06 361.586C262.495 361.974 258.967 362.212 258.967 362.212C258.967 362.212 253.641 315.529 246.748 294.85C243.007 283.621 243.032 270.274 243.834 260.417L238.558 261.639C234.861 287.018 188.365 279.078 172.913 276.572C157.454 274.065 157.021 268.188 157.021 268.188L160.587 269.472L215.937 266.546L227.429 262.999L231.621 255.267V248.374H245.357C245.588 247.039 245.745 246.3 245.745 246.3C250.069 243.386 246.008 225.208 246.008 225.208L242.305 224.976L240.162 175.203L243 180.316C284.307 151.799 299.904 120.01 299.904 120.01C328.441 113.487 324.167 86.6799 324.079 86.1348C329.092 91.8684 334.425 101.443 328.992 112.973Z" fill="#1E3A59"/>
</g>
<g opacity="0.25">
<path d="M283.261 387.436C282.785 391.026 280.084 393.921 276.525 394.592C266.938 396.39 245.82 399.009 218.832 394.278C215.924 393.771 213.737 391.346 213.549 388.401C212.772 376.257 210.498 345.232 207.164 335.896C203.254 324.93 194.926 309.559 193.905 307.679L193.479 306.225L205.698 303.155L215.887 302.058L230.017 293.943C229.553 294.401 212.058 311.808 218.55 334.661C225.129 357.828 220.893 389.798 252.074 388.62C283.261 387.436 277.145 366.08 277.145 366.08C281.35 369.433 284.809 375.711 283.261 387.436Z" fill="#1E3A59"/>
</g>
<g opacity="0.25">
<path d="M187.026 396.738C170.608 397.935 144.998 397.446 133.262 397.045C131.683 396.995 130.323 395.924 129.903 394.401C128.856 390.572 127.509 383.178 130.598 377.394C130.674 377.445 130.749 377.507 130.824 377.564C161.842 401.689 181.154 388.279 181.894 355.318C182.633 322.358 161.391 300.088 161.391 300.088L193.48 306.223C193.48 306.223 193.587 307.094 193.781 308.648C193.33 333.8 194.859 358.583 198.142 383.04C199.07 389.958 193.988 396.231 187.026 396.738Z" fill="#1E3A59"/>
</g>
<g opacity="0.25">
<path d="M231.61 252.498C231.904 259.773 226.246 265.902 218.971 266.19L160.569 268.527C153.3 268.822 147.166 263.163 146.878 255.888L146.357 242.948C191.6 265.062 219.303 257.524 221.784 207.344C226.571 209.161 230.056 213.698 230.275 219.143L231.61 252.498Z" fill="#1E3A59"/>
</g>
<g opacity="0.25">
<path d="M113.381 244.565L137.558 242.946C137.558 242.946 144.872 241.432 146.071 235.792L147.741 254.121V259.914L117.947 261.64L116.832 251.189L113.381 249.421" fill="#1E3A59"/>
</g>
<g opacity="0.25">
<path d="M123.314 299.731C121.084 299.481 119.191 299.142 117.581 298.754C112.417 297.513 108.689 293.02 108.451 287.719L108.275 283.853C112.85 283.076 117.869 280.845 120.012 275.111L123.314 299.731Z" fill="#1E3A59"/>
</g>
<g opacity="0.25">
<path d="M258.836 239.968H271.196L270.863 257.379L267.964 259.746H255.676L253.783 246.158L256.794 245.35" fill="#1E3A59"/>
</g>
<g opacity="0.25">
<path d="M266.8 266.55C264.152 273.845 260.266 277.468 254.895 276.68L255.991 292.032C255.991 292.032 266.289 285.645 266.627 284.931C266.965 284.217 268.054 277.62 267.897 276.367" fill="#1E3A59"/>
</g>
<g opacity="0.25">
<path d="M244.731 150.785C238.559 200.796 160.275 207.344 133.33 167.341L135.711 166.99C145.587 172.172 171.623 182.16 207.597 168.312C208.562 168.581 209.089 168.732 209.089 168.732C221.696 165.505 233.59 159.508 243.96 150.898L244.731 150.785Z" fill="#1E3A59"/>
</g>
</svg>
