<svg width="247" height="300" viewBox="0 0 247 300" fill="none" xmlns="http://www.w3.org/2000/svg">
<path d="M175.454 140.17V206.608C175.454 215.527 168.226 222.755 159.306 222.755H88.1242C79.2046 222.755 71.9766 215.527 71.9766 206.608V140.17C71.9766 137.08 72.8424 134.194 74.3426 131.743C74.5458 131.409 74.7617 131.088 74.9849 130.771C77.92 126.685 82.7089 124.019 88.1242 124.019H159.306C164.766 124.019 169.6 126.73 172.519 130.885C172.746 131.205 172.962 131.539 173.169 131.877C174.62 134.3 175.454 137.137 175.454 140.17Z" fill="white"/>
<path d="M159.306 224.481H88.121C78.2658 224.481 70.248 216.463 70.248 206.608V140.168C70.248 130.312 78.2658 122.294 88.121 122.294H159.306C169.161 122.294 177.179 130.312 177.179 140.168V206.608C177.179 216.463 169.161 224.481 159.306 224.481ZM88.121 125.748C80.1701 125.748 73.7012 132.216 73.7012 140.168V206.608C73.7012 214.559 80.1701 221.028 88.121 221.028H159.306C167.257 221.028 173.725 214.559 173.725 206.608V140.168C173.725 132.216 167.257 125.748 159.306 125.748H88.121Z" fill="#1E3A59"/>
<path d="M221.173 134.465C221.173 134.465 219.378 165.876 195.466 173.919C193.527 174.572 191.444 175.069 189.202 175.384C180.534 176.604 174.087 173.678 169.743 170.325C165.092 166.739 162.846 162.662 162.846 162.662L159.318 148.076L155.254 131.24L153.4 123.577C153.4 123.577 163.246 133.264 173.517 136.353C177.126 137.437 180.79 137.705 184.101 136.454C188.449 134.807 192.179 130.529 194.37 122.027L221.173 134.465Z" fill="#F8C099"/>
<path d="M195.466 173.919C193.527 174.572 191.444 175.07 189.202 175.384C180.534 176.604 174.087 173.679 169.744 170.325C165.092 166.739 162.846 162.663 162.846 162.663L159.318 148.076L155.254 131.24L153.4 123.578C153.4 123.578 163.246 133.264 173.516 136.354C177.126 137.438 180.79 137.706 184.101 136.455C183.499 140.231 181.73 153.431 184.645 162.511C187.128 170.252 189.762 173.442 195.466 173.919Z" fill="white"/>
<g opacity="0.25">
<path d="M189.209 176.432C171.25 178.961 162.852 163.709 162.852 163.709C162.349 161.485 164.96 159.875 166.704 161.345C171.036 164.997 177.784 168.481 187.114 167.167C208.216 164.198 220.019 143.086 198.885 132.566L221.175 135.513C221.175 135.512 219.08 172.229 189.209 176.432Z" fill="#1E3A59"/>
</g>
<path d="M185.283 177.391C169.187 177.391 161.417 163.647 161.334 163.496C160.874 162.661 161.178 161.611 162.014 161.151C162.849 160.691 163.899 160.996 164.359 161.831C164.68 162.407 172.443 175.994 188.964 173.674C200.689 172.024 209.372 164.982 214.77 152.744C218.015 145.387 219.049 138.242 219.343 135.52L195.484 124.448C193.083 132.212 189.057 136.924 183.498 138.466C170.053 142.197 152.912 125.522 152.189 124.81C151.51 124.141 151.501 123.049 152.17 122.369C152.838 121.689 153.931 121.68 154.611 122.348C154.774 122.508 171.054 138.338 182.578 135.137C187.319 133.82 190.725 129.265 192.702 121.598L193.219 119.59L222.963 133.393L222.896 134.564C222.874 134.951 222.304 144.167 217.971 154.042C212.147 167.316 202.283 175.287 189.445 177.094C188.001 177.297 186.613 177.391 185.283 177.391Z" fill="#1E3A59"/>
<path d="M195.2 175.116C192.15 175.116 189.546 174.066 187.436 171.978C178.371 163.007 182.278 137.257 182.449 136.165C182.597 135.223 183.476 134.577 184.422 134.726C185.364 134.873 186.008 135.756 185.861 136.698C184.776 143.653 183.38 163.108 189.866 169.524C191.718 171.355 194.085 172.001 197.106 171.495C198.044 171.339 198.936 171.973 199.094 172.914C199.251 173.854 198.616 174.745 197.676 174.902C196.821 175.045 195.995 175.116 195.2 175.116Z" fill="#1E3A59"/>
<path d="M191.641 122.236C194.428 139.319 211.474 139.023 216.219 138.238C226.115 136.599 230.135 127.689 230.135 127.689L223.071 116.742L220.006 110.875L215.937 109.312C213.111 103.104 206.649 95.8208 202.469 97.9067C202.469 97.9067 189.238 107.511 191.641 122.236Z" fill="#F8C099"/>
<g opacity="0.25">
<path d="M231.977 123.429C231.586 128.656 224.383 132.888 209.769 130.065C204.621 129.071 200.619 125.118 201.011 119.89C201.402 114.662 205.958 110.74 211.186 111.132C216.415 111.523 232.369 118.2 231.977 123.429Z" fill="#1E3A59"/>
</g>
<path d="M232.729 105.422C228.568 109.017 224.965 111.628 224.965 111.628L213.27 121.93L207.279 103.478C207.279 103.478 207.506 99.8618 208.146 95.1006C209.404 85.6728 212.26 71.7615 218.084 72.5624C228.559 74.0044 219.521 101.198 219.521 101.198C219.521 101.198 237.998 80.0575 244.251 86.9233C247.91 90.9411 239.564 99.5122 232.729 105.422Z" fill="#F8C099"/>
<g opacity="0.25">
<path d="M232.731 106.47C228.57 110.065 224.967 112.676 224.967 112.676L213.272 122.978L207.281 104.527C207.281 104.527 207.508 100.91 208.148 96.1489C210.802 98.5889 215.761 103.031 217.42 105.58C220.279 109.969 228.545 105.332 232.731 106.47Z" fill="#1E3A59"/>
</g>
<path d="M213.269 123.659C213.117 123.659 212.963 123.638 212.813 123.597C212.252 123.444 211.806 123.018 211.626 122.465L205.637 104.009C205.57 103.802 205.543 103.584 205.556 103.367C205.723 100.749 207.375 77.6298 214.101 72.1323C215.376 71.0904 216.835 70.6477 218.319 70.8517C220.363 71.1331 222.027 72.2213 223.133 73.9987C226.147 78.8427 224.649 88.3902 223.07 94.9646C227.948 90.1915 235.425 83.8832 240.922 83.8273C240.947 83.8271 240.972 83.8269 240.997 83.8269C242.809 83.8269 244.374 84.4953 245.528 85.7629C246.551 86.8863 247.003 88.3423 246.835 89.9734C245.986 98.228 228.387 111.274 226.046 112.975L214.41 123.228C214.091 123.509 213.684 123.659 213.269 123.659ZM209.025 103.259L214.1 118.898L223.824 110.33C223.865 110.294 223.908 110.26 223.952 110.228C231.192 104.981 242.873 94.7465 243.4 89.6196C243.487 88.7718 243.219 88.3558 242.975 88.088C242.465 87.5282 241.819 87.2766 240.957 87.2806C235.189 87.3384 224.465 98.1689 220.819 102.337C220.278 102.956 219.376 103.108 218.662 102.699C217.948 102.291 217.621 101.436 217.881 100.656C219.601 95.4761 223.371 80.917 220.2 75.8223C219.631 74.9078 218.884 74.4156 217.849 74.2731C217.514 74.2276 216.989 74.2326 216.287 74.8062C211.645 78.6 209.498 96.3135 209.025 103.259Z" fill="#1E3A59"/>
<path d="M232.267 125.901C229.376 129.898 218.286 131.035 214.46 127.581C211.205 124.64 214.912 121.481 215.96 120.686C216.123 120.559 216.224 120.495 216.224 120.495C216.224 120.495 212.116 118.892 211.646 115.295C211.615 115.063 211.6 114.821 211.604 114.567C211.652 110.462 222.827 107.752 227.722 108.92C231.38 109.794 232.68 111.408 232.908 113.047C233.152 114.793 232.179 116.568 231.547 117.509C231.256 117.939 231.04 118.192 231.04 118.192C231.04 118.192 234.585 122.7 232.267 125.901Z" fill="#F8C099"/>
<g opacity="0.25">
<path d="M231.549 118.558C228.511 119.838 222.455 121.947 215.962 121.735C216.126 121.608 216.227 121.544 216.227 121.544C216.227 121.544 212.118 119.94 211.648 116.344C215.465 117.483 226.063 119.904 232.911 114.096C233.154 115.842 232.181 117.617 231.549 118.558Z" fill="#1E3A59"/>
</g>
<g opacity="0.25">
<path d="M232.262 126.949C229.371 130.946 218.28 132.083 214.454 128.629C212.854 127.185 212.937 125.689 213.558 124.444C213.729 124.664 213.933 124.885 214.176 125.105C217.997 128.558 229.087 127.421 231.978 123.429C232.278 123.014 232.483 122.579 232.603 122.131C233.14 123.616 233.359 125.428 232.262 126.949Z" fill="#1E3A59"/>
</g>
<path d="M221.668 131.363C218.119 131.363 215.09 130.477 213.303 128.864C211.616 127.341 211.355 125.738 211.434 124.661C211.547 123.108 212.41 121.771 213.292 120.79C211.688 119.608 209.844 117.586 209.877 114.551C209.888 113.553 210.291 112.06 212.145 110.612C216.05 107.564 224.078 106.274 228.122 107.239C231.555 108.059 233.668 109.618 234.403 111.875C235.215 114.37 234.029 116.849 233.14 118.232C234.239 120.059 235.92 123.8 233.664 126.915C232.04 129.158 228.447 130.773 224.053 131.235C223.238 131.321 222.44 131.363 221.668 131.363ZM224.968 110.369C221.476 110.369 216.623 111.498 214.27 113.335C213.677 113.798 213.334 114.255 213.33 114.589C213.299 117.431 216.821 118.875 216.857 118.889C217.451 119.127 217.869 119.677 217.936 120.314C218.002 120.951 217.714 121.575 217.181 121.931C216.467 122.415 214.956 123.786 214.878 124.915C214.858 125.205 214.912 125.664 215.617 126.3C217.012 127.559 220.256 128.162 223.691 127.801C226.972 127.456 229.856 126.285 230.867 124.889C232.354 122.835 229.707 119.296 229.679 119.261C229.17 118.614 229.188 117.698 229.723 117.072C230.234 116.464 231.596 114.391 231.117 112.938C230.693 111.652 228.818 110.956 227.32 110.598C226.669 110.443 225.863 110.369 224.968 110.369Z" fill="#1E3A59"/>
<path d="M219.435 122.433C218.322 122.433 217.17 122.364 215.992 122.206C215.046 122.08 214.383 121.211 214.51 120.265C214.637 119.32 215.506 118.656 216.451 118.784C223.78 119.767 230.209 116.675 230.273 116.643C231.128 116.224 232.163 116.577 232.583 117.432C233.003 118.287 232.653 119.32 231.799 119.742C231.542 119.868 226.254 122.433 219.435 122.433Z" fill="#1E3A59"/>
<path d="M202.47 97.9082C208.019 95.1386 217.578 108.865 217.337 114.686C217.153 119.128 211.626 122.433 205.777 116.308C199.849 110.102 193.756 102.258 202.47 97.9082Z" fill="white"/>
<path d="M230.136 127.692C230.136 127.692 226.113 136.598 216.221 138.237C211.475 139.023 194.429 139.32 191.641 122.235C189.238 107.511 202.47 97.9082 202.47 97.9082C208.019 95.1385 217.579 108.864 217.337 114.686C217.153 119.129 210.378 121.149 205.444 112.937C205.444 112.937 207.82 120.239 201.253 124.607L203.597 129.196L215.246 134.125L226.466 132.795L230.136 127.692Z" fill="#F8C099"/>
<path d="M204.396 121.429L204.117 121.24C204.35 121.084 204.563 120.932 204.767 120.77C204.655 120.987 204.533 121.208 204.396 121.429Z" fill="white"/>
<g opacity="0.25">
<path d="M205.768 112.688C205.204 109.766 212.883 117.672 217.303 116.119C216.828 119.702 211.933 121.438 207.525 116.774C207.417 114.448 205.768 112.688 205.768 112.688Z" fill="#1E3A59"/>
</g>
<g opacity="0.25">
<path d="M224.573 133.018L226.466 132.795C224.22 135.094 220.865 137.468 216.219 138.239C211.471 139.025 194.426 139.318 191.639 122.235C190.004 112.216 195.612 104.563 199.361 100.702C196.226 104.959 193.256 111.226 194.502 118.868C197.732 138.674 213.891 135.733 219.082 134.873C221.167 134.525 222.993 133.859 224.573 133.018Z" fill="#1E3A59"/>
</g>
<path d="M230.132 127.699C230.091 127.787 229.771 128.469 229.136 129.453L228.846 129.489L230.132 127.699Z" fill="white"/>
<path d="M229.328 129.429C229.162 129.599 228.991 129.773 228.811 129.942C228.924 129.773 229.032 129.608 229.135 129.453L229.328 129.429Z" fill="white"/>
<path d="M197.409 134.562C195.876 133.571 194.512 132.264 193.42 130.755C192.866 130.005 192.393 129.198 191.964 128.371C191.545 127.541 191.192 126.677 190.895 125.8C189.728 122.31 189.407 118.498 189.999 114.817C190.29 112.979 190.798 111.181 191.48 109.463C192.168 107.747 193.029 106.112 194.019 104.571C195.014 103.033 196.134 101.586 197.358 100.237C197.969 99.5617 198.605 98.9096 199.27 98.2827C199.604 97.9701 199.941 97.6612 200.292 97.3603C200.651 97.0518 200.977 96.7778 201.41 96.4522L201.458 96.416C201.521 96.3684 201.593 96.3279 201.663 96.2981C201.962 96.1733 202.262 96.0371 202.571 95.9486C202.884 95.8823 203.206 95.7831 203.517 95.7718C203.83 95.753 204.152 95.7214 204.446 95.7583C204.748 95.7798 205.049 95.807 205.323 95.8769C206.451 96.1135 207.398 96.5742 208.248 97.0856C209.102 97.6002 209.846 98.1942 210.546 98.8137C211.25 99.4328 211.892 100.091 212.497 100.772C213.712 102.133 214.777 103.588 215.73 105.118C216.671 106.656 217.51 108.259 218.167 109.997C218.491 110.872 218.774 111.776 218.956 112.762C218.997 113.012 219.048 113.253 219.066 113.52C219.091 113.783 219.12 114.04 219.114 114.325L219.114 114.743L219.075 115.191C219.038 115.489 218.984 115.791 218.898 116.085C218.585 117.275 217.822 118.36 216.842 119.097C215.852 119.828 214.665 120.219 213.522 120.273C212.371 120.345 211.274 120.101 210.29 119.717C209.303 119.328 208.437 118.773 207.665 118.152C206.119 116.9 204.99 115.358 204.05 113.778L204.047 113.774L206.987 112.433C207.09 112.835 207.134 113.112 207.182 113.439C207.227 113.753 207.259 114.066 207.278 114.378C207.309 114.689 207.301 115.003 207.312 115.313C207.311 115.624 207.291 115.936 207.28 116.245C207.193 117.487 206.92 118.723 206.449 119.879C206.334 120.17 206.222 120.46 206.064 120.731C205.914 121.004 205.778 121.284 205.614 121.547C205.258 122.057 204.923 122.577 204.49 123.014C204.1 123.491 203.624 123.871 203.168 124.265C202.949 124.474 202.685 124.619 202.442 124.791L201.7 125.284C201.328 125.532 200.825 125.431 200.577 125.058C200.348 124.715 200.417 124.26 200.722 123.998L200.8 123.93L201.386 123.423C201.576 123.251 201.788 123.103 201.947 122.902C202.286 122.524 202.643 122.167 202.906 121.741C203.214 121.349 203.422 120.897 203.655 120.468C203.758 120.247 203.834 120.012 203.925 119.787C204.024 119.566 204.08 119.327 204.141 119.091C204.393 118.154 204.488 117.176 204.435 116.201C204.411 115.957 204.399 115.714 204.369 115.472C204.328 115.231 204.309 114.988 204.253 114.752C204.208 114.513 204.155 114.278 204.091 114.049C204.034 113.833 203.95 113.569 203.896 113.439C203.548 112.622 203.929 111.678 204.746 111.331C205.464 111.025 206.281 111.283 206.704 111.905L206.835 112.099L206.838 112.102C207.668 113.424 208.646 114.63 209.776 115.504C210.887 116.389 212.187 116.905 213.303 116.813C213.861 116.78 214.349 116.583 214.729 116.298C215.095 115.999 215.368 115.617 215.477 115.15C215.511 115.037 215.527 114.915 215.541 114.791L215.555 114.602L215.549 114.382C215.554 114.241 215.529 114.074 215.512 113.913C215.503 113.754 215.462 113.578 215.434 113.408C215.303 112.719 215.076 111.991 214.805 111.269C213.67 108.372 211.874 105.562 209.788 103.187C209.263 102.594 208.714 102.031 208.138 101.523C207.564 101.014 206.969 100.541 206.361 100.177C205.758 99.8094 205.14 99.5333 204.598 99.4223C204.05 99.3097 203.636 99.3488 203.271 99.5183L203.524 99.3642C203.264 99.5565 202.923 99.8317 202.624 100.086C202.316 100.346 202.013 100.619 201.713 100.895C201.114 101.449 200.537 102.031 199.982 102.634C198.871 103.838 197.855 105.128 196.959 106.487C196.069 107.849 195.281 109.272 194.658 110.76C194.041 112.247 193.579 113.792 193.304 115.367C192.741 118.515 193 121.778 193.826 124.908C194.241 126.462 194.815 127.962 195.582 129.372C196.35 130.781 197.312 132.09 198.442 133.306L198.453 133.317C198.76 133.648 198.742 134.166 198.411 134.474C198.13 134.735 197.716 134.76 197.409 134.562Z" fill="#1E3A59"/>
<path d="M231.617 128.361C231.425 128.822 231.259 129.163 231.056 129.535C230.861 129.9 230.648 130.249 230.426 130.592C230.21 130.94 229.964 131.264 229.729 131.597C229.481 131.92 229.225 132.236 228.966 132.549C227.912 133.79 226.675 134.873 225.344 135.808C224.694 136.297 223.966 136.678 223.27 137.088C222.529 137.429 221.813 137.807 221.038 138.053C219.529 138.636 217.922 138.89 216.354 139.04C215.907 139.082 215.509 138.754 215.467 138.307C215.43 137.921 215.669 137.572 216.023 137.456L216.088 137.435C217.471 136.982 218.82 136.522 220.046 135.809C220.684 135.511 221.25 135.079 221.845 134.72C222.402 134.291 222.972 133.895 223.484 133.417C224.536 132.503 225.483 131.475 226.348 130.386C226.557 130.108 226.765 129.83 226.98 129.557C227.176 129.271 227.386 128.993 227.579 128.706C227.771 128.419 227.967 128.133 228.147 127.843C228.326 127.565 228.518 127.242 228.654 127.023L228.738 126.886C229.208 126.123 230.208 125.885 230.971 126.356C231.66 126.781 231.919 127.637 231.617 128.361Z" fill="#1E3A59"/>
<path d="M25.6973 134.465C25.6973 134.465 27.4921 165.876 51.4039 173.919C53.343 174.572 55.4257 175.069 57.668 175.384C66.3368 176.604 72.7827 173.678 77.1268 170.325C81.7778 166.739 84.0239 162.662 84.0239 162.662L87.5517 148.076L91.6162 131.24L93.4696 123.577C93.4696 123.577 83.6235 133.264 73.3538 136.353C69.7443 137.437 66.0802 137.705 62.7695 136.454C58.4213 134.807 54.6914 130.529 52.4998 122.027L25.6973 134.465Z" fill="#F8C099"/>
<path d="M51.4004 173.919C53.3395 174.572 55.4222 175.07 57.6642 175.384C66.3329 176.604 72.7792 173.679 77.1229 170.325C81.7743 166.739 84.02 162.663 84.02 162.663L87.5482 148.076L91.6127 131.24L93.4661 123.578C93.4661 123.578 83.62 133.264 73.3504 136.354C69.7405 137.438 66.0768 137.706 62.7661 136.455C63.3682 140.231 65.1362 153.431 62.2218 162.511C59.739 170.252 57.1044 173.442 51.4004 173.919Z" fill="white"/>
<g opacity="0.25">
<path d="M57.6578 176.432C75.6172 178.961 84.014 163.709 84.014 163.709C84.5169 161.485 81.9058 159.875 80.1626 161.345C75.831 164.997 69.0823 168.481 59.7525 167.167C38.6501 164.198 26.8467 143.086 47.9808 132.566L25.6914 135.513C25.6914 135.513 27.7862 172.229 57.6578 176.432Z" fill="#1E3A59"/>
</g>
<path d="M61.5871 177.391C60.2555 177.391 58.8699 177.297 57.424 177.094C44.5866 175.287 34.7227 167.316 28.8982 154.042C24.5649 144.167 23.9953 134.952 23.9732 134.564L23.9062 133.393L53.65 119.59L54.1676 121.598C56.1442 129.265 59.5503 133.82 64.2915 135.137C75.8161 138.338 92.095 122.508 92.2582 122.348C92.9389 121.679 94.0318 121.689 94.6999 122.369C95.3684 123.049 95.3597 124.141 94.6802 124.81C93.9568 125.522 76.814 142.194 63.3722 138.466C57.8127 136.924 53.7865 132.212 51.3857 124.448L27.526 135.52C27.8201 138.241 28.8545 145.386 32.0998 152.744C37.498 164.982 46.1801 172.024 57.9051 173.674C74.4312 175.999 82.1903 162.407 82.5124 161.827C82.9755 160.995 84.0254 160.693 84.8585 161.154C85.6918 161.615 85.9953 162.662 85.5359 163.496C85.453 163.647 77.6809 177.389 61.5871 177.391Z" fill="#1E3A59"/>
<path d="M51.6695 175.116C50.8745 175.116 50.0492 175.044 49.1943 174.902C48.2537 174.744 47.6186 173.854 47.7759 172.913C47.9334 171.973 48.8265 171.341 49.7637 171.495C52.783 171.999 55.1528 171.355 57.0048 169.523C63.4966 163.099 62.0965 143.65 61.0092 136.698C60.8618 135.756 61.5061 134.873 62.4483 134.726C63.3914 134.58 64.2738 135.222 64.4211 136.165C64.592 137.257 68.4991 163.007 59.4339 171.977C57.3243 174.065 54.72 175.116 51.6695 175.116Z" fill="#1E3A59"/>
<path d="M55.2294 122.236C52.4427 139.319 35.3971 139.023 30.6521 138.238C20.756 136.599 16.7363 127.689 16.7363 127.689L23.7993 116.742L26.865 110.875L30.9343 109.312C33.7596 103.104 40.2217 95.8208 44.4021 97.9067C44.4021 97.9067 57.6324 107.511 55.2294 122.236Z" fill="#F8C099"/>
<g opacity="0.25">
<path d="M14.8821 123.429C15.2736 128.656 22.4772 132.888 37.091 130.065C42.2388 129.071 46.2402 125.118 45.8488 119.89C45.4573 114.662 40.9018 110.74 35.6739 111.132C30.4451 111.523 14.4906 118.2 14.8821 123.429Z" fill="#1E3A59"/>
</g>
<path d="M14.1417 105.422C18.3032 109.017 21.9067 111.628 21.9067 111.628L33.6012 121.93L39.5918 103.478C39.5918 103.478 39.3645 99.8618 38.725 95.1006C37.4668 85.6728 34.6114 71.7615 28.7867 72.5624C18.3121 74.0044 27.3504 101.198 27.3504 101.198C27.3504 101.198 8.87336 80.0575 2.62017 86.9233C-1.03848 90.9411 7.3067 99.5122 14.1417 105.422Z" fill="#F8C099"/>
<g opacity="0.25">
<path d="M14.1406 106.47C18.3022 110.065 21.9057 112.676 21.9057 112.676L33.6002 122.978L39.5907 104.527C39.5907 104.527 39.3635 100.91 38.724 96.1489C36.0698 98.5889 31.1118 103.031 29.4515 105.58C26.5925 109.969 18.327 105.332 14.1406 106.47Z" fill="#1E3A59"/>
</g>
<path d="M33.601 123.659C33.1857 123.659 32.7788 123.509 32.4595 123.227L20.8243 112.975C18.483 111.274 0.884134 98.228 0.0342233 89.9733C-0.133644 88.3423 0.318233 86.8863 1.34139 85.7628C2.51175 84.4777 4.10341 83.8123 5.94841 83.8273C11.4448 83.8831 18.9219 90.1916 23.7995 94.9646C22.2205 88.3902 20.7234 78.8426 23.7368 73.9986C24.8424 72.2213 26.507 71.133 28.5504 70.8516C30.0343 70.6479 31.4941 71.0899 32.769 72.1322C39.4942 77.6297 41.1474 100.749 41.3138 103.367C41.3275 103.584 41.3002 103.802 41.2329 104.009L35.2434 122.465C35.0638 123.018 34.6181 123.444 34.0571 123.597C33.9066 123.638 33.7534 123.659 33.601 123.659ZM5.87024 87.2804C5.02456 87.2804 4.39617 87.5376 3.89478 88.0881C3.65086 88.3559 3.38233 88.7718 3.46972 89.6199C3.99784 94.751 15.679 104.983 22.9177 110.228C22.962 110.26 23.005 110.294 23.0461 110.33L32.7701 118.898L37.8455 103.259C37.3718 96.3136 35.2253 78.6 30.5831 74.8061C29.8806 74.2317 29.3541 74.2265 29.0213 74.2731C27.9859 74.4156 27.2386 74.9078 26.6696 75.8222C23.4992 80.9167 27.2693 95.476 28.9893 100.656C29.2485 101.436 28.9215 102.291 28.2079 102.699C27.4938 103.108 26.592 102.956 26.0507 102.337C22.4052 98.1688 11.6808 87.3385 5.91264 87.2806C5.89841 87.2804 5.88438 87.2804 5.87024 87.2804Z" fill="#1E3A59"/>
<path d="M14.6044 125.901C17.4956 129.898 28.586 131.035 32.4119 127.581C35.6665 124.64 31.9598 121.481 30.9113 120.686C30.7488 120.559 30.6479 120.495 30.6479 120.495C30.6479 120.495 34.7558 118.892 35.2262 115.295C35.2566 115.063 35.2721 114.821 35.2672 114.567C35.2192 110.462 24.0447 107.752 19.1506 108.92C15.4914 109.794 14.1914 111.408 13.9641 113.047C13.7202 114.793 14.6929 116.568 15.3247 117.509C15.6162 117.939 15.8321 118.192 15.8321 118.192C15.8321 118.192 12.2868 122.7 14.6044 125.901Z" fill="#F8C099"/>
<g opacity="0.25">
<path d="M15.329 118.558C18.367 119.837 24.4234 121.947 30.9157 121.734C30.7526 121.607 30.6518 121.543 30.6518 121.543C30.6518 121.543 34.7602 119.939 35.2301 116.343C31.4132 117.483 20.8147 119.904 13.968 114.095C13.7245 115.841 14.6969 117.616 15.329 118.558Z" fill="#1E3A59"/>
</g>
<g opacity="0.25">
<path d="M14.6047 126.949C17.496 130.946 28.5863 132.083 32.4122 128.629C34.0127 127.185 33.9293 125.689 33.3082 124.444C33.1374 124.664 32.9333 124.885 32.6906 125.105C28.8697 128.558 17.7793 127.421 14.8885 123.429C14.5889 123.014 14.3831 122.579 14.2632 122.131C13.7267 123.616 13.5072 125.428 14.6047 126.949Z" fill="#1E3A59"/>
</g>
<path d="M25.2009 131.364C24.4277 131.364 23.6301 131.322 22.8152 131.236C18.4211 130.773 14.8281 129.158 13.2041 126.915C10.9488 123.8 12.6294 120.06 13.7287 118.232C12.8401 116.849 11.6531 114.371 12.4659 111.875C13.2008 109.619 15.314 108.059 18.7467 107.24C22.7901 106.273 30.8174 107.564 34.7232 110.612C36.5778 112.06 36.9804 113.553 36.9914 114.551C37.0243 117.586 35.1805 119.608 33.577 120.791C34.4588 121.771 35.3219 123.109 35.4349 124.661C35.5134 125.738 35.2528 127.341 33.5658 128.864C31.7791 130.477 28.7495 131.364 25.2009 131.364ZM19.5485 110.599C18.0503 110.956 16.1755 111.653 15.7516 112.938C15.2725 114.391 16.6349 116.465 17.1499 117.077C17.6771 117.703 17.6961 118.619 17.1896 119.262C17.1652 119.293 14.5053 122.824 16.0012 124.89C17.0124 126.286 19.896 127.456 23.1768 127.801C26.6125 128.162 29.8573 127.56 31.2518 126.301C31.9564 125.665 32.0111 125.206 31.9909 124.916C31.9126 123.787 30.4021 122.416 29.6829 121.928C29.1517 121.568 28.8614 120.942 28.9332 120.304C29.0048 119.667 29.4217 119.12 30.0195 118.887C30.0479 118.875 33.5692 117.432 33.5383 114.589C33.5345 114.255 33.1921 113.798 32.5987 113.335C29.6417 111.027 22.74 109.837 19.5485 110.599Z" fill="#1E3A59"/>
<path d="M27.435 122.433C20.6146 122.433 15.3271 119.868 15.0705 119.741C14.2152 119.319 13.864 118.284 14.2861 117.429C14.7074 116.575 15.7419 116.223 16.5962 116.643C16.6772 116.683 23.0993 119.765 30.4188 118.784C31.362 118.654 32.2331 119.32 32.3598 120.265C32.4865 121.211 31.8232 122.08 30.8779 122.206C29.7002 122.364 28.5467 122.433 27.435 122.433Z" fill="#1E3A59"/>
<path d="M44.4032 97.9082C38.8541 95.1386 29.2947 108.865 29.5357 114.686C29.7199 119.128 35.2462 122.433 41.0961 116.308C47.0232 110.102 53.1175 102.258 44.4032 97.9082Z" fill="white"/>
<path d="M16.7344 127.692C16.7344 127.692 20.7565 136.598 30.649 138.237C35.3951 139.023 52.4412 139.32 55.2287 122.235C57.6317 107.511 44.4005 97.9082 44.4005 97.9082C38.851 95.1385 29.292 108.864 29.5326 114.686C29.7172 119.129 36.4928 121.149 41.4259 112.937C41.4259 112.937 39.0498 120.239 45.6176 124.607L43.2736 129.196L31.6246 134.125L20.4046 132.795L16.7344 127.692Z" fill="#F8C099"/>
<path d="M42.4742 121.429L42.7532 121.24C42.5202 121.084 42.3076 120.932 42.1035 120.77C42.2152 120.987 42.3376 121.208 42.4742 121.429Z" fill="white"/>
<g opacity="0.25">
<path d="M41.0981 112.688C41.6615 109.766 33.9823 117.672 29.5625 116.119C30.0374 119.702 34.9331 121.438 39.3402 116.774C39.4493 114.448 41.0981 112.688 41.0981 112.688Z" fill="#1E3A59"/>
</g>
<g opacity="0.25">
<path d="M22.2955 133.018L20.4023 132.795C22.6476 135.094 26.003 137.468 30.6489 138.239C35.3971 139.025 52.4427 139.318 55.2291 122.235C56.8637 112.216 51.2565 104.563 47.5071 100.702C50.6426 104.959 53.6127 111.226 52.3659 118.868C49.1357 138.674 32.9775 135.733 27.7861 134.873C25.7009 134.525 23.8752 133.859 22.2955 133.018Z" fill="#1E3A59"/>
</g>
<path d="M16.7402 127.699C16.7805 127.787 17.1004 128.469 17.7354 129.453L18.0261 129.489L16.7402 127.699Z" fill="white"/>
<path d="M17.541 129.429C17.7072 129.599 17.8789 129.773 18.0589 129.942C17.9459 129.773 17.8373 129.608 17.7349 129.453L17.541 129.429Z" fill="white"/>
<path d="M48.4288 133.307C49.5594 132.091 50.522 130.782 51.29 129.372C52.0562 127.962 52.6303 126.462 53.0454 124.908C53.871 121.778 54.1303 118.515 53.5673 115.367C53.2921 113.792 52.8303 112.248 52.2128 110.76C51.5903 109.273 50.8025 107.85 49.9118 106.487C49.0159 105.129 47.9999 103.838 46.8889 102.635C46.3344 102.032 45.7567 101.45 45.1579 100.895C44.8579 100.619 44.5555 100.346 44.2469 100.086C43.9484 99.832 43.607 99.5563 43.3469 99.3645L43.6001 99.5186C43.235 99.3491 42.822 99.3101 42.2728 99.4223C41.7314 99.5337 41.1134 99.8097 40.5101 100.178C39.9024 100.542 39.3068 101.014 38.7336 101.524C38.158 102.031 37.6079 102.594 37.0831 103.187C34.9973 105.562 33.2012 108.373 32.0666 111.269C31.7946 111.99 31.5686 112.718 31.4377 113.409C31.4093 113.579 31.369 113.755 31.3597 113.913C31.3426 114.074 31.317 114.241 31.3226 114.382L31.3157 114.603L31.3303 114.792C31.3442 114.915 31.3604 115.037 31.3942 115.151C31.5035 115.617 31.7763 115.999 32.1422 116.299C32.5218 116.583 33.0105 116.78 33.5683 116.814C34.6846 116.906 35.985 116.39 37.0957 115.504C38.2254 114.63 39.2032 113.424 40.0337 112.103L40.0357 112.1L40.1674 111.906C40.6666 111.172 41.6666 110.982 42.4008 111.481C43.0463 111.921 43.2708 112.748 42.976 113.44C42.9208 113.569 42.8374 113.833 42.7797 114.049C42.7164 114.279 42.663 114.513 42.6183 114.752C42.5622 114.988 42.5431 115.231 42.502 115.473C42.4728 115.714 42.4597 115.957 42.4366 116.201C42.3833 117.177 42.478 118.155 42.7297 119.092C42.7907 119.327 42.8468 119.566 42.9459 119.788C43.0374 120.012 43.1134 120.247 43.2163 120.469C43.4489 120.897 43.6565 121.349 43.9655 121.741C44.2282 122.167 44.5851 122.524 44.9237 122.903C45.0826 123.103 45.2957 123.251 45.4856 123.423L46.0714 123.931L46.1494 123.998C46.4877 124.29 46.5247 124.802 46.2324 125.14C45.9621 125.452 45.506 125.508 45.171 125.285L44.4295 124.791C44.1856 124.62 43.9222 124.474 43.7031 124.265C43.247 123.872 42.7717 123.491 42.3819 123.015C41.9485 122.577 41.6127 122.057 41.2574 121.547C41.0935 121.284 40.9574 121.004 40.8073 120.731C40.6488 120.459 40.537 120.17 40.4219 119.88C39.9512 118.723 39.6775 117.487 39.5914 116.246C39.58 115.936 39.56 115.625 39.5593 115.313C39.5702 115.003 39.5618 114.69 39.5926 114.378C39.6125 114.067 39.6439 113.753 39.6894 113.439C39.7373 113.112 39.7804 112.835 39.8833 112.433L42.8236 113.774L42.8212 113.778C41.8806 115.358 40.7516 116.9 39.2056 118.152C38.4336 118.773 37.5681 119.328 36.581 119.717C35.5977 120.102 34.5 120.345 33.3492 120.272C32.206 120.219 31.0185 119.828 30.0295 119.097C29.0489 118.36 28.2859 117.275 27.9733 116.085C27.8867 115.791 27.8334 115.489 27.7969 115.191L27.7574 114.743L27.7566 114.325C27.7509 114.039 27.7801 113.783 27.8046 113.52C27.8228 113.253 27.8741 113.012 27.9151 112.762C28.0972 111.776 28.3802 110.871 28.7034 109.997C29.3611 108.26 30.1998 106.655 31.1409 105.118C32.0934 103.588 33.1585 102.133 34.3741 100.773C34.9794 100.092 35.6217 99.4331 36.325 98.8139C37.0254 98.1943 37.769 97.6005 38.6226 97.0857C39.4731 96.5743 40.4199 96.1137 41.5484 95.8771C41.8215 95.8072 42.1232 95.7795 42.4248 95.7583C42.7187 95.7213 43.0415 95.7531 43.3534 95.7717C43.6648 95.7831 43.9863 95.8819 44.2994 95.9485C44.6095 96.0372 44.9091 96.1733 45.2075 96.2981C45.2811 96.329 45.3486 96.3676 45.4091 96.4132L45.4608 96.4522C45.8942 96.7779 46.2206 97.0519 46.5791 97.3604C46.9299 97.6608 47.2669 97.9702 47.6011 98.2828C48.2661 98.9096 48.902 99.5617 49.513 100.237C50.737 101.586 51.857 103.033 52.8518 104.571C53.8421 106.112 54.7027 107.747 55.3914 109.463C56.0731 111.181 56.5808 112.979 56.872 114.817C57.4638 118.498 57.1427 122.31 55.976 125.8C55.6788 126.677 55.3264 127.54 54.9073 128.371C54.478 129.198 54.0052 130.005 53.4516 130.755C52.3593 132.264 50.9958 133.57 49.4624 134.562C49.0827 134.807 48.5761 134.699 48.331 134.319C48.1233 133.998 48.1692 133.586 48.4184 133.318L48.4288 133.307Z" fill="#1E3A59"/>
<path d="M18.2177 127.022C18.3531 127.241 18.545 127.565 18.7247 127.843C18.9048 128.132 19.1003 128.418 19.2922 128.706C19.4858 128.992 19.6951 129.27 19.891 129.557C20.1057 129.83 20.3143 130.108 20.5232 130.386C21.3883 131.475 22.3351 132.503 23.3871 133.417C23.8989 133.895 24.4701 134.291 25.0266 134.72C25.6214 135.079 26.1873 135.511 26.8251 135.809C28.0504 136.521 29.4004 136.982 30.7831 137.435L30.8481 137.456C31.275 137.596 31.5075 138.056 31.3677 138.482C31.2469 138.851 30.8879 139.074 30.5177 139.039C28.9489 138.889 27.3427 138.636 25.8329 138.053C25.0585 137.807 24.3426 137.429 23.6015 137.088C22.9051 136.677 22.177 136.297 21.5278 135.808C20.1964 134.873 18.9589 133.79 17.9057 132.549C17.6466 132.235 17.3901 131.919 17.1422 131.597C16.9072 131.263 16.6613 130.939 16.4449 130.592C16.2234 130.249 16.0104 129.899 15.8152 129.535C15.612 129.163 15.4456 128.821 15.2538 128.361C14.9095 127.533 15.3014 126.583 16.1286 126.239C16.8758 125.928 17.7226 126.218 18.1336 126.885L18.2177 127.022Z" fill="#1E3A59"/>
<path d="M108.585 280.14C108.271 280.14 107.953 280.054 107.668 279.875C99.1511 274.526 86.6437 276.892 86.5182 276.916C85.5849 277.102 84.6756 276.489 84.4918 275.554C84.3079 274.619 84.9159 273.712 85.851 273.527C86.4168 273.415 99.8135 270.864 109.505 276.95C110.312 277.458 110.556 278.523 110.048 279.331C109.72 279.853 109.159 280.14 108.585 280.14Z" fill="#1E3A59"/>
<path d="M173.012 289.123C172.987 289.38 173.581 299.298 147.1 298.307C135.876 297.888 128.241 295.738 125.505 289.83C123.062 284.542 123.412 263.838 123.412 263.838V225.664H123.375V263.838C123.375 263.838 123.505 271.488 123.058 278.676C122.769 283.31 122.237 287.758 121.278 289.83C118.546 295.738 112.159 297.888 100.935 298.307C74.4539 299.298 73.7993 289.38 73.7709 289.123C73.6326 287.749 73.7993 286.477 74.1733 285.314C76.4047 278.44 86.1862 275.22 86.1862 275.22C86.1862 275.22 79.9542 246.657 77.8078 226.481C77.1325 220.148 76.7996 213.737 76.7305 207.363C76.7223 206.423 76.7183 205.48 76.7183 204.541C76.767 179.288 80.8851 154.693 84.796 137.009C86.04 131.412 91.3207 126.501 92.3773 122.488C94.3616 114.984 91.7272 110.585 91.7272 110.585H150.991C150.991 110.585 152.499 115.215 154.564 123.086C155.605 127.033 160.837 131.793 162.036 137.192C165.926 154.852 170.016 179.341 170.069 204.489C170.073 205.46 170.069 206.436 170.056 207.411C169.992 213.773 169.65 220.16 168.979 226.481C166.833 246.657 160.601 275.22 160.601 275.22C160.601 275.22 173.971 279.627 173.012 289.123Z" fill="white"/>
<path d="M173.012 289.123C172.987 289.38 173.581 299.299 147.1 298.307C135.876 297.888 128.241 295.738 125.505 289.83C124.03 286.636 123.574 277.83 123.444 271.35C123.355 267.094 123.412 263.838 123.412 263.838V225.664H123.375V263.838C123.375 263.838 123.432 267.094 123.343 271.35C123.298 273.618 123.217 276.175 123.058 278.676C122.769 283.31 122.237 287.758 121.278 289.83C118.546 295.738 112.159 297.888 100.935 298.307C74.4539 299.299 73.7993 289.38 73.7709 289.123C73.6326 287.749 73.7993 286.477 74.1733 285.314C76.4047 278.44 86.1862 275.22 86.1862 275.22C86.1862 275.22 85.8728 273.793 85.3691 271.35C83.6047 262.866 79.4744 242.145 77.8076 226.482C77.1324 220.148 76.7995 213.737 76.7304 207.363C76.7222 206.424 76.7182 205.48 76.7182 204.541C87.8001 206.57 103.976 208.619 124.058 208.619C142.811 208.619 158.617 206.606 170.069 204.489C170.073 205.46 170.069 206.436 170.056 207.411C169.991 213.773 169.65 220.16 168.979 226.481C167.312 242.145 163.182 262.865 161.422 271.35C160.914 273.793 160.601 275.22 160.601 275.22C160.601 275.22 173.971 279.627 173.012 289.123Z" fill="#4A81FD"/>
<path d="M85.3691 271.35H123.343C123.298 273.619 123.217 276.176 123.058 278.676C122.769 283.31 122.237 287.757 121.278 289.831C118.545 295.738 112.159 297.888 100.935 298.307C74.4534 299.299 73.7993 289.38 73.7709 289.123C73.6326 287.749 73.7993 286.477 74.1733 285.315C76.4047 278.44 86.1862 275.221 86.1862 275.221C86.1862 275.221 85.8728 273.793 85.3691 271.35Z" fill="#EF3360"/>
<path d="M173.013 289.123C172.988 289.379 173.582 299.298 147.101 298.307C135.877 297.888 128.242 295.738 125.506 289.83C124.031 286.635 123.575 277.83 123.445 271.35H161.423C160.915 273.793 160.602 275.22 160.602 275.22C160.602 275.22 173.972 279.627 173.013 289.123Z" fill="#EF3360"/>
<g opacity="0.3">
<path d="M173.016 289.123C172.99 289.378 172.334 299.299 145.853 298.308C134.627 297.886 128.243 295.737 125.509 289.829C124.551 287.756 124.021 283.312 123.732 278.675L123.485 263.724L123.063 278.675C122.774 283.312 122.243 287.756 121.286 289.829C118.552 295.737 112.168 297.886 100.942 298.308C74.4602 299.299 73.8041 289.378 73.7789 289.123C73.6411 287.748 73.8041 286.476 74.1801 285.315C75.1375 286.891 77.9974 289.161 86.3926 290.315C100.018 292.183 114.651 290.52 117.134 281.46C119.003 274.641 122.08 235.952 111.724 231.528C95.7117 224.684 89.8334 219.182 94.2861 218.296C96.5476 217.844 102.51 222.756 123.397 222.756C144.284 222.756 146.181 217.844 148.443 218.296C152.896 219.182 151.083 224.684 135.07 231.528C124.715 235.952 127.792 274.641 129.66 281.46C132.144 290.52 146.777 292.183 160.402 290.315C168.797 289.161 171.657 286.891 172.614 285.315C172.99 286.476 173.154 287.748 173.016 289.123Z" fill="#1E3A59"/>
</g>
<path d="M164.974 148.466C166.323 153.639 167.399 158.877 168.311 164.146C169.22 169.416 169.934 174.722 170.488 180.047C171.037 185.374 171.381 190.722 171.596 196.078C171.787 201.435 171.755 206.801 171.592 212.162L171.427 216.183L171.159 220.2C171.086 221.54 170.938 222.875 170.822 224.212C170.7 225.549 170.582 226.887 170.416 228.217C169.806 233.545 169.023 238.835 168.165 244.107C166.432 254.651 164.418 265.116 162.188 275.568L161.108 273.677L161.11 273.678C161.527 273.819 161.859 273.95 162.223 274.096C162.578 274.24 162.928 274.39 163.275 274.546C163.969 274.859 164.651 275.196 165.322 275.559C166.661 276.287 167.959 277.118 169.177 278.093C170.392 279.068 171.533 280.194 172.48 281.526C173.426 282.851 174.165 284.407 174.487 286.083C174.654 286.917 174.712 287.773 174.678 288.615C174.674 288.828 174.65 289.031 174.636 289.24L174.633 289.278L174.638 289.225C174.639 289.198 174.639 289.193 174.638 289.22L174.637 289.267L174.628 289.457C174.622 289.588 174.606 289.708 174.593 289.834C174.529 290.322 174.414 290.781 174.256 291.217C173.628 292.973 172.427 294.33 171.128 295.344C169.818 296.368 168.381 297.08 166.935 297.651C165.485 298.215 164.01 298.618 162.533 298.941C159.577 299.55 156.611 299.846 153.663 299.947C150.712 300.05 147.785 299.999 144.852 299.825C141.917 299.637 138.963 299.331 136.014 298.656C134.542 298.32 133.07 297.884 131.628 297.289C130.189 296.693 128.773 295.924 127.494 294.9C126.219 293.876 125.103 292.574 124.321 291.095L124.042 290.535L123.788 289.922C123.647 289.523 123.514 289.127 123.417 288.746C123.204 287.976 123.059 287.229 122.925 286.483C122.425 283.512 122.211 280.6 122.044 277.683C121.886 274.769 121.81 271.864 121.78 268.959C121.766 267.506 121.763 266.055 121.776 264.6C121.794 263.159 121.781 261.716 121.785 260.274V225.661L125.037 225.662L125.006 260.224C125.008 261.663 124.993 263.107 125.011 264.542C125.024 265.996 125.021 267.445 125.008 268.895C124.978 271.796 124.903 274.697 124.747 277.607C124.582 280.519 124.37 283.427 123.876 286.392C123.749 287.135 123.602 287.882 123.396 288.648C123.301 289.028 123.173 289.422 123.039 289.817C122.962 290.02 122.874 290.227 122.79 290.431C122.704 290.631 122.612 290.801 122.523 290.987C121.789 292.439 120.763 293.787 119.526 294.872C118.294 295.967 116.877 296.781 115.438 297.409C113.992 298.033 112.51 298.469 111.032 298.801C108.071 299.459 105.117 299.724 102.187 299.88C99.2595 300.008 96.3312 300.051 93.3839 299.903C92.6473 299.864 91.9107 299.827 91.1732 299.756L90.0671 299.659L88.9605 299.53C88.2227 299.456 87.4851 299.318 86.7473 299.213C86.0111 299.069 85.2732 298.951 84.5395 298.769C83.0699 298.434 81.6044 298.015 80.1677 297.438C78.7314 296.867 77.3204 296.134 76.0135 295.159C74.7178 294.18 73.4999 292.942 72.7352 291.289C72.5446 290.876 72.3819 290.446 72.2689 289.963C72.2417 289.841 72.2144 289.719 72.1938 289.585C72.1819 289.522 72.173 289.447 72.164 289.375L72.1482 289.206C72.1336 288.998 72.1112 288.794 72.1083 288.582C72.0749 287.74 72.1371 286.886 72.3059 286.053C72.6323 284.382 73.3722 282.829 74.319 281.509C75.2666 280.18 76.4065 279.057 77.6208 278.085C78.8375 277.111 80.1331 276.283 81.4714 275.556C82.141 275.194 82.8215 274.856 83.5146 274.545C83.8614 274.389 84.211 274.239 84.5654 274.095C84.9289 273.949 85.2602 273.819 85.6769 273.677H85.6781L84.5984 275.568C82.3694 265.119 80.3559 254.656 78.6229 244.114C77.7651 238.843 76.9822 233.555 76.3724 228.228C76.2061 226.898 76.0882 225.561 75.9666 224.224C75.8508 222.887 75.6999 221.552 75.6308 220.212L75.3625 216.196L75.197 212.177C75.0336 206.816 75.0031 201.452 75.1917 196.096C75.4035 190.742 75.7494 185.395 76.2967 180.069C77.4154 169.423 79.1639 158.849 81.801 148.493C81.9124 148.057 82.356 147.794 82.7917 147.905C83.1945 148.008 83.4499 148.395 83.3986 148.798C82.0575 159.356 80.6241 169.852 79.6627 180.396C78.7216 190.934 78.1683 201.51 78.4838 212.071C78.6005 217.353 79.0346 222.613 79.6037 227.861C80.2042 233.11 80.9802 238.355 81.8324 243.59C83.552 254.055 85.563 264.504 87.7762 274.875L88.0786 276.292L86.6961 276.766H86.6957C86.431 276.857 86.0904 276.987 85.7855 277.11C85.4725 277.237 85.1599 277.371 84.8496 277.511C84.2293 277.79 83.6178 278.092 83.0207 278.416C81.8272 279.063 80.6877 279.796 79.6538 280.623C77.5899 282.265 75.9411 284.355 75.4959 286.688C75.3777 287.268 75.3345 287.86 75.3581 288.457C75.3589 288.606 75.3777 288.759 75.3874 288.911L75.3959 289.011L75.4045 289.069C75.4105 289.113 75.4236 289.167 75.435 289.22C75.4849 289.44 75.5764 289.687 75.6882 289.928C76.1317 290.907 76.972 291.816 77.9692 292.561C79.9864 294.067 82.5991 294.995 85.2656 295.599C85.9302 295.765 86.6165 295.874 87.2933 296.008C87.982 296.104 88.6621 296.233 89.3585 296.302L90.3984 296.424L91.4448 296.515C92.1416 296.583 92.8441 296.618 93.5461 296.655C96.3553 296.797 99.1948 296.756 102.024 296.632C104.844 296.484 107.651 296.223 110.32 295.628C112.975 295.033 115.517 294.078 117.376 292.433C118.305 291.614 119.056 290.631 119.623 289.513C119.689 289.375 119.769 289.227 119.824 289.096L119.981 288.708C120.077 288.42 120.174 288.13 120.254 287.811C120.422 287.186 120.556 286.518 120.672 285.841C121.126 283.119 121.341 280.271 121.5 277.431C121.653 274.587 121.726 271.726 121.755 268.864C121.769 267.434 121.772 266.001 121.759 264.573C121.741 263.128 121.756 261.69 121.753 260.248L121.785 225.659L125.037 225.661L125.037 260.299C125.033 261.743 125.046 263.185 125.028 264.63C125.015 266.06 125.018 267.494 125.032 268.927C125.062 271.793 125.137 274.658 125.291 277.507C125.452 280.349 125.669 283.203 126.129 285.925C126.25 286.599 126.382 287.27 126.554 287.89C126.634 288.208 126.735 288.496 126.833 288.777L126.991 289.164L127.195 289.573C127.766 290.646 128.561 291.582 129.532 292.366C131.492 293.933 134.075 294.874 136.742 295.487C139.423 296.102 142.23 296.4 145.049 296.579C147.876 296.748 150.727 296.796 153.543 296.698C156.361 296.602 159.158 296.316 161.855 295.761C163.197 295.467 164.513 295.105 165.752 294.622C166.985 294.138 168.158 293.543 169.122 292.784C170.09 292.036 170.844 291.112 171.19 290.135C171.279 289.894 171.337 289.648 171.367 289.421C171.371 289.367 171.381 289.309 171.382 289.259L171.386 289.179L171.389 289.086L171.398 288.936C171.406 288.785 171.428 288.629 171.428 288.481C171.452 287.883 171.412 287.289 171.295 286.708C170.855 284.371 169.209 282.276 167.142 280.63C166.107 279.801 164.966 279.068 163.771 278.419C163.173 278.095 162.561 277.791 161.94 277.512C161.629 277.372 161.316 277.238 161.003 277.11C160.697 276.987 160.357 276.857 160.09 276.766L158.711 276.281L159.011 274.875C161.224 264.502 163.236 254.051 164.956 243.583C165.808 238.347 166.584 233.1 167.184 227.851C167.754 222.601 168.183 217.34 168.302 212.057C168.613 201.494 168.064 190.915 167.114 180.376C166.141 169.831 164.686 159.336 163.377 148.77C163.322 148.323 163.639 147.917 164.085 147.861C164.496 147.81 164.873 148.076 164.974 148.466Z" fill="#1E3A59"/>
<path d="M164.974 148.466C166.323 153.639 167.399 158.877 168.311 164.146C169.22 169.416 169.934 174.722 170.488 180.047C171.037 185.374 171.381 190.722 171.596 196.078C171.787 201.435 171.755 206.801 171.592 212.162L171.427 216.183L171.159 220.2C171.086 221.54 170.938 222.875 170.822 224.212C170.7 225.549 170.582 226.887 170.416 228.217C169.806 233.545 169.023 238.835 168.165 244.107C166.432 254.651 164.418 265.116 162.188 275.568L161.108 273.677L161.11 273.678C161.527 273.819 161.859 273.95 162.223 274.096C162.578 274.24 162.928 274.39 163.275 274.546C163.969 274.859 164.651 275.196 165.322 275.559C166.661 276.287 167.959 277.118 169.177 278.093C170.392 279.068 171.533 280.194 172.48 281.526C173.426 282.851 174.165 284.407 174.487 286.083C174.654 286.917 174.712 287.773 174.678 288.615C174.674 288.828 174.65 289.031 174.636 289.24L174.633 289.278L174.638 289.225C174.639 289.198 174.639 289.193 174.638 289.22L174.637 289.267L174.628 289.457C174.622 289.588 174.606 289.708 174.593 289.834C174.529 290.322 174.414 290.781 174.256 291.217C173.628 292.973 172.427 294.33 171.128 295.344C169.818 296.368 168.381 297.08 166.935 297.651C165.485 298.215 164.01 298.618 162.533 298.941C159.577 299.55 156.611 299.846 153.663 299.947C150.712 300.05 147.785 299.999 144.852 299.825C141.917 299.637 138.963 299.331 136.014 298.656C134.542 298.32 133.07 297.884 131.628 297.289C130.189 296.693 128.773 295.924 127.494 294.9C126.219 293.876 125.103 292.574 124.321 291.095L124.042 290.535L123.788 289.922C123.647 289.523 123.514 289.127 123.417 288.746C123.204 287.976 123.059 287.229 122.925 286.483C122.425 283.512 122.211 280.6 122.044 277.683C121.886 274.769 121.81 271.864 121.78 268.959C121.766 267.506 121.763 266.055 121.776 264.6C121.794 263.159 121.781 261.716 121.785 260.274V225.661L125.037 225.662L125.006 260.224C125.008 261.663 124.993 263.107 125.011 264.542C125.024 265.996 125.021 267.445 125.008 268.895C124.978 271.796 124.903 274.697 124.747 277.607C124.582 280.519 124.37 283.427 123.876 286.392C123.749 287.135 123.602 287.882 123.396 288.648C123.301 289.028 123.173 289.422 123.039 289.817C122.962 290.02 122.874 290.227 122.79 290.431C122.704 290.631 122.612 290.801 122.523 290.987C121.789 292.439 120.763 293.787 119.526 294.872C118.294 295.967 116.877 296.781 115.438 297.409C113.992 298.033 112.51 298.469 111.032 298.801C108.071 299.459 105.117 299.724 102.187 299.88C99.2595 300.008 96.3312 300.051 93.3839 299.903C92.6473 299.864 91.9107 299.827 91.1732 299.756L90.0671 299.659L88.9605 299.53C88.2227 299.456 87.4851 299.318 86.7473 299.213C86.0111 299.069 85.2732 298.951 84.5395 298.769C83.0699 298.434 81.6044 298.015 80.1677 297.438C78.7314 296.867 77.3204 296.134 76.0135 295.159C74.7178 294.18 73.4999 292.942 72.7352 291.289C72.5446 290.876 72.3819 290.446 72.2689 289.963C72.2417 289.841 72.2144 289.719 72.1938 289.585C72.1819 289.522 72.173 289.447 72.164 289.375L72.1482 289.206C72.1336 288.998 72.1112 288.794 72.1083 288.582C72.0749 287.74 72.1371 286.886 72.3059 286.053C72.6323 284.382 73.3722 282.829 74.319 281.509C75.2666 280.18 76.4065 279.057 77.6208 278.085C78.8375 277.111 80.1331 276.283 81.4714 275.556C82.141 275.194 82.8215 274.856 83.5146 274.545C83.8614 274.389 84.211 274.239 84.5654 274.095C84.9289 273.949 85.2602 273.819 85.6769 273.677H85.6781L84.5984 275.568C82.3694 265.119 80.3559 254.656 78.6229 244.114C77.7651 238.843 76.9822 233.555 76.3724 228.228C76.2061 226.898 76.0882 225.561 75.9666 224.224C75.8508 222.887 75.6999 221.552 75.6308 220.212L75.3625 216.196L75.197 212.177C75.0336 206.816 75.0031 201.452 75.1917 196.096C75.4035 190.742 75.7494 185.395 76.2967 180.069C77.4154 169.423 79.1639 158.849 81.801 148.493C81.9124 148.057 82.356 147.794 82.7917 147.905C83.1945 148.008 83.4499 148.395 83.3986 148.798C82.0575 159.356 80.6241 169.852 79.6627 180.396C78.7216 190.934 78.1683 201.51 78.4838 212.071C78.6005 217.353 79.0346 222.613 79.6037 227.861C80.2042 233.11 80.9802 238.355 81.8324 243.59C83.552 254.055 85.563 264.504 87.7762 274.875L88.0786 276.292L86.6961 276.766H86.6957C86.431 276.857 86.0904 276.987 85.7855 277.11C85.4725 277.237 85.1599 277.371 84.8496 277.511C84.2293 277.79 83.6178 278.092 83.0207 278.416C81.8272 279.063 80.6877 279.796 79.6538 280.623C77.5899 282.265 75.9411 284.355 75.4959 286.688C75.3777 287.268 75.3345 287.86 75.3581 288.457C75.3589 288.606 75.3777 288.759 75.3874 288.911L75.3959 289.011L75.4045 289.069C75.4105 289.113 75.4236 289.167 75.435 289.22C75.4849 289.44 75.5764 289.687 75.6882 289.928C76.1317 290.907 76.972 291.816 77.9692 292.561C79.9864 294.067 82.5991 294.995 85.2656 295.599C85.9302 295.765 86.6165 295.874 87.2933 296.008C87.982 296.104 88.6621 296.233 89.3585 296.302L90.3984 296.424L91.4448 296.515C92.1416 296.583 92.8441 296.618 93.5461 296.655C96.3553 296.797 99.1948 296.756 102.024 296.632C104.844 296.484 107.651 296.223 110.32 295.628C112.975 295.033 115.517 294.078 117.376 292.433C118.305 291.614 119.056 290.631 119.623 289.513C119.689 289.375 119.769 289.227 119.824 289.096L119.981 288.708C120.077 288.42 120.174 288.13 120.254 287.811C120.422 287.186 120.556 286.518 120.672 285.841C121.126 283.119 121.341 280.271 121.5 277.431C121.653 274.587 121.726 271.726 121.755 268.864C121.769 267.434 121.772 266.001 121.759 264.573C121.741 263.128 121.756 261.69 121.753 260.248L121.785 225.659L125.037 225.661L125.037 260.299C125.033 261.743 125.046 263.185 125.028 264.63C125.015 266.06 125.018 267.494 125.032 268.927C125.062 271.793 125.137 274.658 125.291 277.507C125.452 280.349 125.669 283.203 126.129 285.925C126.25 286.599 126.382 287.27 126.554 287.89C126.634 288.208 126.735 288.496 126.833 288.777L126.991 289.164L127.195 289.573C127.766 290.646 128.561 291.582 129.532 292.366C131.492 293.933 134.075 294.874 136.742 295.487C139.423 296.102 142.23 296.4 145.049 296.579C147.876 296.748 150.727 296.796 153.543 296.698C156.361 296.602 159.158 296.316 161.855 295.761C163.197 295.467 164.513 295.105 165.752 294.622C166.985 294.138 168.158 293.543 169.122 292.784C170.09 292.036 170.844 291.112 171.19 290.135C171.279 289.894 171.337 289.648 171.367 289.421C171.371 289.367 171.381 289.309 171.382 289.259L171.386 289.179L171.389 289.086L171.398 288.936C171.406 288.785 171.428 288.629 171.428 288.481C171.452 287.883 171.412 287.289 171.295 286.708C170.855 284.371 169.209 282.276 167.142 280.63C166.107 279.801 164.966 279.068 163.771 278.419C163.173 278.095 162.561 277.791 161.94 277.512C161.629 277.372 161.316 277.238 161.003 277.11C160.697 276.987 160.357 276.857 160.09 276.766L158.711 276.281L159.011 274.875C161.224 264.502 163.236 254.051 164.956 243.583C165.808 238.347 166.584 233.1 167.184 227.851C167.754 222.601 168.183 217.34 168.302 212.057C168.613 201.494 168.064 190.915 167.114 180.376C166.141 169.831 164.686 159.336 163.377 148.77C163.322 148.323 163.639 147.917 164.085 147.861C164.496 147.81 164.873 148.076 164.974 148.466Z" fill="#1E3A59"/>
<path d="M97.3133 298.593C75.0545 298.593 73.6433 290.159 73.5549 289.15C73.4739 288.338 73.4933 287.534 73.6124 286.757L73.6694 286.384L73.9619 286.622C77.1344 289.203 84.1511 292.157 99.5794 291.583C112.069 291.113 118.261 288.547 120.953 282.723C121.804 280.883 122.423 277.052 122.792 271.336L122.805 271.134H123.561L123.557 271.354C123.422 278.056 122.951 286.718 121.472 289.921C118.852 295.584 112.904 298.076 100.941 298.523C99.6754 298.57 98.4651 298.593 97.3133 298.593ZM73.9902 287.194C73.922 287.819 73.9196 288.459 73.9839 289.102C74.0742 290.131 75.5882 299.03 100.925 298.092C112.7 297.652 118.54 295.232 121.08 289.74C122.383 286.919 122.889 279.675 123.074 273.399C122.692 278.054 122.111 281.247 121.345 282.904C118.574 288.898 112.273 291.537 99.5956 292.014C84.5048 292.582 77.3536 289.762 73.9902 287.194Z" fill="#1E3A59"/>
<path d="M123.309 271.269C123.179 277.749 122.72 286.554 121.244 289.75C118.512 295.657 112.126 297.807 100.902 298.226C74.4205 299.218 73.7619 289.298 73.7375 289.042C73.6558 288.225 73.6806 287.449 73.7944 286.708C77.1768 289.461 84.3478 292.286 99.5559 291.717C111.455 291.27 118.224 288.994 121.118 282.733C122.11 280.587 122.667 276.05 122.976 271.269L123.309 271.269Z" fill="white"/>
<path d="M74.3397 286.159C75.7215 286.381 76.7691 286.831 77.8936 287.292C79.0156 287.73 80.1461 288.212 81.3296 288.598C83.7244 289.292 86.2441 289.679 88.784 289.928C91.328 290.166 93.9017 290.261 96.4836 290.239C99.0658 290.204 101.657 290.114 104.204 289.865C106.748 289.617 109.261 289.218 111.614 288.505C112.777 288.129 113.919 287.707 114.936 287.121C115.961 286.551 116.912 285.885 117.681 285.053C118.456 284.23 119.118 283.302 119.609 282.254C119.845 281.789 120.005 281.268 120.162 280.685C120.316 280.111 120.443 279.505 120.539 278.886C120.731 277.648 120.794 276.369 121.001 275.101C121.2 273.829 121.454 272.556 122.197 271.297L122.199 271.293C122.454 270.861 123.011 270.717 123.443 270.972C123.619 271.075 123.746 271.228 123.82 271.402C124.391 272.764 124.438 274.109 124.366 275.449C124.301 276.793 124.038 278.121 123.762 279.468C123.629 280.142 123.489 280.822 123.306 281.517C123.218 281.863 123.111 282.215 122.989 282.573C122.871 282.919 122.714 283.325 122.545 283.654C121.921 284.986 121.049 286.229 120.023 287.309C119.001 288.404 117.773 289.266 116.509 289.967C115.244 290.689 113.908 291.182 112.577 291.611C109.9 292.423 107.197 292.839 104.519 293.102C101.837 293.363 99.1759 293.455 96.5075 293.491C93.8379 293.514 91.1564 293.417 88.4721 293.165C85.787 292.913 83.1019 292.465 80.4339 291.754C79.1005 291.394 77.7386 291.031 76.4727 290.371C75.219 289.723 73.9791 288.846 73.3136 287.421C73.1025 286.969 73.2977 286.433 73.749 286.222C73.9189 286.142 74.1011 286.12 74.2734 286.149L74.3397 286.159Z" fill="#1E3A59"/>
<path d="M74.6315 286.913C74.8787 287.668 75.0551 288.323 75.2551 288.979C75.275 289.029 75.2966 289.08 75.3259 289.136C75.3556 289.192 75.3637 289.239 75.4011 289.302C75.473 289.424 75.5039 289.543 75.5824 289.668L75.784 290.044C75.8686 290.167 75.9608 290.286 76.0372 290.412C76.7068 291.395 77.6646 292.342 78.8179 293.103C81.1733 294.592 84.0889 295.401 87.0208 295.932C89.9641 296.498 93.0252 296.629 96.0713 296.735C97.6019 296.737 99.1361 296.699 100.669 296.684C101.435 296.661 102.199 296.616 102.963 296.578C103.722 296.516 104.488 296.48 105.24 296.396C106.754 296.259 108.242 296.039 109.704 295.76C111.154 295.453 112.57 295.065 113.888 294.528C115.207 293.993 116.412 293.294 117.411 292.4C118.414 291.512 119.208 290.426 119.781 289.187C120.023 288.646 120.22 287.985 120.382 287.283C120.466 286.935 120.53 286.568 120.606 286.211L120.789 285.107C121.006 283.62 121.179 282.1 121.279 280.568C121.369 279.035 121.361 277.492 121.505 275.953C121.64 274.413 121.84 272.874 122.53 271.334L122.531 271.331C122.731 270.886 123.253 270.688 123.697 270.887C123.915 270.984 124.074 271.161 124.156 271.366C124.783 272.946 124.888 274.526 124.884 276.103C124.889 277.681 124.701 279.254 124.543 280.831C124.394 282.409 124.249 283.995 124.004 285.594L123.805 286.799C123.72 287.206 123.649 287.607 123.551 288.018C123.358 288.834 123.125 289.68 122.728 290.564C121.994 292.158 120.911 293.649 119.574 294.829C118.242 296.019 116.7 296.896 115.131 297.533C113.558 298.175 111.953 298.609 110.351 298.948C108.749 299.254 107.147 299.489 105.553 299.634C104.754 299.722 103.961 299.76 103.164 299.825C102.37 299.864 101.577 299.91 100.783 299.934C99.1957 299.951 97.6099 299.99 96.0207 299.987C92.8364 299.878 89.6395 299.743 86.4454 299.133C83.2622 298.558 80.0475 297.674 77.0705 295.88L76.5079 295.554L75.9693 295.163L75.4318 294.767L75.1635 294.568L74.9119 294.335L74.4188 293.856C74.2545 293.696 74.0887 293.541 73.9504 293.345C73.6675 292.965 73.3597 292.619 73.141 292.177C73.0219 291.966 72.9113 291.752 72.806 291.534L72.5418 290.837C72.4594 290.605 72.4097 290.34 72.3576 290.092C72.3142 289.83 72.2841 289.555 72.2874 289.268C72.3329 288.371 72.5398 287.453 73.0248 286.666C73.28 286.251 73.8228 286.123 74.237 286.378C74.4216 286.491 74.5496 286.662 74.6123 286.853L74.6315 286.913Z" fill="#1E3A59"/>
<path d="M97.2728 298.438C88.2079 298.438 81.5603 297.046 77.4798 294.289C74.1237 292.022 73.7512 289.599 73.7106 289.136C73.6305 288.335 73.6498 287.545 73.767 286.781L73.7829 286.677L73.8643 286.743C77.0574 289.341 84.1135 292.321 99.5856 291.738C112.143 291.266 118.375 288.673 121.095 282.788C121.954 280.931 122.578 277.081 122.948 271.346L122.952 271.29H123.403L123.402 271.351C123.267 278.038 122.799 286.677 121.331 289.856C118.74 295.457 112.831 297.923 100.936 298.367C99.6746 298.414 98.4528 298.438 97.2728 298.438ZM73.8705 286.902C73.7686 287.625 73.7547 288.369 73.8296 289.117C73.87 289.579 74.2362 291.953 77.5472 294.19C82.0725 297.247 90.1612 298.649 100.932 298.247C112.774 297.805 118.653 295.359 121.222 289.805C122.677 286.655 123.145 278.077 123.28 271.41H123.065C122.692 277.129 122.067 280.974 121.204 282.839C118.462 288.771 112.2 291.384 99.5903 291.858C84.2085 292.432 77.1179 289.498 73.8705 286.902Z" fill="#1E3A59"/>
<path d="M173.011 289.123C172.991 289.379 173.58 299.298 147.099 298.307C135.871 297.888 128.236 295.738 125.505 289.83C124.029 286.635 123.574 277.83 123.439 271.35H123.769C124.082 276.135 124.643 280.667 125.635 282.814C128.529 289.075 136.619 291.351 148.518 291.798C162.905 292.339 169.75 289.839 173.011 287.237C173.076 287.839 173.076 288.469 173.011 289.123Z" fill="white"/>
<g opacity="0.3">
<path d="M173.017 289.125C172.996 289.381 173.586 299.3 147.105 298.308C135.876 297.89 128.242 295.739 125.51 289.832C124.035 286.636 123.579 277.831 123.445 271.351H123.538C123.75 277.25 124.27 283.888 125.51 286.575C128.242 292.479 135.876 294.629 147.105 295.047C167.138 295.8 171.679 290.303 172.712 287.474C172.818 287.397 172.919 287.315 173.017 287.238C173.082 287.84 173.082 288.47 173.017 289.125Z" fill="#1E3A59"/>
</g>
<g opacity="0.3">
<path d="M73.7359 289.124C73.7567 289.381 73.1672 299.3 99.6479 298.308C110.876 297.89 118.511 295.739 121.243 289.832C122.718 286.637 123.174 277.831 123.308 271.351H123.214C123.003 277.25 122.483 283.888 121.243 286.575C118.511 292.479 110.876 294.629 99.6479 295.047C79.6144 295.8 75.0734 290.303 74.0409 287.474C73.9353 287.397 73.8336 287.315 73.736 287.238C73.6713 287.84 73.6713 288.47 73.7359 289.124Z" fill="#1E3A59"/>
</g>
<path d="M124.581 271.297C125.387 273.845 125.775 276.404 126.278 278.855C126.41 279.464 126.539 280.065 126.704 280.633C126.859 281.208 127.027 281.736 127.244 282.181C127.711 283.184 128.355 284.087 129.132 284.896L129.753 285.472C129.973 285.653 130.211 285.818 130.438 285.993C130.555 286.077 130.663 286.171 130.787 286.249L131.162 286.477C131.416 286.624 131.652 286.796 131.92 286.926C132.458 287.184 132.979 287.466 133.553 287.675C133.837 287.784 134.109 287.91 134.401 288.006L135.276 288.293C137.622 289.039 140.13 289.461 142.661 289.748C145.193 290.031 147.77 290.173 150.348 290.218C152.922 290.268 155.493 290.233 158.037 290.04C160.579 289.846 163.096 289.493 165.504 288.88C167.901 288.27 170.22 287.356 171.998 285.966L172.011 285.956C172.718 285.403 173.74 285.528 174.293 286.235C174.486 286.482 174.597 286.773 174.629 287.062C174.679 287.527 174.695 287.989 174.683 288.444C174.677 288.672 174.664 288.898 174.645 289.123L174.633 289.26C174.642 289.126 174.634 289.288 174.634 289.335C174.628 289.475 174.618 289.613 174.602 289.746C174.479 290.807 174.11 291.741 173.62 292.575C172.626 294.244 171.183 295.431 169.7 296.318C168.207 297.219 166.63 297.817 165.051 298.299C163.469 298.778 161.872 299.107 160.278 299.347C157.086 299.847 153.898 299.985 150.73 299.996C147.563 299.988 144.413 299.86 141.234 299.516C139.646 299.327 138.055 299.107 136.465 298.75C135.67 298.597 134.878 298.364 134.086 298.156C133.299 297.897 132.508 297.659 131.733 297.323C130.182 296.686 128.652 295.863 127.291 294.728C125.927 293.603 124.78 292.138 124.021 290.504C123.621 289.61 123.398 288.786 123.195 287.969L122.931 286.755L122.714 285.557C122.445 283.965 122.27 282.384 122.172 280.806C121.986 277.651 121.977 274.504 122.627 271.367C122.721 270.916 123.162 270.626 123.614 270.72C123.936 270.786 124.176 271.031 124.252 271.33L124.253 271.334C125.037 274.415 125.271 277.487 125.571 280.534C125.718 282.056 125.861 283.571 126.05 285.056L126.21 286.16C126.274 286.518 126.337 286.881 126.414 287.232C126.569 287.926 126.757 288.608 126.983 289.14C127.526 290.337 128.348 291.377 129.38 292.236C130.411 293.095 131.645 293.772 132.966 294.314C133.619 294.6 134.32 294.808 135.009 295.037C135.721 295.222 136.423 295.432 137.156 295.572C138.602 295.899 140.097 296.104 141.595 296.284C144.602 296.61 147.676 296.736 150.728 296.743C153.776 296.735 156.824 296.598 159.781 296.133C161.261 295.911 162.719 295.608 164.115 295.184C165.506 294.761 166.859 294.24 168.031 293.527C169.207 292.83 170.216 291.944 170.817 290.925C171.117 290.424 171.316 289.872 171.37 289.386C171.377 289.325 171.381 289.27 171.384 289.216L171.391 288.999L171.405 288.845C171.419 288.682 171.428 288.52 171.432 288.36C171.441 288.038 171.428 287.721 171.395 287.412L174.026 288.508C172.849 289.434 171.574 290.134 170.276 290.7C168.978 291.273 167.648 291.681 166.317 292.029C163.649 292.708 160.962 293.078 158.286 293.283C155.608 293.486 152.939 293.521 150.281 293.47C147.624 293.423 144.968 293.277 142.297 292.98C139.631 292.676 136.947 292.234 134.299 291.395L133.309 291.069C132.979 290.96 132.655 290.814 132.328 290.687C131.67 290.446 131.035 290.112 130.396 289.799C129.139 289.109 127.892 288.328 126.818 287.277C125.746 286.241 124.795 285.025 124.139 283.657C123.775 282.929 123.565 282.195 123.383 281.507C123.213 280.809 123.075 280.129 122.978 279.45C122.569 276.743 122.509 274.076 122.958 271.404C123.035 270.949 123.466 270.642 123.92 270.718C124.24 270.772 124.486 271 124.578 271.289L124.581 271.297Z" fill="#1E3A59"/>
<path d="M124.581 271.297C125.387 273.845 125.775 276.404 126.278 278.855C126.41 279.464 126.539 280.065 126.704 280.633C126.859 281.208 127.027 281.736 127.244 282.181C127.711 283.184 128.355 284.087 129.132 284.896L129.753 285.472C129.973 285.653 130.211 285.818 130.438 285.993C130.555 286.077 130.663 286.171 130.787 286.249L131.162 286.477C131.416 286.624 131.652 286.796 131.92 286.926C132.458 287.184 132.979 287.466 133.553 287.675C133.837 287.784 134.109 287.91 134.401 288.006L135.276 288.293C137.622 289.039 140.13 289.461 142.661 289.748C145.193 290.031 147.77 290.173 150.348 290.218C152.922 290.268 155.493 290.233 158.037 290.04C160.579 289.846 163.096 289.493 165.504 288.88C167.901 288.27 170.22 287.356 171.998 285.966L172.011 285.956C172.718 285.403 173.74 285.528 174.293 286.235C174.486 286.482 174.597 286.773 174.629 287.062C174.679 287.527 174.695 287.989 174.683 288.444C174.677 288.672 174.664 288.898 174.645 289.123L174.633 289.26C174.642 289.126 174.634 289.288 174.634 289.335C174.628 289.475 174.618 289.613 174.602 289.746C174.479 290.807 174.11 291.741 173.62 292.575C172.626 294.244 171.183 295.431 169.7 296.318C168.207 297.219 166.63 297.817 165.051 298.299C163.469 298.778 161.872 299.107 160.278 299.347C157.086 299.847 153.898 299.985 150.73 299.996C147.563 299.988 144.413 299.86 141.234 299.516C139.646 299.327 138.055 299.107 136.465 298.75C135.67 298.597 134.878 298.364 134.086 298.156C133.299 297.897 132.508 297.659 131.733 297.323C130.182 296.686 128.652 295.863 127.291 294.728C125.927 293.603 124.78 292.138 124.021 290.504C123.621 289.61 123.398 288.786 123.195 287.969L122.931 286.755L122.714 285.557C122.445 283.965 122.27 282.384 122.172 280.806C121.986 277.651 121.977 274.504 122.627 271.367C122.721 270.916 123.162 270.626 123.614 270.72C123.936 270.786 124.176 271.031 124.252 271.33L124.253 271.334C125.037 274.415 125.271 277.487 125.571 280.534C125.718 282.056 125.861 283.571 126.05 285.056L126.21 286.16C126.274 286.518 126.337 286.881 126.414 287.232C126.569 287.926 126.757 288.608 126.983 289.14C127.526 290.337 128.348 291.377 129.38 292.236C130.411 293.095 131.645 293.772 132.966 294.314C133.619 294.6 134.32 294.808 135.009 295.037C135.721 295.222 136.423 295.432 137.156 295.572C138.602 295.899 140.097 296.104 141.595 296.284C144.602 296.61 147.676 296.736 150.728 296.743C153.776 296.735 156.824 296.598 159.781 296.133C161.261 295.911 162.719 295.608 164.115 295.184C165.506 294.761 166.859 294.24 168.031 293.527C169.207 292.83 170.216 291.944 170.817 290.925C171.117 290.424 171.316 289.872 171.37 289.386C171.377 289.325 171.381 289.27 171.384 289.216L171.391 288.999L171.405 288.845C171.419 288.682 171.428 288.52 171.432 288.36C171.441 288.038 171.428 287.721 171.395 287.412L174.026 288.508C172.849 289.434 171.574 290.134 170.276 290.7C168.978 291.273 167.648 291.681 166.317 292.029C163.649 292.708 160.962 293.078 158.286 293.283C155.608 293.486 152.939 293.521 150.281 293.47C147.624 293.423 144.968 293.277 142.297 292.98C139.631 292.676 136.947 292.234 134.299 291.395L133.309 291.069C132.979 290.96 132.655 290.814 132.328 290.687C131.67 290.446 131.035 290.112 130.396 289.799C129.139 289.109 127.892 288.328 126.818 287.277C125.746 286.241 124.795 285.025 124.139 283.657C123.775 282.929 123.565 282.195 123.383 281.507C123.213 280.809 123.075 280.129 122.978 279.45C122.569 276.743 122.509 274.076 122.958 271.404C123.035 270.949 123.466 270.642 123.92 270.718C124.24 270.772 124.486 271 124.578 271.289L124.581 271.297Z" fill="#1E3A59"/>
<path d="M150.666 298.436C149.534 298.436 148.346 298.414 147.096 298.367C134.632 297.902 127.956 295.277 125.449 289.856C123.988 286.694 123.517 278.047 123.378 271.351L123.377 271.29H123.824L123.827 271.346C124.203 277.079 124.829 280.929 125.688 282.788C128.321 288.483 135.362 291.243 148.519 291.738C163.322 292.298 169.988 289.572 172.972 287.19L173.058 287.122L173.07 287.23C173.135 287.834 173.135 288.472 173.07 289.128C173.07 289.134 173.07 289.145 173.069 289.162C173.062 289.845 172.839 291.633 170.911 293.472C168.471 295.798 162.985 298.436 150.666 298.436ZM123.5 271.41C123.639 278.086 124.111 286.671 125.558 289.805C128.043 295.18 134.687 297.784 147.1 298.247C161.913 298.801 168.181 295.909 170.828 293.384C172.722 291.577 172.943 289.828 172.949 289.16C172.949 289.139 172.95 289.125 172.95 289.118V289.117C173.011 288.508 173.015 287.915 172.961 287.352C169.919 289.73 163.214 292.411 148.515 291.858C135.307 291.361 128.233 288.58 125.579 282.839C124.716 280.972 124.088 277.127 123.711 271.41H123.5Z" fill="#1E3A59"/>
<path d="M85.4718 273.973C85.9913 274.751 86.8563 275.226 87.7918 275.258C91.5278 275.385 101.879 275.954 108.785 278.413C110.352 278.971 116.181 281.399 120.359 281.603C122.016 281.685 123.392 280.335 123.392 278.677V273.576C123.392 272.217 122.46 271.037 121.136 270.727C119.09 270.249 115.866 269.388 112.365 268.049C102.326 264.208 84.6583 262.685 83.6209 264.653C81.9285 267.866 84.1229 271.951 85.4718 273.973Z" fill="#9CCFF1"/>
<path d="M161.309 273.973C160.789 274.751 159.924 275.226 158.989 275.258C155.253 275.385 144.902 275.954 137.996 278.413C136.428 278.971 130.6 281.399 126.422 281.603C124.765 281.685 123.389 280.335 123.389 278.677V273.576C123.389 272.217 124.321 271.037 125.644 270.727C127.691 270.249 130.915 269.388 134.416 268.049C144.455 264.208 162.122 262.685 163.16 264.653C164.852 267.866 162.658 271.951 161.309 273.973Z" fill="#9CCFF1"/>
<g opacity="0.7">
<path d="M163.604 268.843C163.507 268.441 163.36 268.046 163.161 267.664C162.121 265.697 144.453 267.221 134.416 271.063C130.916 272.4 127.692 273.262 125.643 273.742C124.322 274.051 123.387 275.23 123.387 276.588V273.576C123.387 272.217 124.322 271.038 125.643 270.725C127.692 270.25 130.916 269.388 134.416 268.046C144.453 264.209 162.121 262.684 163.161 264.652C163.856 265.969 163.893 267.433 163.604 268.843Z" fill="white"/>
</g>
<g opacity="0.3">
<path d="M161.311 273.973C160.795 274.75 159.929 275.225 158.994 275.258C155.258 275.384 144.904 275.953 138.001 278.413C136.432 278.97 130.602 281.397 126.427 281.604C124.768 281.685 123.391 280.335 123.391 278.677V274.445C123.391 276.104 124.768 277.449 126.427 277.372C130.602 277.165 136.432 274.738 138.001 274.181C144.904 271.721 155.258 271.152 158.994 271.026C159.929 270.994 160.795 270.518 161.311 269.742C162.018 268.685 162.958 267.059 163.445 265.286C164.575 268.383 162.572 272.079 161.311 273.973Z" fill="#1E3A59"/>
</g>
<g opacity="0.7">
<path d="M83.1816 268.843C83.2792 268.441 83.4256 268.046 83.6248 267.664C84.6654 265.697 102.333 267.221 112.37 271.063C115.87 272.4 119.094 273.262 121.143 273.742C122.464 274.051 123.399 275.23 123.399 276.588V273.576C123.399 272.217 122.464 271.038 121.143 270.725C119.094 270.25 115.87 269.388 112.37 268.046C102.333 264.209 84.6654 262.684 83.6248 264.652C82.9296 265.969 82.893 267.433 83.1816 268.843Z" fill="white"/>
</g>
<g opacity="0.3">
<path d="M85.4716 273.974C85.9879 274.75 86.8533 275.226 87.7883 275.259C91.5247 275.385 101.878 275.954 108.782 278.413C110.35 278.97 116.18 281.397 120.355 281.605C122.014 281.686 123.392 280.336 123.392 278.678V274.446C123.392 276.104 122.014 277.45 120.355 277.373C116.18 277.166 110.35 274.738 108.782 274.181C101.878 271.722 91.5247 271.153 87.7883 271.027C86.8533 270.994 85.9879 270.519 85.4716 269.742C84.7642 268.685 83.8247 267.059 83.3373 265.287C82.2071 268.384 84.2109 272.079 85.4716 273.974Z" fill="#1E3A59"/>
</g>
<path d="M126.278 283.334C125.097 283.334 123.981 282.887 123.114 282.061C122.193 281.184 121.664 279.95 121.664 278.677V273.577C121.664 271.404 123.14 269.541 125.253 269.046C127.28 268.572 130.409 267.734 133.801 266.436C138.45 264.657 145.247 263.169 151.984 262.455C163.322 261.255 164.28 263.071 164.69 263.848C166.783 267.821 164.371 272.497 162.747 274.931V274.931C161.924 276.166 160.542 276.933 159.05 276.983C155.964 277.089 145.37 277.621 138.577 280.039C138.369 280.114 138.082 280.223 137.731 280.355C135.346 281.259 130.381 283.139 126.508 283.328C126.431 283.332 126.354 283.334 126.278 283.334ZM158.643 265.508C153.184 265.508 142.58 266.775 135.035 269.661C131.462 271.028 128.171 271.91 126.04 272.408C125.497 272.536 125.117 273.016 125.117 273.576V278.677C125.117 279.014 125.252 279.328 125.496 279.56C125.63 279.688 125.918 279.903 126.34 279.878C129.668 279.716 134.288 277.966 136.508 277.125C136.885 276.983 137.194 276.866 137.419 276.786C144.481 274.271 154.816 273.673 158.932 273.532C159.315 273.519 159.667 273.325 159.875 273.014C160.798 271.63 162.765 268.242 161.782 265.779C161.221 265.601 160.119 265.508 158.643 265.508Z" fill="#1E3A59"/>
<path d="M104.216 222.014C105.755 222.468 107.391 222.874 109.002 223.202C110.619 223.542 112.246 223.82 113.878 224.049C115.514 224.247 117.146 224.464 118.789 224.549C119.608 224.612 120.429 224.644 121.249 224.683C122.07 224.717 122.891 224.709 123.712 224.723C124.533 224.697 125.354 224.716 126.175 224.677C126.995 224.636 127.816 224.61 128.635 224.535C130.278 224.454 131.909 224.229 133.544 224.031L134.768 223.853L135.987 223.648C136.801 223.512 137.614 223.363 138.421 223.187C140.033 222.864 141.669 222.459 143.212 222.013L143.258 222C143.69 221.876 144.142 222.125 144.267 222.557C144.375 222.932 144.202 223.321 143.873 223.499C142.299 224.356 140.704 224.965 139.06 225.535C137.416 226.076 135.745 226.543 134.048 226.893C133.201 227.072 132.349 227.238 131.491 227.36L130.204 227.548C129.774 227.606 129.343 227.648 128.911 227.698C127.185 227.877 125.449 227.946 123.713 227.97C120.241 227.945 116.77 227.607 113.38 226.885C111.683 226.537 110.012 226.069 108.368 225.528C106.722 224.962 105.129 224.351 103.552 223.499C103.157 223.285 103.009 222.79 103.223 222.395C103.41 222.05 103.809 221.894 104.17 222.001L104.216 222.014Z" fill="#1E3A59"/>
<path d="M191.255 95.0962C190.476 95.1063 189.842 94.4607 189.838 93.6534L189.611 51.5483C189.607 50.7414 190.234 50.0783 191.012 50.0677C199.174 49.9579 205.827 56.7343 205.873 65.2039L205.95 79.5615C205.996 88.0312 199.416 94.9861 191.255 95.0962Z" fill="white"/>
<path d="M191.234 95.4067C190.792 95.4067 190.374 95.2346 190.054 94.9207C189.716 94.5882 189.528 94.1384 189.526 93.6548L189.299 51.5501C189.293 50.5746 190.059 49.7704 191.005 49.7577C194.931 49.7046 198.662 51.2116 201.504 54.0006C204.497 56.9372 206.158 60.9154 206.181 65.2022L206.257 79.56C206.304 88.1854 199.575 95.2941 191.256 95.4063H191.256C191.249 95.4067 191.242 95.4067 191.234 95.4067ZM191.205 50.3769C191.141 50.3769 191.078 50.3773 191.014 50.378C190.407 50.3862 189.916 50.9106 189.919 51.5469L190.146 93.6518C190.148 93.9689 190.269 94.2624 190.489 94.4783C190.695 94.6804 190.969 94.7919 191.248 94.7862C199.227 94.6785 205.682 87.8497 205.637 79.5633L205.56 65.2056C205.538 61.0856 203.943 57.2635 201.07 54.4434C198.393 51.8166 194.896 50.3769 191.205 50.3769Z" fill="#1E3A59"/>
<g opacity="0.35">
<path d="M205.914 72.8291L205.952 79.5632C205.996 88.0299 199.417 94.9864 191.254 95.0995C190.476 95.1109 189.842 94.4604 189.837 93.6535L189.773 82.4602C189.995 82.9676 190.489 83.3135 191.06 83.3102L192.022 83.2947C198.471 83.2089 203.937 78.8448 205.914 72.8291Z" fill="#1E3A59"/>
</g>
<path d="M191.238 96.8233C190.422 96.8233 189.652 96.5074 189.066 95.9314C188.456 95.3319 188.118 94.5258 188.114 93.6616L187.887 51.5581C187.877 49.808 189.269 48.3649 190.991 48.3415C195.304 48.291 199.387 49.9343 202.501 52.9897C205.765 56.193 207.577 60.5277 207.602 65.1948L207.678 79.5527C207.729 88.9528 200.373 96.7003 191.28 96.8231H191.279C191.265 96.8233 191.252 96.8233 191.238 96.8233ZM191.236 93.3698C191.236 93.3698 191.235 93.3698 191.234 93.3698C191.235 93.3698 191.236 93.3698 191.236 93.3698ZM191.341 51.7942L191.566 93.3611C198.616 93.0813 204.265 86.9666 204.225 79.5712L204.148 65.2132C204.128 61.4738 202.684 58.0081 200.082 55.4548C197.704 53.1213 194.611 51.8282 191.341 51.7942Z" fill="#1E3A59"/>
<path d="M57.0845 51.8727C57.8622 51.8621 58.4967 52.5081 58.5008 53.3154L58.7272 95.4201C58.7316 96.2274 58.1044 96.8906 57.3267 96.9011C49.1648 97.0108 42.5112 90.2345 42.4657 81.7649L42.3889 67.4072C42.343 58.9377 48.9226 51.9829 57.0845 51.8727Z" fill="white"/>
<path d="M57.1287 97.2127C53.274 97.2127 49.6235 95.71 46.8298 92.9684C43.8371 90.0318 42.1764 86.0536 42.1534 81.7668L42.0764 67.409C42.0297 58.7841 48.76 51.6756 57.078 51.5627C57.5304 51.5552 57.9543 51.7287 58.2788 52.0475C58.618 52.3801 58.8063 52.8301 58.8086 53.3141L59.0349 95.4188C59.0403 96.3943 58.2749 97.1987 57.3287 97.2114C57.262 97.2124 57.1953 97.2127 57.1287 97.2127ZM57.0865 52.183C49.1072 52.2907 42.652 59.1195 42.6966 67.4059L42.7736 81.7636C42.7959 85.8835 44.3907 89.7057 47.2644 92.5257C49.9875 95.198 53.5548 96.6203 57.3203 96.5912C57.9273 96.583 58.4183 96.0583 58.4148 95.422L58.1885 53.3173C58.1868 52.9999 58.0645 52.7061 57.8444 52.4901C57.6387 52.2883 57.3681 52.175 57.0865 52.183Z" fill="#1E3A59"/>
<g opacity="0.35">
<path d="M58.6631 83.7397L58.7244 95.42C58.7297 96.2274 58.0984 96.89 57.3207 96.9014C53.0371 96.9575 49.1646 95.1184 46.4482 92.1296C43.9952 89.4299 42.485 85.7886 42.4627 81.7672L42.4297 75.7178C44.7753 80.994 49.9574 84.6227 55.9413 84.5435L57.422 84.5231C57.9622 84.5142 58.4199 84.1983 58.6631 83.7397Z" fill="#1E3A59"/>
</g>
<path d="M57.1271 98.629C52.8988 98.629 48.8969 96.9828 45.8363 93.9793C42.5719 90.7758 40.7606 86.4413 40.7355 81.7742L40.6585 67.4163C40.6075 58.0167 47.9648 50.2696 57.0573 50.1459C57.8899 50.1323 58.6732 50.4511 59.2696 51.036C59.8804 51.6355 60.2193 52.4418 60.2237 53.3066L60.45 95.4108C60.4598 97.1612 59.0675 98.6042 57.3465 98.6277C57.2734 98.6285 57.2001 98.629 57.1271 98.629ZM56.772 53.6079C49.7215 53.8877 44.0719 60.0023 44.1118 67.3978L44.1888 81.7557C44.209 85.4951 45.6529 88.9608 48.2552 91.5142C50.6327 93.8476 53.7264 95.1407 56.9954 95.1748L56.772 53.6079ZM57.104 53.5992C57.1036 53.5992 57.1036 53.5992 57.1031 53.5992C57.1036 53.5992 57.1038 53.5992 57.1042 53.5992H57.104Z" fill="#1E3A59"/>
<g opacity="0.25">
<path d="M173.162 131.877C159.569 146.134 140.376 154.5 119.651 153.252C101.744 152.175 85.8695 144.101 74.3359 131.743C74.5392 131.409 74.755 131.088 74.9783 130.771C77.9134 126.685 82.7023 124.019 88.1176 124.019H159.3C164.759 124.019 169.593 126.73 172.512 130.885C172.74 131.206 172.955 131.539 173.162 131.877Z" fill="#1E3A59"/>
</g>
<path d="M193.173 77.6444C190.677 117.208 157.763 147.418 119.657 145.12C81.5515 142.823 52.6836 108.888 55.1797 69.3249C57.6754 29.7614 90.5897 -0.448729 128.696 1.84891C166.802 4.14617 195.669 38.0813 193.173 77.6444Z" fill="white"/>
<path d="M123.712 145.552C122.362 145.552 121.007 145.512 119.642 145.43C101.619 144.343 84.997 136.168 72.838 122.41C60.009 107.895 53.6292 89.0347 54.8737 69.3053C57.3763 29.6348 90.5004 -0.764615 128.719 1.53928C146.742 2.6258 163.364 10.8009 175.522 24.5584C188.352 39.0746 194.731 57.9343 193.487 77.6638C191.073 115.917 160.181 145.552 123.712 145.552ZM124.648 2.03692C88.5007 2.03692 57.8855 31.4161 55.493 69.3444C54.2588 88.9081 60.5837 107.608 73.303 121.999C85.3519 135.633 101.822 143.734 119.68 144.81C121.03 144.892 122.376 144.932 123.712 144.932C159.859 144.934 190.475 115.553 192.867 77.6248C194.102 58.0609 187.777 39.361 175.058 24.9692C163.009 11.3361 146.539 3.23525 128.681 2.15854C127.331 2.07701 125.984 2.03692 124.648 2.03692Z" fill="#1E3A59"/>
<g opacity="0.35">
<path d="M193.134 67.6878C193.369 70.9534 193.382 74.2772 193.171 77.6448C190.669 117.207 157.757 147.416 119.652 145.122C81.548 142.82 52.681 108.887 55.1734 69.3245C55.2446 68.187 55.3417 67.05 55.4649 65.9316C57.9167 101.084 85.0417 129.669 119.907 131.773C156.916 134.001 189.021 105.571 193.134 67.6878Z" fill="#1E3A59"/>
</g>
<path d="M123.712 146.969C122.332 146.969 120.95 146.928 119.556 146.844C101.154 145.734 84.1852 137.39 71.7753 123.348C58.6952 108.548 52.1902 89.3239 53.4586 69.2161C56.0104 28.7682 89.8081 -2.22415 128.803 0.125223C147.204 1.23453 164.173 9.57856 176.583 23.6203C189.663 38.4202 196.168 57.645 194.899 77.7528C192.439 116.754 160.92 146.969 123.712 146.969ZM124.648 3.45353C89.2423 3.45353 59.2508 32.2551 56.9055 69.4336C55.6952 88.6189 61.895 106.954 74.3633 121.062C86.1611 134.411 102.285 142.343 119.764 143.396C121.084 143.476 122.404 143.515 123.71 143.515C159.118 143.519 189.107 114.716 191.452 77.5356C192.663 58.3501 186.463 40.015 173.995 25.9074C162.197 12.5583 146.074 4.62619 128.595 3.57255C127.272 3.49266 125.956 3.45353 124.648 3.45353Z" fill="#1E3A59"/>
<path d="M192.837 79.4707C192.156 93.4995 187.138 106.328 179.113 116.77C173.097 124.598 149.291 137.707 120.727 136.701C94.2431 135.768 70.8678 120.043 65.6354 111.714C58.6558 100.603 54.9003 87.3834 55.5808 73.3546C57.3809 36.2306 88.8517 22.2096 126.755 23.8988C164.659 25.5873 194.637 42.3467 192.837 79.4707Z" fill="#0056A8"/>
<g opacity="0.5">
<path d="M162.147 71.4062C160.61 78.2472 163.228 84.7004 167.997 85.82C172.765 86.9399 177.878 82.3019 179.416 75.4612C180.953 68.6198 178.334 62.1666 173.566 61.0471C168.797 59.9275 163.685 64.5652 162.147 71.4062Z" fill="white"/>
</g>
<g opacity="0.5">
<path d="M154.212 96.3165C153.096 99.328 154.204 102.56 156.687 103.536C159.171 104.51 162.089 102.86 163.206 99.848C164.322 96.8357 163.214 93.6038 160.73 92.629C158.247 91.6537 155.328 93.3046 154.212 96.3165Z" fill="white"/>
</g>
<g opacity="0.35">
<path d="M181.166 44.2427C189.153 52.9273 193.555 64.5584 192.833 79.4686C192.153 93.5007 187.133 106.329 179.113 116.771C173.095 124.599 149.286 137.707 120.723 136.704C110.638 136.352 101.006 133.851 92.6523 130.426C127.794 130.882 156.8 114.784 164.26 105.074C174.446 91.8217 180.815 75.5371 181.675 57.7358C181.909 52.9781 181.722 48.4835 181.166 44.2427Z" fill="#121A27"/>
</g>
<path d="M188.514 48.3789C188.101 48.3789 187.688 48.2317 187.36 47.9369L187.179 47.7813L187.037 47.5533C176.22 30.0932 154.212 19.3744 126.656 18.1459C98.9428 16.9112 75.9941 25.9459 63.6944 42.9321L63.5372 43.1203C62.9079 43.7803 61.8641 43.8395 61.1636 43.2393C60.4568 42.6332 60.3599 41.5803 60.9333 40.8571C73.9347 22.9445 97.9408 13.4082 126.809 14.696C155.478 15.974 178.473 27.2548 189.919 45.6481C190.403 46.3228 190.341 47.267 189.735 47.8733C189.398 48.2104 188.956 48.3789 188.514 48.3789Z" fill="#1E3A59"/>
<g opacity="0.5">
<path d="M69.9213 96.1265C69.9213 96.1265 60.6216 59.0095 80.3423 45.2628C100.062 31.5153 127.413 32.7934 126.685 34.5858C126.685 34.5858 96.0334 40.8475 82.9798 65.172C72.9134 83.9295 69.9213 96.1265 69.9213 96.1265Z" fill="white"/>
</g>
<path d="M173.944 196.811C173.944 202.336 170.066 204.572 170.066 204.572C157.033 206.868 141.247 208.621 123.393 208.621C105.542 208.621 89.7648 206.868 76.7357 204.572C76.7357 204.572 72.8574 202.336 72.8574 196.811C72.8574 190.778 76.8048 190.786 79.2562 169.317H167.545C169.997 190.786 173.944 190.778 173.944 196.811Z" fill="white"/>
<g opacity="0.25">
<path d="M173.942 196.811C173.942 202.336 170.064 204.572 170.064 204.572C157.031 206.868 141.245 208.621 123.391 208.621C105.54 208.621 89.7628 206.868 76.7337 204.572C76.7337 204.572 72.8555 202.336 72.8555 196.811C72.8555 190.778 76.8028 190.786 79.2542 169.317H80.5714C80.6771 173.952 81.6694 183.68 88.4417 177.944C88.4417 177.944 79.7745 192.221 95.9543 198.608C105.438 202.352 118.728 202.486 122.7 202.433C122.915 202.433 123.102 202.429 123.265 202.425H123.301C123.46 202.429 123.647 202.433 123.866 202.433C127.838 202.486 141.124 202.352 150.608 198.608C166.787 192.221 158.12 177.944 158.12 177.944C164.893 183.68 165.885 173.952 165.991 169.317H167.543C169.995 190.786 173.942 190.778 173.942 196.811Z" fill="#1E3A59"/>
</g>
<g opacity="0.25">
<path d="M123.389 202.409V202.433C123.174 202.433 122.991 202.429 122.832 202.425C123.194 202.417 123.389 202.409 123.389 202.409Z" fill="#1E3A59"/>
</g>
<g opacity="0.25">
<path d="M122.795 202.425C122.636 202.429 122.453 202.433 122.238 202.433V202.409C122.238 202.409 122.433 202.416 122.795 202.425Z" fill="#1E3A59"/>
</g>
<path d="M123.392 210.346C107.572 210.346 91.7693 208.975 76.4231 206.271L76.5421 204.91L75.8755 206.066C75.6819 205.955 71.1328 203.258 71.1328 196.811C71.1328 194.152 71.8251 192.459 72.7015 190.314C74.0385 187.043 76.0592 182.1 77.5418 169.121C77.6502 168.174 78.506 167.488 79.4534 167.602C80.4008 167.71 81.0812 168.566 80.973 169.513C79.4366 182.965 77.3071 188.174 75.8983 191.621C75.08 193.623 74.5862 194.831 74.5862 196.811C74.5862 200.56 76.7022 202.424 77.3992 202.936C107.47 208.189 139.345 208.186 169.411 202.932C170.097 202.427 172.217 200.563 172.217 196.811C172.217 194.831 171.723 193.623 170.905 191.621C169.496 188.174 167.366 182.965 165.83 169.513C165.722 168.566 166.402 167.71 167.35 167.602C168.302 167.487 169.153 168.174 169.261 169.121C170.743 182.1 172.764 187.043 174.101 190.315C174.978 192.459 175.67 194.153 175.67 196.811C175.67 203.258 171.121 205.955 170.928 206.066L170.664 206.218L170.365 206.271C155.018 208.975 139.214 210.346 123.392 210.346Z" fill="#1E3A59"/>
<g clip-path="url(#clip0_782_8764)">
<path d="M123.203 190.554L112.799 198.028L119.404 167.617L123.203 190.554ZM123.414 190.484L129.75 190.565L119.649 167.734L123.414 190.484ZM130.346 189.981L135.197 171.991L133.362 169.746L130.346 189.981ZM128.008 161.78L120.023 167.161L131.69 163.383L128.008 161.78ZM127.002 161.78L122.046 161.944L121.321 164.014L127.002 161.78Z" fill="#384182"/>
<path d="M133.012 169.055L120.234 167.301L131.749 163.675L133.012 169.055ZM129.984 162.295L130.685 160.388L127.003 158.786L129.984 162.295ZM131.048 160.201L131.878 163.195L136.788 161.897L131.048 160.201Z" fill="#F79534"/>
<path d="M130.03 190.448L119.789 167.523L133.139 169.395L130.03 190.448ZM127.622 161.78L121.309 164.248L119.789 167.055L127.622 161.78ZM123.705 159.909L122.127 161.652L127.364 161.523L123.705 159.909ZM126.464 158.552L123.962 159.71L129.667 162.225L126.464 158.552ZM129.317 158.4H126.628L130.79 160.014L129.317 158.4ZM130.871 160.54L130.228 162.459L131.514 163.079L130.871 160.54Z" fill="#F0513A"/>
</g>
<path d="M130.938 160.074L136.799 161.749L131.776 163.423L133.02 168.65C133.12 169.068 133.307 169.459 133.571 169.797L134.208 170.617C134.785 171.359 134.981 172.329 134.737 173.237L130.698 188.271C130.346 189.582 129.158 190.493 127.801 190.493H124.103C123.467 190.493 122.848 190.695 122.334 191.07L112.799 198.028L119.177 168.796C119.389 167.823 119.722 166.879 120.168 165.988L121.171 163.981L121.774 162.624C122.113 161.861 122.59 161.167 123.181 160.576C123.698 160.059 124.295 159.628 124.949 159.301L125.937 158.808C126.473 158.54 127.064 158.4 127.664 158.4C128.688 158.4 129.671 158.807 130.395 159.531L130.938 160.074Z" stroke="#1E3A59" stroke-width="1.25"/>
<path d="M123.389 216.973C102.562 216.973 76.8714 212.427 76.6141 212.381C76.0276 212.276 75.6367 211.716 75.7416 211.129C75.8465 210.542 76.4075 210.154 76.9936 210.256C77.249 210.302 102.756 214.814 123.389 214.814C144.023 214.814 169.53 210.302 169.785 210.256C170.373 210.154 170.933 210.543 171.037 211.129C171.142 211.716 170.752 212.276 170.165 212.381C169.908 212.427 144.217 216.973 123.389 216.973Z" fill="#1E3A59"/>
<path d="M123.402 227.426C122.806 227.426 122.322 226.943 122.322 226.347V215.893C122.322 215.297 122.806 214.814 123.402 214.814C123.998 214.814 124.481 215.297 124.481 215.893V226.347C124.481 226.943 123.998 227.426 123.402 227.426Z" fill="#1E3A59"/>
<path d="M123.401 224.721C122.916 224.721 122.475 224.392 122.354 223.9C122.211 223.321 122.565 222.736 123.143 222.594L124.158 222.344C125.352 222.05 126.186 220.987 126.186 219.758V215.893C126.186 215.297 126.669 214.814 127.265 214.814C127.861 214.814 128.344 215.297 128.344 215.893V219.758C128.344 221.983 126.835 223.908 124.674 224.439L123.66 224.689C123.573 224.711 123.486 224.721 123.401 224.721Z" fill="#1E3A59"/>
<path d="M153.397 222.244C152.915 222.244 152.457 222.229 152.029 222.196C148.452 221.921 147.63 214.411 147.628 214.335C147.608 213.739 148.074 213.24 148.67 213.22C149.25 213.222 149.749 213.653 149.784 214.235C149.934 215.875 151.054 219.956 152.194 220.044C157.693 220.465 169.271 217.618 169.388 217.589C169.966 217.445 170.551 217.798 170.695 218.377C170.838 218.955 170.485 219.54 169.907 219.684C169.454 219.796 159.505 222.244 153.397 222.244Z" fill="#1E3A59"/>
<path d="M93.2898 222.244C87.1825 222.244 77.2336 219.796 76.7809 219.684C76.2023 219.54 75.8495 218.955 75.9929 218.377C76.1363 217.798 76.7224 217.445 77.3001 217.589C77.4162 217.617 88.9943 220.463 94.4931 220.044C95.6362 219.956 96.7573 215.863 96.9046 214.228C96.9244 213.632 97.4262 213.183 98.0177 213.202C98.6134 213.222 99.0793 213.738 99.0599 214.334C99.0576 214.41 98.2411 221.92 94.6585 222.196C94.2309 222.228 93.772 222.244 93.2898 222.244Z" fill="#1E3A59"/>
<path d="M159.031 177.46C160.056 178.692 161.163 179.829 162.412 180.768C163.657 181.718 165.036 182.437 166.524 183.186C167.265 183.559 168.035 183.973 168.797 184.444C169.551 184.941 170.305 185.491 170.963 186.152C172.306 187.457 173.302 189.025 174.113 190.608C174.522 191.408 174.205 192.389 173.405 192.798C172.605 193.208 171.624 192.891 171.214 192.091C171.195 192.053 171.177 192.015 171.161 191.975L171.148 191.945C170.563 190.533 169.859 189.212 168.909 188.122C168.444 187.564 167.888 187.088 167.3 186.621C166.687 186.17 166.033 185.742 165.327 185.311C163.925 184.455 162.421 183.512 161.121 182.338C159.81 181.173 158.703 179.826 157.723 178.427C157.466 178.059 157.555 177.552 157.923 177.294C158.271 177.05 158.745 177.117 159.012 177.438L159.031 177.46Z" fill="#1E3A59"/>
<path d="M89.0977 178.427C88.1176 179.826 87.0106 181.173 85.7 182.338C84.4003 183.513 82.8961 184.455 81.4944 185.312C80.7887 185.742 80.1342 186.17 79.5212 186.621C78.9329 187.088 78.3768 187.565 77.9125 188.122C76.9616 189.212 76.258 190.533 75.6734 191.945L75.6616 191.972C75.3181 192.803 74.3656 193.198 73.5351 192.854C72.7041 192.51 72.3094 191.557 72.6537 190.727C72.67 190.687 72.6895 190.645 72.7086 190.608C73.5188 189.024 74.5153 187.456 75.8588 186.152C76.5161 185.491 77.2703 184.941 78.0239 184.444C78.7858 183.974 79.5566 183.559 80.2976 183.186C81.7847 182.437 83.1632 181.718 84.4092 180.768C85.6577 179.829 86.7654 178.692 87.7899 177.46L87.8062 177.44C88.0935 177.095 88.6062 177.048 88.9517 177.335C89.2781 177.607 89.3359 178.084 89.0977 178.427Z" fill="#1E3A59"/>
<path d="M134.76 164.286C134.763 164.283 134.764 164.28 134.764 164.279C134.762 164.271 134.761 164.274 134.76 164.286Z" fill="#F8AF0F"/>
<path d="M120.505 283.334C120.429 283.334 120.352 283.332 120.275 283.328C116.403 283.139 111.439 281.259 109.053 280.355C108.703 280.223 108.415 280.114 108.207 280.039C101.414 277.621 90.8193 277.089 87.7337 276.983C86.2425 276.933 84.8605 276.166 84.0365 274.931L84.036 274.931C82.4125 272.497 80.0014 267.821 82.0941 263.849C82.5032 263.072 83.4621 261.252 94.8001 262.455C101.537 263.169 108.334 264.657 112.983 266.436C116.374 267.734 119.503 268.572 121.53 269.046C123.644 269.541 125.12 271.404 125.12 273.576V278.677C125.12 279.95 124.591 281.183 123.669 282.061C122.802 282.887 121.687 283.334 120.505 283.334ZM86.9086 273.014C87.1166 273.325 87.4689 273.519 87.8515 273.532C91.9671 273.673 102.302 274.271 109.365 276.786C109.589 276.866 109.899 276.983 110.276 277.126C112.496 277.966 117.116 279.716 120.444 279.878C120.86 279.897 121.153 279.688 121.288 279.56C121.532 279.328 121.666 279.014 121.666 278.677V273.576C121.666 273.016 121.287 272.536 120.743 272.409C118.612 271.91 115.321 271.028 111.748 269.661C102.164 265.994 87.6402 264.941 85.0014 265.779C84.0187 268.241 85.985 271.629 86.9086 273.014Z" fill="#1E3A59"/>
<defs>
<clipPath id="clip0_782_8764">
<rect width="24" height="39.6279" fill="white" transform="translate(112.799 158.4)"/>
</clipPath>
</defs>
</svg>
