<svg width="512" height="512" viewBox="0 0 512 512" fill="none" xmlns="http://www.w3.org/2000/svg">
<circle cx="256" cy="256" r="256" fill="white"/>
<path d="M165.526 247.008C151.843 260.383 145.057 316.385 152.821 348.216C160.585 380.047 217.986 374.956 250.493 369.616C283 364.274 273.179 290.476 270.15 270.76C265.421 239.973 185.803 227.191 165.526 247.008Z" fill="white"/>
<g opacity="0.25">
<path d="M250.495 369.618C217.987 374.959 160.589 380.045 152.819 348.217C151.806 344.047 151.036 339.468 150.506 334.621C160.453 340.523 172.185 332.562 172.56 323.697C173.766 295.2 179.013 275.264 184.996 261.529C191.92 245.634 209.176 236.709 226.112 240.421C248.173 245.255 267.872 255.913 270.148 270.765C273.182 290.478 283.003 364.277 250.495 369.618Z" fill="#1E3A59"/>
</g>
<path d="M207.294 376.76C179.283 376.76 154.941 370.217 149.758 348.963C141.554 315.33 148.907 258.842 163.323 244.753C177.136 231.252 213.293 232.109 238.871 240.648C259.158 247.42 271.374 257.944 273.27 270.281C275.496 284.773 277.915 306.161 276.799 325.758C275.168 354.382 266.49 370.185 251.006 372.729C236.854 375.054 221.596 376.76 207.294 376.76ZM200.017 240.621C185.763 240.621 173.574 243.556 167.733 249.265C155.035 261.675 148.393 316.743 155.888 347.468C162.925 376.326 217.862 371.779 249.983 366.504C278.659 361.791 270.284 292.396 267.034 271.239C265.537 261.5 254.544 252.531 236.872 246.632C224.778 242.595 211.702 240.621 200.017 240.621Z" fill="#1E3A59"/>
<path d="M175.863 300.77L160.615 296.9C157.169 296.025 153.728 298.364 153.292 301.893C151.792 314.033 150.306 338.985 162.776 342.412C177.888 346.567 180.79 329.383 180.321 306.361C180.268 303.709 178.434 301.423 175.863 300.77Z" fill="white"/>
<g opacity="0.25">
<path d="M180.282 306.328C180.806 329.348 177.94 346.544 162.82 342.42C156.61 340.734 153.845 333.696 152.822 325.561C154.323 327.73 156.271 329.306 158.799 329.992C172.336 333.678 176.055 320.282 176.297 300.903C178.62 301.682 180.234 303.847 180.282 306.328Z" fill="#1E3A59"/>
</g>
<path d="M167.035 346.191C165.454 346.191 163.774 345.95 161.998 345.467C147.509 341.519 148.337 316.253 150.121 301.544C150.433 298.968 151.839 296.648 153.979 295.177C156.126 293.702 158.805 293.221 161.333 293.856L176.59 297.691C180.536 298.683 183.354 302.207 183.445 306.261C183.923 327.383 181.397 338.528 175.001 343.53C172.736 345.302 170.068 346.191 167.035 346.191ZM159.108 299.888C158.558 299.888 158.022 300.054 157.552 300.377C156.894 300.829 156.48 301.513 156.384 302.303C154.392 318.726 155.258 337.09 163.656 339.378C166.854 340.251 169.295 339.982 171.115 338.56C177.748 333.374 177.288 313.073 177.138 306.402C177.111 305.178 176.252 304.111 175.05 303.809L159.795 299.974C159.566 299.917 159.335 299.888 159.108 299.888Z" fill="#1E3A59"/>
<path d="M162.918 248.867C164.809 249.288 166.629 249.734 168.471 250.202C170.306 250.67 172.135 251.162 173.958 251.677C177.602 252.713 181.224 253.847 184.792 255.197C185.56 255.488 185.947 256.347 185.657 257.115C185.389 257.823 184.642 258.207 183.926 258.039L183.913 258.035C180.332 257.199 176.687 256.567 173.025 256.033C171.193 255.77 169.357 255.53 167.519 255.313C165.688 255.098 163.827 254.898 162.026 254.741L162.013 254.74C160.374 254.598 159.162 253.154 159.304 251.516C159.447 249.877 160.891 248.665 162.529 248.807C162.655 248.818 162.796 248.841 162.918 248.867Z" fill="#371B45"/>
<path d="M409.103 231.856C404.544 252.562 394.25 271.114 380.407 278.11C368.004 284.386 359.961 286.398 339.166 288.418C328.279 289.473 317.584 289.02 308.189 287.95C289.748 285.856 276.329 281.4 276.329 281.4L274.257 263.553L273.098 253.565L270.09 227.675C270.09 227.675 280.696 229.739 294.465 230.787C303.964 231.514 314.97 231.76 325.025 230.504C337.213 228.997 348.011 225.298 353.099 217.619C363.712 201.577 352.155 181.547 364.306 171.224C374.807 162.29 407.374 172.71 410.7 194.329C412.535 206.264 411.851 219.446 409.103 231.856Z" fill="white"/>
<g opacity="0.25">
<path d="M409.105 231.856C404.546 252.562 394.252 271.114 380.409 278.11C368.006 284.386 359.963 286.398 339.168 288.418C328.281 289.473 317.586 289.02 308.191 287.951C289.75 285.856 276.331 281.4 276.331 281.4L274.259 263.554L273.1 253.565L302.258 251.805C302.258 251.805 332.247 283.628 373.947 266.094C390.331 259.209 401.59 245.44 409.105 231.856Z" fill="#1E3A59"/>
</g>
<path d="M326.387 292.173C320.403 292.173 314.2 291.81 307.832 291.086C289.279 288.978 275.895 284.581 275.334 284.395L273.427 283.761L266.459 223.756L270.692 224.58C270.797 224.6 281.297 226.623 294.704 227.642C306.131 228.518 316.199 228.427 324.635 227.375C337.803 225.746 346.494 221.878 350.468 215.878C355.071 208.922 355.023 200.887 354.976 193.116C354.923 184.261 354.867 175.104 362.263 168.821C367.884 164.039 378.551 163.569 389.435 167.623C399.87 171.51 411.755 180.441 413.819 193.849C418.604 224.964 406.644 268.378 381.83 280.927C369.016 287.41 360.702 289.497 339.471 291.559C335.249 291.968 330.879 292.173 326.387 292.173ZM279.224 278.99C283.506 280.249 294.618 283.236 308.545 284.817C319.257 286.036 329.457 286.191 338.861 285.28C359.144 283.31 367.018 281.35 378.983 275.297L378.983 275.296C398.882 265.233 412.513 226.87 407.582 194.809C405.934 184.099 395.99 176.797 387.233 173.535C378.726 170.366 370.138 170.405 366.349 173.628C361.194 178.008 361.236 184.992 361.284 193.079C361.334 201.386 361.392 210.803 355.73 219.361C350.689 226.969 340.489 231.771 325.413 233.636C316.563 234.741 306.069 234.84 294.224 233.933C285.498 233.27 278.088 232.215 273.71 231.508L279.224 278.99Z" fill="#1E3A59"/>
<path d="M269.22 357.168C263.747 392.4 245.529 422.233 198.674 429.846C198.674 429.846 199.053 430.462 199.602 431.517C200.82 433.849 202.87 438.305 203.546 443.028C204.756 451.294 201.771 460.37 182.818 460.265C161.503 460.147 149.524 443.399 145.981 425.286C143.396 412.051 145.32 398.082 151.403 389.347C160.59 376.143 177.366 373.923 191.581 362.879C194.969 360.249 198.206 357.116 201.169 353.217C203.725 349.852 206.086 345.894 208.21 341.593C212.978 331.925 216.52 320.539 218.251 310.298L271.077 321.965C271.426 333.885 270.988 345.805 269.22 357.168Z" fill="white"/>
<g opacity="0.25">
<path d="M198.672 429.848C198.672 429.848 199.051 430.464 199.6 431.519C192.025 430.235 178.568 426.558 167.91 416.154C167.91 416.154 204.517 424.961 220.514 402.881C233.801 384.537 200.41 389.877 191.579 362.881C194.966 360.252 198.204 357.118 201.167 353.219C203.722 349.854 206.084 345.896 208.208 341.596C229.864 341.744 263.656 354.942 269.218 357.17C263.745 392.402 245.527 422.235 198.672 429.848Z" fill="#1E3A59"/>
</g>
<g opacity="0.25">
<path d="M182.821 460.265C161.506 460.146 149.527 443.399 145.984 425.285C152.461 435.862 165.955 451.695 188.235 450.365C197.051 449.838 201.418 446.533 203.549 443.028C204.759 451.294 201.774 460.37 182.821 460.265Z" fill="#1E3A59"/>
</g>
<path d="M183.133 463.425C183.023 463.425 182.914 463.425 182.804 463.425C167.825 463.343 155.54 455.519 148.211 441.394C139.379 424.371 139.644 400.717 148.815 387.543C154.735 379.041 163.247 374.884 172.259 370.481C181.523 365.957 191.101 361.28 198.66 351.313C206.063 341.553 212.533 325.247 215.142 309.772C215.432 308.054 217.062 306.897 218.778 307.186C220.495 307.476 221.654 309.104 221.364 310.822C218.555 327.477 211.782 344.454 203.688 355.126C195.22 366.29 184.493 371.529 175.028 376.151C166.415 380.357 158.976 383.991 153.993 391.148C146.043 402.568 145.963 423.362 153.811 438.488C158.195 446.937 166.79 457.028 182.838 457.116C182.941 457.116 183.044 457.117 183.148 457.117C191.759 457.117 197.238 455.141 199.436 451.242C202.835 445.212 198.1 434.947 195.989 431.501L193.535 427.494L198.171 426.735C247.63 418.694 269.794 385.431 267.922 322.057C267.872 320.315 269.241 318.861 270.983 318.81C272.757 318.756 274.178 320.129 274.23 321.87C276.13 386.272 252.969 422.411 203.453 432.196C205.884 437.495 209.057 447 204.94 454.325C201.546 460.364 194.209 463.425 183.133 463.425Z" fill="#1E3A59"/>
<path d="M239.854 409.181C226.897 409.181 214.034 402.874 202.232 390.631C191.652 379.657 185.698 367.936 185.45 367.443C184.863 366.275 185.333 364.854 186.5 364.267C187.662 363.678 189.088 364.147 189.677 365.315C189.906 365.769 212.982 410.679 247.022 403.718C248.306 403.455 249.552 404.282 249.814 405.562C250.076 406.842 249.25 408.092 247.97 408.354C245.267 408.907 242.558 409.181 239.854 409.181Z" fill="#1E3A59"/>
<path d="M169.075 415.221C169.46 415.624 169.99 416.118 170.492 416.544C171.008 416.979 171.533 417.412 172.086 417.811C172.632 418.221 173.189 418.615 173.767 418.984C174.328 419.374 174.923 419.717 175.511 420.067C177.878 421.455 180.385 422.594 182.951 423.558C184.256 423.994 185.539 424.468 186.874 424.803C187.539 424.978 188.187 425.195 188.862 425.333L190.873 425.773C191.539 425.935 192.218 426.039 192.898 426.143L194.93 426.468C196.293 426.639 197.665 426.752 199.027 426.899L199.215 426.919C200.849 427.096 202.031 428.563 201.854 430.197C201.677 431.831 200.21 433.013 198.576 432.836C198.495 432.828 198.409 432.813 198.329 432.799C196.862 432.515 195.393 432.262 193.936 431.948L191.763 431.407C191.039 431.231 190.316 431.051 189.606 430.814L187.469 430.15C186.755 429.936 186.063 429.639 185.362 429.388C183.953 428.898 182.595 428.265 181.23 427.668C178.535 426.381 175.927 424.911 173.488 423.182C172.882 422.746 172.272 422.316 171.693 421.838C171.101 421.382 170.529 420.899 169.969 420.398C169.402 419.907 168.862 419.38 168.329 418.843C167.788 418.289 167.304 417.771 166.761 417.085C166.253 416.442 166.362 415.509 167.005 415.001C167.609 414.524 168.471 414.591 168.994 415.136L169.075 415.221Z" fill="#1E3A59"/>
<path d="M305.827 342.985C305.085 344.715 304.305 346.32 303.503 347.798C302.873 348.964 302.211 350.07 301.513 351.14C289.823 369.142 269.986 373.732 255.63 375.581C240.428 377.549 188.396 372.618 182.358 336.583C182.328 336.412 182.299 336.242 182.276 336.071C181.318 330.107 181.11 324.485 181.437 318.974C181.474 318.313 181.526 317.652 181.578 316.991C182.232 309.097 183.933 301.366 186.057 293.1C189.012 281.61 192.778 269.096 195.637 253.701C195.793 252.891 195.942 252.082 196.083 251.257C197.308 244.328 198.341 236.805 199.031 228.539C199.113 227.596 199.187 226.645 199.254 225.68C199.893 216.953 200.145 207.403 199.848 196.856L286.072 213.596L291.568 224.855L294.465 230.789L300.287 242.731L302.07 250.96L302.255 251.807C303.629 258.923 306.132 271.525 306.942 277.697C307.409 281.276 307.825 284.693 308.189 287.953C311.219 314.965 310.744 331.503 305.827 342.985Z" fill="white"/>
<g opacity="0.26">
<path d="M300.857 352.133C289.085 369.311 269.716 373.76 255.635 375.58C241.228 377.444 193.733 373.114 183.678 341.974C203.187 365.472 245.528 368.866 259.861 367.017C272.175 365.427 287.941 362.108 300.857 352.133Z" fill="#371B45"/>
</g>
<path d="M303.708 251.497C306.334 259.216 308.138 267.151 309.526 275.166C310.207 279.177 310.729 283.216 311.227 287.261C311.717 291.307 312.119 295.368 312.412 299.446C312.995 307.601 313.195 315.823 312.579 324.093C312.276 328.226 311.72 332.372 310.843 336.503C309.934 340.629 308.669 344.751 306.628 348.693C305.606 350.628 304.518 352.444 303.274 354.212C302.055 355.983 300.71 357.674 299.259 359.265C297.819 360.869 296.269 362.373 294.626 363.763C292.987 365.155 291.276 366.463 289.48 367.632C282.309 372.367 274.191 375.266 266.054 377.008C264.016 377.449 261.971 377.822 259.926 378.141C258.903 378.302 257.881 378.449 256.86 378.584C256.358 378.652 255.838 378.72 255.276 378.781C254.733 378.837 254.193 378.884 253.657 378.922C249.385 379.208 245.238 379.062 241.091 378.737C232.821 378.041 224.633 376.508 216.686 373.941C208.771 371.357 201.017 367.712 194.355 362.266C191.04 359.547 188.034 356.36 185.606 352.734C183.176 349.115 181.336 345.068 180.241 340.851C179.972 339.797 179.726 338.737 179.54 337.667C179.335 336.596 179.227 335.586 179.065 334.542C178.898 333.508 178.802 332.464 178.706 331.421C178.601 330.378 178.498 329.336 178.465 328.287C178.225 324.105 178.305 319.901 178.711 315.755C179.503 307.45 181.359 299.4 183.398 291.547C185.448 283.688 187.623 275.953 189.497 268.171C191.373 260.393 192.956 252.57 194.156 244.686C196.532 228.915 197.306 212.92 196.875 196.938V196.932C196.831 195.292 198.125 193.926 199.765 193.882C201.406 193.838 202.771 195.131 202.814 196.772C203.254 213.049 202.466 229.417 200.031 245.573C198.803 253.646 197.18 261.655 195.273 269.565C193.367 277.475 191.172 285.28 189.15 293.037C187.133 300.793 185.367 308.531 184.627 316.307C184.245 320.192 184.175 324.082 184.397 327.954C184.426 328.924 184.523 329.889 184.62 330.854C184.709 331.819 184.796 332.785 184.953 333.744C185.1 334.692 185.207 335.69 185.389 336.6C185.552 337.518 185.766 338.423 185.998 339.323C186.946 342.915 188.508 346.311 190.585 349.384C192.661 352.458 195.256 355.203 198.184 357.587C204.061 362.364 211.169 365.722 218.57 368.103C225.994 370.473 233.779 371.906 241.587 372.531C245.483 372.825 249.424 372.939 253.206 372.668C253.677 372.633 254.142 372.591 254.601 372.542C255.043 372.492 255.523 372.429 256.02 372.359C256.998 372.227 257.973 372.083 258.943 371.926C260.883 371.615 262.807 371.257 264.71 370.838C272.314 369.173 279.657 366.517 285.976 362.328C287.563 361.296 289.06 360.144 290.495 358.924C291.932 357.708 293.282 356.394 294.535 354.992C295.801 353.602 296.975 352.128 298.039 350.573C299.119 349.044 300.103 347.388 300.963 345.754C301.799 344.138 302.506 342.415 303.108 340.631C303.697 338.84 304.195 336.998 304.63 335.128C305.456 331.37 306.011 327.505 306.324 323.593C306.967 315.767 306.841 307.807 306.328 299.867C305.824 291.919 304.854 283.979 303.716 276.057C302.672 268.117 301.473 260.189 300.801 252.11V252.103C300.731 251.28 301.343 250.557 302.167 250.488C302.865 250.43 303.491 250.863 303.708 251.497Z" fill="#1E3A59"/>
<path d="M322.432 304.933C322.846 310.644 318.552 315.61 312.841 316.025C307.13 316.439 302.163 312.146 301.748 306.434C301.334 300.722 305.628 295.756 311.339 295.341C317.051 294.927 322.017 299.221 322.432 304.933Z" fill="white"/>
<g opacity="0.25">
<path d="M322.433 304.932C322.848 310.643 318.557 315.614 312.846 316.029C307.134 316.444 302.163 312.145 301.748 306.433C301.634 304.855 301.878 303.326 302.422 301.94C304.336 305.312 308.078 307.477 312.204 307.178C316.329 306.879 319.72 304.196 321.118 300.583C321.856 301.876 322.319 303.354 322.433 304.932Z" fill="#1E3A59"/>
</g>
<path d="M312.078 318.419C309.022 318.419 306.101 317.336 303.767 315.316C301.194 313.092 299.641 309.998 299.395 306.605C298.887 299.602 304.171 293.491 311.174 292.982C318.196 292.475 324.288 297.758 324.798 304.762C325.306 311.765 320.022 317.876 313.019 318.386C312.705 318.408 312.391 318.419 312.078 318.419ZM312.102 297.68C311.908 297.68 311.714 297.687 311.517 297.701C307.116 298.021 303.795 301.861 304.114 306.263C304.269 308.395 305.245 310.34 306.862 311.737C308.479 313.135 310.544 313.82 312.676 313.666C317.077 313.345 320.397 309.505 320.078 305.105C319.772 300.9 316.253 297.68 312.102 297.68Z" fill="#1E3A59"/>
<g opacity="0.35">
<path d="M311.942 312.969C310.112 301.338 309.72 290.547 310.161 280.937C310.427 286.484 310.984 292.305 311.94 298.361C313.053 305.466 313.424 312.886 312.801 320.178C312.606 317.754 312.313 315.344 311.942 312.969Z" fill="#371B45"/>
</g>
<path d="M302.065 333.099L247.931 336.161C241.524 336.526 235.981 331.579 235.615 325.164L233.988 296.357C233.67 290.741 237.425 285.797 242.669 284.409C243.411 284.208 244.186 284.089 244.985 284.042L299.11 280.979C305.525 280.614 311.069 285.561 311.425 291.976L312.721 314.792L313.062 320.783C313.426 327.199 308.471 332.735 302.065 333.099Z" fill="white"/>
<path d="M183.038 299.475C183.038 299.475 176.129 301.937 176.361 311.018C176.543 318.134 179.853 321.075 179.853 321.075C179.853 321.075 203.929 329.073 234.781 320.812C234.781 320.812 240.571 318.239 240.963 309.764C241.112 306.528 239.133 301.614 234.594 300.566C234.594 300.566 206.52 306.286 183.038 299.475Z" fill="white"/>
<path d="M302.065 333.099L247.931 336.161C241.524 336.526 235.981 331.579 235.615 325.164L233.988 296.357C233.67 290.741 237.425 285.797 242.669 284.409C243.411 284.208 244.186 284.089 244.985 284.042L299.11 280.979C305.525 280.614 311.069 285.561 311.425 291.976L312.721 314.792L313.062 320.783C313.426 327.199 308.471 332.735 302.065 333.099Z" fill="white"/>
<path d="M183.038 299.475C183.038 299.475 176.129 301.937 176.361 311.018C176.543 318.134 179.853 321.075 179.853 321.075C179.853 321.075 203.929 329.073 234.781 320.812C234.781 320.812 240.571 318.239 240.963 309.764C241.112 306.528 239.133 301.614 234.594 300.566C234.594 300.566 206.52 306.286 183.038 299.475Z" fill="white"/>
<g opacity="0.25">
<path d="M305.426 302.07L306.719 324.888L307.059 330.872C307.077 331.131 307.081 331.391 307.076 331.645C306.455 333.423 305.787 335.076 305.09 336.606C304.541 337.813 303.957 338.964 303.336 340.078C301.413 341.872 298.881 343.03 296.062 343.188L241.929 346.251C235.522 346.621 229.975 341.667 229.612 335.253L229.348 330.589C228.991 330.807 228.774 330.904 228.774 330.904C223.753 332.25 218.911 333.166 214.328 333.752C201.444 335.398 190.571 334.477 183.343 333.296C182.175 333.109 181.105 332.915 180.139 332.722C180.691 327.487 181.092 322.002 181.322 316.299C181.395 314.455 181.452 312.59 181.492 310.696C182.24 310.868 182.988 311.024 183.735 311.165C203.941 315.05 225.226 311.304 228.231 310.729L227.987 306.451C227.671 300.83 231.423 295.887 236.664 294.504C237.41 294.303 238.183 294.183 238.984 294.134L293.11 291.072C299.524 290.71 305.071 295.655 305.426 302.07Z" fill="#1E3A59"/>
</g>
<g opacity="0.25">
<path d="M182.607 313.604L186.587 293.239C186.587 293.239 195.044 294.142 202.711 307.772C210.378 321.402 200.614 325.007 200.614 325.007L182.607 313.604Z" fill="#1E3A59"/>
</g>
<path d="M302.065 333.099L247.931 336.161C241.524 336.526 235.981 331.579 235.615 325.164L233.988 296.357C233.67 290.741 237.425 285.797 242.669 284.409C243.411 284.208 244.186 284.089 244.985 284.042L299.11 280.979C305.525 280.614 311.069 285.561 311.425 291.976L312.721 314.792L313.062 320.783C313.426 327.199 308.471 332.735 302.065 333.099Z" fill="white"/>
<g opacity="0.25">
<path d="M302.062 333.099L247.929 336.161C241.522 336.526 235.978 331.579 235.614 325.163L233.986 296.357C233.667 290.741 237.423 285.796 242.667 284.409C245.857 286.277 247.883 287.473 247.883 287.473C251.826 310.447 259.064 321.605 287.804 320.45C300.209 319.948 307.926 317.614 312.719 314.792L313.06 320.783C313.424 327.198 308.469 332.734 302.062 333.099Z" fill="#1E3A59"/>
</g>
<path d="M247.269 338.549C239.886 338.549 233.681 332.762 233.258 325.3L231.628 296.489C231.417 292.758 232.679 289.159 235.183 286.355C237.687 283.55 241.121 281.889 244.853 281.678L298.981 278.615C302.716 278.403 306.312 279.666 309.117 282.169C311.921 284.674 313.582 288.108 313.793 291.84L315.424 320.65C315.636 324.382 314.373 327.982 311.869 330.786C309.365 333.59 305.931 335.251 302.199 335.462L248.07 338.526C247.802 338.542 247.534 338.549 247.269 338.549ZM299.782 283.323C299.605 283.323 299.428 283.328 299.25 283.339L245.12 286.402C242.651 286.542 240.375 287.644 238.712 289.506C237.051 291.367 236.213 293.752 236.353 296.221L237.982 325.033C238.272 330.157 242.655 334.077 247.803 333.802L301.932 330.738C304.402 330.599 306.677 329.496 308.34 327.634C310.001 325.773 310.84 323.388 310.7 320.918L309.069 292.107C308.93 289.637 307.828 287.361 305.965 285.699C304.238 284.157 302.059 283.323 299.782 283.323Z" fill="#1E3A59"/>
<path d="M304.224 332.762C303.531 332.948 302.814 333.059 302.064 333.099L247.93 336.161C243.235 336.425 239.005 333.845 236.937 329.911C236.184 328.483 235.716 326.875 235.624 325.164L234.894 312.366L234.654 308.144L233.988 296.357C233.623 289.942 238.577 284.406 244.984 284.042L256.681 283.383C251.348 284.704 247.511 289.689 247.828 295.362L248.704 310.923L249.457 324.177C249.821 330.583 255.365 335.539 261.772 335.175L304.224 332.762Z" fill="white"/>
<g opacity="0.25">
<path d="M304.221 332.763C303.527 332.949 302.811 333.061 302.061 333.1L247.927 336.162C241.52 336.527 235.976 331.58 235.62 325.165L234.65 308.146C236.182 311.075 238.838 314.628 242.773 314.795C244.933 314.89 246.958 313.225 248.701 310.925L249.453 324.178C249.818 330.585 255.362 335.54 261.769 335.176L304.221 332.763Z" fill="#1E3A59"/>
</g>
<path d="M247.254 338.547C243.818 338.547 240.536 337.294 237.935 334.971C235.128 332.466 233.468 329.031 233.259 325.299L231.629 296.488C231.187 288.762 237.119 282.116 244.851 281.674L256.546 281.015L257.249 285.673C252.909 286.752 249.94 290.771 250.193 295.23L251.823 324.04C251.961 326.51 253.063 328.786 254.925 330.449C256.788 332.111 259.167 332.954 261.637 332.809L304.095 330.401L304.824 335.053C303.961 335.278 303.073 335.415 302.185 335.46L248.065 338.524C247.795 338.539 247.524 338.547 247.254 338.547ZM248.31 286.219L245.119 286.398C239.993 286.691 236.06 291.098 236.353 296.22L237.983 325.033C238.122 327.503 239.224 329.778 241.086 331.442C242.947 333.103 245.334 333.946 247.796 333.8L251.364 333.598C248.806 331.13 247.297 327.852 247.099 324.306L245.469 295.497C245.275 292.064 246.345 288.805 248.31 286.219Z" fill="#1E3A59"/>
<path d="M270.005 308.797C270.059 309.862 268.999 318.54 268.999 318.54C268.999 318.54 266.274 318.679 262.927 318.849C258.747 319.062 255.137 314.906 254.866 309.566C254.595 304.227 257.764 299.726 261.944 299.513C264.766 299.37 268.016 299.204 268.016 299.204C268.016 299.204 269.918 307.06 270.005 308.797Z" fill="#3BA1DA"/>
<g opacity="0.35">
<path d="M270.007 308.797C270.061 309.863 269.001 318.541 269.001 318.541C269.001 318.541 266.276 318.68 262.929 318.85C258.749 319.063 255.139 314.907 254.868 309.567C254.597 304.228 257.766 299.727 261.946 299.514C264.768 299.371 268.018 299.205 268.018 299.205C268.018 299.205 269.92 307.061 270.007 308.797Z" fill="#0056A8"/>
</g>
<path d="M262.61 320.434C260.238 320.434 257.988 319.34 256.237 317.324C254.484 315.305 253.437 312.578 253.288 309.646C252.973 303.446 256.819 298.194 261.862 297.937L266.101 297.722C267.904 297.625 269.557 298.856 269.974 300.637C270.987 304.988 271.527 307.706 271.578 308.716C271.59 308.964 271.628 309.725 270.783 316.882C270.566 318.716 269.069 320.116 267.221 320.211L263.004 320.425C262.873 320.431 262.742 320.434 262.61 320.434ZM266.293 300.873C266.282 300.873 266.271 300.873 266.261 300.873L262.021 301.088C258.716 301.256 256.212 305.023 256.439 309.486C256.552 311.718 257.326 313.767 258.619 315.255C259.817 316.633 261.301 317.359 262.845 317.274L267.061 317.059C267.366 317.044 267.614 316.814 267.649 316.513C268.243 311.495 268.439 309.263 268.427 308.873C268.412 308.578 268.256 307.167 266.902 301.355C266.835 301.071 266.582 300.873 266.293 300.873Z" fill="#1E3A59"/>
<path d="M276.075 308.488C276.347 313.827 273.178 318.329 268.997 318.541C264.817 318.754 261.207 314.598 260.936 309.258C260.664 303.919 263.834 299.418 268.014 299.205C272.195 298.993 275.804 303.149 276.075 308.488Z" fill="#07C7FF"/>
<g opacity="0.7">
<path d="M276.014 310.482C275.072 306.128 271.863 302.99 268.219 303.177C264.559 303.364 261.683 306.823 261.197 311.262C261.057 310.62 260.968 309.948 260.933 309.257C260.668 303.917 263.837 299.417 268.017 299.205C272.197 298.994 275.805 303.144 276.077 308.485C276.113 309.169 276.09 309.838 276.014 310.482Z" fill="white"/>
</g>
<g opacity="0.35">
<path d="M268.998 318.535C264.817 318.754 261.203 314.596 260.931 309.255C260.872 308.028 260.989 306.85 261.26 305.749C262.534 309.323 265.424 311.756 268.645 311.588C271.866 311.421 274.487 308.72 275.392 305.042C275.776 306.099 276.015 307.263 276.074 308.484C276.348 313.824 273.178 318.324 268.998 318.535Z" fill="#0056A8"/>
</g>
<path d="M268.681 320.125C266.308 320.125 264.058 319.031 262.307 317.014C260.555 314.997 259.507 312.27 259.358 309.336C259.209 306.404 259.974 303.585 261.513 301.399C263.136 299.096 265.415 297.756 267.931 297.628C270.449 297.505 272.852 298.603 274.699 300.73C276.452 302.748 277.498 305.475 277.648 308.408C277.797 311.34 277.031 314.158 275.493 316.344C273.87 318.648 271.591 319.987 269.075 320.115C268.943 320.122 268.812 320.125 268.681 320.125ZM268.315 300.774C268.241 300.774 268.167 300.776 268.091 300.78C266.564 300.857 265.144 301.722 264.093 303.216C262.958 304.827 262.395 306.945 262.509 309.176C262.623 311.408 263.397 313.457 264.69 314.946C265.886 316.325 267.36 317.047 268.915 316.964C270.442 316.887 271.862 316.022 272.913 314.528C274.049 312.916 274.611 310.799 274.497 308.567C274.383 306.335 273.61 304.286 272.317 302.798C271.178 301.487 269.765 300.774 268.315 300.774Z" fill="#1E3A59"/>
<path d="M285.225 336.209C283.955 336.209 282.904 335.201 282.862 333.921L282.382 319.33C282.245 315.142 284.201 311.195 287.615 308.77C289.783 307.229 290.993 304.723 290.852 302.066L289.76 281.516C289.691 280.211 290.693 279.097 291.998 279.028C293.274 278.948 294.416 279.959 294.486 281.265L295.578 301.816C295.804 306.101 293.853 310.141 290.356 312.627C288.239 314.13 287.026 316.578 287.111 319.174L287.591 333.765C287.635 335.071 286.611 336.165 285.305 336.207C285.278 336.208 285.252 336.209 285.225 336.209Z" fill="#1E3A59"/>
<path d="M183.038 299.475C183.038 299.475 176.129 301.937 176.361 311.018C176.543 318.134 179.853 321.075 179.853 321.075C179.853 321.075 203.929 329.073 234.781 320.812C234.781 320.812 240.571 318.239 240.963 309.764C241.112 306.528 239.133 301.614 234.594 300.566C234.594 300.566 206.52 306.286 183.038 299.475Z" fill="white"/>
<g opacity="0.25">
<path d="M240.958 309.766C240.571 318.235 234.778 320.811 234.778 320.811C203.928 329.07 179.847 321.07 179.847 321.07C179.847 321.07 176.54 318.135 176.359 311.016C176.306 308.86 176.651 307.079 177.22 305.61C178.095 310.404 180.388 312.434 180.388 312.434C180.388 312.434 204.468 320.433 235.318 312.175C235.318 312.175 238.648 310.693 240.419 306.289C240.838 307.496 241.004 308.72 240.958 309.766Z" fill="#1E3A59"/>
</g>
<path d="M206.214 326.943C190.292 326.943 179.767 323.538 179.106 323.319L178.644 323.165L178.28 322.842C177.863 322.471 174.199 318.991 173.995 311.077C173.723 300.406 181.896 297.369 182.244 297.245L182.963 296.988L183.698 297.202C206.325 303.766 233.846 298.303 234.121 298.247L234.625 298.144L235.125 298.26C241.087 299.635 243.509 305.879 243.326 309.872C242.872 319.693 236.032 322.844 235.741 322.973L235.392 323.097C224.596 325.987 214.647 326.943 206.214 326.943ZM181.153 318.996C184.873 320.078 206.828 325.779 233.939 318.587C234.663 318.19 238.311 315.89 238.598 309.654C238.703 307.389 237.334 303.942 234.499 302.995C230.32 303.783 205.245 308.073 183.241 301.991C181.843 302.767 178.579 305.2 178.725 310.957C178.846 315.665 180.467 318.15 181.153 318.996Z" fill="#1E3A59"/>
<path d="M355.251 393.552C349.31 429.386 288.693 441.053 277.226 426.824C264.712 411.302 268.515 386.95 259.602 383.622C243.896 377.755 202.899 389.831 186.078 348.368C184.763 345.138 183.605 341.58 182.609 337.666L227.199 339.872C246.554 330.046 278.616 317.807 303.717 335.669C317.709 345.62 322.098 372.17 320.866 386.222C320.673 388.42 320.346 390.307 319.894 391.785C319.893 391.784 360.071 364.483 355.251 393.552Z" fill="white"/>
<g opacity="0.25">
<path d="M355.254 393.551C349.312 429.386 288.695 441.053 277.229 426.823C264.714 411.302 268.517 386.949 259.605 383.622C243.898 377.755 202.902 389.831 186.08 348.367C192.259 356.566 204.825 368.538 226.11 369.764C251.139 371.204 266.868 363.734 274.607 373.581C281.016 381.728 276.612 403.05 287.619 407.945C297.622 412.393 316.754 391.012 320.868 386.221C320.675 388.42 320.348 390.306 319.896 391.784C319.896 391.784 360.074 364.483 355.254 393.551Z" fill="#1E3A59"/>
</g>
<path d="M226.532 338.545C231.736 335.659 237.127 333.067 242.686 330.817C248.261 328.61 254.019 326.768 259.96 325.519C265.898 324.28 272.036 323.655 278.209 324.013C284.369 324.35 290.573 325.64 296.34 328.117C299.227 329.335 301.997 330.847 304.583 332.611C304.91 332.831 305.235 333.034 305.564 333.268L306.556 334.022C307.235 334.51 307.82 335.085 308.442 335.626C309.053 336.177 309.598 336.782 310.176 337.361C310.705 337.973 311.245 338.579 311.75 339.208C313.752 341.731 315.397 344.454 316.79 347.257C318.186 350.06 319.322 352.954 320.25 355.894C322.11 361.773 323.267 367.798 323.85 373.889C324.113 376.939 324.215 380.007 324.116 383.108C324.064 384.659 323.963 386.216 323.756 387.799C323.541 389.383 323.271 390.971 322.739 392.652L318.23 389.325L318.234 389.323C320.901 387.549 323.527 385.985 326.275 384.47C329.012 382.97 331.821 381.573 334.753 380.346C337.692 379.135 340.74 378.062 344.107 377.488C345.797 377.22 347.578 377.072 349.505 377.308C350.468 377.437 351.467 377.669 352.46 378.075C353.45 378.477 354.435 379.074 355.261 379.854C356.092 380.627 356.754 381.55 357.241 382.497C357.737 383.45 358.02 384.411 358.246 385.354C358.641 387.233 358.672 389.012 358.569 390.711C358.337 394.08 357.637 397.287 356.525 400.413C354.305 406.649 350.426 412.15 345.769 416.586C341.108 421.05 335.73 424.589 330.066 427.39C324.396 430.2 318.416 432.28 312.282 433.713C306.142 435.121 299.832 435.9 293.401 435.639C290.186 435.48 286.934 435.078 283.685 434.09C282.063 433.591 280.439 432.939 278.869 432.014C278.081 431.567 277.319 431.008 276.585 430.398C276.226 430.076 275.867 429.748 275.531 429.385C275.197 429.016 274.853 428.626 274.633 428.317C270.521 423.082 268.066 416.941 266.396 410.896C265.554 407.861 264.891 404.82 264.278 401.827C263.656 398.84 263.097 395.872 262.349 393.115C261.972 391.745 261.545 390.424 261.019 389.289C260.497 388.161 259.866 387.236 259.245 386.79C259.083 386.699 258.943 386.56 258.771 386.512C258.677 386.475 258.642 386.434 258.505 386.386L258.045 386.242L257.125 385.947L256.137 385.719C254.82 385.41 253.399 385.216 251.967 385.043C249.083 384.72 246.08 384.57 243.05 384.402C240.018 384.238 236.947 384.066 233.86 383.802C227.689 383.252 221.413 382.316 215.324 380.333C209.237 378.391 203.392 375.3 198.419 371.121C193.489 366.894 189.432 361.715 186.431 356.086C183.418 350.453 181.299 344.462 179.734 338.401C179.324 336.811 180.279 335.191 181.867 334.782C183.456 334.371 185.076 335.327 185.486 336.915L185.492 336.938C186.964 342.636 188.938 348.176 191.661 353.267C194.377 358.359 197.96 362.889 202.251 366.581C206.59 370.218 211.672 372.929 217.157 374.68C222.636 376.469 228.459 377.358 234.377 377.884C237.343 378.138 240.34 378.306 243.373 378.47C246.409 378.639 249.478 378.788 252.634 379.139C254.217 379.33 255.812 379.543 257.454 379.925L258.684 380.214L259.937 380.61L260.561 380.813C260.782 380.89 261.081 381.035 261.334 381.151C261.876 381.378 262.338 381.715 262.811 382.038C264.638 383.427 265.643 385.185 266.405 386.783C267.155 388.409 267.648 389.993 268.079 391.549C268.92 394.659 269.479 397.67 270.097 400.629C270.703 403.587 271.337 406.485 272.121 409.307C273.673 414.937 275.877 420.292 279.306 424.649C279.527 424.958 279.698 425.128 279.868 425.326C280.048 425.52 280.254 425.703 280.457 425.89C280.894 426.246 281.353 426.599 281.891 426.898C282.939 427.518 284.148 428.019 285.427 428.411C287.998 429.196 290.821 429.566 293.667 429.703C299.387 429.94 305.249 429.235 310.942 427.925C316.638 426.595 322.211 424.654 327.43 422.065C332.649 419.487 337.531 416.252 341.653 412.303C345.779 408.37 349.065 403.647 350.928 398.416C351.861 395.823 352.455 393.034 352.639 390.342C352.725 389.013 352.674 387.728 352.443 386.63C352.31 386.101 352.163 385.593 351.95 385.197C351.739 384.797 351.5 384.474 351.22 384.209C350.68 383.683 349.839 383.354 348.748 383.201C347.653 383.063 346.374 383.141 345.069 383.351C342.437 383.794 339.705 384.725 337.037 385.831C334.362 386.949 331.722 388.259 329.132 389.68C326.558 391.095 323.963 392.648 321.571 394.238L321.569 394.239L314.724 399.07L317.06 390.912C317.387 389.766 317.588 388.428 317.726 387.084C317.879 385.737 317.948 384.345 317.971 382.946C318.014 380.145 317.874 377.306 317.583 374.48C317.03 368.825 315.932 363.192 314.217 357.819C312.48 352.473 310.207 347.281 306.914 343.02C306.502 342.493 306.064 341.993 305.639 341.48C305.176 341.014 304.742 340.508 304.261 340.067C303.773 339.638 303.315 339.161 302.794 338.785L302.033 338.187C301.765 337.99 301.465 337.797 301.183 337.602C298.92 335.999 296.484 334.665 293.967 333.518C288.94 331.186 283.447 329.868 277.841 329.4C272.226 328.9 266.51 329.359 260.849 330.25C255.184 331.181 249.587 332.72 244.093 334.603C238.58 336.454 233.2 338.746 227.877 341.194C227.132 341.539 226.248 341.214 225.903 340.469C225.575 339.76 225.862 338.921 226.532 338.545Z" fill="#1E3A59"/>
<path d="M354.368 376.474C354.368 376.474 348.965 359.867 330.167 362.601C312.742 365.135 306.927 384.474 302.654 389.943" fill="white"/>
<path d="M351.545 377.395L351.401 377.057L351.211 376.64C351.076 376.359 350.931 376.077 350.781 375.795C350.478 375.232 350.154 374.673 349.805 374.132C349.107 373.05 348.316 372.031 347.439 371.119C345.701 369.272 343.646 367.823 341.372 366.865C339.1 365.902 336.589 365.474 334.003 365.463C333.359 365.448 332.703 365.506 332.05 365.537C331.4 365.621 330.723 365.65 330.096 365.771C328.812 365.936 327.571 366.281 326.348 366.68C321.463 368.336 317.259 371.902 313.807 376.288C312.054 378.467 310.474 380.849 308.926 383.313L306.565 387.056C305.757 388.321 304.94 389.602 303.827 390.859C303.283 391.474 302.343 391.531 301.728 390.987C301.18 390.502 301.075 389.703 301.443 389.099L301.486 389.03C302.154 387.933 302.768 386.623 303.384 385.31C303.999 383.991 304.594 382.629 305.246 381.282C306.539 378.58 307.984 375.884 309.711 373.301C310.571 372.009 311.518 370.757 312.545 369.55C313.571 368.344 314.669 367.174 315.896 366.117C317.118 365.058 318.412 364.054 319.817 363.191C321.222 362.331 322.707 361.578 324.263 360.989C325.818 360.415 327.42 359.924 329.054 359.648C330.675 359.336 332.283 359.192 333.944 359.155C337.244 359.087 340.679 359.614 343.843 360.961C347.017 362.267 349.848 364.359 352.086 366.862C353.208 368.116 354.188 369.473 355.041 370.897C355.463 371.611 355.866 372.337 356.219 373.095C356.393 373.475 356.562 373.859 356.722 374.254L356.955 374.859C357.036 375.077 357.096 375.248 357.195 375.557C357.697 377.116 356.839 378.786 355.28 379.287C353.817 379.758 352.255 379.03 351.655 377.65L351.545 377.395Z" fill="#1E3A59"/>
<path d="M277.225 426.824C279.604 430.67 282.208 433.488 285.034 434.452C299.35 439.324 334.325 429.014 350.232 404.568C357.05 394.083 357.523 384.171 354.363 376.474C346.29 369.338 331.745 369.261 319.853 387.951C303.927 412.984 292.671 423.915 277.225 426.824Z" fill="#B2B2B2"/>
<g opacity="0.35">
<path d="M277.221 426.826C279.6 430.672 282.204 433.49 285.03 434.454C299.346 439.326 334.321 429.016 350.228 404.57C353.333 399.791 355.122 395.136 355.852 390.751C349.557 406.743 334.207 416.055 321.222 415.301C312.3 414.782 307.419 410.548 308.522 404.34C297.958 418.004 288.761 424.651 277.221 426.826Z" fill="#1E3A59"/>
</g>
<path d="M293.282 438.752C289.746 438.752 286.599 438.317 284.019 437.439C280.662 436.294 277.563 433.365 274.543 428.484L272.125 424.575L276.642 423.724C290.663 421.084 301.275 411.28 317.193 386.259C325.27 373.564 333.922 369.918 339.758 369.095C345.886 368.231 351.817 370.012 356.454 374.111L357.005 374.597L357.283 375.277C361.216 384.859 359.652 395.872 352.878 406.288C339.021 427.585 311.194 438.752 293.282 438.752ZM282.527 428.775C284.011 430.46 285.207 431.178 286.054 431.466C298.395 435.666 332.075 426.691 347.589 402.848C353.029 394.484 354.482 385.822 351.718 378.369C348.576 375.847 344.668 374.773 340.639 375.343C336.117 375.98 329.303 378.979 322.516 389.645C307.227 413.678 296.227 424.622 282.527 428.775Z" fill="#1E3A59"/>
<path d="M208.027 229.132L201.878 257.035L197.629 276.307L193.204 296.396C191.012 294.918 188.613 293.767 186.058 293.099C185.807 293.032 185.553 292.973 185.294 292.913C165.419 288.531 154.986 313.723 154.986 313.723C154.986 313.723 163.503 319.144 164.447 326.059C164.611 327.255 164.551 328.339 164.335 329.312C163.341 333.953 158.929 336.085 158.929 336.085C158.929 336.085 159.642 343.341 157.339 351.005C153.002 365.421 118.712 361.67 111.829 357.526C109.919 356.375 107.431 351.911 105.322 345.249C99.8188 327.908 96.8482 295.713 113.246 268.672C127.306 245.486 149.623 235.438 169.067 231.271C180.986 228.701 191.829 228.352 199.034 228.538C204.626 228.672 208.027 229.132 208.027 229.132Z" fill="white"/>
<g opacity="0.25">
<path d="M193.204 296.396C191.013 294.918 188.614 293.766 186.059 293.098C185.807 293.031 185.554 292.972 185.294 292.912C165.42 288.53 154.986 313.722 154.986 313.722C149.386 309.659 147.433 302.188 150.366 295.919C153.618 288.952 160.325 280.956 174.145 277.563C185.458 274.785 195.71 285.02 193.204 296.396Z" fill="#1E3A59"/>
</g>
<g opacity="0.25">
<path d="M158.919 336.083C158.919 336.083 159.632 343.34 157.329 351.003C152.992 365.419 118.703 361.668 111.818 357.524C109.91 356.373 107.422 351.91 105.312 345.247C109.739 347.936 116.638 350.446 126.843 350.283C144.869 349.99 151.711 344.165 153.448 336.723C154.008 334.326 155.963 332.46 158.388 332.031C160.382 331.679 162.654 330.917 164.325 329.31C163.33 333.951 158.919 336.083 158.919 336.083Z" fill="#1E3A59"/>
</g>
<path d="M207.625 232.075C206.264 231.907 204.725 231.784 203.256 231.687C201.767 231.6 200.274 231.529 198.776 231.5C195.783 231.437 192.78 231.455 189.785 231.608C183.795 231.893 177.823 232.581 171.95 233.71C160.228 236.006 148.831 240.102 138.886 246.521C133.919 249.722 129.336 253.493 125.291 257.775C121.235 262.05 117.748 266.85 114.791 271.956C111.876 277.085 109.507 282.542 107.818 288.223C106.12 293.899 104.979 299.757 104.402 305.681C103.859 311.608 103.772 317.595 104.265 323.542C104.482 326.517 104.858 329.479 105.345 332.417C105.825 335.356 106.445 338.27 107.219 341.126C107.989 343.979 108.904 346.79 110.03 349.432C110.596 350.739 111.212 352.033 111.906 353.129C112.076 353.413 112.247 353.69 112.425 353.91C112.6 354.144 112.777 354.413 112.934 354.55L113.167 354.812C113.231 354.866 113.265 354.869 113.305 354.912C113.324 354.93 113.342 354.95 113.358 354.972C113.395 354.998 113.465 355.029 113.517 355.057L113.853 355.237C114.916 355.731 116.287 356.157 117.653 356.507C119.037 356.857 120.469 357.134 121.91 357.378C124.802 357.84 127.748 358.14 130.691 358.239C133.63 358.339 136.577 358.288 139.451 357.966C142.317 357.647 145.149 357.108 147.677 356.144C148.326 355.927 148.903 355.624 149.508 355.359C150.066 355.045 150.647 354.755 151.138 354.39C152.143 353.689 153.029 352.904 153.609 351.991C153.882 351.526 154.17 351.073 154.328 350.556L154.476 350.183C154.525 350.042 154.571 349.852 154.62 349.689C154.716 349.352 154.813 349.014 154.893 348.669C155.236 347.3 155.498 345.9 155.687 344.482C155.874 343.065 155.996 341.632 156.037 340.197C156.062 339.48 156.066 338.763 156.051 338.053L156.011 336.931C155.958 335.678 156.531 334.376 157.492 333.57C157.611 333.468 157.735 333.372 157.862 333.285L158.063 333.153L158.241 333.037C158.358 332.953 158.478 332.874 158.593 332.785C158.824 332.61 159.05 332.427 159.262 332.232C159.686 331.845 160.073 331.43 160.381 330.988C161.01 330.104 161.402 329.16 161.51 328.141C161.588 327.636 161.556 327.1 161.505 326.556C161.41 326.024 161.321 325.501 161.109 324.959C160.725 323.88 160.1 322.786 159.32 321.738C158.543 320.689 157.602 319.691 156.586 318.756C156.075 318.29 155.548 317.836 154.999 317.41C154.724 317.198 154.449 316.987 154.17 316.788C153.904 316.593 153.587 316.378 153.381 316.244L153.343 316.219C152.118 315.424 151.674 313.877 152.224 312.577C152.473 311.985 152.683 311.532 152.924 311.03C153.158 310.54 153.402 310.061 153.647 309.583C154.141 308.629 154.654 307.688 155.205 306.769C156.286 304.917 157.527 303.156 158.866 301.453C161.564 298.074 164.903 295.063 168.872 292.909C170.853 291.835 173.009 291.026 175.239 290.546C177.47 290.062 179.776 289.975 182.01 290.195L183.673 290.425C184.219 290.535 184.759 290.665 185.299 290.786C186.383 291.024 187.444 291.404 188.456 291.835C190.483 292.708 192.36 293.83 194.034 295.168C194.677 295.681 194.782 296.618 194.268 297.261C193.809 297.837 193.007 297.982 192.384 297.636L192.369 297.628C190.69 296.7 188.954 295.928 187.169 295.434C186.274 295.195 185.387 294.994 184.476 294.885L183.112 294.727L181.752 294.683C178.134 294.699 174.691 295.796 171.663 297.728C168.616 299.645 166.016 302.347 163.678 305.283C162.499 306.751 161.424 308.318 160.412 309.931C159.903 310.737 159.429 311.564 158.971 312.396C158.743 312.812 158.527 313.235 158.319 313.655C158.114 314.063 157.897 314.527 157.75 314.866L156.592 311.199C157.026 311.486 157.34 311.711 157.69 311.971C158.033 312.222 158.363 312.481 158.692 312.742C159.346 313.267 159.983 313.813 160.605 314.38C161.845 315.522 163.023 316.762 164.075 318.177C165.124 319.587 166.065 321.168 166.711 322.979C167.049 323.872 167.256 324.861 167.404 325.841C167.506 326.82 167.549 327.828 167.41 328.845C167.192 330.88 166.362 332.86 165.202 334.461C164.626 335.272 163.963 335.988 163.254 336.632C162.9 336.956 162.531 337.258 162.15 337.545C161.961 337.689 161.762 337.824 161.566 337.962L161.262 338.16L161.186 338.209C161.139 338.24 161.216 338.192 161.224 338.185C161.272 338.152 161.32 338.116 161.365 338.076C161.739 337.767 161.973 337.235 161.95 336.75L161.991 337.927C162.008 338.75 162.004 339.567 161.976 340.383C161.928 342.016 161.791 343.643 161.577 345.266C161.361 346.889 161.059 348.508 160.656 350.114C160.562 350.517 160.449 350.917 160.335 351.317C160.274 351.521 160.23 351.706 160.156 351.927L159.896 352.629C159.58 353.577 159.074 354.451 158.552 355.29C157.461 356.965 155.997 358.251 154.497 359.292C153.745 359.833 152.958 360.241 152.173 360.669C151.38 361.031 150.586 361.426 149.781 361.701C146.565 362.919 143.314 363.51 140.093 363.873C136.868 364.232 133.663 364.285 130.474 364.177C127.285 364.068 124.115 363.747 120.95 363.241C119.367 362.974 117.786 362.669 116.194 362.267C114.594 361.848 113.012 361.392 111.288 360.597L110.609 360.238C110.493 360.173 110.389 360.123 110.265 360.045L109.862 359.753C109.603 359.557 109.318 359.343 109.099 359.141L108.55 358.559C108.157 358.159 107.906 357.787 107.623 357.406C107.326 357.022 107.093 356.648 106.867 356.275C105.925 354.774 105.227 353.284 104.572 351.781C103.294 348.776 102.312 345.737 101.483 342.67C100.652 339.604 99.9939 336.509 99.4851 333.395C98.9697 330.281 98.5723 327.151 98.3428 324.007C97.8236 317.724 97.9113 311.396 98.4899 305.107C99.1011 298.821 100.313 292.579 102.133 286.501C103.941 280.421 106.486 274.545 109.632 269.012C112.817 263.505 116.587 258.318 120.98 253.689C125.359 249.052 130.32 244.972 135.666 241.528C146.375 234.619 158.498 230.291 170.82 227.877C176.997 226.69 183.245 225.972 189.509 225.673C192.641 225.513 195.779 225.494 198.917 225.56C200.487 225.591 202.058 225.665 203.631 225.758C205.223 225.864 206.744 225.98 208.427 226.188C210.055 226.389 211.212 227.872 211.01 229.501C210.808 231.128 209.325 232.285 207.697 232.084L207.625 232.075Z" fill="#1E3A59"/>
<g opacity="0.25">
<path d="M325.016 230.506C324.906 230.647 324.793 230.781 324.675 230.922C322.387 233.655 319.944 236.284 317.337 238.802C316.067 240.034 314.746 241.238 313.394 242.426C309.77 245.575 305.981 248.419 302.061 250.959C301.548 251.286 301.043 251.612 300.53 251.932C296.684 254.346 292.71 256.463 288.648 258.304C283.954 260.436 279.141 262.181 274.248 263.555C274.025 263.621 273.81 263.681 273.586 263.741C271.715 264.246 269.843 264.699 267.958 265.1C245.744 269.823 222.357 267.052 201.867 257.034C199.758 255.995 197.67 254.888 195.628 253.7C186.701 248.524 178.45 241.884 171.238 233.804C170.496 232.972 169.76 232.125 169.055 231.271C180.975 228.701 191.818 228.352 199.022 228.538C199.103 227.595 199.178 226.644 199.244 225.679C199.884 216.952 200.136 207.402 199.839 196.855L286.064 213.595L291.559 224.854L294.456 230.788C303.955 231.516 314.96 231.761 325.016 230.506Z" fill="#1E3A59"/>
</g>
<path d="M352.002 168.951C348.989 185.297 341.827 200.984 330.626 214.376C328.341 217.106 325.899 219.737 323.286 222.257C322.019 223.487 320.699 224.69 319.347 225.877C315.255 229.433 310.953 232.602 306.484 235.387C302.637 237.797 298.659 239.916 294.599 241.756C289.695 243.981 284.656 245.786 279.538 247.188C277.669 247.693 275.793 248.149 273.91 248.553C239.416 255.89 202.095 245.158 177.189 217.258C140.491 176.165 144.648 113.399 186.456 77.0647C194.512 70.0725 203.38 64.5515 212.711 60.5261C213.796 60.0448 214.901 59.5933 216.014 59.1655C218.981 58.0009 221.987 56.9813 225.022 56.1094C232.045 54.0946 239.234 52.8571 246.442 52.3834C253.648 51.9022 260.891 52.1867 268.018 53.2257C270.284 53.5554 272.539 53.9579 274.785 54.4421C278.15 55.1699 281.479 56.0581 284.771 57.1328C301.173 62.4385 316.392 71.9922 328.613 85.6842C349.724 109.321 357.312 140.127 352.002 168.951Z" fill="white"/>
<path d="M252.631 251.107C223.967 251.107 196.253 239.089 176.951 217.467C159.216 197.609 150.372 172.099 152.046 145.636C153.734 118.961 165.879 94.5229 186.245 76.8227C194.194 69.9244 203.055 64.3424 212.584 60.2319C213.614 59.775 214.73 59.3154 215.899 58.8669C218.857 57.7051 221.898 56.6738 224.933 55.8019C231.909 53.8001 239.139 52.5426 246.419 52.0639C253.635 51.5833 260.915 51.8662 268.062 52.9093C270.362 53.2438 272.646 53.6544 274.85 54.1294C278.288 54.8733 281.659 55.7815 284.868 56.8285C301.804 62.3066 317.013 72.2107 328.848 85.4703C349.318 108.389 357.87 138.836 352.312 169.006C349.23 185.731 341.814 201.489 330.867 214.577C328.549 217.347 326.072 220.007 323.505 222.483C322.322 223.631 321.029 224.818 319.554 226.113C315.508 229.63 311.166 232.839 306.649 235.653C302.873 238.019 298.861 240.169 294.728 242.043C289.888 244.239 284.804 246.072 279.62 247.492C277.748 247.998 275.849 248.458 273.975 248.861C266.88 250.371 259.723 251.107 252.631 251.107ZM253.247 52.4718C250.983 52.4718 248.72 52.5467 246.461 52.6977C239.226 53.1731 232.042 54.423 225.108 56.4123C222.092 57.2786 219.072 58.3035 216.128 59.4588C214.967 59.9045 213.861 60.36 212.838 60.8138C203.366 64.8995 194.561 70.4466 186.662 77.3022C166.425 94.8896 154.357 119.172 152.68 145.676C151.017 171.968 159.804 197.314 177.424 217.044C201.352 243.847 238.297 255.802 273.842 248.241C275.705 247.84 277.593 247.382 279.453 246.88C284.605 245.469 289.656 243.647 294.466 241.465C298.574 239.603 302.56 237.467 306.313 235.115C310.802 232.318 315.117 229.129 319.137 225.635C320.603 224.349 321.888 223.168 323.063 222.027C325.614 219.566 328.076 216.923 330.381 214.17C341.257 201.166 348.625 185.509 351.688 168.891C357.21 138.916 348.712 108.664 328.375 85.8936C316.614 72.718 301.501 62.8768 284.672 57.4328C281.483 56.3919 278.133 55.4896 274.716 54.7506C272.527 54.2784 270.256 53.8703 267.97 53.5378C263.104 52.8276 258.175 52.4718 253.247 52.4718Z" fill="#371B45"/>
<g opacity="0.25">
<path d="M177.186 217.256C202.09 245.161 239.417 255.894 273.909 248.551C275.793 248.148 277.667 247.695 279.533 247.188C284.653 245.788 289.691 243.979 294.594 241.758C298.654 239.915 302.635 237.798 306.479 235.39C310.952 232.605 315.25 229.437 319.347 225.879C320.694 224.688 322.015 223.488 323.286 222.261C325.897 219.739 328.335 217.103 330.622 214.375C341.823 200.982 348.99 185.299 351.999 168.948C353.656 159.969 354.059 150.79 353.19 141.7C349.956 157.237 342.942 172.097 332.257 184.874C329.975 187.609 327.532 190.237 324.92 192.76C323.656 193.988 322.335 195.187 320.981 196.379C316.885 199.936 312.587 203.103 308.12 205.889C304.269 208.297 300.295 210.414 296.235 212.258C291.332 214.479 286.288 216.287 281.174 217.688C279.302 218.193 277.426 218.648 275.542 219.05C241.052 226.393 203.732 215.66 178.821 187.754C164.285 171.48 156.166 151.804 154.251 131.723C148.099 161.194 155.524 193.003 177.186 217.256Z" fill="#1E3A59"/>
</g>
<path d="M252.636 253.236C223.372 253.236 195.075 240.964 175.366 218.886C157.25 198.601 148.216 172.54 149.926 145.504C151.649 118.256 164.054 93.2952 184.853 75.2188C192.968 68.1765 202.014 62.4777 211.744 58.2808C212.787 57.8178 213.938 57.3445 215.139 56.8828C218.146 55.7026 221.25 54.6495 224.348 53.7595C231.471 51.7158 238.852 50.4317 246.283 49.9435C253.643 49.4508 261.076 49.7422 268.371 50.8061C270.719 51.1474 273.051 51.5666 275.302 52.052C278.812 52.8111 282.253 53.7385 285.531 54.8081C302.821 60.4005 318.352 70.5148 330.439 84.0559C351.348 107.468 360.085 138.573 354.408 169.394V169.394C351.259 186.479 343.684 202.576 332.503 215.944C330.135 218.773 327.606 221.489 324.985 224.017C323.781 225.185 322.463 226.396 320.961 227.714C316.823 231.311 312.39 234.588 307.778 237.462C303.925 239.875 299.83 242.071 295.609 243.984C290.668 246.225 285.478 248.097 280.185 249.547C278.271 250.064 276.335 250.534 274.425 250.944C267.182 252.484 259.878 253.236 252.636 253.236ZM253.251 54.6013C251.033 54.6013 248.817 54.6751 246.606 54.8228C239.52 55.2886 232.486 56.5123 225.698 58.4597C222.748 59.3075 219.79 60.3107 216.909 61.4412C215.767 61.88 214.694 62.3216 213.703 62.7608C204.414 66.7685 195.794 72.1992 188.06 78.9112C168.257 96.1214 156.447 119.881 154.806 145.813C153.179 171.532 161.776 196.327 179.014 215.629C202.434 241.864 238.6 253.561 273.402 246.162C275.225 245.77 277.077 245.321 278.902 244.828C283.938 243.448 288.882 241.665 293.59 239.53C297.612 237.706 301.513 235.615 305.187 233.314C309.586 230.573 313.808 227.451 317.745 224.031C319.175 222.775 320.434 221.618 321.585 220.502C324.086 218.089 326.496 215.501 328.752 212.806C339.393 200.084 346.602 184.764 349.598 168.508C355 139.184 346.687 109.59 326.791 87.3126C315.281 74.418 300.491 64.7868 284.02 59.4592C280.894 58.4388 277.616 57.5557 274.269 56.8319C272.128 56.3702 269.906 55.9709 267.667 55.6452C262.902 54.9504 258.075 54.6013 253.251 54.6013Z" fill="#371B45"/>
<path d="M252.635 253.944C223.171 253.944 194.679 241.587 174.836 219.357C156.592 198.929 147.493 172.684 149.216 145.458C150.952 118.019 163.442 92.8838 184.386 74.6818C192.556 67.5911 201.665 61.8536 211.461 57.6274C212.509 57.163 213.67 56.6846 214.884 56.219C217.906 55.0327 221.031 53.9725 224.151 53.0759C231.323 51.018 238.753 49.7255 246.235 49.2337C253.645 48.7386 261.127 49.0312 268.472 50.1023C270.835 50.4461 273.182 50.868 275.45 51.3565C278.985 52.1214 282.449 53.0548 285.75 54.132C303.157 59.7626 318.796 69.947 330.966 83.5814C352.023 107.158 360.821 138.482 355.104 169.521C351.933 186.726 344.305 202.936 333.046 216.397C330.661 219.246 328.115 221.98 325.476 224.525C324.265 225.701 322.939 226.919 321.428 228.246C317.258 231.869 312.795 235.169 308.151 238.062C304.274 240.491 300.15 242.702 295.901 244.628C290.926 246.885 285.7 248.769 280.371 250.229C278.442 250.75 276.495 251.223 274.572 251.636C267.279 253.187 259.927 253.944 252.635 253.944ZM253.249 55.3097C251.047 55.3097 248.847 55.3826 246.652 55.5292C239.615 55.9916 232.631 57.2065 225.892 59.1404C222.962 59.9818 220.027 60.978 217.167 62.1006C216.031 62.5366 214.969 62.9737 213.989 63.4081C204.76 67.39 196.202 72.7812 188.523 79.4454C168.865 96.53 157.142 120.116 155.513 145.856C153.898 171.385 162.431 195.996 179.542 215.155C202.792 241.201 238.698 252.817 273.253 245.467C275.062 245.078 276.902 244.631 278.715 244.142C283.713 242.773 288.621 241.002 293.295 238.882C297.289 237.072 301.162 234.996 304.808 232.712C309.177 229.99 313.37 226.89 317.277 223.494C318.697 222.248 319.947 221.099 321.089 219.991C323.574 217.594 325.967 215.025 328.206 212.349C338.769 199.721 345.925 184.516 348.899 168.378C354.26 139.271 346.009 109.896 326.26 87.784C314.834 74.9832 300.151 65.4218 283.8 60.1328C280.695 59.1196 277.44 58.2429 274.118 57.5244C271.992 57.0658 269.786 56.6695 267.563 56.3461C262.832 55.6559 258.039 55.3097 253.249 55.3097Z" fill="#1E3A59"/>
<path d="M344.169 193.228C300.925 250.139 215.483 247.548 189.297 182.251C171.482 137.826 201.909 86.1674 246.344 71.8701C278.683 61.4638 314.82 65.2366 344.735 110.249C344.735 110.249 354.848 132.203 353.623 149.419C352.398 166.636 348.26 183.187 348.26 183.187L344.169 193.228Z" fill="#0056A8"/>
<path opacity="0.35" d="M189.299 182.253C215.482 247.549 300.926 250.138 344.17 193.232L344.996 191.196C286.897 222.201 213.302 205.906 185.58 140.377C182.894 154.147 183.804 168.543 189.299 182.253Z" fill="#111A28"/>
<path d="M264.925 246.305C251.947 246.305 239.206 243.88 227.502 239.013C204.417 229.413 187.037 211.43 177.242 187.01C168.246 164.58 169.415 139.187 180.534 115.509C192.886 89.2062 216.174 68.3828 242.831 59.8055C257.643 55.0387 271.839 53.3472 285.027 54.779L285.269 54.8052L285.5 54.8801C302.783 60.4702 318.302 70.5767 330.379 84.1069C351.273 107.5 360.002 138.581 354.33 169.378C351.183 186.45 343.615 202.534 332.442 215.892C330.076 218.718 327.549 221.432 324.93 223.958C323.727 225.126 322.41 226.336 320.909 227.653C316.773 231.247 312.344 234.522 307.736 237.393L307.408 237.563C293.682 243.384 279.162 246.305 264.925 246.305ZM275.79 59.0182C265.782 59.0182 255.223 60.7891 244.28 64.3101C218.85 72.4924 196.621 92.3841 184.817 117.52C174.262 139.998 173.131 164.051 181.633 185.248C190.945 208.462 207.434 225.543 229.319 234.644C252.644 244.343 280.36 243.844 305.39 233.279C309.731 230.563 313.904 227.472 317.796 224.089C319.229 222.832 320.489 221.674 321.639 220.557C324.143 218.142 326.555 215.553 328.813 212.855C339.463 200.123 346.677 184.791 349.676 168.52C355.082 139.172 346.762 109.554 326.849 87.2585C315.384 74.4143 300.667 64.8047 284.275 59.4575C281.496 59.1643 278.665 59.0182 275.79 59.0182Z" fill="#1E3A59"/>
<path d="M265.506 235.694C261.445 235.694 257.375 235.425 253.317 234.877C223.054 230.792 199.052 211.878 187.465 182.986C179.476 163.065 180.515 140.512 190.392 119.481C201.366 96.114 222.056 77.6141 245.737 69.9943C286.524 56.8706 320.382 70.0474 346.375 109.159L346.523 109.425C346.945 110.34 356.835 132.041 355.588 149.56C354.365 166.75 350.213 183.498 350.171 183.665L350.084 183.931L345.895 194.213L345.737 194.421C325.882 220.551 295.973 235.694 265.506 235.694ZM274.786 69.0726C265.921 69.0726 256.638 70.6292 246.945 73.7476C224.286 81.0388 204.479 98.7618 193.962 121.157C184.555 141.187 183.547 162.624 191.125 181.518C202.168 209.055 225.028 227.08 253.844 230.97C286.865 235.427 320.789 220.59 342.44 192.242L346.378 182.577C346.767 180.98 350.514 165.315 351.654 149.28C352.78 133.463 343.832 113.06 343.002 111.209C324.324 83.1662 301.459 69.0726 274.786 69.0726Z" fill="#1E3A59"/>
<path d="M145.465 191.972C150.485 210.909 166.043 223.821 180.219 220.808C194.395 217.795 201.817 199.999 196.796 181.063C196.767 180.943 196.73 180.818 196.695 180.699C191.577 161.96 176.119 149.232 162.042 152.225C151.091 154.553 144.172 165.703 143.902 179.383C143.825 183.412 144.323 187.665 145.465 191.972Z" fill="white"/>
<g opacity="0.25">
<path d="M145.465 191.97C150.485 210.908 166.043 223.82 180.219 220.807C194.395 217.794 201.817 199.998 196.796 181.061C196.768 180.942 196.73 180.816 196.695 180.698C195.651 182.973 193.734 185.402 190.276 185.456C184.22 185.547 170.662 175.565 170.662 175.565C170.662 175.565 159.047 177.145 143.902 179.382C143.825 183.41 144.324 187.664 145.465 191.97Z" fill="#1E3A59"/>
</g>
<path d="M176.117 224.388C161.773 224.388 147.307 211.237 142.414 192.779H142.414C139.281 180.96 140.545 169.202 145.882 160.519C149.621 154.435 154.982 150.501 161.385 149.139C177.156 145.785 194.411 159.745 199.846 180.251C202.98 192.069 201.716 203.828 196.379 212.511C192.639 218.595 187.279 222.529 180.876 223.891C179.301 224.226 177.708 224.388 176.117 224.388ZM148.512 191.163C153.101 208.471 167.033 220.382 179.564 217.72C184.236 216.726 188.191 213.783 191.003 209.207C195.375 202.095 196.401 191.874 193.748 181.867C189.161 164.56 175.23 152.651 162.697 155.31C158.025 156.303 154.07 159.247 151.258 163.823C146.886 170.935 145.86 181.155 148.513 191.163L148.512 191.163Z" fill="#1E3A59"/>
<path d="M147.411 206.224C155.777 219.03 169.863 222.823 178.875 214.695C187.886 206.568 188.41 189.6 180.044 176.794C171.678 163.989 157.591 160.196 148.58 168.323C139.568 176.45 139.044 193.419 147.411 206.224Z" fill="white"/>
<path d="M167.833 219.307C167.042 219.307 166.238 219.255 165.423 219.149C158.503 218.25 151.836 213.605 147.131 206.404C138.693 193.49 139.242 176.297 148.355 168.078C152.149 164.656 156.877 163.201 162.026 163.869C168.945 164.768 175.612 169.413 180.316 176.614C188.754 189.529 188.205 206.722 179.092 214.94C175.899 217.82 172.044 219.307 167.833 219.307ZM159.619 164.37C155.571 164.37 151.866 165.799 148.797 168.567C139.915 176.578 139.415 193.39 147.683 206.044C152.283 213.083 158.779 217.622 165.508 218.495C170.461 219.14 175.004 217.74 178.651 214.45C187.532 206.44 188.032 189.629 179.764 176.975C175.165 169.935 168.669 165.397 161.94 164.523C161.156 164.421 160.382 164.37 159.619 164.37Z" fill="#371B45"/>
<g opacity="0.26">
<path d="M186.278 197.962C186.229 192.621 184.694 187.281 182.125 182.56C181.199 194.75 172.089 202.003 160.892 198.972C153.656 197.017 147.214 191.21 143.246 183.902C143.182 184.671 143.161 185.467 143.167 186.277C143.299 199.876 153.057 213.516 164.963 216.742C176.869 219.967 186.408 211.554 186.278 197.962Z" fill="#1E3A59"/>
</g>
<path d="M168.055 222.203C156.628 222.203 145.182 211.27 140.967 195.618C138.262 185.575 139.236 175.385 143.574 168.358C146.418 163.75 150.464 160.794 155.275 159.811C167.797 157.255 181.24 168.773 185.891 186.04C188.596 196.083 187.621 206.273 183.283 213.3C180.438 217.908 176.392 220.864 171.581 221.848C170.412 222.087 169.234 222.203 168.055 222.203ZM158.714 165.775C157.98 165.775 157.254 165.846 156.538 165.992C152.669 166.783 150.272 169.517 148.942 171.672C145.502 177.245 144.797 185.584 147.058 193.978H147.059C150.716 207.563 161.367 217.496 170.317 215.666C174.187 214.875 176.584 212.141 177.915 209.986C181.355 204.412 182.059 196.074 179.799 187.681C176.432 175.182 167.146 165.775 158.714 165.775Z" fill="#1E3A59"/>
<g opacity="0.5">
<path d="M228.951 99.1432C228.951 99.1432 271.196 88.4243 301.652 104.565C301.684 104.582 301.716 104.599 301.748 104.616C308.155 108.018 313.506 113.074 317.277 119.21C322.265 127.324 324.494 133.64 326.238 139.276C331.535 156.418 330.761 165.44 330.761 165.44C337.862 153.375 340.265 141.398 335.996 127.075C335.571 125.665 335.081 124.226 334.529 122.764C334.404 122.427 334.271 122.096 334.133 121.763C334.14 121.759 334.134 121.751 334.122 121.745C332.794 118.863 330.904 115.142 328.417 111.122C320.921 98.9904 308.019 84.1168 288.781 81.2395C252.807 75.8595 226.964 97.7882 228.951 99.1432Z" fill="white"/>
</g>
<g opacity="0.5">
<path d="M223.597 149.522C223.891 158.06 218.104 165.206 210.673 165.482C203.241 165.759 196.977 159.062 196.683 150.525C196.388 141.987 202.173 134.841 209.606 134.564C217.038 134.288 223.302 140.984 223.597 149.522Z" fill="white"/>
</g>
<g opacity="0.5">
<path d="M216.662 178.366C216.481 181.89 213.849 184.633 210.782 184.491C207.716 184.35 205.376 181.378 205.557 177.854C205.737 174.33 208.369 171.588 211.436 171.729C214.503 171.87 216.842 174.842 216.662 178.366Z" fill="white"/>
</g>
<path d="M368.665 168.92C368.665 168.92 359.858 171.144 357.811 181.745C355.516 193.629 359.463 198.022 368.027 201.436C375.321 204.343 387.022 212.027 395.076 207.913C400.205 205.292 400.277 198.213 405.142 198.284L367.132 174.137L368.665 168.92Z" fill="white"/>
<g opacity="0.25">
<path d="M405.142 198.282C400.277 198.215 400.204 205.293 395.078 207.914C387.021 212.029 375.324 204.342 368.023 201.438C360.285 198.348 356.319 194.464 357.321 184.958C359.356 188.471 362.98 190.743 367.957 192.726C376.371 196.083 389.865 204.943 399.156 200.198C399.98 199.776 400.689 199.257 401.316 198.676C402.37 197.697 403.929 197.509 405.142 198.282Z" fill="#1E3A59"/>
</g>
<path d="M369.39 171.8C369.424 171.793 369.312 171.831 369.259 171.85L369.039 171.937C368.89 171.991 368.728 172.072 368.571 172.139C368.256 172.29 367.934 172.445 367.625 172.632C366.997 172.983 366.402 173.399 365.832 173.839C364.708 174.746 363.749 175.829 362.98 177.042C362.221 178.263 361.679 179.628 361.269 181.057L361.01 182.153C360.918 182.514 360.872 182.954 360.802 183.349C360.649 184.166 360.577 184.963 360.49 185.759C360.367 187.332 360.345 188.879 360.592 190.248C360.849 191.616 361.308 192.791 362.046 193.815C362.781 194.84 363.835 195.742 365.124 196.537C366.427 197.337 367.851 198.005 369.467 198.691C371.245 199.447 372.862 200.261 374.469 201.049C376.07 201.834 377.638 202.612 379.199 203.334C380.762 204.057 382.323 204.707 383.884 205.245C385.438 205.785 386.996 206.213 388.513 206.407C390.03 206.598 391.49 206.576 392.824 206.226C393.152 206.127 393.483 206.031 393.796 205.893C394.129 205.777 394.361 205.598 394.665 205.471C395.199 205.106 395.749 204.725 396.24 204.155C397.265 203.08 398.126 201.601 399.305 200.02C399.892 199.24 400.608 198.388 401.641 197.713C402.663 197.022 403.999 196.718 405.162 196.799C405.979 196.855 406.596 197.563 406.539 198.381C406.49 199.093 405.948 199.651 405.269 199.748L405.118 199.769C404.492 199.858 404.047 200.075 403.629 200.452C403.205 200.82 402.806 201.409 402.411 202.111C401.598 203.489 400.876 205.251 399.597 206.921C398.995 207.771 398.176 208.56 397.291 209.273C396.329 209.944 395.356 210.468 394.321 210.837C392.246 211.578 390.072 211.784 388.038 211.643C383.946 211.366 380.305 210.075 376.882 208.686C373.459 207.312 370.214 205.622 367.135 204.407C365.446 203.743 363.59 202.97 361.838 201.913C360.079 200.863 358.304 199.472 356.917 197.612C355.517 195.766 354.64 193.53 354.262 191.388C353.875 189.232 353.921 187.179 354.069 185.199C354.166 184.218 354.273 183.237 354.456 182.299C354.547 181.817 354.598 181.366 354.723 180.86L355.096 179.353C355.675 177.358 356.497 175.384 357.691 173.606C358.882 171.831 360.369 170.251 362.066 168.965C362.927 168.339 363.809 167.744 364.769 167.273C365.24 167.024 365.733 166.812 366.235 166.605C366.493 166.507 366.738 166.405 367.013 166.317L367.424 166.182C367.586 166.136 367.686 166.102 367.935 166.039C369.526 165.638 371.141 166.601 371.543 168.193C371.945 169.783 370.982 171.398 369.39 171.8Z" fill="#1E3A59"/>
<path d="M357.435 190.683C357.435 190.683 372.16 194.104 372.619 202.377C372.827 206.113 372.16 210.255 362.443 208.352C352.727 206.447 351.067 192.849 357.435 190.683Z" fill="white"/>
<g opacity="0.25">
<path d="M362.439 208.352C355.71 207.03 352.843 200.101 353.839 195.251C354.99 198.66 357.708 201.786 362 202.626C368.982 203.992 371.292 202.247 371.96 199.766C372.331 200.576 372.562 201.445 372.613 202.373C372.821 206.116 372.153 210.253 362.439 208.352Z" fill="#1E3A59"/>
</g>
<path d="M366.76 211.988C365.312 211.988 363.678 211.807 361.839 211.447C354.587 210.026 350.893 203.564 350.529 198.161C350.191 193.137 352.504 189.029 356.422 187.695L357.274 187.405L358.152 187.609C359.895 188.014 375.198 191.865 375.771 202.201C375.852 203.644 376.065 207.477 373.23 209.945C371.658 211.314 369.552 211.988 366.76 211.988ZM357.833 194.044C357.02 194.797 356.73 196.338 356.824 197.737C357.038 200.914 359.047 204.471 363.052 205.255C367.78 206.181 368.967 205.291 369.087 205.187C369.319 204.986 369.573 204.365 369.472 202.551C369.245 198.461 362.141 195.275 357.833 194.044Z" fill="#1E3A59"/>
<path d="M259.605 385.989C259.503 385.989 259.401 385.983 259.298 385.969C258.002 385.801 257.088 384.614 257.256 383.319C257.453 381.796 262.296 345.86 279.861 333.307C285.248 329.455 291.279 328.174 297.785 329.499C299.066 329.76 299.892 331.009 299.632 332.29C299.371 333.57 298.126 334.394 296.841 334.136C291.605 333.07 286.953 334.057 282.616 337.154C266.725 348.505 261.994 383.575 261.948 383.928C261.794 385.12 260.776 385.989 259.605 385.989Z" fill="#1E3A59"/>
<path d="M355.425 289.555C354.98 289.555 354.527 289.46 354.096 289.261C327.594 276.93 331.19 230.475 331.357 228.503C331.503 226.768 333.027 225.484 334.763 225.625C336.499 225.771 337.788 227.296 337.644 229.031C337.607 229.47 334.245 273.065 356.758 283.54C358.338 284.275 359.022 286.152 358.288 287.731C357.753 288.88 356.614 289.555 355.425 289.555Z" fill="#1E3A59"/>
<path d="M166.337 301.246C164.774 301.246 163.417 300.085 163.212 298.494C158.413 261.257 120.826 263.468 119.23 263.581C117.48 263.713 115.984 262.397 115.86 260.661C115.735 258.925 117.037 257.416 118.773 257.289C119.232 257.257 130.137 256.518 141.841 261.042C152.839 265.293 166.559 275.102 169.469 297.687C169.692 299.416 168.472 300.997 166.744 301.219C166.607 301.237 166.471 301.246 166.337 301.246Z" fill="#1E3A59"/>
<path d="M312.488 429.96C298.44 429.96 290.092 423.569 289.628 423.203C288.601 422.396 288.423 420.909 289.231 419.882C290.036 418.856 291.52 418.676 292.548 419.48C293.124 419.927 306.296 429.837 327.75 422.588C328.99 422.172 330.331 422.833 330.749 424.071C331.167 425.31 330.502 426.652 329.265 427.07C323.035 429.175 317.411 429.96 312.488 429.96Z" fill="#1E3A59"/>
<path d="M330.454 414.189C317.653 414.189 305.637 410.461 304.9 410.228C303.653 409.834 302.963 408.506 303.356 407.26C303.75 406.013 305.08 405.326 306.324 405.715C306.574 405.795 331.503 413.516 346.294 406.512C347.475 405.953 348.886 406.457 349.445 407.638C350.004 408.819 349.5 410.229 348.319 410.789C342.964 413.325 336.617 414.189 330.454 414.189Z" fill="#1E3A59"/>
<path d="M341.388 394.676C329.717 394.676 320.148 388.576 319.578 388.205C318.483 387.493 318.173 386.027 318.884 384.932C319.597 383.837 321.061 383.527 322.155 384.236C322.331 384.35 339.957 395.523 354.911 386.115C356.018 385.419 357.478 385.751 358.173 386.857C358.869 387.964 358.537 389.424 357.431 390.12C352.07 393.493 346.524 394.676 341.388 394.676Z" fill="#1E3A59"/>
</svg>
