<svg width="198" height="250" viewBox="0 0 198 250" fill="none" xmlns="http://www.w3.org/2000/svg">
<path opacity="0.87" d="M98.8794 197.759C153.489 197.759 197.759 153.489 197.759 98.8794C197.759 44.2698 153.489 0 98.8794 0C44.2698 0 0 44.2698 0 98.8794C0 153.489 44.2698 197.759 98.8794 197.759Z" fill="#111A28"/>
<path d="M175.097 58.1778H156.06C155.327 58.1778 154.732 57.5832 154.732 56.8496C154.732 56.1162 155.327 55.5215 156.06 55.5215H175.097C175.83 55.5215 176.424 56.1162 176.424 56.8496C176.424 57.5831 175.83 58.1778 175.097 58.1778Z" fill="#61ED46"/>
<path d="M137.691 58.1778H59.7478C59.0142 58.1778 58.4199 57.5832 58.4199 56.8496C58.4199 56.1162 59.0142 55.5215 59.7478 55.5215H137.691C138.424 55.5215 139.019 56.1162 139.019 56.8496C139.019 57.5831 138.424 58.1778 137.691 58.1778Z" fill="#61ED46"/>
<path d="M47.4488 58.1778H25.9041C25.1705 58.1778 24.5762 57.5832 24.5762 56.8496C24.5762 56.1162 25.1705 55.5215 25.9041 55.5215H47.4488C48.1825 55.5215 48.7767 56.1162 48.7767 56.8496C48.7767 57.5831 48.1824 58.1778 47.4488 58.1778Z" fill="#61ED46"/>
<path d="M175.097 69.2452H158.717C157.983 69.2452 157.389 68.6505 157.389 67.917C157.389 67.1835 157.983 66.5889 158.717 66.5889H175.097C175.83 66.5889 176.424 67.1835 176.424 67.917C176.424 68.6505 175.83 69.2452 175.097 69.2452Z" fill="#61ED46"/>
<path d="M148.686 69.2452H50.8006C50.0669 69.2452 49.4727 68.6505 49.4727 67.917C49.4727 67.1835 50.067 66.5889 50.8006 66.5889H148.686C149.42 66.5889 150.014 67.1835 150.014 67.917C150.014 68.6505 149.42 69.2452 148.686 69.2452Z" fill="#61ED46"/>
<path d="M37.2109 69.2452H25.9041C25.1705 69.2452 24.5762 68.6505 24.5762 67.917C24.5762 67.1835 25.1705 66.5889 25.9041 66.5889H37.2109C37.9445 66.5889 38.5388 67.1835 38.5388 67.917C38.5388 68.6505 37.9446 69.2452 37.2109 69.2452Z" fill="#61ED46"/>
<path d="M175.096 80.3136H25.9041C25.1705 80.3136 24.5762 79.7189 24.5762 78.9854C24.5762 78.252 25.1705 77.6572 25.9041 77.6572H175.096C175.829 77.6572 176.424 78.2519 176.424 78.9854C176.424 79.7189 175.829 80.3136 175.096 80.3136Z" fill="#61ED46"/>
<path d="M175.098 91.3809H48.9275C48.1938 91.3809 47.5996 90.7862 47.5996 90.0528C47.5996 89.3194 48.1939 88.7246 48.9275 88.7246H175.098C175.832 88.7246 176.426 89.3193 176.426 90.0528C176.426 90.7863 175.832 91.3809 175.098 91.3809Z" fill="#61ED46"/>
<path d="M37.2109 91.3809H25.9041C25.1705 91.3809 24.5762 90.7862 24.5762 90.0528C24.5762 89.3194 25.1705 88.7246 25.9041 88.7246H37.2109C37.9445 88.7246 38.5388 89.3193 38.5388 90.0528C38.5388 90.7863 37.9446 91.3809 37.2109 91.3809Z" fill="#61ED46"/>
<path d="M175.096 102.448H165.578C164.844 102.448 164.25 101.853 164.25 101.12C164.25 100.386 164.844 99.7915 165.578 99.7915H175.096C175.83 99.7915 176.424 100.386 176.424 101.12C176.424 101.853 175.83 102.448 175.096 102.448Z" fill="#61ED46"/>
<path d="M156.059 102.448H25.9041C25.1705 102.448 24.5762 101.853 24.5762 101.12C24.5762 100.386 25.1705 99.7915 25.9041 99.7915H156.059C156.793 99.7915 157.387 100.386 157.387 101.12C157.387 101.853 156.793 102.448 156.059 102.448Z" fill="#61ED46"/>
<path d="M175.096 113.517H25.9041C25.1705 113.517 24.5762 112.922 24.5762 112.189C24.5762 111.455 25.1705 110.86 25.9041 110.86H175.096C175.829 110.86 176.424 111.455 176.424 112.189C176.424 112.922 175.829 113.517 175.096 113.517Z" fill="#61ED46"/>
<path d="M175.097 124.584H164.355C163.622 124.584 163.027 123.989 163.027 123.256C163.027 122.522 163.622 121.928 164.355 121.928H175.097C175.831 121.928 176.425 122.522 176.425 123.256C176.425 123.989 175.831 124.584 175.097 124.584Z" fill="#61ED46"/>
<path d="M153.078 124.584H54.8279C54.0942 124.584 53.5 123.989 53.5 123.256C53.5 122.522 54.0943 121.928 54.8279 121.928H153.078C153.812 121.928 154.406 122.522 154.406 123.256C154.406 123.989 153.812 124.584 153.078 124.584Z" fill="#61ED46"/>
<path d="M38.5949 124.584H25.9041C25.1705 124.584 24.5762 123.989 24.5762 123.256C24.5762 122.522 25.1705 121.928 25.9041 121.928H38.5949C39.3285 121.928 39.9228 122.522 39.9228 123.256C39.9228 123.989 39.3285 124.584 38.5949 124.584Z" fill="#61ED46"/>
<path d="M175.094 135.651H151.129C150.395 135.651 149.801 135.056 149.801 134.323C149.801 133.589 150.395 132.995 151.129 132.995H175.094C175.828 132.995 176.422 133.589 176.422 134.323C176.422 135.056 175.828 135.651 175.094 135.651Z" fill="#61ED46"/>
<path d="M132.449 135.651H25.9041C25.1705 135.651 24.5762 135.056 24.5762 134.323C24.5762 133.589 25.1705 132.995 25.9041 132.995H132.448C133.182 132.995 133.776 133.589 133.776 134.323C133.776 135.056 133.182 135.651 132.449 135.651Z" fill="#61ED46"/>
<g opacity="0.3">
<path d="M5.10996 243.901C36.5944 252.033 161.157 252.033 192.642 243.901C195.554 243.149 194.844 239.775 191.777 239.775H5.97512C2.90815 239.775 2.19761 243.149 5.10996 243.901Z" fill="#1E3A59"/>
</g>
<path d="M13.9248 239.326C17.4646 238.634 21.0043 238.45 24.544 238.375C28.0835 238.279 31.6232 238.33 35.163 238.382C38.7027 238.423 42.2422 238.434 45.782 238.427H56.4011H98.8774H141.354H162.592L167.901 238.426C169.671 238.427 171.441 238.365 173.211 238.336C176.751 238.321 180.29 238.361 183.83 239.326C184.078 239.394 184.224 239.65 184.157 239.898C184.112 240.063 183.983 240.182 183.83 240.225C180.29 241.19 176.751 241.23 173.211 241.214C171.441 241.186 169.671 241.124 167.901 241.125L162.592 241.123H141.354H98.8774H56.4011H45.782C42.2422 241.117 38.7027 241.127 35.163 241.168C31.6232 241.221 28.0835 241.272 24.544 241.175C21.0043 241.1 17.4645 240.916 13.9248 240.225C13.6766 240.176 13.5149 239.936 13.5632 239.687C13.6001 239.499 13.7476 239.361 13.9248 239.326Z" fill="#1E3A59"/>
<path d="M142.66 230.177L143.219 230.11C158.815 228.256 169.49 213.462 166.333 198.077L160.473 169.521C157.8 156.491 146.331 147.137 133.029 147.137H98.9359H99.9005H65.8072C52.5051 147.137 41.0369 156.491 38.363 169.521L32.5036 198.077C29.3467 213.462 40.0217 228.256 55.6174 230.11L56.1766 230.177H142.66Z" fill="#4D5A6A"/>
<path d="M142.671 230.39H56.1757L55.5915 230.322C48.0981 229.431 41.2685 225.411 36.8532 219.292C32.4384 213.173 30.7761 205.424 32.2928 198.033L38.1518 169.478C40.834 156.408 52.4643 146.922 65.8063 146.922H133.028C146.37 146.922 158 156.408 160.682 169.478L166.542 198.033C168.058 205.425 166.396 213.173 161.981 219.292C157.566 225.411 150.736 229.432 143.243 230.322L142.671 230.39ZM65.8064 147.351C52.6669 147.351 41.2129 156.693 38.5721 169.564L32.713 198.119C31.2202 205.393 32.8557 213.019 37.201 219.041C41.546 225.063 48.2676 229.02 55.6417 229.897L56.2008 229.963L142.646 229.962L143.193 229.897C150.567 229.02 157.288 225.064 161.633 219.042C165.979 213.02 167.614 205.394 166.122 198.119L160.262 169.564C157.621 156.693 146.168 147.351 133.028 147.351L65.8064 147.351Z" fill="#1E3A59"/>
<g opacity="0.3">
<path d="M143.22 230.113L142.662 230.178H56.1771L55.6194 230.113C45.6407 228.928 37.6792 222.44 34.0586 213.897C38.0185 217.457 43.0799 219.879 48.8058 220.562L49.3635 220.627H135.848L136.406 220.562C152.004 218.708 162.68 203.914 159.519 188.53L153.663 159.974C153.268 158.055 152.682 156.219 151.93 154.476C156.177 158.352 159.25 163.548 160.472 169.521L166.333 198.076C169.488 213.46 158.813 228.258 143.22 230.113Z" fill="#1E3A59"/>
</g>
<g opacity="0.55">
<path d="M146.853 150.785C143.66 149.526 140.193 148.842 136.591 148.842H69.3713C56.0694 148.842 44.5989 158.194 41.9265 171.226L36.0657 199.781C33.6582 211.517 39.2959 222.904 49.0282 228.472C37.1579 223.852 29.8145 211.178 32.5009 198.076L38.3617 169.52C41.0342 156.493 52.5047 147.137 65.8065 147.137H133.026C138.018 147.137 142.749 148.452 146.853 150.785Z" fill="white"/>
</g>
<path d="M142.661 231.57H56.1778C56.1229 231.57 56.0681 231.567 56.0137 231.561L55.4546 231.495C47.634 230.565 40.5064 226.369 35.8986 219.983C31.2908 213.597 29.5562 205.51 31.139 197.796L36.998 169.241C39.792 155.625 51.9086 145.742 65.8085 145.742H133.03C146.93 145.742 159.046 155.625 161.84 169.241L167.7 197.796C169.283 205.51 167.548 213.597 162.94 219.983C158.332 226.369 151.205 230.565 143.385 231.495L142.826 231.561C142.771 231.567 142.716 231.57 142.661 231.57ZM56.2602 228.782H142.579L143.056 228.725C150.103 227.887 156.526 224.106 160.679 218.351C164.831 212.596 166.395 205.309 164.968 198.356L159.108 169.801C156.579 157.476 145.612 148.531 133.03 148.531H65.8084C53.2264 148.531 42.259 157.476 39.73 169.801L33.8709 198.356C32.4442 205.308 34.0073 212.596 38.1598 218.351C42.3126 224.106 48.7359 227.887 55.7831 228.725L56.2602 228.782Z" fill="#1E3A59"/>
<path d="M149.073 126.045C148.989 126.371 148.901 126.701 148.813 127.021C148.743 127.268 148.673 127.509 148.604 127.751C148.576 127.844 148.553 127.932 148.52 128.025C148.464 128.225 148.399 128.425 148.339 128.62C148.26 128.876 148.176 129.127 148.092 129.378C148.055 129.489 148.018 129.601 147.981 129.708C147.86 130.07 147.735 130.428 147.6 130.781C147.46 131.172 147.312 131.558 147.158 131.939C147.009 132.324 146.851 132.706 146.689 133.087C146.531 133.463 146.363 133.844 146.191 134.216C146.029 134.579 145.861 134.936 145.689 135.294C145.666 135.341 145.643 135.387 145.62 135.434C145.462 135.768 145.294 136.098 145.122 136.428C145.118 136.438 145.113 136.447 145.109 136.456C144.923 136.823 144.732 137.181 144.537 137.544C144.304 137.971 144.067 138.394 143.821 138.813C143.654 139.105 143.482 139.394 143.31 139.682C143.301 139.691 143.296 139.7 143.296 139.705C143.082 140.058 142.864 140.407 142.641 140.755C142.269 141.336 141.888 141.913 141.493 142.484C141.321 142.735 141.144 142.982 140.967 143.228C140.819 143.437 140.67 143.642 140.517 143.851C140.289 144.162 140.056 144.469 139.824 144.776C139.596 145.073 139.369 145.361 139.136 145.654C139.006 145.817 138.876 145.98 138.746 146.138C138.662 146.24 138.578 146.342 138.495 146.444C138.337 146.63 138.183 146.816 138.025 147.002C137.598 147.504 137.161 148.001 136.715 148.494C136.501 148.736 136.278 148.973 136.055 149.21C135.892 149.382 135.729 149.558 135.567 149.73C135.334 149.972 135.107 150.209 134.869 150.441C134.535 150.78 134.191 151.12 133.847 151.454C133.568 151.724 133.289 151.989 133.006 152.249C132.964 152.291 132.922 152.333 132.88 152.365C132.592 152.64 132.299 152.905 132.002 153.169C131.458 153.658 130.905 154.132 130.343 154.601C130.203 154.717 130.064 154.833 129.92 154.954C129.636 155.186 129.348 155.419 129.055 155.651C128.042 156.455 127.005 157.232 125.946 157.98C125.927 157.994 125.904 158.008 125.885 158.022C121.754 160.931 117.259 163.092 112.593 164.51C110.976 165.003 109.335 165.407 107.68 165.723C100.351 167.117 92.7564 166.75 85.5664 164.631C80.7327 163.209 76.0804 160.992 71.8092 157.98C71.4745 157.743 71.1399 157.501 70.8053 157.259C70.7728 157.232 70.7402 157.208 70.703 157.185C70.373 156.939 70.043 156.693 69.7177 156.446C69.3784 156.186 69.0391 155.921 68.6999 155.651H68.6953C68.3606 155.382 68.0307 155.112 67.7007 154.843C67.3661 154.569 67.0407 154.29 66.7153 154.011C66.39 153.732 66.0693 153.453 65.7532 153.17C65.4325 152.881 65.1165 152.598 64.8051 152.305C64.4937 152.017 64.187 151.724 63.8802 151.427C63.5735 151.134 63.2713 150.836 62.9739 150.534C62.6764 150.232 62.379 149.93 62.0862 149.623C61.7934 149.312 61.5006 149.001 61.2078 148.685C60.9289 148.378 60.6547 148.071 60.3805 147.755C60.1667 147.513 59.9529 147.267 59.7437 147.021C59.1349 146.3 58.54 145.566 57.9636 144.818C57.7313 144.511 57.4942 144.204 57.2711 143.893C57.2385 143.856 57.2107 143.814 57.1828 143.777C57.0248 143.567 56.8714 143.354 56.7227 143.14C56.3788 142.656 56.0442 142.173 55.7188 141.68C55.5375 141.411 55.3562 141.137 55.1843 140.862C54.9194 140.449 54.6591 140.035 54.4035 139.612C54.2268 139.315 54.0456 139.013 53.869 138.71C53.6274 138.288 53.3903 137.855 53.1532 137.423C52.9813 137.098 52.8093 136.772 52.642 136.447C52.47 136.117 52.3026 135.782 52.1447 135.448C52.1168 135.401 52.0936 135.355 52.0749 135.308C51.7217 134.588 51.3917 133.858 51.085 133.124C51.0664 133.091 51.0524 133.063 51.0431 133.031C50.8897 132.668 50.741 132.306 50.5969 131.939C50.4435 131.558 50.2948 131.172 50.1553 130.781C50.0113 130.396 49.8718 130.005 49.7417 129.615C49.6441 129.327 49.5465 129.034 49.4535 128.741C49.3792 128.509 49.3095 128.276 49.2398 128.044C49.2072 127.942 49.1747 127.835 49.1468 127.732C49.0771 127.505 49.0121 127.282 48.9516 127.054C48.8586 126.719 48.7703 126.385 48.6821 126.045C45.2056 101.505 67.5193 74.2905 89.8143 62.62C95.4846 59.6501 102.27 59.6501 107.94 62.62C108.442 62.8803 108.94 63.1591 109.442 63.4472L109.446 63.4519C131.23 75.973 152.471 102.059 149.073 126.045Z" fill="#4D5A6A"/>
<g opacity="0.4">
<path d="M107.447 165.674C108.079 165.51 108.708 165.337 109.334 165.146C114 163.729 118.494 161.567 122.626 158.658C122.645 158.644 122.668 158.63 122.687 158.616C123.746 157.868 124.783 157.092 125.796 156.288C126.089 156.055 126.377 155.823 126.66 155.591C126.804 155.47 126.944 155.354 127.083 155.237C127.646 154.768 128.199 154.294 128.742 153.806C129.04 153.541 129.333 153.276 129.621 153.002C129.663 152.969 129.704 152.927 129.746 152.886C130.03 152.625 130.309 152.36 130.588 152.091C130.931 151.756 131.275 151.417 131.61 151.078C131.847 150.845 132.075 150.608 132.307 150.366C132.47 150.195 132.633 150.018 132.795 149.846C133.018 149.609 133.241 149.372 133.455 149.13C133.901 148.638 134.338 148.14 134.766 147.638C134.924 147.453 135.077 147.266 135.235 147.081C135.319 146.978 135.403 146.876 135.486 146.774C135.616 146.616 135.746 146.453 135.877 146.291C136.109 145.998 136.337 145.71 136.564 145.412C136.797 145.105 137.029 144.798 137.257 144.487C137.41 144.278 137.559 144.073 137.708 143.864C137.884 143.618 138.061 143.372 138.233 143.121C138.628 142.549 139.009 141.973 139.381 141.392C139.604 141.043 139.822 140.695 140.036 140.341C140.036 140.337 140.041 140.327 140.05 140.318C140.222 140.03 140.394 139.742 140.562 139.449C140.808 139.031 141.045 138.608 141.277 138.18C141.472 137.818 141.663 137.46 141.849 137.093C141.854 137.083 141.858 137.074 141.863 137.065C142.035 136.735 142.202 136.405 142.36 136.07C142.383 136.024 142.407 135.977 142.43 135.931C142.602 135.573 142.769 135.215 142.932 134.852C143.104 134.481 143.271 134.099 143.429 133.723C143.592 133.342 143.75 132.961 143.899 132.575C144.052 132.194 144.201 131.808 144.34 131.418C144.475 131.065 144.6 130.707 144.721 130.344C144.758 130.237 144.796 130.126 144.833 130.014C144.916 129.763 145 129.512 145.079 129.257C145.14 129.061 145.205 128.862 145.26 128.662C145.293 128.569 145.316 128.48 145.344 128.387C145.414 128.146 145.484 127.904 145.553 127.658C145.641 127.337 145.73 127.007 145.813 126.682C149.169 102.989 128.488 77.2481 106.988 64.5547C122.112 78.3115 133.556 97.5867 130.997 115.671C130.913 115.997 130.825 116.327 130.736 116.647C130.667 116.894 130.597 117.135 130.527 117.377C130.499 117.47 130.476 117.558 130.444 117.651C130.388 117.851 130.323 118.051 130.262 118.246C130.183 118.502 130.1 118.753 130.016 119.004C129.979 119.115 129.942 119.227 129.904 119.334C129.783 119.696 129.658 120.054 129.523 120.407C129.384 120.798 129.235 121.183 129.082 121.565C128.933 121.95 128.775 122.331 128.612 122.712C128.454 123.089 128.287 123.47 128.115 123.842C127.952 124.204 127.785 124.563 127.613 124.92C127.59 124.967 127.567 125.013 127.543 125.06C127.385 125.394 127.218 125.724 127.046 126.054C127.041 126.063 127.037 126.073 127.032 126.082C126.846 126.449 126.656 126.807 126.46 127.17C126.228 127.597 125.991 128.02 125.745 128.439C125.577 128.731 125.405 129.02 125.233 129.308C125.224 129.317 125.219 129.326 125.219 129.331C125.006 129.684 124.787 130.033 124.564 130.381C124.192 130.962 123.811 131.539 123.416 132.11C123.244 132.361 123.068 132.607 122.891 132.854C122.742 133.063 122.594 133.267 122.44 133.477C122.212 133.788 121.98 134.095 121.747 134.402C121.52 134.699 121.292 134.987 121.06 135.28C120.93 135.443 120.799 135.605 120.669 135.763C120.585 135.866 120.502 135.968 120.418 136.07C120.26 136.256 120.107 136.442 119.949 136.628C119.521 137.13 119.085 137.627 118.638 138.12C118.424 138.362 118.201 138.599 117.978 138.836C117.815 139.007 117.653 139.184 117.49 139.356C117.258 139.598 117.03 139.835 116.793 140.067C116.458 140.406 116.114 140.746 115.77 141.08C115.492 141.35 115.213 141.615 114.929 141.875C114.887 141.917 114.846 141.959 114.804 141.992C114.516 142.266 114.223 142.53 113.925 142.795C113.381 143.283 112.829 143.758 112.266 144.227C112.127 144.343 111.987 144.459 111.843 144.58C111.56 144.813 111.272 145.045 110.979 145.277C109.966 146.081 108.929 146.858 107.869 147.606C107.851 147.62 107.828 147.634 107.809 147.648C103.677 150.557 99.1828 152.718 94.5165 154.136C92.8991 154.629 91.2585 155.033 89.6039 155.349C89.6831 155.334 89.7618 155.316 89.841 155.3C88.8388 155.561 87.8301 155.792 86.8153 155.986C80.7515 157.139 74.5068 157.083 68.4593 155.831C68.389 155.775 68.3186 155.722 68.248 155.666C68.5809 155.93 68.9141 156.19 69.2468 156.446C69.5723 156.692 69.9022 156.938 70.2322 157.185C70.2694 157.208 70.3021 157.231 70.3346 157.259C70.6691 157.501 71.0038 157.743 71.3383 157.98C75.6098 160.991 80.2621 163.208 85.0956 164.631C92.2858 166.75 99.88 167.117 107.209 165.723C108.074 165.557 108.935 165.367 109.791 165.154C109.014 165.346 108.232 165.52 107.447 165.674Z" fill="#1E3A59"/>
</g>
<g opacity="0.55">
<path d="M117.415 68.9418C115.7 67.7799 113.967 66.6969 112.233 65.6977L112.229 65.6931C111.727 65.4049 111.229 65.126 110.727 64.8658C105.057 61.8959 98.2715 61.8959 92.6013 64.8658C70.3061 76.5362 47.9925 103.753 51.469 128.293C51.5573 128.632 51.6456 128.967 51.7386 129.302C51.799 129.53 51.864 129.753 51.9337 129.98C51.9616 130.083 51.9941 130.189 52.0267 130.292C52.0964 130.524 52.1662 130.757 52.2405 130.989C52.3335 131.282 52.4311 131.575 52.5286 131.863C52.6587 132.253 52.7982 132.644 52.9423 133.029C53.0817 133.42 53.2304 133.805 53.3838 134.187C53.5278 134.554 53.6765 134.916 53.83 135.279C53.8392 135.311 53.8532 135.339 53.8718 135.372C54.1785 136.106 54.5085 136.836 54.8617 137.556C54.8803 137.603 54.9036 137.649 54.9314 137.696C55.0895 138.03 55.2568 138.365 55.4287 138.695C55.596 139.02 55.768 139.346 55.94 139.671C56.1771 140.103 56.414 140.535 56.6558 140.958C56.8324 141.26 57.0137 141.563 57.1902 141.86C57.4458 142.283 57.7061 142.697 57.9711 143.11C58.143 143.384 58.3243 143.659 58.5055 143.928C58.8309 144.421 59.1655 144.904 59.5095 145.388C59.6582 145.602 59.8116 145.815 59.9696 146.024C59.9974 146.062 60.0254 146.103 60.0578 146.141C60.281 146.452 60.5179 146.759 60.7504 147.066C61.3267 147.814 61.9216 148.548 62.5305 149.269C62.7396 149.515 62.9535 149.761 63.1672 150.003C63.4414 150.319 63.7157 150.626 63.9945 150.932C64.2873 151.249 64.5802 151.56 64.873 151.871C65.1658 152.178 65.4632 152.48 65.7607 152.782C66.0582 153.084 66.3602 153.382 66.667 153.675C66.9737 153.972 67.2805 154.265 67.5919 154.553C67.9033 154.846 68.2193 155.129 68.54 155.417C68.856 155.701 69.1767 155.98 69.5021 156.259C69.8274 156.538 70.1528 156.816 70.4874 157.091C70.8174 157.36 71.1474 157.63 71.482 157.899H71.4866C71.8259 158.169 72.1652 158.434 72.5044 158.694C72.8066 158.922 73.1133 159.15 73.42 159.382C73.0343 159.131 72.6531 158.871 72.272 158.601C71.9374 158.364 71.6027 158.122 71.2681 157.881C71.2356 157.853 71.203 157.83 71.1658 157.806C70.8358 157.56 70.5058 157.314 70.1805 157.067C69.8412 156.807 69.5019 156.542 69.1627 156.273H69.158C68.8234 156.003 68.4935 155.733 68.1635 155.464C67.8289 155.19 67.5035 154.911 67.1781 154.632C66.8528 154.353 66.5321 154.074 66.216 153.791C65.8953 153.503 65.5793 153.219 65.2679 152.926C64.9565 152.638 64.6498 152.345 64.343 152.048C64.0363 151.755 63.7341 151.457 63.4367 151.155C63.1392 150.853 62.8418 150.551 62.549 150.245C62.2562 149.933 61.9634 149.622 61.6706 149.306C61.3917 148.999 61.1175 148.692 60.8433 148.376C60.6295 148.134 60.4157 147.888 60.2066 147.642C59.5977 146.921 59.0028 146.187 58.4264 145.439C58.1941 145.132 57.957 144.825 57.7339 144.514C57.7013 144.477 57.6735 144.435 57.6456 144.398C57.4876 144.189 57.3342 143.975 57.1855 143.761C56.8416 143.278 56.5069 142.794 56.1816 142.302C56.0003 142.032 55.819 141.758 55.6471 141.484C55.3822 141.07 55.1219 140.656 54.8663 140.233C54.6896 139.936 54.5084 139.634 54.3318 139.332C54.0901 138.909 53.8531 138.476 53.616 138.044C53.4441 137.719 53.2721 137.393 53.1048 137.068C52.9328 136.738 52.7654 136.404 52.6075 136.069C52.5796 136.022 52.5564 135.976 52.5377 135.929C52.1845 135.209 51.8545 134.479 51.5478 133.745C51.5292 133.712 51.5152 133.685 51.5059 133.652C51.3525 133.29 51.2038 132.927 51.0597 132.56C50.9064 132.179 50.7576 131.793 50.6182 131.403C50.4742 131.017 50.3347 130.626 50.2046 130.236C50.107 129.948 50.0093 129.655 49.9164 129.362C49.8421 129.13 49.7724 128.897 49.7027 128.665C49.6701 128.563 49.6376 128.456 49.6097 128.354C49.54 128.126 49.4749 127.903 49.4145 127.675C49.3215 127.34 49.2332 127.006 49.145 126.667C45.6685 102.127 67.9822 74.9095 90.2772 63.2391C95.9475 60.2693 102.733 60.2693 108.403 63.2391C108.905 63.4994 109.403 63.7782 109.905 64.0664L109.909 64.071C112.433 65.5211 114.947 67.1524 117.415 68.9418Z" fill="white"/>
</g>
<path d="M98.8775 167.938C89.107 167.938 79.3386 164.998 71.0057 159.119C70.6654 158.878 70.3269 158.634 69.9887 158.389C69.9712 158.377 69.954 158.363 69.9372 158.35C69.9138 158.335 69.8912 158.319 69.8686 158.302C69.5179 158.04 69.1944 157.798 68.8759 157.557C68.5465 157.304 68.223 157.052 67.8999 156.796C67.8727 156.777 67.8468 156.758 67.8212 156.737C67.4944 156.474 67.1721 156.211 66.8494 155.947C66.4745 155.64 66.1409 155.354 65.8082 155.069C65.4746 154.783 65.1458 154.497 64.8222 154.207L64.7766 154.166C64.4632 153.884 64.1547 153.607 63.85 153.32C63.5391 153.032 63.2243 152.732 62.9096 152.427C62.6007 152.132 62.2881 151.824 61.9805 151.512C61.6653 151.192 61.369 150.891 61.0774 150.585C60.7752 150.264 60.4806 149.95 60.1856 149.632C59.8901 149.307 59.6085 148.992 59.3272 148.668C59.1158 148.429 58.8953 148.175 58.6801 147.921C58.0419 147.166 57.4296 146.409 56.8588 145.668L56.7052 145.465C56.5232 145.226 56.3411 144.986 56.1662 144.743C56.1339 144.703 56.1034 144.662 56.0741 144.622C55.9021 144.394 55.738 144.165 55.5786 143.936C55.2054 143.412 54.868 142.921 54.5558 142.449C54.3724 142.176 54.1828 141.889 54.0034 141.603C53.7384 141.19 53.4719 140.765 53.2103 140.332L53.0462 140.057C52.919 139.843 52.7909 139.628 52.6654 139.413C52.4256 138.994 52.1967 138.577 51.9682 138.161L51.9313 138.094C51.7459 137.744 51.5714 137.413 51.4019 137.083C51.2336 136.761 51.0662 136.426 50.9072 136.092C50.8688 136.022 50.8336 135.951 50.8034 135.88C50.428 135.104 50.107 134.396 49.8233 133.72C49.7962 133.666 49.7664 133.601 49.7392 133.527C49.5881 133.168 49.4413 132.81 49.2989 132.447C49.1436 132.06 48.9879 131.657 48.8423 131.25C48.6996 130.867 48.5548 130.461 48.4192 130.055C48.3208 129.765 48.2204 129.463 48.1245 129.162C48.0487 128.924 47.9767 128.684 47.9044 128.445C47.8726 128.344 47.8349 128.219 47.8023 128.1C47.7387 127.894 47.6688 127.655 47.6039 127.41C47.5135 127.084 47.4231 126.743 47.3331 126.396C47.3197 126.345 47.3093 126.293 47.3018 126.241C45.1967 111.38 52.1979 97.6271 58.442 88.7066C66.3326 77.4339 77.5318 67.4753 89.168 61.3844C95.2481 58.2 102.507 58.2 108.588 61.3844C120.224 67.4754 131.423 77.4342 139.313 88.7066C145.558 97.6271 152.559 111.38 150.454 126.241C150.446 126.292 150.436 126.343 150.423 126.392C150.338 126.725 150.247 127.063 150.157 127.391L149.918 128.223C149.897 128.295 149.876 128.366 149.852 128.439C149.81 128.586 149.765 128.732 149.719 128.877L149.671 129.031C149.595 129.278 149.514 129.52 149.434 129.761L149.416 129.816C149.376 129.936 149.337 130.054 149.297 130.166C149.176 130.53 149.044 130.906 148.902 131.278C148.767 131.658 148.612 132.061 148.451 132.459C148.305 132.84 148.14 133.237 147.972 133.633C147.81 134.018 147.635 134.414 147.457 134.801C147.296 135.159 147.124 135.529 146.946 135.898L146.865 136.059C146.715 136.379 146.539 136.726 146.359 137.072C146.162 137.463 145.965 137.831 145.765 138.204C145.522 138.65 145.277 139.087 145.023 139.519C144.86 139.805 144.683 140.1 144.507 140.396C144.505 140.399 144.503 140.402 144.501 140.405C144.497 140.412 144.493 140.419 144.489 140.426C144.269 140.79 144.044 141.148 143.815 141.506C143.406 142.145 143.022 142.724 142.64 143.277C142.465 143.531 142.283 143.786 142.101 144.04C141.951 144.25 141.799 144.46 141.642 144.674C141.409 144.992 141.173 145.304 140.936 145.617C140.698 145.927 140.466 146.222 140.228 146.521C140.091 146.692 139.956 146.86 139.822 147.023L139.088 147.905C138.65 148.418 138.2 148.931 137.748 149.429C137.543 149.662 137.316 149.903 137.089 150.144L136.579 150.689C136.324 150.953 136.089 151.197 135.845 151.437C135.521 151.766 135.17 152.112 134.819 152.454C134.535 152.728 134.255 152.995 133.969 153.257C133.916 153.31 133.862 153.36 133.808 153.406C133.52 153.68 133.227 153.945 132.929 154.21C132.351 154.724 131.782 155.215 131.236 155.67L130.817 156.021C130.515 156.269 130.221 156.506 129.923 156.743C128.896 157.558 127.828 158.357 126.75 159.118C126.742 159.124 126.714 159.143 126.699 159.154C126.695 159.156 126.691 159.159 126.688 159.162C118.368 165.012 108.622 167.937 98.8775 167.938ZM71.6569 156.154C71.9763 156.385 72.296 156.615 72.6153 156.842C88.2972 167.906 109.383 167.922 125.084 156.881V156.881C125.106 156.865 125.129 156.849 125.143 156.84C126.177 156.109 127.202 155.342 128.189 154.559C128.476 154.331 128.758 154.103 129.036 153.876L129.449 153.53C129.973 153.093 130.52 152.621 131.075 152.127C131.361 151.873 131.642 151.619 131.919 151.355C131.943 151.332 131.968 151.31 131.994 151.289L132.02 151.263C132.034 151.249 132.049 151.235 132.063 151.221C132.338 150.969 132.608 150.713 132.878 150.452C133.212 150.127 133.549 149.794 133.876 149.462C134.118 149.225 134.333 149.001 134.553 148.773L135.041 148.252C135.265 148.014 135.472 147.794 135.67 147.57C136.114 147.08 136.546 146.588 136.964 146.097L137.664 145.257C137.795 145.098 137.921 144.94 138.047 144.783C138.272 144.5 138.495 144.218 138.717 143.928C138.94 143.633 139.169 143.332 139.392 143.026C139.541 142.823 139.687 142.623 139.832 142.419C140.005 142.177 140.176 141.938 140.343 141.695C140.709 141.166 141.076 140.613 141.466 140.003C141.683 139.665 141.895 139.326 142.103 138.983C142.106 138.978 142.109 138.972 142.113 138.967C142.28 138.686 142.448 138.405 142.611 138.12C142.858 137.7 143.087 137.291 143.312 136.878C143.499 136.53 143.684 136.183 143.864 135.826C143.867 135.821 143.883 135.788 143.886 135.783C144.049 135.47 144.209 135.157 144.359 134.839L144.445 134.666C144.599 134.343 144.762 133.997 144.919 133.646C145.091 133.273 145.252 132.907 145.404 132.546C145.562 132.173 145.714 131.807 145.857 131.437C146.011 131.053 146.153 130.685 146.286 130.312C146.424 129.949 146.544 129.61 146.658 129.266L146.787 128.883C146.862 128.659 146.936 128.435 147.007 128.208L147.058 128.043C147.099 127.913 147.14 127.782 147.177 127.651C147.185 127.621 147.194 127.592 147.205 127.562C147.218 127.524 147.229 127.486 147.239 127.448L147.472 126.64C147.548 126.361 147.628 126.066 147.704 125.773C149.219 114.898 145.429 102.306 137.029 90.3057C129.386 79.3869 118.548 69.7457 107.294 63.8548C102.024 61.0943 95.7317 61.0943 90.4618 63.8548C79.2077 69.7457 68.3696 79.3866 60.7264 90.3057C52.3269 102.306 48.5382 114.897 50.0519 125.771C50.1319 126.077 50.2118 126.379 50.2955 126.68C50.3558 126.908 50.4165 127.114 50.4809 127.325C50.5152 127.449 50.5429 127.538 50.5696 127.624C50.6428 127.867 50.7107 128.092 50.7823 128.317C50.8731 128.603 50.9685 128.887 51.0631 129.167C51.1898 129.548 51.3238 129.923 51.4619 130.293C51.6021 130.685 51.7444 131.054 51.8909 131.418C52.0348 131.785 52.1792 132.136 52.3278 132.487C52.3303 132.494 52.3333 132.5 52.3358 132.507C52.3487 132.533 52.3609 132.56 52.3718 132.586C52.6459 133.242 52.9597 133.934 53.3306 134.7C53.3394 134.719 53.3482 134.737 53.3562 134.756C53.3737 134.787 53.3904 134.819 53.4055 134.851C53.5562 135.169 53.7152 135.488 53.8788 135.802C54.0475 136.13 54.2169 136.45 54.386 136.771L54.4125 136.819C54.6338 137.221 54.8548 137.624 55.08 138.018C55.1946 138.214 55.3185 138.422 55.4416 138.629L55.6027 138.899C55.8467 139.303 56.1008 139.707 56.3589 140.11C56.5301 140.382 56.703 140.644 56.8762 140.902C57.1767 141.357 57.4964 141.821 57.8589 142.331C58.0058 142.541 58.148 142.74 58.2954 142.934C58.3016 142.943 58.3301 142.982 58.3364 142.991L58.3176 142.97C58.3489 143.005 58.3783 143.042 58.4054 143.08C58.5733 143.315 58.7495 143.546 58.9253 143.777L59.0755 143.975C59.6137 144.674 60.1992 145.398 60.8089 146.12C61.0107 146.357 61.2178 146.596 61.425 146.83C61.7012 147.149 61.9687 147.448 62.2403 147.746C62.5215 148.05 62.812 148.359 63.1024 148.668C63.377 148.956 63.6632 149.246 63.9495 149.537C64.2554 149.847 64.5472 150.135 64.8435 150.417C65.1507 150.715 65.4494 151 65.7529 151.281C66.0504 151.561 66.3434 151.824 66.6409 152.092L66.6856 152.132C66.9933 152.408 67.3063 152.68 67.6235 152.952C67.9407 153.224 68.2583 153.496 68.5848 153.764C68.9075 154.028 69.205 154.27 69.5043 154.512C69.5257 154.527 69.547 154.543 69.5675 154.559C69.9006 154.824 70.2334 155.084 70.5669 155.339C70.8703 155.569 71.185 155.804 71.4997 156.039C71.5548 156.076 71.6063 156.113 71.6569 156.154ZM132.026 151.263C132.023 151.266 132.019 151.268 132.016 151.271C132.019 151.268 132.023 151.266 132.026 151.263ZM52.3847 132.65C52.3851 132.651 52.3851 132.651 52.3856 132.652C52.3851 132.651 52.3851 132.651 52.3847 132.65ZM52.2993 132.438C52.2998 132.439 52.2998 132.439 52.3002 132.439C52.2998 132.439 52.2998 132.438 52.2993 132.438Z" fill="#1E3A59"/>
<path d="M137.933 133.089C137.847 133.35 137.754 133.615 137.657 133.887C135.073 140.507 130.005 144.034 126.936 140.04L128.767 131.049L130.012 124.937C134.8 121.667 141.185 123.136 137.933 133.089Z" fill="#FDBD91"/>
<path d="M130.005 141.892C128.788 141.892 127.689 141.294 126.804 140.142L126.758 140.082L129.863 124.838L129.918 124.8C132.532 123.015 135.474 122.705 137.238 124.029C138.387 124.89 140.025 127.22 138.091 133.141C138.005 133.403 137.911 133.669 137.813 133.943C136.086 138.367 133.238 141.47 130.556 141.852C130.37 141.878 130.186 141.892 130.005 141.892ZM127.114 139.998C128.046 141.179 129.216 141.706 130.509 141.523C133.074 141.157 135.82 138.136 137.502 133.827C137.597 133.561 137.69 133.297 137.775 133.037C139.161 128.795 138.9 125.691 137.039 124.294C135.401 123.065 132.643 123.365 130.162 125.037L127.114 139.998Z" fill="#1E3A59"/>
<g opacity="0.3">
<path d="M137.933 133.088C137.847 133.349 137.754 133.614 137.657 133.886C135.073 140.505 130.005 144.033 126.936 140.039L128.767 131.048C129.195 131.015 129.453 130.996 129.453 130.996C131.314 136.817 134.017 137.336 137.564 132.547C137.564 132.547 137.698 132.745 137.933 133.088Z" fill="#1E3A59"/>
</g>
<path d="M130.015 142.842C128.504 142.842 127.116 142.105 126.052 140.722C125.854 140.464 125.778 140.134 125.843 139.816L128.919 124.713C128.977 124.428 129.144 124.177 129.384 124.013C132.371 121.973 135.783 121.69 137.872 123.31C139.273 124.397 141.247 127.265 138.713 134.267C136.826 139.099 133.758 142.356 130.694 142.793C130.466 142.826 130.239 142.842 130.015 142.842ZM128.144 139.73C128.802 140.42 129.538 140.697 130.379 140.578C132.575 140.265 135.083 137.412 136.618 133.48C138.107 129.365 138.068 126.293 136.501 125.079C135.276 124.129 133.066 124.361 131.018 125.62L128.144 139.73Z" fill="#1E3A59"/>
<path d="M59.8284 133.089C59.9142 133.35 60.0074 133.614 60.1044 133.887C62.6887 140.506 67.7567 144.034 70.8258 140.04L68.9948 131.049L67.7492 124.937C62.9609 121.666 56.5766 123.135 59.8284 133.089Z" fill="#FDBD91"/>
<path d="M67.7572 141.958C67.5731 141.958 67.386 141.944 67.1964 141.917C64.4911 141.532 61.6223 138.413 59.8884 133.972C59.7879 133.691 59.6942 133.425 59.6076 133.162V133.161C57.6607 127.201 59.3205 124.848 60.4836 123.975C62.2702 122.635 65.2428 122.944 67.8803 124.745L67.9581 124.798L71.0751 140.098L71.0102 140.182C70.1113 141.352 68.996 141.958 67.7572 141.958ZM60.0495 133.017C60.1345 133.276 60.2274 133.539 60.3236 133.809C61.9951 138.09 64.7196 141.095 67.262 141.457C68.5377 141.638 69.6517 141.143 70.5771 139.981L67.5403 125.077C65.0875 123.433 62.3722 123.139 60.7626 124.347C58.9263 125.725 58.6731 128.804 60.0495 133.017Z" fill="#1E3A59"/>
<g opacity="0.55">
<path d="M66.6909 141.615C64.3229 140.824 61.8803 137.968 60.329 133.996C60.2321 133.724 60.1388 133.459 60.053 133.198C56.8012 123.245 63.1855 121.776 67.9738 125.046L67.9961 125.158C63.6666 123.521 59.2997 125.792 62.1041 134.38C62.1898 134.641 62.2831 134.906 62.38 135.178C63.4801 138.001 65.0352 140.261 66.6909 141.615Z" fill="white"/>
</g>
<path d="M67.7484 142.842C67.5245 142.842 67.2981 142.826 67.0696 142.793C64.0061 142.356 60.9376 139.099 59.0614 134.293C56.5173 127.265 58.4906 124.397 59.8921 123.31C61.9817 121.69 65.3922 121.973 68.379 124.012C68.6192 124.176 68.7862 124.428 68.844 124.713L71.9209 139.816C71.9858 140.134 71.9096 140.464 71.7117 140.721C70.6478 142.105 69.2597 142.842 67.7484 142.842ZM63.2039 124.496C62.4426 124.496 61.7688 124.686 61.2629 125.079C59.696 126.293 59.6571 129.365 61.1558 133.506C62.6812 137.412 65.1885 140.265 67.3853 140.578C68.2264 140.697 68.961 140.42 69.6201 139.73L66.7453 125.619C65.5433 124.881 64.2853 124.496 63.2039 124.496Z" fill="#1E3A59"/>
<path d="M129.341 131.277V136.445C129.341 145.336 125.086 153.768 117.758 158.802C117.654 158.873 117.549 158.94 117.448 159.011C106.272 166.503 91.6388 166.503 80.4625 159.015C80.3618 158.944 80.2574 158.873 80.153 158.802C72.8214 153.771 68.5664 145.34 68.5664 136.446V131.277C68.5664 131.277 68.5851 130.945 68.6224 130.348C68.8984 125.631 70.1476 104.464 70.349 103.923C77.0018 86.0158 143.516 90.4051 129.341 131.277Z" fill="#FDBD91"/>
<path d="M98.9535 164.891C92.4717 164.891 85.9907 162.997 80.3349 159.208C80.2408 159.141 80.1478 159.078 80.0546 159.015C72.7052 153.972 68.3359 145.543 68.3359 136.446V131.277C68.3364 131.264 68.3552 130.931 68.3924 130.334C68.8473 122.553 69.9275 104.394 70.1335 103.842C71.8795 99.1419 77.7996 95.6591 86.3753 94.2874C94.6534 92.9632 104.296 93.8607 112.169 96.6877C120.03 99.5105 137.453 108.534 129.575 131.316V136.445C129.575 145.538 125.207 153.967 117.891 158.993L117.771 159.074C117.708 159.116 117.645 159.158 117.584 159.201C111.925 162.995 105.439 164.891 98.9535 164.891ZM94.2219 94.1518C91.5639 94.1518 88.9441 94.3472 86.449 94.7464C78.0433 96.0907 72.2553 99.4651 70.5692 104.004C70.4081 104.6 69.5456 118.577 68.8563 130.362C68.819 130.958 68.8002 131.29 68.8002 131.29L68.8007 136.445C68.8007 145.39 73.0946 153.675 80.2866 158.61C80.4113 158.695 80.5067 158.76 80.5984 158.824C91.7504 166.296 106.167 166.294 117.321 158.818C117.381 158.775 117.447 158.731 117.514 158.687L117.63 158.61C124.818 153.671 129.111 145.385 129.111 136.445L129.123 131.201C136.898 108.783 119.747 99.9027 112.012 97.1253C106.583 95.1754 100.304 94.1518 94.2219 94.1518Z" fill="#1E3A59"/>
<g opacity="0.3">
<path d="M129.337 131.276V136.444C129.337 145.335 125.082 153.766 117.754 158.801C117.649 158.872 117.545 158.939 117.444 159.01C106.268 166.502 91.6347 166.502 80.4584 159.014C80.3576 158.943 80.2533 158.872 80.1489 158.801C79.9176 158.641 79.6865 158.477 79.459 158.309C89.9753 163.421 102.58 162.661 112.473 156.026C112.574 155.956 112.678 155.888 112.783 155.818C120.111 150.783 124.366 142.352 124.366 133.461L124.808 126.946C129.618 113.077 124.694 104.758 116.415 98.7388C127.681 104.292 135.039 114.83 129.337 131.276Z" fill="#1E3A59"/>
</g>
<g opacity="0.3">
<path d="M129.338 131.276V133.376C125.996 128.453 125.351 115.021 125.351 115.021C122.43 118.193 106.023 121.851 94.5088 115.734C93.8877 115.404 93.2062 116.064 93.518 116.694C93.6585 116.979 93.7153 117.074 93.7153 117.074C92.2009 118.012 85.0672 117.098 81.1975 114.846C80.1212 114.22 78.7487 114.899 78.556 116.129C77.6889 121.661 74.9344 125.513 69.0406 131.276C68.8951 130.967 68.7534 130.657 68.6191 130.348C68.8951 125.63 70.1444 104.464 70.3458 103.923C76.9987 86.0154 143.512 90.4046 129.338 131.276Z" fill="#1E3A59"/>
</g>
<g opacity="0.55">
<path d="M111.562 162.146C101.456 166.289 89.7611 165.245 80.4605 159.014C80.3598 158.943 80.2554 158.872 80.151 158.801C72.8195 153.77 68.5645 145.339 68.5645 136.445V131.276C68.5645 131.276 70.1196 104.53 70.3471 103.922C71.7455 100.16 75.7842 97.3815 81.1654 95.7183C77.1192 97.4076 74.1471 99.8502 72.9874 102.968C72.7599 103.579 71.2048 130.321 71.2048 130.321V135.49C71.2048 144.384 75.4598 152.816 82.7914 157.85C82.8959 157.917 83.0112 157.974 83.1047 158.059C90.3611 164.629 102.105 165.118 111.562 162.146Z" fill="white"/>
</g>
<path d="M98.9537 165.779C92.2998 165.779 85.6468 163.833 79.8413 159.942C79.7342 159.871 79.627 159.798 79.5199 159.725C71.9604 154.538 67.4473 145.835 67.4473 136.444V131.276C67.4473 131.254 67.4477 131.233 67.449 131.211C69.0134 104.319 69.2293 103.722 69.3001 103.531C73.3944 92.5157 96.4591 90.1033 112.47 95.8537C120.097 98.5933 125.871 102.938 129.17 108.417C133.052 114.866 133.485 122.619 130.459 131.463V136.444C130.459 145.832 125.947 154.534 118.389 159.723L118.071 159.939C112.264 163.832 105.609 165.778 98.9537 165.779ZM69.6846 131.308V136.444C69.6846 145.097 73.8349 153.11 80.7863 157.88C80.8859 157.949 80.9855 158.016 81.0859 158.083C91.9424 165.359 105.97 165.358 116.824 158.081L117.122 157.879C124.072 153.107 128.222 145.095 128.222 136.444V131.276C128.222 131.151 128.242 131.027 128.283 130.91C135.799 109.242 119.199 100.649 111.713 97.9595C95.488 92.1323 74.841 95.3594 71.428 104.23C71.2209 105.675 70.278 121.111 69.6846 131.308ZM71.4055 104.289C71.403 104.295 71.4001 104.303 71.3979 104.31C71.4 104.304 71.4025 104.297 71.4055 104.289Z" fill="#1E3A59"/>
<path d="M128.986 92.9585C137.376 103.68 136.332 122.337 129.265 132.115C123.858 129.132 123.5 115.02 123.5 115.02C110.701 118.503 97.75 116.378 86.0067 106.26C85.7569 110.236 89.087 113.924 89.087 113.924C87.5767 113.879 86.223 113.659 85.0073 113.294C80.7598 112.022 78.2314 108.945 76.6838 105.078C75.1921 118.503 75.099 121.487 68.5617 131.276C62.0356 117.291 60.8348 100.044 71.7128 94.8864C56.5463 89.6656 62.14 79.097 75.1921 88.4834C68.7891 79.2835 76.8702 75.7371 78.5484 85.873C87.9869 68.633 129.452 74.6855 135.072 94.2637L129 92.9622C128.989 92.9585 128.986 92.9585 128.986 92.9585Z" fill="#AC3D50"/>
<path d="M129.335 132.418L129.155 132.319C124.066 129.511 123.364 117.428 123.28 115.321C109.684 118.935 97.2229 116.053 86.2279 106.754C86.2639 110.401 89.2303 113.734 89.2617 113.769L89.6263 114.172L89.0826 114.157C87.6027 114.113 86.2099 113.898 84.9423 113.517C81.2687 112.417 78.604 109.95 76.8194 105.987L76.7378 106.723C75.4111 118.744 75.0546 121.975 68.7569 131.405L68.5276 131.749L68.3531 131.375C61.7805 117.289 60.6876 100.398 71.1215 94.9236C64.9954 92.6995 62.5865 89.7041 62.3873 87.6046C62.2831 86.5081 62.7539 85.6009 63.7131 85.0504C65.5111 84.0184 69.2085 84.2029 74.35 87.6174C72.1959 84.0931 72.2566 81.5426 73.0346 80.3734C73.4903 79.6885 74.2047 79.3922 74.9869 79.5613C76.2959 79.8423 77.9118 81.4795 78.6647 85.208C83.8555 76.5842 96.3776 74.6772 106.518 75.8045C118.6 77.1473 132.184 83.3563 135.297 94.2L135.404 94.5725L129.553 93.3185C137.694 104.331 136.281 122.808 129.455 132.252L129.335 132.418ZM123.727 114.719L123.734 115.015C123.738 115.153 124.141 128.71 129.201 131.808C135.928 122.301 137.196 103.825 128.805 93.1021L128.511 92.7265L129.079 92.7433L134.738 93.9546C131.482 83.5486 118.254 77.5765 106.466 76.2664C96.263 75.132 83.6249 77.0896 78.7543 85.985L78.4312 86.5753L78.3212 85.9113C77.6675 81.9633 76.0642 80.268 74.8894 80.0156C74.2926 79.8882 73.7716 80.1054 73.4217 80.6309C72.6529 81.7864 72.7057 84.5014 75.3849 88.3513L76.1595 89.4648L75.0584 88.6727C69.5789 84.7327 65.6454 84.4759 63.9445 85.4535C63.1528 85.908 62.764 86.6563 62.8498 87.5607C63.0327 89.4821 65.4835 92.4963 71.7907 94.6674L72.3298 94.853L71.8146 95.097C61.2242 100.118 62.1793 116.783 68.6004 130.802C74.6135 121.731 74.9751 118.456 76.2759 106.673L76.5575 104.132L76.902 104.992C78.625 109.298 81.2988 111.941 85.0758 113.072C86.1543 113.396 87.3286 113.596 88.5729 113.669C87.712 112.588 85.5697 109.542 85.7768 106.246L85.8062 105.78L86.1602 106.085C97.1975 115.594 109.74 118.526 123.441 114.797L123.727 114.719Z" fill="#1E3A59"/>
<g opacity="0.3">
<path d="M75.1371 102.742C75.6932 103.815 76.2005 105.024 76.5365 106.459C75.1828 118.724 74.8733 121.83 68.5672 131.276C67.8288 129.691 67.1576 128.069 66.5684 126.425C71.7463 118.392 72.3517 113.855 73.5479 103.034C73.6399 102.202 74.752 101.999 75.1371 102.742Z" fill="#1E3A59"/>
</g>
<g opacity="0.55">
<path d="M72.732 86.8911C64.5203 83.4118 61.5481 89.427 69.5472 94.0437C58.0017 89.0094 62.1187 80.8126 72.732 86.8911Z" fill="white"/>
</g>
<g opacity="0.55">
<path d="M71.456 95.0171C71.4636 95.0205 71.4713 95.024 71.4791 95.0275C72.5128 95.4846 72.7314 96.8412 71.8612 97.5627C64.4315 103.723 64.714 117.584 69.6176 129.669C69.2894 130.183 68.9389 130.72 68.5659 131.276C62.0921 117.403 60.8577 100.324 71.456 95.0171Z" fill="white"/>
</g>
<g opacity="0.55">
<path d="M74.6873 88.335L74.6622 88.3212C70.3289 81.6496 74.2716 77.8077 76.9044 80.8842C75.4502 81.0989 74.5867 83.3478 76.2016 86.9059C76.63 87.8498 75.597 88.8321 74.6873 88.335Z" fill="white"/>
</g>
<g opacity="0.55">
<path d="M126.843 84.1949C119.698 80.8983 110.129 78.6943 101.444 78.6534C100.105 81.2228 95.5926 81.0959 93.6945 79.2687C88.8093 80.1451 84.6736 81.9947 82.093 85.0787C81.3546 85.9626 79.9114 85.9028 79.3297 84.9072C79.2961 84.855 79.2663 84.7991 79.2402 84.7357C87.3325 74.417 114.63 73.5667 126.843 84.1949Z" fill="white"/>
</g>
<path d="M129.27 133.235C129.087 133.235 128.901 133.19 128.731 133.095C123.797 130.373 122.695 120.323 122.452 116.448C109.714 119.537 97.974 117.004 87.4892 108.911C88.2471 111.284 89.9018 113.151 89.9245 113.176C90.2233 113.51 90.2957 113.99 90.107 114.396C89.9228 114.791 89.5269 115.043 89.0929 115.043C89.0816 115.043 89.0703 115.043 89.0586 115.043C83.9218 114.885 80.013 112.811 77.3957 108.866C76.2143 119.416 75.5413 122.848 69.4977 131.898C69.2733 132.234 68.8888 132.422 68.4823 132.392C68.0793 132.362 67.7244 132.116 67.5537 131.75C61.1405 118.007 59.9033 101.617 69.1516 95.0928C63.862 92.7946 61.7134 89.8439 61.5083 87.689C61.3715 86.247 62.0156 85.0053 63.2757 84.2821C64.9685 83.3094 68.0802 83.2383 72.256 85.3612C71.3349 82.8556 71.5759 80.9714 72.3004 79.8826C72.9591 78.8935 74.0359 78.4495 75.1768 78.695C76.8199 79.048 78.1834 80.6491 79.0267 83.1238C84.9423 75.5273 96.8638 73.8407 106.619 74.924C118.995 76.2993 132.927 82.7179 136.152 93.9558C136.261 94.3337 136.163 94.7407 135.895 95.028C135.627 95.3155 135.228 95.4404 134.843 95.3584L131.514 94.6444C134.543 99.6123 136.138 105.982 136.047 112.906C135.946 120.509 133.807 127.75 130.178 132.771C129.961 133.072 129.619 133.235 129.27 133.235ZM123.505 113.903C123.743 113.903 123.978 113.979 124.174 114.124C124.449 114.329 124.615 114.649 124.624 114.993C124.714 118.469 125.685 127.501 128.993 130.54C135.088 121.096 136.052 103.797 128.11 93.649C127.82 93.2782 127.793 92.7653 128.043 92.3663C128.293 91.9668 128.764 91.7667 129.226 91.8655L133.355 92.7511C129.478 83.6301 117.298 78.3624 106.372 77.1479C93.9072 75.7632 83.3747 79.3988 79.5356 86.4111C79.3058 86.8298 78.8367 87.0571 78.3667 86.977C77.8963 86.897 77.5284 86.5275 77.4506 86.0567C76.8278 82.2964 75.3836 81.0282 74.7073 80.8829C74.5412 80.8471 74.3465 80.8469 74.1632 81.1224C73.7024 81.8151 73.5175 84.1114 76.1159 87.8454C76.4273 88.2928 76.3708 88.8992 75.9828 89.2817C75.5936 89.6636 74.9864 89.7104 74.5444 89.3928C69.7366 85.9351 65.9797 85.3098 64.3894 86.2228C63.8964 86.5057 63.6825 86.916 63.7361 87.4773C63.906 89.2677 66.5531 91.9262 72.0828 93.8298C72.5131 93.9777 72.8106 94.3713 72.8357 94.8254C72.8608 95.2795 72.6089 95.7036 72.198 95.8985C66.3468 98.6726 64.9097 104.996 64.7347 109.813C64.5271 115.523 65.9827 122.4 68.7557 128.948C73.7966 121.089 74.154 117.852 75.3987 106.576L75.5779 104.956C75.6348 104.446 76.0311 104.04 76.5396 103.971C77.0493 103.901 77.5381 104.188 77.7286 104.664C79.5299 109.169 82.487 111.769 86.7315 112.557C85.7702 110.969 84.7411 108.654 84.8959 106.191C84.9228 105.768 85.1868 105.395 85.5785 105.23C85.9695 105.066 86.421 105.136 86.7428 105.414C97.5437 114.719 109.812 117.588 123.212 113.942C123.308 113.915 123.407 113.903 123.505 113.903Z" fill="#1E3A59"/>
<path d="M123.501 116.14C123.007 116.14 122.556 115.81 122.422 115.311C122.261 114.714 122.614 114.101 123.211 113.94C124.601 113.566 126.006 113.118 127.387 112.606C127.967 112.392 128.61 112.688 128.825 113.267C129.039 113.847 128.743 114.49 128.164 114.705C126.718 115.24 125.248 115.709 123.792 116.101C123.695 116.127 123.597 116.14 123.501 116.14Z" fill="#1E3A59"/>
<g opacity="0.3">
<path d="M129.269 132.115C123.862 129.132 123.504 115.02 123.504 115.02C110.706 118.503 97.7542 116.378 86.011 106.26C85.7611 110.236 89.0913 113.924 89.0913 113.924C87.581 113.879 86.2273 113.659 85.0116 113.294C78.8883 103.203 81.495 100.823 90.2996 103.926C114.733 111.809 132.521 113.044 128.99 92.9585C137.38 103.68 136.336 122.337 129.269 132.115Z" fill="#1E3A59"/>
</g>
<g opacity="0.2">
<path d="M123.064 102.283C123.064 103.978 119.746 105.352 115.653 105.352C111.56 105.352 108.242 103.978 108.242 102.283C108.242 100.588 111.56 100.544 115.653 100.544C119.746 100.544 123.064 100.588 123.064 102.283Z" fill="#FEFEFE"/>
</g>
<path d="M102.874 151.964C102.874 151.964 101.269 152.989 97.0872 152.989C96.18 153.051 93.5837 152.909 90.3027 149.913C90.3027 149.913 91.8184 154.282 96.9895 154.282C96.9895 154.282 99.9317 154.549 102.874 151.964Z" fill="#1E3A59"/>
<path d="M79.127 132.549C79.4783 131.408 80.3188 130.459 81.3546 129.813C82.3959 129.168 83.6437 128.838 84.881 128.85C86.1196 128.859 87.3498 129.214 88.3796 129.856C89.4049 130.499 90.2463 131.422 90.6393 132.549C89.5139 132.163 88.5553 131.854 87.6091 131.655C86.6694 131.452 85.7632 131.351 84.8582 131.339C83.9532 131.33 83.0501 131.41 82.1187 131.608C81.181 131.801 80.2339 132.118 79.127 132.549Z" fill="#1E3A59"/>
<path d="M119.223 132.549C118.116 132.118 117.169 131.801 116.232 131.608C115.3 131.41 114.397 131.33 113.492 131.339C112.587 131.351 111.681 131.452 110.741 131.655C109.795 131.854 108.836 132.163 107.711 132.549C108.104 131.422 108.945 130.499 109.971 129.856C111 129.214 112.231 128.859 113.469 128.85C114.707 128.838 115.954 129.168 116.996 129.813C118.031 130.459 118.872 131.408 119.223 132.549Z" fill="#1E3A59"/>
<path d="M86.0061 144.437C88.1301 144.437 89.852 142.166 89.852 139.364C89.852 136.562 88.1301 134.291 86.0061 134.291C83.882 134.291 82.1602 136.562 82.1602 139.364C82.1602 142.166 83.882 144.437 86.0061 144.437Z" fill="#1E3A59"/>
<path d="M86.9881 139.891C87.6299 139.891 88.1501 139.128 88.1501 138.188C88.1501 137.247 87.6299 136.484 86.9881 136.484C86.3464 136.484 85.8262 137.247 85.8262 138.188C85.8262 139.128 86.3464 139.891 86.9881 139.891Z" fill="white"/>
<path d="M86.9902 140.124C86.208 140.124 85.5957 139.273 85.5957 138.188C85.5957 137.102 86.208 136.251 86.9902 136.251C87.772 136.251 88.3843 137.102 88.3843 138.188C88.3843 139.273 87.772 140.124 86.9902 140.124ZM86.9902 136.716C86.4863 136.716 86.0603 137.39 86.0603 138.187C86.0603 138.985 86.4863 139.659 86.9902 139.659C87.4941 139.659 87.9197 138.985 87.9197 138.187C87.9197 137.39 87.4941 136.716 86.9902 136.716Z" fill="#1E3A59"/>
<path d="M112.602 144.437C114.726 144.437 116.448 142.166 116.448 139.364C116.448 136.562 114.726 134.291 112.602 134.291C110.478 134.291 108.756 136.562 108.756 139.364C108.756 142.166 110.478 144.437 112.602 144.437Z" fill="#1E3A59"/>
<path d="M111.615 139.892C112.257 139.892 112.777 139.129 112.777 138.188C112.777 137.247 112.257 136.484 111.615 136.484C110.973 136.484 110.453 137.247 110.453 138.188C110.453 139.129 110.973 139.892 111.615 139.892Z" fill="white"/>
<path d="M111.615 140.124C110.833 140.124 110.221 139.274 110.221 138.188C110.221 137.102 110.833 136.252 111.615 136.252C112.397 136.252 113.009 137.102 113.009 138.188C113.009 139.274 112.397 140.124 111.615 140.124ZM111.615 136.717C111.111 136.717 110.685 137.39 110.685 138.188C110.685 138.985 111.111 139.659 111.615 139.659C112.119 139.659 112.545 138.985 112.545 138.188C112.545 137.39 112.119 136.717 111.615 136.717Z" fill="#1E3A59"/>
<path opacity="0.5" d="M144.63 232.39L55.2888 232.392L24.6816 117.787L174.939 119.096L144.63 232.39Z" fill="url(#paint0_linear_782_5786)"/>
<path d="M155.116 229.629C154.519 232.578 152.923 235.116 150.723 236.917C148.523 238.715 145.718 239.776 142.707 239.776H57.2171C51.1959 239.776 46.0055 235.531 44.8086 229.629H155.116Z" fill="#C6D3E3"/>
<path d="M142.706 240.009H57.2164C51.1086 240.009 45.794 235.663 44.5799 229.676L44.5234 229.397H155.399L155.342 229.676C154.755 232.581 153.166 235.217 150.869 237.098C148.571 238.975 145.672 240.009 142.706 240.009ZM45.0951 229.862C46.3716 235.489 51.4238 239.544 57.2164 239.544H142.706C145.565 239.544 148.36 238.547 150.575 236.738C152.716 234.985 154.218 232.552 154.827 229.862H45.0951Z" fill="#1E3A59"/>
<path d="M142.706 241.17H57.2159C50.557 241.17 44.7645 236.433 43.442 229.907C43.3586 229.497 43.4642 229.072 43.729 228.748C43.9939 228.424 44.3898 228.236 44.8084 228.236H155.114C155.533 228.236 155.929 228.424 156.194 228.748C156.459 229.072 156.564 229.497 156.481 229.908C155.158 236.433 149.365 241.17 142.706 241.17ZM46.6511 231.025C48.2649 235.374 52.4655 238.381 57.216 238.381H142.707C147.457 238.381 151.657 235.374 153.272 231.025H46.6511Z" fill="#1E3A59"/>
<g opacity="0.3">
<path d="M155.114 229.628C154.517 232.577 152.922 235.115 150.721 236.916C148.521 238.714 145.716 239.775 142.705 239.775H89.8262C98.5167 239.364 106.22 236.966 112.85 232.392C112.85 232.392 113.306 231.278 114.318 229.629L155.114 229.628Z" fill="#1E3A59"/>
</g>
<path d="M155.077 176.021L150.615 226.906C150.343 230.011 147.744 232.392 144.626 232.392H55.2869C52.1734 232.392 49.5741 230.011 49.2985 226.906L44.8402 176.021C44.4002 171.024 48.3403 166.722 53.3538 166.722H146.559C148.2 166.722 149.726 167.183 151.022 167.977C153.687 169.613 155.373 172.661 155.077 176.021Z" fill="#C6D3E3"/>
<path d="M144.627 232.624H55.288C52.0303 232.624 49.3561 230.174 49.0682 226.926L44.6098 176.041C44.3942 173.595 45.2225 171.152 46.8819 169.34C48.5408 167.528 50.9004 166.489 53.3549 166.489H146.56C148.183 166.489 149.768 166.935 151.144 167.778C154.008 169.537 155.604 172.704 155.31 176.041V176.041L150.847 226.926C150.563 230.174 147.889 232.624 144.627 232.624ZM53.3549 166.954C51.0301 166.954 48.7957 167.938 47.2246 169.654C45.6527 171.37 44.8685 173.683 45.0727 176.001L49.5311 226.885C49.7977 229.892 52.2727 232.159 55.2881 232.159H144.627C147.647 232.159 150.121 229.892 150.384 226.885L154.847 176C155.126 172.839 153.614 169.84 150.901 168.174C149.598 167.376 148.097 166.954 146.56 166.954L53.3549 166.954Z" fill="#1E3A59"/>
<path d="M73.8122 208.193L73.828 208.196C78.632 209.217 81.6783 213.823 80.6973 218.438L80.5863 218.96C79.6054 223.575 74.9491 226.544 70.1452 225.522L70.1294 225.519C65.3254 224.498 62.2791 219.892 63.26 215.277L63.371 214.755C64.352 210.14 69.0082 207.172 73.8122 208.193Z" fill="#232323" stroke="#1E3A59" stroke-width="2"/>
<path d="M75.8079 215.493C75.7748 215.518 75.7364 215.534 75.6969 215.539C75.6566 215.548 75.6151 215.546 75.5751 215.538L68.0127 213.93C67.7456 213.874 67.6796 213.511 67.9092 213.35L69.4316 212.295C69.4647 212.271 69.503 212.255 69.5466 212.246C69.5869 212.238 69.6284 212.239 69.6685 212.248L77.2609 213.862C77.5313 213.919 77.5932 214.285 77.3603 214.445L75.8079 215.493ZM74.5546 221.389C74.4858 221.434 74.4019 221.451 74.3218 221.434L66.7594 219.827C66.4923 219.77 66.4249 219.414 66.6531 219.26L68.169 218.235C68.2021 218.211 68.2438 218.195 68.2834 218.19C68.3237 218.181 68.3651 218.182 68.4052 218.191L75.9976 219.805C76.2681 219.862 76.3314 220.221 76.0999 220.374L74.5546 221.389ZM75.5517 216.698C75.507 216.63 75.4373 216.58 75.3572 216.563L67.7948 214.955C67.5277 214.899 67.3213 215.197 67.4671 215.43L68.4352 216.983C68.4555 217.019 68.4872 217.05 68.5211 217.071C68.5543 217.096 68.593 217.111 68.633 217.119L76.2255 218.733C76.4959 218.791 76.6997 218.488 76.5506 218.254L75.5517 216.698Z" fill="url(#paint1_linear_782_5786)"/>
<path d="M77.1249 182.702C78.3909 187.427 75.587 192.283 70.8622 193.549C66.1375 194.815 61.2811 192.011 60.0151 187.286C58.7491 182.562 61.5529 177.705 66.2777 176.439C71.0024 175.173 75.8589 177.977 77.1249 182.702Z" fill="#627EEA" stroke="#1E3A59" stroke-width="2"/>
<path d="M67.1094 178.632L68.3515 183.267L72.7386 183.968L67.1094 178.632Z" fill="white" fill-opacity="0.602"/>
<path d="M67.1099 178.632L64.9026 186.068L68.352 183.267L67.1099 178.632Z" fill="white"/>
<path d="M69.625 188.022L70.469 191.172L72.9362 184.698L69.625 188.022Z" fill="white" fill-opacity="0.602"/>
<path d="M70.4696 191.172L69.6255 188.022L65.0977 186.798L70.4696 191.172Z" fill="white"/>
<path d="M69.43 187.293L72.7384 183.968L68.3516 183.268L69.43 187.293Z" fill="white" fill-opacity="0.2"/>
<path d="M64.9024 186.068L69.4305 187.293L68.3521 183.268L64.9024 186.068Z" fill="white" fill-opacity="0.602"/>
<circle cx="131.522" cy="185.549" r="8.85668" transform="rotate(15 131.522 185.549)" fill="#E84142" stroke="#1E3A59" stroke-width="2"/>
<path d="M135.043 190.744L133.196 190.249C132.761 190.132 132.543 190.074 132.364 189.968C132.168 189.848 132.004 189.684 131.884 189.486C131.773 189.305 131.717 189.09 131.605 188.666L131.604 188.663L130.34 183.772C130.226 183.343 130.171 183.128 130.177 182.919C130.183 182.692 130.243 182.468 130.351 182.269C130.45 182.086 130.606 181.929 130.914 181.619L130.921 181.612L132.298 180.226C132.583 179.936 132.727 179.792 132.868 179.762C133.019 179.73 133.179 179.773 133.294 179.876C133.401 179.972 133.453 180.169 133.556 180.563L135.963 189.827C136.065 190.215 136.116 190.409 136.072 190.545C136.022 190.693 135.909 190.808 135.76 190.856C135.624 190.899 135.432 190.848 135.043 190.744Z" fill="white"/>
<path d="M125.882 188.289L128.53 188.998C128.92 189.103 129.117 189.156 129.251 189.112C129.4 189.064 129.514 188.946 129.563 188.799C129.607 188.664 129.555 188.471 129.451 188.085L129.449 188.076L128.735 185.454C128.63 185.067 128.577 184.875 128.472 184.779C128.357 184.675 128.2 184.633 128.049 184.666C127.911 184.695 127.775 184.829 127.504 185.094L127.482 185.115L125.52 187.057C125.251 187.325 125.114 187.461 125.085 187.597C125.052 187.748 125.094 187.907 125.199 188.023C125.295 188.132 125.491 188.184 125.882 188.289Z" fill="white"/>
<path d="M127.244 208.218C132.029 207.201 136.731 210.255 137.748 215.04C138.765 219.825 135.711 224.527 130.927 225.544C126.142 226.561 121.439 223.507 120.422 218.722C119.405 213.938 122.459 209.235 127.244 208.218Z" fill="#F0B90B" stroke="#1E3A59" stroke-width="2"/>
<path d="M125.325 217.712L125.802 219.928L127.921 220.636L128.197 221.934L124.839 220.817L124.09 217.297L125.325 217.712ZM124.853 215.495L125.128 216.787L123.893 216.371L123.618 215.08L124.577 214.197L125.818 214.612L124.853 215.495ZM127.392 214.278L128.351 213.395L129.591 213.81L128.627 214.693L127.392 214.278Z" fill="white"/>
<path d="M126.494 219.3L126.218 218.003L127.453 218.418L127.727 219.71L126.494 219.3ZM128.809 220.933L130.044 221.349L131.009 220.465L131.283 221.757L130.319 222.64L129.084 222.225L128.809 220.933ZM131.167 213.475L132.126 212.593L133.367 213.007L133.641 214.299L132.677 215.183L132.402 213.891L131.167 213.475ZM133.345 218.324L132.88 216.106L133.839 215.224L134.587 218.744L131.973 221.13L131.697 219.832L133.345 218.324Z" fill="white"/>
<path d="M132.459 218.032L131.498 218.909L131.224 217.617L132.183 216.735L132.459 218.032Z" fill="white"/>
<path d="M131.71 214.517L131.992 215.814L130.338 217.324L130.811 219.546L129.85 220.422L128.617 220.012L128.144 217.79L126.02 217.083L125.744 215.785L126.707 214.902L128.822 215.617L130.474 214.102L131.714 214.516L131.71 214.517ZM125.272 213.569L127.879 211.178L131.239 212.301L130.28 213.183L128.154 212.471L126.507 213.985L125.272 213.569Z" fill="white"/>
<g opacity="0.75">
<path d="M153.656 170.498C152.566 169.988 151.349 169.704 150.057 169.704H56.8517C51.8381 169.704 47.898 174.006 48.3381 179.003L52.7964 229.887C52.8664 230.681 53.0884 231.426 53.4339 232.096C51.1966 231.372 49.5185 229.365 49.3005 226.906L44.8422 176.021C44.4021 171.024 48.3422 166.722 53.3558 166.722H146.561C149.531 166.722 152.126 168.232 153.656 170.498Z" fill="white"/>
</g>
<path d="M144.63 233.785H55.2905C51.4231 233.785 48.2516 230.879 47.9135 227.027L43.4518 176.142C43.209 173.371 44.1469 170.606 46.0256 168.556C47.9042 166.505 50.5769 165.329 53.3578 165.329H146.563C149.344 165.329 152.017 166.505 153.895 168.556C155.774 170.606 156.712 173.371 156.469 176.142L152.007 227.026C151.67 230.879 148.498 233.785 144.63 233.785ZM53.3578 168.118C51.3273 168.118 49.4535 168.942 48.0817 170.439C46.7102 171.937 46.0523 173.875 46.2298 175.898L50.6915 226.783C50.9025 229.185 52.8795 230.996 55.2905 230.996H144.63C147.042 230.996 149.019 229.185 149.229 226.783L153.691 175.898C153.869 173.875 153.211 171.937 151.839 170.439C150.467 168.942 148.594 168.118 146.563 168.118H53.3578Z" fill="#1E3A59"/>
<g opacity="0.3">
<path d="M155.081 176.022L150.619 226.906C150.347 230.011 147.748 232.392 144.63 232.392H64.043C113.632 228.489 144.314 208.456 151.009 167.973L151.026 167.977C153.691 169.614 155.377 172.661 155.081 176.022Z" fill="#1E3A59"/>
</g>
<path fill-rule="evenodd" clip-rule="evenodd" d="M107.686 210.806L106.663 211.627L106.541 214.221C106.508 214.919 105.885 215.465 105.149 215.446L105.143 215.446C104.407 215.426 103.829 214.849 103.851 214.152L103.887 213.055C103.893 212.84 103.716 212.662 103.491 212.656C103.266 212.65 103.078 212.82 103.072 213.034L103.042 214.131C103.023 214.828 102.412 215.374 101.678 215.355C100.944 215.336 100.357 214.759 100.366 214.062L100.377 213.146C100.381 212.833 100.118 212.571 99.7887 212.563C99.4598 212.555 99.1918 212.803 99.1899 213.116L99.1845 214.032C99.1804 214.729 98.5835 215.274 97.8516 215.255C97.1202 215.236 96.5224 214.66 96.5162 213.964L96.5063 212.868C96.5044 212.654 96.3212 212.476 96.0971 212.471C95.8731 212.465 95.6939 212.634 95.6968 212.848L95.7116 213.943C95.721 214.639 95.1366 215.184 94.4067 215.165L94.4007 215.165C93.6712 215.146 93.0641 214.57 93.0444 213.875L92.9709 211.29L91.9752 210.424C89.3893 208.179 87.7733 204.934 87.5822 201.472C87.1882 194.331 92.7375 188.204 100.013 188.318C107.329 188.433 112.849 194.796 112.313 201.989C112.054 205.474 110.35 208.671 107.686 210.806Z" fill="white"/>
<path d="M99.8115 188.317C99.8781 188.316 99.9446 188.317 100.012 188.318C107.327 188.433 112.848 194.796 112.312 201.989C112.053 205.474 110.348 208.671 107.685 210.807L106.663 211.627L106.54 214.221C106.508 214.907 105.905 215.446 105.185 215.446C105.173 215.446 105.16 215.446 105.148 215.446L105.142 215.446C104.406 215.427 103.828 214.849 103.851 214.152L103.886 213.055C103.892 212.84 103.715 212.662 103.49 212.656H103.49C103.486 212.656 103.483 212.656 103.479 212.656C103.259 212.656 103.077 212.824 103.071 213.034L103.041 214.131C103.022 214.817 102.432 215.356 101.715 215.356C101.702 215.356 101.69 215.356 101.677 215.355C100.944 215.336 100.356 214.759 100.365 214.062L100.377 213.146C100.38 212.833 100.117 212.572 99.7877 212.563C99.7823 212.563 99.7768 212.563 99.7714 212.563C99.45 212.563 99.191 212.808 99.1893 213.116L99.1839 214.032C99.1797 214.717 98.603 215.256 97.8886 215.256C97.8761 215.256 97.8635 215.256 97.8509 215.255C97.1194 215.236 96.5217 214.66 96.5155 213.964L96.5054 212.869C96.5034 212.655 96.3205 212.476 96.0962 212.471C96.0928 212.471 96.0891 212.471 96.0857 212.471C95.8668 212.471 95.6932 212.638 95.6961 212.848L95.7107 213.943C95.7203 214.627 95.1554 215.166 94.4431 215.166C94.4306 215.166 94.4184 215.166 94.4058 215.165L94.4 215.165C93.6701 215.146 93.0632 214.571 93.0436 213.875L92.97 211.29L91.9744 210.425C89.3884 208.179 87.7725 204.935 87.5813 201.473C87.191 194.397 92.635 188.317 99.8115 188.317ZM99.8115 186.063C95.8064 186.063 92.0896 187.66 89.346 190.56C86.5696 193.494 85.1061 197.516 85.3312 201.597C85.5539 205.631 87.4367 209.469 90.4965 212.126L90.7455 212.342L90.791 213.939C90.8446 215.839 92.4039 217.367 94.3413 217.418C94.3793 217.419 94.4111 217.419 94.443 217.419C95.0205 217.419 95.5742 217.286 96.0689 217.034C96.5766 217.321 97.1634 217.491 97.7923 217.508C97.8241 217.509 97.8563 217.509 97.8885 217.509C98.5552 217.509 99.1805 217.327 99.715 217.01C100.262 217.371 100.916 217.589 101.618 217.608C101.651 217.609 101.683 217.609 101.715 217.609C102.312 217.609 102.873 217.469 103.366 217.22C103.881 217.517 104.467 217.682 105.084 217.698C105.121 217.699 105.153 217.7 105.185 217.7C107.119 217.7 108.702 216.218 108.791 214.326L108.866 212.749L109.096 212.564C112.265 210.023 114.256 206.229 114.56 202.156C114.867 198.024 113.444 193.904 110.655 190.852C107.893 187.829 104.125 186.129 100.047 186.065C99.9681 186.064 99.8902 186.063 99.8115 186.063Z" fill="#1E3A59"/>
<path fill-rule="evenodd" clip-rule="evenodd" d="M95.0915 198.526C93.1565 198.516 91.6669 200.098 91.7621 202.034C91.8553 203.928 93.4477 205.452 95.3212 205.466C97.197 205.48 98.6947 203.976 98.6625 202.078C98.6297 200.137 97.029 198.536 95.0915 198.526Z" fill="#1E3A59"/>
<path fill-rule="evenodd" clip-rule="evenodd" d="M104.748 198.428C102.798 198.418 101.21 200.006 101.201 201.949C101.192 203.85 102.715 205.379 104.603 205.393C106.494 205.407 108.085 203.898 108.156 201.992C108.228 200.045 106.702 198.438 104.748 198.428Z" fill="#1E3A59"/>
<defs>
<linearGradient id="paint0_linear_782_5786" x1="99.8112" y1="118.308" x2="99.0168" y2="232.696" gradientUnits="userSpaceOnUse">
<stop stop-color="#40E6FF"/>
<stop offset="1" stop-color="#40E6FF"/>
</linearGradient>
<linearGradient id="paint1_linear_782_5786" x1="67.0125" y1="219.983" x2="76.9835" y2="213.696" gradientUnits="userSpaceOnUse">
<stop stop-color="#CF41E8"/>
<stop offset="1" stop-color="#10F2B0"/>
</linearGradient>
</defs>
</svg>
