<svg width="200" height="250" viewBox="0 0 200 250" fill="none" xmlns="http://www.w3.org/2000/svg">
<g opacity="0.2">
<path d="M104.587 250C140.394 250 169.421 246.366 169.421 241.883C169.421 237.399 140.394 233.765 104.587 233.765C68.7806 233.765 39.7534 237.399 39.7534 241.883C39.7534 246.366 68.7806 250 104.587 250Z" fill="#1E3A59"/>
</g>
<path d="M63.6733 183.057L42.6058 132.939C39.5143 125.585 42.9701 117.116 50.3245 114.025L78.0849 102.356C85.4393 99.2641 93.9074 102.72 96.9989 110.074L118.066 160.192C121.158 167.547 117.702 176.015 110.348 179.106L82.5874 190.776C75.2329 193.867 66.7649 190.411 63.6733 183.057Z" fill="white"/>
<path d="M163.152 107.916C162.451 107.828 161.721 107.717 160.964 107.577L156.282 102.859L153.903 100.46C152.588 97.1481 152.313 91.5331 153.516 86.7191C154.995 80.7853 158.717 76.063 165.499 78.3584C165.499 78.3584 173.083 73.5445 177.438 80.5383C177.929 81.3273 178.419 82.3356 178.861 83.5032C182.241 92.398 183.069 110.391 163.152 107.916Z" fill="white"/>
<path d="M166.63 109.735C164.86 109.735 162.883 109.554 160.675 109.146C160.355 109.087 160.061 108.931 159.833 108.701L152.772 101.582C152.62 101.429 152.501 101.248 152.422 101.048C150.296 95.6923 150.491 84.4565 155.635 79.0393C157.42 77.1595 160.526 75.2711 165.32 76.633C166.659 75.9424 169.791 74.6252 173.063 75.372C175.412 75.9074 177.34 77.3623 178.793 79.6966C181.575 84.1637 184.775 96.226 179.566 103.866C177.621 106.721 173.854 109.735 166.63 109.735ZM161.741 106.097C169.135 107.368 174.244 106.014 176.932 102.071C181.062 96.0115 178.577 85.3812 176.087 81.3817C175.086 79.7735 173.865 78.8245 172.355 78.4801C169.438 77.816 166.384 79.6844 166.354 79.7036C165.947 79.9619 165.445 80.0223 164.989 79.8678C162.064 78.8787 159.76 79.3252 157.947 81.2346C153.958 85.4346 153.602 94.9328 155.274 99.5778L161.741 106.097Z" fill="#1E3A59"/>
<path d="M165.565 76.7069C169.749 78.3047 173.814 81.9049 173.753 86.7231C173.721 87.6534 173.447 88.6542 172.903 89.4393C172.567 89.9666 172.063 90.4272 171.56 90.7896C169.68 92.1457 167.132 91.0974 165.583 89.9038C164.712 89.2597 163.953 88.5663 163.224 87.7568C162.943 87.4452 162.968 86.9649 163.279 86.6841C163.587 86.4056 164.059 86.4305 164.34 86.726C165 87.364 165.775 87.9826 166.557 88.4758C167.807 89.2221 169.423 90.0403 170.544 88.9009C170.678 88.8059 170.799 88.6135 170.909 88.4941C170.978 88.3865 171.043 88.2607 171.114 88.1539C171.682 86.9243 171.335 85.5654 170.724 84.3543C169.496 82.0091 167.048 80.5364 164.585 79.7405C162.502 79.0792 163.48 76.025 165.565 76.7069Z" fill="#1E3A59"/>
<path d="M169.027 90.2374C169.263 93.4885 169.914 97.9998 172.645 100.039C173.376 100.523 174.253 100.686 175.107 100.63C178.044 100.387 178.796 96.7838 179.064 94.3045C179.109 93.8354 179.139 93.2768 179.132 92.8293C179.144 90.7239 182.207 90.6442 182.322 92.753C182.084 97.8227 179.472 104.523 173.2 102.707C169.43 101.514 168.268 97.1396 167.857 93.6538C167.732 92.5121 167.673 91.3949 167.701 90.2281C167.71 89.862 168.013 89.5724 168.38 89.581C168.739 89.5887 169.024 89.8839 169.027 90.2374Z" fill="#0A2440"/>
<path d="M77.0111 193.343C70.8048 193.343 64.8986 189.685 62.3468 183.614L41.2792 133.497C37.8852 125.422 41.6928 116.092 49.767 112.698L77.5274 101.029C81.4387 99.3847 85.7564 99.362 89.6841 100.965C93.6125 102.568 96.6814 105.605 98.3254 109.516L119.393 159.634C122.787 167.708 118.98 177.039 110.906 180.433L83.1451 192.102C81.1416 192.944 79.0597 193.343 77.0111 193.343ZM64.9999 182.499C67.7792 189.11 75.4183 192.227 82.0298 189.449L109.79 177.78C116.401 175 119.519 167.361 116.74 160.75L95.6724 110.632C94.3263 107.429 91.8133 104.943 88.5968 103.63C85.3803 102.317 81.8448 102.336 78.6428 103.682L50.8824 115.352C44.2712 118.131 41.1534 125.77 43.9324 132.381L64.9999 182.499Z" fill="#1E3A59"/>
<path d="M183.914 166.999C182.775 167.481 181.559 167.867 180.26 168.15L178.128 162.607L173.314 150.098C173.314 150.098 176.247 144.435 180.467 139.466C183.775 135.572 187.867 132.101 191.964 132.101C193.749 132.101 195.184 133.257 196.188 135.154C200.122 142.558 197.543 161.276 183.914 166.999Z" fill="white"/>
<path d="M79.6048 241.376C79.0908 240.145 78.9633 238.909 79.1267 237.694C79.5969 234.167 82.506 230.816 85.4749 228.241C85.4828 228.229 85.4948 228.222 85.5028 228.214C88.894 225.281 92.3531 223.36 92.3531 223.36L114.821 225.878C115.578 226.799 116.1 227.695 116.419 228.568C120.95 241.105 82.6016 248.537 79.6048 241.376Z" fill="white"/>
<path d="M88.1293 245.765C87.8093 245.765 87.4955 245.76 87.1881 245.751C82.1611 245.602 79.1144 244.337 78.1336 241.991C73.9153 231.904 90.8585 222.366 91.5817 221.965C91.8716 221.804 92.2018 221.738 92.5327 221.775L114.998 224.294C115.409 224.341 115.786 224.545 116.05 224.864C119.151 228.625 118.598 231.872 117.588 233.934C113.955 241.349 98.108 245.765 88.1293 245.765ZM92.692 225.001C88.227 227.593 78.5684 234.767 81.0748 240.761C81.4162 241.577 83.4681 242.451 87.2829 242.564C97.2786 242.863 111.904 238.289 114.725 232.531C115.533 230.882 115.288 229.194 113.974 227.388L92.692 225.001Z" fill="#1E3A59"/>
<path d="M180.259 169.744C179.611 169.744 179.012 169.348 178.772 168.722L171.825 150.671C171.661 150.245 171.687 149.77 171.897 149.365C172.295 148.595 181.783 130.507 191.965 130.507C195.83 130.507 198.644 134.342 199.31 140.515C200.407 150.704 195.327 166.497 180.599 169.707C180.485 169.732 180.371 169.744 180.259 169.744ZM175.061 150.204L181.239 166.257C193.021 162.828 197.076 149.547 196.14 140.857C195.671 136.506 194.032 133.695 191.965 133.695C185.399 133.695 177.852 145.065 175.061 150.204Z" fill="#1E3A59"/>
<path d="M183.914 166.999C183.775 168.888 183.54 170.804 183.189 172.733C183.189 172.733 181.798 172.976 179.459 173.395C168.412 175.363 136.241 181.213 129.737 183.716C129.737 183.716 125.453 188.279 122.536 201.175C121.034 207.834 119.89 216.712 119.89 228.329C119.89 228.329 118.579 228.437 116.419 228.568C109.68 228.987 94.6685 229.668 85.5028 228.213C85.2438 228.17 84.9848 228.13 84.7337 228.082C84.7138 228.082 84.7059 228.078 84.7059 228.078L84.67 224.36L84.4468 201.856L84.3313 190.148L76.9071 189.877L78.2819 177.599L74.5758 166.732C74.5758 166.732 57.5715 170.94 47.8559 164.604C44.5842 162.471 41.42 156.805 40.7863 149.647C39.9574 140.378 43.3726 128.602 56.2963 118.743C59.034 116.651 62.1982 114.651 65.8406 112.774C73.6075 108.773 98.311 104.349 122.437 96.9807C133.017 93.7488 143.486 89.951 152.369 85.3761C152.369 85.3761 152.807 85.8384 153.516 86.7191C154.724 88.2294 156.72 90.9671 158.637 94.6932C160.474 98.2638 162.236 102.743 163.152 107.916C163.419 109.426 163.618 110.996 163.722 112.622C163.722 112.622 147.782 121.242 136.855 123.784C136.855 123.784 142.784 136.612 142.035 145.515C142.035 145.515 149.352 148.834 179.838 137.636C179.838 137.636 180.089 138.286 180.467 139.466C180.882 140.753 181.448 142.669 182.01 145.065C182.368 146.575 182.723 148.281 183.034 150.13C183.851 154.972 184.384 160.83 183.914 166.999Z" fill="white"/>
<g opacity="0.2">
<path d="M178.768 83.5033C180.541 91.4655 177.516 98.2999 174.452 96.0284C171.678 93.9721 172.487 87.7913 171.634 83.5033C170.965 87.9825 167.095 87.4405 163.688 87.2413C163.688 87.2413 166.442 97.7659 158.543 94.6934C158.543 94.6934 158.181 98.4951 156.188 102.859C155.232 104.951 153.901 107.175 152.056 109.167C150.41 110.945 147.445 109.442 147.955 107.071C148.417 104.915 148.744 102.373 148.64 99.6508C148.64 99.6508 145.671 110.705 138.367 112.367C131.768 113.866 129.604 112.136 129.249 111.793C129.396 111.977 129.819 112.499 130.102 112.853C129.452 112.291 143.384 142.789 120.566 152.848C101.449 161.276 75.0201 139.378 66.5996 131.703C65.6711 130.854 64.1887 131.492 64.1408 132.747C63.9973 136.616 62.4751 142.299 54.8994 142.921L66.4919 142.662C66.4919 142.662 68.5801 160.332 59.6854 161.121C50.7907 161.914 49.0692 158.897 49.0692 158.897C49.0692 158.897 54.8078 155.936 57.3901 151.465C57.3901 151.465 46.2757 159.331 40.7842 148.141L40.6926 149.648C41.3263 156.805 44.4904 162.472 47.7622 164.604C57.4778 170.94 74.4821 166.732 74.4821 166.732L78.1882 177.599L76.8134 189.877L84.2376 190.148C84.2376 190.148 138.455 186.705 150.063 146.882C142.201 156.394 137.371 159.702 137.06 159.909C140.336 156.777 143.213 150.014 144.739 145.95C142.699 145.858 141.942 145.515 141.942 145.515C142.691 136.612 136.761 123.784 136.761 123.784C147.688 121.242 163.628 112.622 163.628 112.622C163.525 110.996 163.326 109.426 163.059 107.916C182.976 110.391 182.147 92.398 178.768 83.5033ZM111.79 179.069C106.465 182.597 98.132 184.513 92.4483 185.471C89.401 185.984 86.7561 183.346 87.2534 180.296L87.9357 176.113C96.4917 175.188 116.325 169.669 116.325 169.669L111.79 179.069Z" fill="#1E3A59"/>
</g>
<g opacity="0.2">
<path d="M183.914 166.999C183.775 168.888 183.54 170.804 183.189 172.733C183.189 172.733 137.616 180.683 129.737 183.716C129.737 183.716 119.89 194.213 119.89 228.329C119.89 228.329 118.579 228.437 116.419 228.568C120.95 241.105 82.6017 248.537 79.6048 241.376C79.0908 240.145 78.9633 238.91 79.1267 237.694C90.4562 243.576 112.378 228.791 112.378 228.791C102.224 231.306 88.7984 228.907 85.4749 228.242C85.0684 228.158 84.8133 228.102 84.7337 228.082C84.7138 228.082 84.7058 228.078 84.7058 228.078L83.7693 224.464C83.7693 224.464 84.0921 224.432 84.6699 224.36C88.8383 223.862 106.293 221.507 110.665 216.717C113.832 213.245 115.21 205.351 115.794 200.075C115.922 198.918 114.426 198.363 113.76 199.318C108.801 206.428 100.191 212.072 99.8889 212.122C100.14 211.935 106.584 207.025 108.485 195.771C110.422 184.294 126.633 162.488 142.322 163.046C157.776 163.596 166.48 159.037 166.735 158.901C164.89 163.352 159.579 166.786 154.959 169.041C153.942 169.537 154.426 171.073 155.542 170.885C161.058 169.958 168.077 168.586 172.581 166.995C174.872 166.186 176.693 164.552 178.128 162.607C181.93 157.459 183.03 150.126 183.03 150.126C183.03 150.126 183.034 150.126 183.034 150.13C193.112 156.817 195.599 143.483 196.188 135.154C200.122 142.558 197.543 161.276 183.914 166.999Z" fill="#1E3A59"/>
</g>
<path d="M100.487 230.544C94.7677 230.544 88.872 230.29 84.4505 229.494L83.2782 229.283L82.9056 191.536L75.3042 191.259L76.8158 177.759L73.6286 168.414C69.3646 169.28 55.709 171.443 47.0692 165.809C42.8146 163.033 38.7683 155.139 39.2669 145.421C39.6714 137.527 43.5766 122.622 65.1815 111.494C65.4362 111.365 65.6964 111.239 65.9739 111.108C68.8025 109.808 73.15 108.452 80.9894 106.423C83.969 105.655 87.2163 104.851 90.6542 103.999C96.2655 102.609 102.626 101.033 109.067 99.3012C112.216 98.453 115.005 97.6735 117.594 96.9185C131.838 92.7777 142.996 88.5839 151.709 84.097L152.671 83.6019L153.414 84.3874C153.849 84.8472 164.072 95.8359 165.158 112.529L165.218 113.449L164.406 113.888C163.781 114.226 149.681 121.816 138.85 124.764C140.341 128.331 143.691 137.184 143.534 144.384C146.311 144.768 155.798 144.934 179.341 136.286L180.672 135.797L181.181 137.12C181.456 137.837 187.895 154.889 184.604 172.991L184.425 173.979L183.436 174.151C182.988 174.229 139.158 181.894 130.595 184.933C129.254 186.642 121.329 198.033 121.329 228.329V229.656L120.006 229.763C119.403 229.812 110.199 230.544 100.487 230.544ZM86.1326 226.854C96.3061 228.372 113.577 227.331 118.456 226.991C118.707 193.755 128.275 183.171 128.687 182.731L128.913 182.491L129.22 182.373C136.578 179.54 175.039 172.705 181.942 171.491C184.223 157.361 180.342 143.719 178.957 139.489C149.922 149.981 142.232 147.185 141.44 146.826L140.516 146.406L140.601 145.394C141.31 136.968 135.606 124.513 135.548 124.388L134.806 122.783L136.528 122.383C145.744 120.239 158.831 113.564 162.215 111.792C161.097 99.0953 154.241 89.8615 152.017 87.1691C143.293 91.5479 132.279 95.6463 118.399 99.6816C115.792 100.442 112.984 101.227 109.816 102.08C103.345 103.82 96.9709 105.399 91.3466 106.793C87.9152 107.643 84.674 108.446 81.7093 109.21C76.3757 110.59 70.4778 112.205 67.1869 113.718C66.9489 113.83 66.7148 113.943 66.4928 114.056C46.1752 124.521 42.5143 138.292 42.1412 145.569C41.7033 154.109 45.1637 161.129 48.6417 163.398C57.7129 169.314 74.0662 165.375 74.2305 165.334L75.5113 165.019L79.7474 177.439L78.5094 188.495L85.7566 188.76L86.1326 226.854Z" fill="#1E3A59"/>
<path d="M84.3298 191.742C83.4956 191.742 82.7947 191.093 82.7406 190.25C82.6847 189.371 83.3512 188.613 84.2296 188.557C84.3661 188.549 98.0543 187.613 112.84 181.756C132.451 173.987 144.603 161.706 148.958 145.255C149.184 144.404 150.058 143.896 150.907 144.122C151.758 144.347 152.266 145.22 152.04 146.071C149.486 155.718 144.31 164.132 136.656 171.079C130.575 176.597 122.93 181.197 113.933 184.752C98.6886 190.775 85.0073 191.702 84.4325 191.739C84.398 191.741 84.3635 191.742 84.3298 191.742Z" fill="#1E3A59"/>
<path d="M142.321 145.115C142.321 145.115 134.832 172.896 78.29 177.13L74.875 168.593C74.875 168.593 117.721 166.012 142.321 145.115Z" fill="#7A8CA1"/>
<g opacity="0.2">
<path d="M142.322 145.117C142.322 145.117 134.834 172.897 78.2897 177.129L74.8745 168.593C74.8745 168.593 76.3968 168.501 79.0309 168.214L79.396 169.127C80.0249 170.699 81.6135 171.678 83.3 171.524C120.522 168.116 135.504 154.278 141.218 146.029C141.593 145.73 141.959 145.424 142.322 145.117Z" fill="#1E3A59"/>
</g>
<path d="M78.2893 178.724C77.642 178.724 77.0535 178.331 76.81 177.722L73.395 169.185C73.2049 168.71 73.2546 168.172 73.5289 167.739C73.8029 167.307 74.268 167.033 74.7789 167.002C75.2023 166.976 117.387 164.203 141.289 143.9C141.821 143.448 142.585 143.395 143.174 143.768C143.764 144.142 144.042 144.856 143.86 145.53C143.778 145.833 141.751 153.049 132.531 160.758C124.195 167.727 108.039 176.501 78.4091 178.72C78.3692 178.723 78.3293 178.724 78.2893 178.724ZM77.158 170.008L79.3346 175.449C116.828 172.388 131.883 158.752 137.581 150.703C125.433 158.943 110.683 163.656 99.7393 166.241C89.4769 168.666 80.9928 169.652 77.158 170.008Z" fill="#1E3A59"/>
<path d="M127.602 109.037C131.887 112.931 135.49 117.597 138.114 122.769C138.295 123.128 138.457 123.467 138.637 123.882C139.415 125.841 136.606 127.064 135.706 125.151C134.3 120.94 132.144 116.962 129.54 113.362C128.676 112.148 127.719 111.004 126.738 109.874C126.255 109.307 127.043 108.532 127.602 109.037Z" fill="#1E3A59"/>
<path d="M127.968 183.376C130.07 180.937 132.268 178.64 134.811 176.656C135.427 176.189 136.2 177.012 135.699 177.596C133.731 179.898 132.073 182.532 130.602 185.172C129.392 187.169 126.55 185.237 127.968 183.376Z" fill="#1E3A59"/>
<path d="M117.065 124.45C117.021 124.733 116.981 125.012 116.937 125.283C116.774 126.323 116.606 127.291 116.443 128.192C115.598 132.747 114.801 135.425 114.801 135.425C99.104 120.887 77.0027 114.663 66.5857 112.411C68.5584 111.506 71.3598 110.574 74.791 109.59C76.7795 109.02 78.9793 108.43 81.3504 107.816C98.5978 113.3 109.561 120.333 109.561 120.333C109.585 119.963 109.609 119.592 109.632 119.23C110.119 111.096 109.848 104.911 109.441 100.691C111.466 100.145 113.51 99.5831 115.558 98.9973C116.371 98.7702 117.184 98.5391 117.997 98.2999C118.846 108.545 118.065 117.763 117.065 124.45Z" fill="#7A8CA1"/>
<g opacity="0.6">
<path d="M117.065 124.45C117.021 124.733 116.981 125.012 116.937 125.283L114.291 123.577C115.483 117.281 115.602 105.573 115.558 98.9973C116.371 98.7702 117.184 98.5391 117.997 98.2999C118.846 108.545 118.065 117.763 117.065 124.45Z" fill="white"/>
</g>
<g opacity="0.6">
<path d="M117.064 124.45C116.861 125.805 116.65 127.056 116.443 128.192C109.517 123.573 94.6524 114.822 74.7908 109.59C76.7793 109.02 78.9791 108.43 81.3502 107.816C98.5976 113.3 109.561 120.333 109.561 120.333C109.585 119.963 109.608 119.592 109.632 119.23L117.064 124.45Z" fill="white"/>
</g>
<path d="M114.801 137.019C114.404 137.019 114.016 136.871 113.718 136.594C98.5644 122.56 77.4729 116.395 66.249 113.969C65.5785 113.824 65.076 113.266 65.0012 112.584C64.9265 111.903 65.2966 111.249 65.9199 110.963C68.7471 109.663 73.1018 108.304 80.9506 106.273C81.2416 106.198 81.5471 106.206 81.833 106.297C94.7009 110.388 104.026 115.277 108.122 117.619C108.498 110.055 108.197 104.389 107.854 100.844C107.78 100.07 108.275 99.3542 109.026 99.1518C112.175 98.3037 114.963 97.5243 117.551 96.7696C118.01 96.6357 118.505 96.7152 118.9 96.9862C119.295 97.2575 119.546 97.6914 119.586 98.1683C121.3 118.884 116.532 135.196 116.328 135.88C116.171 136.408 115.753 136.817 115.222 136.962C115.083 137 114.941 137.019 114.801 137.019ZM72.0703 112.074C83.5964 115.049 100.564 121.046 113.907 132.493C115.101 127.411 117.481 115.044 116.55 100.376C114.855 100.861 113.067 101.358 111.147 101.881C111.594 107.406 111.597 113.788 111.151 120.44C111.114 121.002 110.781 121.503 110.279 121.756C109.775 122.01 109.175 121.979 108.701 121.675C108.593 121.606 97.8773 114.803 81.3041 109.475C78.1768 110.287 74.8892 111.176 72.0703 112.074Z" fill="#1E3A59"/>
<path d="M116.903 127.093C116.525 127.093 116.146 126.959 115.842 126.688C112.96 124.113 108.554 121.579 108.509 121.554C107.746 121.116 107.481 120.142 107.918 119.378C108.356 118.614 109.33 118.349 110.093 118.787C110.285 118.897 114.831 121.51 117.966 124.31C118.622 124.896 118.679 125.904 118.093 126.561C117.778 126.913 117.341 127.093 116.903 127.093Z" fill="#1E3A59"/>
<path d="M89.1247 161.617L82.2711 141.798C81.5337 139.665 82.6646 137.339 84.7971 136.602L122.646 123.513C124.779 122.776 127.105 123.907 127.843 126.039L134.696 145.859C135.434 147.991 134.303 150.318 132.17 151.055L94.3212 164.143C92.1887 164.881 89.8621 163.75 89.1247 161.617Z" fill="white"/>
<g opacity="0.2">
<path d="M132.172 151.054L94.3218 164.141C92.1897 164.883 89.8625 163.751 89.1253 161.619L82.2709 141.797C81.5337 139.665 82.6655 137.338 84.7975 136.601L87.858 135.541L93.744 152.557C94.4812 154.689 96.8085 155.821 98.9405 155.083L133.726 143.052L134.695 145.858C135.432 147.99 134.304 150.317 132.172 151.054Z" fill="#0A2440"/>
</g>
<path d="M132.709 140.116L128.932 129.194L133.746 127.529C136.762 126.486 140.053 128.085 141.096 131.102C142.139 134.118 140.539 137.408 137.523 138.451L132.709 140.116Z" fill="white"/>
<g opacity="0.2">
<path d="M141.413 132.994C141.413 135.389 139.915 137.625 137.524 138.45L132.71 140.115L128.932 129.192L129.016 129.164L130.953 134.767L135.767 133.102C137.783 132.404 139.17 130.703 139.552 128.746C140.23 129.368 140.772 130.165 141.095 131.101C141.31 131.727 141.413 132.364 141.413 132.994Z" fill="#1E3A59"/>
</g>
<path d="M92.9811 166.01C92.1255 166.01 91.2751 165.816 90.483 165.431C89.1075 164.763 88.0749 163.599 87.5749 162.153L80.7213 142.334C79.6901 139.351 81.2779 136.084 84.2611 135.052L122.11 121.964C123.556 121.464 125.109 121.557 126.484 122.225C127.86 122.894 128.892 124.058 129.392 125.504L136.246 145.323C137.278 148.306 135.689 151.573 132.706 152.605L94.8568 165.693C94.2438 165.905 93.6114 166.01 92.9811 166.01ZM90.6742 161.081C90.8876 161.699 91.3291 162.196 91.9166 162.482C92.504 162.768 93.1676 162.807 93.7851 162.594L131.634 149.505C132.909 149.065 133.588 147.669 133.147 146.395L126.293 126.575C126.08 125.958 125.638 125.46 125.051 125.175C124.463 124.889 123.8 124.849 123.182 125.063L85.333 138.151C84.0584 138.592 83.3799 139.987 83.8207 141.262L90.6742 161.081Z" fill="#1E3A59"/>
<path d="M99.7349 163.548C98.8985 163.548 98.0666 163.358 97.2923 162.982C95.9472 162.328 94.9376 161.189 94.4488 159.776L87.5952 139.957C87.1061 138.543 87.1972 137.024 87.851 135.679C88.5048 134.334 89.6434 133.324 91.0566 132.835L122.15 122.083C123.564 121.594 125.083 121.685 126.428 122.339C127.773 122.993 128.783 124.131 129.272 125.545L136.125 145.364C136.614 146.777 136.523 148.297 135.869 149.641C135.215 150.986 134.077 151.996 132.663 152.485L101.57 163.237C100.97 163.445 100.351 163.548 99.7349 163.548ZM123.982 124.801C123.699 124.801 123.415 124.848 123.139 124.943L92.0458 135.696C91.3963 135.92 90.8731 136.384 90.5727 137.002C90.2722 137.62 90.2306 138.318 90.4551 138.968L97.3086 158.787C97.5332 159.437 97.9973 159.959 98.6152 160.26C99.2331 160.561 99.9312 160.602 100.581 160.377L131.674 149.625C132.324 149.401 132.847 148.936 133.147 148.318C133.448 147.7 133.49 147.003 133.265 146.353L126.411 126.534C126.187 125.884 125.723 125.361 125.105 125.061C124.749 124.888 124.367 124.801 123.982 124.801Z" fill="#1E3A59"/>
<path d="M117.416 157.425C116.821 157.426 116.257 157.073 116.016 156.489L111.947 146.623L103.057 143.062C102.655 142.901 102.341 142.576 102.195 142.169L98.458 131.762C98.1757 130.976 98.5843 130.109 99.3706 129.826C100.158 129.545 101.024 129.952 101.306 130.739L104.813 140.506L113.665 144.051C114.044 144.203 114.346 144.502 114.501 144.879L118.814 155.335C119.133 156.108 118.764 156.992 117.992 157.311C117.803 157.389 117.608 157.425 117.416 157.425Z" fill="#1E3A59"/>
<path d="M132.709 141.748C132.032 141.748 131.4 141.325 131.166 140.649L127.389 129.727C127.095 128.875 127.546 127.945 128.399 127.65L133.212 125.986C135.083 125.339 137.094 125.459 138.875 126.324C140.655 127.19 141.992 128.697 142.639 130.568C143.285 132.439 143.165 134.449 142.3 136.23C141.434 138.01 139.927 139.347 138.057 139.994L133.243 141.658C133.066 141.719 132.886 141.748 132.709 141.748ZM131.009 130.203L133.719 138.038L136.989 136.908C139.15 136.16 140.299 133.795 139.552 131.635C138.805 129.475 136.442 128.325 134.279 129.072L131.009 130.203Z" fill="#1E3A59"/>
<path d="M125.243 139.39C125.825 136.927 124.3 134.459 121.837 133.877C119.373 133.296 116.905 134.821 116.323 137.284C115.742 139.747 117.267 142.216 119.73 142.797C122.193 143.379 124.662 141.854 125.243 139.39Z" fill="#00AAFF"/>
<path d="M120.784 144.499C117.378 144.499 114.607 141.728 114.607 138.322C114.607 134.916 117.378 132.145 120.784 132.145C124.19 132.145 126.961 134.916 126.961 138.322C126.961 141.728 124.19 144.499 120.784 144.499ZM120.784 135.333C119.136 135.333 117.795 136.674 117.795 138.322C117.795 139.97 119.136 141.311 120.784 141.311C122.432 141.311 123.773 139.97 123.773 138.322C123.773 136.674 122.432 135.333 120.784 135.333Z" fill="#1E3A59"/>
<path d="M90.767 148.89C90.7272 150.775 90.4203 152.836 89.7309 155.035C86.8895 164.09 73.2248 162.121 73.2248 162.121L74.6195 166.859C74.6195 166.859 73.8186 166.995 72.4875 167.166C72.4755 167.166 72.4596 167.17 72.4477 167.17C68.9009 167.632 61.66 168.35 55.7302 167.533L54.6542 161.141L53.7496 155.753L53.3671 153.469L51.7292 143.73L54.993 142.921H55.001L65.8563 140.235C65.8563 140.235 67.7253 136.975 70.1841 134.767C71.4394 133.644 72.8461 132.795 74.2329 132.795C78.3416 132.795 77.8673 137.445 77.8673 137.445C77.8673 137.445 84.0323 135.497 86.6186 137.485C88.384 138.844 90.8865 143.016 90.767 148.89Z" fill="white"/>
<path d="M51.4809 142.723L65.475 138.688C65.4754 138.687 64.4724 139.446 64.4754 139.441C66.6804 135.892 70.7196 130.208 75.6107 131.366C77.9091 131.837 79.249 133.994 79.4281 136.125C79.4811 136.614 79.4944 137.114 79.4535 137.606L77.3871 135.924C80.176 135.151 83.1347 134.574 86.0026 135.401C87.1082 135.766 88.0395 136.493 88.7797 137.388C92.5292 142.107 93.0684 148.642 91.586 154.293C89.9273 162.23 81.6528 164.283 74.6002 163.845C74.0472 163.808 73.5678 163.776 72.9966 163.698L74.7531 161.671L76.1474 166.407C76.4306 167.315 75.8219 168.286 74.8829 168.429C70.0713 169.17 65.2824 169.564 60.4171 169.48C58.7909 169.436 57.1567 169.324 55.5138 169.113C54.6405 169.001 54.0236 168.202 54.1358 167.329C54.2484 166.446 55.0668 165.826 55.9474 165.955C58.9657 166.345 62.0598 166.368 65.1166 166.227C68.1867 166.071 71.33 165.761 74.3536 165.285L73.0891 167.308L71.6947 162.571C71.4459 161.726 71.9291 160.84 72.7735 160.592C73.2313 160.45 73.6199 160.587 74.0985 160.612C74.7879 160.672 75.4832 160.703 76.1772 160.705C81.3832 160.728 87.3864 159.293 88.5005 153.491C89.695 149.009 89.3754 143.801 86.719 139.926C86.5013 139.633 86.2066 139.28 85.9501 139.017C85.8527 138.934 85.6757 138.762 85.5757 138.712C85.1743 138.43 84.4222 138.238 83.6033 138.202C81.9572 138.125 80.0312 138.474 78.3484 138.964C77.4903 139.214 76.5923 138.721 76.3423 137.863C76.2098 137.401 76.3386 136.982 76.2591 136.474C76.1822 135.636 75.8106 134.721 75.0357 134.502C74.9561 134.492 74.7944 134.444 74.7167 134.425C73.9979 134.334 73.4726 134.452 72.7212 134.867C71.6719 135.468 70.6472 136.459 69.7303 137.534C68.8269 138.6 67.9457 139.841 67.2409 141.028C67.0222 141.408 66.6545 141.705 66.2402 141.783L51.9783 144.735C50.6957 144.974 50.211 143.129 51.4809 142.723Z" fill="#1E3A59"/>
<path d="M73.3899 164.319C72.71 164.319 72.0754 163.891 71.8442 163.212L64.2047 140.772C63.9141 139.919 64.3706 138.991 65.2243 138.7C66.0784 138.409 67.0059 138.867 67.2961 139.72L74.9356 162.159C75.2262 163.013 74.7698 163.941 73.916 164.231C73.7418 164.291 73.5644 164.319 73.3899 164.319Z" fill="#1E3A59"/>
<g opacity="0.2">
<path d="M53.7497 155.753L53.3672 153.469C55.6985 152.696 57.3762 151.541 57.4798 151.469C56.5194 153.135 55.1246 154.581 53.7497 155.753Z" fill="#250178"/>
</g>
<g opacity="0.2">
<path d="M90.7124 148.889C90.6726 150.774 90.3657 152.835 89.6763 155.034C86.8349 164.089 73.1701 162.12 73.1701 162.12L74.5649 166.858L74.5211 166.731C74.5211 166.731 73.744 166.922 72.4329 167.165C72.4209 167.165 72.405 167.169 72.393 167.169C68.8463 167.631 61.6054 168.349 55.6756 167.532L54.5996 161.14C55.9625 161.283 58.1774 161.141 59.8679 159.921C68.6191 153.61 65.6961 141.469 65.6961 141.469L54.9463 142.92L65.8017 140.234C65.8017 140.234 67.6707 136.974 70.1294 134.766C65.696 149.145 82.6785 158.898 90.7124 148.889Z" fill="#1E3A59"/>
</g>
<path d="M125.206 163.157C125.206 178.312 117.387 192.479 117.387 192.479L107.194 185.983C107.345 185.812 107.5 185.633 107.648 185.449C111.107 181.297 114.267 174.738 116.419 169.669C118.188 165.492 119.272 162.32 119.272 162.32L125.206 163.157Z" fill="#7A8CA1"/>
<g opacity="0.2">
<path d="M125.206 163.157C125.206 178.312 117.387 192.479 117.387 192.479L107.194 185.983C107.345 185.812 107.5 185.633 107.648 185.449L115.495 186.159C117.417 184.397 118.851 181.001 119.829 177.909C120.802 174.83 119.486 171.508 116.714 169.85C116.61 169.788 116.512 169.727 116.419 169.669C118.188 165.492 119.272 162.32 119.272 162.32L125.206 163.157Z" fill="#0A2440"/>
</g>
<path d="M117.388 194.071C117.087 194.071 116.79 193.986 116.532 193.822L106.339 187.33C105.946 187.079 105.682 186.67 105.617 186.208C105.552 185.747 105.692 185.28 106.001 184.93C112.206 177.904 117.71 161.963 117.765 161.803C118.013 161.079 118.737 160.634 119.496 160.741L125.429 161.579C126.216 161.69 126.801 162.363 126.801 163.157C126.801 178.545 119.111 192.655 118.783 193.248C118.571 193.633 118.208 193.913 117.782 194.022C117.652 194.055 117.52 194.071 117.388 194.071ZM109.568 185.607L116.762 190.189C118.622 186.351 123.231 175.774 123.59 164.539L120.339 164.08C118.98 167.813 114.695 178.93 109.568 185.607Z" fill="#1E3A59"/>
<path d="M148.734 166.716L145.988 171.57L143.916 175.236C131.965 171.653 122.835 161.272 122.835 161.272L126.673 158.897C129.084 160.077 131.439 161.105 133.654 161.989C142.21 165.405 148.734 166.716 148.734 166.716Z" fill="#7A8CA1"/>
<g opacity="0.6">
<path d="M148.734 166.716L147.295 169.262C146.614 169.119 140.353 167.768 132.28 164.548C130.064 163.659 127.709 162.631 125.302 161.455L123.851 162.352C123.19 161.675 122.835 161.272 122.835 161.272L126.673 158.897C129.084 160.077 131.439 161.105 133.654 161.989C142.21 165.405 148.734 166.716 148.734 166.716Z" fill="white"/>
</g>
<g opacity="0.2">
<path d="M145.988 171.57L143.916 175.236C131.965 171.653 122.835 161.272 122.835 161.272L126.673 158.897C129.084 160.077 131.439 161.105 133.654 161.989C133.561 162.298 133.437 162.627 133.274 162.964C132.505 164.558 132.995 166.469 134.491 167.414C137.013 169.009 141.011 170.983 145.988 171.57Z" fill="#0A2440"/>
</g>
<path d="M143.916 176.828C143.764 176.828 143.61 176.807 143.459 176.761C131.213 173.09 122.022 162.763 121.636 162.325C121.326 161.973 121.187 161.502 121.256 161.037C121.325 160.573 121.596 160.163 121.995 159.916L125.834 157.543C126.301 157.254 126.882 157.226 127.374 157.467C138.756 163.039 148.946 165.134 149.048 165.155C149.548 165.256 149.97 165.591 150.183 166.055C150.395 166.52 150.372 167.058 150.12 167.502L145.304 176.019C145.015 176.529 144.479 176.828 143.916 176.828ZM125.347 161.592C128.102 164.334 134.902 170.468 143.168 173.318L146.295 167.79C142.751 166.905 135.204 164.752 126.766 160.715L125.347 161.592Z" fill="#1E3A59"/>
<path d="M127.566 164.924C130.328 162.161 130.328 157.683 127.566 154.92C124.804 152.158 120.325 152.158 117.563 154.92C114.8 157.683 114.8 162.161 117.563 164.924C120.325 167.686 124.804 167.686 127.566 164.924Z" fill="#7A8CA1"/>
<g opacity="0.6">
<path d="M128.932 163.013V162.986C128.932 159.08 125.764 155.912 121.859 155.912C119.061 155.912 116.642 157.538 115.494 159.893C115.51 156 118.667 152.848 122.568 152.848C126.473 152.848 129.641 156.016 129.641 159.921C129.641 161.029 129.386 162.077 128.932 163.013Z" fill="white"/>
</g>
<g opacity="0.2">
<path d="M129.641 159.921C129.641 163.83 126.473 166.995 122.568 166.995C118.658 166.995 115.494 163.83 115.494 159.921C115.494 159.471 115.538 159.032 115.618 158.606C116.893 160.455 119.029 161.667 121.444 161.667C124.899 161.667 127.776 159.192 128.394 155.912C129.179 157.052 129.641 158.435 129.641 159.921Z" fill="#1E3A59"/>
</g>
<path d="M122.567 168.628C117.766 168.628 113.86 164.723 113.86 159.922C113.86 155.122 117.766 151.216 122.567 151.216C127.368 151.216 131.273 155.122 131.273 159.922C131.273 164.723 127.368 168.628 122.567 168.628ZM122.567 154.482C119.567 154.482 117.126 156.922 117.126 159.922C117.126 162.922 119.567 165.363 122.567 165.363C125.567 165.363 128.008 162.922 128.008 159.922C128.008 156.922 125.567 154.482 122.567 154.482Z" fill="#1E3A59"/>
<g opacity="0.2">
<path d="M122.436 96.9808C120.747 112.523 102.89 124.753 81.1152 124.753C71.8061 124.753 63.2142 122.517 56.2961 118.743C59.0339 116.651 62.1981 114.651 65.8404 112.774C73.6073 108.773 98.3108 104.349 122.436 96.9808Z" fill="#1E3A59"/>
</g>
<path d="M132.42 65.6631C131.383 75.3776 127.884 84.8911 121.916 93.2391C120.698 94.9409 119.384 96.5919 117.966 98.1852C117.278 98.9625 116.558 99.7265 115.819 100.483C113.578 102.749 111.199 104.798 108.703 106.629C106.556 108.213 104.319 109.633 102.022 110.892C99.2474 112.415 96.3741 113.698 93.4366 114.747C92.3641 115.127 91.2848 115.477 90.1988 115.798C70.3101 121.636 47.958 117.009 32.1172 101.767C8.77752 79.319 8.41602 42.347 31.2993 19.1887C35.7098 14.7315 40.6609 11.1004 45.9502 8.32505C46.5652 7.9949 47.1925 7.68102 47.8252 7.38067C49.5122 6.56588 51.2284 5.83439 52.969 5.1879C56.9953 3.69401 61.1535 2.64842 65.3569 2.04934C69.5585 1.44589 73.8164 1.28984 78.0395 1.58143C79.3824 1.67334 80.7218 1.80888 82.0598 1.99272C84.0644 2.26922 86.0549 2.64143 88.0323 3.12481C97.8822 5.50327 107.227 10.4239 115.001 17.9041C128.427 30.8165 134.247 48.533 132.42 65.6631Z" fill="white"/>
<path d="M73.2716 118.377C58.0453 118.377 43.1706 112.604 32.0168 101.871C20.746 91.0313 14.4298 76.4847 14.2314 60.9117C14.0318 45.214 20.0566 30.3603 31.196 19.0869C35.5442 14.6926 40.4857 11.0285 45.8825 8.19664C46.4666 7.88313 47.0998 7.56442 47.7631 7.2498C49.4452 6.43724 51.1798 5.6978 52.9186 5.05214C56.9152 3.56924 61.0932 2.51064 65.3365 1.906C69.5381 1.30224 73.8149 1.14441 78.0498 1.43704C79.4079 1.5297 80.7638 1.66851 82.0795 1.84923C84.1266 2.13152 86.141 2.51339 88.067 2.98399C98.2306 5.43839 107.579 10.5616 115.101 17.7997C128.11 30.3106 134.475 47.7618 132.563 65.6785C131.504 75.6107 127.862 85.17 122.034 93.3231C120.801 95.0467 119.468 96.715 118.074 98.2814C117.434 99.0045 116.73 99.7577 115.922 100.584C113.707 102.824 111.307 104.898 108.789 106.746C106.681 108.301 104.427 109.739 102.091 111.019C99.3576 112.52 96.4618 113.82 93.4852 114.884C92.4184 115.261 91.3266 115.615 90.24 115.937C84.6512 117.577 78.9369 118.377 73.2716 118.377ZM73.9083 1.58387C71.0547 1.58387 68.1992 1.78725 65.3774 2.19253C61.154 2.7945 56.9963 3.84775 53.0192 5.32358C51.2893 5.96598 49.5629 6.702 47.888 7.51092C47.228 7.82406 46.5992 8.14061 46.0184 8.45248C40.6463 11.2711 35.7291 14.9175 31.402 19.2905C20.3174 30.5082 14.3223 45.2882 14.5212 60.9078C14.7182 76.4028 21.0029 90.8764 32.2176 101.663C47.4464 116.316 69.6475 121.679 90.1581 115.659C91.2393 115.339 92.326 114.986 93.388 114.611C96.3498 113.552 99.2311 112.258 101.952 110.765C104.276 109.491 106.519 108.06 108.617 106.513C111.124 104.673 113.512 102.61 115.715 100.381C116.519 99.5585 117.22 98.8087 117.857 98.0888C119.245 96.5298 120.571 94.8696 121.798 93.1543C127.597 85.0419 131.221 75.5303 132.275 65.6474C134.177 47.8205 127.844 30.4566 114.9 18.0082C107.415 10.8058 98.1124 5.70776 87.9981 3.26532C86.0812 2.79688 84.077 2.41702 82.0397 2.13598C80.7306 1.95623 79.3812 1.81817 78.0296 1.7258C76.6594 1.63128 75.2839 1.58387 73.9083 1.58387Z" fill="#1E3A59"/>
<path d="M32.1168 101.766C47.9566 117.01 70.3119 121.637 90.1994 115.796C91.2858 115.476 92.3644 115.127 93.4352 114.747C96.374 113.698 99.2459 112.413 102.021 110.893C104.318 109.632 106.556 108.213 108.702 106.631C111.2 104.799 113.578 102.751 115.82 100.483C116.556 99.725 117.277 98.9632 117.967 98.1868C119.385 96.5921 120.696 94.9388 121.916 93.238C127.883 84.8898 131.385 75.3781 132.42 65.6611C132.99 60.3245 132.817 54.9272 131.903 49.6382C130.7 58.888 127.252 67.9104 121.559 75.8751C120.343 77.5796 119.028 79.2292 117.61 80.8238C116.924 81.6002 116.203 82.362 115.463 83.1203C113.221 85.388 110.843 87.436 108.349 89.2678C106.199 90.8502 103.965 92.2686 101.667 93.5301C98.8928 95.0502 96.017 96.3349 93.0821 97.3839C92.0075 97.7636 90.9289 98.1134 89.8424 98.4332C69.9549 104.274 47.6034 99.6473 31.7599 84.4025C22.5149 75.512 16.8799 64.3417 14.8622 52.6577C12.5701 70.205 18.3398 88.5167 32.1168 101.766Z" fill="#D8D8D8"/>
<path d="M73.2723 119.347C57.7971 119.347 42.6807 113.48 31.3437 102.571C19.8843 91.5493 13.4625 76.7588 13.2607 60.9241C13.058 44.9645 19.1822 29.8642 30.5055 18.4045C34.9244 13.9387 39.946 10.2154 45.4313 7.33702C46.0216 7.02025 46.6693 6.69426 47.3467 6.3728C49.0502 5.54991 50.8132 4.79828 52.5806 4.14206C56.6421 2.63502 60.8873 1.55941 65.1992 0.944802C69.4683 0.33161 73.815 0.171402 78.1164 0.468561C79.4959 0.562709 80.8739 0.703672 82.2114 0.887436C84.2919 1.17441 86.339 1.56245 88.2972 2.04107C98.6256 4.53516 108.128 9.74275 115.774 17.1001C129.001 29.8205 135.472 47.5641 133.528 65.7813C132.451 75.8797 128.749 85.5987 122.823 93.8877C121.57 95.6394 120.216 97.3347 118.799 98.9267C118.15 99.6602 117.435 100.425 116.616 101.262C114.362 103.543 111.923 105.65 109.363 107.529C107.222 109.108 104.932 110.569 102.558 111.87C99.7794 113.395 96.8369 114.716 93.8119 115.798C92.726 116.182 91.6179 116.542 90.5156 116.868C84.8369 118.535 79.0287 119.347 73.2723 119.347ZM73.908 2.55462C71.1004 2.55462 68.2914 2.75451 65.5154 3.15347C61.3594 3.74563 57.2692 4.78186 53.3572 6.23355C51.6558 6.86539 49.9578 7.5893 48.3102 8.38499C47.6589 8.69412 47.0446 9.00346 46.4775 9.30768C41.1859 12.0843 36.349 15.6711 32.0919 19.9731C21.192 31.0044 15.2963 45.5376 15.4919 60.8955C15.6856 76.1287 21.8647 90.3582 32.8905 100.963C47.8697 115.376 69.709 120.649 89.8848 114.728C90.9479 114.413 92.0186 114.065 93.0646 113.696C95.9753 112.655 98.8094 111.383 101.485 109.914C103.772 108.661 105.978 107.253 108.041 105.732C110.508 103.921 112.858 101.891 115.025 99.6981C115.814 98.8916 116.504 98.1533 117.131 97.4455C118.498 95.9101 119.801 94.277 121.009 92.5896C126.711 84.6133 130.273 75.2611 131.31 65.5446C133.18 48.0181 126.954 30.9468 114.228 18.7078C106.866 11.6244 97.7176 6.61096 87.7705 4.20879C85.8834 3.74764 83.9118 3.37394 81.9075 3.09744C80.6206 2.92074 79.2933 2.78505 77.9636 2.69417C76.6151 2.60106 75.2613 2.55462 73.908 2.55462Z" fill="#1E3A59"/>
<path d="M73.2727 119.67C57.7148 119.67 42.5175 113.771 31.1195 102.804C19.5973 91.722 13.14 76.85 12.9375 60.928C12.7333 44.8814 18.8905 29.6988 30.2755 18.177C34.718 13.6876 39.7665 9.94429 45.2812 7.0505C45.8733 6.73269 46.5257 6.4041 47.2082 6.08026C48.9186 5.2541 50.6914 4.49831 52.4678 3.83868C56.5511 2.32346 60.8192 1.24227 65.1536 0.624545C69.4445 0.00771248 73.8144 -0.152794 78.1387 0.145628C79.5254 0.24052 80.9107 0.382226 82.2557 0.566882C84.3471 0.855347 86.4051 1.24554 88.3742 1.72669C98.7574 4.23407 108.311 9.46991 115.999 16.867C129.298 29.6571 135.804 47.4983 133.85 65.8158C132.767 75.9695 129.045 85.7417 123.087 94.0758C121.827 95.837 120.465 97.5414 119.041 99.1419C118.388 99.8786 117.67 100.647 116.847 101.489C114.58 103.783 112.128 105.901 109.554 107.789C107.403 109.377 105.1 110.846 102.713 112.154C99.9202 113.687 96.9616 115.015 93.9208 116.103C92.8287 116.489 91.7151 116.85 90.6074 117.178C84.8983 118.854 79.0599 119.67 73.2727 119.67ZM73.9081 2.87809C71.1157 2.87809 68.3223 3.07709 65.5615 3.47367C61.4281 4.06272 57.3604 5.09337 53.4697 6.53688C51.7777 7.16516 50.0892 7.88498 48.451 8.67637C47.8022 8.98423 47.1926 9.29119 46.6303 9.59289C41.3659 12.3555 36.5558 15.9223 32.3219 20.2008C21.4834 31.1697 15.621 45.6208 15.8151 60.8914C16.0082 76.0375 22.1516 90.1856 33.1147 100.73C48.0108 115.062 69.7279 120.306 89.7936 114.417C90.8506 114.104 91.9159 113.759 92.9564 113.39C95.85 112.356 98.6685 111.091 101.329 109.631C103.604 108.384 105.797 106.985 107.849 105.471C110.303 103.67 112.639 101.652 114.795 99.4708C115.579 98.6693 116.265 97.9349 116.888 97.2312C118.248 95.7036 119.545 94.0796 120.745 92.4015C126.415 84.471 129.957 75.1711 130.988 65.5103C132.847 48.0841 126.657 31.1104 114.003 18.9414C106.683 11.8977 97.5858 6.91222 87.6946 4.52365C85.8173 4.06487 83.8566 3.69333 81.8631 3.41831C80.5838 3.24272 79.2638 3.10756 77.9417 3.0172C76.6003 2.92439 75.2542 2.87809 73.9081 2.87809Z" fill="#1E3A59"/>
<path d="M128.91 80.2417C106.101 115.525 55.909 117.814 37.6516 80.7113C25.2303 55.4689 40.7605 23.8358 66.1657 13.4755C84.6559 5.93513 106.004 6.53554 125.542 31.5836C125.542 31.5836 132.448 43.9999 132.498 54.1449C132.547 64.2899 130.86 74.1747 130.86 74.1747L128.91 80.2417Z" fill="#0056A8"/>
<g opacity="0.5">
<path d="M57.1918 29.8038C57.1918 29.8038 81.475 21.9478 99.8811 30.2321C99.9004 30.2408 99.9197 30.2495 99.939 30.2582C103.811 32.0051 107.129 34.7578 109.564 38.2011C112.785 42.7547 114.325 46.3619 115.557 49.5896C119.299 59.4079 119.186 64.7093 119.186 64.7093C122.882 57.391 123.834 50.3013 120.799 42.0923C120.498 41.2839 120.157 40.4614 119.78 39.6281C119.694 39.4358 119.604 39.2472 119.511 39.0584C119.514 39.0549 119.511 39.0514 119.503 39.0478C118.619 37.4139 117.375 35.3105 115.769 33.0546C110.932 26.248 102.831 18.0425 91.48 17.0861C70.2554 15.2979 55.9796 29.0871 57.1918 29.8038Z" fill="white"/>
</g>
<g opacity="0.35">
<path d="M37.6532 80.711C55.9092 117.813 106.102 115.523 128.91 80.243L129.304 79.0127C96.6346 99.774 52.7756 93.5041 33.607 56.3337C32.6469 64.5238 33.8213 72.9206 37.6532 80.711Z" fill="#0A2440"/>
</g>
<path d="M80.2468 115.105C74.1918 115.105 68.216 114.185 62.5598 112.322C48.5889 107.72 37.5914 97.9473 30.7552 84.0593C24.4772 71.3025 24.0301 56.3541 29.4966 41.9679C35.5683 25.9895 48.299 12.7365 63.5522 6.51641C72.0283 3.05974 80.2762 1.43239 88.0789 1.68623L88.2266 1.69113L88.3703 1.72576C98.7575 4.23403 108.311 9.46987 115.999 16.867C129.298 29.657 135.805 47.4982 133.85 65.8158C132.767 75.9695 129.045 85.7417 123.087 94.0758C121.827 95.837 120.465 97.5414 119.041 99.1418C118.389 99.8786 117.671 100.647 116.848 101.489C114.58 103.783 112.128 105.901 109.555 107.789L109.364 107.908C100.143 112.673 90.0905 115.105 80.2468 115.105ZM86.5038 4.53922C79.5465 4.53922 72.1999 6.09836 64.6391 9.18148C50.1116 15.1056 37.9803 27.7446 32.1869 42.9903C27.0075 56.6219 27.416 70.7557 33.3378 82.7884C39.8242 95.9669 50.2404 105.234 63.4599 109.589C77.549 114.229 93.7543 112.703 107.942 105.403C110.361 103.62 112.666 101.625 114.795 99.4707C115.579 98.6692 116.265 97.9348 116.888 97.2311C118.248 95.7036 119.545 94.0796 120.745 92.4015C126.415 84.4707 129.957 75.1716 130.988 65.5103C132.847 48.0841 126.657 31.1104 114.003 18.9414C106.718 11.9316 97.6744 6.96041 87.8387 4.55861C87.3957 4.54576 86.9498 4.53922 86.5038 4.53922Z" fill="#1E3A59"/>
<path d="M80.6252 109.072C79.5853 109.072 78.5458 109.042 77.5033 108.981C59.4807 107.93 44.4847 97.8571 36.3602 81.3467C30.7555 69.957 30.356 56.613 35.2354 43.7731C40.6524 29.5176 52.012 17.6933 65.6223 12.1431C89.0715 2.58008 109.613 8.82338 126.677 30.6986L126.8 30.8842C127.09 31.4043 133.886 43.7428 133.937 54.1378C133.986 64.2918 132.348 74.0082 132.278 74.4169L132.23 74.6153L130.222 80.8634L130.118 81.023C118.801 98.5297 100.059 109.072 80.6252 109.072ZM85.982 10.7272C79.8128 10.7272 73.3855 12.0856 66.7094 14.8081C53.8248 20.0624 43.0647 31.2727 37.9258 44.7956C33.3334 56.8809 33.6945 69.4103 38.9429 80.076C46.5965 95.6299 60.7125 105.118 77.671 106.108C97.1091 107.244 116.225 97.0972 127.598 79.6192L129.458 73.8347C129.63 72.7845 131.104 63.5158 131.059 54.152C131.014 44.9536 124.96 33.5298 124.336 32.3769C113.062 17.9626 100.215 10.7272 85.982 10.7272Z" fill="#1E3A59"/>
<path d="M24.4354 81.0447C24.4354 100.986 15.6921 111.582 11.2129 115.703C10.0214 116.799 8.19219 116.671 7.1521 115.496C7.06842 115.4 6.98869 115.296 6.91698 115.185L1.90771 107.625C1.12666 106.45 1.32588 104.875 2.38195 103.939C7.98101 98.9656 11.6553 93.9125 14.0582 89.2579C19.6852 78.3468 18.3103 69.6235 18.2465 69.2408L24.4354 81.0447Z" fill="white"/>
<g opacity="0.2">
<path d="M24.4354 81.0447C24.4354 100.986 15.6921 111.582 11.2129 115.703C10.0214 116.799 8.19219 116.671 7.1521 115.496C17.0511 108.601 15.5726 95.7058 14.0582 89.2579C19.6852 78.3468 18.3103 69.6235 18.2466 69.2408L24.4354 81.0447Z" fill="#1E3A59"/>
</g>
<path d="M39.7659 117.887C37.0481 119.313 33.9159 122.143 31.8675 124.159C30.7756 125.235 28.9424 124.789 28.4483 123.334C27.8027 121.429 27.2767 119.433 26.8423 117.381C23.3474 100.683 26.3761 80.5426 26.3761 80.5426C29.9348 86.9745 35.761 102.018 39.0208 110.698C39.7381 112.606 40.3319 114.204 40.7503 115.34C41.1089 116.317 40.6905 117.405 39.7659 117.887Z" fill="white"/>
<g opacity="0.2">
<path d="M39.021 110.698C35.5938 109.673 30.4012 109.773 26.8426 117.381C23.3476 100.683 26.3764 80.5426 26.3764 80.5426C29.9349 86.9745 35.7611 102.018 39.021 110.698Z" fill="#1E3A59"/>
</g>
<path d="M9.28751 117.895C9.11548 117.895 8.94242 117.885 8.76936 117.864C7.52336 117.713 6.41096 117.026 5.71722 115.979L0.708322 108.421C-0.462182 106.655 -0.153802 104.266 1.42488 102.864C10.9097 94.4417 14.5903 85.8174 16.0079 80.0656C17.5445 73.8298 16.8326 69.5186 16.8253 69.4758L15.2746 60.4668L25.8748 80.69V81.0443C25.8748 101.166 17.2999 112.06 12.1883 116.762C11.3912 117.496 10.356 117.895 9.28751 117.895ZM19.7651 75.2327C19.1526 82.1382 16.0188 93.7541 3.33631 105.016C2.82254 105.472 2.72423 106.253 3.10736 106.831L8.11626 114.389C8.34699 114.737 8.70226 114.957 9.11623 115.007C9.5331 115.057 9.9308 114.929 10.2399 114.644C14.9745 110.288 22.8981 100.195 22.9957 81.397L19.7651 75.2327Z" fill="#1E3A59"/>
<path d="M30.4257 126.192C30.154 126.192 29.8793 126.161 29.6068 126.096C28.4203 125.813 27.4781 124.954 27.0858 123.796C21.1535 106.273 24.7956 81.3801 24.9538 80.3289L25.584 76.1353L27.6362 79.8463C32.0272 87.786 39.8183 108.641 42.1016 114.843C42.7072 116.489 41.9906 118.345 40.4351 119.161C37.8989 120.491 34.9244 123.171 32.8758 125.184C32.2098 125.839 31.3324 126.192 30.4257 126.192ZM27.2531 85.5169C26.485 93.6313 25.6106 110.463 29.8122 122.873C29.9127 123.169 30.1442 123.265 30.2733 123.296C30.3988 123.325 30.6423 123.344 30.8582 123.132C33.0454 120.982 36.2502 118.106 39.0982 116.612C39.3834 116.463 39.5107 116.137 39.4008 115.837C37.4753 110.607 31.6068 94.8846 27.2531 85.5169Z" fill="#1E3A59"/>
<path d="M114.291 18.0605C97.2946 21.396 50.6215 34.5149 19.502 81.2479C16.8798 74.6207 15.4412 67.3997 15.4412 59.84C15.4412 59.6328 15.4412 59.4216 15.4451 59.2144C17.6448 56.1179 20.4583 52.4517 23.9094 48.4985C37.4667 32.9607 60.855 12.9915 95.4655 5.7865C100.574 7.84677 105.325 10.6084 109.597 13.9639C111.234 15.243 112.801 16.6099 114.291 18.0605Z" fill="white"/>
<g opacity="0.2">
<path d="M114.291 18.0606C97.2946 21.3961 50.6215 34.515 19.502 81.248C16.8798 74.6208 15.4412 67.3998 15.4412 59.8401C15.4412 59.6329 15.4412 59.4217 15.4451 59.2145C17.6448 56.118 20.4583 52.4517 23.9094 48.4986C23.9209 48.5834 23.9327 48.6679 23.9446 48.7521C24.8493 55.1243 32.5872 57.8029 37.269 53.3865C67.1283 25.22 97.2405 16.4946 109.597 13.964C111.234 15.2431 112.801 16.61 114.291 18.0606Z" fill="#1E3A59"/>
</g>
<path d="M19.1755 84.3346L18.1639 81.7773C15.4024 74.7978 14.0022 67.4171 14.0022 59.84C14.0022 59.6236 14.0022 59.4032 14.0062 59.1866L14.0149 58.7428L14.2722 58.3807C25.8451 42.0928 51.7441 13.4179 95.1724 4.37745L95.5991 4.28857L96.0036 4.45168C103.209 7.35565 109.699 11.5874 115.294 17.0287L117.263 18.9437L114.568 19.4726C96.5133 23.0158 51.2245 36.2058 20.6997 82.0456L19.1755 84.3346ZM16.8802 59.6803C16.8802 59.7337 16.8802 59.787 16.8802 59.84C16.8802 66.12 17.8899 72.2569 19.8855 78.1224C33.2272 58.8717 50.5822 43.4018 71.5094 32.1135C87.723 23.3677 102.534 19.1458 111.27 17.2204C106.529 13.0298 101.181 9.69495 95.3302 7.28513C53.4444 16.1556 28.2964 43.7301 16.8802 59.6803Z" fill="#1E3A59"/>
<path d="M12.3968 88.3614C16.183 99.2366 25.8771 106.111 34.0512 103.713C42.2253 101.315 45.7818 90.5547 41.9955 79.6795C41.9732 79.6109 41.946 79.5393 41.9197 79.4715C38.0852 68.7163 28.4576 61.946 20.3411 64.3278C14.0265 66.1797 10.468 73.0231 10.9197 81.0533C11.054 83.4175 11.536 85.8882 12.3968 88.3614Z" fill="white"/>
<g opacity="0.2">
<path d="M12.3968 88.3614C16.1829 99.2366 25.877 106.111 34.0512 103.713C42.2252 101.315 45.7817 90.5546 41.9955 79.6795C41.9731 79.6109 41.9459 79.5393 41.9196 79.4715C41.4095 80.8511 40.3935 82.3604 38.3696 82.5459C34.8244 82.8692 26.4335 77.6233 26.4335 77.6233C26.4335 77.6233 19.6962 79.0669 10.9197 81.0533C11.054 83.4175 11.5359 85.8882 12.3968 88.3614Z" fill="#1E3A59"/>
</g>
<path d="M30.7345 105.621C22.8142 105.621 14.513 98.8216 11.0359 88.8351C8.71015 82.1547 8.91881 75.3257 11.6077 70.0995C13.4749 66.4708 16.3539 63.9977 19.934 62.9473C28.8173 60.3411 39.3253 67.6333 43.3539 79.2051C45.6796 85.8855 45.4713 92.7143 42.7824 97.9406C40.9153 101.569 38.0362 104.043 34.4561 105.093C33.2392 105.45 31.9914 105.621 30.7345 105.621ZM13.7543 87.8889C17.2861 98.0339 26.21 104.512 33.6455 102.331C36.4509 101.508 38.7255 99.5346 40.2229 96.6239C42.5189 92.1616 42.6732 86.0038 40.6355 80.1515C37.1041 70.0064 28.1806 63.5264 20.7446 65.7092C17.9392 66.5323 15.6646 68.5057 14.1671 71.4162C11.8711 75.8781 11.7173 82.0367 13.7543 87.8889Z" fill="#1E3A59"/>
<path d="M30.0023 102.331C36.2895 99.4393 38.2857 90.3529 34.4607 82.0356C30.6358 73.7184 22.4382 69.3198 16.151 72.2112C9.86369 75.1026 7.86756 84.189 11.6925 92.5062C15.5174 100.824 23.715 105.222 30.0023 102.331Z" fill="white"/>
<path d="M25.9075 103.373C25.709 103.373 25.5091 103.368 25.3074 103.357C21.2244 103.14 17.1219 100.721 14.0515 96.7204C8.54297 89.5435 8.09704 79.4673 13.0577 74.2594C15.1201 72.0944 17.8148 71.0365 20.8485 71.1967C24.9314 71.4142 29.034 73.8333 32.1043 77.8337C37.6129 85.0106 38.0588 95.0867 33.0981 100.295C31.1729 102.316 28.6969 103.373 25.9075 103.373ZM20.2502 71.4816C17.5438 71.4816 15.1426 72.5067 13.2754 74.467C8.41307 79.572 8.86807 89.4729 14.2903 96.5372C17.3069 100.468 21.3282 102.844 25.3233 103.057C28.2688 103.214 30.8808 102.186 32.8804 100.087C37.7428 94.9821 37.2878 85.0812 31.8656 78.0169C28.849 74.0864 24.8277 71.71 20.8325 71.4972C20.6369 71.4868 20.4425 71.4816 20.2502 71.4816Z" fill="#1E3A59"/>
<g opacity="0.2">
<path d="M36.5839 90.0529C36.3169 86.9252 35.1791 83.8636 33.4639 81.2111C33.4637 88.3969 28.4478 93.0539 21.7503 91.7767C17.4223 90.9531 13.3885 87.8368 10.7366 83.7309C10.7336 84.1841 10.7566 84.6517 10.7961 85.1261C11.4798 93.0903 17.8067 100.65 24.9286 102.01C32.0507 103.369 37.2664 98.0129 36.5839 90.0529Z" fill="#1E3A59"/>
</g>
<path d="M26.2721 104.672C20.0114 104.672 13.2576 98.909 10.3139 90.5611C8.31869 84.9015 8.42756 79.0079 10.6049 74.7964C12.0127 72.073 14.1643 70.2325 16.8268 69.4738C23.7242 67.5098 32.069 73.6763 35.4347 83.2205C37.4299 88.8803 37.3214 94.7736 35.1437 98.9854C33.7359 101.709 31.5843 103.549 28.9218 104.308C28.0572 104.554 27.1694 104.672 26.2721 104.672ZM13.0287 89.6038C15.8975 97.7409 22.6742 103.094 28.1331 101.539C30.0129 101.004 31.5531 99.6636 32.5872 97.6633C34.4068 94.1438 34.4565 89.1022 32.72 84.1775C29.8511 76.0406 23.0744 70.6866 17.6156 72.2417C15.7357 72.7773 14.1955 74.1177 13.1614 76.118C11.3422 79.6374 11.2925 84.6793 13.0287 89.6038Z" fill="#1E3A59"/>
<g opacity="0.5">
<path d="M52.6975 72.1658C57.0462 71.7213 60.1575 67.3114 59.6468 62.316C59.1361 57.3207 55.1968 53.6316 50.8481 54.0761C46.4994 54.5207 43.3881 58.9306 43.8988 63.926C44.4095 68.9213 48.3488 72.6104 52.6975 72.1658Z" fill="white"/>
</g>
<g opacity="0.5">
<path d="M53.6282 83.3028C55.4326 83.287 56.8806 81.5926 56.8623 79.5183C56.8441 77.4441 55.3665 75.7754 53.5621 75.7913C51.7577 75.8072 50.3097 77.5016 50.328 79.5758C50.3462 81.6501 51.8238 83.3187 53.6282 83.3028Z" fill="white"/>
</g>
</svg>
