<svg width="151" height="251" viewBox="0 0 151 251" fill="none" xmlns="http://www.w3.org/2000/svg">
<path d="M146.995 230.326C144.636 233.522 141.785 236.706 138.909 239.565C138.012 240.458 136.806 240.889 135.599 240.828C134.921 240.8 134.247 240.613 133.626 240.264L130.145 238.298C128.712 237.482 127.132 236.954 125.503 236.755C124.825 236.673 124.139 236.645 123.452 236.681C121.779 236.767 120.126 236.913 118.481 237.104C107.378 238.403 96.7092 241.766 84.0057 242.099C81.4227 242.168 78.7546 242.111 75.9807 241.884C63.3909 242.29 49.7167 245.417 39.0235 242.696C34.0241 240.84 29.7274 237.981 26.0032 234.314C21.2475 229.635 17.4218 223.633 14.25 216.704C15.9029 210.58 17.1863 202.855 18.3031 194.412C19.099 188.381 21.7388 182.732 25.9179 178.309C27.8266 176.291 29.9304 174.346 32.1194 172.437C32.5255 171.625 44.303 161.878 44.303 161.878L112.126 160.659C113.064 161.021 113.949 161.39 114.79 161.776C115.001 161.874 115.212 161.971 115.419 162.068C119.578 164.063 122.522 166.43 124.553 169.704C126.673 173.111 127.798 177.493 128.265 183.443C128.281 183.658 128.31 183.873 128.354 184.084C128.513 184.892 128.85 185.656 129.353 186.314L130.864 188.288C132.456 190.371 134.722 191.829 137.277 192.426C137.407 192.455 137.533 192.487 137.659 192.52C138.698 192.792 139.608 193.356 140.311 194.132L140.315 194.136C140.879 194.757 141.306 195.513 141.533 196.353C143.202 202.38 146.638 209.329 149.148 216.716C150.711 221.322 149.887 226.411 146.995 230.326Z" fill="#B4C2D1"/>
<path d="M49.2664 244.808C45.5819 244.808 42.035 244.511 38.7729 243.68C38.7379 243.671 38.7037 243.661 38.6699 243.648C27.9638 239.671 19.6737 230.996 13.3266 217.127C13.2279 216.912 13.2077 216.668 13.2695 216.44C14.7354 211.016 16.0148 203.975 17.2962 194.281C18.1342 187.946 20.8598 182.182 25.1784 177.612C26.8875 175.804 28.8726 173.923 31.4241 171.696C32.4125 170.561 36.5178 167.003 43.6556 161.096C43.8328 160.949 44.0546 160.867 44.2846 160.863L112.107 159.644C112.234 159.638 112.368 159.665 112.49 159.712C123.999 164.143 128.234 170.111 129.275 183.365C129.343 184.221 129.649 185.027 130.161 185.697L131.671 187.672C133.114 189.559 135.186 190.896 137.506 191.436C137.644 191.468 137.781 191.502 137.917 191.538C140.135 192.117 141.896 193.858 142.511 196.082C143.427 199.389 144.895 203.007 146.449 206.838C147.698 209.916 148.989 213.097 150.107 216.39C151.773 221.292 150.915 226.728 147.813 230.93C145.604 233.923 142.772 237.158 139.623 240.285C137.91 241.987 135.24 242.342 133.127 241.148L129.647 239.181C127.741 238.104 125.614 237.589 123.502 237.697C117.54 237.998 111.863 239.086 105.853 240.237C96.6846 241.994 87.2059 243.81 75.9559 242.901C71.9773 243.032 67.8165 243.443 63.792 243.84C58.9382 244.319 53.9895 244.808 49.2664 244.808ZM39.3261 241.726C46.4134 243.515 54.758 242.691 63.5929 241.819C67.6693 241.417 71.885 241 75.9479 240.869C75.9852 240.868 76.0245 240.869 76.0633 240.872C87.062 241.77 96.4206 239.977 105.471 238.243C111.552 237.078 117.296 235.977 123.4 235.669C125.903 235.545 128.406 236.147 130.647 237.413L134.126 239.38C135.449 240.128 137.122 239.908 138.192 238.845C141.269 235.789 144.031 232.635 146.18 229.724C148.887 226.057 149.637 221.316 148.185 217.043C147.085 213.806 145.806 210.652 144.568 207.602C142.991 203.715 141.501 200.044 140.555 196.624C140.132 195.096 138.924 193.899 137.404 193.502C137.285 193.471 137.166 193.442 137.046 193.414C134.268 192.767 131.787 191.166 130.058 188.906L128.548 186.93C127.798 185.949 127.349 184.771 127.251 183.524C126.279 171.142 122.552 165.806 111.945 161.678L44.6767 162.887C39.3876 167.268 33.5953 172.203 32.9877 172.963C32.9337 173.052 32.8661 173.133 32.7868 173.202C30.2722 175.396 28.3237 177.241 26.6542 179.007C22.6309 183.264 20.0911 188.638 19.3098 194.547C18.0439 204.122 16.7753 211.151 15.3253 216.613C21.4058 229.752 29.2597 237.969 39.3261 241.726ZM33.0272 172.891C33.0183 172.91 33.0086 172.928 32.9981 172.946C33.0109 172.925 33.0198 172.906 33.0272 172.891Z" fill="#1E3A59"/>
<path d="M136.951 142.8C131.476 154.077 111.322 154.692 111.322 154.692L97.6438 88.8812L94.8809 75.5893C94.8809 75.5893 106.043 73.6069 115.193 75.3617C119.602 76.2044 123.542 77.9175 125.545 81.1351C132.511 92.3129 141.449 133.531 136.951 142.8Z" fill="white"/>
<g opacity="0.25">
<path d="M134.541 107.918C137.764 122.303 139.477 137.593 136.952 142.798C131.478 154.076 111.322 154.692 111.322 154.692L94.8848 75.5913C94.8848 75.5913 95.0923 75.5533 95.476 75.4966L108.291 137.171C108.291 137.171 128.447 136.555 133.921 125.277C135.403 122.221 135.426 115.695 134.541 107.918Z" fill="#1E3A59"/>
</g>
<path d="M111.322 155.708C110.775 155.708 110.324 155.274 110.307 154.724C110.29 154.164 110.73 153.695 111.291 153.678C111.486 153.672 130.897 152.945 136.037 142.356C140.232 133.714 131.792 93.0802 124.684 81.6731C118.947 72.4672 95.2984 76.5461 95.0602 76.5886C94.5054 76.6867 93.9809 76.3183 93.883 75.7663C93.7851 75.2142 94.153 74.6873 94.7051 74.5892C95.734 74.407 119.952 70.2404 126.407 80.5993C133.231 91.5504 142.664 133.353 137.864 143.243C132.187 154.937 112.201 155.681 111.353 155.707C111.343 155.708 111.332 155.708 111.322 155.708Z" fill="#1E3A59"/>
<path d="M134.357 114.282L121.298 117.999C120.132 118.331 119.336 119.406 119.364 120.617C119.468 125.055 120.239 135.292 125.077 137.732C129.092 139.758 134.635 138.286 137.351 134.83C140.39 130.964 138.742 121.107 137.688 116.276C137.361 114.774 135.836 113.862 134.357 114.282Z" fill="white"/>
<g opacity="0.25">
<path d="M119.366 120.619C119.467 125.055 120.241 135.292 125.079 137.731C129.095 139.758 134.637 138.286 137.354 134.829C139.221 132.45 139.317 127.806 138.869 123.46C138.708 125.71 138.124 127.63 137.19 129.003C131.837 136.87 125.276 130.236 125.276 130.236C125.276 130.236 124.791 132.273 124.123 132.52C121.327 133.552 120.07 124.395 119.53 119.641C119.416 119.945 119.357 120.275 119.366 120.619Z" fill="#1E3A59"/>
</g>
<path d="M129.151 139.67C127.567 139.67 126.007 139.338 124.619 138.638C119.469 136.04 118.48 126.247 118.349 120.641C118.309 118.969 119.408 117.481 121.02 117.022L134.079 113.305C135.051 113.028 136.108 113.168 136.976 113.687C137.843 114.206 138.464 115.071 138.68 116.059C139.873 121.533 141.391 131.332 138.15 135.457C136.033 138.15 132.54 139.67 129.151 139.67ZM135.091 115.194C134.939 115.194 134.786 115.216 134.635 115.259L121.576 118.976C120.853 119.181 120.361 119.846 120.378 120.593C120.454 123.829 121.05 134.563 125.534 136.825C129.011 138.579 134.057 137.378 136.553 134.202C138.545 131.667 138.597 125.212 136.696 116.492C136.598 116.043 136.327 115.665 135.933 115.429C135.673 115.274 135.384 115.194 135.091 115.194Z" fill="#1E3A59"/>
<path d="M124.692 122.202C126.195 127.641 127.12 136.084 134.206 136.413C135.543 136.489 135.478 138.463 134.131 138.443C125.893 137.718 124.965 128.907 123.656 122.492C123.488 121.819 124.482 121.531 124.692 122.202Z" fill="#1E3A59"/>
<path d="M119.26 81.592C112.868 83.4251 106.44 85.706 100.619 88.8916C100.03 89.2254 99.2798 89.0141 98.952 88.4217C98.6086 87.8084 98.8644 87.0217 99.5016 86.7262C102.645 85.2554 105.873 84.1026 109.133 83.1035C112.398 82.1144 115.679 81.2611 119.022 80.5693C119.678 80.4435 119.912 81.4132 119.26 81.592Z" fill="#1E3A59"/>
<path d="M119.848 150.649C119.686 151.201 119.515 151.753 119.332 152.31C116.372 161.399 109.11 168.421 99.8994 170.963C97.3123 171.678 94.6969 172.145 92.053 172.38C91.8418 172.405 91.6266 172.421 91.4154 172.437L58.1133 119.235L72.3276 82.6841H89.3848C111.466 86.668 130.554 115.162 119.848 150.649Z" fill="white"/>
<g opacity="0.25">
<path d="M119.847 150.649C119.684 151.201 119.514 151.753 119.331 152.31C116.37 161.399 109.109 168.42 99.8979 170.963C97.3109 171.678 94.6954 172.145 92.0516 172.38C91.751 171.523 91.5114 170.646 91.3246 169.773C90.5042 165.947 90.3946 161.939 88.9772 158.292C88.165 156.2 86.9222 154.206 86.7761 151.968C86.573 148.821 88.563 146.003 90.4555 143.481C92.742 140.439 95.0244 137.401 97.3109 134.359C97.9485 133.506 98.5983 132.645 99.443 131.991C101.734 130.216 105.1 130.245 107.265 128.312L109.551 124.978C110.717 127.902 110.177 131.224 109.279 134.241C108.382 137.259 107.131 140.219 106.891 143.359C106.656 146.502 107.683 149.991 110.368 151.64C112.39 152.878 115.002 152.846 117.235 152.05C118.161 151.721 119.051 151.245 119.847 150.649Z" fill="#1E3A59"/>
</g>
<path d="M91.4148 173.452C91.0671 173.452 90.741 173.274 90.5545 172.976L57.2524 119.774C57.0822 119.502 57.0504 119.166 57.167 118.867L71.3811 82.3158C71.533 81.9255 71.9088 81.6685 72.3276 81.6685H89.3846C89.4453 81.6685 89.5055 81.6737 89.565 81.6846C100.109 83.5859 109.829 90.8204 116.231 101.533C124.876 115.997 126.32 134.142 120.298 152.626C117.212 162.096 109.686 169.317 100.167 171.941C97.3668 172.714 94.4485 173.221 91.4933 173.449C91.4672 173.451 91.4408 173.452 91.4148 173.452ZM59.2441 119.128L91.947 171.373C94.5638 171.135 97.1448 170.668 99.6272 169.984C108.488 167.541 115.493 160.817 118.367 151.997C124.205 134.079 122.827 116.527 114.488 102.575C108.405 92.3966 99.2255 85.5212 89.293 83.699H73.0223L59.2441 119.128Z" fill="#1E3A59"/>
<path d="M65.8402 125.242C66.0868 122.448 64.0216 119.983 61.2275 119.737C58.4334 119.49 55.9684 121.555 55.7218 124.35C55.4753 127.144 57.5405 129.609 60.3346 129.855C63.1287 130.102 65.5936 128.037 65.8402 125.242Z" fill="white"/>
<path d="M70.9096 171.827C66.1092 171.255 61.581 170.593 57.5076 169.797C62.0765 179.698 68.7856 195.663 60.5738 202.307C59.6844 203.022 58.6529 203.542 57.5766 203.923C42.8871 209.109 32.8031 206.912 28.1855 202.153C23.5069 197.328 24.4491 189.871 31.9218 184.823C17.3582 165.829 19.8397 147.135 31.4426 141.697C34.7241 140.158 38.7325 139.683 43.2933 140.556L77.8137 144.617L70.9096 171.827Z" fill="white"/>
<path d="M42.0683 207.923C33.4179 207.923 27.7115 204.566 25.4261 200.031C22.8047 194.83 24.7936 188.865 30.4825 184.601C20.6316 171.295 18.0533 156.678 23.9427 147.138C27.9096 140.711 35.0194 137.949 43.4475 139.552L77.9319 143.609C78.2225 143.643 78.4839 143.801 78.6499 144.042C78.8158 144.283 78.8694 144.584 78.7975 144.867L71.8932 172.077C71.7681 172.572 71.2952 172.898 70.7885 172.836C66.3896 172.309 62.5916 171.757 59.2483 171.157C63.1414 179.717 69.8704 196.093 61.2108 203.095C60.3063 203.827 59.1966 204.427 57.9125 204.881C51.8792 207.011 46.5737 207.923 42.0683 207.923ZM38.925 141.141C33.2159 141.141 28.5095 143.606 25.6706 148.205C20.104 157.222 22.8735 171.353 32.7272 184.206C32.8974 184.428 32.9684 184.71 32.9234 184.987C32.8787 185.263 32.7217 185.508 32.4898 185.665C27.0382 189.348 24.9775 194.629 27.2396 199.117C30.3148 205.219 40.7827 208.776 57.2367 202.966C58.3025 202.59 59.2101 202.102 59.9343 201.516C67.095 195.726 61.9061 181.751 56.5851 170.223C56.4254 169.876 56.4732 169.47 56.7087 169.17C56.9441 168.87 57.3292 168.726 57.7021 168.801C61.2358 169.493 65.3143 170.119 70.1446 170.712L76.5445 145.49L43.1745 141.565C43.15 141.562 43.1259 141.558 43.1018 141.553C41.6622 141.277 40.2655 141.141 38.925 141.141Z" fill="#1E3A59"/>
<path d="M29.2265 185.638C33.2858 181.269 43.1301 184.151 48.2495 185.227C48.7596 185.356 48.6138 186.127 48.0812 186.045C43.5307 185.329 38.8369 184.404 34.2919 185.147C32.8594 185.416 31.5207 185.983 30.7743 186.952C29.8874 188.036 28.2994 186.696 29.2265 185.638Z" fill="#1E3A59"/>
<path d="M57.7848 172.687C56.7272 170.693 55.9899 168.534 55.5399 166.326C55.1159 164.124 54.9714 161.88 55.1696 159.65C55.192 159.311 55.6961 159.269 55.7706 159.602C55.7785 159.629 56.5261 162.775 56.5347 162.806C57.2387 165.788 58.3759 168.955 59.4609 171.827C59.976 172.952 58.3837 173.77 57.7848 172.687Z" fill="#1E3A59"/>
<path d="M56.0509 165.939C55.7572 165.939 55.4662 165.812 55.2653 165.568C51.0983 160.493 43.2216 157.619 35.2076 158.25C29.5494 158.693 25.0199 160.918 23.0919 164.202C22.8079 164.686 22.1851 164.847 21.7025 164.563C21.2188 164.279 21.0572 163.657 21.3412 163.173C23.6386 159.261 28.6348 156.728 35.0491 156.225C43.7061 155.548 52.2597 158.708 56.835 164.279C57.1906 164.713 57.128 165.352 56.6944 165.708C56.5055 165.863 56.2775 165.939 56.0509 165.939Z" fill="#1E3A59"/>
<g opacity="0.25">
<path d="M70.0972 171.827C65.2968 171.255 60.7686 170.593 56.6951 169.797C61.264 179.698 67.9732 195.663 59.7614 202.307C58.8719 203.022 57.8404 203.542 56.7641 203.923C42.0747 209.109 31.9906 206.912 27.373 202.153C28.9569 202.717 30.5692 203.188 32.2222 203.521C37.0591 204.492 42.3549 204.135 46.5299 201.503C47.663 200.784 48.723 199.886 49.3728 198.713C50.7942 196.154 49.9089 192.767 47.8946 190.647C45.8761 188.527 42.9764 187.475 40.1011 186.927C36.2795 186.204 32.3116 186.257 28.5103 187.085C32.267 183.605 38.0826 183.589 43.0739 184.726C45.1126 185.189 47.1635 185.814 49.2469 185.644C51.3263 185.477 53.499 184.275 54.0514 182.261C54.4494 180.815 53.9539 179.292 53.4585 177.875C50.9283 170.617 48.3657 163.372 45.7705 156.139C44.2923 152.025 42.6719 147.712 39.3213 144.905C36.4906 142.526 32.0071 141.754 29.0018 143.61L30.2039 142.566C30.3379 142.274 30.48 141.981 30.6303 141.697C33.9118 140.158 37.9202 139.683 42.481 140.556L77.0014 144.617L70.0972 171.827Z" fill="#1E3A59"/>
</g>
<g opacity="0.35">
<path d="M55.7646 125.539C56.1762 128.314 58.7578 130.232 61.5325 129.821C64.3071 129.409 66.2248 126.824 65.8133 124.049C65.6996 123.282 65.4196 122.577 65.0117 121.973C64.4569 123.789 62.8989 125.224 60.8948 125.521C58.8907 125.818 56.9834 124.897 55.9292 123.32C55.7143 124.017 55.6509 124.773 55.7646 125.539Z" fill="#1E3A59"/>
</g>
<path d="M60.7845 130.889C57.8156 130.889 55.2082 128.711 54.7598 125.689C54.2668 122.365 56.57 119.259 59.8943 118.766C61.5008 118.528 63.111 118.929 64.4183 119.9C65.7262 120.87 66.5774 122.29 66.8164 123.9C67.0553 125.51 66.6528 127.117 65.6831 128.425C64.7136 129.732 63.2928 130.584 61.6827 130.823C61.3808 130.868 61.0809 130.889 60.7845 130.889ZM60.7969 120.73C60.5961 120.73 60.3941 120.745 60.192 120.775C57.9757 121.104 56.4399 123.174 56.7686 125.391C57.0973 127.607 59.1636 129.143 61.3848 128.814C62.4583 128.655 63.4056 128.087 64.0522 127.215C64.6991 126.343 64.9672 125.272 64.8078 124.198C64.6485 123.125 64.0809 122.177 63.209 121.531C62.5014 121.006 61.6618 120.73 60.7969 120.73Z" fill="#1E3A59"/>
<path d="M67.8758 136.481L94.6226 134.125C97.7883 133.848 100.153 131.029 99.8745 127.859L98.6203 113.626C98.376 110.851 96.1834 108.695 93.5145 108.389C93.1365 108.343 92.7483 108.34 92.3535 108.374L65.6107 110.729C62.441 111.007 60.0764 113.826 60.3588 116.995L61.3495 128.269L61.6091 131.229C61.8875 134.399 64.7101 136.759 67.8758 136.481Z" fill="white"/>
<g opacity="0.35">
<path d="M67.8739 136.481L94.6206 134.126C97.7864 133.848 100.151 131.029 99.8725 127.859L98.6183 113.626C98.374 110.851 96.1815 108.696 93.5126 108.39C92.0827 109.532 91.175 110.262 91.175 110.262C90.8789 121.802 88.1273 127.786 73.9604 129.267C67.8451 129.904 63.8972 129.311 61.3477 128.269L61.6072 131.229C61.8856 134.399 64.7081 136.759 67.8739 136.481Z" fill="#1E3A59"/>
</g>
<path d="M67.3618 137.52C63.8813 137.52 60.907 134.85 60.5962 131.319L59.3428 117.083C59.0145 113.35 61.7844 110.045 65.5174 109.717L92.2622 107.362C94.0604 107.202 95.8247 107.76 97.2199 108.929C98.6147 110.098 99.4707 111.734 99.6292 113.537L100.882 127.772C101.041 129.574 100.484 131.335 99.3153 132.73C98.1462 134.124 96.5101 134.98 94.7077 135.139L67.9629 137.493C67.7612 137.511 67.5607 137.52 67.3618 137.52ZM92.8613 109.366C92.7214 109.366 92.5811 109.372 92.4401 109.385L65.6954 111.739C63.0778 111.97 61.1351 114.287 61.3655 116.905L62.619 131.141C62.8494 133.759 65.1724 135.703 67.7849 135.471L94.5297 133.116C97.1476 132.885 99.0899 130.568 98.8595 127.95L97.6065 113.715C97.4954 112.453 96.8947 111.306 95.9156 110.485C95.0456 109.756 93.9745 109.366 92.8613 109.366Z" fill="#1E3A59"/>
<path d="M66.793 136.471C67.1459 136.512 67.5055 136.516 67.8758 136.481L94.6225 134.126C96.9422 133.921 98.8316 132.355 99.5643 130.28C99.832 129.526 99.9468 128.705 99.8704 127.86L99.316 121.536L99.133 119.45L98.6201 113.626C98.3416 110.456 95.519 108.096 92.3533 108.374L86.574 108.885C89.2821 109.152 91.5175 111.322 91.7659 114.125L92.4452 121.813L93.0208 128.362C93.2986 131.527 90.9347 134.351 87.7689 134.628L66.793 136.471Z" fill="white"/>
<g opacity="0.35">
<path d="M66.793 136.471C67.1459 136.512 67.5055 136.516 67.8758 136.481L94.6225 134.126C97.7883 133.848 100.153 131.029 99.8704 127.86L99.133 119.45C98.591 120.995 97.5431 122.925 95.6261 123.287C94.5746 123.488 93.4632 122.816 92.4452 121.813L93.0208 128.361C93.2986 131.527 90.9347 134.35 87.7689 134.628L66.793 136.471Z" fill="#1E3A59"/>
</g>
<path d="M67.3767 137.52C67.1435 137.52 66.9097 137.507 66.6777 137.482L66.7002 135.461L87.6784 133.616C88.9392 133.505 90.085 132.905 90.906 131.926C91.7266 130.946 92.1171 129.712 92.0051 128.451L90.7517 114.215C90.5512 111.937 88.7515 110.12 86.4724 109.893L86.4837 107.871L92.2605 107.361C95.9974 107.033 99.3011 109.805 99.6279 113.537L100.881 127.772C101.041 129.574 100.485 131.335 99.3151 132.73C98.1456 134.126 96.5099 134.981 94.709 135.138L67.9623 137.493C67.7687 137.511 67.5729 137.52 67.3767 137.52ZM90.5147 109.554C91.777 110.674 92.6178 112.257 92.7744 114.037L94.0278 128.272C94.1879 130.073 93.6318 131.835 92.462 133.23C92.4418 133.255 92.4211 133.279 92.4002 133.303L94.5313 133.115C95.7921 133.005 96.9379 132.405 97.7585 131.426C98.5799 130.446 98.9703 129.212 98.8584 127.95V127.95L97.605 113.715C97.3754 111.097 95.0551 109.156 92.4383 109.384L90.5147 109.554Z" fill="#1E3A59"/>
<path d="M81.8551 122.287C81.9045 122.813 83.0427 126.991 83.0427 126.991C83.0427 126.991 84.388 126.864 86.04 126.709C88.1038 126.516 89.5764 124.222 89.329 121.586C89.0816 118.95 87.208 116.97 85.1442 117.163C83.7513 117.294 82.1468 117.445 82.1468 117.445C82.1468 117.445 81.7747 121.43 81.8551 122.287Z" fill="#22A7F0"/>
<path d="M101.501 178.639C102.451 181.957 102.829 185.429 102.48 188.865C101.444 198.969 95.2428 204.038 80.3341 205.918C74.9773 206.499 70.5953 205.41 67.5087 203.372C60.759 198.916 60.2067 189.909 69.186 183.87C64.7309 170.317 65.6406 160.274 69.3606 153.552C69.4824 153.329 69.6084 153.11 69.7343 152.895C69.7912 152.805 69.848 152.712 69.9049 152.622C77.337 140.642 94.1586 140.223 103.65 150.109L97.0907 156.131C96.7698 162.264 99.0766 170.179 101.501 178.639Z" fill="white"/>
<path d="M103.442 150.309C99.7711 147.449 95.5872 145.027 90.929 144.318C80.9511 142.61 71.562 148.245 68.5728 157.956C67.4686 161.336 67.139 165.019 67.2841 168.587C67.4182 172.932 68.2776 177.296 69.4924 181.46L70.1071 183.567C70.2335 183.989 70.0671 184.431 69.7274 184.673C66.5442 186.865 63.7315 190.173 63.5342 194.115C63.2933 198.634 66.6701 202.215 70.7043 203.724C73.01 204.628 75.5439 204.965 78.0128 204.9C78.739 204.899 79.5431 204.82 80.2665 204.755C84.5849 204.159 88.9951 203.312 92.8205 201.435C98.7963 198.532 101.214 193.545 101.457 187.096C101.526 185.084 101.35 183.057 100.953 181.069C100.651 179.338 99.7949 176.783 99.3525 175.034C98.2327 170.93 97.1225 166.818 96.5016 162.586C96.2348 160.458 96.209 158.238 96.7901 156.117C96.835 155.953 97.0044 155.857 97.1681 155.901C97.2853 155.933 97.3679 156.029 97.3892 156.141C97.7851 158.238 98.1208 160.242 98.4856 162.283C99.1694 166.389 100.277 170.436 101.428 174.449L102.308 177.482C103.957 182.695 104.329 188.375 102.642 193.708C100.096 201.866 92.2682 205.036 84.5224 206.43C82.4295 206.812 80.1921 207.185 78.0605 207.211C74.7303 207.29 71.2989 206.698 68.3209 205.16C64.174 203.119 61.0398 198.735 61.3923 193.995C61.6702 189.323 64.9249 185.497 68.6462 183.066C68.6476 183.064 68.2671 184.172 68.2671 184.172C66.3957 178.435 65.0528 172.459 65.1907 166.379C65.2723 160.272 67.0022 153.919 71.1573 149.261C77.3652 142.113 88.2781 140.392 96.7166 144.312C98.4522 145.081 100.126 146.133 101.539 147.4C102.381 148.13 103.186 149.036 103.859 149.907C103.959 150.033 103.939 150.215 103.814 150.315C103.7 150.407 103.549 150.393 103.442 150.309Z" fill="#1E3A59"/>
<path d="M67.0486 184.196C70.8274 180.986 79.0574 183.003 81.9602 186.656C82.1786 186.933 81.7798 187.287 81.5325 187.028C78.5447 184.307 73.4832 183.561 69.7392 184.874C69.2127 185.094 68.7701 185.351 68.4208 185.691C67.4152 186.583 66.0708 185.127 67.0486 184.196Z" fill="#1E3A59"/>
<path d="M98.3161 167.755C98.0123 167.755 97.7119 167.619 97.5118 167.361C92.8991 161.392 86.4363 157.866 79.7799 157.688C74.7693 157.552 70.1209 159.393 67.3487 162.608C66.9831 163.033 66.3408 163.081 65.917 162.715C65.4923 162.348 65.4445 161.707 65.8109 161.283C69.0237 157.555 74.1368 155.5 79.8342 155.658C87.1026 155.852 94.1316 159.665 99.1188 166.119C99.4615 166.563 99.3799 167.2 98.9362 167.543C98.7513 167.686 98.5329 167.755 98.3161 167.755Z" fill="#1E3A59"/>
<g opacity="0.25">
<path d="M101.501 178.638C102.451 181.957 102.829 185.429 102.48 188.865C101.444 198.969 95.2428 204.037 80.334 205.918C74.9772 206.498 70.5952 205.41 67.5087 203.371C67.6529 203.398 67.7981 203.422 67.9432 203.445C67.9432 203.445 68.1593 203.479 68.3778 203.51C77.6313 204.787 81.4671 202.693 81.4671 202.693C82.2208 202.282 83.5596 201.53 84.5699 199.964C84.5699 199.964 85.8047 198.271 85.7639 196.228C85.6826 192.146 82.6328 188.532 78.9044 186.871C75.1762 185.206 70.8997 185.214 66.8711 185.864C70.9973 183.029 76.6545 183.821 81.2478 185.815C83.843 186.944 86.5964 188.451 89.3377 187.752C92.067 187.058 93.8498 184.276 94.2519 181.494C94.6539 178.708 93.9554 175.897 93.265 173.168C92.7979 171.328 92.3269 169.489 91.8598 167.653C91.0232 164.355 90.1703 161.021 88.554 158.028C86.9376 155.035 84.4562 152.375 81.2438 151.25C76.8455 149.706 71.5009 151.587 69.0317 155.538L69.3607 153.552L69.4703 152.878C69.5231 152.935 69.5921 152.968 69.6693 152.935C69.6937 152.923 69.714 152.911 69.7343 152.895C69.8277 152.834 69.8765 152.736 69.9049 152.622C77.337 140.642 94.1586 140.223 103.65 150.109L97.0907 156.131C96.7697 162.264 99.0765 170.179 101.501 178.638Z" fill="#1E3A59"/>
</g>
<g opacity="0.35">
<path d="M81.8551 122.287C81.9045 122.813 83.0427 126.991 83.0427 126.991C83.0427 126.991 84.388 126.864 86.04 126.709C88.1038 126.516 89.5764 124.222 89.329 121.586C89.0816 118.95 87.208 116.97 85.1442 117.163C83.7513 117.294 82.1468 117.445 82.1468 117.445C82.1468 117.445 81.7747 121.43 81.8551 122.287Z" fill="#1E3A59"/>
</g>
<path d="M82.4409 127.863L82.2614 127.204C81.9902 126.208 81.1005 122.916 81.0488 122.363C80.9638 121.457 81.3018 117.785 81.3406 117.369L81.4032 116.699L85.0709 116.355C86.3201 116.237 87.544 116.734 88.5103 117.755C89.4249 118.722 90.0035 120.055 90.1398 121.51C90.2766 122.965 89.956 124.383 89.2373 125.502C88.4781 126.685 87.3703 127.401 86.1181 127.518L82.4409 127.863ZM82.6659 122.209C82.7005 122.504 83.1663 124.321 83.6504 126.118L85.9665 125.901C86.7105 125.831 87.3866 125.378 87.8699 124.625C88.3936 123.809 88.6252 122.757 88.5226 121.662C88.4197 120.567 87.9966 119.576 87.3302 118.872C86.7152 118.222 85.9676 117.902 85.2225 117.972L82.8974 118.191C82.7661 119.703 82.6205 121.715 82.6659 122.209Z" fill="#1E3A59"/>
<path d="M83.0347 126.991C85.0984 126.798 86.571 124.504 86.3237 121.868C86.0764 119.232 84.2029 117.252 82.1392 117.446C80.0754 117.639 78.6028 119.933 78.8501 122.569C79.0974 125.205 80.9709 127.185 83.0347 126.991Z" fill="#22A7F0"/>
<g opacity="0.35">
<path d="M83.0438 126.989C85.1054 126.797 86.5775 124.502 86.3313 121.867C86.2733 121.262 86.1334 120.689 85.9208 120.173C85.7359 122.323 84.3972 124.033 82.6299 124.199C81.0394 124.348 79.5615 123.207 78.8552 121.47C78.824 121.825 78.8235 122.193 78.8587 122.567C79.1053 125.205 80.9793 127.183 83.0438 126.989Z" fill="#1E3A59"/>
</g>
<g opacity="0.7">
<path d="M79.1023 123.794C79.102 121.411 80.5054 119.434 82.4156 119.255C84.1428 119.091 85.7405 120.455 86.3583 122.454C86.3589 122.263 86.3498 122.064 86.3321 121.867C86.0859 119.231 84.2115 117.251 82.147 117.445C80.0825 117.638 78.6105 119.932 78.8595 122.567C78.8999 122.996 78.9811 123.406 79.1023 123.794Z" fill="white"/>
</g>
<path d="M82.7688 127.816C80.4041 127.816 78.3255 125.578 78.0504 122.644C77.9136 121.189 78.2342 119.771 78.953 118.652C79.7122 117.469 80.8199 116.753 82.0721 116.636C84.5817 116.399 86.8531 118.713 87.1413 121.791C87.2781 123.246 86.9575 124.664 86.2388 125.783C85.4796 126.966 84.3718 127.682 83.1196 127.799C83.0023 127.81 82.885 127.816 82.7688 127.816ZM82.4292 118.244C82.3608 118.244 82.2924 118.247 82.2236 118.253C81.4796 118.323 80.8035 118.776 80.3202 119.529C79.7965 120.345 79.5649 121.397 79.6675 122.492C79.873 124.678 81.358 126.33 82.968 126.182C83.7121 126.112 84.3881 125.659 84.8715 124.906C85.3952 124.09 85.6268 123.038 85.5242 121.943C85.3277 119.85 83.962 118.244 82.4292 118.244Z" fill="#1E3A59"/>
<path d="M76.179 136.458C75.771 136.458 75.4194 136.152 75.3728 135.737L74.6023 128.852C74.4118 127.149 73.5808 125.608 72.2621 124.513L71.8585 124.178C70.1703 122.776 69.0987 120.718 68.9184 118.532L68.2548 110.5C68.2175 110.053 68.5501 109.66 68.9973 109.623C69.4457 109.583 69.8365 109.919 69.8735 110.366L70.5371 118.398C70.682 120.152 71.5418 121.803 72.8959 122.928L73.2996 123.263C74.9435 124.628 75.9793 126.548 76.2171 128.671L76.9876 135.556C77.0373 136.002 76.7164 136.403 76.2707 136.453C76.24 136.457 76.2093 136.458 76.179 136.458Z" fill="#1E3A59"/>
<path d="M128.43 115.781C128.88 119.707 125.229 121.772 125.229 121.772C125.229 121.772 120.284 125.345 97.8882 126.623C97.8882 126.623 90.6903 121.153 97.8565 116.083C97.8565 116.083 113.586 116.073 123.415 111.764C125.187 110.987 128.029 112.273 128.43 115.781Z" fill="white"/>
<g opacity="0.25">
<path d="M128.43 115.781C128.882 119.706 125.231 121.772 125.231 121.772C125.231 121.772 120.285 125.345 97.8892 126.621C97.8892 126.621 93.8157 123.525 94.8498 119.834C94.8593 119.851 94.8688 119.869 94.8784 119.886C95.872 121.675 97.8397 122.703 99.8815 122.563C120.089 121.168 124.652 117.872 124.652 117.872C124.652 117.872 127.207 116.426 127.778 113.657C128.103 114.241 128.335 114.947 128.43 115.781Z" fill="#1E3A59"/>
</g>
<path d="M97.5716 127.658L97.2736 127.431C97.1236 127.317 93.6031 124.599 93.6649 120.96C93.701 118.841 94.9136 116.921 97.2697 115.254L97.5328 115.068L97.8553 115.067C98.0107 115.067 113.489 115.006 123.007 110.834C124.132 110.34 125.516 110.454 126.707 111.139C128.213 112.005 129.208 113.655 129.438 115.666C129.937 120.023 126.224 122.363 125.768 122.633C125.137 123.05 119.428 126.411 97.9458 127.636L97.5716 127.658ZM98.1889 117.096C96.5598 118.314 95.7213 119.622 95.6953 120.987C95.6549 123.106 97.5164 124.956 98.2305 125.586C119.456 124.336 124.594 120.975 124.644 120.941L124.729 120.888C124.85 120.818 127.786 119.087 127.421 115.897C127.207 114.029 126.248 113.217 125.695 112.899C125.07 112.54 124.352 112.461 123.822 112.694C114.588 116.742 100.582 117.069 98.1889 117.096Z" fill="#1E3A59"/>
<path d="M49.1273 91.2121C37.4032 111.924 32.1237 134.667 43.4566 137.385L52.0237 135.073L64.5661 84.8623L49.1273 91.2121Z" fill="white"/>
<g opacity="0.25">
<path d="M54.0537 121.671L45.4866 123.983C41.3554 122.992 39.4338 119.338 39.2251 114.094C35.7763 126.105 36.3508 135.681 43.456 137.385L52.0231 135.073L64.5656 84.8623L63.0976 85.4661L54.0537 121.671Z" fill="#1E3A59"/>
</g>
<path d="M43.4574 138.4C43.3782 138.4 43.2985 138.391 43.2208 138.372C40.4983 137.72 38.5269 136.029 37.3613 133.349C33.3846 124.203 39.9618 105.345 48.2445 90.7121C48.3564 90.5143 48.5316 90.3599 48.7418 90.2732L64.1806 83.9236C64.5334 83.7781 64.9402 83.8432 65.2308 84.0944C65.5207 84.3448 65.6445 84.737 65.5517 85.1087L53.0094 135.32C52.9204 135.677 52.6446 135.958 52.289 136.054L43.7219 138.365C43.6354 138.389 43.5464 138.4 43.4574 138.4ZM49.8395 92.0176C40.306 108.964 36.0407 125.22 39.2236 132.539C40.0982 134.55 41.4829 135.795 43.4508 136.335L51.1843 134.249L63.0952 86.5656L49.8395 92.0176Z" fill="#1E3A59"/>
<path d="M29.8774 74.2661C34.108 80.8724 40.035 86.4507 47.3176 90.3058C48.803 91.0912 50.3394 91.8057 51.93 92.4412C52.703 92.7528 53.4943 93.0432 54.2968 93.321C56.7196 94.1453 59.1637 94.7629 61.6137 95.1832C63.7245 95.5505 65.8406 95.7675 67.9431 95.8477C70.4821 95.9458 73.0064 95.8362 75.4933 95.5363C76.3998 95.4239 77.3008 95.2882 78.1962 95.1293C94.5777 92.1859 108.974 80.8415 114.883 64.2084C123.593 39.7081 110.586 13.0203 85.8382 4.59632C81.0705 2.97727 76.2111 2.14559 71.4157 2.04994C70.8554 2.03347 70.2923 2.03307 69.7299 2.04437C68.2257 2.06442 66.7305 2.15481 65.2481 2.31507C61.8199 2.68675 58.4577 3.42773 55.2233 4.50585C51.9887 5.58007 48.8741 6.99589 45.9451 8.72077C45.0135 9.26862 44.0999 9.84671 43.2048 10.4589C41.8641 11.3768 40.5678 12.3584 39.3208 13.4152C33.0989 18.6583 28.1518 25.5462 25.252 33.7088C20.2408 47.8023 22.4176 62.617 29.8774 74.2661Z" fill="white"/>
<path d="M69.7473 96.0236C69.1424 96.0236 68.5394 96.012 67.9383 95.9888C65.7999 95.9073 63.6641 95.6829 61.5905 95.3223C59.1175 94.8981 56.6484 94.2698 54.2522 93.4546C53.3745 93.1508 52.5982 92.8623 51.8779 92.5723C50.3148 91.9475 48.7583 91.2269 47.2524 90.4307C40.1359 86.6634 34.0869 81.1002 29.7594 74.3424C21.953 62.1515 20.2617 47.3241 25.1198 33.6617C27.927 25.7593 32.8066 18.721 39.2306 13.3075C40.4436 12.2795 41.7542 11.2817 43.1257 10.3426C44.0065 9.74016 44.9312 9.15371 45.8742 8.59925C48.8119 6.86912 51.9427 5.44686 55.1796 4.372C58.4456 3.2833 61.8286 2.54415 65.2337 2.17486C66.7168 2.0146 68.2289 1.92325 69.7286 1.90344C70.3293 1.89119 70.883 1.89317 71.4207 1.90909C76.3147 2.00664 81.1815 2.86586 85.8843 4.46271C97.9378 8.56568 107.601 17.0782 113.093 28.432C118.542 39.6956 119.225 52.4181 115.017 64.2557C109.304 80.3334 95.2056 92.2166 78.2217 95.2681C77.3261 95.4272 76.4142 95.5643 75.5116 95.6762C73.5949 95.9074 71.6632 96.0236 69.7473 96.0236ZM29.9971 74.1901C34.2986 80.9071 40.3107 86.4367 47.3845 90.1812C48.8814 90.9729 50.4286 91.6891 51.9831 92.3102C52.6992 92.5986 53.4712 92.8855 54.3439 93.1877C56.7252 93.9978 59.1795 94.6224 61.6382 95.0441C63.7002 95.4027 65.8232 95.6257 67.9492 95.7068C70.4367 95.8029 72.9703 95.6986 75.4775 95.3961C76.3746 95.285 77.2814 95.1484 78.1723 94.9903C95.0561 91.9566 109.072 80.1436 114.751 64.1613C118.934 52.3953 118.255 39.7501 112.839 28.555C107.38 17.2696 97.7747 8.80853 85.7934 4.73007C81.1182 3.1423 76.2801 2.28833 71.4137 2.19117C70.8783 2.17526 70.3289 2.17367 69.7333 2.18552C68.2418 2.20534 66.7381 2.29629 65.264 2.45535C61.8791 2.8225 58.5159 3.55742 55.2686 4.63968C52.0508 5.70857 48.9382 7.1224 46.0172 8.84243C45.0797 9.39354 44.1608 9.97672 43.285 10.5755C41.9216 11.5091 40.6185 12.5009 39.4129 13.5229C33.0265 18.9045 28.176 25.9009 25.3856 33.7561C20.5569 47.3358 22.2377 62.0735 29.9971 74.1901Z" fill="#1E3A59"/>
<g opacity="0.25">
<path d="M114.881 64.2072C108.973 80.8419 94.5747 92.1874 78.1929 95.1281C77.2978 95.2882 76.3974 95.4241 75.492 95.5354C73.0046 95.8365 70.4807 95.9443 67.942 95.848C65.8393 95.7661 63.7223 95.5505 61.6131 95.1837C59.1617 94.7643 56.7187 94.1463 54.294 93.3221C53.4931 93.0415 52.702 92.753 51.9276 92.443C50.3367 91.8064 48.8017 91.0892 47.3156 90.305C40.0331 86.4497 34.105 80.8736 29.8746 74.2649C27.5499 70.6363 25.7372 66.6973 24.4961 62.5699C28.6794 68.7826 34.394 74.0263 41.3415 77.7047C42.8261 78.4929 44.3626 79.2061 45.9535 79.8427C46.7251 80.1541 47.5163 80.4427 48.3199 80.7219C50.7446 81.5462 53.1875 82.164 55.6362 82.5849C57.7482 82.9503 59.8625 83.1673 61.9651 83.2492C64.5037 83.3454 67.0304 83.2364 69.5152 82.9366C70.4233 82.8238 71.3237 82.688 72.2189 82.5279C88.6006 79.5872 102.996 68.243 108.907 51.607C112.357 41.9032 112.397 31.8573 109.653 22.7402C117.597 34.5222 120.023 49.7465 114.881 64.2072Z" fill="#1E3A59"/>
</g>
<path d="M69.7461 96.9694C69.1291 96.9694 68.5137 96.9575 67.901 96.9338C65.721 96.8507 63.5428 96.622 61.4276 96.2541C58.9075 95.8219 56.3898 95.1812 53.9467 94.3499C53.0496 94.0395 52.2585 93.7455 51.5238 93.4496C49.932 92.8133 48.3448 92.0787 46.8093 91.2668C39.5488 87.4232 33.3773 81.7473 28.962 74.8524C20.9966 62.4136 19.2712 47.2847 24.2277 33.3448C27.0912 25.2846 32.0679 18.1057 38.6202 12.5843C39.8557 11.5372 41.1923 10.5196 42.5906 9.56227C43.4897 8.94742 44.4326 8.34927 45.3938 7.78392C48.3887 6.02052 51.5805 4.57033 54.8803 3.47446C58.2097 2.36483 61.6587 1.61105 65.1306 1.23451C66.6436 1.07115 68.186 0.978053 69.7153 0.957683C70.3237 0.945429 70.8934 0.947181 71.4474 0.963732C76.43 1.06304 81.3927 1.93896 86.1873 3.56732C98.4832 7.75265 108.34 16.4367 113.944 28.0202C119.503 39.5134 120.201 52.4947 115.907 64.5726C110.081 80.9689 95.7052 93.0877 78.3882 96.1989C77.474 96.3613 76.5458 96.5009 75.6269 96.6148C73.6703 96.8509 71.7 96.9694 69.7461 96.9694ZM30.7928 73.6802C35.0065 80.2601 40.8963 85.677 47.8262 89.3454C49.2933 90.1213 50.8097 90.8233 52.3332 91.4322C53.0373 91.7156 53.7949 91.9973 54.6524 92.294C56.9821 93.0863 59.3879 93.6989 61.7976 94.1121C63.8199 94.464 65.9006 94.6823 67.9846 94.7617C70.4238 94.8569 72.9058 94.7538 75.3632 94.4573C76.2413 94.3485 77.1315 94.2144 78.0061 94.0592C94.555 91.0857 108.294 79.508 113.859 63.8446C117.956 52.319 117.292 39.9325 111.987 28.9667C106.639 17.9111 97.228 9.62155 85.488 5.62529C80.9053 4.06918 76.1632 3.23193 71.394 3.13692C70.8659 3.1214 70.3317 3.12005 69.7516 3.13111C68.2829 3.15077 66.8096 3.23973 65.3646 3.39569C62.047 3.75551 58.7502 4.47604 55.5666 5.53713C52.4113 6.58517 49.3597 7.97131 46.4962 9.65752C45.5769 10.1981 44.676 10.7695 43.8181 11.3562C42.4815 12.2715 41.2048 13.2433 40.0236 14.2446C33.7635 19.5197 29.0106 26.3756 26.2761 34.0729C21.546 47.3752 23.1923 61.8115 30.7928 73.6802Z" fill="#1E3A59"/>
<path d="M69.7446 96.898C69.1284 96.898 68.5141 96.8861 67.9022 96.8624C65.7253 96.7795 63.5503 96.551 61.4382 96.1837C58.9221 95.7522 56.4078 95.1123 53.9682 94.2824C53.0727 93.9724 52.2827 93.6788 51.5493 93.3833C49.9594 92.7481 48.3746 92.0143 46.8414 91.2037C39.5917 87.3659 33.4295 81.6986 29.0209 74.8139C21.0676 62.394 19.3448 47.288 24.294 33.3689C27.1528 25.3208 32.1226 18.1525 38.6651 12.639C39.8987 11.5934 41.2332 10.5775 42.6296 9.62148C43.5271 9.00758 44.4689 8.41024 45.4287 7.84583C48.4192 6.08483 51.6068 4.6367 54.9015 3.54242C58.2262 2.43455 61.6702 1.68195 65.1371 1.30582C66.6477 1.14262 68.1879 1.04976 69.7148 1.02939C70.324 1.01713 70.8917 1.01912 71.4441 1.03543C76.4197 1.1345 81.3751 2.00931 86.163 3.63512C98.4403 7.8144 108.283 16.4855 113.878 28.0514C119.429 39.5274 120.126 52.4891 115.838 64.5488C110.021 80.9211 95.6658 93.0218 78.3741 96.1288C77.4614 96.2908 76.5344 96.4303 75.6167 96.5441C73.6634 96.7794 71.6954 96.898 69.7446 96.898ZM30.7311 73.7189C34.9514 80.3091 40.8505 85.7345 47.7912 89.4088C49.2603 90.1856 50.7795 90.8889 52.3053 91.4987C53.01 91.7826 53.7689 92.0644 54.6276 92.3617C56.9607 93.1555 59.3704 93.7687 61.784 94.1828C63.8091 94.5349 65.8932 94.7537 67.9804 94.8333C70.4227 94.9283 72.9097 94.8252 75.3703 94.5283C76.25 94.4193 77.1413 94.2851 78.017 94.1297C94.5915 91.1518 108.351 79.5563 113.925 63.8687C118.029 52.3247 117.363 39.9188 112.05 28.9357C106.693 17.8627 97.2678 9.56013 85.5096 5.55782C80.9202 3.99924 76.1708 3.16056 71.3941 3.06539C70.8653 3.04987 70.3299 3.04788 69.7486 3.05974C68.2784 3.0794 66.8028 3.16851 65.3559 3.32471C62.0327 3.6851 58.7313 4.40658 55.5426 5.46926C52.3823 6.51889 49.3265 7.90734 46.4587 9.59609C45.5379 10.1375 44.6357 10.7099 43.7763 11.2973C42.4378 12.2138 41.1591 13.1873 39.976 14.1901C33.7062 19.4734 28.9459 26.3398 26.2071 34.0489C21.4696 47.3725 23.1185 61.8314 30.7311 73.7189Z" fill="#1E3A59"/>
<path d="M37.6284 83.4791C66.673 100.639 103.549 84.2728 103.35 51.0695C103.215 28.4799 80.7077 11.3297 58.7408 13.004C42.753 14.2226 27.6337 22.3143 22.5867 47.3183C22.5867 47.3183 22.0814 58.7154 25.6863 66.0206C29.2912 73.3258 34.0505 79.8208 34.0505 79.8208L37.6284 83.4791Z" fill="#0056A8"/>
<path d="M103.351 51.0698C103.551 84.2723 66.6742 100.638 37.6308 83.4803L36.9062 82.7379C67.8239 85.9281 97.0793 65.686 97.5104 32.1069C101.139 37.6455 103.309 44.0987 103.351 51.0698Z" fill="#06417B"/>
<path d="M62.3227 96.2982C62.081 96.2982 61.8402 96.2964 61.5981 96.2932L61.4256 96.2772C58.9021 95.8444 56.3832 95.2033 53.9389 94.3719C53.041 94.0612 52.2499 93.7671 51.5148 93.4711C49.9222 92.8346 48.3343 92.0996 46.7985 91.2873C39.534 87.4417 33.3598 81.7632 28.9422 74.8649C20.973 62.4202 19.2467 47.2838 24.2056 33.3371C27.0703 25.2731 32.0497 18.0909 38.6051 12.5667L38.6921 12.4932L38.7928 12.439C44.2987 9.46303 50.8032 7.67092 58.1255 7.1128C71.303 6.10924 85.1905 11.0554 95.2756 20.3463C104.355 28.7101 109.393 39.5964 109.461 51.0001C109.534 63.4165 105.146 74.3718 96.7707 82.682C88.0266 91.3575 75.5056 96.2982 62.3227 96.2982ZM61.7154 94.0746C74.532 94.2194 86.7424 89.5045 95.207 81.1061C103.149 73.2256 107.311 62.8196 107.241 51.0132C107.177 40.2322 102.393 29.9209 93.7714 21.9791C84.1303 13.098 70.865 8.36828 58.294 9.32625C51.3291 9.85715 45.1572 11.5434 39.9481 14.3378C33.7366 19.5985 29.0175 26.4227 26.2973 34.0806C21.5696 47.3763 23.2151 61.805 30.8117 73.6678C35.023 80.2443 40.9101 85.6585 47.8365 89.325C49.3028 90.1005 50.8185 90.8021 52.3411 91.4106C53.0448 91.6941 53.802 91.9756 54.6591 92.2722C56.9601 93.0549 59.3352 93.6618 61.7154 94.0746Z" fill="#1E3A59"/>
<path d="M124.236 47.5023C125.419 56.6728 120.922 65.0896 114.19 66.3003C107.458 67.511 101.042 61.0575 99.8592 51.8869C99.8507 51.8296 99.8445 51.7684 99.8391 51.7103C98.7341 42.6086 103.221 34.2905 109.905 33.0889C115.106 32.1533 120.118 35.7921 122.675 41.7226C123.427 43.469 123.967 45.4168 124.236 47.5023Z" fill="white"/>
<g opacity="0.25">
<path d="M124.239 47.5024C125.422 56.6729 120.925 65.0897 114.193 66.3003C107.461 67.5111 101.045 61.0576 99.8619 51.887C99.8534 51.8297 99.8472 51.7685 99.8418 51.7104C100.703 52.5184 101.975 53.238 103.495 52.645C106.158 51.6051 110.303 44.8258 110.303 44.8258C110.303 44.8258 115.66 43.4452 122.678 41.7227C123.429 43.4691 123.97 45.4169 124.239 47.5024Z" fill="#1E3A59"/>
</g>
<path d="M112.545 67.5574C110.232 67.5574 107.957 66.7753 105.876 65.2505C102.079 62.4688 99.4852 57.6494 98.7602 52.0281C97.5049 42.2942 102.418 33.308 109.712 31.9965C112.647 31.4676 115.592 32.209 118.225 34.1379C122.021 36.9196 124.615 41.739 125.34 47.3603C126.596 57.0941 121.683 66.0803 114.388 67.3919C113.773 67.5027 113.158 67.5574 112.545 67.5574ZM111.541 34.0526C111.062 34.0526 110.583 34.0953 110.105 34.1812C103.957 35.2867 99.8556 43.1655 100.962 51.7441C101.6 56.6915 103.928 61.0713 107.188 63.4598C109.319 65.0209 111.673 65.6251 113.995 65.2072C120.143 64.1015 124.245 56.2227 123.139 47.6443C122.501 42.6969 120.173 38.3171 116.913 35.9286C115.22 34.6888 113.387 34.0526 111.541 34.0526Z" fill="#1E3A59"/>
<path d="M116.614 63.8562C122.168 63.6767 126.478 57.5749 126.241 50.2275C126.003 42.88 121.308 37.0692 115.754 37.2487C110.2 37.4282 105.89 43.53 106.127 50.8775C106.365 58.2249 111.06 64.0357 116.614 63.8562Z" fill="white"/>
<path d="M116.378 64.0185C115.468 64.0185 114.551 63.8553 113.642 63.5274C108.199 61.5622 104.896 54.1513 106.28 47.0071C107.051 43.0242 109.135 39.8079 111.996 38.1829C114.125 36.974 116.447 36.7676 118.713 37.5853C124.157 39.5505 127.46 46.9614 126.076 54.1054C125.304 58.088 123.221 61.3043 120.359 62.9296C119.084 63.6539 117.739 64.0185 116.378 64.0185ZM115.978 37.3882C114.667 37.3882 113.371 37.7397 112.141 38.4378C109.354 40.0208 107.323 43.1643 106.568 47.0627C105.21 54.0713 108.429 61.3334 113.742 63.2516C115.924 64.0394 118.163 63.8402 120.214 62.6748C123.001 61.0919 125.033 57.9483 125.788 54.0499C127.145 47.0415 123.927 39.7794 118.614 37.8613C117.739 37.5454 116.855 37.3882 115.978 37.3882Z" fill="#1E3A59"/>
<g opacity="0.25">
<path d="M107.471 57.3968C106.54 55.0543 106.259 52.4468 106.539 49.9259C109.118 55.0876 114.392 56.633 118.745 53.3122C121.558 51.1675 123.337 47.4816 123.769 43.5806C123.934 43.9051 124.085 44.2492 124.227 44.6042C126.594 50.5704 124.761 58.271 120.134 61.8033C115.506 65.3356 109.837 63.3596 107.471 57.3968Z" fill="#1E3A59"/>
</g>
<path d="M116.68 64.9734C114.977 64.9734 113.291 64.3925 111.738 63.2594C108.673 61.0226 106.487 56.84 105.891 52.0705C104.886 44.0304 108.653 36.628 114.288 35.5694C116.46 35.1611 118.653 35.7084 120.632 37.152C123.697 39.3887 125.883 43.5714 126.479 48.3408C127.484 56.3809 123.717 63.7833 118.082 64.8419C117.615 64.9297 117.147 64.9734 116.68 64.9734ZM115.675 37.66C115.348 37.66 115.022 37.6901 114.698 37.7512C110.194 38.5974 107.232 44.8975 108.094 51.7955C108.615 55.9683 110.466 59.5837 113.047 61.4661C114.517 62.5395 116.117 62.9523 117.672 62.6603C122.175 61.8142 125.137 55.5136 124.276 48.6159C123.755 44.4431 121.903 40.8277 119.323 38.9453C118.159 38.0958 116.914 37.66 115.675 37.66Z" fill="#1E3A59"/>
<g opacity="0.5">
<path d="M69.5601 23.756C69.5601 23.756 50.0413 26.4847 40.0468 38.4453C40.0363 38.4579 40.0258 38.4705 40.0153 38.483C37.9139 41.0021 36.5372 44.0329 36.0062 47.2461C35.304 51.4953 35.4497 54.5207 35.6821 57.1784C36.3927 65.2608 38.258 68.9061 38.258 68.9061C33.2235 65.0676 30.1719 60.4631 29.5124 53.7371C29.4492 53.0739 29.4088 52.3875 29.3899 51.6815C29.385 51.5189 29.3838 51.3576 29.385 51.195C29.3813 51.1938 29.3826 51.1901 29.3865 51.1852C29.45 49.7519 29.6054 47.871 29.9603 45.7626C31.0265 39.403 33.8878 30.9714 41.4514 26.4802C55.594 18.0824 70.1606 22.8494 69.5601 23.756Z" fill="white"/>
</g>
<g opacity="0.5">
<path d="M89.0476 48.3386C92.331 47.0974 93.8369 43.0337 92.4111 39.2621C90.9854 35.4905 87.1679 33.4392 83.8845 34.6804C80.6012 35.9216 79.0952 39.9852 80.521 43.7568C81.9467 47.5284 85.7642 49.5797 89.0476 48.3386Z" fill="white"/>
</g>
<g opacity="0.5">
<path d="M92.3762 56.6641C93.678 56.028 94.1406 54.2992 93.4094 52.8027C92.6783 51.3062 91.0302 50.6087 89.7283 51.2448C88.4265 51.8808 87.9638 53.6096 88.695 55.1062C89.4262 56.6027 91.0743 57.3002 92.3762 56.6641Z" fill="white"/>
</g>
<path d="M79.7687 101.406C79.0254 103.778 76.9663 105.479 74.156 105.223C70.907 110.657 69.3475 117.659 68.9739 125.765C61.6433 134.298 53.1066 138.96 42.4785 136.901L42.2754 127.357C42.3729 125.473 42.5231 123.617 42.7262 121.793C43.8877 111.275 46.7753 101.715 51.6162 93.2428C52.4528 90.1359 53.6265 87.4555 55.3403 85.4493C56.3353 84.2837 58.2523 84.5314 58.8371 85.9448C59.0402 86.4362 59.1457 87.0332 59.1295 87.7601C64.8152 83.6989 72.5316 81.6683 74.9683 88.9785C77.405 88.9785 79.0295 92.2275 77.8112 93.8519C79.996 96.236 80.4876 99.1316 79.7687 101.406Z" fill="white"/>
<g opacity="0.25">
<path d="M79.7687 101.406C79.0254 103.778 76.9663 105.48 74.156 105.224C70.907 110.658 69.3475 117.659 68.9739 125.765C61.6433 134.298 53.1066 138.96 42.4785 136.901L42.2754 127.357C42.3729 125.473 42.5231 123.617 42.7262 121.794L42.8196 121.745C43.6237 124.559 46.958 125.83 49.882 125.851C54.7758 125.879 59.7468 123.296 62.0332 118.975C62.8131 117.501 63.2719 115.889 63.8283 114.321C65.4162 109.801 67.8165 105.569 70.8704 101.877C71.6055 100.992 72.4259 100.103 73.5102 99.7168C74.5946 99.3309 76.0079 99.6274 76.5319 100.655C76.6983 100.988 76.7673 101.374 76.9989 101.67C77.3644 102.137 78.0549 102.239 78.6234 102.068C79.0499 101.942 79.4194 101.691 79.7687 101.406Z" fill="#1E3A59"/>
</g>
<path d="M41.8628 127.336C41.5212 115.723 45.2077 102.053 50.5827 92.9649C51.3386 90.1538 52.4612 87.2264 54.4195 84.8994C54.5914 84.6669 54.8794 84.4102 55.1198 84.2322C56.6753 83.0999 59.0983 83.7309 59.7951 85.5522C60.0985 86.313 60.1642 87.0748 60.1461 87.7803L58.5409 86.9342C63.0005 83.6479 70.9373 80.5699 74.7899 86.2848C75.2911 87.0344 75.6551 87.8419 75.933 88.6577L74.9699 87.9635C75.7415 87.9634 76.5003 88.2195 77.1067 88.6249C78.9215 89.8612 79.985 92.4776 78.6251 94.4614L78.5611 93.1663C80.5335 95.2896 81.5937 98.3767 80.8618 101.268C80.1874 104.331 77.2527 106.617 74.0657 106.235L75.0289 105.745C73.2734 108.697 72.0992 111.999 71.3238 115.394C70.5487 118.796 70.1588 122.297 69.9906 125.812C69.9803 126.047 69.8895 126.262 69.7464 126.427C66.3725 130.334 62.4174 133.867 57.6847 136.082C52.9444 138.361 47.4238 138.932 42.2869 137.898C41.7362 137.792 41.3756 137.26 41.4813 136.71C41.5873 136.158 42.1216 135.797 42.6729 135.905C45.0613 136.362 47.5007 136.497 49.8975 136.226C52.2952 135.961 54.6343 135.267 56.827 134.241C61.2674 132.162 65.0072 128.808 68.2061 125.104L67.9621 125.718C68.135 122.113 68.5344 118.497 69.3445 114.942C70.1554 111.393 71.3919 107.888 73.2871 104.701C73.4928 104.355 73.8738 104.177 74.2495 104.212C76.4797 104.474 78.4049 102.932 78.8911 100.778C79.4457 98.5701 78.6046 96.1977 77.0642 94.5382C76.7332 94.1701 76.7189 93.6269 77.0003 93.2429C77.5764 92.3274 76.8461 90.8709 75.9895 90.3206C75.6642 90.1052 75.316 89.9959 74.9624 89.9939C74.5174 89.9897 74.1415 89.6988 74.0064 89.2997C73.5501 87.9415 72.8084 86.7322 71.7328 86.0003C68.0284 83.6935 62.9501 86.3559 59.7212 88.5863C59.0805 89.0755 58.0957 88.5557 58.1159 87.7634C58.0884 86.956 58.0633 86.0474 57.2265 85.7949C56.8414 85.7034 56.4235 85.8238 56.1716 86.1157C56.1235 86.1617 55.9755 86.354 55.9189 86.4209C54.3196 88.4734 53.361 90.9393 52.6511 93.5268C49.7723 98.7268 47.4157 104.228 45.8792 109.988C44.3362 115.686 43.4668 121.517 42.691 127.379C42.6615 127.607 42.453 127.768 42.2254 127.738C42.019 127.712 41.8677 127.537 41.8628 127.336Z" fill="#1E3A59"/>
<path d="M72.4706 106.478C73.2453 104.448 74.3056 102.388 76.0016 100.977C76.1133 100.881 76.2829 100.895 76.3769 101.008C76.4602 101.109 76.4567 101.252 76.375 101.348C75.0426 102.925 74.425 104.927 74.0341 106.924C73.7692 108.061 72.0954 107.586 72.4706 106.478Z" fill="#1E3A59"/>
<path d="M75.6048 90.1141C74.4448 89.888 73.3674 89.3903 72.1772 89.2668C70.9268 89.1004 69.6393 89.1385 68.383 89.404C68.111 89.4615 67.8437 89.2875 67.7864 89.0155C67.7354 88.7744 67.8664 88.5372 68.0861 88.4464C69.3626 87.917 70.7513 87.6211 72.137 87.5913C73.5242 87.5574 74.8967 87.7803 76.1915 88.1701C76.7263 88.3311 77.0292 88.8951 76.8684 89.4298C76.7066 89.9764 76.1353 90.2538 75.6048 90.1141Z" fill="#1E3A59"/>
<path d="M61.0729 87.6863C59.2558 89.0177 57.2966 90.0873 55.5352 91.5089C55.18 91.786 54.6972 91.3297 54.9486 90.9606C56.2681 88.9555 58.1026 87.3353 60.0326 85.9423C60.4831 85.6171 61.1119 85.7188 61.4371 86.1693C61.8185 86.6961 61.594 87.3601 61.0729 87.6863Z" fill="#1E3A59"/>
<path d="M69.3112 122.173C69.1523 122.173 68.9914 122.126 68.8504 122.029C62.7854 117.842 54.7373 116.375 43.5316 117.408C43.0859 117.448 42.6892 117.121 42.648 116.674C42.6068 116.228 42.9355 115.832 43.3824 115.791C54.993 114.72 63.3775 116.277 69.7736 120.692C70.1427 120.947 70.2352 121.453 69.9803 121.822C69.8229 122.051 69.5692 122.173 69.3112 122.173Z" fill="#1E3A59"/>
<path d="M108.273 105.223C114.663 136.202 105.301 153.155 70.5033 147.46C67.8989 149.656 65.1823 150.053 62.3808 149.085C56.6951 164.111 34.7644 149.897 41.6686 137.713C42.6731 136.188 43.7183 134.764 44.8033 133.439C48.7049 128.674 54.4858 125.845 60.6422 125.677C64.959 125.559 69.5512 125.726 74.3313 126.086C77.2355 126.305 80.0898 124.97 81.6146 122.489C86.8511 113.967 81.2876 98.155 95.6829 95.0703C100.692 95.7153 105.017 98.6663 108.273 105.223Z" fill="white"/>
<g opacity="0.25">
<path d="M67.3237 143.574C66.9893 143.676 66.6533 143.754 66.3159 143.807C63.9998 144.173 61.8255 145.251 60.2756 147.011C54.471 153.6 43.0808 147.816 40.758 139.826C37.2312 151.433 57.0193 163.249 62.3786 149.085C65.1801 150.053 67.8967 149.656 70.5011 147.46C99.9476 152.279 111.178 140.879 110.064 118.488C109.138 135.389 99.3853 144.431 77.4685 142.643C74.0574 142.365 70.5953 142.569 67.3237 143.574Z" fill="#1E3A59"/>
</g>
<path d="M108.501 105.176C109.526 108.077 109.915 111.122 110.312 114.153C111.027 120.25 111.168 126.533 109.483 132.519C105.596 146.603 92.6434 150.142 79.5043 149.456C76.4254 149.293 73.3719 148.926 70.3383 148.462L71.1565 148.237C68.7082 150.413 65.1802 151.233 62.0481 150.044L63.3292 149.444C62.3674 151.899 60.7875 154.228 58.3822 155.479C51.1077 159.12 41.9426 153.047 39.7796 145.838C38.9109 142.971 39.299 139.746 40.8252 137.141C41.3533 136.386 41.8717 135.571 42.4273 134.848C45.9787 129.648 51.5965 125.818 57.8853 124.948C60.3704 124.584 62.8018 124.678 65.2779 124.7C68.2959 124.756 71.3663 124.935 74.3753 125.17C78.8571 125.444 81.28 122.515 82.3786 118.474C84.8468 109.363 82.8751 96.4388 95.6004 94.6909C95.8134 94.6628 96.009 94.8129 96.037 95.026C96.0616 95.2115 95.9509 95.3837 95.7814 95.4437C90.988 96.9192 87.79 99.7483 86.5279 104.685C84.6122 110.959 85.8416 121.28 79.9667 125.472C78.2983 126.618 76.2476 127.144 74.2376 126.999L72.4397 126.88C67.7102 126.661 62.8784 126.332 58.1787 126.884C52.3825 127.716 47.3152 131.238 44.0604 136.049C43.4124 136.967 42.6694 137.896 42.2074 138.927C40.1836 143.019 42.1196 147.908 45.3334 150.824C50.5963 155.714 58.5654 156.452 61.43 148.725C61.6297 148.211 62.2008 147.952 62.715 148.126C63.9521 148.559 65.2397 148.692 66.461 148.431C67.6938 148.177 68.8489 147.524 69.8705 146.666C70.1034 146.482 70.3946 146.416 70.6662 146.458C73.6353 146.928 76.6174 147.303 79.6066 147.478C97.1191 148.456 108.632 141.983 109.418 123.29C109.56 120.297 109.42 117.282 109.113 114.284C108.836 111.277 108.222 108.325 108.042 105.271C108.034 105.14 108.133 105.027 108.264 105.019C108.372 105.013 108.466 105.08 108.501 105.176Z" fill="#1E3A59"/>
<path d="M97.5315 146.778C97.4141 146.778 97.2952 146.757 97.179 146.714C96.653 146.52 96.3845 145.935 96.5791 145.41C98.1799 141.086 97.2296 135.343 94.0987 130.42C91.0899 125.689 86.7317 122.755 82.1415 122.372C81.5829 122.325 81.1679 121.835 81.2145 121.276C81.2611 120.717 81.7534 120.3 82.3109 120.349C87.5387 120.785 92.4599 124.059 95.8121 129.33C99.2763 134.777 100.3 141.209 98.4837 146.115C98.3319 146.524 97.9441 146.778 97.5315 146.778Z" fill="#1E3A59"/>
<path d="M77.8711 95.5149C76.3784 93.68 73.7432 93.9019 71.5907 94.3525C70.9571 94.5569 70.6202 93.6401 71.2424 93.3988C73.7042 92.4447 77.0513 92.0031 79.212 93.9899C80.4887 94.942 78.9455 96.6831 77.8711 95.5149Z" fill="#1E3A59"/>
<g opacity="0.25">
<path d="M69.5259 152.541L69.469 152.878C69.3553 152.748 69.3351 152.484 69.5259 152.541Z" fill="#1E3A59"/>
</g>
<g opacity="0.25">
<path d="M29.8139 143.61L28.3438 144.89C28.7742 144.374 29.2697 143.947 29.8139 143.61Z" fill="#1E3A59"/>
</g>
<path d="M26.6541 231.706C26.581 232.535 26.2196 233.331 25.6185 233.932C23.8316 235.723 20.7857 237.104 18.7022 238.964C17.8169 239.756 16.6553 240.154 15.4776 240.008L12.5697 239.642C11.8955 239.557 11.258 239.293 10.726 238.883C10.4822 238.704 10.2589 238.493 10.0599 238.253C8.37041 236.21 6.5997 234.557 4.76406 233.221C2.79028 231.784 1.73029 229.391 2.05924 226.971C2.29486 225.216 2.89181 223.413 3.69191 221.578L3.36701 221.143C2.80253 220.392 2.73752 219.368 3.20867 218.552C5.96217 213.76 9.64969 212.204 13.8247 212.33C15.7863 212.387 17.6666 213.155 19.1164 214.475C23.1858 218.191 25.391 223.933 26.6094 230.752C26.6663 231.069 26.6785 231.39 26.6541 231.706Z" fill="#B4C2D1"/>
<path d="M15.9552 241.052C15.7536 241.052 15.5519 241.039 15.3506 241.014L12.4428 240.651C11.2049 240.496 10.0802 239.875 9.27506 238.901C7.70534 237.002 5.98651 235.367 4.16622 234.041C1.87002 232.37 0.67604 229.608 1.05019 226.835C1.25922 225.286 1.74373 223.608 2.52736 221.718C1.74015 220.641 1.65979 219.205 2.32493 218.047C5.01319 213.368 8.78314 211.165 13.8539 211.314C16.0554 211.378 18.1671 212.235 19.7997 213.726C23.659 217.251 26.2133 222.762 27.6077 230.572C27.8727 232.06 27.3972 233.583 26.3353 234.649C25.3185 235.67 23.9485 236.551 22.6236 237.402C21.4836 238.135 20.3048 238.893 19.3773 239.722C18.4135 240.583 17.1931 241.052 15.9552 241.052ZM13.38 213.337C9.28405 213.337 6.32342 215.164 4.08586 219.058C3.81818 219.524 3.8543 220.104 4.17712 220.534C4.17712 220.534 4.17752 220.534 4.17752 220.534L4.50313 220.969C4.72227 221.261 4.76731 221.649 4.62162 221.983C3.77617 223.923 3.26602 225.599 3.0628 227.107C2.78811 229.14 3.6689 231.168 5.3614 232.4C7.31918 233.825 9.16246 235.578 10.8402 237.607C11.3138 238.18 11.9724 238.546 12.6947 238.636L15.6024 238.999C16.4595 239.107 17.3415 238.818 18.0245 238.207C19.0716 237.272 20.3192 236.47 21.5252 235.694C22.816 234.864 24.0352 234.081 24.8969 233.216C25.4914 232.619 25.7575 231.764 25.6083 230.929C24.2954 223.575 21.9475 218.438 18.4305 215.225C17.1565 214.062 15.5103 213.394 13.7949 213.344C13.6555 213.339 13.5168 213.337 13.38 213.337Z" fill="#1E3A59"/>
<path d="M11.1501 215.097C11.7661 215.442 12.3565 215.802 12.8291 216.336C13.3212 216.893 13.632 217.567 13.9049 218.251C14.5215 219.796 14.6429 221.477 15.1292 223.06C15.3792 223.874 15.8094 224.622 16.042 225.439C16.2935 226.323 16.0661 227.198 15.7462 228.032C15.204 229.445 14.3099 230.665 13.6559 232.019C13.2925 232.772 12.9024 233.512 12.61 234.297C12.3403 235.021 12.0626 235.848 12.2722 236.619C12.322 236.802 12.6081 236.859 12.6985 236.675C13.0313 235.994 13.1354 235.224 13.4099 234.518C13.7078 233.751 14.1044 233.048 14.5364 232.352C15.3761 230.999 16.2121 229.571 16.7497 228.067C17.0521 227.222 17.2164 226.327 17.0286 225.437C16.8414 224.55 16.354 223.751 16.0821 222.89C15.55 221.205 15.4225 219.383 14.6759 217.767C14.0826 216.483 12.7337 214.894 11.1862 214.964C11.1178 214.967 11.0858 215.061 11.1501 215.097Z" fill="#1E3A59"/>
<path d="M16.3717 225.424C16.6735 225.681 17.1042 225.717 17.4734 225.825C17.8911 225.947 18.2912 226.11 18.6643 226.335C19.4818 226.827 19.987 227.501 20.3812 228.353C20.8038 229.266 21.2864 230.007 22.0865 230.631C22.8219 231.205 23.5774 231.629 24.5204 231.665C24.6614 231.671 24.7838 231.487 24.693 231.365C24.4113 230.984 24.1359 230.703 23.7438 230.431C23.3567 230.161 22.9554 229.906 22.6007 229.595C21.8263 228.914 21.4426 228.026 20.8883 227.182C20.4003 226.439 19.7193 225.822 18.9307 225.41C18.3093 225.085 17.0711 224.55 16.4198 225.05C16.3093 225.135 16.2421 225.314 16.3717 225.424Z" fill="#1E3A59"/>
<g opacity="0.25">
<path d="M26.6528 231.706C26.5796 232.535 26.2182 233.331 25.6171 233.932C23.8303 235.723 20.7843 237.104 18.7008 238.964C17.8155 239.756 16.6539 240.154 15.4763 240.008L12.5684 239.642C11.8942 239.557 11.2566 239.293 10.7246 238.883C11.6262 237.299 12.4303 235.662 13.1411 233.981C13.5025 233.128 13.8396 232.259 14.3228 231.471C14.7209 230.821 15.2164 230.236 15.5982 229.574C16.3982 228.193 16.658 226.569 16.9058 224.989C18.1811 224.672 19.436 225.623 20.1873 226.699C20.9386 227.775 21.4382 229.046 22.4047 229.936C23.554 230.988 25.1216 231.308 26.6528 231.706Z" fill="#1E3A59"/>
</g>
<path d="M118.751 244.02C117.626 245.421 116.229 246.632 115.108 248.122C114.32 249.162 113.11 249.787 111.81 249.872C111.778 249.876 111.745 249.876 111.713 249.876C109.836 249.994 107.806 249.921 105.678 249.726C104.772 249.645 103.899 249.349 103.131 248.869C102.169 248.264 101.348 247.614 100.666 246.92C99.8091 246.047 98.6517 245.539 97.4293 245.539H89.6683C88.6489 245.539 87.658 245.19 86.8701 244.54C86.2935 244.069 85.7777 243.594 85.3187 243.123C84.206 241.969 83.9622 240.239 84.6892 238.81C86.2651 235.707 88.5677 233.014 91.5202 230.695C91.8653 230.423 92.2391 230.208 92.6371 230.054C93.5387 229.68 94.5418 229.599 95.5166 229.81C97.1004 230.159 98.6153 230.338 99.9433 230.106L102.607 228.011L104.021 226.902C105.125 226.033 106.502 225.57 107.875 225.623C108.403 225.643 108.927 225.74 109.438 225.915C113.979 227.479 117.171 233.359 119.445 239.285C120.059 240.877 119.815 242.688 118.751 244.02Z" fill="#B4C2D1"/>
<path d="M109.827 250.95C108.533 250.95 107.129 250.88 105.583 250.739C104.526 250.643 103.491 250.294 102.591 249.73C101.567 249.087 100.675 248.381 99.9387 247.629C99.2603 246.936 98.3686 246.555 97.4279 246.555H89.6674C88.4077 246.555 87.1838 246.118 86.2218 245.326C85.6203 244.831 85.071 244.327 84.5889 243.829C83.1815 242.375 82.8571 240.174 83.7822 238.352C85.3892 235.186 87.7802 232.341 90.8893 229.897C92.2402 228.835 94.0069 228.443 95.7308 228.82C97.3211 229.167 98.5353 229.272 99.5245 229.143L103.392 226.105C105.248 224.646 107.631 224.216 109.77 224.954C113.85 226.362 117.324 230.931 120.392 238.92C121.14 240.867 120.813 243.064 119.54 244.655C118.999 245.331 118.4 245.962 117.82 246.571C117.166 247.26 116.489 247.972 115.915 248.733C114.964 249.996 113.491 250.78 111.875 250.886C111.223 250.928 110.542 250.95 109.827 250.95ZM94.4433 230.711C93.6044 230.711 92.7971 230.981 92.1443 231.493C89.2691 233.754 87.065 236.37 85.5928 239.271C85.0602 240.321 85.2428 241.585 86.0474 242.416C86.0474 242.416 86.0478 242.416 86.0478 242.416C86.4772 242.86 86.9702 243.311 87.5126 243.758C88.1121 244.252 88.8775 244.524 89.6674 244.524H97.4279C98.9191 244.524 100.326 245.122 101.389 246.209C102.014 246.846 102.781 247.452 103.67 248.009C104.301 248.405 105.026 248.649 105.767 248.717C108.06 248.925 110.014 248.972 111.742 248.86C112.768 248.792 113.698 248.301 114.294 247.511C114.937 246.657 115.655 245.902 116.348 245.172C116.924 244.567 117.468 243.994 117.955 243.386C118.779 242.356 118.987 240.924 118.497 239.648C115.697 232.355 112.537 228.057 109.107 226.874C107.648 226.37 105.938 226.686 104.647 227.701L100.569 230.905C100.437 231.008 100.282 231.077 100.117 231.106C98.8165 231.334 97.2849 231.238 95.2972 230.804C95.0121 230.741 94.7258 230.711 94.4433 230.711Z" fill="#1E3A59"/>
<path d="M109.852 227.836C110.813 229.412 111.787 231 112.498 232.713C113.181 234.362 113.667 236.113 113.89 237.886C114.003 238.781 114.128 239.714 114.126 240.617C114.124 241.53 114.151 242.415 113.94 243.312C113.735 244.181 113.369 245.058 113.04 245.89C112.859 246.346 112.662 246.794 112.44 247.232C112.274 247.56 112.078 247.882 112.059 248.255C112.055 248.333 112.151 248.387 112.216 248.345C112.743 248.008 112.982 247.256 113.216 246.704C113.499 246.037 113.751 245.337 113.903 244.628C114.056 243.909 114.107 243.15 114.222 242.421C114.275 242.085 114.382 241.764 114.438 241.43C114.496 241.077 114.498 240.716 114.527 240.36C114.761 237.424 114.016 234.508 112.801 231.844C112.105 230.318 111.25 228.868 110.143 227.611C110.004 227.452 109.743 227.658 109.852 227.836Z" fill="#1E3A59"/>
<path d="M93.4682 231.307C94.1634 231.613 94.7572 232.11 95.1504 232.765C95.6119 233.533 95.6556 234.385 95.6621 235.26C95.6718 236.58 95.7766 238.195 97.1125 238.879C97.6881 239.173 98.4567 239.301 99.1013 239.288C99.7399 239.275 100.119 238.897 100.229 238.28C100.547 236.502 100.634 234.689 101.032 232.922C101.236 232.016 101.528 231.134 101.971 230.316C102.385 229.553 102.982 228.93 103.484 228.229C103.539 228.151 103.447 228.039 103.36 228.068C102.117 228.48 101.38 229.83 100.926 230.974C100.309 232.531 100.147 234.216 99.9217 235.863C99.8648 236.279 99.8074 236.695 99.7503 237.111C99.6977 237.494 99.7047 237.948 99.567 238.312C99.3161 238.975 97.837 238.54 97.3691 238.29C95.8994 237.502 96.4026 235.318 96.2139 233.98C96.0081 232.52 95.0457 231.338 93.681 230.802C93.3924 230.689 93.182 231.181 93.4682 231.307Z" fill="#1E3A59"/>
<g opacity="0.25">
<path d="M118.751 244.02C117.626 245.421 116.229 246.632 115.108 248.122C114.32 249.162 113.11 249.787 111.81 249.873C111.778 249.877 111.745 249.877 111.713 249.877C112.42 248.362 113.057 246.814 113.634 245.243C114.036 244.138 114.41 243.013 114.535 241.844C114.722 240.101 114.357 238.355 113.955 236.649C113.455 234.533 112.89 232.401 111.839 230.496C110.823 228.657 109.39 227.097 107.875 225.623C108.403 225.643 108.927 225.741 109.439 225.915C113.979 227.479 117.171 233.36 119.445 239.285C120.059 240.877 119.815 242.688 118.751 244.02Z" fill="#1E3A59"/>
</g>
<g opacity="0.25">
<path d="M102.607 228.011C102.4 228.608 102.132 229.193 101.884 229.773C100.905 232.084 100.264 234.541 99.9916 237.035C99.9226 237.66 99.7683 238.432 99.1591 238.598C98.9601 238.655 98.7489 238.631 98.5458 238.602C97.9244 238.521 97.2462 238.412 96.8198 237.953C96.2878 237.388 96.3324 236.523 96.2796 235.751C96.1213 233.404 94.6673 231.215 92.6367 230.054C93.5383 229.68 94.5414 229.599 95.5162 229.81C97.1001 230.159 98.6149 230.338 99.9429 230.106L102.607 228.011Z" fill="#1E3A59"/>
</g>
<path d="M53.3281 211.111C53.3949 211.992 53.7384 212.803 54.056 213.62C54.3776 214.447 54.7165 215.269 54.987 216.115C55.5855 217.985 55.5365 219.826 55.0277 221.716C54.5187 223.605 53.7959 225.431 53.2837 227.322C52.7691 229.222 52.3493 231.16 52.0893 233.112C51.8026 235.264 51.4162 237.613 52.0306 239.73C52.0707 239.868 52.2636 239.863 52.3059 239.73C52.9097 237.833 52.8851 235.792 53.1768 233.83C53.4728 231.837 53.8449 229.86 54.3561 227.911C54.8608 225.986 55.5834 224.122 56.0296 222.183C56.4621 220.303 56.4807 218.507 55.914 216.654C55.6294 215.724 55.2335 214.832 54.8398 213.944C54.4129 212.981 54.066 211.979 53.594 211.039C53.5319 210.915 53.3175 210.971 53.3281 211.111Z" fill="#1E3A59"/>
<path d="M73.6809 235.507C75.1329 233.967 75.816 231.793 76.1825 229.751C76.6091 227.374 76.6088 224.951 76.6919 222.545C76.7736 220.18 76.9987 217.848 77.7065 215.579C78.3318 213.575 79.181 211.674 80.3326 209.915C80.9631 208.951 81.6681 208.04 82.4464 207.192C83.1996 206.371 84.1686 205.658 84.5827 204.594C84.6254 204.484 84.5042 204.411 84.4129 204.424C83.3978 204.574 82.6481 205.337 81.9629 206.045C81.2398 206.791 80.5721 207.592 79.9604 208.432C78.7185 210.137 77.7351 212.029 77.0231 214.014C76.2756 216.097 75.9492 218.306 75.867 220.512C75.7716 223.068 75.9842 225.637 75.7552 228.188C75.6443 229.423 75.4348 230.654 75.0688 231.841C74.6871 233.078 74.0958 234.206 73.4118 235.299C73.309 235.464 73.5469 235.649 73.6809 235.507Z" fill="#1E3A59"/>
<path d="M94.9731 201.832C94.8037 202.721 94.9565 203.738 95.0959 204.626C95.2396 205.542 95.5016 206.456 95.9776 207.258C96.9645 208.919 98.8427 209.672 100.248 210.908C102.91 213.251 104.657 216.53 105.244 220.016C105.409 220.993 105.472 221.989 105.44 222.979C105.425 223.464 105.388 223.95 105.322 224.431C105.287 224.694 105.235 224.953 105.19 225.214C105.145 225.475 105.221 225.714 105.199 225.978C105.168 226.362 105.693 226.36 105.816 226.061C105.893 225.874 106.034 225.73 106.103 225.541C106.167 225.366 106.177 225.156 106.206 224.972C106.282 224.503 106.339 224.029 106.372 223.555C106.433 222.692 106.418 221.823 106.332 220.962C106.155 219.193 105.695 217.475 104.982 215.847C104.271 214.225 103.293 212.712 102.095 211.406C101.498 210.756 100.845 210.163 100.145 209.626C99.3544 209.02 98.457 208.551 97.7024 207.9C96.8399 207.156 96.3521 206.17 96.0945 205.074C95.9723 204.554 95.8982 204.024 95.8462 203.493C95.7922 202.941 95.8137 202.369 95.6706 201.832C95.5831 201.503 95.0417 201.472 94.9731 201.832Z" fill="#1E3A59"/>
<path d="M110.699 226.707C110.897 224.932 111.413 223.346 112.326 221.805C113.216 220.301 114.318 218.931 115.469 217.622C117.813 214.955 120.467 212.509 123.267 210.326C124.558 209.319 125.821 208.31 126.411 206.726C127.013 205.112 126.836 203.322 126.563 201.661C125.963 198.021 124.574 194.324 125.673 190.639C126.243 188.727 127.264 186.992 127.922 185.114C128.537 183.358 129.001 181.1 128.078 179.374C127.805 178.864 127.092 179.232 127.19 179.748C127.355 180.608 127.49 181.442 127.412 182.321C127.333 183.2 127.09 184.065 126.793 184.893C126.192 186.573 125.309 188.137 124.729 189.826C123.494 193.424 124.464 197.009 125.192 200.598C125.532 202.273 125.896 204.095 125.485 205.79C125.081 207.451 123.798 208.453 122.517 209.463C119.728 211.662 117.236 214.139 114.972 216.875C113.764 218.335 112.548 219.834 111.594 221.475C110.696 223.021 109.915 224.885 110.099 226.707C110.138 227.094 110.656 227.091 110.699 226.707Z" fill="#1E3A59"/>
<path d="M120.577 211.565C120.566 212.337 120.774 213.125 120.836 213.895C120.9 214.689 120.895 215.486 120.861 216.281C120.791 217.894 120.608 219.501 120.585 221.116C120.539 224.263 121.422 227.177 123.303 229.713C123.818 230.407 124.396 231.054 124.821 231.81C125.024 232.17 125.195 232.557 125.244 232.971C125.287 233.338 125.209 233.696 125.294 234.06C125.328 234.204 125.512 234.277 125.636 234.199C126.885 233.42 125.677 231.401 125.092 230.587C124.161 229.292 123.18 228.104 122.512 226.637C121.821 225.117 121.508 223.493 121.474 221.829C121.439 220.154 121.635 218.487 121.714 216.816C121.759 215.873 121.773 214.925 121.692 213.982C121.62 213.139 121.518 212.16 121.029 211.443C120.897 211.249 120.58 211.314 120.577 211.565Z" fill="#1E3A59"/>
<path d="M136.556 239.06C137.146 237.86 136.387 236.676 135.919 235.575C135.565 234.74 135.489 233.984 135.672 233.089C135.851 232.213 136.059 231.346 136.217 230.466C136.849 226.94 137.228 223.368 137.341 219.788C137.398 218.001 137.387 216.212 137.326 214.425C137.265 212.654 137.083 210.895 136.983 209.127C136.885 207.401 137.056 205.769 137.721 204.163C138.322 202.709 139.145 201.359 139.752 199.907C140.315 198.561 140.636 197.092 140.471 195.629C140.331 194.393 139.807 192.754 138.468 192.389C138.264 192.333 138.087 192.562 138.194 192.745C138.482 193.237 138.848 193.672 139.105 194.183C139.37 194.712 139.506 195.309 139.549 195.897C139.642 197.187 139.343 198.457 138.841 199.639C138.244 201.048 137.453 202.365 136.863 203.777C136.244 205.257 135.976 206.778 136.009 208.381C136.045 210.08 136.284 211.772 136.391 213.468C136.501 215.19 136.541 216.914 136.515 218.639C136.464 222.145 136.164 225.649 135.607 229.111C135.455 230.058 135.275 230.999 135.105 231.942C134.947 232.816 134.736 233.704 134.889 234.595C135.135 236.029 136.516 237.333 136.051 238.847C135.961 239.141 136.416 239.344 136.556 239.06Z" fill="#1E3A59"/>
<path d="M105.062 181.12C105.641 180.992 105.929 180.04 106.213 179.589C106.624 178.937 107.09 178.326 107.598 177.748C108.612 176.597 109.797 175.606 111.086 174.776C112.411 173.923 113.878 173.285 115.359 172.756C116.888 172.21 118.449 171.944 120.022 171.571C120.812 171.383 121.582 171.092 122.211 170.567C122.62 170.224 123.424 169.385 123.099 168.789C123.003 168.612 122.852 168.509 122.648 168.568C122.302 168.667 122.217 169.08 122.042 169.343C121.565 170.057 120.738 170.402 119.937 170.609C118.342 171.022 116.74 171.265 115.178 171.82C113.731 172.335 112.353 173.021 111.057 173.846C109.641 174.747 108.317 175.781 107.191 177.032C106.633 177.651 106.127 178.32 105.685 179.026C105.38 179.514 104.617 180.479 104.949 181.074C104.972 181.114 105.02 181.129 105.062 181.12Z" fill="#1E3A59"/>
<path d="M110.188 178.862C110.04 178.885 109.924 178.969 109.797 179.046C109.663 179.127 109.534 179.208 109.411 179.305C109.166 179.499 108.935 179.702 108.71 179.918C108.601 180.022 108.49 180.126 108.388 180.237C108.286 180.349 108.198 180.473 108.097 180.586C107.894 180.814 107.688 181.046 107.548 181.32C107.506 181.401 107.593 181.502 107.678 181.45C107.931 181.294 108.149 181.089 108.369 180.892C108.489 180.784 108.62 180.696 108.742 180.591C108.857 180.493 108.968 180.389 109.081 180.289C109.306 180.088 109.532 179.887 109.755 179.683C109.866 179.581 109.965 179.468 110.067 179.357C110.172 179.242 110.27 179.147 110.329 179.002C110.366 178.912 110.263 178.85 110.188 178.862Z" fill="#1E3A59"/>
<path d="M62.6006 170.438C62.504 170.435 62.4509 170.43 62.3617 170.47C62.2789 170.508 62.2095 170.564 62.137 170.619C61.9755 170.74 61.8534 170.87 61.7237 171.023C61.4779 171.314 61.2387 171.609 61.0137 171.916C60.8027 172.204 60.6049 172.489 60.4323 172.801C60.3883 172.88 60.3411 172.958 60.2992 173.039C60.2536 173.126 60.231 173.231 60.2047 173.299C60.137 173.475 60.0441 173.654 60.0176 173.842C59.9973 173.985 60.1403 174.152 60.2902 174.051C60.4305 173.957 60.5607 173.823 60.6739 173.699C60.7355 173.631 60.8086 173.583 60.8706 173.517C60.9318 173.452 60.9828 173.376 61.039 173.307C61.2789 173.012 61.5038 172.711 61.7311 172.405C61.9418 172.121 62.1499 171.836 62.3629 171.554C62.4736 171.408 62.5826 171.271 62.6642 171.106C62.7066 171.02 62.7582 170.933 62.7851 170.84C62.8135 170.743 62.7875 170.641 62.7751 170.57C62.7613 170.492 62.6746 170.439 62.6006 170.438Z" fill="#1E3A59"/>
<path d="M63.7281 171.809C63.4977 171.77 63.3135 171.876 63.1176 171.984C62.9152 172.096 62.743 172.236 62.569 172.387C62.2367 172.677 61.9302 172.984 61.6505 173.325C61.3712 173.665 61.0697 174.024 60.8603 174.413C60.7481 174.622 60.6267 174.844 60.56 175.071C60.5323 175.165 60.5085 175.264 60.4901 175.361C60.464 175.498 60.4844 175.592 60.526 175.72C60.5559 175.813 60.6595 175.889 60.7602 175.853C60.8536 175.82 60.9439 175.802 61.0206 175.734C61.1001 175.664 61.1683 175.578 61.2418 175.501C61.4004 175.335 61.5208 175.134 61.6583 174.95C61.8967 174.633 62.1026 174.289 62.3489 173.98C62.6091 173.654 62.8783 173.33 63.1608 173.022C63.3087 172.861 63.4536 172.708 63.5843 172.532C63.7111 172.362 63.8524 172.211 63.8643 171.988C63.8683 171.914 63.8044 171.822 63.7281 171.809Z" fill="#1E3A59"/>
<path d="M64.4186 173.218C63.956 173.358 63.562 173.728 63.2388 174.077C62.901 174.441 62.5963 174.845 62.3168 175.255C62.0528 175.642 61.8055 176.049 61.6035 176.472C61.4917 176.707 61.4134 176.949 61.3464 177.199C61.2876 177.419 61.2358 177.729 61.3264 177.946C61.3812 178.077 61.5114 178.151 61.648 178.077C61.8267 177.979 61.9815 177.759 62.0847 177.587C62.2018 177.393 62.3215 177.197 62.4256 176.995C62.6361 176.585 62.847 176.182 63.0989 175.796C63.3345 175.434 63.5927 175.09 63.8753 174.764C64.176 174.418 64.5456 174.051 64.7357 173.63C64.8302 173.422 64.6729 173.141 64.4186 173.218Z" fill="#1E3A59"/>
<path d="M65.2446 175.568C64.7396 176.331 64.2823 177.119 63.8186 177.907C63.3588 178.688 62.9532 179.476 62.6481 180.331C62.5995 180.467 62.8009 180.587 62.8947 180.475C63.4769 179.779 63.9514 179.033 64.3921 178.242C64.8374 177.443 65.2859 176.649 65.6884 175.828C65.8337 175.531 65.4284 175.291 65.2446 175.568Z" fill="#1E3A59"/>
<path d="M67.3525 179.086C67.162 179.18 66.952 179.244 66.7714 179.355C66.587 179.469 66.4058 179.595 66.2412 179.737C65.9274 180.006 65.6254 180.319 65.3659 180.64C65.101 180.969 64.8229 181.318 64.6262 181.692C64.4346 182.058 64.2227 182.465 64.1767 182.879C64.16 183.03 64.3657 183.088 64.4611 182.997C64.6019 182.862 64.7248 182.687 64.8397 182.529C64.9561 182.369 65.0674 182.206 65.188 182.049C65.4314 181.733 65.6523 181.402 65.9021 181.09C66.1532 180.776 66.4162 180.479 66.6862 180.181C66.8239 180.03 66.9542 179.87 67.0842 179.711C67.216 179.551 67.3132 179.37 67.4506 179.213C67.5114 179.143 67.436 179.045 67.3525 179.086Z" fill="#1E3A59"/>
<path d="M67.4473 181.93C67.1066 181.864 66.8308 182.22 66.633 182.452C66.3981 182.728 66.1925 183.025 65.9874 183.324C65.7885 183.613 65.5908 183.909 65.4599 184.235C65.3998 184.385 65.3097 184.529 65.2701 184.686C65.2281 184.853 65.1968 185.023 65.159 185.191C65.1215 185.358 65.3183 185.478 65.4453 185.358C65.5703 185.24 65.7011 185.126 65.8285 185.011C65.9487 184.903 66.0316 184.752 66.1415 184.632C66.39 184.362 66.5756 184.023 66.7731 183.714C66.9597 183.423 67.1501 183.136 67.3267 182.839C67.4136 182.692 67.5046 182.529 67.5534 182.365C67.5886 182.247 67.6247 181.964 67.4473 181.93Z" fill="#1E3A59"/>
<g opacity="0.25">
<path d="M57.334 169.996C60.9333 175.409 63.1321 181.745 63.6599 188.225C64.9696 186.613 66.4517 185.141 68.0725 183.842C68.2568 183.695 68.4536 183.533 68.5153 183.306C68.5577 183.149 68.5297 182.984 68.5014 182.825C67.8384 179.084 67.1754 175.342 66.5124 171.601C66.489 171.469 66.4618 171.329 66.3714 171.23C66.2798 171.13 66.1409 171.09 66.0096 171.056C63.4769 170.396 60.883 169.972 58.2721 169.789L57.334 169.996Z" fill="#1E3A59"/>
</g>
<g opacity="0.25">
<path d="M92.0701 229.323C91.8182 230.46 90.6649 231.114 89.7145 231.792C87.5132 233.376 85.9903 235.768 85.0482 238.31C84.5892 239.541 84.2603 240.812 84.0044 242.099C81.4215 242.168 78.7533 242.112 75.9795 241.884C63.3897 242.29 49.7155 245.417 39.0223 242.696C34.0229 240.84 29.7262 237.981 26.002 234.314C26.6233 233.4 27.1432 232.478 26.9645 231.418L26.3513 228.25C26.9442 230.253 28.7311 231.642 30.4937 232.763C34.49 235.305 39.205 237.254 43.8795 236.474C45.037 236.28 46.166 235.922 47.3275 235.731C50.3451 235.24 53.4113 235.898 56.4571 236.19C62.9469 236.812 69.5993 235.707 75.5449 233.022C77.0436 232.348 78.5015 231.573 80.0651 231.077C81.7018 230.553 83.4197 230.35 85.1254 230.147C87.4402 229.871 89.7551 229.599 92.0701 229.323Z" fill="#1E3A59"/>
</g>
<g opacity="0.25">
<path d="M114.973 162.42C121.858 165.432 127.647 171.613 128.754 179.046C128.942 180.308 128.995 181.606 128.725 182.853C128.197 185.291 126.502 187.303 125.605 189.63C124.301 193.01 124.768 196.837 125.896 200.279C126.216 201.254 126.591 202.241 126.567 203.267C126.539 204.474 125.961 205.597 125.31 206.614C124.162 208.407 122.741 210.025 121.111 211.396C119.743 212.547 118.231 213.524 116.928 214.747C113.641 217.837 111.956 222.219 110.373 226.444C109.033 226.156 107.693 225.868 106.353 225.58C105.837 223.689 106.229 221.672 105.992 219.726C105.586 216.38 103.382 213.549 101.085 211.082C98.788 208.615 96.2548 206.237 94.9002 203.15C94.7118 202.721 94.5451 202.25 94.6453 201.792C94.7843 201.157 95.3802 200.747 95.9085 200.368C99.2958 197.938 101.671 194.139 102.372 190.029C103.466 183.618 100.635 177.273 99.4604 170.876C104.132 169.861 108.452 167.29 111.572 163.668C112.077 163.081 112.567 162.454 113.236 162.064C113.906 161.674 114.817 161.579 115.421 162.065L114.973 162.42Z" fill="#1E3A59"/>
</g>
<g opacity="0.25">
<path d="M125.562 236.688C125.862 231.971 121.641 228.104 120.979 223.423C120.44 219.61 122.299 215.481 120.663 211.995C119.067 213.057 117.527 214.223 116.224 215.63C113.81 218.237 112.317 221.546 110.911 224.81C110.813 225.038 110.712 225.282 110.754 225.526C110.794 225.765 110.961 225.959 111.121 226.141C114.06 229.495 116.562 233.232 118.543 237.228C120.662 237.3 122.781 237.373 124.9 237.446L125.562 236.688Z" fill="#1E3A59"/>
</g>
<g opacity="0.25">
<path d="M146.994 230.326C144.635 233.522 141.784 236.706 138.908 239.565C138.011 240.459 136.805 240.889 135.599 240.828C136.078 239.594 136.179 238.213 135.871 236.925C135.704 236.223 135.424 235.549 135.318 234.838C135.2 234.046 135.302 233.242 135.412 232.454C136.366 225.513 137.674 218.512 136.87 211.555C136.671 209.849 136.346 208.127 136.569 206.421C136.882 204.001 138.255 201.873 139.27 199.651C140.058 197.933 140.622 195.948 140.313 194.136C140.878 194.758 141.304 195.513 141.532 196.354C143.201 202.381 146.637 209.329 149.147 216.717C150.71 221.322 149.886 226.411 146.994 230.326Z" fill="#1E3A59"/>
</g>
</svg>
