<svg width="160" height="160" viewBox="0 0 160 160" fill="none" xmlns="http://www.w3.org/2000/svg">
<path d="M157 80C157 122.526 122.526 157 80 157C37.4741 157 3 122.526 3 80C3 37.4741 37.4741 3 80 3C122.526 3 157 37.4741 157 80Z" fill="url(#paint0_linear_736_35)"/>
<path fill-rule="evenodd" clip-rule="evenodd" d="M80 152.5C120.041 152.5 152.5 120.041 152.5 80C152.5 39.9594 120.041 7.5 80 7.5C39.9594 7.5 7.5 39.9594 7.5 80C7.5 120.041 39.9594 152.5 80 152.5ZM80 160C124.183 160 160 124.183 160 80C160 35.8172 124.183 0 80 0C35.8172 0 0 35.8172 0 80C0 124.183 35.8172 160 80 160Z" fill="white"/>
<path d="M24.6195 84C24.2035 84 23.8835 83.888 23.6595 83.664C23.4355 83.44 23.3235 83.12 23.3235 82.704V74.016C23.3235 73.6 23.4355 73.28 23.6595 73.056C23.8835 72.832 24.2035 72.72 24.6195 72.72H27.7395C29.6702 72.72 31.1582 73.2107 32.2035 74.192C33.2595 75.1627 33.7875 76.5493 33.7875 78.352C33.7875 79.2587 33.6488 80.064 33.3715 80.768C33.1048 81.4613 32.7155 82.048 32.2035 82.528C31.6915 83.008 31.0622 83.376 30.3155 83.632C29.5688 83.8773 28.7102 84 27.7395 84H24.6195ZM25.8035 81.968H27.5955C28.2035 81.968 28.7315 81.8933 29.1795 81.744C29.6275 81.5947 30.0008 81.3707 30.2995 81.072C30.5982 80.7733 30.8222 80.4 30.9715 79.952C31.1208 79.4933 31.1955 78.96 31.1955 78.352C31.1955 77.136 30.8915 76.2347 30.2835 75.648C29.6862 75.0507 28.7902 74.752 27.5955 74.752H25.8035V81.968ZM39.5861 84.176C38.6581 84.176 37.8581 84.0107 37.1861 83.68C36.5248 83.3387 36.0128 82.864 35.6501 82.256C35.2981 81.6373 35.1221 80.912 35.1221 80.08C35.1221 79.2693 35.2928 78.56 35.6341 77.952C35.9755 77.3333 36.4501 76.8533 37.0581 76.512C37.6768 76.16 38.3755 75.984 39.1541 75.984C39.7195 75.984 40.2315 76.08 40.6901 76.272C41.1488 76.4533 41.5435 76.72 41.8741 77.072C42.2048 77.4133 42.4555 77.8347 42.6261 78.336C42.7968 78.8267 42.8821 79.376 42.8821 79.984C42.8821 80.1867 42.8181 80.3413 42.6901 80.448C42.5621 80.544 42.3755 80.592 42.1301 80.592H37.1061V79.344H41.1381L40.8821 79.568C40.8821 79.1307 40.8181 78.768 40.6901 78.48C40.5621 78.1813 40.3755 77.9573 40.1301 77.808C39.8955 77.6587 39.6021 77.584 39.2501 77.584C38.8555 77.584 38.5195 77.6747 38.2421 77.856C37.9648 78.0373 37.7515 78.2987 37.6021 78.64C37.4528 78.9813 37.3781 79.392 37.3781 79.872V80C37.3781 80.8107 37.5648 81.408 37.9381 81.792C38.3221 82.176 38.8875 82.368 39.6341 82.368C39.8901 82.368 40.1835 82.336 40.5141 82.272C40.8448 82.208 41.1541 82.1067 41.4421 81.968C41.6875 81.8507 41.9061 81.8133 42.0981 81.856C42.2901 81.888 42.4395 81.9733 42.5461 82.112C42.6528 82.2507 42.7115 82.4107 42.7221 82.592C42.7435 82.7733 42.7061 82.9547 42.6101 83.136C42.5141 83.3067 42.3541 83.4507 42.1301 83.568C41.7675 83.7707 41.3568 83.92 40.8981 84.016C40.4501 84.1227 40.0128 84.176 39.5861 84.176ZM45.7594 84.144C45.354 84.144 45.0394 84.032 44.8154 83.808C44.602 83.584 44.4954 83.2587 44.4954 82.832V74.016C44.4954 73.6 44.6074 73.28 44.8314 73.056C45.0554 72.832 45.3754 72.72 45.7914 72.72H51.2634C51.5834 72.72 51.8234 72.8053 51.9834 72.976C52.154 73.136 52.2394 73.3707 52.2394 73.68C52.2394 74 52.154 74.2453 51.9834 74.416C51.8234 74.576 51.5834 74.656 51.2634 74.656H46.9754V77.408H50.9114C51.2314 77.408 51.4767 77.4933 51.6474 77.664C51.818 77.824 51.9034 78.0587 51.9034 78.368C51.9034 78.6773 51.818 78.9173 51.6474 79.088C51.4767 79.2587 51.2314 79.344 50.9114 79.344H46.9754V82.832C46.9754 83.7067 46.57 84.144 45.7594 84.144ZM55.269 84.128C54.8743 84.128 54.5703 84.016 54.357 83.792C54.1543 83.5573 54.053 83.232 54.053 82.816V77.344C54.053 76.9173 54.1543 76.592 54.357 76.368C54.5703 76.1333 54.8743 76.016 55.269 76.016C55.653 76.016 55.9463 76.1333 56.149 76.368C56.3623 76.592 56.469 76.9173 56.469 77.344V82.816C56.469 83.232 56.3677 83.5573 56.165 83.792C55.9623 84.016 55.6637 84.128 55.269 84.128ZM55.269 74.704C54.821 74.704 54.4743 74.6027 54.229 74.4C53.9943 74.1867 53.877 73.888 53.877 73.504C53.877 73.1093 53.9943 72.8107 54.229 72.608C54.4743 72.3947 54.821 72.288 55.269 72.288C55.717 72.288 56.0583 72.3947 56.293 72.608C56.5277 72.8107 56.645 73.1093 56.645 73.504C56.645 73.888 56.5277 74.1867 56.293 74.4C56.0583 74.6027 55.717 74.704 55.269 74.704ZM67.043 84.176C66.595 84.176 66.1363 84.1387 65.667 84.064C65.2083 84 64.7657 83.904 64.339 83.776C63.923 83.648 63.5497 83.488 63.219 83.296C62.9843 83.168 62.819 83.0027 62.723 82.8C62.627 82.5867 62.5897 82.3733 62.611 82.16C62.643 81.9467 62.723 81.76 62.851 81.6C62.9897 81.4293 63.1603 81.3227 63.363 81.28C63.5763 81.2267 63.811 81.264 64.067 81.392C64.5043 81.6373 64.979 81.8187 65.491 81.936C66.0137 82.0533 66.531 82.112 67.043 82.112C67.8217 82.112 68.3763 81.9947 68.707 81.76C69.0377 81.5147 69.203 81.2107 69.203 80.848C69.203 80.5387 69.0857 80.2933 68.851 80.112C68.6163 79.9307 68.2057 79.776 67.619 79.648L65.811 79.264C64.787 79.0507 64.0243 78.688 63.523 78.176C63.0323 77.6533 62.787 76.9707 62.787 76.128C62.787 75.5947 62.899 75.1093 63.123 74.672C63.347 74.2347 63.6617 73.856 64.067 73.536C64.4723 73.216 64.9523 72.9707 65.507 72.8C66.0723 72.6293 66.691 72.544 67.363 72.544C67.9603 72.544 68.547 72.6187 69.123 72.768C69.699 72.9067 70.2057 73.1147 70.643 73.392C70.8563 73.52 71.0003 73.6853 71.075 73.888C71.1603 74.08 71.187 74.2773 71.155 74.48C71.1337 74.672 71.0537 74.8427 70.915 74.992C70.787 75.1413 70.6217 75.2373 70.419 75.28C70.2163 75.3227 69.971 75.2747 69.683 75.136C69.331 74.9547 68.9577 74.8213 68.563 74.736C68.1683 74.6507 67.763 74.608 67.347 74.608C66.899 74.608 66.515 74.6667 66.195 74.784C65.8857 74.9013 65.6457 75.0667 65.475 75.28C65.315 75.4933 65.235 75.7387 65.235 76.016C65.235 76.3253 65.347 76.576 65.571 76.768C65.795 76.96 66.1843 77.1147 66.739 77.232L68.547 77.616C69.5923 77.84 70.371 78.2027 70.883 78.704C71.395 79.1947 71.651 79.8453 71.651 80.656C71.651 81.1893 71.5443 81.6747 71.331 82.112C71.1177 82.5387 70.8083 82.9067 70.403 83.216C69.9977 83.5253 69.5123 83.7653 68.947 83.936C68.3817 84.096 67.747 84.176 67.043 84.176ZM74.269 84.128C73.8743 84.128 73.5703 84.016 73.357 83.792C73.1543 83.5573 73.053 83.232 73.053 82.816V77.344C73.053 76.9173 73.1543 76.592 73.357 76.368C73.5703 76.1333 73.8743 76.016 74.269 76.016C74.653 76.016 74.9463 76.1333 75.149 76.368C75.3623 76.592 75.469 76.9173 75.469 77.344V82.816C75.469 83.232 75.3677 83.5573 75.165 83.792C74.9623 84.016 74.6637 84.128 74.269 84.128ZM74.269 74.704C73.821 74.704 73.4743 74.6027 73.229 74.4C72.9943 74.1867 72.877 73.888 72.877 73.504C72.877 73.1093 72.9943 72.8107 73.229 72.608C73.4743 72.3947 73.821 72.288 74.269 72.288C74.717 72.288 75.0583 72.3947 75.293 72.608C75.5277 72.8107 75.645 73.1093 75.645 73.504C75.645 73.888 75.5277 74.1867 75.293 74.4C75.0583 74.6027 74.717 74.704 74.269 74.704ZM78.5823 84.144C78.1876 84.144 77.8836 84.0373 77.6703 83.824C77.4676 83.6107 77.3663 83.3067 77.3663 82.912V77.232C77.3663 76.8373 77.4676 76.5387 77.6703 76.336C77.8836 76.1227 78.1769 76.016 78.5503 76.016C78.9343 76.016 79.2276 76.1227 79.4303 76.336C79.6329 76.5387 79.7343 76.8373 79.7343 77.232V78.256L79.5583 77.616C79.7716 77.1253 80.1023 76.7307 80.5503 76.432C80.9983 76.1333 81.5263 75.984 82.1343 75.984C82.7423 75.984 83.2489 76.128 83.6543 76.416C84.0596 76.704 84.3476 77.1467 84.5183 77.744H84.2943C84.5289 77.2 84.8863 76.7733 85.3663 76.464C85.8569 76.144 86.4169 75.984 87.0463 75.984C87.6543 75.984 88.1503 76.1067 88.5343 76.352C88.9289 76.5867 89.2223 76.9493 89.4143 77.44C89.6063 77.92 89.7023 78.5333 89.7023 79.28V82.912C89.7023 83.3067 89.5956 83.6107 89.3823 83.824C89.1796 84.0373 88.8863 84.144 88.5023 84.144C88.1076 84.144 87.8036 84.0373 87.5903 83.824C87.3876 83.6107 87.2863 83.3067 87.2863 82.912V79.36C87.2863 78.8373 87.2009 78.4587 87.0303 78.224C86.8703 77.9787 86.5929 77.856 86.1983 77.856C85.7396 77.856 85.3823 78.016 85.1263 78.336C84.8703 78.656 84.7423 79.1093 84.7423 79.696V82.912C84.7423 83.3067 84.6356 83.6107 84.4223 83.824C84.2196 84.0373 83.9263 84.144 83.5423 84.144C83.1583 84.144 82.8596 84.0373 82.6463 83.824C82.4329 83.6107 82.3263 83.3067 82.3263 82.912V79.36C82.3263 78.8373 82.2409 78.4587 82.0703 78.224C81.9103 77.9787 81.6329 77.856 81.2383 77.856C80.7796 77.856 80.4223 78.016 80.1663 78.336C79.9103 78.656 79.7823 79.1093 79.7823 79.696V82.912C79.7823 83.7333 79.3823 84.144 78.5823 84.144ZM92.769 87.024C92.3743 87.024 92.0703 86.9173 91.857 86.704C91.6543 86.5013 91.553 86.1973 91.553 85.792V77.232C91.553 76.8373 91.6543 76.5387 91.857 76.336C92.0703 76.1227 92.3637 76.016 92.737 76.016C93.1317 76.016 93.4303 76.1227 93.633 76.336C93.8357 76.5387 93.937 76.8373 93.937 77.232V78.32L93.761 77.696C93.921 77.184 94.241 76.7733 94.721 76.464C95.2117 76.144 95.7717 75.984 96.401 75.984C97.0837 75.984 97.681 76.1493 98.193 76.48C98.7157 76.8107 99.121 77.28 99.409 77.888C99.697 78.496 99.841 79.2213 99.841 80.064C99.841 80.9067 99.697 81.6373 99.409 82.256C99.121 82.8747 98.721 83.3493 98.209 83.68C97.697 84.0107 97.0943 84.176 96.401 84.176C95.7823 84.176 95.233 84.0267 94.753 83.728C94.273 83.4187 93.9477 83.0187 93.777 82.528H93.969V85.792C93.969 86.1973 93.8623 86.5013 93.649 86.704C93.4463 86.9173 93.153 87.024 92.769 87.024ZM95.681 82.368C96.0223 82.368 96.321 82.2827 96.577 82.112C96.8437 81.9413 97.0463 81.6907 97.185 81.36C97.3343 81.0187 97.409 80.5867 97.409 80.064C97.409 79.2853 97.249 78.7147 96.929 78.352C96.609 77.9787 96.193 77.792 95.681 77.792C95.3397 77.792 95.0357 77.872 94.769 78.032C94.513 78.192 94.3103 78.4427 94.161 78.784C94.0117 79.1147 93.937 79.5413 93.937 80.064C93.937 80.8427 94.097 81.424 94.417 81.808C94.737 82.1813 95.1583 82.368 95.681 82.368ZM104.151 84.176C103.201 84.176 102.492 83.9147 102.023 83.392C101.553 82.8587 101.319 82.0693 101.319 81.024V73.808C101.319 73.4027 101.42 73.0987 101.623 72.896C101.836 72.6827 102.14 72.576 102.535 72.576C102.919 72.576 103.212 72.6827 103.415 72.896C103.628 73.0987 103.735 73.4027 103.735 73.808V80.928C103.735 81.3653 103.825 81.6907 104.007 81.904C104.199 82.1067 104.449 82.208 104.759 82.208C104.844 82.208 104.924 82.2027 104.999 82.192C105.073 82.1813 105.153 82.176 105.239 82.176C105.409 82.1547 105.527 82.208 105.591 82.336C105.665 82.4533 105.703 82.6933 105.703 83.056C105.703 83.376 105.639 83.6213 105.511 83.792C105.383 83.952 105.185 84.0587 104.919 84.112C104.812 84.1227 104.689 84.1333 104.551 84.144C104.412 84.1653 104.279 84.176 104.151 84.176ZM107.863 84.128C107.468 84.128 107.164 84.016 106.951 83.792C106.748 83.5573 106.647 83.232 106.647 82.816V77.344C106.647 76.9173 106.748 76.592 106.951 76.368C107.164 76.1333 107.468 76.016 107.863 76.016C108.247 76.016 108.54 76.1333 108.743 76.368C108.956 76.592 109.063 76.9173 109.063 77.344V82.816C109.063 83.232 108.961 83.5573 108.759 83.792C108.556 84.016 108.257 84.128 107.863 84.128ZM107.863 74.704C107.415 74.704 107.068 74.6027 106.823 74.4C106.588 74.1867 106.471 73.888 106.471 73.504C106.471 73.1093 106.588 72.8107 106.823 72.608C107.068 72.3947 107.415 72.288 107.863 72.288C108.311 72.288 108.652 72.3947 108.887 72.608C109.121 72.8107 109.239 73.1093 109.239 73.504C109.239 73.888 109.121 74.1867 108.887 74.4C108.652 74.6027 108.311 74.704 107.863 74.704ZM112.752 84.144C112.357 84.144 112.053 84.0373 111.84 83.824C111.637 83.6107 111.536 83.3067 111.536 82.912V77.952H110.96C110.661 77.952 110.427 77.872 110.256 77.712C110.096 77.552 110.016 77.3333 110.016 77.056C110.016 76.7573 110.096 76.5333 110.256 76.384C110.427 76.224 110.661 76.144 110.96 76.144H112.24L111.536 76.784V76.288C111.536 75.168 111.813 74.32 112.368 73.744C112.923 73.168 113.744 72.8213 114.832 72.704L115.296 72.656C115.595 72.6347 115.829 72.6773 116 72.784C116.181 72.88 116.299 73.0133 116.352 73.184C116.416 73.3547 116.432 73.5307 116.4 73.712C116.368 73.8933 116.293 74.0533 116.176 74.192C116.069 74.32 115.931 74.3893 115.76 74.4L115.424 74.432C114.891 74.464 114.512 74.5973 114.288 74.832C114.064 75.0667 113.952 75.4133 113.952 75.872V76.416L113.648 76.144H118.128C118.512 76.144 118.805 76.2613 119.008 76.496C119.221 76.72 119.328 77.04 119.328 77.456V82.816C119.328 83.232 119.227 83.5573 119.024 83.792C118.821 84.016 118.523 84.128 118.128 84.128C117.744 84.128 117.445 84.016 117.232 83.792C117.019 83.5573 116.912 83.232 116.912 82.816V77.952H113.952V82.912C113.952 83.7333 113.552 84.144 112.752 84.144ZM118.176 74.704C117.749 74.704 117.419 74.6027 117.184 74.4C116.96 74.1867 116.848 73.888 116.848 73.504C116.848 73.1093 116.96 72.8107 117.184 72.608C117.419 72.3947 117.749 72.288 118.176 72.288C118.603 72.288 118.928 72.3947 119.152 72.608C119.387 72.8107 119.504 73.1093 119.504 73.504C119.504 73.888 119.387 74.1867 119.152 74.4C118.928 74.6027 118.603 74.704 118.176 74.704ZM125.274 84.176C124.346 84.176 123.546 84.0107 122.874 83.68C122.212 83.3387 121.7 82.864 121.338 82.256C120.986 81.6373 120.81 80.912 120.81 80.08C120.81 79.2693 120.98 78.56 121.322 77.952C121.663 77.3333 122.138 76.8533 122.746 76.512C123.364 76.16 124.063 75.984 124.842 75.984C125.407 75.984 125.919 76.08 126.378 76.272C126.836 76.4533 127.231 76.72 127.562 77.072C127.892 77.4133 128.143 77.8347 128.314 78.336C128.484 78.8267 128.57 79.376 128.57 79.984C128.57 80.1867 128.506 80.3413 128.378 80.448C128.25 80.544 128.063 80.592 127.818 80.592H122.794V79.344H126.826L126.57 79.568C126.57 79.1307 126.506 78.768 126.378 78.48C126.25 78.1813 126.063 77.9573 125.818 77.808C125.583 77.6587 125.29 77.584 124.938 77.584C124.543 77.584 124.207 77.6747 123.93 77.856C123.652 78.0373 123.439 78.2987 123.29 78.64C123.14 78.9813 123.066 79.392 123.066 79.872V80C123.066 80.8107 123.252 81.408 123.626 81.792C124.01 82.176 124.575 82.368 125.322 82.368C125.578 82.368 125.871 82.336 126.202 82.272C126.532 82.208 126.842 82.1067 127.13 81.968C127.375 81.8507 127.594 81.8133 127.786 81.856C127.978 81.888 128.127 81.9733 128.234 82.112C128.34 82.2507 128.399 82.4107 128.41 82.592C128.431 82.7733 128.394 82.9547 128.298 83.136C128.202 83.3067 128.042 83.4507 127.818 83.568C127.455 83.7707 127.044 83.92 126.586 84.016C126.138 84.1227 125.7 84.176 125.274 84.176ZM133.031 84.176C132.348 84.176 131.746 84.0107 131.223 83.68C130.711 83.3493 130.311 82.8747 130.023 82.256C129.735 81.6373 129.591 80.9067 129.591 80.064C129.591 79.2213 129.735 78.496 130.023 77.888C130.311 77.28 130.711 76.8107 131.223 76.48C131.746 76.1493 132.348 75.984 133.031 75.984C133.65 75.984 134.194 76.1333 134.663 76.432C135.143 76.7307 135.468 77.12 135.639 77.6H135.463V73.808C135.463 73.4027 135.564 73.0987 135.767 72.896C135.97 72.6827 136.268 72.576 136.663 72.576C137.047 72.576 137.346 72.6827 137.559 72.896C137.772 73.0987 137.879 73.4027 137.879 73.808V82.912C137.879 83.3067 137.772 83.6107 137.559 83.824C137.356 84.0373 137.063 84.144 136.679 84.144C136.295 84.144 135.996 84.0373 135.783 83.824C135.58 83.6107 135.479 83.3067 135.479 82.912V81.824L135.655 82.448C135.506 82.9707 135.186 83.392 134.695 83.712C134.215 84.0213 133.66 84.176 133.031 84.176ZM133.751 82.368C134.103 82.368 134.407 82.2827 134.663 82.112C134.919 81.9413 135.122 81.6907 135.271 81.36C135.42 81.0187 135.495 80.5867 135.495 80.064C135.495 79.2853 135.335 78.7147 135.015 78.352C134.695 77.9787 134.274 77.792 133.751 77.792C133.41 77.792 133.106 77.872 132.839 78.032C132.583 78.192 132.38 78.4427 132.231 78.784C132.092 79.1147 132.023 79.5413 132.023 80.064C132.023 80.8427 132.183 81.424 132.503 81.808C132.823 82.1813 133.239 82.368 133.751 82.368Z" fill="white"/>
<defs>
<linearGradient id="paint0_linear_736_35" x1="38.2917" y1="22.25" x2="128.125" y2="137.75" gradientUnits="userSpaceOnUse">
<stop offset="0.394929" stop-color="#6ADDFF"/>
<stop offset="0.878969" stop-color="#06C6FF"/>
</linearGradient>
</defs>
</svg>
